<svg xmlns="http://www.w3.org/2000/svg" width="67" height="84" viewBox="0 0 67 84">
    <g fill="none" fill-rule="nonzero">
        <path fill="#F0CB23" stroke="#F0CB23" d="M34.114 29c-1.333-5.333-4-6.167-8-2.5s-3 8.5 3 14.5c6.667 7.333 9.167 12.833 7.5 16.5-2.5 5.5 1.1 13.077-6.2 17.573-4.866 2.998-5.3 4.973-1.3 5.927 8.667-2.931 13.667-9.497 15-19.698 1.334-10.201-2-18.635-10-25.302v-7z"/>
        <g stroke="#222" stroke-width="6" transform="translate(0 3)">
            <circle cx="34" cy="22" r="9"/>
            <ellipse cx="33.5" cy="54.5" rx="13.5" ry="23.5"/>
            <path d="M63.598 46.947c1.608-1.998-1.313-7.814-7.785-12.379-6.567-4.632-13.65-5.702-15.41-3.515-1.609 1.998 1.312 7.814 7.784 12.379 6.567 4.632 13.65 5.702 15.41 3.515zM3.433 47.942c1.649 2.206 8.32 1.12 14.609-3.66 6.3-4.789 9.192-10.993 7.525-13.224-1.649-2.206-8.32-1.12-14.609 3.66-6.3 4.789-9.192 10.993-7.525 13.224zM22 39.857c6.832 4.46 14.833 4.173 24-.857M19 52.857c8.256 4.46 17.923 4.173 29-.857M22 64.072c5.582 5.573 13.582 5.216 24-1.072"/>
            <path stroke-linecap="round" d="M37.28 12C36.229 2.467 38.136-1.386 43 .44M28.766 12C29.643 2.467 28.054-1.386 24 .44"/>
        </g>
    </g>
</svg>
