<svg xmlns="http://www.w3.org/2000/svg" width="50" height="53" viewBox="0 0 50 53">
    <g fill="none" fill-rule="nonzero">
        <path fill="#9EB8C0" d="M33.648 19.792L23.142 31.15l-3.758-3.477L29.89 16.315z"/>
        <path fill="#7D93A9" d="M34.05 20.147L23.464 31.592l-2.165-2.003 10.587-11.445z"/>
        <path fill="#9EB8C0" d="M14.54 22.44c3.49-1.55 7.63.02 11.15 3.37 3.52 3.35 5.48 6.93 4.36 10.91C28.93 40.7 9.65 57.85 2.4 50.46c-7.24-7.39 7.3-25.87 12.14-28.02z"/>
        <path fill="#7D93A9" d="M21.81 40.28c6.12-6.7 3.18-11.76 3.41-14.91.08.06.63.6.69.65 3.41 3.3 5.23 6.79 4.13 10.7-1.12 3.97-20.4 21.13-27.65 13.74 5.74-2.18 14.4-4.68 19.42-10.18z"/>
        <path fill="#D4A52A" d="M35.94 21.64L47.99 8.62a2.79 2.79 0 0 0-.15-3.94L43.67.83c-.48-.44-1.13-.6-1.73-.49-.4.08-.78.28-1.08.6l-13.23 14.3c-.35.38-.51.86-.49 1.33.02.48.22.94.6 1.29L32 21.8c.57.52 1.29.77 2 .74.71-.03 1.42-.33 1.94-.9z"/>
        <path fill="#AC7A30" d="M35.3 22.33l13.32-14.4c.35-.38.51-.86.49-1.33a1.87 1.87 0 0 0-.59-1.29l-1.8-1.67-15.84 17.12 1.8 1.67c.36.33.81.49 1.26.49.5.01 1-.19 1.36-.59z"/>
        <path fill="#974F15" d="M20.63 46.37c-.08-.33-.22-.64-.44-.9-.15-.17-.33-.36-.29-.58.02-.14.13-.24.23-.34.88-.87 1.57-2.09 1.3-3.29-.19-.83-.83-1.61-.65-2.44.2-.91 1.27-1.39 1.54-2.29.11-.38.06-.79-.01-1.18-.11-.61-.26-1.22-.59-1.74-.34-.52-.89-.93-1.51-.95-.73-.03-1.54.45-2.12.02-.3-.22-.41-.61-.64-.91-.57-.76-1.7-.76-2.63-.59-.17.03-.36.06-.51-.01-.12-.06-.2-.17-.29-.28-.73-.84-2.07-.79-3.11-.38-1 .4-1.9 1.08-2.55 1.94-.14.18-.27.37-.48.45-.56.22-1.01-.48-1.51-.81-.24-.16-.53-.22-.82-.23-4.27 6.38-7.34 14.32-3.16 18.58.9.92 1.99 1.46 3.21 1.69h.02c4.28.82 10.11-2.15 15.01-5.76z"/>
        <path fill="#6F281A" d="M20.63 46.37c-.08-.33-.22-.64-.44-.9-.15-.17-.33-.36-.29-.58.02-.14.13-.24.23-.34.88-.87 1.57-2.09 1.3-3.29-.19-.83-.83-1.61-.65-2.44.2-.91 1.27-1.39 1.54-2.29.11-.38.06-.79-.01-1.18-.11-.61-.26-1.22-.59-1.74-.34-.52-.89-.93-1.51-.95-.34-.01-.7.09-1.05.15 1.07.42 1.35 1.48 1.11 2.45-.35 1.44-2.25 2.39-1.99 3.62.25 1.19.7 2.14.31 2.96-.53 1.1-1.4 1.4-1.75 2.53-.23.75 1.11 2.28-.93 2.63-2.8.47-3.87 3.13-6.11 2.38-2.68-.9-3.63 1.88-7.41 1.06.9.92 1.99 1.46 3.21 1.69h.02c4.28.82 10.11-2.15 15.01-5.76z"/>
        <path fill="#7E2F22" d="M13.36 35.51c-.22.09-.68.05-1.01-.09-.24-.1-.51-.27-.74-.13-.22.13-.21.47-.11.71.1.24.26.48.23.73-.03.28-.27.49-.5.64-.23.15-.5.29-.64.54-.24.43.07 1.02.54 1.16.47.14 1-.11 1.28-.51.15-.22.25-.48.45-.65.16-.14.37-.21.56-.3.41-.19.8-.5.94-.93.17-.51-.04-.88-.3-1.06-.24-.19-.49-.2-.7-.11zM13.71 45.29c-.43.34-1.46.34-1.93.62-.44.26-.83.63-1.32.76-.21.05-.45.05-.63-.06-.22-.14-.32-.38-.37-.64a.416.416 0 0 1 .18-.44c.55-.37 1.24-.47 1.68-.96.23-.26.36-.59.6-.84.29-.3.72-.43 1.13-.4.41.03.86.16 1.12.49.33.41.07 1.05-.46 1.47zM6.08 42.02c-.02.19.11.44.08.67-.03.23-.14.45-.34.55-.26.12-.59.02-.82.19-.34.26-.12.87-.4 1.19-.12.14-.32.19-.51.2-.36.01-.74-.14-.96-.44-.22-.29-.25-.72-.04-1.02.12-.17.29-.29.42-.45.32-.4.28-.97.26-1.48 0-.11 0-.23.05-.33.04-.08.12-.14.19-.19.32-.25.65-.48.99-.69.11-.07.24-.14.36-.1.17.05.21.26.21.44 0 .17-.01.38.12.49.12.1.29.09.45.06.15-.03.33-.06.46.03.13.08.15.29-.01.42s-.5.27-.51.46z"/>
    </g>
</svg>
