<svg xmlns="http://www.w3.org/2000/svg" width="53" height="39" viewBox="0 0 53 39">
    <g fill="none" fill-rule="nonzero">
        <path fill="#2862AF" d="M52.06 11.64v20.54c0 4.86-4.35 6.75-7.93 6.75H10.37c-4.85 0-9.66-1.66-9.66-6.52V11.45c0-6.38 51.35-6.27 51.35.19z"/>
        <path fill="#6D92C9" d="M27.57 24.42c5.28.2 18.13-1.04 19.73 4.88 1.38 5.06-3.74 6-6.96 6H13.92c-4.37 0-9.96-1-8.45-6.27 1.44-5.01 15.87-4.85 22.1-4.61z"/>
        <path fill="#EDE1EC" d="M44.77 12.09v15.04c0 3.56-2.96 4.94-5.4 4.94H14.93c-3.31 0-6.58-1.21-6.58-4.77V11.96c0-4.68 36.42-4.6 36.42.13z"/>
        <path fill="#D5C7D8" d="M19.52 18.37c0 3.74-.02 4.41-.02 5.15 0 3.56.07 5.77.92 6.71 1 1.11 2.64 1.83 2.64 1.83h-8.12c-3.31 0-6.58-1.21-6.58-4.77V11.95l11.28-.11c0 .01-.12 3.83-.12 6.53z"/>
        <path fill="#8C8F90" d="M52.46 11.41c0 1.22-.08 2.34-4.31 3.2-5.22 1.06-13 1.74-21.69 1.74-8.81 0-16.69-.69-21.91-1.79C.45 13.7.46 12.6.46 11.4V5.98c5.19 1.78 17.16 2.81 26.22 2.81 8.83 0 19.66-1.03 25.78-2.81v5.43z"/>
        <path fill="#BDBEBF" d="M52.46 5.99c0 1.22-1.15 2.57-5.38 3.43-5.22 1.06-11.94 1.51-20.62 1.51-8.81 0-15.48-.42-20.7-1.51-4.1-.86-5.3-2.23-5.3-3.43 0-1.16 1.92-2.58 5.18-3.36C10.83 1.39 17.44.91 26.5.91c8.83 0 15.44.65 20.66 1.76 4 .85 5.3 2.12 5.3 3.32z"/>
    </g>
</svg>
