<svg xmlns="http://www.w3.org/2000/svg" width="49" height="52" viewBox="0 0 49 52">
    <g fill="none" fill-rule="nonzero">
        <path fill="#DB6699" d="M1.19 39.48c3.57-4.01 6.52-7.84 10.25-11.88 2.58-2.79 4.98-7.82 7.63-10.53.88-.9 8.4-9.99 13.26-16.24.6-.77 1.31-.97 1.98-.85.68.12 1.23.75 1.27 1.44.04.71-.27 1.3-.61 1.92-2 3.61-4.08 6.79-6.11 10.06-.12.23.16.55.4.34 1.26-1.07 8.4-9.14 10.62-11.38.51-.51 1.05-1.1 1.74-1.3.69-.2 1.61.14 2 .82.45.79.31 1.56-.56 2.76-2.64 3.64-7.37 9.84-9.43 12.43-.16.2.05.72.46.33 2.62-2.42 7.28-7.02 10.69-10.32.64-.62 1.37-.97 2.11-.5 1 .63.92 2.14.35 2.87-2.04 2.58-8.98 10.13-10.53 11.87-.22.27.21.5.43.33 2.36-1.8 5.85-4.98 8.58-7.46.4-.36.91-.72 1.49-.72.73 0 1.2.67 1.1 1.39-.08.66-.5 1.22-.91 1.74-5.33 6.88-11.37 13.18-17.5 19.36-2.13 2.15-4.27 4.29-6.04 6.74-1.88 2.61-3.54 5.43-5.2 8.19-.08.14.02.34-.13.39-.84.31-1.72.48-2.62.59-.56.05-1.12.08-1.69.07-.51-.01-1.02-.06-1.54-.12-.19-.03-.38-.03-.56-.07-3.07-.59-6.24-1.96-8.36-4.26C1.65 45.21.95 42.74.72 40.84c-.03-.48.13-.98.47-1.36z"/>
        <path fill="#C94F72" d="M18.26 51.45c-.18.06-.36.09-.54.14-1.14.25-2.29.37-3.47.35-.66-.01-1.32-.08-1.98-.17-.4-1.79-5.89-10.56 7.06-16.12 14.29-6.14 28.98-19.71 28.71-21.81 1.89 2.07-4.25 6.69-7.07 9.98-1.71 1.99-3.89 4.27-5.63 6.23-3.38 3.79-4.54 5.42-10.08 11.32-.78.83-1.53 1.72-2.17 2.67-1.54 2.28-2.87 4.62-4.24 6.94-.14.22-.34.39-.59.47z"/>
        <path fill="#A7224D" d="M47.24 9.45c-1.71 2.18-8.46 9.55-10.53 11.87"/>
        <path fill="#C94F72" d="M21.74 13.81c.44-1.6 1.52-5.9 1.41-7.59-.08-1.21-2.03-2.65-3.27-.89-.99 1.4-2.27 4.81-3.42 6.91-1.01 1.84-1.98 3.63-2.75 5.59-.62 1.58-.98 3.26-1.43 4.9-1.19 4.39-2.73 6.77-6.43 11.33 6.38-3.99 10.11-6.4 14.08-12.71.09-.15.57-1.26.58-1.43.01-.8.55-3.65 1.23-6.11z"/>
        <path fill="#B13555" d="M21.82 13.5c1.35-4.92 1.66-7.13 1.1-7.98-.37-.56-.83-.85-1.16-.93.76 1.18.64 2.63-.01 5.39-.55 2.33-2.95 6.55-3.81 9.31-.51 1.63-1.09 4.75-3.14 6.83-2.53 2.56-6.91 5.36-7.24 5.74-.6.81-.98 1.25-1.75 2.21 6.39-4 10.37-5.91 14.23-12.31.37-.61.54-1.12.6-1.87.06-.68.28-3.11 1.18-6.39zM18.27 51.44c-.25.08-.51.13-.77.2-.76.15-1.52.25-2.29.29-.18-2.9-.97-9.33 6.36-13.75 5.2-3.14 13.81-10.24 15.68-11.95 4.3-3.91 11.22-10.32 10.99-12.09.52 1-.43 2.48-1.69 3.93-1.62 1.86-3.72 4.17-5.21 5.9-1.71 1.99-9.56 10.19-11.83 12.73-2.01 2.25-4.63 4.67-6.33 7.16-1.58 2.34-2.95 4.73-4.35 7.11-.12.23-.32.39-.56.47z"/>
        <path fill="#C94F72" d="M33.9-.05c.02.05.09.21.11.29.21.82.02 1.7-.36 2.45-.38.75-.94 1.4-1.5 2.03-.65.71-1.31 1.41-2.05 2.03-.78.66-1.64 1.24-2.25 2.06-.61.82-.92 1.96-.43 2.86.33.61.96 1.01 1.25 1.64.39-1.16 1.03-2.22 1.67-3.27.22-.36.44-.72.66-1.09.69-1.14 1.38-2.28 2.14-3.38.29-.42.59-.84.85-1.28.62-1.07.96-2.3.99-3.54 0-.17-.08-.46-.14-.55-.07-.04-.36-.27-.94-.25z"/>
        <path fill="#B23953" d="M28.3 11.52c.06-1.68 2.07-3.35 4.13-5.99.6-.77 3.21-3.26 2.13-5.49.56.21.99.77 1.03 1.38.04.71-.27 1.3-.61 1.92-2 3.61-4.08 6.79-6.11 10.06-.05.09-.03.2.02.28-.01.01-.66-.47-.59-2.16z"/>
        <path fill="#C94F72" d="M42.39 1.04c.1 1.16-.55 2.36-1.22 3.31a13.55 13.55 0 0 1-3.64 3.48c-.94.61-1.95 1.11-2.81 1.82-1.05.87-1.83 2.07-2.14 3.39-.3 1.33-.1 2.78.62 3.93 2.32-4.4 5.72-8.11 8.94-11.9.46-.54.92-1.09 1.18-1.75.26-.66.17-1.38-.21-1.98-.01 0-.34-.24-.72-.3zM46.52 6.42c.08.42.06.99-.04 1.4-.11.44-.4.81-.71 1.15-1.16 1.29-2.56 2.34-3.95 3.37l-1.66 1.24c-.34.25-.67.5-1.02.75-.95.67-1.96 1.29-2.71 2.18-.75.89-1.19 2.14-.78 3.23.18.47.49.86.8 1.25 1.21-1.49 2.43-2.98 3.64-4.47.53-.65 1.07-1.31 1.7-1.88.51-.46 1.08-.86 1.59-1.32 1.09-1 1.89-2.28 2.94-3.31.25-.24.51-.48.67-.79.12-.23.17-.49.21-.74.08-.52.05-1.06.05-1.58 0 0-.22-.34-.73-.48z"/>
        <path fill="#B23953" d="M33.33 14.4c.47-1.69 3.69-5.01 6.05-7.1 3.71-3.28 3.97-4.9 3.5-6.1.31.15.57.38.74.68.45.79.31 1.56-.56 2.76-2.64 3.64-7.37 9.84-9.43 12.43-.07.09-.07.25-.01.35 0 .01-.98-.54-.29-3.02z"/>
        <path fill="#A73350" d="M47.24 9.45c-1.71 2.18-8.46 9.55-10.53 11.87"/>
        <path fill="#B23953" d="M36.41 19.45c.47-2.52 6.11-5.65 9.5-9.52 1.16-1.32 1.44-2.5.98-3.35 1 .63.92 2.14.35 2.87-2.04 2.58-8.98 10.13-10.53 11.87-.05.06-.06.11-.06.18-.09-.14-.47-.84-.24-2.05z"/>
    </g>
</svg>
