<svg xmlns="http://www.w3.org/2000/svg" width="85" height="79" viewBox="0 0 85 79">
    <g fill="none" fill-rule="nonzero">
        <path fill="#C54DAF" stroke="#C54DAF" d="M56.77 22.982c-5.992 6.236-8.988 10.27-8.988 12.105 0 2.75 3.355 5.502 0 11.004-3.354 5.501-16.134 9.396-16.134 15.702 0 4.203-1.599 7.406-4.795 9.606L24 74.277l2.853 3.705h34.042l3.056-23.635L79 49.62 68.049 30.299 56.77 22.982z"/>
        <g stroke="#222" stroke-linejoin="round">
            <path stroke-linecap="round" stroke-width="6" d="M16.695 28.567l5.07 46.172a4 4 0 0 0 3.926 3.563l32.467.41a4 4 0 0 0 4.02-3.512l5.607-45.633-10.848-7.807a2 2 0 0 0-3.059.971c-1.57 4.557-5.617 6.836-12.138 6.836-6.482 0-10.397-2.016-11.746-6.048a2 2 0 0 0-2.914-1.087l-10.385 6.135z"/>
            <path stroke-width="5" d="M15.946 28.925L5.941 44.661a4 4 0 0 0 2.388 6.023l11.528 2.933-3.91-24.692zM68.717 30.26l10.006 15.736a4 4 0 0 1-2.39 6.023l-11.527 2.933 3.911-24.692zM33.547 27.925L42.24 16l7.12 11.925z"/>
            <path stroke-linecap="round" stroke-width="5" d="M36.36 5.104C36.432 1.701 38.265 0 41.86 0c5.389 0 6.213 3.333 5.389 5.653-.825 2.321-7.705 5.951-4.743 10.347"/>
        </g>
    </g>
</svg>
