<svg xmlns="http://www.w3.org/2000/svg" width="53" height="43" viewBox="0 0 53 43">
    <g fill="none" fill-rule="nonzero">
        <path fill="#F3E95D" d="M26.75 22.41c-5.63 3.16-11.07 6.65-16.28 10.47-1.19.87-2.38 1.77-3.71 2.43-1.08.54-2.27.94-3.11 1.81-.61.63-.98 1.45-1.34 2.26-.11.26-.23.53-.2.81.07.6.77.89 1.36 1.03 3 .69 6.12.49 9.2.4 9.6-.3 19.21.43 28.81.37 2.77-.02 5.57-.1 8.27-.75.46-.11.95-.26 1.24-.63.55-.7.12-1.73-.44-2.42-.69-.84-1.55-1.53-2.41-2.19-5.27-4.06-10.92-7.62-16.86-10.63-1.84-.94-3.75-1.84-5.25-3.26.03.2.14.38.29.51"/>
        <path fill="#D7CA26" d="M34.22 28.54c-2.66 1.62-18.38 11.56-19.41 12.27-1.26.87-10.86 1.22-11.13-1-.13-1.04.97-2.38 1.86-2.93 1.28-.78 14.33-9.72 20.8-13.15.12-.06 7.88 4.81 7.88 4.81z"/>
        <path fill="#9C6F82" d="M22.18 8.07c2.09-3.83 6.28-5.02 9.04-1.69 1.67 2 .06 5.1-2.12 6.56-1.78 1.19-3.29 2.5-3.33 4.81-.02 1.47.61 2.1-.42 3.32-.68.8-1.73 1.45-2.6 2.03-5.53 3.68-11.25 7.1-16.91 10.58-2.08 1.28-4.97 2.6-5.58 5.23-.36 1.53.41 2.94 1.91 3.48.52.19 2.75.17 4.01.17l5.16.03c4.47.04 8.93.09 13.4.14 7.23.08 14.52.45 21.76.23 2.15-.06 5.38-.62 5.66-3.23.29-2.73-2.51-4.29-4.45-5.67-3.16-2.26-6.58-4.15-9.85-6.26-3.55-2.29-7.04-4.67-10.6-6.95-1.19-.76-3.73 2.17-2.55 2.93 5.89 3.77 11.72 7.6 17.63 11.33 1.39.88 2.78 1.78 4.07 2.81 1.15.92 1.05 1.68-1.07 1.7-7.62.05-16.13-.18-23.75-.26-3.97-.04-7.93-.08-11.9-.11-1.4-.01-2.82-.04-4.22-.02-1.99.03-.12-1.26.92-1.9 5.38-3.31 10.76-6.63 16.09-10.04 1.66-1.06 4.96-3.07 6.23-4.62 1.77-2.16-.95-4.56 1.19-6.17 1.48-1.11 4.12-2.83 5.07-5.23.95-2.39.58-5.29-.98-7.3C30.63-.37 22.8-.62 19.31 6.35c-1.51 2.98 1.51 4.21 2.87 1.72z"/>
        <path fill="#7A3D58" d="M29.08 22.04c.9-2.02-1.12-4.06.8-5.54 1.47-1.13 4.12-2.83 5.07-5.23.95-2.39.58-5.29-.98-7.3C30.61-.37 22.78-.62 19.29 6.35c-.77 1.55-.33 2.62.46 2.95 1.4-3.3 2.98-4.97 5.02-6.01 2.14-1.09 4.87-.57 6.73.95 2.13 1.73 2.53 4.8 1.34 6.89-1.26 2.2-3.74 3.43-5.04 5.08-.69.88-.7 2.2-.42 3.31.17.68.14 1.35-.07 1.9-.24.63-.7 1-.7 1s1.04.75 1.42.99c.81.5 1.05-1.37 1.05-1.37zM24.81 23.73c-.57.37-1.19.76-1.81 1.17-5.73 3.84-11.65 7.45-17.68 10.78-1 .56-2.18 1.5-1.81 2.58.26.75 1.04.98 1.88.95-1.84-.02-.04-1.27.99-1.9 5.38-3.31 10.76-6.63 16.09-10.03.88-.56 2.22-1.39 3.47-2.28.09-.07.23-.16.32-.23l-1.45-1.04z"/>
        <path fill="#7A3D58" d="M47.69 34.06c-3.16-2.26-6.59-4.15-9.85-6.26-2.94-1.9-5.84-3.84-8.76-5.75-.28.53-.7 1-1.04 1.35 6.63 4.44 11.77 7.77 18.38 12.23.53.36 2.73 1.82 3.09 2.58.48 1.03-.13 2-.96 2.43-.83.42-2.76.46-3.69.45-13.27-.02-26.07-.29-39.34-.32-1.25 0-2.31.09-3.18-.15-.87-.24-1.42-.88-1.61-1.17-.17-.27-.27-.74-.25-1.2-.07.19-.17.44-.22.65-.03.14-.14.75-.05 1.24.12.67.44 1.18.73 1.47.28.28.8.62 1.22.76.69.24 2.75.17 4.01.17l5.16.03c4.47.04 8.93.09 13.4.14 7.23.08 14.53.45 21.76.23 2.15-.06 5.38-.62 5.66-3.23.28-2.71-2.53-4.27-4.46-5.65z"/>
    </g>
</svg>
