<svg xmlns="http://www.w3.org/2000/svg" width="32" height="53" viewBox="0 0 32 53">
    <g fill="none" fill-rule="nonzero">
        <path fill="#4F6532" d="M13.99 15.31c.1.68.2 1.42.32 1.84.07.21.66.54 1.5.51.85-.03 1.42-.44 1.44-.76.03-.56.09-1.09.18-1.6a19.483 19.483 0 0 0-3.44.01z" opacity=".47"/>
        <path fill="#F2991B" d="M30.45 25.54c1.7 6.29-1.41 14.74-4.51 19.4-2.32 3.49-6.22 7.13-9.81 7.13-3.38 0-7.82-2.98-11.26-8.93-3.25-5.63-4.96-12.71-3.22-18.67 1.65-5.64 6.71-9.18 14.07-9.24 7.37-.07 12.75 2.99 14.73 10.31z"/>
        <path fill="#DF5D32" d="M8.54 41.32c-1.59-4.5-2.13-10.58-.94-15 1.33-4.93 3.72-7.25 8.03-8.77 1.29-.46.76-2.33.09-2.32-7.36.06-12.42 3.6-14.07 9.24-1.74 5.96-.03 13.04 3.22 18.67 3.44 5.95 7.88 8.93 11.26 8.93-2.38-1.82-5.37-4.47-7.59-10.75z"/>
        <path fill="#BC3D38" d="M15.86 20.71c-5.69.07-8.12-3.93-5.45-4.73 1.6-.48 3.38-.73 5.32-.75 1.79-.02 3.44.22 4.99.52 2.04.39 1.19 4.88-4.86 4.96z" opacity=".41"/>
        <path fill="#84AF4E" d="M15.81 17.66c.85-.03 1.42-.44 1.44-.76.12-1.95.5-3.67 1.63-4.97 1.99-2.29 5.89-.95 8.74-2.7 3.03-1.86 4.15-5.94 3.45-7.48-.68-1.5-6.6-2.27-9.31-1-3.26 1.53-4.94 4.68-5.85 7.42-.49-1.32-1.56-2.93-2.82-3.72-2.4-1.5-4.73-1.78-6.81-1.47-1.26.19-4.92 1.34-5.22 3.43-.34 2.39 4.46 5.77 8.62 5.55 2.41-.13 3.52.35 4.09 2.26.22.72.33 2.24.54 2.92.07.23.67.55 1.5.52z"/>
        <g fill="#5D8440">
            <path d="M16.55 10.78c.99-2.92 3.42-6 6.23-7.81C25.63 1.14 28.98.53 28.82.5c-2.38-.54-4.75-.71-7.06.23-2.75 1.13-4.59 3.71-5.84 7.43-.01.01.42 1.01.63 2.62zM15.15 12.46c-.99-1.81-3.09-3.05-7.12-3.55-4.09-.51-6.15-1.37-6.97-2.39-.26 2.57 2.57 5.45 8.17 5.43 2.41-.01 4.11.65 4.54 2.37.18.72.35 2.16.55 2.84.1.33.81.52 1.45.51.12 0 .23-.01.34-.02-.01-.01.22-3.04-.96-5.19z"/>
        </g>
    </g>
</svg>
