<svg xmlns="http://www.w3.org/2000/svg" width="100" height="74" viewBox="0 0 100 74">
    <g fill="none" fill-rule="evenodd">
        <path fill="#88619D" fill-rule="nonzero" stroke="#88619D" d="M30.515 5.202c6.967-.426 12.656.204 17.068 1.89 6.617 2.53-9.045 9.511-6.98 12.481 2.066 2.97 16.192 5.63 16.192 10.74 0 3.406 4.033 5.694 12.098 6.863 2.323 4.612 1.572 9.536-2.253 14.77-3.825 5.235-10.677 9.61-20.556 13.127l4.278-10.574-16.236 3.117c-1.752-6.045-1.752-10.963 0-14.754 2.628-5.686-3.2.026-7.873-9.694-4.674-9.72 7.873-16.748 7.873-20.35 0-2.403-1.204-4.941-3.611-7.616z"/>
        <path stroke="#222" stroke-width="6" d="M3.68 37.69C.753 20.29 6.603 3 34.5 3 62.399 3 65 23.221 65 34.505c0 11.285-13.086 21.234-29.859 23.89C18.368 61.053 6.604 55.093 3.68 37.692z"/>
        <path stroke="#222" stroke-width="6" d="M31 3c6 4 8.8 7.678 8.402 11.035-.597 5.036-5.917 6.046-5.917 8.833S43 25.655 43 28.328c0 2.672-8.402 5.686-6 8.868 2.402 3.182 6 3.945 6 8.265 0 2.88-4 7.394-12 13.539M43 28c2.473 3.47 4.674 5.204 6.605 5.204 2.896 0 2.435-4.204 6.67-2.102 4.237 2.102 10.134 4.915 6.688 7.898"/>
        <path stroke="#222" stroke-linejoin="round" stroke-width="6" d="M40 71c18.783-24.992 29.528-37.323 32.233-36.994 4.058.495 10.143 8.941 9.749 12.126C81.719 48.255 67.725 56.545 40 71z"/>
        <path stroke="#222" stroke-linecap="round" stroke-linejoin="round" stroke-width="6" d="M73.544 34.198C70.892 23.4 71.656 18 75.84 18c6.273 0 1.272 13.182 1.272 17"/>
        <path stroke="#222" stroke-linecap="round" stroke-width="6" d="M77 34.868c5.976-10.963 10.862-14.921 14.656-11.874 3.795 3.047-.448 7.383-12.73 13.006"/>
        <path stroke="#222" stroke-width="6" d="M79 38.314c11.003-4.652 16.97-4.406 17.9.736.929 5.142-4.57 5.264-16.496.366"/>
    </g>
</svg>
