<svg xmlns="http://www.w3.org/2000/svg" width="52" height="53" viewBox="0 0 52 53">
    <g fill="none" fill-rule="nonzero">
        <path fill="#FFD798" d="M24.87 4.92h1.08c.62 0 1.23.22 1.71.61l15.29 12.46c.63.51 1 1.28 1 2.1v30.15c0 1.5-1.21 2.71-2.71 2.71H10.03c-1.5 0-2.71-1.21-2.71-2.71V20.3c0-.79.35-1.55.95-2.06L23.11 5.57c.49-.42 1.12-.65 1.76-.65z"/>
        <path fill="#F1B670" d="M25.52 10.59l18.42 15.2V19.1L25.73 3.41 7.32 18.54v6.47z"/>
        <path fill="#988276" d="M3.94 24.02C7.72 20.73 22.7 7.68 23.63 6.87c.47-.41 1.34-1.13 1.96-1.6.55.29 10.67 8.87 12.97 10.88 3.39 2.97 5.86 5.19 9.29 8.11.82.7 1.96.82 2.77 0 .7-.71.82-2.17 0-2.86-5.21-4.43-19.53-16.9-21.16-18.3-1.41-1.21-2.44-2.16-3.7-2.15-1.38.01-2.21.71-3.74 2.04-1.99 1.73-5.55 4.84-7.54 6.57-4.44 3.87-8.88 7.74-13.33 11.6-1.92 1.68.87 4.53 2.79 2.86z"/>
        <path fill="#534949" d="M4.08 24.12c7.47-6.49 13.95-12.35 21.74-18.42h-.66c4.16 3.24 8.16 6.7 12.19 10.1 3.86 3.26 6.06 4.95 9.79 8.38.91.84 2.25.69 2.63.59-3.65-3.26-7.79-6.8-11.73-10.13-4.03-3.41-8.05-6.87-12.21-10.11-.17-.13-.49-.13-.66 0-7.88 6.15-15.8 13.25-23.35 19.81.24.12 1.19.49 2.26-.22z"/>
        <path fill="#F1B670" d="M23.82 22.4c-4.17.81-7.96 4.28-7.96 9.88v13.87c0 1.46.83 2.1 2.18 2.1h15.17c1.17 0 2.07-.74 2.07-2.11V31.93c0-6.65-5.85-10.62-11.46-9.53z"/>
        <path fill="#70A34E" d="M25.32 21.66c-2.06 0-3.95.74-5.41 1.96a8.45 8.45 0 0 0-3.05 6.5v15.05h16.92V30.12c0-2.34-.95-4.45-2.48-5.98a8.408 8.408 0 0 0-5.98-2.48z"/>
        <path fill="#8DC63F" d="M29.04 23.89c-4.33-.21-8.38 2.47-8.38 8.1v13.44l13.71-.13.19-13.35c0-3.15.14-4.83-1.51-6.46-.61-.44-1.62-1.48-4.01-1.6z"/>
        <path fill="#F1F1F1" d="M24.91 20.86h1.38v24.77h-1.38z"/>
        <path fill="#F1F1F1" d="M16.352 34.529v-1.38h18.45v1.38z"/>
        <path fill="#F7F8F9" d="M23.82 20.5c-4.17.81-7.96 4.28-7.96 9.88v13.87c0 1.46.83 2.1 2.18 2.1h15.17c1.17 0 2.07-.74 2.07-2.11V30.03c0-6.65-5.85-10.62-11.46-9.53zm-6.3 9.54c0-4.34 3.44-7.85 7.73-8.02l.73.01c4.25.22 7.65 3.7 7.65 8.01v13.93c0 .41-.33.73-.73.73H18.26c-.41 0-.73-.33-.73-.73V30.04h-.01z"/>
    </g>
</svg>
