<svg xmlns="http://www.w3.org/2000/svg" width="68" height="78" viewBox="0 0 68 78">
    <g fill="none" fill-rule="nonzero" transform="translate(3 3)">
        <circle cx="31" cy="26" r="5" fill="#C2504A"/>
        <circle cx="30.586" cy="26.5" r="5.5" stroke="#222" stroke-width="4"/>
        <path stroke="#222" stroke-linecap="round" stroke-linejoin="round" stroke-width="6" d="M.758 22.485l24.92-20.788a4 4 0 0 1 4.389-.487L59.68 16.418a2 2 0 0 1 1.086 1.737l.914 44.392a2 2 0 0 1-2.703 1.913l-26.155-9.838a4 4 0 0 0-3.671.446L5.067 71.595a2 2 0 0 1-3.13-1.566L.04 24.103a2 2 0 0 1 .717-1.618z"/>
        <path stroke="#222" stroke-linecap="round" stroke-width="5" d="M30.586 34v7.879"/>
        <g stroke="#222">
            <circle cx="30.586" cy="26.5" r="5.5" stroke-width="4"/>
            <path stroke-linecap="round" stroke-linejoin="round" stroke-width="6" d="M.758 22.485l24.92-20.788a4 4 0 0 1 4.389-.487L59.68 16.418a2 2 0 0 1 1.086 1.737l.914 44.392a2 2 0 0 1-2.703 1.913l-26.155-9.838a4 4 0 0 0-3.671.446L5.067 71.595a2 2 0 0 1-3.13-1.566L.04 24.103a2 2 0 0 1 .717-1.618z"/>
            <path stroke-linecap="round" stroke-width="5" d="M30.586 34v7.879"/>
        </g>
    </g>
</svg>
