<svg xmlns="http://www.w3.org/2000/svg" width="53" height="46" viewBox="0 0 53 46">
    <g fill="none" fill-rule="nonzero">
        <path fill="#313C81" d="M34.6 45.08c3.82.73 7.62.27 10.8-.63 2.38-.67 5.05-2.12 5.88-4.13-4.26-.49-8.58-.24-12.83-.75s-8.62-1.89-11.56-5.01c-1.35-1.44-2.34-3.18-3.65-4.66-1-1.13-2.17-2.09-3.33-3.06-5.45-4.57-11.09-10.05-15.97-15.22-1.08.6-1.78 1.13-2.51 1.81-.51.47-.91 1-1.06 1.29-.24.46-.19 2.49 1.25 4.78 1.89 3 4.09 5.29 9.95 9.07 1.59 1.03 4.25 2.01 6.35 3.87 2.06 1.83 3.08 4.33 5.12 6.37 3.88 3.89 6.02 5.21 11.56 6.27z"/>
        <path fill="#242858" d="M3.95 11.63c-1.08.6-1.78 1.13-2.51 1.81-.51.47-.91 1-1.06 1.29-.24.46-.19 2.49 1.25 4.78 1.29 2.06 2.73 3.78 5.39 5.87 1.22.95 1.81-8.58-3.07-13.75z"/>
        <path fill="#4C6498" d="M16.29 24.29c-1.21-.88-7.16-4.93-8.08-5.98-1.29 1.65-2.58 4.2-3.1 5.44 1.36 1.28 3.13 2.63 5.6 4.26 1.33-.91 4.86-3.15 5.58-3.72z"/>
        <path fill="#3F5497" d="M40.41 31.53c-.66-1.45-1.5-3.25-1.74-4.83-.22-1.42-1.03-6.32-1-10.59 0-.64-.04-1.16 0-2.1.04-1.01.04-3.22 0-3.34-.06-.21-1.14-.58-3.54-.21-.83.13-2.15.68-2.82 1.18-.68.49-1.21 1.24-1.26 2.08-.01.13 0 .28.07.39.09.15 1.36 4.58 1.79 5.83.42 1.26.82 4.4 1.83 6.19 1.9 3.36 6.67 5.4 6.67 5.4z"/>
        <path fill="#313072" d="M40.41 31.53c-.45-.98-.88-1.85-1.19-2.8-.15-.45-3.16-2.65-3.9-7.15-.25-1.53-1.2-5.14-1.29-6.07-.21-2.07-.76-4.82-1.24-4.63-.56.23-1.12.51-1.48.78-.68.49-1.21 1.24-1.26 2.08-.01.13 0 .28.07.39.09.15 1.36 4.58 1.79 5.83.42 1.26.82 4.4 1.83 6.19 1.9 3.34 6.67 5.38 6.67 5.38z"/>
        <path fill="#9175B3" d="M51.99 37.08c-.72-1.24-2.12-1.89-3.44-2.47-2.1-.92-4.19-1.83-6.29-2.75-1.21-.53-2.45-1.07-3.44-1.95-1.93-1.69-4.31-5.22-4.97-7.69-.59-2.23-1.18-4.46-1.78-6.69-.21-.81-.45-1.66-1.06-2.24-.54-.51-1.28-.73-1.99-.95-4.2-1.25-6.92-1.98-9.71-5.36-1.75-2.13-2.32-4.45-3.08-6.28-1.78.89-5.39 2.9-7.24 4.3-2.2 1.66-3.98 3.05-5.45 5.91-.28.54-.17 1.1-.08 1.45.17.6.97 2.4 1.6 3.35 2.26 3.4 3.68 4.7 6.91 7.12 1.2.9 3.79 2.05 5 2.92 1.12.8 2.33 1.49 3.4 2.36 3.65 2.96 5.52 7.88 9.6 10.22 2.18 1.25 5.1 2.34 7.59 2.67 4.63.61 9.38.35 13.07-.37 1.31-.25 2.08-2.3 1.36-3.55z"/>
        <path fill="#7363A1" d="M35.69 26.1c-.84-1.32-1.53-2.71-1.83-3.87-.29-1.11-.59-2.22-.88-3.33-.13-.51-2.82 1.36-6.75 3.01-5.23 2.21-9.61 3.57-9.23 3.84 1.12.8 2.33 1.49 3.4 2.36 1.73 1.41 3.07 3.26 4.42 5.06.31.41 3.97-1.24 6.51-3.08 3.05-2.21 4.55-3.69 4.36-3.99z"/>
        <path fill="#EEECF3" d="M38.38 14.75c-.02-.05-.05-.11-.11-.14-.1-.06-.24-.04-.36-.02-2.06.35-4.38.79-6.39 1.45-.38.12-.49.22-.41.55.07.22.19.98.49.99.3.01.81-.11 1.09-.19 1.84-.49 3.72-.89 5.63-1.21-.01-.01.2-1.11.06-1.43zM38.29 19.39c-1.91.42-4.06 1.07-5.9 1.71-.08.03-.16.07-.18.13-.02.06-.03.17.07.44s.29.75.41 1.02c1.73-.48 3.81-1.21 5.57-1.66.07-.02.14-.04.2-.08.07-.05.1-.12.12-.19.07-.28-.29-1.37-.29-1.37zM38.58 24.51c-.87.39-1.45.56-2.45.79-.9.2-1.47.3-2.33.4-.1.01.34.97.47 1.1.15.15.31.24.56.21 1.46-.14 2.43-.38 3.1-.59.31-.09.96-.33 1.07-.44.27-.26.05-1.31-.3-1.53l-.12.06z"/>
        <path fill="#7363A1" d="M17.86 4.71c-.71-1.41-1.12-2.81-1.61-4-1.78.89-5.39 2.9-7.24 4.3-2.2 1.66-3.98 3.05-5.45 5.91-.28.54-.17 1.1-.08 1.45.17.6.97 2.4 1.6 3.35.64.96 1.21 1.76 1.78 2.46.36.45-.92-3.73 4.89-9.57 3.4-3.44 6.3-3.52 6.11-3.9z"/>
        <path fill="#313C81" d="M19.28 6.85c-.03-.37-.45-.92-.67-1.33-1.07-1.99-1.38-2.89-1.9-4.68-.09-.31-.41-.52-.89-.28-1.89.93-3.92 2.1-5.45 3.1-.27.18-.52.36-.76.54-.71.54-1.23 1.06-1.18 1.31.1.45 1.3 1.82 4.73 2.56 3.88.84 6.17-.56 6.12-1.22z"/>
        <path fill="#242858" d="M14.35 5.38c2.26-1.68 3.41-1.54 3.33-1.72-.4-.91-.65-1.69-.98-2.82-.09-.31-.41-.52-.89-.28-1.89.93-3.92 2.1-5.45 3.1-.27.18-.52.36-.76.54-.71.54-1.23 1.06-1.18 1.31.09.39.99 1.46 3.42 2.22.23.06.6-.94 2.51-2.35z"/>
    </g>
</svg>
