<svg xmlns="http://www.w3.org/2000/svg" width="37" height="53" viewBox="0 0 37 53">
    <g fill="none" fill-rule="nonzero">
        <path fill="#B8BFC3" d="M31.01 12.76s2.31.9 3.78 2.76c1.09 1.37 1.7 4.06 1.66 9.62-.01 1.69.14 20.52-1.35 22.72-1.9 2.79-6.76 5.33-17.07 5.08-9.52-.23-13.54-1.75-15.72-5.32C.66 44.91.7 27.19.71 25.1c.03-4.02.43-7.08 1.85-9.24 1.45-2.2 3.91-3.55 3.91-3.55l24.54.45z"/>
        <path fill="#B8BFC3" d="M6.52 7.53l-.04 5.31s.19 1.84.52 2.05c.33.21-.7 1.76 11.36 1.84 12.06.08 12.08-1.59 12.47-1.8.39-.2.26-1.92.26-1.92l.05-5.32s-1.72 1.83-12.49 1.76C8.72 9.38 6.52 7.53 6.52 7.53z"/>
        <path fill="#E0E2E5" d="M10.47 7.79c0 .5-.1 5.49-.18 6.18-.51.61-1.32 1.66-1.66 2.12-.67.9-1.2 1.92-1.56 2.98-.52 1.55-1.13 4.04-1.26 5.67-.38 4.68-.25 9.15-.26 13.84-.01 4.53.69 9.22 1.96 11.88.2.43.67 1.17 1.06 1.44 1.01.35 5.08.92 6.94.98-2.11-2.79-3.09-5.93-3.62-9.39-.52-3.46-.5-6.97-.58-10.46-.07-2.99-.21-6 .3-8.95.51-2.95 2.07-6.28 4.01-8.56.32-.38.7-.81.79-.93.1-.14.14-.34.15-.61.02-.82.07-5.06.1-5.43-2.05.09-6.19-.76-6.19-.76z"/>
        <path fill="#B99874" d="M5.59 2.92l-.04 3.75s.03 1.26.07 1.63c.05.44-.26 2.04 13 2.13 13.26.09 13.52-1.37 13.7-1.72.1-.19.18-.75.23-1.21.04-.35.06-.65.06-.65l.05-3.69-27.07-.24z"/>
        <path fill="#D9BB93" d="M13.4 2.91s-.05 7.05-.05 7.37c1.46.08 3.2.13 5.26.14h1.13c0-.34.03-7.52.03-7.52l-6.37.01z"/>
        <ellipse cx="19.134" cy="3.017" fill="#E5CEA8" rx="2.08" ry="13.54" transform="rotate(-89.605 19.134 3.017)"/>
        <path fill="#2B8E48" d="M16.15 37.86h-5.12c-.41 0-.76-.21-.96-.51a1.15 1.15 0 0 1-.02-1.26l2.23-3.54c.07-.11.08-.25.04-.37a.39.39 0 0 0-.16-.2l-.66-.43c-.1-.06-.21-.08-.32-.06-.11.02-.2.09-.27.19l-2.52 4c-1.06 1.69.15 3.89 2.15 3.89h5.61a.41.41 0 0 0 .41-.41v-.87a.42.42 0 0 0-.2-.36.314.314 0 0 0-.21-.07z"/>
        <path fill="#2B8E48" d="M7.85 31.36c.1-.19.29-.34.52-.39l3.8-.83c.18-.04.36-.01.51.07.17.09.31.23.38.42l1.31 3.57a.77.77 0 1 1-1.45.53l-1.08-2.94-3.14.68a.77.77 0 0 1-.92-.59.681.681 0 0 1 .07-.52z"/>
        <path fill="#2E7344" d="M16.15 37.86h-5.12c-.43 0-.78-.22-.98-.54a1.16 1.16 0 0 1 0-1.23l2.12-3.36.74 2.02a.77.77 0 1 0 1.45-.53l-1.31-3.57a.78.78 0 0 0-.44-.45l-3.18 5.04c-1.06 1.69-.31 3.56 1.68 3.56l5.45-.03v-.49c0-.24-.18-.42-.41-.42z"/>
        <path fill="#2B8E48" d="M23.65 32l2.68 4.36c.48.77-.09 1.77-1 1.76l-4.18-.05c-.11 0-.21.04-.29.11-.08.07-.13.18-.14.29l-.03.79c0 .12.04.22.12.3a.4.4 0 0 0 .3.13l4.73.05c2 .02 3.23-2.16 2.19-3.86L25.1 31.1a.418.418 0 0 0-.26-.19.457.457 0 0 0-.32.05l-.74.45c-.1.06-.16.15-.19.26-.01.12 0 .23.06.33z"/>
        <path fill="#2B8E48" d="M22.46 42.47a.77.77 0 0 1-.6-.24l-2.69-2.8a.75.75 0 0 1-.21-.5c-.01-.18.05-.36.17-.52l2.36-2.98c.26-.33.75-.39 1.09-.13.33.26.39.75.13 1.09l-1.94 2.45 2.22 2.32c.3.31.29.8-.02 1.09-.16.13-.33.21-.51.22z"/>
        <path fill="#2E7344" d="M23.65 32l2.68 4.36c.48.77-.09 1.77-1 1.76l-3.98-.04 1.34-1.69a.78.78 0 0 0-.13-1.09.78.78 0 0 0-1.09.13l-2.36 2.98c-.14.18-.19.4-.16.61l5.97.07c2 .02 3.2-1.6 2.16-3.3l-2.88-4.63-.42.26c-.19.12-.25.38-.13.58z"/>
        <path fill="#2B8E48" d="M14.81 28.07l2.76-4.31c.24-.37.63-.54 1.01-.53.41.01.81.24 1.01.66l1.78 3.79a.424.424 0 0 0 .55.2l.72-.32c.14-.06.23-.2.25-.35a.395.395 0 0 0-.04-.21l-2.01-4.28c-.85-1.81-3.35-1.97-4.43-.29l-3.03 4.72c-.06.09-.08.19-.06.28.02.12.08.22.19.29l.73.47c.09.06.2.08.3.06.11-.01.21-.07.27-.18z"/>
        <path fill="#2B8E48" d="M24.76 24.6c.11.19.13.42.05.64l-1.36 3.64c-.07.18-.2.32-.36.41a.72.72 0 0 1-.54.07l-3.71-.83a.774.774 0 0 1-.59-.92c.09-.42.51-.68.92-.59l3.05.68 1.12-3.01c.15-.4.59-.6.99-.45.2.07.34.2.43.36z"/>
        <path fill="#2E7344" d="M14.81 28.07l2.76-4.31c.23-.37.62-.54 1-.53.41.01.82.24 1.02.66l1.69 3.6-2.1-.47a.77.77 0 0 0-.92.59c-.09.42.17.83.59.92l3.71.83c.22.05.44 0 .62-.13l-2.53-5.4c-.85-1.81-2.83-2.19-3.91-.51l-2.92 4.6.41.27c.2.13.46.08.58-.12z"/>
    </g>
</svg>
