<svg xmlns="http://www.w3.org/2000/svg" width="36" height="53" viewBox="0 0 36 53">
    <g fill="none" fill-rule="nonzero">
        <path fill="#71D0F6" d="M24.93 10.84c-.57-3.28-.45-5.8-.04-7.77.42-2.05-1.78-3.74-3.59-2.69C13.75 4.77 1.45 18.62.16 31.53-1 43.15 8.25 52.2 18.12 52.06c10.71-.16 18.55-9.57 17.15-19.85-1.55-11.42-9.05-13.98-10.34-21.37z"/>
        <path fill="#00A4E3" d="M24.84 10.37c-.45-2.52-.35-5.29.07-7.27.21-.98-.2-2-1.05-2.58.25 1.03-.61 2.64-1.64 5.52-2 5.6-1.91 10.2.8 15.5 1.77 3.47 4.54 6.94 3.76 15.09-.49 5.12-3.7 10.35-9.25 12.52-2.57 1.01-6.38 1-8.19.53 3.32 1.97 7.02 2.75 10.97 2.21 9.57-1.3 16.1-9.83 14.99-19.43-1.3-11.24-9.16-14.7-10.46-22.09z"/>
    </g>
</svg>
