<svg xmlns="http://www.w3.org/2000/svg" width="50" height="75" viewBox="0 0 50 75">
    <g fill="none" fill-rule="nonzero">
        <path fill="#465BF1" stroke="#465BF1" d="M21.352 5.275c.32 2.386-.61 4.8-2.794 7.24-3.274 3.66 19.899 15.33 12.676 36.788-7.223 21.459-6.109-5.047-15.556 13.939-3.76 7.556 3.381 7.624 9.447 7.435 9.176-.285 20.06-4.164 20.06-7.435 0-2.45 3.259-14.119 0-26.43-3.974-15.016-16.486-30.93-20.06-31.537-4.335-.737-5.593-.737-3.773 0z"/>
        <g stroke="#222">
            <path stroke-width="6" d="M18.311 5.327c0 2.898-1.929 10.648-3.872 15.298-2.9 6.941-5.8 9.127-9.69 19.097-1.714 4.394-2.337 10.093-1.1 15.584 1.442 6.4 3.62 9.02 6.455 11.543C13.27 69.665 17.428 72 25.82 72c10.07 0 15.177-3.158 18.084-9.956C45.59 58.104 47 52.94 47 46.457c0-20.494-28.689-52.34-28.689-41.13z"/>
            <path stroke-width="4" d="M22.149 23.28c-.207.771-1.098 2.742-1.77 3.887-1.005 1.71-1.67 2.155-3.064 4.624-.614 1.088-1.13 2.574-1.303 4.093-.203 1.77-.007 2.57.31 3.374.356.898.92 1.715 2.393 2.11 1.769.473 2.891-.126 3.886-1.798.577-.968 1.193-2.276 1.655-4 1.46-5.45-1.309-15.271-2.107-12.29z"/>
        </g>
    </g>
</svg>
