<svg xmlns="http://www.w3.org/2000/svg" width="93" height="78" viewBox="0 0 93 78">
    <g fill="none" fill-rule="nonzero">
        <path fill="#CE98C7" stroke="#CE98C7" d="M11.49 39.482c3.232-.97 4.848-3.167 4.848-6.589 0-5.133-3.439 4.915 5.895 1.057s13.117-8.743 24.353-6.513c7.49 1.486 12.265 11.083 14.323 28.79l6.72 5.742v11.6h7.828l2.19-14.418 6.027-8.928 6.287-10.74c-3.88-17.75-9.342-27.986-16.387-30.708C63.008 4.692 33.587.233 18.847 7.24 9.021 11.912 4.41 21.307 5.014 35.427l6.475 4.055z"/>
        <g stroke="#222" stroke-linecap="round" stroke-linejoin="round" stroke-width="6">
            <path d="M70.53 8c9.825 3.802 17.56 13.243 19.202 26.83 2.357 19.493-11.484 12.15-16.664 10.123C67.887 42.926 54.89 42.233 47 51M83.83 48c.841 5.636-1.435 9.302-6.83 11M76 60.844L74.465 75h-6.186c.135-9.91-1.333-15.48-4.402-16.71-4.604-1.848-5.587 2.043-9.992 1.532C49.48 59.312 45 55.9 45 53"/>
            <path d="M27.061 43c-4.984 4.934-3.882 9.03 3.306 12.289C41.147 60.177 46 53.039 46 53.039M22.856 45c-11.961-2.402-18.51-6.34-19.647-11.813-1.706-8.21 7.105-25.333 23.63-27.881C43.364 2.758 52.53 4.113 68 7.854"/>
        </g>
    </g>
</svg>
