<svg xmlns="http://www.w3.org/2000/svg" width="43" height="53" viewBox="0 0 43 53">
    <g fill="none" fill-rule="nonzero">
        <path fill="#8CB3DA" d="M7.6 48.28c-.05.61-.19 1.87-.13 2.64l.03.13c.17.44.7.62 1.1.76.95.34 1.86.37 3.13.01 1.4-.39 2.37-.92 2.8-1.52.17-.23.19-.67.19-.87-.04-.98-.19-2.33-.32-4.07-.18-2.39.08-7.95-.94-10.11-1.57-3.32-2.16-3.67-4.13-6.78-1.59 1.37-2.77 2.5-4.45 3.75C8.81 36.39 8.1 42.57 7.6 48.28z"/>
        <path fill="#6394C1" d="M7.64 47.03c-.03 1.68-.22 3.04-.19 3.83.01.07.02.13.05.2.17.44.7.62 1.1.76.57.2 1.13.28 1.75.25.22-2.56.6-13.91-2.5-23.32-1.02.83-1.73 2.65-2.78 3.43 2.54 5.9 2.67 8.58 2.57 14.85z"/>
        <path fill="#8CB3DA" d="M3.88 22.88c0 .67-.02 1.35.21 1.98.24.64.71 1.16 1.14 1.68 2.52 3.05 4.03 6.88 4.44 10.81h5.91C13.83 26.04 9.2 15.22 9.1 3.78c0-.17 0-.32-.07-.44-.06-.11-.14-.19-.48-.27-2.38-.44-5.02.26-6.88 1.87-.18.15-.36.33-.42.55-.07.24.01.5.09.75a53.716 53.716 0 0 1 2.54 16.64z"/>
        <path fill="#6394C1" d="M3.88 22.88c0 .67-.02 1.35.21 1.98.24.64.71 1.16 1.14 1.68 2.52 3.05 4.03 6.88 4.44 10.81h2.4c-.04-2.89-.25-6.14-.71-9.72-.31-2.42-3.51-3.02-3.88-5.38C6.01 12.69 4.41 6.28 3.54 3.74c-.67.32-1.3.72-1.86 1.21-.18.15-.36.33-.42.55-.07.24.01.5.09.75 1.75 5.48 2.56 10.93 2.53 16.63z"/>
        <path fill="#D591B4" d="M14.14 19.33c-.45-2.26-.81-4.57-.6-6.86.21-2.29 1.05-4.6 2.71-6.2 1.24-1.21 2.87-1.96 4.56-2.37 3.29-.81 6.96-.32 9.7 1.67 2.74 1.99 3.91 6.01 3.22 9.58-.34-.41-1.88-.99-2.4-1.06-1.84-.26-2.32-.7-4.15-.39-4.56.78-7.99 4.7-12.45 5.95l-.59-.32z"/>
        <path fill="#9374A5" d="M14.14 19.33c-.45-2.26-.81-4.57-.6-6.86.21-2.29 1.05-4.6 2.71-6.2 1.24-1.21 2.87-1.96 4.56-2.37 3.29-.81 6.96-.32 9.7 1.67-.28-.07-.72.37-1.15.23-.79-.25-3.92-.59-4.39-.58-.34 0-6.71 2.74-7.47 4.42-2.29 5.04-.22 10.19-1.86 11.06-.91.48-1.5-1.37-1.5-1.37z"/>
        <path fill="#D591B4" d="M19.68 10.15c-.26-.59-.6-1.13-.94-1.68-.84-1.36-1.34-2.71-2.38-3.93-.26-.3-.51-.59-.5-1 .01-.38.13-.5.43-.73.21-.16.2-.53.41-.64.6-.3 1.24-.42 1.99-.36.35.03.53.19.59.48.14.73.28 1.3.46 2 .46 1.71 1.05 3.38 1.58 5.07l-1.64.79z"/>
        <path fill="#9374A5" d="M19.13 8.9c-.6-.94-2.5-3.6-3.14-4.49-.36-.5-.57-.68-.51-.92.07-.27.26-.64.6-.91.19-.16.41-.29.63-.4.15.33.76 1.58 1.15 2.25.29.52 1.82 3.2 2.18 3.8-.3.2-.52.27-.91.67z"/>
        <path fill="#D591B4" d="M23.15 9.13c-.12-2.56.38-4.99-.44-7.42-.04-.12-.08-.25-.06-.38.03-.12.11-.23.2-.31.46-.46.11-.85.75-.93.39-.05.79-.02 1.17.1.76.23 1.2.55 1.12 1.12-.04.28-.35 1.6-.53 2.36-.46 1.94-.66 3.48-.95 5.45l-1.26.01z"/>
        <path fill="#9374A5" d="M23.11 7.58c-.23-1.12-.91-4.73-1.13-5.81-.11-.52-.15-.77.11-1.04.31-.32.88-.56 1.53-.64.06.83.32 5.29.46 7.34-.35.02-.71.11-.97.15z"/>
        <path fill="#D591B4" d="M27.21 9.83c.03-2.5 1.26-4.26 2.11-6.61.05-.14.73-1.26 1.27-1.11.2.06.27-.18.47-.1.56.23.94.69 1.08 1.12.04.12.05.32.02.44-.04.16-.15.3-.26.43-1.56 1.86-2.85 3.93-4.09 6.02l-.6-.19z"/>
        <path fill="#9374A5" d="M28.1 5.59c.2-.84.46-2.22.62-3 .06-.27.34-.68.79-.76.5-.09 1.14.01 1.54.19-.73 1.05-1.65 2.66-2.19 3.92-.22-.11-.41-.26-.76-.35z"/>
        <path fill="#D591B4" d="M16.12 15.81c-.36-1.39-.19-4.04.26-5.4 1.05-3.25 3.43-4.57 5.1-5.12 1.93-.64 4.89-.63 6.97.19 1.88.74 2.69 2.3 3.27 2.75.9.7 1.99 7.11 1.92 10.35-2.26-.63-4.53-1.25-6.83-1.69-1.98-.37-3.99-.6-5.98-.88-1.58-.22-4.71-.2-4.71-.2z"/>
        <path fill="#C61C2D" d="M6.63 16.13c2.69-1.01 4.32-.29 6.45-.78 1.51-.35 2.92-.12 5.41-2.57 2.89-2.84 8.85-3.54 12.82-1.48 1.95 1.01 4.81 3.93 6.11 5.71 6.06 8.34 6.13 18.84 4.67 29.04-.15 1.06-.37 2.13-.94 3.04-1.44 2.3-4.55 2.77-7.26 2.94-3.31.2-11.47-2.82-14.28-4.58-6.73-4.21-9.62-8.06-12.83-11.69-1.53-1.73-3.43-3.14-4.69-5.08-1.65-2.54-1.98-5.88-.88-8.7 1.1-2.81 2.72-4.84 5.42-5.85z"/>
        <path fill="#A52529" d="M7.37 15.54c-3.92.64-6.16 2.77-7.03 6.18-.67 2.63-.38 5.9.67 8.42 1.12 2.7 3.85 6.48 4.88 7.53 3.36 3.44 6.7 5.95 10.67 8.66 5.88 4 18.23 7.55 22.36 4.28-3.04-.46-9.02-2.71-15.72-7.75-4.46-3.36-9.23-7.7-11.78-12.48-.74-1.38-1.52-5.19-1.19-8.1.24-2.08 1.88-6.19 3.29-7.31-2.81.42-3.38.11-6.15.57z"/>
        <path fill="#A52529" d="M11.64 17.73c.91-1.82 4.3-.95 5.81-1.67.82-.39 1.5-1 2.25-1.5 2.04-1.34 4.58-1.49 7-1.22 1.79.2 4.29 1.27 5.61 2.23 2.1 1.53 3.28 2.66 5.03 4.57 1.75 1.91 3.7 5.58 4.51 7.96-.07-1.59-.84-3.76-1.26-4.91-1.01-2.73-2.27-5.4-4.09-7.66-1.82-2.27-3.97-4.3-6.78-5.07-1.53-.42-3-.68-4.59-.64-2.37.06-5.3.83-7.08 2.4-.66.58-1.2 1.31-1.98 1.72-.75.4-1.89.77-2.71.98-.82.21-1.42.36-1.67 1.17.26.16-.77.34-.47.34.01-.01-.46 3.07.42 1.3z"/>
        <path fill="#A52529" d="M25.27 13.15c-1.79.03-2.47.66-2.27 1.73.2 1.07.84 2.15 1.47 3.04 1.03 1.46 2.05 3.45 2.22 4.65.16 1.12-.7 1.54-1.59 1.12-.99-.47-1.89-1.16-3.14-2.41-1.74-1.74-2.82-2.87-4.74-3.3-1.96-.44-3.55-.55-4.76.19-.85.52-1.76 1.35-2.26 3.88-.28 1.44-1.65-2.19-1.51-2.9.14-.71.58-1.33 1.11-1.82 1.68-1.55 4.1-1.95 6.14-2.98 1.71-.87 3.3-2.26 5.22-2.29 2.35-.02 4.11 1.09 4.11 1.09z"/>
    </g>
</svg>
