<svg xmlns="http://www.w3.org/2000/svg" xmlns:xlink="http://www.w3.org/1999/xlink" width="16" height="15" viewBox="0 0 16 15">
    <defs>
        <path id="a" d="M4.044.529c-.894.403-1.421.985-2.12 1.756 0 0-1.382 1.298-1.905 2.837-.011.03-.017.06-.017.06a.197.197 0 0 0 .015.112c.064.077.894-.89 1.907-1.004.558-.062 1.04.102 1.484.252.237.08.291.14.537.222.566.19 1.039.181 1.28.18a18.81 18.81 0 0 1 1.482.047c.886.06 1.251.121 1.576-.199.41-.406.337-1.02.423-1.003.17.032.09 1.745 0 2.758-.064.728-.1 1.156-.211 1.756-.123.663-.199.797-.212 1.253-.013.418.04.614.033.908a3.326 3.326 0 0 1-.033.347c-.205 1.551-.592 2.64-.198 3.02.316.304 1.163.187 1.561-.262.66-.742.147-2.458-.092-3.26 0 0-.187-.636-.211-1.254v-3.26c-.033-.252-.079-.405 0-.5.088-.111.29-.084.423 0 .099.06.143.144.212.25 0 0 .051.083.424.501.334.375 1.522.043 2.106-.057 1.069-.183 1.907.105 3.122.523a7.4 7.4 0 0 1 1.705.84.737.737 0 0 1 .496-.173c.576 0 .824.506.75.947a.291.291 0 0 0 .17-.046c.618-.39-.073-2.663-.72-3.288-.167-.161-.392-.348-.392-.348-.456-.368-.794-.507-2.151-1.658-.452-.383-.668-.584-1.06-.752-.192-.083-1.33-.574-2.33 0-1.127.645-1.874 2.516-2.544 2.758-.106.038-.17.022-.211 0-.245-.13-.181-.746-.212-1.254a4.287 4.287 0 0 0-.848-2.256C7.763.607 7.123.389 6.799.278A3.17 3.17 0 0 0 5.77.108c-.772 0-1.397.273-1.726.421z"/>
        <path id="c" d="M3.403.367A3.99 3.99 0 0 0 2.365.53a1.285 1.285 0 0 1-.25.103c-.09.026-.186.043-.29.051a1.157 1.157 0 0 1-.262.185c-.056.045-.113.089-.167.137-.036.031-.072.067-.114.093-.006.009-.012.018-.02.026l-.002.004c-.007.008-.013.018-.02.025a.121.121 0 0 1-.049.03l-.022.03-.02.02-.014.02h-.001a.262.262 0 0 0-.01.013l-.007.01c0 .002-.001.002-.002.002l-.004.007c-.006.008-.014.012-.022.018l-.019.015-.01.007c0 .001-.002 0-.003.002a.034.034 0 0 0-.007.006l-.013.014c-.011.018-.028.034-.04.05a.024.024 0 0 1-.005.01.125.125 0 0 1-.073.08.526.526 0 0 1-.028.04c-.004.007-.009.014-.012.022l-.002-.002c-.007.009-.012.02-.02.028l-.002.001v.002c-.033.05-.094.1-.213.127H.371c-.224.06-.273.102-.27.13.002.066.283.063.445.276a.405.405 0 0 1 .03.043s.052.081.436.492c.345.37 1.567.043 2.169-.056 1.125-.184 2.018.112 3.215.514 1.872.63 3.259 1.83 3.436 1.625.01-.01.011-.019 0-.257-.015-.372-.023-.558-.029-.581a.922.922 0 0 0-.077-.19.108.108 0 0 1-.02-.033.091.091 0 0 1-.03-.02c-.015-.013-.027-.03-.042-.041a.136.136 0 0 1-.037-.038.326.326 0 0 0-.012-.028c-.008-.006-.018-.012-.025-.02l-.015-.018c-.006-.005-.013-.01-.02-.018l-.018-.019a.136.136 0 0 1-.035-.056l-.001-.007a.124.124 0 0 1-.09-.134l-.084-.08c-.107-.099-.171-.138-.267-.257a1.352 1.352 0 0 1-.18-.283.144.144 0 0 1-.056-.002.14.14 0 0 1-.08-.059l-.007-.01a.835.835 0 0 0-.144-.133 1.071 1.071 0 0 0-.086-.057.126.126 0 0 1-.063-.109c-.012 0-.024 0-.034-.002a.137.137 0 0 1-.072-.05.271.271 0 0 0-.04-.038c-.046-.03-.096-.054-.141-.086a.124.124 0 0 1-.048-.046l-.01-.023a.14.14 0 0 1-.079-.034c-.075-.07-.136-.153-.213-.221l-.03-.027-.004-.002-.008-.005a.943.943 0 0 0-.07-.045c-.047-.027-.095-.053-.14-.082a.127.127 0 0 1-.051-.168c-.229-.188-.476-.406-.728-.472A1.575 1.575 0 0 1 6.51.896l-.188-.03c-1.577-.258-2.063-.5-2.83-.5h-.089z"/>
        <path id="e" d="M2.065.358c-.479.221-.854.526-1.14.823.07-.058.146-.116.227-.172.036-.024.06-.041.069-.045.259-.166.963-.52 2.441-.389a7.856 7.856 0 0 1 4.107 1.52c1.17.855 1.803 1.772 1.826 1.745.025-.03-.86-1.288-2.283-2.364C6.551.899 5.856.375 4.803.141A4.983 4.983 0 0 0 3.707.016c-.485 0-1.066.076-1.642.342zM.163 2.171c.034.025.262-.47.762-.99-.555.46-.797.965-.762.99z"/>
    </defs>
    <g fill="none" fill-rule="evenodd">
        <g transform="translate(-3 .213)">
            <mask id="b" fill="#fff">
                <use xlink:href="#a"/>
            </mask>
            <path fill="#9DC536" d="M-2.111-2.014v3.151A20.58 20.58 0 0 1 .752.354 14.857 14.857 0 0 1 4.12-.163a4.8 4.8 0 0 1 1.283-.003c.456.014.918.053 1.35.122.293.046 1.137.253 1.54.566.311.243.634.622.858.957.073.108.127.227.176.347.151.37.22.791.376 1.164.08.126.155.255.22.391.14.74-.028 1.395-.498 1.967.068.212.087.423.062.631.81.13 1.578.432 1.85 1.144.189.495.088.986-.156 1.449l.016.03c.144.38.116.757-.014 1.121.421.184.763.463.926.889.511 1.34-1.093 2.656-1.938 3.424-.093.085-.195.166-.292.25.148.203.285.41.398.62.208.39.372.807.55 1.215h10.275V-2.014H-2.11z" mask="url(#b)"/>
        </g>
        <g transform="translate(6 2.213)">
            <mask id="d" fill="#fff">
                <use xlink:href="#c"/>
            </mask>
            <path fill="#5C8400" d="M-.043-1.718c.03.059.058.118.083.178.156.364.226.777.388 1.144.082.123.158.25.226.383C.798.714.626 1.357.142 1.92c.07.208.089.415.063.62.834.128 1.625.424 1.905 1.123.194.486.09.97-.16 1.423.004.011.01.02.015.03.15.374.12.745-.014 1.103.338.142.628.34.817.62h9.245v-8.556H-.043z" mask="url(#d)"/>
        </g>
        <g transform="translate(6 2.213)">
            <mask id="f" fill="#fff">
                <use xlink:href="#e"/>
            </mask>
            <path fill="#457A00" d="M-.75-2.207c.051.068.103.135.148.2.078.114.137.239.19.365.162.388.236.828.405 1.22.085.132.166.266.236.409.15.775-.03 1.461-.535 2.06.072.222.093.443.067.661.87.136 1.697.452 1.99 1.198.204.519.095 1.034-.167 1.518l.016.033c.08.203.107.405.101.606h10.167v-8.27H-.75z" mask="url(#f)"/>
        </g>
    </g>
</svg>
