<svg xmlns="http://www.w3.org/2000/svg" xmlns:xlink="http://www.w3.org/1999/xlink" width="12" height="21" viewBox="0 0 12 21">
    <defs>
        <path id="a" d="M6.906.842c-1.424.642-2.265 1.568-3.378 2.795 0 0-2.205 2.066-3.038 4.516-.017.05-.028.096-.028.096a.328.328 0 0 0 .025.178c.102.124 1.425-1.416 3.04-1.597.89-.1 1.66.161 2.366.4.377.127.464.224.856.354.902.301 1.656.288 2.04.285a30.02 30.02 0 0 1 2.363.076c1.413.096 1.996.193 2.512-.317.654-.646.537-1.622.675-1.596.271.05.142 2.778 0 4.39-.101 1.158-.16 1.84-.338 2.795-.195 1.055-.315 1.27-.337 1.995-.02.666.065.976.053 1.444-.004.166-.02.3-.053.553-.328 2.47-.943 4.201-.314 4.807.503.484 1.853.298 2.488-.416 1.05-1.18.233-3.914-.147-5.19 0 0-.298-1.013-.338-1.995V9.226c-.05-.402-.124-.646 0-.799.143-.175.464-.133.676 0 .158.098.227.231.338.398 0 0 .081.134.675.8.534.597 2.426.067 3.358-.091 1.704-.292 3.04.166 4.978.832a11.79 11.79 0 0 1 2.717 1.337c.196-.17.46-.276.791-.276.917 0 1.315.807 1.195 1.508a.46.46 0 0 0 .273-.073c.984-.622-.118-4.24-1.149-5.234-.265-.257-.625-.554-.625-.554-.727-.586-1.266-.808-3.43-2.64-.72-.609-1.065-.928-1.687-1.196-.307-.132-2.121-.914-3.717 0-1.796 1.026-2.987 4.005-4.055 4.39-.168.06-.272.036-.338 0-.39-.207-.287-1.187-.337-1.996-.107-1.702-.91-3.02-1.352-3.592C12.835.967 11.814.62 11.3.442a5.062 5.062 0 0 0-1.64-.27c-1.23 0-2.228.434-2.753.67"/>
        <path id="c" d="M6.906.842c-1.424.642-2.265 1.568-3.378 2.795 0 0-2.205 2.066-3.038 4.516-.017.05-.028.096-.028.096a.328.328 0 0 0 .025.178c.102.124 1.425-1.416 3.04-1.597.89-.1 1.66.161 2.366.4.377.127.464.224.856.354.902.301 1.656.288 2.04.285a30.02 30.02 0 0 1 2.363.076c1.413.096 1.996.193 2.512-.317.654-.646.537-1.622.675-1.596.271.05.142 2.778 0 4.39-.101 1.158-.16 1.84-.338 2.795-.195 1.055-.315 1.27-.337 1.995-.02.666.065.976.053 1.444-.004.166-.02.3-.053.553-.328 2.47-.943 4.201-.314 4.807.503.484 1.853.298 2.488-.416 1.05-1.18.233-3.914-.147-5.19 0 0-.298-1.013-.338-1.995V9.226c-.05-.402-.124-.646 0-.799.143-.175.464-.133.676 0 .158.098.227.231.338.398 0 0 .081.134.675.8.534.597 2.426.067 3.358-.091 1.704-.292 3.04.166 4.978.832a11.79 11.79 0 0 1 2.717 1.337c.196-.17.46-.276.791-.276.917 0 1.315.807 1.195 1.508a.46.46 0 0 0 .273-.073c.984-.622-.118-4.24-1.149-5.234-.265-.257-.625-.554-.625-.554-.727-.586-1.266-.808-3.43-2.64-.72-.609-1.065-.928-1.687-1.196-.307-.132-2.121-.914-3.717 0-1.796 1.026-2.987 4.005-4.055 4.39-.168.06-.272.036-.338 0-.39-.207-.287-1.187-.337-1.996-.107-1.702-.91-3.02-1.352-3.592C12.835.967 11.814.62 11.3.442a5.062 5.062 0 0 0-1.64-.27c-1.23 0-2.228.434-2.753.67"/>
        <path id="d" d="M8.898.19c-.752.012-1.506 0-2.256.045-.027 0-.062 0-.105-.003a1.217 1.217 0 0 0-.377.03c-.4.101-.668.39-.83.614a.667.667 0 0 0-.395 0 .655.655 0 0 0-.394.382.651.651 0 0 0-.394 0 .656.656 0 0 0-.394.381c-.203.054-.5.16-.788.381-.091.07-.097.086-.395.382-.26.257-.525.508-.788.763l-.394.38-.789.764c-.287.318-.368.534-.368.534-.036.095-.027.112-.02.118.057.042.388-.27.388-.27.707-.49.76-.52.834-.56.273-.144.399-.173.678-.346.46-.283.477-.364.74-.478.391-.17.742-.126.989-.095.064.009.123.02.18.032.173-.333.511-.58 1.015-.58.899 0 1.271.785 1.124 1.44.028.009.057.019.087.027.128.038.303.088.495.135.438.33 2.273.504 2.311.325 1.19.574 3.09.616 3.966-.505.5-.642.542-1.506.616-1.716-.02-.012-.037-.03-.037-.052 0-.144-.033-.285-.056-.428a.08.08 0 0 1-.036-.027.045.045 0 0 1-.017-.033c-.02-.063-.053-.124-.084-.183-.014-.026-.03-.054-.04-.083-.003-.004-.003-.009-.006-.014-.144-.023-.302-.038-.452-.067-1.023-.19-1.042-.996-2.06-1.29a2.413 2.413 0 0 0-.665-.08c-.432 0-.888.069-1.283.076"/>
        <path id="f" d="M12.44 1.306c-.126.06-.206.058-.392.056a8.504 8.504 0 0 0-1.247.08c-.469.057-.939.107-1.411.09a6.373 6.373 0 0 0-.598.015c-.28.016-.56.032-.836-.005-.95-.126-1.823-.747-2.767-.895-.96-.151-1.9.217-2.784.712-.34.188-.667.438-.984.703-.115.13-.238.243-.374.333-.3.309-.555.69-.865.978-.01.01-.02.01-.031.018a2.839 2.839 0 0 0-.124.317c-.037.14-.028.166-.02.176.058.06.4-.403.4-.403.726-.725.78-.77.856-.829.28-.215 3.079-1.084 3.71-.682.303.192.751.478 1.238.682.133.056.312.13.511.2.449.487 2.336.748 2.375.481 1.624.741 3.298.377 4.078-.749.459-.66.503-1.43.488-1.869-.009-.03-.018-.06-.024-.091l-.013-.053a.04.04 0 0 1-.009-.012.181.181 0 0 1-.014-.042c-.01-.03-.014-.06-.022-.093a.752.752 0 0 0-.046-.122c-.186.181-.512.732-1.095 1.004"/>
        <path id="h" d="M5.364 1.001C2.114 2.516.237 4.984.377 5.111c.138.122 1.899-2.249 5.439-3.288 1.075-.315 3.195-.875 5.439 0a6.661 6.661 0 0 1 2.374 1.587 5.297 5.297 0 0 1-.052-.463 5.963 5.963 0 0 0-.008-.14l-.021-.07a1.371 1.371 0 0 0-.125-.275c-.013-.022-.024-.045-.035-.068a1.677 1.677 0 0 0-.155-.172 3.648 3.648 0 0 1-.618-.399c-.23-.182-.328-.307-.454-.41C11.28.685 9.894.198 8.536.18h-.077c-.508 0-1.5.078-3.095.821"/>
    </defs>
    <g fill="none" fill-rule="evenodd">
        <g transform="rotate(-56 12.847 11.674)">
            <mask id="b" fill="#fff">
                <use xlink:href="#a"/>
            </mask>
            <path fill="#9DC536" d="M21.152-.724c-1.63 0-5.129.116-5.93-1.977a2.406 2.406 0 0 1-.126-.504H-2.905v16.698c4.877-2.533 10.627-4.132 15.51-4.132.311 0 .692-.004 1.108.003.29-1.63 2.32-3.327 3.27-4.188C19.744 2.668 23.867.759 27.28-.555a32.875 32.875 0 0 1 6.105-1.832c.238-.065.479-.117.718-.174v-.644h-1.076c-3.951 1.555-8.163 2.48-11.875 2.48" mask="url(#b)"/>
        </g>
        <g transform="rotate(-56 15.374 10.29)">
            <mask id="e" fill="#fff">
                <use xlink:href="#d"/>
            </mask>
            <path fill="#5C8400" d="M16.14 1.65c.218-.192.457-.373.692-.557v-4.075H-2.994V8.081h2.869c3.985-1.619 8.32-2.595 12.104-2.595.296 0 .659-.004 1.054.004.275-1.495 2.206-3.051 3.107-3.84" mask="url(#e)"/>
        </g>
        <g transform="rotate(-56 16.687 9.588)">
            <mask id="g" fill="#fff">
                <use xlink:href="#f"/>
            </mask>
            <path fill="#546D12" d="M16.14-.234c.228-.224.477-.438.723-.653V-3.18H-3.199V7.371h2.296c4.195-2.04 8.85-3.289 12.882-3.289.296 0 .659-.004 1.054.005.275-1.682 2.206-3.433 3.107-4.32" mask="url(#g)"/>
        </g>
        <g transform="rotate(-56 13.366 9.68)">
            <mask id="i" fill="#fff">
                <use xlink:href="#h"/>
            </mask>
            <path fill="#457A00" d="M16.238 2.552c.234-.22.49-.43.741-.64v-5.214H-2.98V8.597H2.29c3.254-1.095 6.587-1.73 9.588-1.73.31 0 .69-.003 1.105.006.288-1.682 2.31-3.433 3.254-4.321" mask="url(#i)"/>
        </g>
    </g>
</svg>
