<svg xmlns="http://www.w3.org/2000/svg" xmlns:xlink="http://www.w3.org/1999/xlink" width="14" height="26" viewBox="0 0 14 26">
    <defs>
        <path id="a" d="M7.977.959c-1.763.731-2.802 1.786-4.18 3.182 0 0-2.73 2.354-3.76 5.144-.022.056-.033.11-.033.11-.014.092.013.183.03.202.125.14 1.763-1.613 3.762-1.82 1.1-.112 2.053.184 2.927.456.467.145.575.255 1.06.404 1.115.343 2.05.328 2.522.324 1.218-.008 2.168.04 2.925.087 1.75.11 2.47.22 3.109-.36.81-.737.666-1.85.836-1.819.336.058.175 3.164 0 5-.126 1.319-.198 2.095-.418 3.183-.242 1.202-.39 1.445-.418 2.273-.025.757.081 1.11.065 1.643-.005.19-.025.343-.065.63-.404 2.812-1.167 4.785-.39 5.474.624.553 2.294.34 3.08-.474 1.3-1.344.289-4.456-.18-5.909 0-.001-.37-1.154-.419-2.273V10.505c-.064-.456-.155-.734 0-.908.175-.2.572-.151.835 0 .195.112.283.263.42.454 0 0 .1.15.835.91.66.68 3 .077 4.155-.104 2.108-.332 3.761.19 6.158.948a15.11 15.11 0 0 1 3.364 1.523c.243-.193.567-.315.978-.315 1.136 0 1.627.919 1.48 1.718a.61.61 0 0 0 .336-.083c1.22-.708-.145-4.829-1.422-5.96a16.234 16.234 0 0 0-.772-.633c-.9-.667-1.567-.918-4.243-3.005-.893-.694-1.318-1.058-2.09-1.363-.379-.15-2.624-1.04-4.6 0-2.22 1.169-3.694 4.561-5.016 5-.208.07-.337.04-.418 0-.482-.235-.356-1.352-.418-2.273-.133-1.938-1.127-3.44-1.673-4.09C15.315 1.1 14.05.704 13.412.503a6.754 6.754 0 0 0-2.03-.309C9.862.195 8.628.69 7.978.96"/>
        <path id="c" d="M7.977.959c-1.763.731-2.802 1.786-4.18 3.182 0 0-2.73 2.354-3.76 5.144-.022.056-.033.11-.033.11-.014.092.013.183.03.202.125.14 1.763-1.613 3.762-1.82 1.1-.112 2.053.184 2.927.456.467.145.575.255 1.06.404 1.115.343 2.05.328 2.522.324 1.218-.008 2.168.04 2.925.087 1.75.11 2.47.22 3.109-.36.81-.737.666-1.85.836-1.819.336.058.175 3.164 0 5-.126 1.319-.198 2.095-.418 3.183-.242 1.202-.39 1.445-.418 2.273-.025.757.081 1.11.065 1.643-.005.19-.025.343-.065.63-.404 2.812-1.167 4.785-.39 5.474.624.553 2.294.34 3.08-.474 1.3-1.344.289-4.456-.18-5.909 0-.001-.37-1.154-.419-2.273V10.505c-.064-.456-.155-.734 0-.908.175-.2.572-.151.835 0 .195.112.283.263.42.454 0 0 .1.15.835.91.66.68 3 .077 4.155-.104 2.108-.332 3.761.19 6.158.948a15.11 15.11 0 0 1 3.364 1.523c.243-.193.567-.315.978-.315 1.136 0 1.627.919 1.48 1.718a.61.61 0 0 0 .336-.083c1.22-.708-.145-4.829-1.422-5.96a16.234 16.234 0 0 0-.772-.633c-.9-.667-1.567-.918-4.243-3.005-.893-.694-1.318-1.058-2.09-1.363-.379-.15-2.624-1.04-4.6 0-2.22 1.169-3.694 4.561-5.016 5-.208.07-.337.04-.418 0-.482-.235-.356-1.352-.418-2.273-.133-1.938-1.127-3.44-1.673-4.09C15.315 1.1 14.05.704 13.412.503a6.754 6.754 0 0 0-2.03-.309C9.862.195 8.628.69 7.978.96"/>
    </defs>
    <g fill="none" fill-rule="evenodd">
        <g transform="rotate(-56 16.536 14.009)">
            <mask id="b" fill="#fff">
                <use xlink:href="#a"/>
            </mask>
            <path fill="#9DC536" d="M25.605-.825c-2.018 0-6.347.133-7.338-2.25a2.516 2.516 0 0 1-.155-.575H-4.165v19.017C1.871 12.48 8.986 10.66 15.028 10.66c.386 0 .857-.005 1.372.003.36-1.857 2.871-3.789 4.046-4.77 3.418-2.856 8.52-5.03 12.742-6.526a43.354 43.354 0 0 1 7.554-2.086c.294-.075.593-.133.888-.2v-.732H40.3C35.41-1.88 30.197-.825 25.604-.825" mask="url(#b)"/>
        </g>
    </g>
</svg>
