<svg xmlns="http://www.w3.org/2000/svg" xmlns:xlink="http://www.w3.org/1999/xlink" width="13" height="15" viewBox="0 0 13 15">
    <defs>
        <path id="a" d="M4.044.529c-.894.403-1.42.985-2.12 1.756 0 0-1.383 1.298-1.905 2.837-.011.03-.017.06-.017.06a.191.191 0 0 0 .015.112c.064.077.894-.89 1.907-1.004.558-.062 1.04.101 1.484.252.237.08.292.14.537.223.566.188 1.04.18 1.279.178.617-.004 1.099.022 1.483.048.886.06 1.251.121 1.575-.199.412-.406.338-1.02.424-1.003.17.032.089 1.745 0 2.758-.064.728-.1 1.156-.212 1.756-.122.663-.198.797-.212 1.254-.012.417.042.613.034.907a3.1 3.1 0 0 1-.034.347c-.204 1.551-.591 2.64-.197 3.02.316.304 1.163.187 1.562-.262.658-.742.146-2.458-.093-3.26 0 0-.187-.636-.211-1.254v-3.26c-.033-.252-.079-.405 0-.5.088-.111.29-.084.423 0 .099.06.143.144.212.25 0 0 .051.083.424.501.334.375 1.521.043 2.106-.057 1.069-.183 1.907.105 3.122.523.735.253 1.283.561 1.705.84a.736.736 0 0 1 .496-.173c.576 0 .824.506.75.947a.29.29 0 0 0 .17-.046c.618-.39-.073-2.663-.72-3.288a8.409 8.409 0 0 0-.392-.348c-.456-.368-.794-.507-2.15-1.658-.453-.383-.669-.584-1.06-.752-.192-.083-1.33-.574-2.332 0-1.126.645-1.872 2.516-2.543 2.758-.105.038-.17.022-.211 0-.245-.13-.181-.746-.212-1.254a4.283 4.283 0 0 0-.849-2.256C7.763.607 7.122.389 6.8.278A3.169 3.169 0 0 0 5.77.108C5 .108 4.373.38 4.044.529"/>
        <path id="c" d="M4.044.529c-.894.403-1.42.985-2.12 1.756 0 0-1.383 1.298-1.905 2.837-.011.03-.017.06-.017.06a.191.191 0 0 0 .015.112c.064.077.894-.89 1.907-1.004.558-.062 1.04.101 1.484.252.237.08.292.14.537.223.566.188 1.04.18 1.279.178.617-.004 1.099.022 1.483.048.886.06 1.251.121 1.575-.199.412-.406.338-1.02.424-1.003.17.032.089 1.745 0 2.758-.064.728-.1 1.156-.212 1.756-.122.663-.198.797-.212 1.254-.012.417.042.613.034.907a3.1 3.1 0 0 1-.034.347c-.204 1.551-.591 2.64-.197 3.02.316.304 1.163.187 1.562-.262.658-.742.146-2.458-.093-3.26 0 0-.187-.636-.211-1.254v-3.26c-.033-.252-.079-.405 0-.5.088-.111.29-.084.423 0 .099.06.143.144.212.25 0 0 .051.083.424.501.334.375 1.521.043 2.106-.057 1.069-.183 1.907.105 3.122.523.735.253 1.283.561 1.705.84a.736.736 0 0 1 .496-.173c.576 0 .824.506.75.947a.29.29 0 0 0 .17-.046c.618-.39-.073-2.663-.72-3.288a8.409 8.409 0 0 0-.392-.348c-.456-.368-.794-.507-2.15-1.658-.453-.383-.669-.584-1.06-.752-.192-.083-1.33-.574-2.332 0-1.126.645-1.872 2.516-2.543 2.758-.105.038-.17.022-.211 0-.245-.13-.181-.746-.212-1.254a4.283 4.283 0 0 0-.849-2.256C7.763.607 7.122.389 6.8.278A3.169 3.169 0 0 0 5.77.108C5 .108 4.373.38 4.044.529"/>
    </defs>
    <g fill="none" fill-rule="evenodd">
        <g transform="translate(0 .213)">
            <mask id="b" fill="#fff">
                <use xlink:href="#a"/>
            </mask>
            <path fill="#9DC536" d="M12.98-.455c-1.024 0-3.218.073-3.72-1.242a1.486 1.486 0 0 1-.079-.317H-2.11v10.49c3.06-1.591 6.666-2.595 9.729-2.595.196 0 .434-.003.696.002.182-1.025 1.455-2.09 2.05-2.631 1.733-1.576 4.32-2.775 6.46-3.6A20.598 20.598 0 0 1 20.652-1.5c.149-.042.3-.074.45-.11v-.405h-.675c-2.478.977-5.12 1.56-7.448 1.56" mask="url(#b)"/>
        </g>
        <g transform="translate(0 .213)">
            <mask id="d" fill="#fff">
                <use xlink:href="#c"/>
            </mask>
            <path fill="#9DC536" d="M14.493 11.851a4.185 4.185 0 0 1-1.825-.313l-.55.126c-.3.948-1.326 1.808-1.946 2.372-.83.754-1.804 1.455-2.868 2.085h13.8v-5.35a25.06 25.06 0 0 1-3.577.885 9.646 9.646 0 0 1-3.034.195" mask="url(#d)"/>
        </g>
    </g>
</svg>
