<svg xmlns="http://www.w3.org/2000/svg" xmlns:xlink="http://www.w3.org/1999/xlink" width="28" height="17" viewBox="0 0 28 17">
    <defs>
        <path id="a" d="M7.63.972c-1.686.74-2.68 1.809-3.999 3.224 0 0-2.609 2.385-3.596 5.212-.02.056-.032.11-.032.11-.012.094.013.186.03.206.12.142 1.686-1.634 3.598-1.844 1.052-.114 1.963.186 2.8.462.446.147.549.258 1.013.409 1.067.347 1.96.332 2.414.328a36.46 36.46 0 0 1 2.798.089c1.672.11 2.361.222 2.973-.366.775-.746.636-1.872.8-1.842.32.058.167 3.205 0 5.066-.121 1.336-.191 2.122-.4 3.225-.232 1.217-.374 1.464-.4 2.302-.025.767.077 1.126.063 1.666a5.952 5.952 0 0 1-.063.638c-.387 2.849-1.117 4.847-.373 5.546.595.56 2.195.344 2.946-.48 1.243-1.362.276-4.515-.174-5.987 0-.002-.353-1.17-.4-2.304V10.644c-.06-.463-.147-.744 0-.92.168-.203.548-.154.8 0 .186.113.27.266.4.46 0 0 .096.152.8.921.63.69 2.871.078 3.974-.105 2.017-.336 3.598.193 5.89.961 1.387.464 2.42 1.03 3.218 1.543.232-.196.544-.319.936-.319 1.086 0 1.556.93 1.416 1.74a.561.561 0 0 0 .321-.084c1.165-.717-.138-4.892-1.36-6.039-.314-.296-.74-.64-.74-.64-.86-.676-1.498-.93-4.058-3.045-.853-.703-1.26-1.072-2-1.381-.362-.153-2.51-1.054-4.399 0-2.124 1.184-3.534 4.621-4.798 5.066-.2.07-.322.04-.4 0-.46-.24-.34-1.37-.4-2.303-.126-1.964-1.077-3.486-1.599-4.145-.98-1.239-2.189-1.64-2.8-1.844a6.131 6.131 0 0 0-1.941-.312C9.43.198 8.252.699 7.63.972z"/>
        <path id="c" d="M6.1.707c-.414.01-1.06.066-1.86.318-.115.065-.264.14-.447.197-.163.05-.335.083-.521.1-.134.14-.296.256-.47.357-.101.086-.204.17-.3.262-.064.061-.128.13-.204.181-.01.016-.021.034-.036.05l-.003.006c-.014.016-.024.035-.037.05a.215.215 0 0 1-.086.056c-.014.019-.028.038-.04.058-.01.016-.025.026-.037.039-.007.014-.016.026-.025.04l-.001-.002a.508.508 0 0 0-.018.026c-.005.007-.008.014-.014.021 0 .002-.001.003-.003.003-.002.004-.002.01-.006.013-.01.015-.026.024-.04.035-.013.01-.022.02-.034.028L1.9 2.56c0 .002-.002.001-.004.003a.064.064 0 0 0-.012.012l-.024.027c-.02.035-.05.064-.073.096a.048.048 0 0 1-.007.02.235.235 0 0 1-.131.152 1.022 1.022 0 0 1-.05.08c-.007.013-.017.026-.023.04 0 0-.001-.002-.003-.002-.012.017-.021.037-.034.053l-.005.003v.003c-.06.096-.17.192-.382.245H.666c-.403.116-.49.197-.486.25.005.128.508.123.799.533a.787.787 0 0 1 .052.083s.094.157.783.95c.618.71 2.81.081 3.888-.108 2.016-.355 3.618.214 5.763.99 3.356 1.215 5.842 3.53 6.16 3.134.016-.02.02-.036 0-.495-.028-.718-.041-1.076-.051-1.121a1.858 1.858 0 0 0-.14-.368.211.211 0 0 1-.034-.063.162.162 0 0 1-.056-.038c-.025-.025-.047-.056-.074-.08a.255.255 0 0 1-.067-.072.656.656 0 0 0-.021-.054c-.015-.012-.032-.024-.044-.039a.518.518 0 0 0-.027-.034c-.012-.01-.024-.02-.036-.034l-.034-.037a.266.266 0 0 1-.061-.109l-.003-.014c-.115-.035-.169-.146-.16-.257l-.151-.155c-.192-.19-.307-.265-.48-.496a2.645 2.645 0 0 1-.32-.545.24.24 0 0 1-.102-.004.254.254 0 0 1-.144-.113c-.003-.007-.01-.014-.013-.02a1.546 1.546 0 0 0-.257-.257c-.05-.038-.1-.075-.153-.109a.248.248 0 0 1-.114-.21c-.021-.001-.042 0-.062-.005a.246.246 0 0 1-.128-.096.504.504 0 0 0-.073-.074c-.082-.058-.17-.104-.252-.165a.23.23 0 0 1-.086-.089l-.019-.045a.243.243 0 0 1-.14-.064c-.134-.137-.244-.296-.382-.428l-.055-.051-.005-.004-.016-.01a1.678 1.678 0 0 0-.126-.086c-.083-.053-.17-.103-.25-.158a.255.255 0 0 1-.091-.324c-.41-.364-.853-.783-1.306-.912a2.694 2.694 0 0 1-.422-.161c-.07-.012-.19-.032-.337-.059C8.505 1.172 7.634.706 6.26.706L6.1.707z"/>
        <path id="e" d="M3.702.576a6.824 6.824 0 0 0-2.044 1.323 5.94 5.94 0 0 1 .408-.278c.063-.037.108-.065.123-.072.464-.267 1.726-.836 4.376-.625 1.257.1 4.202.372 7.361 2.443 2.097 1.374 3.233 2.848 3.273 2.804.046-.048-1.54-2.07-4.091-3.799-1.365-.927-2.61-1.77-4.498-2.145A9.913 9.913 0 0 0 6.645.025c-.869 0-1.91.124-2.943.55zM.292 3.489c.06.04.469-.755 1.366-1.59C.662 2.638.23 3.449.293 3.489z"/>
    </defs>
    <g fill="none" fill-rule="evenodd">
        <g transform="rotate(-56 19.986 16.444)">
            <mask id="b" fill="#fff">
                <use xlink:href="#a"/>
            </mask>
            <path fill="#9DC536" d="M-3.984-3.698v5.787A39.672 39.672 0 0 1 1.42.649a28.744 28.744 0 0 1 6.356-.948 9.301 9.301 0 0 1 2.422-.005c.86.025 1.732.097 2.546.223.554.086 2.147.465 2.906 1.04.588.446 1.198 1.142 1.62 1.757.137.199.24.418.333.638.284.68.414 1.454.71 2.139.149.231.29.468.413.717.265 1.36-.051 2.562-.938 3.613.127.389.163.777.117 1.16 1.527.238 2.977.792 3.49 2.1.357.909.166 1.812-.294 2.661.008.02.02.037.03.057.272.697.218 1.39-.026 2.058.794.338 1.438.85 1.746 1.632.966 2.461-2.061 4.878-3.656 6.29-.176.155-.367.305-.551.458.278.373.538.754.75 1.14.394.714.704 1.48 1.039 2.231h19.389V-3.698H-3.984z" mask="url(#b)"/>
        </g>
        <g transform="rotate(-56 15.635 -2.738)">
            <mask id="d" fill="#fff">
                <use xlink:href="#c"/>
            </mask>
            <path fill="#5C8400" d="M-.077-3.312c.054.112.103.227.15.343.278.7.405 1.498.694 2.205.146.238.284.483.405.74.259 1.401-.05 2.642-.918 3.725.125.401.16.801.114 1.196 1.494.246 2.912.817 3.414 2.165.349.938.162 1.87-.287 2.745.008.021.02.038.028.06.268.72.215 1.435-.025 2.125.605.274 1.124.654 1.464 1.195h16.573v-16.5H-.077z" mask="url(#d)"/>
        </g>
        <g transform="rotate(-56 15.625 -2.72)">
            <mask id="f" fill="#fff">
                <use xlink:href="#e"/>
            </mask>
            <path fill="#457A00" d="M-1.345-3.547c.092.109.186.217.265.322.14.183.246.383.341.586.292.623.424 1.331.726 1.96A6.4 6.4 0 0 1 .41-.02c.27 1.246-.052 2.349-.96 3.31a2.2 2.2 0 0 1 .12 1.063c1.562.22 3.043.726 3.569 1.925.365.834.17 1.662-.3 2.44.009.018.02.034.03.053.142.327.19.652.18.974h18.225v-13.29h-22.62z" mask="url(#f)"/>
        </g>
    </g>
</svg>
