<?xml version="1.0" encoding="utf-8"?>
<!-- Generator: Adobe Illustrator 19.2.1, SVG Export Plug-In . SVG Version: 6.00 Build 0)  -->
<!DOCTYPE svg PUBLIC "-//W3C//DTD SVG 1.1//EN" "http://www.w3.org/Graphics/SVG/1.1/DTD/svg11.dtd">
<svg version="1.1" id="Layer_1" xmlns="http://www.w3.org/2000/svg" xmlns:xlink="http://www.w3.org/1999/xlink" x="0px" y="0px"
	 viewBox="0 0 27.4 27.4" style="enable-background:new 0 0 27.4 27.4;" xml:space="preserve">
<style type="text/css">
	.st0{fill:#72A643;}
</style>
<g>
	<g>
		<path class="st0" d="M13.7,0C6.1,0,0,6.1,0,13.7c0,7.6,6.1,13.7,13.7,13.7c7.6,0,13.7-6.1,13.7-13.7C27.4,6.1,21.2,0,13.7,0z
			 M16.9,13.1c0,0.3-0.1,0.6-0.1,0.9c0,0.2-0.1,0.3-0.3,0.3c-0.5,0-1,0-1.4,0c-0.4,0-0.4,0-0.4,0.4c0,2.2,0,4.4,0,6.7
			c0,0.3-0.1,0.4-0.4,0.4c-0.8,0-1.6,0-2.4,0c-0.3,0-0.4-0.1-0.4-0.4c0-2.2,0-4.4,0-6.6c0-0.5,0-0.4-0.5-0.5c-0.3,0-0.6,0-0.8,0
			c-0.2,0-0.2-0.1-0.2-0.2c0-0.7,0-1.4,0-2.2c0-0.2,0.1-0.2,0.3-0.2c0.3,0,0.7,0,1,0c0.2,0,0.3-0.1,0.3-0.3c0-0.6,0-1.3,0.1-1.9
			C11.7,8,12.6,7,14,6.9c0.9-0.1,1.8-0.1,2.8-0.1C16.9,6.8,17,6.9,17,7c0,0.7,0,1.5,0,2.2c0,0.2-0.1,0.2-0.2,0.2c-0.5,0-1,0-1.5,0.1
			c-0.4,0-0.5,0.2-0.6,0.6c0,0.5,0,0.9,0,1.4c0,0.2,0.1,0.2,0.3,0.2c0.5,0,1.1,0,1.6,0c0.1,0,0.3,0,0.4,0
			C16.9,12.2,16.9,12.7,16.9,13.1z"/>
	</g>
</g>
</svg>
