<svg xmlns="http://www.w3.org/2000/svg" width="20" height="20" viewBox="0 0 20 20">
    <path fill="#FFF" d="M10 0C4.477 0 0 4.477 0 10s4.477 10 10 10 10-4.476 10-10c0-5.523-4.477-10-10-10zm.175 18.246c-4.457 0-8.07-3.613-8.07-8.07 0-4.458 3.613-8.07 8.07-8.07 4.458 0 8.07 3.612 8.07 8.07 0 4.457-3.612 8.07-8.07 8.07zM10 4.56c-.7 0-1.228.368-1.228.962v5.446c0 .594.529.96 1.228.96.682 0 1.228-.38 1.228-.96V5.523c0-.58-.546-.962-1.228-.962zm0 8.421c-.677 0-1.228.551-1.228 1.23 0 .676.551 1.227 1.228 1.227.678 0 1.228-.551 1.228-1.228 0-.678-.55-1.229-1.228-1.229z"/>
</svg>
