<?xml version="1.0" encoding="utf-8"?>
<!-- Generator: Adobe Illustrator 19.2.1, SVG Export Plug-In . SVG Version: 6.00 Build 0)  -->
<!DOCTYPE svg PUBLIC "-//W3C//DTD SVG 1.1//EN" "http://www.w3.org/Graphics/SVG/1.1/DTD/svg11.dtd">
<svg version="1.1" id="Layer_1" xmlns="http://www.w3.org/2000/svg" xmlns:xlink="http://www.w3.org/1999/xlink" x="0px" y="0px"
	 viewBox="0 0 27.4 27.4" style="enable-background:new 0 0 27.4 27.4;" xml:space="preserve">
<style type="text/css">
	.st0{fill:#72A643;}
</style>
<g>
	<g>
		<g>
			<path class="st0" d="M16.7,10.7c0,0,0.1,0.1,0.1,0.1c0.1,0.1,0.2,0.1,0.3,0.1c0.4,0,0.8,0,1.2,0c0.1,0,0.2,0,0.2-0.1
				c0.1-0.1,0.2-0.2,0.2-0.4c0-0.4,0-0.8,0-1.1c0-0.1,0-0.2,0-0.3c0-0.1-0.2-0.3-0.3-0.3c-0.2,0-0.5,0-0.7,0c-0.2,0-0.4,0-0.6,0
				c-0.1,0-0.2,0-0.3,0.1c-0.1,0.1-0.2,0.2-0.2,0.3c0,0.5,0,0.9,0,1.4C16.7,10.6,16.7,10.6,16.7,10.7z"/>
			<path class="st0" d="M15.4,13.7c0-0.1,0-0.2-0.1-0.2c0,0,0-0.1,0-0.1c0-0.1-0.1-0.1-0.1-0.2c0-0.1-0.1-0.2-0.2-0.2
				c-0.1-0.1-0.3-0.3-0.4-0.4c0,0-0.1-0.1-0.1-0.1c-0.1,0-0.1,0-0.2-0.1c-0.1,0-0.2-0.1-0.3-0.1c-0.1,0-0.2,0-0.4,0
				c-0.1,0-0.2,0-0.4,0c0,0,0,0,0,0c-0.1,0-0.1,0-0.2,0.1c-0.1,0-0.1,0-0.2,0.1c-0.1,0-0.2,0.1-0.2,0.1c-0.1,0-0.1,0.1-0.2,0.1
				c-0.1,0-0.1,0.1-0.2,0.2c0,0.1-0.1,0.1-0.1,0.2c-0.1,0.1-0.1,0.2-0.2,0.2c0,0.1-0.1,0.1-0.1,0.2c0,0,0,0,0,0c0,0.1,0,0.2-0.1,0.2
				c0,0.1,0,0.2,0,0.3c0,0.1,0,0.2,0,0.3c0,0.1,0,0.2,0.1,0.3c0,0.1,0.1,0.2,0.1,0.3c0,0.1,0.1,0.2,0.1,0.2c0.1,0.1,0.1,0.2,0.2,0.2
				c0,0,0.1,0.1,0.1,0.1c0.1,0.1,0.2,0.2,0.3,0.2c0.1,0.1,0.2,0.1,0.4,0.2c0.1,0,0.2,0.1,0.3,0.1c0.1,0,0.2,0,0.3,0c0,0,0.1,0,0.1,0
				c0.1,0,0.2,0,0.2,0c0,0,0.1,0,0.2,0c0,0,0.1,0,0.1,0c0.1,0,0.1-0.1,0.2-0.1c0.1,0,0.1-0.1,0.2-0.1c0.1-0.1,0.1-0.1,0.2-0.2
				c0.1-0.1,0.1-0.1,0.1-0.2c0.1-0.1,0.1-0.1,0.1-0.2c0.1-0.1,0.1-0.3,0.2-0.4c0-0.1,0.1-0.2,0.1-0.3c0,0,0,0,0,0c0-0.1,0-0.2,0-0.3
				C15.5,13.9,15.4,13.8,15.4,13.7z"/>
			<path class="st0" d="M13.7,0C6.2,0,0,6.1,0,13.6C0,21,5.9,27.3,13.6,27.4c7.6,0,13.7-6.1,13.7-13.7C27.4,5.9,21.1,0,13.7,0z
				 M7.3,10c0,0,0-0.1,0-0.1c0,0,0,0,0,0c0-0.1,0-0.2,0-0.3c0,0,0-0.1,0-0.1c0-0.1,0-0.2,0.1-0.2c0-0.1,0.1-0.2,0.1-0.3
				c0-0.1,0.1-0.1,0.1-0.2c0.1-0.1,0.1-0.2,0.2-0.2c0,0,0,0,0,0C8,8.4,8.1,8.4,8.1,8.3c0,0,0,0,0.1-0.1c0,0,0.1-0.1,0.1-0.1
				c0,0,0,0,0.1,0c0,0,0,0,0,0.1c0,0,0,0,0,0.1c0,0.8,0,1.6,0,2.5c0,0.1,0,0.1,0.1,0.1c0.1,0,0.2,0,0.3,0c0.1,0,0.1,0,0.1-0.1
				c0-0.4,0-0.8,0-1.2c0-0.5,0-1,0-1.5c0-0.1,0-0.1,0.1-0.1c0.1,0,0.1,0,0.2-0.1c0.1,0,0.1,0,0.1,0.1c0,0.6,0,1.3,0,1.9
				c0,0.3,0,0.7,0,1c0,0.1,0,0.1,0.1,0.1c0.1,0,0.2,0,0.3,0c0,0,0.1,0,0.1-0.1c0-0.2,0-0.5,0-0.7c0-0.8,0-1.5,0-2.3c0,0,0,0,0-0.1
				c0,0,0-0.1,0.1-0.1c0.1,0,0.2,0,0.3,0c0,0,0,0,0,0c0,0,0,0,0,0.1c0,1,0,2,0,2.9c0,0,0,0,0,0.1c0,0,0,0,0,0c0.1,0,0.3,0,0.4,0
				c0,0,0,0,0,0c0,0,0,0,0-0.1c0-1,0-1.9,0-2.9c0,0,0,0,0-0.1c0,0,0-0.1,0.1-0.1c0,0,0,0,0.1,0c1.2,0,2.3,0,3.5,0c1.1,0,2.3,0,3.4,0
				c0.1,0,0.2,0,0.3,0c0.1,0,0.3,0,0.4,0.1c0.1,0,0.2,0.1,0.3,0.1c0.1,0,0.1,0,0.2,0.1c0.1,0,0.1,0.1,0.2,0.1c0.1,0,0.1,0.1,0.2,0.1
				c0,0,0,0,0,0c0.1,0.1,0.2,0.1,0.2,0.2c0.1,0.1,0.2,0.2,0.3,0.4c0,0.1,0.1,0.2,0.1,0.2c0,0.1,0.1,0.1,0.1,0.2
				c0,0.1,0.1,0.2,0.1,0.2c0,0,0,0,0,0c0,0,0,0.1,0,0.1c0,0,0,0,0,0c0,0.1,0,0.2,0,0.3c0,0.6,0,1.1,0,1.7c0,0.1,0,0.1-0.1,0.1
				c-1.3,0-2.6,0-3.9,0c0,0-0.1,0-0.1,0c-0.1-0.1-0.2-0.1-0.2-0.2c-0.1-0.1-0.2-0.1-0.3-0.2c0,0-0.1,0-0.1-0.1
				c-0.1,0-0.1-0.1-0.2-0.1c-0.1,0-0.2-0.1-0.3-0.1c-0.1,0-0.1-0.1-0.2-0.1c-0.1,0-0.1,0-0.2,0c-0.1,0-0.1,0-0.2-0.1c0,0,0,0,0,0
				c-0.2,0-0.5,0-0.7,0c-0.1,0-0.2,0-0.3,0c-0.1,0-0.2,0-0.3,0.1c-0.1,0-0.2,0.1-0.3,0.1c-0.1,0-0.2,0.1-0.3,0.2
				c-0.1,0.1-0.3,0.1-0.4,0.2c-0.1,0-0.1,0.1-0.2,0.1c0,0-0.1,0-0.1,0.1c-0.1,0-0.1,0.1-0.2,0.1c0,0-0.1,0-0.1,0c0,0,0,0-0.1,0
				c-1.3,0-2.6,0-3.8,0c-0.1,0-0.1,0-0.1-0.1C7.3,11.1,7.3,10.6,7.3,10z M16.1,14c0,0,0,0.1,0,0.1c0,0,0,0,0,0.1c0,0.1,0,0.1,0,0.2
				c0,0.1,0,0.2-0.1,0.3c0,0,0,0.1,0,0.1c0,0.1-0.1,0.2-0.1,0.2c0,0.1-0.1,0.2-0.1,0.3c0,0.1-0.1,0.1-0.1,0.1c0,0.1-0.1,0.1-0.1,0.2
				c0,0,0,0,0,0.1c-0.1,0.1-0.2,0.2-0.3,0.3c-0.1,0.1-0.2,0.1-0.3,0.2c-0.1,0.1-0.2,0.1-0.4,0.2c0,0-0.1,0-0.1,0c0,0-0.1,0-0.1,0
				c-0.1,0-0.1,0-0.2,0.1c0,0,0,0,0,0c-0.1,0-0.2,0-0.2,0c-0.1,0-0.2,0-0.3,0c-0.1,0-0.2,0-0.4,0c-0.1,0-0.1,0-0.2,0
				c-0.1,0-0.2-0.1-0.3-0.1c-0.1,0-0.2-0.1-0.3-0.1c0,0-0.1,0-0.1-0.1c0,0,0,0-0.1,0c-0.1,0-0.2-0.1-0.2-0.1c0,0,0,0,0,0
				c0,0-0.1-0.1-0.1-0.1c0,0-0.1-0.1-0.1-0.1c-0.1-0.1-0.2-0.2-0.3-0.3c-0.1-0.1-0.1-0.2-0.2-0.3c0-0.1-0.1-0.2-0.1-0.3
				c0,0,0,0,0-0.1c0-0.1,0-0.1-0.1-0.2c0-0.1,0-0.1,0-0.2c0,0,0,0,0,0c0-0.2,0-0.3,0-0.5l0,0c0-0.1,0-0.1,0-0.2c0-0.1,0-0.2,0.1-0.3
				c0-0.1,0-0.1,0-0.2c0,0,0-0.1,0-0.1c0.1-0.2,0.1-0.3,0.2-0.5c0,0,0.1-0.1,0.1-0.1c0-0.1,0.1-0.1,0.1-0.2c0,0,0,0,0,0
				c0.1-0.1,0.2-0.2,0.3-0.3c0.1-0.1,0.2-0.2,0.3-0.2c0.1-0.1,0.3-0.1,0.4-0.2c0.1,0,0.1-0.1,0.2-0.1c0,0,0,0,0,0c0.1,0,0.1,0,0.2,0
				c0.1,0,0.2,0,0.3-0.1c0,0,0,0,0.1,0c0.1,0,0.3,0,0.4,0c0.1,0,0.2,0,0.3,0c0.1,0,0.2,0,0.2,0.1c0.1,0,0.2,0.1,0.3,0.1
				c0.1,0,0.1,0,0.2,0.1c0.1,0,0.1,0.1,0.2,0.1c0.1,0,0.1,0.1,0.2,0.1c0,0,0,0,0,0c0.1,0,0.1,0.1,0.2,0.1c0,0,0,0,0.1,0.1
				c0,0,0,0.1,0.1,0.1c0,0.1,0.1,0.1,0.1,0.2c0,0,0,0,0,0.1c0,0,0,0.1,0.1,0.1c0.1,0.1,0.1,0.2,0.2,0.3c0.1,0.1,0.1,0.2,0.1,0.4
				c0,0.1,0,0.2,0.1,0.3C16.1,13.7,16.1,13.9,16.1,14C16.1,14,16.1,14,16.1,14z M20,18c0,0.1,0,0.2,0,0.3c0,0.1-0.1,0.2-0.1,0.3
				c0,0.1,0,0.2-0.1,0.2c0,0,0,0.1-0.1,0.1c-0.1,0.1-0.1,0.2-0.2,0.3c0,0-0.1,0.1-0.1,0.1c0,0-0.1,0.1-0.1,0.1c0,0,0,0,0,0
				c-0.1,0.1-0.1,0.1-0.2,0.2c0,0-0.1,0-0.1,0.1c0,0,0,0,0,0C19,19.9,18.9,20,18.8,20c-0.1,0.1-0.2,0.1-0.3,0.2
				c-0.1,0-0.2,0.1-0.2,0.1c-0.1,0-0.1,0-0.2,0.1c0,0,0,0,0,0c-0.1,0-0.1,0-0.2,0c-0.5,0.1-0.9,0-1.4,0c-0.5,0-0.9,0-1.4,0
				c-0.5,0-0.9,0-1.4,0c-1.3,0-2.6,0-4,0c-0.1,0-0.2,0-0.4-0.1c0,0,0,0-0.1,0c0,0-0.1,0-0.1,0c0,0,0,0,0,0c-0.1,0-0.2,0-0.2-0.1
				c-0.1,0-0.1-0.1-0.2-0.1c-0.1-0.1-0.2-0.1-0.3-0.2c-0.1-0.1-0.2-0.2-0.3-0.2C8,19.7,8,19.6,7.9,19.5c-0.1-0.1-0.1-0.1-0.1-0.2
				c0-0.1-0.1-0.1-0.1-0.2c0-0.1-0.1-0.1-0.1-0.2c-0.1-0.1-0.1-0.2-0.1-0.3c0,0,0-0.1,0-0.1c0,0,0,0,0,0c0-0.1,0-0.2,0-0.2
				c0,0,0-0.1,0-0.1c0,0,0,0,0,0c0,0,0-0.1,0-0.1c0-1.9,0-3.8,0-5.7c0-0.1,0-0.1,0.1-0.1c1.2,0,2.3,0,3.5,0c0,0,0.1,0,0.1,0
				c0,0,0,0.1,0,0.1c0,0.1-0.1,0.1-0.1,0.2c-0.1,0.1-0.1,0.2-0.1,0.3c0,0.1-0.1,0.2-0.1,0.3c0,0.1-0.1,0.2-0.1,0.4
				c0,0.1,0,0.2,0,0.2c0,0.1,0,0.2,0,0.3c0,0.1,0,0.2,0,0.4c0,0.1,0,0.2,0,0.3c0,0.1,0,0.2,0.1,0.3c0,0.1,0.1,0.3,0.1,0.4
				c0,0.1,0.1,0.2,0.2,0.4c0,0.1,0.1,0.1,0.1,0.2c0,0.1,0.1,0.1,0.1,0.2c0,0,0,0,0.1,0.1c0.1,0.2,0.3,0.3,0.4,0.4
				c0.1,0.1,0.2,0.1,0.3,0.2c0,0,0.1,0.1,0.1,0.1c0.1,0,0.1,0.1,0.2,0.1c0,0,0.1,0.1,0.1,0.1c0.1,0,0.2,0.1,0.3,0.1
				c0.1,0,0.1,0.1,0.2,0.1c0.1,0,0.1,0,0.2,0c0.1,0,0.2,0,0.2,0c0.1,0,0.2,0,0.3,0c0.1,0,0.3,0,0.4,0c0.1,0,0.2,0,0.3,0
				c0.1,0,0.2,0,0.3-0.1c0,0,0.1,0,0.1,0c0.1,0,0.1-0.1,0.2-0.1c0.1,0,0.2-0.1,0.3-0.1c0.1,0,0.2-0.1,0.2-0.1c0.1,0,0.1-0.1,0.2-0.1
				c0.1-0.1,0.2-0.1,0.2-0.2c0.1-0.1,0.2-0.2,0.4-0.4c0.1-0.1,0.1-0.1,0.2-0.2c0-0.1,0.1-0.1,0.1-0.2c0.1-0.1,0.1-0.2,0.2-0.3
				c0.1-0.1,0.1-0.2,0.1-0.4c0-0.1,0-0.1,0.1-0.2c0-0.1,0-0.1,0.1-0.2c0,0,0,0,0,0c0-0.1,0-0.3,0-0.4c0-0.1,0-0.2,0-0.3
				c0-0.1,0-0.2,0-0.4c0-0.1,0-0.2-0.1-0.2c0,0,0,0,0,0c0-0.1,0-0.1-0.1-0.2c0-0.1,0-0.2-0.1-0.3c0-0.1-0.1-0.1-0.1-0.2
				c0-0.1-0.1-0.2-0.1-0.3c0,0,0-0.1-0.1-0.1c0,0-0.1-0.1-0.1-0.1c0,0,0,0,0,0c0,0,0,0,0,0c0,0,0,0,0,0c1.2,0,2.4,0,3.5,0
				c0,0,0,0,0,0c0,0,0.1,0,0.1,0.1c0,0,0,0,0,0C20,14.2,20,16.1,20,18z"/>
		</g>
	</g>
</g>
</svg>
