<?xml version="1.0" encoding="utf-8"?>
<!-- Generator: Adobe Illustrator 23.0.6, SVG Export Plug-In . SVG Version: 6.00 Build 0)  -->
<svg version="1.1" id="Layer_1" xmlns="http://www.w3.org/2000/svg" xmlns:xlink="http://www.w3.org/1999/xlink" x="0px" y="0px"
	 viewBox="0 0 1366 768" style="enable-background:new 0 0 1366 768;" xml:space="preserve">
<style type="text/css">
	.st0{fill:#D2FFF8;}
	.st1{opacity:0.6;}
	.st2{fill:#71A470;}
	.st3{fill:#74886E;}
	.st4{fill:#76A48A;}
	.st5{fill:#6D937A;}
	.st6{fill:#799477;}
	.st7{fill:#749C83;}
	.st8{opacity:0.5;}
	.st9{fill:#9DA875;}
	.st10{fill:#7FA488;}
	.st11{fill:#5B7A68;}
	.st12{fill:#667965;}
	.st13{fill:#AFC9A5;}
	.st14{fill:#879671;}
	.st15{fill:#7D967D;}
	.st16{fill:#A8BC87;}
	.st17{fill:#EA8027;}
	.st18{fill:#EA8020;}
	.st19{fill:#EA5727;}
	.st20{fill:#EA9325;}
	.st21{fill:#32BD68;}
	.st22{fill:#728B17;}
	.st23{fill:#F1E2A4;}
	.st24{fill:#A1BD91;}
	.st25{fill:#59D746;}
	.st26{fill:#C3EE53;}
	.st27{fill:#B2D0B2;}
	.st28{fill:#80A894;}
	.st29{fill:#C6E4D0;}
	.st30{fill:#9EBC9E;}
	.st31{fill:#94BC9B;}
	.st32{fill:#8499A0;}
	.st33{fill:#EAA139;}
	.st34{fill:#B14100;}
	.st35{fill:#B52C14;}
	.st36{fill:#FEDEC8;}
	.st37{fill:#481C00;}
	.st38{fill:#A64F00;}
	.st39{fill:#A7BC58;}
	.st40{fill:#4B6E12;}
	.st41{fill:#27381C;}
	.st42{fill:#EF9235;}
	.st43{fill:#5F4000;}
	.st44{fill:#A4CF50;}
	.st45{fill:#F19837;}
	.st46{fill:#404900;}
	.st47{fill:#838D45;}
	.st48{fill:#309620;}
	.st49{fill:#EF9C35;}
	.st50{fill:#F8B54E;}
	.st51{fill:#F58120;}
	.st52{fill:#22241F;}
	.st53{fill:#F7DA78;}
	.st54{fill:#A56D20;}
	.st55{fill:#EB7432;}
	.st56{fill:#FFE352;}
	.st57{fill:#2E0600;}
	.st58{fill:#F8C66E;}
	.st59{opacity:0.8;}
	.st60{fill:#F4FBFB;}
	.st61{fill:#E9A034;}
	.st62{fill:#B7C9A9;}
	.st63{fill:#DBE4BD;}
	.st64{fill:#C4D4B6;}
	.st65{fill:#E4E6D7;}
	.st66{fill:#B0BC9F;}
	.st67{fill:#A7B396;}
	.st68{fill:#B6C3A6;}
	.st69{fill:#954E20;}
	.st70{fill:#557902;}
	.st71{fill:#DAB228;}
	.st72{fill:#F7E29E;}
	.st73{fill:#FFFFE7;}
	.st74{fill:#F29126;}
	.st75{fill:#FFECB0;}
	.st76{fill:#425B16;}
	.st77{fill:#E49126;}
	.st78{fill:#F8D094;}
	.st79{fill:#B37E2F;}
	.st80{fill:#70BF51;}
	.st81{fill:#008648;}
	.st82{fill:#AC5B16;}
	.st83{fill:#713A16;}
	.st84{fill:#C29C80;}
	.st85{fill:#C0825E;}
	.st86{fill:#626044;}
	.st87{fill:#606060;}
	.st88{fill:#8ABC80;}
	.st89{fill:#9BBF94;}
	.st90{fill:#EEF3CB;}
	.st91{fill:#C3E0A6;}
	.st92{fill:#A7C392;}
	.st93{fill:#ACCAAE;}
	.st94{fill:#FBEFE5;}
	.st95{fill:#E5B392;}
	.st96{fill:#FFFFFF;}
	.st97{fill:#D8E5D4;}
	.st98{fill:#EBF4EB;}
	.st99{fill:#E0E1CA;}
	.st100{fill:#A54327;}
	.st101{fill:#DB922F;}
</style>
<rect x="0.29" y="1.68" class="st0" width="1365.44" height="765.25"/>
<g class="st1">
	<path class="st2" d="M-35.31,345.89c31.25-31.26,81.47-41.8,122.64-25.74c31.18,12.16,60.73,38.45,93.33,30.9
		c32.69-7.57,50.16-46.2,82.23-56.06c24.29-7.47,50.87,3.91,69.91,20.75s32.78,38.72,49.46,57.89
		c12.28,14.11,27.45,27.4,45.97,29.98c49.19,6.86,80.59-61.49,130.19-64.06c55.27-2.87,88.99,76.15,144.23,72.79
		c41.89-2.55,64.25-49.86,99-73.4c33.33-22.59,81.2-20.92,112.89,3.92c19.07,14.95,35.53,38.42,59.77,38.21
		c25.17-0.22,41.16-25.61,58.29-44.05c19.6-21.12,50.71-36.01,77.2-24.67c31.43,13.46,45.86,58.69,80,60.43
		c23.14,1.18,40.83-18.94,59.67-32.43c39.47-28.28,96.96-28.34,136.49-0.15c3.1,60.12,2.55,120.42-1.62,180.47
		c-146.6-30.03-296.05-46.17-445.68-48.13c-325.09-4.27-650.44,58.12-974.04,26.8c2.47-53.42,9.34-106.64,20.51-158.94"/>
</g>
<g>
	<path class="st3" d="M-15.47,455.12c4.83-81.68,9.66-163.35,14.49-245.03c42.1-0.7,84.19-1.41,126.29-2.11
		c2.8,85.84,2.96,171.76,0.46,257.61c-46.67,2.68-93.33,5.35-140,8.03c-0.05-10.09-0.11-20.18-0.16-30.27"/>
</g>
<g>
	<path class="st4" d="M120.57,457.82c5.7-69.75,11.4-139.51,17.1-209.26c49.7-0.6,99.39-1.2,149.09-1.8
		c3.31,73.31,3.49,146.69,0.55,220.01c-55.09,2.29-110.18,4.57-165.27,6.86c-0.06-8.62-0.13-17.24-0.19-25.85"/>
</g>
<g>
	<path class="st5" d="M1129.9,454.62c4.25-83.9,8.5-167.81,12.74-251.71c37.03-0.72,74.07-1.45,111.1-2.17
		c2.46,88.18,2.6,176.45,0.41,264.63c-41.05,2.75-82.11,5.5-123.16,8.25c-0.05-10.37-0.1-20.73-0.14-31.1"/>
</g>
<g>
	<path class="st6" d="M282.38,459.19c5.17-46.07,10.35-92.14,15.52-138.22c45.11-0.4,90.22-0.79,135.33-1.19
		c3,48.42,3.17,96.89,0.5,145.31c-50.01,1.51-100.02,3.02-150.03,4.53c-0.06-5.69-0.12-11.38-0.17-17.08"/>
</g>
<g>
	<path class="st7" d="M1237.32,216.71c-11.08,0.01-22.16,0.01-33.25,0.02c0.1,8.03,0.2,16.06,0.3,24.09
		c0.01,0.59,0.24,1.3,1.72,1.53c0.51,0.08,1.08,0.08,1.63,0.08c10.18,0.04,20.36,0.08,30.54,0.12c0.43,0,0.92-0.01,1.2-0.12
		c0.24-0.1,0.26-0.23,0.27-0.36c0.58-7.77,1.17-15.55,1.75-23.32"/>
</g>
<g>
	<path class="st7" d="M1191.38,214.19c-11.91,0.08-23.82,0.05-35.72-0.1c2.14,9.79,3.3,19.61,3.49,29.43
		c10.03-0.4,20.19-0.38,30.21,0.05c1.47-9.19,2.93-18.38,4.4-27.57"/>
</g>
<g>
	<path class="st7" d="M1242.81,258.67c-13.52-0.1-27.04-0.2-40.57-0.3c4.69,8.66,0.98,17.69,3.11,26.51
		c3.56-1.07,8.49-0.9,12.91-0.69c5.45,0.27,10.91,0.54,16.36,0.81c4.2-8.92,8.89-17.8,14.06-26.63"/>
</g>
<g>
	<path class="st7" d="M1188.31,257.58c-11.08,0.01-22.16,0.01-33.25,0.02c0.1,8.03,0.2,16.06,0.3,24.09
		c0.01,0.59,0.24,1.3,1.72,1.53c0.51,0.08,1.08,0.08,1.63,0.08c10.18,0.04,20.36,0.08,30.53,0.12c0.43,0,0.92-0.01,1.2-0.12
		c0.24-0.1,0.26-0.23,0.27-0.36c0.58-7.77,1.17-15.55,1.75-23.32"/>
</g>
<g>
	<path class="st7" d="M1237.32,299.27c-11.08,0.01-22.16,0.01-33.25,0.02c0.1,8.03,0.2,16.06,0.3,24.09
		c0.01,0.59,0.24,1.3,1.72,1.53c0.51,0.08,1.08,0.08,1.63,0.08c10.18,0.04,20.36,0.08,30.54,0.12c0.43,0,0.92-0.01,1.2-0.12
		c0.24-0.1,0.26-0.23,0.27-0.36c0.58-7.77,1.17-15.55,1.75-23.32"/>
</g>
<g>
	<path class="st7" d="M1191.38,296.75c-11.91,0.08-23.82,0.05-35.72-0.1c2.14,9.79,3.3,19.61,3.49,29.43
		c10.03-0.4,20.19-0.38,30.21,0.05c1.47-9.19,2.93-18.38,4.4-27.57"/>
</g>
<g>
	<path class="st7" d="M1237.32,345.75c-11.08,0.01-22.16,0.01-33.25,0.02c0.1,8.03,0.2,16.06,0.3,24.09
		c0.01,0.59,0.24,1.3,1.72,1.53c0.51,0.08,1.08,0.08,1.63,0.09c10.18,0.04,20.36,0.08,30.54,0.12c0.43,0,0.92-0.01,1.2-0.12
		c0.24-0.1,0.26-0.23,0.27-0.36c0.58-7.77,1.17-15.55,1.75-23.32"/>
</g>
<g>
	<path class="st7" d="M1191.38,343.23c-11.91,0.08-23.82,0.05-35.72-0.1c2.14,9.79,3.3,19.61,3.49,29.43
		c10.03-0.4,20.19-0.38,30.21,0.05c1.47-9.19,2.93-18.38,4.4-27.57"/>
</g>
<g>
	<path class="st7" d="M1241.61,387.72c-13.98-0.1-27.96-0.2-41.94-0.3c4.85,8.66,1.01,17.69,3.21,26.51
		c3.69-1.07,8.78-0.9,13.35-0.69c5.64,0.27,11.28,0.54,16.91,0.81c4.34-8.92,9.19-17.8,14.54-26.63"/>
</g>
<g>
	<path class="st7" d="M1186.42,386.74c-11.08-0.09-22.16-0.17-33.25-0.26c0.03,8.03,0.06,16.06,0.1,24.09c0,0.59,0.23,1.3,1.71,1.55
		c0.51,0.08,1.08,0.09,1.63,0.1c10.18,0.12,20.36,0.25,30.53,0.37c0.43,0.01,0.92,0,1.2-0.11c0.24-0.09,0.26-0.23,0.27-0.36
		c0.65-7.77,1.3-15.54,1.94-23.31"/>
</g>
<g class="st8">
	<path class="st9" d="M309.78,338.17c0.11,8.29,0.21,16.58,0.32,24.88c14.83-3.65,30.53-0.54,45.62-2.86
		c-0.16-7.32-0.32-14.65-0.48-21.97c-0.01-0.45-0.05-0.95-0.39-1.24c-0.27-0.22-0.65-0.24-1.01-0.24
		c-14.53-0.16-29.07-0.1-43.6,0.16"/>
</g>
<g class="st8">
	<path class="st9" d="M371.29,336.32c-0.07,8.46-0.04,16.92,0.09,25.38c0.01,0.47,0.05,1.01,0.42,1.3c0.26,0.19,0.6,0.21,0.92,0.22
		c12.35,0.37,24.72,0.11,37.05-0.79c-1.27-7.48-2.07-15.03-2.39-22.61c-0.02-0.39-0.05-0.83-0.32-1.11
		c-0.33-0.33-0.85-0.32-1.31-0.28c-12.08,0.9-24.21,1.16-36.31,0.78"/>
</g>
<g class="st8">
	<path class="st9" d="M309.09,374.23c-1.29,9.78-1.84,19.66-1.64,29.52c3.67-1.87,7.95-1.92,12.06-2.05
		c11.87-0.38,23.7-1.75,35.34-4.1c0.22-7.66,0.24-15.32,0.04-22.98c-13.08,2.91-26.44,4.55-39.84,4.89"/>
</g>
<g class="st8">
	<path class="st9" d="M365.68,379.37c0.05,7.65,0.66,15.3,1.83,22.86c0.04,0.24,0.09,0.5,0.28,0.66c0.17,0.13,0.4,0.14,0.61,0.15
		c11.61,0.26,23.23-0.06,34.81-0.99c-1.52-7.03,1.17-14.27,0.98-21.46c-0.01-0.28-0.04-0.61-0.27-0.78
		c-0.17-0.12-0.39-0.13-0.6-0.12c-11.91,0.2-23.83,0.4-35.74,0.59"/>
</g>
<g class="st8">
	<path class="st9" d="M306.18,415.46c-0.02,9.79-0.03,19.58-0.05,29.37c4.93-1.9,10.36-1.95,15.65-1.96
		c9.35-0.03,18.7-0.06,28.05-0.09c0.55,0,1.17-0.04,1.51-0.47c0.28-0.36,0.26-0.86,0.23-1.31c-0.56-7.2-1.12-14.4-1.68-21.6
		c-0.05-0.62-0.16-1.34-0.7-1.64c-0.39-0.22-0.88-0.13-1.32-0.04c-13.18,2.76-26.8,3.39-40.18,1.87"/>
</g>
<g class="st8">
	<path class="st9" d="M368.01,419.53c0,6.27-0.01,12.54-0.01,18.81c0,0.34,0.02,0.72,0.27,0.95c0.22,0.2,0.55,0.21,0.85,0.21
		c11.19,0,22.38,0,33.57,0c0.27,0,0.56-0.01,0.77-0.18c0.26-0.21,0.29-0.58,0.3-0.91c0.32-8.49,0.49-16.99,0.49-25.49
		c-5.63,1.82-11.47,3.01-17.37,3.55c-4.94,0.45-9.97,0.46-14.72,1.9"/>
</g>
<g>
	<path class="st10" d="M985.61,454.73c5.17-65.76,10.35-131.51,15.52-197.27c45.11-0.57,90.22-1.13,135.33-1.7
		c3,69.11,3.17,138.28,0.5,207.4c-50.01,2.15-100.02,4.31-150.03,6.46c-0.06-8.12-0.12-16.25-0.17-24.37"/>
</g>
<g>
	<path class="st11" d="M1011.16,433.82c35.78,0.29,75.58-0.21,113.12-1.94c0.22-48.93-0.3-100.98-3.06-150.52
		c-18.36-0.64-39.06-0.22-57.59-0.58c-17.45-0.35-34.01,0-51.53,0.57C1012.1,281.33,1009.59,381.79,1011.16,433.82z"/>
</g>
<g>
	<path class="st12" d="M1246.69,441.32c5.17-107.28,10.35-214.56,15.52-321.83c45.11-0.92,90.22-1.85,135.33-2.77
		c3,112.75,3.17,225.6,0.5,338.36c-50.01,3.51-100.02,7.03-150.03,10.54c-0.06-13.25-0.12-26.51-0.17-39.76"/>
</g>
<g>
	<path class="st13" d="M105.29,223.34c-40,0.2-80.03,0.12-120.01-0.25c7.19,23.81,11.1,47.68,11.73,71.56
		c33.71-0.97,81.85-0.93,115.52,0.12c-0.21-13,1.79-59.02,0.78-71.03"/>
</g>
<g>
	<path class="st13" d="M94.16,374.91c-31.95-0.22-73.93-0.13-105.87,0.27c3.67,25.43-0.83,49.78,2.9,75.64
		c34.14-1.64,88.81-2.1,123.25-1.39c-0.11-16.18,0.89-56.86,1.5-73.9"/>
</g>
<g>
	<path class="st14" d="M-64.02,465.15c209.74-2.25,419.47-4.49,629.21-6.74c276.28-2.96,555.96,0.92,831.05,2.92
		c-5.37,63.31-6.35,136.01,1.94,199c-43.9-4.64-87.85,5.18-131.23,13.33c-421.71,79.24-856.57,3.51-1284.79,30.72
		c-10.33-77.41-13.36-155.79-9.04-233.77"/>
</g>
<g>
	<path class="st13" d="M90.86,304.64c-33.86-0.17-67.73-0.1-101.57,0.21c3.85,19.98,7.7,39.96,11.55,59.94
		c36.17-1.3,76.9-1.67,113.39-1.1c0.1-11.76,0.1-48.19-0.29-57.77"/>
</g>
<g>
	<path class="st15" d="M1300.8,151.71c27.98-0.14,55.97-0.08,83.93,0.17c-3.18,16.29-6.37,32.59-9.55,48.88
		c-29.89-1.06-60.24-1.36-90.39-0.9c-0.1-11.13-0.35-32.03-1.1-47.14"/>
</g>
<g>
	<path class="st15" d="M1375.83,225.39c-33.23,0.15-58.48,0.09-91.7-0.19c-1.43,10.55-0.78,36.33-0.26,54.53
		c28.01-0.74,58.37-0.71,86.34,0.09c4.09-17.03,8.19-34.05,12.28-51.08"/>
</g>
<g>
	<path class="st15" d="M1370.86,305.8c-30.94,0.01-61.87,0.02-92.81,0.04c0.27,14.88,0.55,29.76,0.82,44.65
		c0.02,1.08,0.66,2.41,4.8,2.84c1.42,0.15,3.01,0.15,4.56,0.16c28.41,0.07,56.83,0.15,85.24,0.22c1.2,0,2.56-0.01,3.35-0.22
		c0.66-0.18,0.72-0.44,0.74-0.67c1.63-14.41,3.26-28.81,4.88-43.22"/>
</g>
<g>
	<path class="st15" d="M1367.83,378.38c-33.23,0.15-56.48,0.09-89.7-0.19c0.57,14.61-0.78,36.33-0.26,54.53
		c28.01-0.74,56.37-0.71,84.34,0.09c4.09-17.03,8.19-34.05,12.28-51.08"/>
</g>
<g>
	<path class="st16" d="M-42.56,534.94c148.88-0.46,297.76-0.92,446.64-1.38c87.04-0.27,174.11-0.54,261.09,4.7
		c86.67,5.22,564.4,4.88,716.3-14.11c-4.99,97.09-9.97,194.17-14.96,291.26c-53.01-33.68-110.66-39.62-167.31-43.23
		c-97.14-6.19-194.38-6.59-291.6-6.98c-128.28-0.52-256.58-1.05-384.81,4.68c-205.52,9.17-411.91,34.34-616.17-4.91
		c22.43-52.89,37.19-114.85,42.65-179.08c2.75-32.34,8.81-74.96,28.3-76.05"/>
</g>
<g>
	<path class="st17" d="M420.36,368.35c-2.27,3.78-3.55,6.08-6.55,9.57c-10.04,11.7-15.86,25.63-19.38,40.75
		c-4.57,19.64-4.55,40.03-4.13,60.19c0.1,4.83,0.21,9.75-1.09,14.41c-1.06,3.81-3.03,7.29-4.99,10.73
		c-7.91,13.95-15.32,27.89-23.23,41.84c-4.84,8.53-10.67,15.5-16.08,23.35c-4.05-2.29-10.34-4.65-14.99-4.73s-9.72,2.95-10.19,7.58
		c-0.53,5.19,4.5,9.1,9.1,11.57c5.53,2.98,11.3,5.51,17.23,7.56c6.05,2.09,8.79,1.15,14.69-1.32c5.08-2.13,11.05-9.35,14.37-13.74
		c33.87-44.78,54.02-66.12,69.11-85.89c7.69-10.08,27.48-21.16,29.33-33.71c1.69-11.52-5.34-25.72-9.51-36.59
		c-5.66-14.71-7.99-25.04-14.15-37.35c-2.83-5.66-6.15-11.91-7.36-14.71c-0.76-1.77-1.52-4.55-2.02-6.56
		C438.98,355.18,420.36,368.35,420.36,368.35z"/>
</g>
<g>
	<path class="st18" d="M466.65,468.81c-0.47,13.33-0.95,26.66-1.42,39.98c-0.16,4.6-0.3,9.37,1.46,13.62
		c2.03,4.91,5.93,10.39,9.85,13.97c6.41,5.85,18.39,12.35,24.44,16.27c5.94,3.86,11.33,8.13,10.98,15.2
		c-0.48,9.95-18.71,22.29-26.56,28.43c-2.48,1.94-5.5,4.01-8.53,3.13c-2.72-0.8-4.25-3.76-4.56-6.58
		c-0.31-2.81,18.46-14.86,16.39-16.79c-6.63-6.16-18.6-10.4-26.88-16.48s-23.23-11.24-28.83-19.85c-6.6-10.16-6.6-23.09-6.38-35.2
		c0.05-2.82,0.15-5.82,1.72-8.17c1.31-1.96,3.45-3.17,5.49-4.34c10.5-5.99,20.92-13.01,27.29-23.28"/>
</g>
<g>
	<path class="st19" d="M391.84,449.97c27.75-0.23,55.49-1.28,83.17-3.13c1.81,8.34,0.34,17.35-4.03,24.68
		c-1.16,1.95-2.53,3.81-3.22,5.97c-0.65,2.03-0.65,4.2-0.64,6.33c0.02,8.23,0.04,16.46,0.06,24.69c0.01,4.12,0.03,8.32,1.27,12.25
		c2.47,7.86,9.3,13.41,15.79,18.49c-6.38,9.05-13.21,17.78-20.48,26.13c-17.25-5.89-33.22-21.19-37.17-38.98
		c-10.91,13.94-20.69,24.48-31.6,38.42c-0.48,0.62-2.18,2.42-2.95,2.54c-0.69,0.11-1.36-0.24-1.97-0.57
		c-11.97-6.58-21.68-10.89-33.65-17.47c7.31-14.84,14.61-29.67,21.92-44.51c3.08-6.25,6.18-12.57,7.7-19.37
		c1.27-5.68,1.39-11.54,1.52-17.35c0.12-5.96,0.25-11.91,0.37-17.87"/>
</g>
<g>
	<path class="st19" d="M417.99,375.9c4.63,0.3,9.32,0.59,13.88-0.25c4.56-0.85,9.06-2.97,11.85-6.67
		c14.09,22.66,29.88,47.48,36.16,73.03c-28.4-0.28-63.6-0.35-92-0.13c3.15-19.11,4.85-41.19,24.65-66.09"/>
</g>
<g>
	<path class="st20" d="M404.78,307.17c9.55-6.82,21.25-9.9,31.9-6.23s15.2,12.44,16.42,25.84c1.35,14.77-3.65,28.86-14.11,36.53
		c-10.83,7.95-31.34,14.19-37.04,4.03c-4.07-7.26-5.13-20.58-5.29-32.75c-0.07-5.15-2.42-8.99-2.02-13.6
		c1.01-11.59,7.03-12.61,12.52-15.1"/>
</g>
<g>
	<path class="st21" d="M453.81,452.05c4.97-8.32,14.7-13.3,24.48-13.69c0.64-0.03,1.34-0.05,1.82-0.47c0.47-0.41,0.6-1.07,0.64-1.69
		c0.15-2.17-0.42-4.39-1.61-6.23c-6.46,0.92-12.37,3.97-18.14,6.97c4.8-6.63,10.66-12.51,17.28-17.36c-1.47-0.6-2.94-1.19-4.41-1.79
		c-0.46-0.19-0.94-0.37-1.43-0.31c-0.66,0.09-1.15,0.61-1.59,1.09c-3.22,3.56-6.44,7.13-9.66,10.69c0.52-4.03,1.76-7.96,3.65-11.56
		c-2.05-0.32-4.11-0.64-6.16-0.96c-4.69,14.22-16.11,25.84-18.97,40.53c6.4,1.57,12.23,3.62,13.02-2.83"/>
</g>
<g>
	<path class="st22" d="M444,453.13c-0.09-2.27,0.28-4.6-0.29-6.8c-0.97-3.72-4.47-6.33-8.16-7.41c-2.37-0.7-4.93-0.88-7.3-0.21
		s-4.53,2.27-5.6,4.5c-0.89,1.87-0.97,4.01-0.92,6.08c0.02,0.96,0.1,1.99,0.7,2.73c0.74,0.91,2.03,1.1,3.19,1.23
		c5.27,0.55,10.57,0.84,15.88,0.9"/>
</g>
<g>
	<path class="st23" d="M453.85,394.32c-4.43-11.99-14.35-15.8-25.1-12.43c-10.76,3.36-18.31,13.52-21.48,24.33
		s-2.66,22.33-1.91,33.57c-2.14,0.34-4.27,0.69-6.41,1.03c-4.13,24.82-3.05,50.5,3.16,74.88c17.23-3.77,39.79-6.46,57.35-8.03
		c-0.44-20.53-0.89-41.06-1.33-61.59c-10.13,0.08-25.35-1.05-35.22-3.35c-4.2-6.86-6.49-14.86-6.55-22.9
		c-0.06-7.76,2.37-16.16,8.75-20.6c6.37-4.43,17.18-2.53,19.43,4.9c2.52,8.31,1.96,16.8,1.43,30.11c-0.34,8.6-0.13,16.56,1.09,17.24
		c2.4,1.35,6.47,0.08,7.92-2.26c1.45-2.35,1.7-14.79,1.7-17.54C456.68,426.8,458.28,406.32,453.85,394.32z"/>
</g>
<g>
	<g>
		<g>
			<path class="st24" d="M403.43,479.68c-0.05-2.8-0.1-5.6-0.16-8.4c-0.01-0.64,0.1-1.42-0.04-2.04c-0.07-0.31,0.07-0.13-0.15-0.1
				c0.19-0.02,0.38-0.02,0.56-0.03c0.34-0.02,0.68-0.03,1.02-0.05c1.43-0.07,2.86-0.15,4.29-0.22c0.8-0.04,0.81-1.29,0-1.25
				c-1.58,0.08-3.16,0.16-4.74,0.24c-0.58,0.03-1.51-0.1-1.96,0.37c-0.43,0.45-0.26,1.28-0.25,1.84c0.06,3.22,0.12,6.43,0.18,9.65
				C402.2,480.49,403.45,480.49,403.43,479.68L403.43,479.68z"/>
		</g>
	</g>
	<g>
		<g>
			<path class="st24" d="M403.32,473.44c0.13-0.02,0.26-0.04,0.39-0.06c0.04-0.01,0.08-0.01,0.12-0.02c-0.08,0.01-0.07,0.01,0,0
				c0.08-0.01,0.15-0.02,0.23-0.03c0.36-0.04,0.72-0.09,1.08-0.13c0.68-0.08,1.37-0.15,2.04-0.27c0.32-0.06,0.53-0.47,0.44-0.77
				c-0.11-0.35-0.42-0.5-0.77-0.44c-0.13,0.02-0.26,0.04-0.39,0.06c-0.04,0.01-0.08,0.01-0.12,0.02c0.08-0.01,0.07-0.01,0,0
				c-0.08,0.01-0.15,0.02-0.23,0.03c-0.36,0.04-0.72,0.09-1.08,0.13c-0.68,0.08-1.37,0.15-2.04,0.27c-0.32,0.06-0.53,0.47-0.44,0.77
				C402.66,473.35,402.97,473.5,403.32,473.44L403.32,473.44z"/>
		</g>
	</g>
	<g>
		<g>
			<path class="st24" d="M409.34,480.31c0.34-1.78,0.73-3.55,1.19-5.31c0.35-1.35,0.58-3.14,1.75-4.05
				c-0.35-0.09-0.7-0.18-1.04-0.28c0.75,3.11,1.49,6.21,2.24,9.32c0.19,0.78,1.39,0.45,1.21-0.33c-0.75-3.11-1.49-6.21-2.24-9.32
				c-0.12-0.5-0.7-0.55-1.04-0.28c-1.27,0.98-1.59,2.77-1.98,4.24c-0.49,1.88-0.92,3.77-1.28,5.67
				C407.99,480.77,409.19,481.1,409.34,480.31L409.34,480.31z"/>
		</g>
	</g>
	<g>
		<g>
			<path class="st24" d="M408.96,479.19c1.81,0.11,3.63,0,5.41-0.32c0.33-0.06,0.52-0.46,0.44-0.77c-0.1-0.35-0.44-0.5-0.77-0.44
				c-1.68,0.3-3.38,0.38-5.08,0.28c-0.34-0.02-0.62,0.3-0.62,0.62C408.34,478.92,408.62,479.16,408.96,479.19L408.96,479.19z"/>
		</g>
	</g>
	<g>
		<g>
			<path class="st24" d="M419.57,477.28c-0.66-1.46-1.27-2.94-1.82-4.44c-0.28-0.75-0.54-1.5-0.79-2.26c-0.07-0.22-0.35-0.75-0.29-1
				c-0.08,0.03-0.07,0.03,0.02,0c0.07-0.02,0.13-0.03,0.2-0.05c0.19-0.05,0.39-0.09,0.58-0.14c0.89-0.21,2.9-0.95,2.83,0.64
				c-0.06,1.27-1.53,1.83-2.52,2.25c-0.54,0.23-0.3,0.99,0.15,1.14c1.52,0.53,2.99,1.2,4.39,1.99c0.7,0.4,1.33-0.68,0.63-1.08
				c-1.5-0.84-3.07-1.55-4.69-2.12c0.05,0.38,0.1,0.76,0.15,1.14c1.21-0.51,2.53-1.17,2.99-2.5c0.37-1.09,0.03-2.45-1.1-2.92
				c-0.7-0.29-1.45-0.15-2.17,0.01c-0.39,0.09-0.78,0.18-1.17,0.27c-0.35,0.08-0.73,0.13-1.04,0.33c-0.66,0.43-0.55,1.22-0.34,1.86
				c0.24,0.76,0.5,1.52,0.77,2.27c0.64,1.77,1.35,3.51,2.12,5.23C418.83,478.64,419.9,478,419.57,477.28L419.57,477.28z"/>
		</g>
	</g>
	<g>
		<g>
			<path class="st24" d="M425.77,478.41c0.06-2.55,0.4-5.06,1.03-7.53c-0.38,0.05-0.76,0.1-1.14,0.15c0.66,1.21,1.37,2.39,2.12,3.54
				c0.2,0.3,0.72,0.46,0.98,0.13c0.74-0.95,1.47-1.89,2.21-2.84c-0.36-0.15-0.71-0.29-1.07-0.44c-0.22,2.97-0.44,5.93-0.66,8.9
				c-0.06,0.8,1.19,0.8,1.25,0c0.22-2.97,0.44-5.93,0.66-8.9c0.04-0.51-0.74-0.87-1.07-0.44c-0.74,0.95-1.47,1.89-2.21,2.84
				c0.33,0.04,0.65,0.08,0.98,0.13c-0.75-1.15-1.45-2.33-2.12-3.54c-0.26-0.47-1.01-0.37-1.14,0.15c-0.65,2.57-1.01,5.21-1.07,7.87
				C424.5,479.22,425.75,479.21,425.77,478.41L425.77,478.41z"/>
		</g>
	</g>
	<g>
		<g>
			<path class="st24" d="M437.41,470.8c-0.75,0-1.5-0.01-2.26-0.01c-0.62,0-1.39-0.04-1.63,0.68c-0.19,0.57-0.1,1.34-0.12,1.94
				c-0.02,0.76-0.04,1.51-0.07,2.27c-0.02,0.73-0.04,1.46-0.06,2.19c-0.02,0.58-0.19,1.41,0.12,1.94c0.39,0.66,1.16,0.44,1.69,0.12
				c0.62-0.38,1.23-0.76,1.84-1.14c0.68-0.42,0.06-1.5-0.63-1.08c-0.44,0.27-0.88,0.54-1.32,0.82c-0.13,0.08-0.26,0.16-0.39,0.24
				c-0.08,0.05-0.28,0.12-0.31,0.19c-0.1,0.04-0.07,0.08,0.08,0.13c0.12,0.14,0.16,0.14,0.13-0.01c0.05-0.08,0.01-0.31,0.01-0.41
				c0.03-1.11,0.07-2.22,0.1-3.33c0.03-1.08,0.07-2.16,0.1-3.25c0.01-0.06,0.01-0.12,0-0.18c0-0.08-0.05-0.05-0.14,0.11
				c0.01,0.01,0.25,0,0.27,0c0.3,0,0.59,0,0.89,0.01c0.56,0,1.13,0.01,1.69,0.01C438.22,472.05,438.22,470.8,437.41,470.8
				L437.41,470.8z"/>
		</g>
	</g>
	<g>
		<g>
			<path class="st24" d="M434.22,475.87c0.95-0.16,1.91-0.31,2.86-0.47c0.32-0.05,0.53-0.47,0.44-0.77
				c-0.11-0.35-0.42-0.49-0.77-0.44c-0.95,0.16-1.91,0.31-2.86,0.47c-0.32,0.05-0.53,0.47-0.44,0.77
				C433.56,475.78,433.87,475.92,434.22,475.87L434.22,475.87z"/>
		</g>
	</g>
	<g>
		<g>
			<path class="st24" d="M440.93,478.09c-0.13-2.64-0.06-5.28,0.21-7.91c-0.21,0.21-0.42,0.42-0.62,0.62
				c0.36-0.01,0.73-0.03,1.09-0.04c0.32-0.01,0.69-0.07,1.02-0.02c0.39,0.06,0.54,0.37,0.56,0.73c0.04,1.02-1.16,1.49-1.95,1.75
				c-0.46,0.15-0.6,0.69-0.28,1.04c1.02,1.14,2.05,2.28,3.07,3.42c0.54,0.6,1.42-0.29,0.88-0.88c-1.02-1.14-2.05-2.28-3.07-3.42
				c-0.09,0.35-0.18,0.7-0.28,1.04c1.39-0.46,2.97-1.36,2.86-3.05c-0.04-0.69-0.37-1.36-1-1.68c-0.42-0.21-0.89-0.22-1.35-0.21
				c-0.52,0.02-1.04,0.04-1.55,0.06c-0.36,0.01-0.59,0.28-0.62,0.62c-0.27,2.63-0.34,5.27-0.21,7.91
				C439.72,478.89,440.97,478.9,440.93,478.09L440.93,478.09z"/>
		</g>
	</g>
	<g>
		<g>
			<path class="st24" d="M448.54,470.01c0.03,0.1,0.06,0.2,0.07,0.3c-0.01-0.06-0.01-0.11-0.02-0.17c0.02,0.15,0.02,0.3,0,0.45
				c0.01-0.06,0.01-0.11,0.02-0.17c-0.02,0.17-0.07,0.33-0.14,0.49c0.02-0.05,0.04-0.1,0.06-0.15c-0.03,0.08-0.07,0.15-0.12,0.23
				c-0.02,0.04-0.05,0.07-0.07,0.11c-0.01,0.02-0.06,0.08,0.01-0.01c0.07-0.09,0.01-0.01,0,0c-0.05,0.06-0.11,0.12-0.17,0.17
				c-0.01,0.01-0.04,0.04-0.05,0.05c0,0,0.13-0.09,0.06-0.05c-0.04,0.03-0.08,0.05-0.12,0.08c-0.28,0.17-0.41,0.57-0.22,0.86
				c0.18,0.28,0.56,0.41,0.86,0.22c0.91-0.55,1.38-1.74,1.04-2.77c-0.1-0.31-0.44-0.54-0.77-0.44
				C448.66,469.34,448.43,469.67,448.54,470.01L448.54,470.01z"/>
		</g>
	</g>
	<g>
		<g>
			<path class="st24" d="M455.22,471.32c-0.98-0.17-2.05-0.07-2.9,0.5c-0.82,0.56-1.34,1.49-1.28,2.5c0.03,0.46,0.16,0.92,0.43,1.29
				c0.31,0.43,0.75,0.69,1.22,0.93c0.35,0.18,0.7,0.36,0.83,0.75c0.1,0.3,0.07,0.66-0.1,0.93c-0.41,0.66-1.41,0.47-1.75-0.16
				c-0.38-0.71-1.46-0.08-1.08,0.63c0.47,0.87,1.49,1.3,2.44,1.15c1-0.16,1.67-1,1.77-1.98c0.11-1.09-0.51-1.91-1.44-2.39
				c-0.39-0.2-0.83-0.38-1-0.82c-0.13-0.33-0.1-0.73,0.02-1.06c0.36-0.96,1.58-1.24,2.5-1.09c0.33,0.06,0.67-0.09,0.77-0.44
				C455.74,471.79,455.55,471.38,455.22,471.32L455.22,471.32z"/>
		</g>
	</g>
	<g>
		<g>
			<path class="st24" d="M406.89,497.49c-0.07-2.47,0.39-4.93,1.39-7.2c-0.38-0.05-0.76-0.1-1.14-0.15
				c0.58,1.67,1.42,3.19,2.51,4.58c0.26,0.34,0.79,0.17,0.98-0.13c0.78-1.19,1.56-2.37,2.34-3.56c-0.39-0.11-0.78-0.21-1.16-0.32
				c-0.05,3.53-0.13,7.06-0.23,10.58c-0.02,0.8,1.23,0.8,1.25,0c0.1-3.53,0.18-7.05,0.23-10.58c0.01-0.65-0.84-0.82-1.16-0.32
				c-0.78,1.19-1.56,2.37-2.34,3.56c0.33-0.04,0.65-0.08,0.98-0.13c-0.95-1.21-1.68-2.58-2.19-4.03c-0.16-0.45-0.91-0.68-1.14-0.15
				c-1.09,2.47-1.63,5.13-1.56,7.83C405.67,498.29,406.92,498.29,406.89,497.49L406.89,497.49z"/>
		</g>
	</g>
	<g>
		<g>
			<path class="st24" d="M415.67,498.88c1.09-2.1,2.37-4.09,3.85-5.94c-0.36-0.15-0.71-0.29-1.07-0.44c0.07,2.72,0.13,5.44,0.2,8.16
				c0.02,0.8,1.27,0.81,1.25,0c-0.07-2.72-0.13-5.44-0.2-8.16c-0.01-0.49-0.71-0.89-1.07-0.44c-1.55,1.93-2.91,3.99-4.05,6.19
				C414.22,498.97,415.3,499.6,415.67,498.88L415.67,498.88z"/>
		</g>
	</g>
	<g>
		<g>
			<path class="st24" d="M416.01,497.61c0.15,0.01,0.29,0.01,0.43,0.03c0.03,0,0.07,0.01,0.1,0.01c0.08,0.01,0.03,0-0.02,0
				c0.06,0,0.13,0.02,0.19,0.03c0.25,0.05,0.5,0.11,0.75,0.19c0.12,0.04,0.23,0.08,0.35,0.13c0.01,0.01,0.11,0.05,0.03,0.01
				c-0.08-0.03,0.02,0.01,0.03,0.02c0.06,0.03,0.12,0.05,0.18,0.08c0.26,0.12,0.52,0.26,0.78,0.39c0.29,0.15,0.69,0.08,0.86-0.22
				c0.15-0.29,0.08-0.69-0.22-0.86c-0.54-0.28-1.09-0.56-1.67-0.75c-0.58-0.19-1.19-0.28-1.8-0.3c-0.33-0.01-0.64,0.3-0.62,0.62
				C415.4,497.33,415.66,497.6,416.01,497.61L416.01,497.61z"/>
		</g>
	</g>
	<g>
		<g>
			<path class="st24" d="M423.76,499.71c0-1.42,0-2.84,0-4.25c0-0.68,0-1.36,0-2.04c0-0.34,0-0.68,0-1.02c0-0.11,0-0.23,0-0.34
				c-0.03,0.04-0.07,0.07-0.1,0.11c0.11-0.1,0.4-0.13,0.54-0.18c0.54-0.16,1.15-0.31,1.7-0.08c0.39,0.17,0.63,0.51,0.54,0.94
				c-0.23,1.11-1.68,1.32-2.59,1.48c-0.66,0.12-0.52,1.01,0,1.21c1.45,0.53,2.81,1.26,4.07,2.16c0.66,0.47,1.28-0.62,0.63-1.08
				c-1.35-0.96-2.81-1.71-4.37-2.28c0,0.4,0,0.8,0,1.21c1.17-0.21,2.39-0.52,3.1-1.56c0.66-0.97,0.53-2.26-0.44-2.96
				c-1.06-0.76-2.44-0.46-3.57-0.03c-0.72,0.27-0.76,0.82-0.76,1.5c0,0.74,0,1.47,0,2.21c0,1.67,0,3.35,0,5.02
				C422.51,500.52,423.76,500.52,423.76,499.71L423.76,499.71z"/>
		</g>
	</g>
	<g>
		<g>
			<path class="st24" d="M430.5,491.29c-0.04,2.73,0.25,5.44,0.87,8.1c0.18,0.78,1.39,0.45,1.21-0.33c-0.6-2.56-0.87-5.15-0.83-7.77
				C431.76,490.48,430.51,490.48,430.5,491.29L430.5,491.29z"/>
		</g>
	</g>
	<g>
		<g>
			<path class="st24" d="M434.84,490.75c-0.64,0.71-1.28,1.42-1.92,2.13c-0.31,0.35-0.63,0.69-0.94,1.04
				c-0.3,0.33-0.7,0.67-0.91,1.06c-0.27,0.52,0.1,0.92,0.52,1.18c0.39,0.25,0.79,0.49,1.18,0.74c0.82,0.52,1.65,1.03,2.47,1.55
				c0.68,0.43,1.31-0.65,0.63-1.08c-0.66-0.41-1.31-0.82-1.97-1.23c-0.64-0.4-1.32-0.78-1.94-1.22c0.07,0.07,0.15,0.15,0.22,0.22
				c-0.02-0.03-0.03-0.05-0.05-0.08c0.03,0.11,0.06,0.21,0.09,0.32c0-0.03,0-0.05,0-0.08c-0.03,0.11-0.06,0.21-0.09,0.32
				c0.17-0.32,0.55-0.63,0.8-0.91c0.31-0.35,0.63-0.69,0.94-1.04c0.61-0.68,1.22-1.35,1.83-2.03
				C436.26,491.04,435.38,490.15,434.84,490.75L434.84,490.75z"/>
		</g>
	</g>
	<g>
		<g>
			<path class="st24" d="M442.68,489.89c-1.15-0.1-2.31-0.05-3.45,0.13c-0.45,0.07-0.89,0.21-1.12,0.63
				c-0.24,0.44-0.18,1.03-0.19,1.51c-0.05,2.31,0.08,4.63,0.36,6.92c0.06,0.47,0.48,0.77,0.94,0.54c1-0.52,2.01-1.03,3.01-1.55
				c0.72-0.37,0.08-1.45-0.63-1.08c-1,0.52-2.01,1.03-3.01,1.55c0.31,0.18,0.63,0.36,0.94,0.54c-0.24-1.96-0.37-3.94-0.37-5.92
				c0-0.47,0.01-0.95,0.02-1.42c0-0.13,0.03-0.27,0.01-0.39c0-0.05,0.05-0.14,0-0.09c-0.06,0.06,0.12,0,0.15-0.01
				c0.13-0.03,0.26-0.04,0.38-0.06c0.98-0.13,1.97-0.14,2.96-0.06C443.48,491.21,443.48,489.96,442.68,489.89L442.68,489.89z"/>
		</g>
	</g>
	<g>
		<g>
			<path class="st24" d="M438.31,495.08c0.56-0.06,1.11-0.13,1.66-0.23c0.53-0.09,1.1-0.2,1.58-0.46c0.29-0.16,0.4-0.58,0.22-0.86
				c-0.19-0.29-0.55-0.39-0.86-0.22c-0.03,0.02-0.17,0.08-0.06,0.04c0.11-0.05-0.05,0.02-0.09,0.03c-0.11,0.04-0.21,0.07-0.32,0.1
				c-0.27,0.07-0.54,0.13-0.81,0.17c-0.14,0.02-0.28,0.05-0.41,0.07c-0.06,0.01-0.13,0.02-0.19,0.03c-0.04,0.01-0.08,0.01-0.11,0.02
				c0.05-0.01,0.14-0.02,0.04-0.01c-0.22,0.03-0.43,0.05-0.65,0.08c-0.32,0.03-0.64,0.26-0.62,0.62
				C437.7,494.77,437.96,495.12,438.31,495.08L438.31,495.08z"/>
		</g>
	</g>
	<g>
		<g>
			<path class="st24" d="M447.93,489.38c0.08,2.17-0.02,4.35-0.32,6.51c-0.05,0.33,0.08,0.67,0.44,0.77
				c0.29,0.08,0.72-0.1,0.77-0.44c0.32-2.27,0.45-4.55,0.37-6.84C449.16,488.58,447.91,488.57,447.93,489.38L447.93,489.38z"/>
		</g>
	</g>
	<g>
		<g>
			<path class="st24" d="M446.02,489.33c1.7,0.07,3.39,0.25,5.07,0.55c0.33,0.06,0.67-0.09,0.77-0.44c0.08-0.3-0.1-0.71-0.44-0.77
				c-1.78-0.33-3.59-0.53-5.4-0.6c-0.34-0.01-0.62,0.3-0.62,0.62C445.4,489.05,445.68,489.32,446.02,489.33L446.02,489.33z"/>
		</g>
	</g>
</g>
<g>
	<path class="st25" d="M398.64,366.36l-19.37-4.23c0,0-9.36,42.92-10.08,46.18s2.83,4.18,8.94,5.51c6.11,1.33,9.74,1.84,10.48-1.55
		S398.64,366.36,398.64,366.36z"/>
	<path class="st26" d="M395.52,365.69l-5.25-1.15l-10.71,49.6c2.09,0.43,3.84,0.72,5.24,0.71L395.52,365.69z"/>
	
		<rect x="394.82" y="354.17" transform="matrix(-0.8629 -0.5053 0.5053 -0.8629 557.4574 870.5346)" class="st27" width="3.94" height="10.99"/>
	
		<ellipse transform="matrix(0.5053 -0.8629 0.8629 0.5053 -108.6129 520.3795)" class="st28" cx="399.57" cy="354.92" rx="0.54" ry="1.97"/>
	<polygon class="st29" points="392.31,363.41 393.96,364.37 399.57,354.92 397.87,353.93 	"/>
	<path class="st30" d="M397.87,353.93c-0.15,0.26,0.49,0.92,1.43,1.47l0.55-0.94C398.9,353.9,398.02,353.67,397.87,353.93z"/>
	<path class="st31" d="M375.47,348.61c1.89-1.65,4.32-0.07,5.86,1.38c1.29,1.22,3.94,4.28,6.88,6.89
		c2.94,2.61,11.13,6.28,11.13,6.28l-1.15,5.28c0,0-3.75,0.3-9.95-1.06c-6.21-1.35-9.25-3.9-9.25-3.9s0.55-2.52,1.01-4.64
		c0.45-2.04-0.61-3.83-2.19-5.24C375.29,351.37,374.25,349.67,375.47,348.61z M382.48,354.63c0,0-3.51-5.43-4.76-4.63
		C376.46,350.8,382.48,354.63,382.48,354.63z"/>
	<path class="st32" d="M388.33,365.76c-4.81-1.11-8.99-3.93-8.99-3.93c-0.29,1.35-0.58,2.66-0.58,2.66s3.04,2.55,9.25,3.9
		c6.21,1.35,9.95,1.06,9.95,1.06l0.59-2.7C398.55,366.74,394.29,367.13,388.33,365.76z"/>
</g>
<g>
	<path class="st33" d="M449.5,394.54c1.91,5.49,1.09,13.12-1,19.67c-4.29,13.41-11.05,18.73-22.94,28.36
		c-7.11,5.75-18.32,3.78-24.34-7.92c-6.5-12.62-13.78-31.92-15.85-34.52c-3.5-4.42-9.78-9.46-12.45-13.02c-1.7-2.26-1.7-3.96,0-4.53
		c-0.89-0.86-1.13-2.26,0.57-3.4c-1.7-1.7-0.58-3.82,0.57-3.96c-0.57-1.7,0.53-3.08,1.7-3.4c4.5-1.23,10.19,9.34,18.68,5.09
		c1.13-0.57,2.26-2.83,2.83-4.53c1.13,1.13,1.7,3.96,1.7,5.09c0,2.53-2.26,4.53,0.57,9.62c3.52,6.34,8.76,12.64,12.45,18.68
		c10.19-15.28,18.71-19.79,24-20.29C442.79,384.83,447.31,388.25,449.5,394.54z"/>
</g>
<g>
	<path class="st33" d="M402.18,330.26c2.47-1.12,5.46-1.29,8.1-0.96c2.63,0.33,4.98,1.14,7.62,1.39c-1.51,0.71-2.81,1.9-4.19,2.93
		c-1.37,1.03-2.57,1.69-4.19,1.73c-1.71,0.04-3.77-0.04-5.16-1.53C402.97,332.32,402.18,330.26,402.18,330.26z"/>
</g>
<g>
	<path class="st34" d="M414.32,302.01c-5.3-2.94-12.02-1.51-16.24,2.58s-6.89,11.38-6.19,17.22c17.1-2.32,29.98-3.26,47.06-0.81
		c0.92,11.05,7.35,22.15,5.36,35.26c7.59-1.24,15.81-2.27,23.5-2.07c-1.45-2.37-2.28-7.11-2.65-8.98c-0.57-2.83-0.53-6.21-0.41-8.38
		c0.54-9.8,0.92-15.38-2.45-24.6c-3.37-9.2-11.38-15.71-20.79-18.46C432.11,291.03,420.61,294.28,414.32,302.01z"/>
</g>
<g>
	<path class="st35" d="M348.17,564.05c1.57,6.42,5.05,12.13,10.95,15.11c5.9,2.98,13.11,3.24,19.21,0.68
		c-1.52,5.78-4.13,11.27-7.66,16.08c-0.67,0.91-1.4,1.82-2.37,2.41c-1.05,0.63-2.3,0.83-3.52,0.95
		c-13.86,1.4-33.42-7.94-45.17-15.42c-6.27-3.99-11.48-9.86-12.02-17.27c-0.16-2.25,1.41-6.39,3.39-7.49
		c1.05-0.58,3.28-1.21,4.48-1.26c6.43-0.28,15.17,2.14,21.83,4.04C343.48,563.65,348.17,564.05,348.17,564.05z"/>
</g>
<g>
	<path class="st35" d="M481.42,575.48c12.37-2.87,14.69-12.3,18.3-24.48c7.31,2.27,11.88,4.81,15.55,7.7
		c1.75,1.37,2.56,2.94,3.08,5.11c0.49,2.05-0.32,4.17-1.26,6.05c-2.64,5.27-6.94,9.84-10.71,14.37c-4.19,5.03-2,13.23-7.84,16.17
		c-3.63,1.83-7.65,2.7-11.63,3.47c-7.33,1.41-15.22,2.46-21.99-0.68c-1.06-0.49-2.1-1.1-2.81-2.03c-1.77-2.31-0.84-5.82,1.14-7.96
		c1.98-2.14,4.73-3.35,7.22-4.86c4.04-2.45,7.51-5.83,10.06-9.8L481.42,575.48z"/>
</g>
<g>
	<path class="st33" d="M397.3,333.9c-0.88,1.89-1.78,3.79-2.89,5.73c-1.01,1.76-1.99,3.16-2.99,4.16c-1,1-0.89,2.02-0.03,2.39
		c1.76,0.76,5.54,0.5,7.95-0.28c0-3.38-0.77-6.7-1.53-10L397.3,333.9z"/>
</g>
<g>
	<path class="st36" d="M515.03,565.42c-1.7,5.4-4.7,10.3-7.51,15.22c1.48-0.95,4.57,0.27,5.89-0.89c0.6-0.53,0.95-1.26,1.28-1.98
		c0.65-1.4,1.3-2.79,1.95-4.19c1.39-2.99,2.79-6.01,3.41-9.24c0.07-0.37,0.13-0.75,0.04-1.12c-0.09-0.39-0.35-0.72-0.63-1.02
		c-0.58-0.61-2.29-2.11-3.06-2.45C516.39,559.76,515.84,562.85,515.03,565.42z"/>
</g>
<g>
	<path class="st37" d="M412.04,331.82c-0.25,1.76-1.78,2.75-3.07,2.9c-1.58,0.19-3.01-1.45-2.83-3.02s1.74-2.78,3.32-2.84
		C411.03,328.8,412.29,330.07,412.04,331.82z"/>
</g>
<g>
	<path class="st36" d="M305.72,568.89c-0.14,0.42-0.29,1.38-0.28,1.81c0.01,0.54,0.27,1.04,0.54,1.51c1.61,2.87,4.02,6.09,6.17,8.58
		c4,4.63,7.82,7.45,12.62,11.25c1.96-0.95,3.8-2.17,5.45-3.6c-9.13-5.94-20.72-17.02-22.49-23.82
		C306.73,566.12,306.23,567.38,305.72,568.89z"/>
</g>
<g>
	<path class="st20" d="M439.13,331.69c0.96-0.73,2.27-1.01,3.02-1.01c1.24,0,2.37,0.12,3.5,0.64c1.36,0.62,2.38,1.93,2.66,3.39
		s-0.24,3.52-1.23,4.64c-2.16,2.42-3.91,2.92-5.94,3.17"/>
	<g>
		<path class="st38" d="M439.76,332.77c2.42-1.75,7.35-0.78,7.38,2.75c0.02,1.81-0.92,3.15-2.28,4.26c-1.1,0.89-2.45,1.34-3.72,1.5
			c-0.67,0.09-1.25,0.51-1.25,1.25c0,0.61,0.58,1.34,1.25,1.25c1.55-0.2,3.04-0.55,4.38-1.41c1.58-1.02,2.96-2.41,3.64-4.19
			c0.65-1.72,0.65-3.66-0.19-5.31c-0.85-1.68-2.5-2.79-4.32-3.19c-2.07-0.45-4.39-0.34-6.16,0.94c-0.55,0.39-0.81,1.09-0.45,1.71
			C438.36,332.86,439.21,333.17,439.76,332.77L439.76,332.77z"/>
	</g>
</g>
<g>
	<g>
		<path class="st39" d="M1051.27,525.86c-3.24,9.29-6.87,18.47-11.34,27.24c-2.43,4.77-5.1,9.41-7.77,14.05
			c-1.97,3.43-3.94,6.86-5.91,10.28c-1.94,3.37-3.91,6.79-6.63,9.57c-1.17-3.34-4.35-1.87-3-5.14c1.35-3.27,6.22-13.95,8-17.01
			c8.13-13.92,12.11-28.16,22.15-40.77c0.79-0.99,1.95-2.05,3.15-1.65c1.06,0.35,1.46,1.67,1.42,2.79
			c-0.04,1.12-0.35,2.27-0.03,3.35"/>
	</g>
	<g>
		<path class="st40" d="M1061.73,461.62c10.19-1.37,20.5-1.85,30.77-1.42c1.13,0.05,2.31,0.12,3.27,0.71
			c1.91,1.17,2.19,3.79,2.26,6.03c0.11,3.62,0.22,7.24,0.33,10.87c0.12,3.82,0.23,7.68-0.56,11.41c-0.79,3.74-2.57,7.4-5.61,9.71
			c-3.15,2.4-7.24,3.09-11.15,3.71c-5.45,0.86-11.5,1.6-16.06-1.51c-5.75-3.93-6.43-11.99-6.55-18.94"/>
	</g>
	<g>
		<path class="st41" d="M1061.35,468.6c5.28,3.83,12.26,4.56,18.84,4.42c2.29-0.05,4.59-0.19,6.82-0.7c3.44-0.8,6.64-2.52,9.18-4.92
			c1.04-0.98,2.03-2.25,1.88-3.66c-0.22-2.08-2.65-3.1-4.7-3.71c-7.01-2.07-14.54-4.15-21.54-2.04c-2.91,0.87-5.55,2.42-8.15,3.96
			c-2.29,1.35-4.93,3.47-4.24,6c0.12,0.45,0.41,0.92,0.88,1.02"/>
	</g>
	<g>
		<path class="st42" d="M998.06,409.75c-1.93,4.75-2.64,10-2.04,15.09c-5.76-1.9-11.1-5.06-15.53-9.21
			c-0.41-0.38-0.83-0.81-0.97-1.35c-0.1-0.38-2.56-1.82-2.35-2.15c2.19-3.5,4.66-11.11,5.86-18.08c4.53,4.68,10.24,9.26,14.98,13.72
			c0.37,0.34,0.89,0.71,1.33,0.46"/>
	</g>
	<g>
		<g>
			<path class="st43" d="M913.93,606.32c4.43-0.89,8.45-3.06,12.12-5.63c4.04-2.83,7.85-6,11.7-9.07
				c8.15-6.49,16.22-13.08,24.22-19.75c4.56-3.81,9.1-7.64,13.61-11.51c1.22-1.05-0.55-2.81-1.77-1.77
				c-7.79,6.67-15.65,13.26-23.59,19.76c-7.76,6.35-15.5,12.8-23.53,18.8c-4.06,3.03-8.41,5.76-13.44,6.76
				C911.69,604.23,912.36,606.64,913.93,606.32L913.93,606.32z"/>
		</g>
	</g>
	<g>
		<g>
			<path class="st43" d="M945.95,617.76c0.89-18.2,1.79-36.4,2.68-54.6c0.25-5.13,0.5-10.26,0.76-15.39c0.08-1.61-2.42-1.6-2.5,0
				c-0.89,18.2-1.79,36.4-2.68,54.6c-0.25,5.13-0.5,10.26-0.76,15.39C943.37,619.36,945.87,619.36,945.95,617.76L945.95,617.76z"/>
		</g>
	</g>
	<g>
		<g>
			<path class="st43" d="M982.74,579.44c-18.21,0.18-36.42-0.51-54.56-2.09c-5.17-0.45-10.34-0.97-15.49-1.56
				c-1.6-0.18-1.58,2.32,0,2.5c18.09,2.07,36.28,3.28,54.48,3.59c5.19,0.09,10.38,0.11,15.57,0.06
				C984.35,581.92,984.35,579.42,982.74,579.44L982.74,579.44z"/>
		</g>
	</g>
	<g>
		<g>
			<path class="st43" d="M968.18,607.42c-11.38-12.31-22.75-24.62-34.12-36.93c-3.27-3.53-6.53-7.07-9.8-10.6
				c-1.09-1.18-2.86,0.59-1.77,1.77c11.38,12.31,22.75,24.62,34.12,36.93c3.27,3.53,6.53,7.07,9.8,10.6
				C967.5,610.37,969.27,608.6,968.18,607.42L968.18,607.42z"/>
		</g>
	</g>
	<g>
		<g>
			<path class="st43" d="M1113.57,605.35c-7.96-4.56-15.54-9.78-22.6-15.66c-7.41-6.17-14.27-13.01-21.26-19.65
				c-4.09-3.89-8.18-7.77-12.27-11.66c-1.17-1.11-2.94,0.66-1.77,1.77c7.32,6.95,14.63,13.91,21.96,20.86
				c6.79,6.44,13.77,12.6,21.41,18.03c4.28,3.04,8.71,5.86,13.27,8.47C1113.71,608.31,1114.97,606.15,1113.57,605.35L1113.57,605.35
				z"/>
		</g>
	</g>
	<g>
		<g>
			<path class="st43" d="M1082.65,618.2c-1.08-18.83-0.33-37.78,2.33-56.46c0.75-5.3,1.66-10.58,2.71-15.83
				c0.31-1.57-2.1-2.24-2.41-0.66c-3.72,18.64-5.62,37.64-5.61,56.65c0,5.43,0.17,10.87,0.48,16.29
				C1080.24,619.8,1082.74,619.81,1082.65,618.2L1082.65,618.2z"/>
		</g>
	</g>
	<g>
		<g>
			<path class="st43" d="M1119.7,579.83c-18.99-0.03-37.98-0.59-56.93-1.68c-5.38-0.31-10.76-0.67-16.13-1.06
				c-1.61-0.12-1.6,2.38,0,2.5c18.94,1.4,37.91,2.26,56.9,2.59c5.39,0.09,10.78,0.14,16.17,0.15
				C1121.31,582.33,1121.31,579.83,1119.7,579.83L1119.7,579.83z"/>
		</g>
	</g>
	<g>
		<g>
			<path class="st43" d="M1054.1,604.05c17.26-9.63,33.77-20.58,49.36-32.73c4.4-3.43,8.73-6.96,12.98-10.58
				c1.23-1.04-0.55-2.81-1.77-1.77c-14.95,12.72-30.86,24.29-47.58,34.57c-4.69,2.88-9.44,5.66-14.25,8.35
				C1051.43,602.67,1052.69,604.83,1054.1,604.05L1054.1,604.05z"/>
		</g>
	</g>
	<g>
		<path class="st44" d="M1052.18,449.73c1.45,1.09,22.3,19.95,32.46,31.1c0.57,0.63,0.3,1.7,0,2c-1,1-2,2-3,2c-2,0-3,0-4.69-1.83
			c-3.05-3.3-6.3-6.36-9.82-9.16c-7.61-6.06-14.31-13.26-19.81-21.28c-0.78-1.14-2.04-2.89-0.87-3.81c1.18-0.93,3.29-0.4,3.74-0.17
			C1050.63,448.82,1050.73,448.64,1052.18,449.73z"/>
	</g>
	<g>
		<path class="st44" d="M1059.63,466.83c-2,10-6.71,34.93-10,42.01c-0.37,0.79-2.32,5.46-3,6c-0.81,0.65-9.98,2.85-11,3
			c-13.78,2.03-35.24,8.97-49.02,11c0.85,2.93,1.15,4.07,2,7c16.35-5.01,50.77-9.12,67.4-13.1c-0.16-6.72,1.87-13.29,3.88-19.71
			c2.52-8.06,7.04-28.12,9.56-36.18"/>
	</g>
	<g>
		<path class="st44" d="M987.61,519.54c11.73,20.45,22.72,45.73,32.32,67.55c0.53,1.21,1.07,2.6,0.64,3.85
			c-0.43,1.26-2.35,1.66-2.71,0.38c-14.12-20.18-33.25-55.97-41.25-76.3c1.15-0.68,7.75,0.75,9,1.13"/>
	</g>
	<g>
		<path class="st45" d="M1022.62,455.08c3.71,0.02,14.6-1,18.31-0.99c0.86,0,1.74,0.01,2.57-0.2c0.98-0.25,1.87-0.78,2.77-1.23
			c3.75-1.9,7.36-3.84,11.36-2.84c2.91,0.73,5,3,4,5c-0.79,1.58-3.41,2.24-5,3c-2.66,1.27-11.34,6.73-14,8"/>
	</g>
	<g>
		<g>
			<path class="st46" d="M1070.56,549.59c8.53-1.93,17.58-3.81,26.2-1.65c3.62,0.9,7.13,2.47,9.93,4.98c2.95,2.65,5.11,6,6.83,9.55
				c5.95,12.26,5.57,28.13-2.81,39.31c-4.2,5.61-10.83,9.73-17.61,11.93c-3.61,1.18-7.38,1.94-11.05,2.25
				c-4.23,0.36-8.52,0.32-12.58-1.04c-6.89-2.31-12.39-8.19-15.98-14.44c-3.83-6.66-5.74-14.27-5.36-21.9
				c0.69-13.99,10.63-26.61,24.42-29.56c1.7-0.36,2.84-0.48,4.69-0.53c4.02-0.09,4.03-6.35,0-6.25
				c-16.57,0.39-31.01,13.39-34.45,29.38c-3.67,17.01,3.71,36.93,18.67,46.33c8.11,5.09,17.8,5.12,26.94,3.4
				c8.52-1.6,16.79-5.32,23.17-11.27c12.13-11.34,14.91-29.93,9.64-45.24c-2.87-8.34-8.01-16.44-16.12-20.46
				c-8.92-4.43-18.97-4.13-28.54-2.41c-2.56,0.46-5.11,1.02-7.65,1.59c-1.65,0.37-2.61,2.27-2.18,3.84
				C1067.18,549.1,1068.91,549.96,1070.56,549.59L1070.56,549.59z"/>
		</g>
	</g>
	<g>
		<g>
			<path class="st46" d="M939.84,547.48c8.08-1.34,16.5-0.52,24.2,2.26c3.24,1.17,6.42,2.82,8.9,5.23c2.63,2.56,4.25,5.9,5.4,9.35
				c4.73,14.05,2.41,30.33-8.21,40.91c-4.75,4.73-10.61,7.91-17.28,9.06c-4.11,0.71-8.45,0.57-12.57-0.01
				c-3.91-0.54-7.86-1.45-11.52-2.95c-6.36-2.62-11.04-7.19-13.93-13.38c-2.71-5.79-3.14-12.45-1.2-18.62
				c2.19-6.95,6.71-13.43,11.5-18.81c4.52-5.07,10.03-9.65,16.27-12.12c1.62-0.64,3.27-1.15,4.96-1.55
				c1.64-0.39,2.62-2.26,2.18-3.84c-0.46-1.68-2.2-2.57-3.84-2.18c-7.83,1.86-14.81,6.24-20.59,11.75
				c-5.85,5.58-11.02,12.51-14.44,19.85c-3.49,7.51-4.55,15.66-2.18,23.67c2.18,7.37,6.89,13.95,13.37,18.13
				c7.6,4.91,17.54,6.83,26.48,6.75c8.64-0.08,16.75-2.84,23.56-8.14c13.63-10.6,18.47-28.62,14.85-45.14
				c-0.94-4.28-2.4-8.65-4.68-12.42c-2.25-3.72-5.47-6.68-9.24-8.81c-7.83-4.43-17.47-6.17-26.39-5.8c-2.44,0.1-4.87,0.39-7.28,0.79
				c-1.67,0.28-2.6,2.34-2.18,3.84C936.48,547.07,938.17,547.76,939.84,547.48L939.84,547.48z"/>
		</g>
	</g>
	<g>
		<path class="st39" d="M941.34,586.37c13.34,2.53,22.21,3.38,35.79,2.44c7.92-0.55,18.23,0.3,26.09,0.89
			c4.91,0.37,12.06-0.64,16.83,1.07c0.88-1.7,0.78-4.61,0.08-6.3c-0.7-1.69-1.65-2.92-2.9-3.06c-16.54-1.92-28.67-1.23-44.94-0.97
			c-7.37,0.12-18.24-0.08-25.63,0.51c-1.22,0.1-2.47,0.27-3.61,1.38"/>
	</g>
	<g>
		<g>
			<path class="st47" d="M938.62,585.51c-0.85-3.37,3.51-5.22,5.88-6.33c2.99-1.41,6.2-2.32,9.44-2.93
				c6.56-1.22,13.31-1.11,19.95-1.25c7.58-0.15,15.16-0.3,22.74-0.45c5.97-0.12,12.05-0.33,17.9,1.11c2.97,0.73,5.81,1.88,8.39,3.53
				c1.26,0.81,2.65,1.73,3.66,2.85c1.05,1.16,0.96,2.95,0.31,4.3c-0.68,1.42-2.16,2.11-3.55,2.65c-1.66,0.64-3.41,1.06-5.16,1.32
				c-3.46,0.49-6.99,0.39-10.48,0.41c-15.27,0.09-30.54,0.18-45.81,0.26c-3.82,0.02-7.65,0.12-11.47,0.05
				c-2.64-0.05-5.39-0.3-7.79-1.5c-1.3-0.65-2.43-1.52-3.4-2.61c-0.9-1.03-2.54-3.05-2.06-4.51c0.29-0.9,1.47-1.07,2.22-1.46
				c1.1-0.56,1.81-1.38,2.25-2.53c0.58-1.5-1.84-2.15-2.41-0.66c-0.37,0.96-1.55,1.19-2.38,1.6c-0.96,0.47-1.73,1.21-2.05,2.26
				c-0.9,2.94,1.58,6.2,3.64,8.06c4.42,4,10.38,3.88,15.97,3.85c16.93-0.1,33.86-0.19,50.78-0.29c3.91-0.02,7.87,0.11,11.77-0.28
				c3.39-0.34,7.33-1.03,10.14-3.11c2.41-1.79,3.55-5.45,2.18-8.22c-0.74-1.49-2.26-2.54-3.57-3.51c-1.37-1.02-2.84-1.9-4.38-2.64
				c-5.94-2.86-12.54-3.48-19.06-3.48c-7.99,0-15.98,0.29-23.96,0.45c-7.51,0.15-15.12-0.01-22.58,1.03
				c-3.56,0.49-7.09,1.32-10.43,2.67c-2.96,1.2-6.6,2.66-8.37,5.48c-0.88,1.39-1.15,2.99-0.75,4.59
				C936.6,587.74,939.02,587.08,938.62,585.51L938.62,585.51z"/>
		</g>
	</g>
	<g>
		<path class="st44" d="M976.6,538.85c-10.94,13.37-24.12,25.46-33.65,39.87c-1.05,1.59-2.13,3.3-2.17,5.21s1.42,3.98,3.33,3.84
			c1.45-0.1,2.51-1.36,3.39-2.51c12.9-16.87,29.43-31.66,41.11-49.41c-3.77-2.1,0.1-9.77-2-6"/>
	</g>
	<g>
		<path class="st48" d="M990.11,520.44c-5.74-0.6-11.53,0.76-17.3,0.42c-5.77-0.34-12.11-3.11-13.76-8.64
			c-1.32-4.41,1.19-9.63,5.47-11.34c2.07-0.83,4.36-0.89,6.59-0.84c5.1,0.11,10.2,0.73,15.18,1.86c1.75,0.4,3.6,0.92,4.81,2.25
			c0.69,0.76,1.11,1.72,1.51,2.66c1.03,2.38,9.97,1.66,11,4.04c0.76,1.75,0.65,8.48-4,9C997.74,520.05,990.11,520.44,990.11,520.44z
			"/>
	</g>
	<g>
		<path class="st48" d="M1009.24,584.22c0.23-0.72,1.15-0.89,1.9-0.94c6.29-0.41,12.6-0.53,18.9-0.34c0.34,0.01,0.72,0.04,0.94,0.29
			c0.19,0.22,0.2,0.54,0.2,0.84c0,2.83,0.01,5.66,0.01,8.5c0,0.25-0.01,0.53-0.18,0.72c-0.17,0.18-0.44,0.22-0.68,0.25
			c-7.56,0.8-15.16,1.17-22.77,1.12c-0.5,0-1.04-0.02-1.42-0.35c-0.33-0.28-0.45-0.74-0.55-1.16c-0.44-2.04-0.6-4.2,0.09-6.17
			s2.35-3.69,4.42-3.97"/>
	</g>
	<g>
		<path class="st49" d="M1009.61,457.82c-0.02,9.98-0.47,6.04-1,16.01c-0.1,1.9-3.32,11.58,0,13c7,3,28.01,10,33.01,13
			c12.32,7.39-1.85,31.55-7,41.01c-5.66,10.4-13,25.01-14,30.01c-2,8,11.11,2.69,12,5c0.9,2.32,0.04,6.59-2,8
			c-1.36,0.94-9.35,2-11,2c-5,0-12,0-13-4c-1.52-6.1,3-7.72,3-14c0-12-1.27-20.82,1-31.01c2-9,6-14,8-18.01
			c-15-1-46.58,2.1-56.02-13c-5-8-4.88-17.75-5-22.01c-0.65-22.62,1.77-35.57,9-57.02c1.52-4.5,6.54-13.45,13-17.01
			c7.24-3.98,15.1,2.29,20.01,7C1004.52,421.52,1009.62,451.68,1009.61,457.82z"/>
	</g>
	<g>
		<path class="st50" d="M986.13,358.11c12.69-3.38,23.05,0.63,30.04,11.75c2.46,3.91,0.37,7.72,1.37,12.22
			c1.65,7.44-0.79,17.45-3.93,23.73c-3,6-12.88,5.76-27.01,0c-12.16-4.95-21.97-21.86-16.18-33.65c4.25-8.67,5.73-8.33,14.05-13.23"
			/>
	</g>
	<g>
		<g>
			<path class="st51" d="M1009.23,398.19c0.87,0.87,1.84,1.66,2.97,2.17c1.15,0.52,2.37,0.83,3.58,1.15
				c0.63,0.17,1.39-0.21,1.54-0.87c0.15-0.65-0.2-1.36-0.87-1.54c-0.6-0.16-1.19-0.31-1.78-0.48c-0.25-0.07-0.5-0.15-0.75-0.24
				c-0.11-0.04-0.22-0.08-0.33-0.12c-0.05-0.02-0.11-0.05-0.16-0.07c0.35,0.11,0.13,0.05,0.04,0.02c-0.44-0.2-0.86-0.44-1.26-0.72
				c-0.05-0.04-0.1-0.07-0.15-0.11c-0.22-0.16,0.22,0.18,0,0c-0.11-0.09-0.21-0.17-0.32-0.26c-0.25-0.22-0.5-0.45-0.74-0.69
				c-0.46-0.46-1.31-0.5-1.77,0C1008.77,396.92,1008.73,397.7,1009.23,398.19L1009.23,398.19z"/>
		</g>
	</g>
	<g>
		<path class="st44" d="M1056.72,521.67c10.92,19.47,20.52,39.78,28.67,60.69c-1.37,2.79-5.48,2.62-7.75,0.51
			c-2.26-2.11-3.18-5.37-4.07-8.42c-4.82-16.42-12.23-32.03-21.83-45.96c-1.53-2.21-3.19-4.73-2.79-7.4
			c0.41-2.67,4.34-4.23,5.5-1.79"/>
	</g>
	<g>
		<path class="st42" d="M1002.66,381.41c1.19-0.96,2.2-1.95,3.35-2.51c1.15-0.56,2.68-0.75,3.89-0.47c0.6,0.14,1.51,0.76,1.86,1.17
			c0.75,0.9,1.11,2.1,0,2.48c-1.1,0.38-1.77,0.57-3.37,0.63C1006.49,382.78,1004.36,382.21,1002.66,381.41z"/>
	</g>
	<g>
		<path class="st52" d="M1008.8,378.53c0.86,0.06,1.85,0.65,1.85,1.91c0,0.82-0.48,2.02-2.02,2.02c-1.26,0-2.02-1.02-2.02-1.76
			C1006.62,379.69,1007.38,378.43,1008.8,378.53z"/>
	</g>
	<g>
		<path class="st42" d="M1021.85,391.21c0.1,0.26,0.18,0.59,0,0.8c-0.09,0.11-0.22,0.16-0.35,0.21c-1.37,0.55-2.85,0.82-4.33,0.8
			c-1.08-2.39-1.01-4.69-0.73-7.3c0.12-1.11,0.64-2.98,0.95-3.76C1018.21,382.71,1020.69,388,1021.85,391.21z"/>
	</g>
	<g>
		<path class="st53" d="M1007.61,476.83c-11.98-0.13-20.77,0.15-32.75,0.15c-6.35,0-12.8,0.05-18.9,1.84
			c-2.73,8.89,0.51,18.48,4.56,26.85c1.09,2.26,2.29,4.54,4.21,6.15c1.59,1.33,3.56,2.1,5.54,2.71c11.42,3.52,23.7,4.21,35.61,5.23
			c0.75,0.06,1.52,0.14,2.24-0.08c0.66-0.2,1.22-0.63,1.77-1.05c4.4-3.42,5.38-7.35,8.72-11.8c6-8,10-10,18.01-10
			c-9.39-6.03-24.23-8.84-27.01-13C1007.61,480.83,1007.61,476.83,1007.61,476.83z"/>
	</g>
	<g>
		<path class="st54" d="M1021.8,574.05c-3.02,2.25-6.97,3.19-10.68,2.55c-1.42-0.25-2.9-0.78-3.76-1.94
			c-1.05,2.77-1.63,5.72-1.69,8.68c-0.01,0.62,0,1.26,0.29,1.81c0.58,1.13,2.03,1.43,3.3,1.55c8.3,0.76,16.58-1.23,24.68-3.2
			c1.49-0.36,3.06-0.76,4.18-1.81c0.17-0.16,0.35-0.65,0.51-0.82c1.14-1.24,0.95-2.83,0.08-3.94c-0.33-0.42-0.79-0.73-1.27-0.99
			c-4.62-2.47-10.44-0.26-15.47-1.69"/>
	</g>
	<g>
		<path class="st55" d="M981.6,402.81c4,3,10.79,4.91,16.95,6.47c0.06,1.53-0.5,2.72-0.94,4.53c2,2,3.88,4.67,5,8
			c1.04,3.09,1.53,7.36,2.3,10.52c1.92,7.82,2.19,15.94,3.28,23.92c0.98,7.12,2.62,14.41,1.01,21.41
			c-14.45-0.31-28.9-0.63-43.35-0.94c-0.78-7.4,0.14-14.87,0.94-22.27c0.76-7,1.4-14.04,1-21.07c-0.16-2.72-0.46-5.48,0.17-8.13
			c0.99-4.09,3.89-8.27,6.63-11.46s5.2-5.8,5-10"/>
	</g>
	<g>
		<path class="st56" d="M971.5,430.89c3.11-4.07,5.01-5.89,9.11-8.07c4.1-2.18,8.36-4,13-4c2,0,4,0,5.81,0.84
			c1.24,0.58,2.51,1.09,3.59,1.93c5.67,4.43,7.92,12.17,7.44,19.35s-3.31,13.96-6.22,20.54c-0.69,1.57-1.4,3.15-2.46,4.5
			c-1.59,2.01-3.85,3.37-6.14,4.53c-6.53,3.31-13.68,5.41-20.97,6.14c0.34-2.46,0.68-4.91,1.01-7.37c0.05-0.35,0.1-0.73,0.32-1.01
			c0.21-0.28,0.55-0.43,0.87-0.58c5.64-2.51,11.46-5.09,15.69-9.59c2.42-2.58,4.21-5.68,5.81-8.83c1.47-2.89,2.82-5.91,3.23-9.13
			c0.41-3.22-0.24-6.7-2.38-9.14c-2.14-2.45-5.7-3.55-8.85-2.76c-2.34,0.59-4.34,2.11-6.12,3.74c-4,3.68-7.29,8.24-8.84,13.45"/>
	</g>
	<g>
		<path class="st56" d="M961.34,426.4c5.88-1.08,11.73,3.02,14.6,8.26c2.87,5.24,3.43,11.4,3.92,17.35
			c0.55,6.66,1.08,13.41-0.11,19.98c-1.19,6.57-4.33,13.06-9.8,16.9c-4.31,3.03-9.68,4.17-14.94,4.48
			c-3.65,0.22-7.48,0.02-10.66-1.78c-6.86-3.87-7.97-13.13-8.06-21.01c-0.11-10.37,0.28-21.16,5.03-30.38
			c4.75-9.22,15.07-16.36,25.22-14.22"/>
	</g>
	<g>
		<path class="st56" d="M959.1,424.83c-1.57-2.72-3.13-5.87-2.19-8.86c0.55-1.76,1.91-3.16,3.39-4.26c2.59-1.92,6.33-3.05,8.95-1.17
			c2.85,2.05,2.69,6.26,2.24,9.74c-0.22,1.7-0.44,3.4-0.66,5.1c-0.26,1.97-0.56,4.05-1.8,5.59s-6.08-0.34-5.94-1.05
			c0.11-0.54,0.46-0.98,0.76-1.44c2-3,2.11-7.16,0.27-10.27c-0.44-0.75-1.3-1.52-2.08-1.13c-0.69,0.35-0.7,1.32-0.61,2.09
			c0.34,2.9,0.67,5.8,1.01,8.7c0.05,0.39,0.09,0.81-0.11,1.15c-0.52,0.94-2.03,0.34-2.64-0.55c-0.78-1.15-1.06-2.63-0.74-3.98"/>
	</g>
	<g>
		<path class="st57" d="M1018.21,367.81c-0.66,1.46-2.35,2.2-3.95,2.31s-3.18-0.28-4.78-0.43c-0.52-0.05-1.07-0.07-1.54,0.16
			c-0.73,0.35-1.08,1.18-1.64,1.76c-1.01,1.03-2.81,1.14-3.93,0.23c-0.36-0.29-0.65-0.67-1.04-0.93c-1.57-1.06-3.74,0.37-4.55,2.08
			c-0.46,0.98-0.71,2.08-1.35,2.95c-0.64,0.88-1.89,1.47-2.82,0.91c-0.46-0.28-0.81-0.81-1.35-0.83c-0.7-0.03-1.08,0.82-1.09,1.52
			c-0.01,0.7,0.13,4.46-0.27,5.04c-0.41,0.58-1.2,0.71-1.86,0.97c-1.91,0.78-2.89,3.11-2.5,5.14c0.39,2.03,1.89,3.71,3.66,4.77
			c-0.35,1.07-0.68,2.34-0.04,3.26c0.22,0.32,0.54,0.56,0.77,0.88c0.76,1.08,0.08,2.73-1.12,3.29c-1.2,0.55-2.65,0.21-3.76-0.51
			c-0.33-0.21-0.66-0.46-1.05-0.52c-1.13-0.17-1.78,1.28-1.81,2.42c-0.03,1.14,0.05,2.52-0.89,3.17c-1.13,0.78-2.69-0.26-3.35-1.46
			s-1-2.68-2.08-3.52c-1.81-1.41-4.68-0.32-6.56-1.61c-1.25-0.85-1.67-2.49-1.74-4c-0.07-1.51,0.13-3.05-0.26-4.51
			c-0.71-2.64-3.53-4.53-6.24-4.17c-0.43-2.97,1.49-6.1,4.32-7.08c-1.04-2.4-1.25-5.15-0.6-7.68c0.36-1.41,1.44-3.01,2.87-2.7
			c0.02-1.52-0.1-3.06,0.15-4.56c0.26-1.5,0.95-3.01,2.24-3.84c1.28-0.82,3.22-0.71,4.12,0.52c1.01-2.1,2.1-4.28,4.01-5.62
			c1.22-0.85,2.73-1.32,3.75-2.41c0.51-0.55,0.89-1.25,1.52-1.66c1.12-0.72,2.66-0.27,3.66,0.61s1.62,2.09,2.39,3.17
			c0.2,0.28,0.45-2.43,0.78-2.41c0.24,0.02,0.47-0.11,0.66-0.25c1.89-1.34,2.54-4.22,4.75-4.93c1.01-0.32,2.13-0.08,3.06,0.42
			c1.54,0.83,2.75,2.58,2.36,4.28c2.75,1.65,6.56-1.77,9.34-0.17c1.58,0.91,1.99,3.04,1.76,4.85c1.23,0.19,2.5,0,3.74,0.16
			c1.24,0.16,2.56,0.8,2.93,1.99c0.47,1.53-0.79,2.99-1.94,4.1c0.94-0.03,1.94-0.04,2.74,0.46c0.79,0.5,1.2,1.73,0.54,2.4
			c-0.41,0.42-1.06,0.47-1.6,0.69c-0.55,0.22-1.07,0.83-0.77,1.34"/>
	</g>
	<g>
		<g>
			<path class="st42" d="M991.52,382.5c-1.41-0.52-2.97-0.47-4.3,0.25c-1.27,0.69-2.14,1.94-2.59,3.29
				c-0.96,2.88,0.12,6.21,2.74,7.8c1.26,0.77,2.86,1.06,4.28,0.61c0.64-0.2,1.06-0.87,0.87-1.54c-0.17-0.63-0.89-1.08-1.54-0.87
				c-0.1,0.03-0.19,0.06-0.29,0.08c-0.07,0.02-0.13,0.03-0.2,0.04c0.01,0,0.23-0.02,0.08-0.01c-0.22,0.02-0.44,0.01-0.67,0
				c-0.21-0.01,0.16,0.04-0.13-0.02c-0.1-0.02-0.21-0.05-0.31-0.07c-0.12-0.03-0.24-0.08-0.35-0.12c-0.02-0.01-0.18-0.08-0.05-0.02
				c0.13,0.06-0.08-0.04-0.1-0.05c-0.21-0.11-0.41-0.24-0.62-0.37c-0.19-0.12,0.06,0.07-0.1-0.08c-0.1-0.09-0.2-0.18-0.29-0.27
				c-0.1-0.1-0.18-0.2-0.28-0.3c-0.15-0.16,0.03,0.07-0.09-0.12c-0.16-0.23-0.29-0.47-0.43-0.72c-0.1-0.19,0,0.05-0.07-0.15
				c-0.05-0.14-0.1-0.28-0.14-0.42c-0.04-0.12-0.07-0.25-0.09-0.37c-0.01-0.06-0.03-0.13-0.04-0.19c0.02,0.14,0,0-0.01-0.06
				c-0.03-0.29-0.03-0.59-0.02-0.88c0-0.07,0.03-0.35,0.02-0.29c0,0.01,0.05-0.29,0.08-0.4c0.06-0.26,0.14-0.52,0.23-0.77
				c-0.07,0.18,0.04-0.09,0.07-0.14c0.06-0.12,0.13-0.24,0.2-0.36c0.07-0.12,0.14-0.23,0.22-0.34c-0.12,0.16,0.04-0.05,0.09-0.1
				c0.07-0.08,0.15-0.16,0.23-0.24c0.06-0.06,0.36-0.28,0.17-0.15c0.11-0.07,0.21-0.14,0.32-0.2c0.05-0.03,0.1-0.05,0.14-0.08
				c0.2-0.12-0.08,0.02,0.05-0.03c0.12-0.04,0.24-0.08,0.37-0.12c0.05-0.01,0.11-0.03,0.16-0.04c0.03-0.01,0.26-0.04,0.11-0.02
				c-0.16,0.02,0.08,0,0.12,0c0.08,0,0.16-0.01,0.23,0c0.14,0,0.28,0.01,0.42,0.03c-0.03,0-0.17-0.03-0.02,0
				c0.11,0.02,0.21,0.04,0.31,0.07c0.17,0.05,0.35,0.1,0.51,0.17c0.63,0.23,1.37-0.26,1.54-0.87
				C992.58,383.34,992.15,382.73,991.52,382.5L991.52,382.5z"/>
		</g>
	</g>
	<g>
		<path class="st58" d="M982.6,430.82c1.88-1.88,3.98-3.48,6.6-3.92c6.41-1.08,13.13,1.57,17.78,6.29
			c4.65,4.72,11.64,14.64,14.64,18.64c2.55,3.4,5,6,9,7c6.19,1.55,24.63,6.15,31.01,6c2.7-0.06,8.35-0.52,11,0
			c2.72,0.53,8.69,2.56,10,5c1.31,2.44,1.15,5.26-1,7c-1.71,1.38-3.88-5.84-9-2c-4,3-5.78-1.22-12,0c-6.23,1.22-22.31,3.15-30.01,4
			c-9,1-15,2-25.01-8c-9.29-9.29-25.01-25.01-26.01-31.01C979.08,436.69,980.6,432.82,982.6,430.82z"/>
	</g>
</g>
<g class="st59">
	<path class="st60" d="M224.63,87.67c12.65-17.72,43.12-17.99,56.08-0.49c11.87-5.88,25.56-8.02,38.66-6.03
		c3.92,0.59,8.05,1.7,10.65,4.69c2.86,3.29,3.22,8.07,5.46,11.81c3.61,6.02,11.37,8.17,18.39,8.16c7.02-0.01,14.03-1.64,21.01-0.88
		c12.12,1.32,23,10.51,26.35,22.23c3.35,11.72-1.05,25.26-10.64,32.79c9.51,5.27,20.28,13.32,12.83,29.42
		c-7.45,16.1-32.02,16.86-55.98,17.4c-23.96,0.54-48.68-9.07-63.48-27.93c-1.98-2.52-3.83-5.24-6.48-7.05
		c-6.62-4.5-15.5-1.87-23.21,0.28c-13.09,3.65-26.69,5.48-40.28,5.39c-2.66-0.02-5.52-0.18-7.6-1.85c-2.04-1.64-2.81-4.34-3.92-6.71
		c-5.51-11.81-20.28-16.39-33.3-15.71c-4.11,0.21-8.33,0.81-12.28-0.33c-5.87-1.68-10.33-7.43-10.51-13.53s3.94-12.1,9.71-14.12
		c-7.46-17.98,4.48-39.6,21.87-48.35s38.41-0.54,47.41,10.47"/>
</g>
<g>
	<path class="st61" d="M-76.92,777.71c39.64-79.48,152.11-137.8,249.74-168.82c97.63-31.02,257.26-37.55,361.96-36.91
		c220.4,1.34,370.89,35.67,551.68,139.07c27.55,15.75,55.13,34.47,66.01,60.53c2.2,5.26,3.55,11.37,0.04,16.13
		c-3.8,5.15-11.81,6.82-19.02,7.99c-197.83,32.07-397.94,85.09-598.76,69.99s-353.23-31.95-554.46-42.74"/>
</g>
<g class="st59">
	<path class="st60" d="M1089.57,50.49c15.47-6.29,34.49-2.6,46.49,9.01c3.63,3.51,6.66,7.66,10.7,10.67
		c13.24,9.85,31.72,4.52,47.83,0.94c16.11-3.58,37.3-2.43,43.56,12.84c2.48,6.04,2.48,14.01,8.14,17.25
		c3.12,1.79,6.96,1.41,10.56,1.29c21.56-0.71,68.2,15.86,54.53,29.09c-13.67,13.23-39.89,9.27-59.94,13.47
		c-11.23,2.35-22.45,4.7-33.68,7.05c-15.88,3.33-33.28,6.47-47.66-1.07c-9.13-4.79-16.14-13.54-26.05-16.38
		c-21.74-6.24-43.31,18.82-65.12,12.86c-11.39-3.12-19.26-14.04-30.52-17.59c-16.92-5.34-34.22,7.44-51.95,7.85
		c-16.02,0.37-44.44-17.8-36.65-25.89c7.79-8.09,33.88,0.59,48-8.23c-13.14-6.82-40.21-15.73-36.71-24.8
		c3.5-9.07,52.44-1.39,77.27-9.48c2.46-0.8,5-1.71,6.83-3.53c2-2,2.9-4.82,4.39-7.23c6.58-10.63,21.87-10.34,34.27-8.77"/>
</g>
<g>
	<path class="st62" d="M60.33,696.63c-0.12,5.1,1.51,18.64,2.02,20.16c0.31,0.93,4.8,8.87,8.82,12.6
		c10.33,9.57,36.53,25.5,82.76,25.5c41.2,0,61.5-5.09,84.79-18.95c10.58-6.3,18.53-16.55,18.9-18.39c0.5-2.52,1.76-14.61,1.76-20.91
		c-4.2,14.48-14.82,25.55-28.97,34.55c-4.31,2.74-9.1,4.4-13.99,6.33c-26.87,10.6-82.07,8.38-107.59,1.9
		c-7.02-1.78-29.06-13.61-32.64-16.95C67.3,714.18,62.53,706.19,60.33,696.63z"/>
</g>
<g>
	<path class="st63" d="M164.6,747.88c27.24-1.37,47.2-4.93,65.58-15.09c8.42-4.65,16.28-10.25,21.81-17.32
		c5.53-7.07,8.58-15.76,6.92-24.11c-1.07-5.39-4.03-10.42-7.83-14.85c-9.98-11.67-25.54-19.32-41.84-23.69s-33.49-5.74-50.53-7.03
		c-17.08-1.29-51.61,1.97-76.22,17.33c-10.56,6.59-19.39,14.97-21.76,27.93c-2.04,11.13,3.29,22.2,12.46,30.41
		c3.54,3.17,11.61,8.71,16.02,10.97C110.01,743.04,137.36,749.24,164.6,747.88z"/>
</g>
<g>
	<path class="st64" d="M201.17,668.41c23.41,7.17,33.51,18.39,34.19,27.51c0.67,9.04-6.47,17.58-15.54,22.62
		c-16.46,9.14-45.17,11.49-63.82,11.71c-22.82,0.28-43.24-3.98-50.92-7.23c-16.52-7-22.06-17.33-22.36-22.55
		c-0.28-4.75,0.86-9.58,3.83-13.3c2.97-3.72,9.95-9.37,14.09-11.73c16.53-9.46,32.64-11.52,51.69-11.42
		C152.3,664.03,188.21,664.44,201.17,668.41z"/>
</g>
<g>
	<path class="st65" d="M103.69,623.91c-5.22-5.12-8.47-6.74-15.2-8.15c-4.79-1.01-8.82-0.76-12.37,0.06
		c-1.53,0.35-2.68,1.45-3.76,2.44c-3.03,2.8-5.74,6.11-6.13,9.88c-0.18,1.73,0.14,3.48,0.7,5.16c1.28,3.87,3.78,7.38,6.35,10.77
		c2.01,2.65,4.08,5.26,6.22,7.84c0.96,1.15,1.94,2.31,3.22,3.21c1.06,0.75,2.3,1.29,3.49,1.9c6.28,3.22,11.53,8.38,18.79,9.43
		c-1.7-5.18-3.78-10.26-6.22-15.22c-0.29-0.59-0.6-1.2-1.16-1.63c-0.51-0.4-1.24-0.5-1.8-0.88c-2.54-1.73-3.8-2.49-6.06-4.5
		c-3.77-3.35-4.79-5.29-7.81-9.83c-0.62-0.93-1.67-3.28-1.84-4.34c-0.18-1.06,0.15-2.24,1.12-2.92c1.02-0.71,2.53-0.73,3.76-0.34
		c1.24,0.39,2.27,1.13,3.27,1.85c2.49,1.79,4.97,3.58,7.46,5.38c0.28,0.2,0.64,0.42,0.98,0.31c0.19-0.06,0.32-0.21,0.44-0.35
		c2.62-3.13,5.25-6.26,7.87-9.38"/>
</g>
<g>
	<path class="st66" d="M99.1,632.58c-4.65-5.33-11.79-9.07-19.53-10.25c-3.34-0.51-6.99-0.51-9.91,0.96
		c-4.19,2.11-5.15,6.58-4.29,10.62s3.04,7.81,5.76,11.22c3.94,4.94,8.04,9.89,13.42,13.75c6.17,4.43,13.73,7.21,21.17,9.93
		c0.52-1.3-0.21-2.75-1.36-3.72c-1.15-0.97-2.66-1.56-4.1-2.2c-8.8-3.9-15.95-10.01-21.98-16.66c-3.64-4.02-7.08-8.76-6.32-13.78
		c0.21-1.41,0.8-2.83,2.05-3.79c1.07-0.82,2.52-1.2,3.96-1.31c3.96-0.31,7.85,1.29,10.76,3.57c2.9,2.28,4.97,5.19,7.01,8.06
		c1.13-2.16,2.25-4.32,3.38-6.47"/>
</g>
<g>
	<path class="st67" d="M105.49,648.02c4.08,3.43,8.25,6.91,13.42,9.07c4.34,1.81,9.16,2.59,13.92,3.36c4.6,0.74,9.2,1.48,13.8,2.22
		c4.59,0.74,9.2,1.48,13.86,1.73c12.95,0.7,25.95-2.42,37.25-7.77c4.31-2.04,8.49-4.46,11.48-7.77c3.24-3.58,4.91-7.97,6.41-12.29
		c0.82-2.36,1.62-4.8,1.32-7.25c-0.2-1.66-0.9-3.25-1.73-4.76c-3.84-7-10.7-12.8-19-16.08c-3.03-1.2-6.24-2.07-9.15-3.47
		c-2.01-0.97-3.87-2.18-6.04-2.87c-2.42-0.76-5.05-0.82-7.63-0.87c-13.93-0.26-28.14-0.49-41.45,2.98
		c-8.85,2.31-17.09,6.25-23.99,11.45c-6.38,4.82-11.88,11.51-10.89,18.67c0.71,5.14,4.61,9.52,8.59,13.47"/>
</g>
<g>
	<path class="st68" d="M95.96,635.5c0.3,4.48,1,8.07,2.16,12.5c4.03,15.37,8.57,29.98,14.61,41.07c5.04,9.24,15.88,16.2,24.44,18.64
		c10.58,3.02,27.46,3.02,40.72-1.51c9.66-3.3,17.22-8.8,22.01-16.63c7.56-12.35,18.14-41.57,19.4-52.15
		c-2.82,4.54-5.51,4.63-8.34,9.16c-0.83,1.34-1.68,2.69-2.79,3.88c-1.72,1.83-4.01,3.2-6.27,4.55c-3.07,1.83-6.17,3.67-9.58,5
		c-4.2,1.64-8.77,2.46-13.29,3.27c-5.58,1-11.19,2.01-16.89,2.13c-5.1,0.11-10.18-0.48-15.22-1.13c-8.21-1.06-16.51-2.33-23.96-5.4
		c-4.88-2.01-9.27-4.75-13.62-7.47c-2.82-1.76-5.71-3.59-7.53-6.11C98.77,641.13,95.96,635.5,95.96,635.5z"/>
</g>
<g>
	<path class="st69" d="M102.91,640.45c-1.09-5.08,4.79-12.85,13.6-18.39c6.29-3.96,16.34-6.71,23.93-8.02
		c3.17-0.55,8.11-1.13,11.34-1.31c8.49-0.46,15.12-0.25,23.69,1.36c10.37,1.95,19.65,5.95,26.7,10.73
		c6.76,4.59,13.35,12.35,11.34,16.63c-3.45,7.34-14.86,15.12-25.7,18.14c-20.25,5.65-49.67,1.27-61.73-0.76
		C115.51,657.06,104.42,647.5,102.91,640.45z"/>
</g>
<g>
	<g>
		<path class="st70" d="M671.87,662.34c16.32-0.32,30.41,10.82,42.52,21.76c38.87,35.11,73.9,74.46,104.28,117.14
			c-53.05,11.78-107.52,17.17-161.85,16c-41.1-0.88-82.31-5.49-123.21-1.41c3.56,0.95,4.02,6.37,1.53,9.09
			c-2.48,2.73-6.46,3.39-10.13,3.77c-22.97,2.35-46.45-0.46-68.21-8.16c1.35-2.56,2.7-5.11,4.05-7.67
			c-79.7-17.82-162.62-2.06-244.28-3.35c-1.96-0.03-4.14-0.17-5.48-1.59c-2.11-2.25-0.71-5.89,0.8-8.59
			c25.67-45.83,56.73-88.64,92.32-127.27c2.92-3.17,6.04-6.42,10.12-7.81c2.68-0.91,5.58-0.94,8.41-0.92
			c49.1,0.28,98.12,10.87,142.95,30.89c12.25,5.47,24.94,11.78,38.32,10.73c8.13-0.64,15.76-3.97,23.3-7.06
			c46.29-18.96,95.7-30.27,145.63-33.32"/>
	</g>
	<g>
		<g>
			<path class="st71" d="M507.7,810.9c5.54-6.57,13.09-11.03,20.62-14.95c7.97-4.14,16.2-7.82,24.56-11.11
				c17.22-6.77,35.08-11.89,53.23-15.44c18.53-3.63,37.38-5.58,56.26-5.81c18.93-0.23,37.9,1.24,56.55,4.54
				c18.03,3.19,35.8,8.04,52.83,14.78c1.98,0.79,3.96,1.6,5.92,2.44c1.24,0.53,2.68,0.37,3.42-0.9c0.62-1.05,0.35-2.88-0.9-3.42
				c-17.07-7.33-34.89-12.77-53.1-16.44c-18.93-3.81-38.24-5.8-57.55-6.01c-19.3-0.21-38.61,1.4-57.63,4.68
				c-18.69,3.22-37.12,8.09-54.91,14.67c-8.71,3.22-17.28,6.85-25.63,10.9c-8.09,3.92-16.22,8.19-22.99,14.2
				c-1.51,1.34-2.91,2.78-4.21,4.32c-0.87,1.03-1.01,2.52,0,3.54C505.05,811.79,506.82,811.94,507.7,810.9L507.7,810.9z"/>
		</g>
	</g>
	<g>
		<path class="st72" d="M499.45,800.93c9.82-11.73,21.7-17.12,36.81-24.76c33.66-17,75.46-20.92,115.61-21.44
			c11.54-0.15,23.12-0.05,34.53,1.27c42.75,4.93,78.94,26.21,113.06,46.78c-0.34-3.74-4.8-6.32-8.74-8.5
			c-18.96-10.47-35.37-23.7-48.13-38.8c-4.05-4.79-7.82-9.85-13.38-13.62c-10.47-7.09-25.33-8.41-39.19-9.24
			c-21.9-1.31-43.83-2.2-65.79-2.68c-8.62-0.19-17.32-0.31-25.78,0.97c-9.43,1.42-18.29,4.53-26.95,7.77
			c-9.95,3.73-19.83,7.7-28.48,13.03c-5.19,3.2-9.87,6.85-14.54,10.5c-9.36,7.3-18.92,14.84-24.16,24.29
			c-3.52,6.35-4.52,8.58-5.88,15.41"/>
	</g>
	<g>
		<g>
			<path class="st71" d="M474.16,805.44c-11.47-9.57-24.72-16.59-38.58-22.02c-14.61-5.72-29.88-9.64-45.28-12.52
				c-17.37-3.25-35.03-5.26-52.72-5.19c-17.31,0.07-34.54,2.32-51.48,5.8c-16.69,3.43-33.1,8.03-49.45,12.78
				c-2.03,0.59-4.06,1.18-6.09,1.77c-3.08,0.9-1.77,5.73,1.33,4.82c16.1-4.7,32.22-9.38,48.59-13.06
				c16.45-3.7,33.15-6.36,50.02-6.98c17.25-0.63,34.54,0.82,51.56,3.64c15.52,2.58,30.94,6.14,45.8,11.36
				c13.75,4.83,27.1,11.2,38.8,19.95c1.36,1.02,2.68,2.07,3.98,3.16c1.04,0.86,2.52,1.02,3.54,0
				C475.05,808.09,475.2,806.31,474.16,805.44L474.16,805.44z"/>
		</g>
	</g>
	<g>
		<path class="st73" d="M491.45,799.93c2.01-3.54,1.89-3.86,5.13-6.8c30.82-28.04,77.69-43.08,124.71-48.29
			c23.27-2.58,46.95-3,70.35-1.23c12.39,0.93,29.25,6.26,53.13,16.07c20.37,8.36,40.74,26.16,60.99,37.66
			c-41.32-35.48-82.94-85.04-123.28-128.57c-7.64-8.24-15.79-16.34-26.1-22.59c-30.84-18.69-76.59-17.03-110.67-2.12
			c-10.57,4.62-20.53,10.56-26.9,18.57c-6.91,8.69-9.07,19.08-10.99,29.18c-6.79,35.75-13.36,67.11-16.66,107.62"/>
	</g>
	<g>
		<path class="st72" d="M480.44,803.94c-2.13-8.41-10.8-13.15-28.75-21.03c-13.46-5.91-28.83-8.58-44.03-10.83
			c-15.65-2.32-31.38-4.29-47.18-5.89c-18.67-1.89-37.6-3.28-56.3-1.56c-26.24,2.41-51.46,11.08-71.4,24.53
			c-1.7-7.96,6.07-15.36,14.81-19.74c11.96-5.99,26.21-8.53,40.23-10.43c17.95-2.44,36.1-4.02,54.3-4.73
			c16.68-0.65,33.49-0.56,49.98,1.53c26.18,3.33,50.58,11.51,73.34,22.07c7.02,3.26,14.12,6.93,18.22,12.42
			c4.1,5.49,4.83,8.38-1.22,12.65"/>
	</g>
	<g>
		<path class="st73" d="M484.77,801.99c-3.43-10.55-15.02-18.36-27.34-23.55c-23.73-10-51.3-12.66-78.19-14.58
			c-52.07-3.72-107.02-4.92-153.88,13.08c36.13-39.09,72.26-78.17,108.39-117.26c2.31-2.5,4.67-5.04,7.77-6.96
			c3.95-2.45,8.85-3.74,13.7-4.85c23.86-5.47,49.3-7.55,73.76-4.05c24.46,3.5,47.89,12.86,63.93,27.61
			c3.96,3.64,6.81,7.57,8.76,12.39c1.64,4.04,2.41,8.82,1.57,13.07c-6.67,33.89-12.31,67.91-12.54,102.2"/>
	</g>
	<g>
		<g>
			<path class="st71" d="M513.77,810.91c16.5-7.6,33.42-14.29,50.72-19.84c17.49-5.61,35.36-10.08,53.48-13.11
				c17.97-3.01,36.19-4.56,54.42-4.43c17.7,0.13,35.39,1.81,52.74,5.35c16.88,3.44,33.49,8.59,49.11,15.91
				c1.92,0.9,3.82,1.83,5.7,2.79c2.86,1.46,5.4-2.86,2.52-4.32c-15.62-7.94-32.27-13.77-49.33-17.75
				c-17.62-4.1-35.69-6.3-53.77-6.86c-18.43-0.57-36.87,0.65-55.12,3.29c-18.53,2.68-36.83,6.89-54.74,12.32
				c-17.76,5.39-35.13,11.99-52.09,19.53c-2.06,0.92-4.12,1.85-6.17,2.79c-1.23,0.57-1.53,2.34-0.9,3.42
				C511.08,811.28,512.54,811.48,513.77,810.91L513.77,810.91z"/>
		</g>
	</g>
	<g>
		<path class="st74" d="M502.49,693.86c-3.53,13.86-11.5,47.8-17.56,71.67c-0.16,0.63-0.31,1.35,0.05,1.89
			c0.37,0.57,1.13,0.7,1.8,0.79c8.47,1.07,16.05,1.93,24.52,3c-0.89-25.9-2.52-53.92-2.85-77.3c-1.18-0.8-1.68-1.05-3.19-1.05
			S502.49,693.86,502.49,693.86z"/>
	</g>
	<g>
		<path class="st75" d="M508.16,687.52c0.14,0.49,0.23,0.98,0.27,1.4c0.19,1.86,0.35,4.18,0.31,5.58c0,0.14-0.07,0.26-0.21,0.37
			c-0.1-0.03-1.01-1.51-3.02-1.51c-2.27,0-3.02,0.76-3.28,1.26c-0.15-0.28,0.12-1.23,0.5-2.77c0.39-1.55,0.78-3.1,1.37-4.35
			C505.26,686.8,507.02,686.8,508.16,687.52z"/>
	</g>
	<g>
		<path class="st76" d="M484.45,769.92c0.48-4.78-0.05-8.56,1.74-13.02c0.65-1.61,1.49-3.31,3.05-4.08c1-0.49,5.21-1.91,10.21-1.91
			c8,0,11.31,2.64,11.83,3.06c0.45,0.36,0.66,0.93,0.84,1.47c1.59,4.9,1.56,9.15,1.51,14.3c0,0.24-0.01,0.51-0.16,0.7
			c-0.16,0.2-0.43,0.27-0.68,0.32c-9.41,1.98-19.61,3.35-28.33-0.7"/>
	</g>
	<g>
		<path class="st76" d="M486.55,760c-1.7,0.6-3.59-0.78-4.17-2.49c-0.58-1.7-0.21-3.57,0.24-5.32c0.67-2.57,1.49-5.1,2.32-7.62
			c1.17-3.57,2.33-7.13,3.5-10.7c0.47-1.43,0.94-2.99,0.46-4.42c-0.48-1.43-2.36-2.46-3.55-1.53c0.18,2.81-1,5.5-2.09,8.1
			c-3.03,7.21-5.59,14.61-7.64,22.16c-0.24,0.87-0.46,1.84-0.07,2.66c0.23,0.48,0.65,0.84,1.07,1.18c2.91,2.32,6.34,3.99,9.97,4.84
			c1.06,0.25,2.23,0.42,3.2-0.09c0.97-0.5,1.49-1.94,0.73-2.72"/>
	</g>
	<g>
		<path class="st77" d="M485.04,766.76c3.44-4.8,9.35-7.73,15.26-7.56c3.44,0.1,6.91,1.25,9.42,3.6c2.51,2.35,3.91,5.97,3.18,9.33
			c-0.7,3.2-3.15,5.76-5.93,7.5c-3.76,2.37-8.43,3.52-12.75,2.47s-8.13-4.53-8.93-8.9c-0.8-4.37-0.16-9.18,4.15-10.28"/>
	</g>
	<g>
		<g>
			<path class="st78" d="M335.31,700.07c2.01-4.91,5.65-9.87,8.96-14.26c3.39-4.49,7.01-8.8,10.62-13.12
				c-0.59,0.24-1.18,0.49-1.77,0.73c2.18-0.03,4.13-0.13,6.13,0.78c0.64,0.29,1.47,0.71,1.76,1.15c0.05,0.07,0.14,0.28,0.14,0.29
				c-0.01,0.33-0.2,0.65-0.4,0.9c-1.21,1.51-3.68,2.11-5.42,2.66c-2.57,0.81-5.22,1.37-7.9,1.64c-1.11,0.11-2.1,0.7-2.41,1.84
				c-0.28,1.02,0.17,2.32,1.15,2.82c4.35,2.23,6.73,6.64,6.97,11.43c0.14,2.82,0.74,5.5,3.55,6.78c1.59,0.72,3.07,0.35,4.71,0.04
				c1.69-0.33,3.38-0.65,5.07-0.96c12.71-2.37,25.59-4.22,38.54-3.26c5.47,0.41,10.86,1.37,16.1,2.98c3.56,1.1,6.99,2.57,10.52,3.75
				c3.83,1.28,7.93,1.72,11.9,0.8c2.67-0.62,5.17-2.01,7.17-3.89c1.87-1.76,3.11-4.11,4.13-6.43c0.59-1.34,1.08-2.74,1.7-4.07
				c0.65-1.4,1.51-2.69,2.32-4.01c0.85-1.37,1.53-2.77,2.17-4.25c0.24-0.55,0.56-1.72,1.24-1.7c1.05,0.04,2.73,1.88,3.3,2.66
				c0.45,0.62,0.53,0.98-0.05,1.42c-1.03,0.78-2.54,1.01-3.76,1.28c-1.74,0.39-3.48,0.57-5.26,0.62c-3.21,0.08-3.22,5.08,0,5
				c4.84-0.12,15.63-1.21,14.35-8.45c-0.49-2.77-3.18-5.32-5.57-6.63c-3.04-1.67-6.3-0.81-8.04,2.2c-0.66,1.14-1.05,2.43-1.67,3.6
				c-0.69,1.29-1.52,2.5-2.27,3.76c-1.41,2.37-2.21,4.99-3.42,7.45c-1.13,2.31-2.49,4.23-4.77,5.52c-2.27,1.28-4.85,1.52-7.41,1.36
				c-0.27-0.02-0.54-0.04-0.81-0.06c-0.67-0.06,0.54,0.1-0.12-0.01c-0.33-0.06-0.67-0.12-1-0.19c-0.77-0.17-1.52-0.38-2.26-0.62
				c-1.63-0.52-3.23-1.15-4.83-1.75c-4.38-1.65-8.82-3.08-13.42-3.99c-13.41-2.64-27.14-1.67-40.55,0.43
				c-3.76,0.59-7.51,1.27-11.25,1.97c-0.89,0.17-1.77,0.34-2.66,0.51c-0.49,0.09-0.97,0.19-1.46,0.28
				c-0.22,0.04-0.87,0.03-0.48,0.18c-0.91-0.35-0.7-1.83-0.74-2.67c-0.31-6.33-3.68-12.45-9.43-15.39
				c-0.42,1.55-0.84,3.11-1.26,4.66c3.13-0.31,6.23-0.87,9.23-1.82c2.5-0.79,5.14-1.68,7.13-3.47c2.05-1.83,3.02-4.8,1.75-7.35
				c-1.05-2.11-3.3-3.2-5.39-4.01c-1.25-0.49-2.55-0.74-3.89-0.81c-1.37-0.07-3.53-0.31-4.65,0.56c-0.75,0.59-1.35,1.5-1.96,2.24
				c-0.7,0.84-1.41,1.69-2.11,2.54c-3.16,3.83-6.27,7.7-9.19,11.72c-3.03,4.17-5.9,8.5-7.85,13.29c-0.51,1.25,0.55,2.75,1.75,3.08
				C333.66,702.21,334.79,701.32,335.31,700.07L335.31,700.07z"/>
		</g>
	</g>
	<g>
		<g>
			<path class="st78" d="M377.36,674.94c-3.1,0.23-6.07,1.57-8.17,3.89c-2.03,2.24-3.59,5.62-2.48,8.65c0.66,1.8,2.04,3.13,3.9,3.66
				c1.86,0.52,3.74,0.11,5.45-0.69c1.38-0.65,2.71-1.65,3.77-2.74c1.09-1.13,2.03-2.54,2.38-4.1c0.4-1.76,0.12-3.66-0.91-5.17
				c-1.09-1.58-2.84-2.74-4.82-2.62c-1.3,0.08-2.56,1.09-2.5,2.5c0.06,1.29,1.1,2.59,2.5,2.5c0.11-0.01,0.26,0.02,0.36-0.01
				c0.28-0.06-0.5-0.16-0.24-0.03c0.05,0.03,0.29,0.11,0.34,0.1c-0.07,0.01-0.54-0.3-0.22-0.08c0.04,0.03,0.22,0.15,0.24,0.15
				c-0.21,0.01-0.4-0.36-0.17-0.13c0.08,0.08,0.17,0.17,0.26,0.25c0.34,0.32-0.08,0.02-0.07-0.11c0,0.02,0.35,0.63,0.37,0.64
				c-0.05-0.03-0.2-0.59-0.08-0.18c0.03,0.1,0.06,0.19,0.09,0.29c0.01,0.02,0.04,0.26,0.07,0.29c-0.16-0.17-0.04-0.55-0.03-0.22
				c0,0.12,0,0.25,0.01,0.37c0.03,0.55,0.08-0.29,0.02-0.04c-0.06,0.25-0.13,0.49-0.2,0.74c-0.07,0.25-0.18,0.12,0.06-0.13
				c-0.06,0.06-0.11,0.22-0.15,0.3c-0.12,0.23-0.26,0.44-0.4,0.65c-0.06,0.08-0.3,0.34-0.06,0.09c0.27-0.28-0.14,0.15-0.2,0.21
				c-0.34,0.37-0.7,0.69-1.08,1.02c-0.35,0.3,0.06-0.03,0.09-0.07c-0.08,0.1-0.25,0.18-0.35,0.25c-0.27,0.19-0.54,0.36-0.82,0.53
				c-0.26,0.15-0.52,0.29-0.78,0.42c-0.48,0.24,0.05-0.01,0.06-0.02c-0.02,0.04-0.31,0.11-0.37,0.13c-0.16,0.05-0.31,0.09-0.47,0.12
				c-0.16,0.03-0.46-0.03-0.12,0.03c0.38,0.07-0.07-0.01-0.18-0.01c-0.07,0-0.5,0.01-0.51-0.03c-0.01-0.05,0.65,0.16,0.16,0
				c-0.1-0.03-0.22-0.06-0.32-0.09c-0.48-0.13,0.15,0.04,0.13,0.06c-0.02,0.02-0.32-0.19-0.36-0.21c-0.28-0.15,0.32,0.33,0.11,0.08
				c-0.03-0.03-0.27-0.29-0.28-0.29c0.07-0.03,0.31,0.53,0.12,0.13c-0.02-0.04-0.05-0.09-0.07-0.13c-0.12-0.24-0.09-0.18,0.07,0.18
				c0.01-0.02-0.13-0.57-0.16-0.6c0.16,0.13,0.03,0.54,0.03,0.2c0-0.13-0.01-0.27-0.01-0.4c0-0.05,0.04-0.39,0.02-0.4
				c0.03,0.02-0.12,0.64-0.02,0.18c0.06-0.27,0.12-0.54,0.2-0.8c0.03-0.11,0.07-0.21,0.11-0.31c0.16-0.46-0.05,0.15-0.06,0.14
				c-0.02-0.02,0.31-0.61,0.34-0.66c0.13-0.22,0.27-0.44,0.41-0.65c0.06-0.09,0.15-0.18,0.2-0.28c-0.28,0.51-0.09,0.13,0.04-0.02
				c0.19-0.21,0.38-0.42,0.59-0.62c0.16-0.15,0.44-0.51,0.64-0.56c-0.25,0.06-0.34,0.24-0.1,0.08c0.14-0.1,0.28-0.2,0.42-0.29
				c0.24-0.15,0.48-0.3,0.73-0.43c0.13-0.07,0.25-0.13,0.38-0.19c0.38-0.18,0.07-0.13-0.05,0.01c0.13-0.15,0.7-0.25,0.88-0.31
				c0.27-0.08,0.55-0.15,0.82-0.2c0.03-0.01,0.06-0.01,0.08-0.02c0.22-0.04,0.22-0.04,0-0.01c-0.22,0.03-0.22,0.03,0,0
				c0.11-0.01,0.23-0.02,0.34-0.03c1.3-0.1,2.56-1.08,2.5-2.5C379.8,676.17,378.75,674.84,377.36,674.94L377.36,674.94z"/>
		</g>
	</g>
	<g>
		<g>
			<path class="st78" d="M394.15,673.64c-2.73,0.45-5.2,2.17-6.95,4.27c-1.89,2.27-3.85,5.41-2.93,8.49c1,3.36,4.86,4.31,7.84,3.1
				c2.86-1.16,5.03-3.65,5.95-6.59c1.07-3.45,0.08-7.14-2.18-9.86c-0.84-1.01-2.68-0.93-3.54,0c-0.99,1.07-0.89,2.46,0,3.54
				c0.33,0.4-0.02-0.05-0.04-0.06c0.04,0.01,0.18,0.26,0.22,0.31c0.14,0.21,0.27,0.43,0.38,0.65c0.06,0.11,0.11,0.23,0.17,0.34
				c0.24,0.48-0.03-0.07-0.03-0.07c0.09,0.01,0.26,0.8,0.29,0.9c0.05,0.21,0.09,0.43,0.14,0.65c0.08,0.35-0.03-0.46-0.01-0.1
				c0.01,0.13,0.02,0.25,0.03,0.38c0.01,0.25,0.01,0.5,0,0.76c-0.01,0.13-0.02,0.25-0.03,0.38c-0.01,0.31,0.1-0.48,0-0.01
				c-0.07,0.35-0.14,1.12-0.39,1.38c0.22-0.22,0.16-0.34,0.04-0.1c-0.05,0.11-0.1,0.22-0.16,0.32c-0.14,0.27-0.29,0.52-0.46,0.77
				c-0.03,0.04-0.21,0.28-0.21,0.29c-0.01-0.04,0.39-0.45,0.06-0.08c-0.16,0.18-0.32,0.36-0.49,0.53c-0.05,0.05-0.54,0.45-0.53,0.48
				c0-0.01,0.39-0.27,0.15-0.12c-0.12,0.08-0.24,0.17-0.37,0.25c-0.2,0.13-0.4,0.23-0.61,0.35c-0.36,0.21,0.08-0.04,0.15-0.05
				c-0.09,0.02-0.21,0.08-0.31,0.11c-0.21,0.07-0.42,0.11-0.64,0.17c-0.42,0.11,0.11-0.03,0.18-0.02c-0.13-0.03-0.35,0.02-0.48,0.02
				c-0.05,0-0.3-0.03-0.32-0.02c0.05-0.05,0.62,0.15,0.2,0.02c-0.09-0.03-0.2-0.06-0.29-0.08c-0.35-0.09,0.17-0.07,0.18,0.08
				c0-0.02-0.29-0.14-0.26-0.16c0,0,0.51,0.39,0.16,0.1c-0.3-0.25,0.17,0.12,0.08,0.12c-0.03-0.05-0.06-0.1-0.09-0.15
				c-0.1-0.2-0.11-0.2-0.02-0.01c-0.01,0.29,0.05,0.04,0-0.11c-0.11-0.31,0,0.49,0.02,0.15c0.01-0.11,0.01-0.24,0-0.35
				c-0.03-0.26-0.02,0.18-0.04,0.22c0.1-0.19,0.1-0.51,0.16-0.71c0.04-0.12,0.08-0.23,0.12-0.35c0.18-0.58-0.24,0.45,0.04-0.09
				c0.22-0.44,0.46-0.86,0.72-1.27c0.13-0.21,0.27-0.41,0.41-0.61c0.03-0.04,0.21-0.3,0.22-0.3c-0.04-0.01-0.33,0.41,0.01,0
				c0.37-0.45,0.76-0.87,1.19-1.27c0.2-0.19,0.41-0.36,0.62-0.53c0.26-0.22-0.36,0.25-0.08,0.06c0.13-0.08,0.24-0.17,0.37-0.26
				c0.22-0.15,0.45-0.29,0.69-0.41c0.1-0.06,0.21-0.11,0.32-0.16c0.37-0.18,0.18,0.01-0.03,0c0.22,0.02,0.62-0.22,0.84-0.29
				c0.29-0.08,0.58-0.14,0.88-0.19c1.29-0.22,2.13-1.88,1.75-3.08C396.78,673.99,395.54,673.41,394.15,673.64L394.15,673.64z"/>
		</g>
	</g>
	<g>
		<g>
			<path class="st78" d="M414.8,665.56c-1.59,3.15-3.71,5.96-5.77,8.81c-1.92,2.65-3.94,5.43-5.01,8.56
				c-0.47,1.37-0.85,3.04-0.39,4.46c0.54,1.65,2.07,2.87,3.7,3.36c2.58,0.78,6.23,0.4,7.75-2.09c1.68-2.76-2.64-5.27-4.32-2.52
				c0.22-0.24,0.26-0.29,0.13-0.16c-0.13,0.12-0.08,0.09,0.14-0.1c-0.64,0.18,0.54-0.07-0.17,0.08c-0.23,0.05-0.45,0.12-0.68,0.15
				c0.37-0.05-0.02-0.01-0.19-0.02c-0.21,0-0.41-0.01-0.62-0.01c-0.57,0,0.21,0.1-0.28-0.04c-0.21-0.06-0.42-0.11-0.63-0.18
				c0.63,0.21-0.09,0-0.08-0.09c0-0.07-0.08,0.02,0,0.04c0.23,0.07-0.07,0.52,0.07-0.05c0.01-0.17,0.01-0.17,0,0
				c0.02-0.09,0.04-0.18,0.06-0.28c0.06-0.28,0.14-0.56,0.22-0.83c0.08-0.26,0.18-0.52,0.27-0.78c0.18-0.51-0.12,0.2,0.1-0.22
				c0.31-0.6,0.62-1.19,0.96-1.77c2.77-4.78,6.59-8.85,9.08-13.8c0.61-1.2,0.32-2.71-0.9-3.42
				C417.11,664.01,415.41,664.35,414.8,665.56L414.8,665.56z"/>
		</g>
	</g>
	<g>
		<g>
			<path class="st78" d="M403.88,675.45c4.26,1.29,8.58,2.39,12.94,3.29c1.28,0.26,2.76-0.37,3.08-1.75
				c0.28-1.25-0.38-2.79-1.75-3.08c-4.36-0.9-8.68-1.99-12.94-3.29c-1.25-0.38-2.78,0.45-3.08,1.75
				C401.83,673.73,402.54,675.05,403.88,675.45L403.88,675.45z"/>
		</g>
	</g>
	<g>
		<g>
			<path class="st78" d="M430.43,670.39c0.03,0.35,0.11,0.13,0.03,0.36c-0.01,0.03-0.26,0.45-0.37,0.61
				c-0.52,0.79-1.13,1.52-1.7,2.28c-1.16,1.53-2.35,3.05-3.35,4.69c-1.86,3.08-3.14,7.09-2,10.66c0.56,1.73,1.67,3.42,3.49,4
				c2.07,0.66,3.99-0.58,5.74-1.55c3.38-1.87,6.56-4.06,9.57-6.47c3.42-2.74,6.54-5.81,9.36-9.16c0.73-0.87,0.98-2,0.39-3.03
				c-0.84-1.47-2.63-2.07-4.18-1.38c-1.49,0.66-2.21,2.24-2.99,3.58c-1.66,2.84-3.25,5.71-4.77,8.63c-1.4,2.69-3.35,5.64-3.7,8.7
				c-0.41,3.54,2.24,6.5,5.82,6.01c1.34-0.19,2.07-1.9,1.75-3.08c-0.4-1.44-1.73-1.93-3.08-1.75c1-0.14,0.51,0.28,0.44-0.52
				c-0.06-0.7,0.46-1.61,0.76-2.23c0.85-1.76,1.74-3.51,2.65-5.24c0.91-1.73,1.84-3.45,2.8-5.15c0.46-0.82,0.93-1.63,1.4-2.44
				c0.24-0.41,0.47-0.81,0.71-1.21c0.16-0.27,0.32-0.54,0.48-0.81c0.55-0.73,0-0.7-1.64,0.09c-0.3-0.3-0.6-0.6-0.9-0.9
				c0.04,0.07,0.08,0.14,0.12,0.21c0.13-1.01,0.26-2.02,0.39-3.03c-2.82,3.35-5.94,6.43-9.36,9.16c-1.59,1.27-3.25,2.44-4.96,3.54
				c-0.82,0.53-1.66,1.04-2.51,1.53c-0.48,0.28-0.97,0.55-1.46,0.82c-0.21,0.11-1.43,0.58-1.48,0.78c-0.05,0.02-0.1,0.05-0.15,0.08
				c0.22-0.03,0.39,0.02,0.51,0.16c-0.08,0.07-0.35-0.55-0.34-0.53c-0.31-0.7-0.29-1.45-0.26-2.21c0.09-1.79,0.88-3.43,1.8-4.93
				c1.08-1.76,2.38-3.39,3.63-5.04c1.19-1.58,2.52-3.15,2.34-5.26c-0.11-1.35-1.07-2.5-2.5-2.5
				C431.66,667.89,430.32,669.04,430.43,670.39L430.43,670.39z"/>
		</g>
	</g>
</g>
<g class="st59">
	<path class="st60" d="M637.55,51.16c7.3-5.08,15.08-10.14,23.92-11.17c8.83-1.03,18.94,3.29,21.58,11.78
		c12.59-3.08,25.44-5.07,38.38-5.92c2.95-0.2,6.09-0.29,8.68,1.13c5.4,2.97,5.76,10.66,9.71,15.38c7.7,9.21,22.69,2.68,34.45,5.1
		c14.8,3.05,22.34,21.39,18.54,36.02c-0.61,2.34-1.42,4.89-0.42,7.09c0.83,1.8,2.67,2.87,4.15,4.19c7.76,6.89,4.67,20.61-3.41,27.12
		c-8.07,6.52-19.04,7.81-29.36,8.85c-5.23,0.53-10.67,1.03-15.6-0.78c-5.08-1.86-8.99-5.94-13.61-8.78
		c-25.41-15.62-61.34,10.17-87.32-4.5c-8.78-4.96-14.62-13.75-22.08-20.53c-2.72-2.47-5.73-4.72-9.2-5.92
		c-3.84-1.34-8-1.32-12.07-1.29c-16.07,0.12-32.14,0.24-48.21,0.36c-5.66,0.04-12.06-0.22-15.85-4.43c-4.99-5.54-2.12-15,3.81-19.52
		c5.93-4.52,13.74-5.48,21.12-6.5c3.44-0.47,7.1-1.1,9.61-3.51c1.78-1.71,2.72-4.08,3.91-6.24c4.95-8.99,15.26-14.74,25.51-14.24
		c6.64,0.33,13,3.04,19.64,3.25c6.64,0.21,14.36-3.44,15.05-10.05"/>
</g>
<g>
	<path class="st79" d="M1330.27,628.99c1.89-0.1,3.87-0.19,5.6,0.59c2.13,0.97,3.48,3.06,4.77,5.02
		c18.76,28.4,49.95,48.5,62.33,80.2c-20.63-6.31-42.79-3.03-64.2-0.36c-48.33,6.03-97.07,8.71-145.76,8
		c-15.76-28.6-29.48-58.33-41.01-88.88C1162.33,634.45,1275.18,631.97,1330.27,628.99z"/>
</g>
<g>
	<g>
		<path class="st80" d="M1242.74,530.85c0.25-11.45-4.29-22.93-12.31-31.12c-8.02-8.18-19.4-12.96-30.86-12.94
			c-6.1,0.01-12.12,1.31-18.08,2.61c-9.58,2.08-19.15,4.16-28.73,6.24c-0.82,0.18-1.76,0.47-2.03,1.26
			c-0.21,0.61,0.09,1.27,0.39,1.85c9.75,18.63,26.26,32.63,42.37,46.14c2.92,2.44,5.98,4.97,9.69,5.8c3.6,0.81,7.36-0.08,10.88-1.18
			c11.07-3.48,21.42-9.2,30.25-16.72"/>
	</g>
	<g>
		<path class="st80" d="M1278.68,532.45c-0.58-8.28-0.89-17.46,4.39-23.86c2.11-2.56,4.95-4.41,7.84-6.04
			c17.76-10,38.57-12.75,58.82-15.03c-1.7,13.63-9.15,26.46-20.15,34.69c-3.35,2.51-7,4.6-10.75,6.46
			c-8.18,4.06-16.98,7.07-26.08,7.86c-6.83,0.6-11.82,1.41-14.14-5.04"/>
	</g>
	<g>
		<path class="st80" d="M1278.42,453.38c-2.31-9.4,3.62-19.38,11.92-24.34c8.31-4.97,18.42-5.84,28.1-5.51s19.36,1.74,29,0.84
			c-3.88,2.29-6.5,6.15-9.25,9.72c-9.33,12.1-21.27,21.87-33.1,31.53c-1.91,1.56-3.89,3.15-6.27,3.8
			c-3.89,1.05-8.16-0.77-10.87-3.75c-2.71-2.99-4.09-6.96-4.88-10.91"/>
	</g>
	<g>
		<path class="st80" d="M1244.45,461.05c0.58-8.67,0.54-17.75-3.26-25.57c-4.92-10.16-15.79-16.67-26.99-18.08
			c-11.2-1.41-22.61,1.79-32.55,7.13c-2,1.07-4.17,2.54-4.46,4.79c-0.45,3.38,3.38,5.51,6.4,7.1c12.7,6.69,20.26,20,30.46,30.1
			c2.82,2.8,5.95,5.41,9.65,6.86s8.08,1.59,11.51-0.42c4.44-2.59,6.29-7.94,7.81-12.85"/>
	</g>
	<g>
		<path class="st80" d="M1268.46,396.78c1.02-9.76,2.41-13.1-2.87-21.37c-5.46-8.54-15.98-12.22-25.89-14.35
			c-8.54-1.84-17.24-2.97-25.96-3.39c-1.12-0.05-2.36-0.05-3.2,0.69c-0.58,0.51-0.85,1.29-0.98,2.05
			c-0.74,4.09,1.59,8.04,3.87,11.51c6.79,10.35,13.96,20.45,21.49,30.28c1.22,1.59,2.48,3.21,4.19,4.25
			c2.02,1.24,4.47,1.55,6.84,1.58c8.33,0.11,17.09-3.41,21.46-10.5"/>
	</g>
	<g>
		<path class="st80" d="M1288.7,398.22c0.46-4.9,0.95-9.93,3.17-14.32c2.14-4.25,5.73-7.58,9.4-10.62
			c3.04-2.52,6.28-4.96,10.05-6.13c2.6-0.8,5.34-0.97,8.05-1.13c4.72-0.28,9.43-0.56,14.15-0.83c0.48-0.03,1.08,0.01,1.28,0.45
			c0.17,0.38-0.09,0.82-0.33,1.16c-8.51,11.9-12.58,27.4-24.27,36.2c-3.41,2.57-7.66,4.47-11.86,3.75s-10.59-4.12-9.59-8.27"/>
	</g>
	<g>
		<path class="st81" d="M1256.97,550.53c-2.71-10.34-11.49-17.77-19.8-24.49c-2.99-2.42-6.06-4.88-9.68-6.18
			c-4.1-1.47-18.6-7.24-21.85-6.48c3.08,1.2,15.78,8.55,19.46,12.36c3.29,3.4,6.58,6.8,9.87,10.2c3.54,3.66,7.08,7.32,10.39,11.19
			c3.91,4.57,7.5,9.42,10.72,14.5"/>
	</g>
	<g>
		<path class="st81" d="M1260.24,546.26c14.7-12.02,25.81-28.92,43.04-36.88c-14.86,15.35-29.71,30.69-44.57,46.04"/>
	</g>
	<g>
		<path class="st81" d="M1259.82,478.71c-5.02-10.81-15.45-17.92-25.39-24.49c-3.79-2.51-7.86-5.1-12.41-5.19
			c1.73,1.89,9.24,6.37,11.99,8.8c5.22,4.6,8.91,10.67,13.41,15.98c4.5,5.31,8.56,11.31,9.84,18.15"/>
	</g>
	<g>
		<path class="st81" d="M1266.86,465.08c9.96-11.41,23.56-19.59,38.31-23.05c-8.91,3.77-16.19,10.5-23.28,17.09
			c-6.52,6.07-13.42,12.82-14.79,21.62"/>
	</g>
	<g>
		<path class="st81" d="M1269.91,424.81c1.81-4.87,4.35-9.52,7.89-13.34c2.41-2.6,5.23-4.76,8.04-6.92
			c8.19-6.29,16.39-12.57,24.58-18.85c-7.16,7.08-14.33,14.15-21.49,21.23c-6.86,6.77-13.87,13.77-17.76,22.59"/>
	</g>
	<g>
		<path class="st81" d="M1274.21,421.11c0.56-9.31-5.76-17.46-11.73-24.63c-4.43-5.31-8.86-10.62-13.28-15.93
			c-2.02-2.43-4.4-5.05-7.56-5.26c0.96,1.47,2.28,2.65,3.54,3.87c15.16,14.58,23.35,36.12,21.69,57.09"/>
	</g>
	
		<ellipse transform="matrix(6.902103e-03 -1 1 6.902103e-03 674.3246 1829.6337)" class="st82" cx="1258.32" cy="575.32" rx="9.8" ry="63.81"/>
	<g>
		<path class="st81" d="M1263.29,601.41c-2.62-40.83,0.5-81.93,4.92-122.49c3.62-33.25-0.6-27.31,4.76-60.16
			c-5.07,12.96-7.78,20.58-9.86,31.55c-9.64,50.89-12.54,103.96-8.53,156.14c2.83-1.82,5.65-3.65,8.48-5.47"/>
	</g>
	<g>
		<path class="st83" d="M1207.38,584.94c0.33-1.95,2.43-3,4.29-3.67c11.31-4.07,23.57-5.49,35.52-4.13c3,0.34,6.07,0.86,9.02,0.21
			c1.5-0.33,2.92-0.96,4.4-1.38c4.19-1.19,8.64-0.7,12.97-0.2c10.58,1.22,22.24,3,29.06,11.18c-2.42-0.05-4.73,0.94-6.97,1.85
			c-23.56,9.61-49.49,13.49-74.78,10.71c-3.27-0.36-6.64-0.87-9.41-2.64c-2.77-1.78-4.77-5.15-3.97-8.34"/>
	</g>
	<path class="st84" d="M1313.07,600.04l-9.56,79.68c-38.21,18.7-73.37,9.76-91.26,1.63l-11.02-82.47L1313.07,600.04z"/>
	<path class="st85" d="M1194.75,575.52l-0.17,17.27c0,0,0.11,7.35,1.16,8.74c1.5,2-2.07,8.46,60.18,8.89
		c62.26,0.43,63.46-6.45,64.32-8.07c0.84-1.57,1.35-8.69,1.35-8.69l0.26-17.32c0,0-3.23,8.26-59.86,8.42
		C1199.68,584.95,1194.75,575.52,1194.75,575.52z"/>
</g>
<g>
	<path class="st86" d="M1151.66,633.88c-0.33,48.45-0.29,98-0.62,146.45c10.47,4.61,32.94,9.23,43.41,13.84
		c6.28-15.04-2.63-33.91,6.85-47.17c4.48-6.27,9.64-10.23,17.07-12.29c7.43-2.06,21.22-2.41,28.92-2.75
		c33.99-1.49,55.97-2.99,89.96-4.48c7.52-0.33,15.13-0.65,22.49,0.91c7.36,1.56,14.56,5.24,18.83,11.43
		c-1.23-9.97-2.46-19.95-3.69-29.92c-60.68,4.82-121.35,7.65-182.03,12.47c-13.35-29.05-25.91-59.88-40.19-88.49"/>
</g>
<rect x="-67.37" y="761.79" class="st87" width="1494.48" height="170.15"/>
<g>
	<g>
		<path class="st88" d="M763.99,630.16l-0.03,0c0,0,0,0.09,0,0.23C763.96,630.32,763.99,630.24,763.99,630.16z"/>
		<path class="st89" d="M993.36,630.72l-0.05,0c-0.09,3.92-3.84,7.83-11.28,10.8l-83.33,33.28c-11.34,4.53-29.74,4.5-41.01-0.05
			l-82.64-33.45c-7.39-2.99-11.09-6.93-11.09-10.88c0.02,4.01,0.25,59.18,0.33,66.82c0.08,7.89,5.44,15.76,13.44,19.3l78.69,35.92
			c12.21,5.4,32.16,5.43,44.46,0.06l79.9-36.01c8.18-3.57,12.21-11.43,12.15-19.28C992.86,689.41,993.36,630.72,993.36,630.72z"/>
	</g>
	<g>
		<path class="st90" d="M917.61,686.3l54.85-22.27c2.13-0.83,3.85-3.18,3.85-5.23v-27.6c0-2.06-1.73-3.05-3.85-2.22l-56.98,22.27
			c-2.13,0.83-3.85,3.18-3.85,5.23v25.54C911.62,685.73,913.9,687.81,917.61,686.3z"/>
		<path class="st90" d="M794.36,661.96l37.59,16.56c2.23,0.98,4.03,3.58,4.02,5.81l-0.03,10.81c-0.01,3.2-2.68,4.55-5.7,3.09
			L794.3,682.4c-2.23-0.98-4.03-3.58-4.02-5.81l0.04-12.38C790.32,661.99,792.13,660.98,794.36,661.96z"/>
		<path class="st90" d="M840.28,686.3l-54.85-22.27c-2.13-0.83-3.85-3.18-3.85-5.23v-27.6c0-2.06,1.73-3.05,3.85-2.22l56.98,22.27
			c2.13,0.83,3.85,3.18,3.85,5.23v25.54C846.27,685.73,843.99,687.81,840.28,686.3z"/>
		<path class="st90" d="M926.19,696.05l37.77-16.15c2.24-0.96,4.06-3.54,4.08-5.77l0.09-10.81c0.03-3.2-2.63-4.58-5.66-3.16
			l-36.11,15.45c-2.24,0.96-4.06,3.54-4.08,5.77l-0.1,12.38C922.15,695.98,923.95,697.01,926.19,696.05z"/>
		<path class="st91" d="M997.61,617.48c0,0,0,14.67,0,18.61c0,3.94-3.89,7.89-11.67,10.88l-86.04,33.1
			c-11.71,4.5-30.71,4.48-42.34-0.05l-85.33-33.27c-7.57-2.95-11.39-6.84-11.46-10.73c-0.06-3.96,0-18.54,0-18.54H997.61z"/>
		<path class="st92" d="M899.53,574.22l86.42,33.24c15.55,5.98,15.55,15.77,0,21.76l-86.04,33.1c-11.71,4.5-30.71,4.48-42.34-0.05
			L772.23,629c-15.28-5.96-15.27-15.7,0.01-21.65l84.97-33.08C868.83,569.74,887.82,569.72,899.53,574.22z"/>
		<path class="st90" d="M897.82,580.97l82.61,31.78c6.84,2.63,6.84,6.93,0,9.56l-82.3,31.66c-9.7,3.73-25.45,3.71-35.09-0.05
			l-81.56-31.8c-6.7-2.61-6.69-6.88,0-9.49l81.26-31.64C872.39,577.26,888.13,577.24,897.82,580.97z"/>
	</g>
</g>
<g class="st8">
	<path class="st93" d="M267.27,271.75c-5-0.12-10-0.07-15,0.14c0.57,13.55,1.14,27.11,1.71,40.66c5.34-0.88,10.76-1.13,16.15-0.75
		c-0.29-12.58-0.1-25.17,0.55-37.73"/>
</g>
<g class="st8">
	<path class="st93" d="M236.39,271.83c-7.47-0.16-14.94-0.31-22.41-0.47c2.59,13.35,0.54,27.26,1.72,40.86
		c1.97-1.65,4.69-1.39,7.13-1.06c3.01,0.41,6.03,0.83,9.04,1.24c2.32-13.75,4.91-27.44,7.77-41.05"/>
</g>
<g class="st8">
	<path class="st93" d="M182.96,270.18c0.05,12.38,0.1,24.76,0.15,37.14c0,0.9,0.12,2,0.86,2.36c0.25,0.12,0.54,0.13,0.81,0.13
		c5.08,0.06,10.15,0.12,15.23,0.18c0.21,0,0.46-0.01,0.6-0.19c0.12-0.15,0.13-0.36,0.13-0.56c0.29-11.98,0.58-26.99,0.87-38.97
		C201.61,270.27,188.49,270.17,182.96,270.18z"/>
</g>
<g class="st8">
	<path class="st93" d="M165.15,266.26c-5.94,0.13-11.88,0.07-17.81-0.16c1.07,15.09,1.65,30.22,1.74,45.36
		c5,0.18,10.07,0.15,15.07,0.08C164.88,297.38,165.15,266.26,165.15,266.26z"/>
</g>
<g class="st8">
	<path class="st93" d="M232.35,334.76c-5-0.12-10-0.07-15,0.14c0.57,13.55,1.14,27.11,1.71,40.66c5.34-0.88,10.76-1.13,16.15-0.75
		c-0.29-12.58-0.1-25.17,0.55-37.73"/>
</g>
<g class="st8">
	<path class="st93" d="M201.47,334.83c-7.47-0.16-14.94-0.31-22.41-0.47c2.59,13.35,0.54,27.26,1.72,40.86
		c1.97-1.65,4.69-1.39,7.13-1.06c3.01,0.41,6.03,0.83,9.04,1.24c2.32-13.75,4.91-27.44,7.77-41.05"/>
</g>
<g class="st8">
	<path class="st93" d="M164.62,333.15c-5.53,0.01-11.05,0.02-16.58,0.03c0.05,12.38,0.1,24.76,0.15,37.14c0,0.9,0.12,2,0.86,2.36
		c0.25,0.12,0.54,0.13,0.81,0.13c5.08,0.06,10.15,0.12,15.23,0.18c0.21,0,0.46-0.01,0.6-0.19c0.12-0.15,0.13-0.36,0.13-0.56
		c0.29-11.98,0.58-23.97,0.87-35.95"/>
</g>
<g class="st8">
	<path class="st93" d="M269.92,331.78c-5.94,0.13-11.88,0.07-17.81-0.16c1.07,15.09,1.65,30.22,1.74,45.36
		c5-0.62,10.07-0.59,15.07,0.08c0.73-14.16,1.46-28.33,2.19-42.49"/>
</g>
<g class="st8">
	<path class="st93" d="M234.6,399.02c-5-0.12-10-0.07-15,0.14c0.57,13.55,1.14,27.11,1.71,40.66c5.34-0.88,10.76-1.13,16.15-0.75
		c-0.29-12.58-0.1-25.17,0.55-37.73"/>
</g>
<g class="st8">
	<path class="st93" d="M270.18,399.09c-7.47-0.16-14.94-0.31-22.41-0.47c2.59,13.35,0.54,27.26,1.72,40.86
		c1.97-1.65,4.69-1.39,7.13-1.06c3.01,0.41,6.03,0.83,9.04,1.24c2.32-13.75,4.91-27.44,7.77-41.05"/>
</g>
<g class="st8">
	<path class="st93" d="M199.54,397.41c-5.53,0.01-11.05,0.02-16.58,0.03c0.05,12.38,0.1,24.76,0.15,37.14c0,0.9,0.12,2,0.86,2.36
		c0.25,0.12,0.54,0.13,0.81,0.13c5.08,0.06,10.15,0.12,15.23,0.18c0.21,0,0.46-0.01,0.6-0.19c0.12-0.15,0.13-0.36,0.13-0.56
		c0.29-11.98,0.58-23.97,0.87-35.95"/>
</g>
<g class="st8">
	<path class="st93" d="M165.15,393.53c-5.94,0.13-11.88,0.07-17.81-0.16c1.07,15.09,1.65,30.22,1.74,45.36
		c5-0.62,10.07-0.59,15.07,0.08c0.73-14.16,1.46-28.33,2.19-42.49"/>
</g>
<g>
	<g>
		<path class="st94" d="M112.23,637.42c-1.26,2.77-2.35,8,0.13,12.78c2.82,5.42,9.22,7.82,15.18,9.12
			c11.76,2.57,39.76,1.82,41.87,1.53c7.31-1.01,12.94-2.97,16.12-4.28c3.71-1.53,8.37-5.06,10.33-8.57c2.45-4.4,1.07-9.71-2.65-13.1
			c-3.72-3.39-8.9-4.71-13.92-5.11c2.87,1.82,5.8,3.71,7.84,6.43c2.04,2.72,3.02,6.5,1.57,9.58c-1.08,2.28-3.28,3.81-5.49,5.04
			c-7.82,4.32-16.88,6.13-25.82,6.13c-8.94,0.01-16.41-0.29-25.03-2.66c-2.95-0.81-7.32-3.16-9.86-4.87
			c-2.54-1.71-4.91-3.93-5.26-6.97c-0.33-2.91,0.76-7.05,6.3-12.6C117.94,630.75,113.96,633.63,112.23,637.42z"/>
	</g>
	<g>
		<path class="st95" d="M187.02,657.24c5.64-1.34,10.9-4.98,13.29-10.26c2.39-5.28,1.72-11.57-2.67-15.36
			c-2.56-2.21-5.79-3.78-9.36-5.04c5.07,0,10.37,1.81,14.3,5.25c2.21,1.93,4.16,4.31,4.89,7.15c1.1,4.24,0.23,8.45-2.28,12.04
			c-0.79,1.13-2.62,2.51-3.76,3.29c-0.94,0.64-2.02,1.05-3.1,1.41c-3.33,1.11-6.79,1.84-10.28,2.19"/>
	</g>
	<g>
		<path class="st95" d="M129.4,628.51c-2.56,1.11-5.48,2.77-7.58,4.96c-2.1,2.19-3.51,5.23-3.09,8.24c0.56,4.01,4.1,6.93,7.69,8.8
			c6.7,3.48,14.3,4.76,21.8,5.68c3.63,0.44,7.47,0.21,11.13,0.14c6.99-0.15,13.73-1.35,19.91-4.62c2.38-1.26,4.7-2.78,6.29-4.95
			c1.6-2.17,2.36-5.09,1.43-7.61c-0.6-1.62-1.82-2.92-3.01-4.17c-2.36-2.46-4.96-4.35-8.22-5.86c2.69,2.03,5.17,4.5,6.51,7.59
			s1.37,6.9-0.54,9.67c-1.64,2.37-4.41,3.67-7.12,4.66c-14.67,5.32-31.56,4.14-45.34-3.17c-3.13-1.66-6.35-3.94-7.23-7.38
			c-0.63-2.44,0.09-5.11,1.57-7.15C125.06,631.3,127.35,629.86,129.4,628.51z"/>
	</g>
	<g>
		<path class="st94" d="M152.14,650.63c-0.29-0.63-1.05-0.84-1.72-0.95c-5.2-0.87-10.97-0.59-15.14-3.93
			c-2.24-1.79-3.7-4.42-4.86-7.08c2,3.81,5.83,6.28,9.81,7.65s8.19,1.79,12.32,2.54c0.09-1.36-0.98-2.56-2.2-3.09
			c-1.22-0.53-2.57-0.57-3.88-0.74c-5.06-0.67-9.82-3.55-12.86-7.79c-0.88-1.23-1.64-2.62-1.72-4.15s0.14-3.07,1.53-3.59
			c-0.21,0.87,0,1.6-0.13,2.49c-0.42,2.93,1.42,5.79,3.79,7.44s5.23,2.34,7.98,3.14s5.58,1.76,7.66,3.8
			c-0.64-2.05-2.32-3.53-3.94-4.88c-1.88-1.58-3.78-3.14-5.68-4.7c-1.95-1.59-3.98-3.2-6.39-3.8c-0.96-0.24-1.99-0.32-2.8-0.9
			c-0.81-0.58-1.2-1.87-0.49-2.57c2.77,2.61,6.96,2.34,10.49,3.65c5.01,1.85,8.13,5.59,9,11.02c-0.22-2.61,0.1-3.84,0.26-6.45
			c-3.51-3.76-8.96-5.94-10.65-10.86c3.08,3.64,6.68,6.8,10.65,9.35c-1.87-4.38-5.39-7.97-9.63-9.87c-0.46-0.21-1.18-0.28-1.32,0.22
			c-1.15-1.82-1.34-4.26-0.49-6.25c1.7,2.78,5.1,3.78,7.63,5.79c3.49,2.77,5.2,7.75,4.18,12.18c-0.05-1.11,0.69-2.12,1.58-2.75
			s1.93-0.97,2.9-1.46c2.43-1.24,4.31-3.36,6.51-4.99s5.1-2.78,7.59-1.69c-5.69,4.49-10.57,7.91-17.44,9.98
			c2.32,0.96,3.34,0.8,5.73,0.02c2.38-0.78,4.54-2.17,6.55-3.69c2.1-1.58,4.13-3.38,5.41-5.71c-2.48,2.68-4.98,5.39-7.99,7.41
			c-3.01,2.02-6.61,3.31-10.17,2.85c0.01,1.31-0.03,2.78-0.03,3.83c4.09-2.15,8.38-2.24,12.45-4.44c2.38-1.29,4.8-3.34,7.41-2.69
			c-0.22,1.46-1.55,2.41-2.8,3.12c-5.49,3.12-10.29,5.05-16.55,5.05c0.61,1.42,2.55,2.08,4.05,2.09c1.71,0.02,4.87-0.36,7.81-1.79
			s6.1-5.07,7.38-8.16c-1.04,4.84-6.32,9.18-10.96,10.45c-3.27,0.9-6.26,1.23-9.04-0.76c0.25,1.31-0.76,2.88-0.51,3.93
			c6.97,1.47,13.63-0.77,19.2-5.34c1.49-1.22,2.9-2.74,3.23-4.67c0.7,0.61,0.33,1.79-0.18,2.58c-2.38,3.75-6.41,6.11-10.59,7.28
			s-7.55,1.29-11.88,1.39c-0.12,0.68-0.46,1.4-0.06,1.95c-0.36,0.64-1.96,0.77-2.36,0.36C151.38,652.01,151.86,651.09,152.14,650.63
			z"/>
	</g>
	<g>
		<path class="st96" d="M153.07,629.22c1.49-2.63,1.6-5.53,0.31-8.02c-0.46-0.89-1.19-1.75-2.18-1.9c1.01-0.42,2.09-0.79,3.17-0.62
			c1.08,0.17,2.11,1.08,2.06,2.17c0.88-1.25,2.46-1.8,3.96-2.12c1.55-0.34,2.98-0.2,4.52,0.62c0.16,0.08,0.26,0.28,0.23,0.46
			c-0.02,0.1-0.2,0.41-0.26,0.48c-0.54,0.71-0.99,1.17-1.61,1.82c-0.68,0.73-1.43,1.43-2.33,1.87c-0.9,0.44-1.99,0.58-2.9,0.17
			c0.1-0.68,0.6-1.26,1.18-1.62c0.59-0.37,1.26-0.55,1.93-0.74c-0.06-0.43-0.13-0.86-0.19-1.3c-1.54,0.44-3.24,1.02-3.98,2.44
			c-0.49,0.95-0.44,2.1-0.22,3.15s0.59,2.07,0.68,3.14c0.06,0.69,0,1.4-0.17,2.07C156.23,630.25,154.56,629.61,153.07,629.22z"/>
	</g>
	<g>
		<path class="st95" d="M151.26,644.51c-0.48-0.79-1.67-2.1-2.74-2.89c-0.58-0.42-1.21-0.76-1.84-1.11
			c-3.17-1.74-6.22-3.7-9.14-5.83c-0.56-0.41-1.11-0.82-1.75-1.09c-0.16-0.07-0.36-0.12-0.5-0.03c-0.2,0.14-0.14,0.44-0.06,0.67
			c0.41,1.18,0.85,2.39,1.72,3.29c0.45,0.46,0.99,0.82,1.54,1.15c2.25,1.36,4.69,2.41,7.23,3.09
			C147.53,642.24,150.28,643.72,151.26,644.51z"/>
	</g>
	<g>
		<path class="st95" d="M156.43,643.71c2.92,0.26,9.38-1.52,13.48-3.85c-2.47,2.25-5.55,3.83-8.82,4.51
			c-0.64,0.13-1.28,0.23-1.93,0.2C158.15,644.53,157.33,644.23,156.43,643.71z"/>
	</g>
	<g>
		<path class="st95" d="M168.8,648.63c4.16-1.79,8-5.06,9.85-9.7c0.64,1.56,0.35,3.48-0.44,4.95c-0.79,1.47-2.02,2.56-3.3,3.47
			c-5.61,3.97-12.96,5.04-19.09,3.98C159.28,651.19,164.64,650.42,168.8,648.63z"/>
	</g>
</g>
<polyline class="st87" points="-106.25,-45.34 -0.22,-45.34 -0.22,832.95 -106.25,832.95 "/>
<polyline class="st87" points="1365.75,-45.34 1471.78,-45.34 1471.78,832.95 1365.75,832.95 "/>
<g>
	<path class="st97" d="M115.51,607.44c-11.84,5.54-19.9,15.12-19.9,25.19c0,8.33,2.44,13.96,7.63,18.67
		c4.59,4.17,11.62,7.59,17.95,9.75c7.73,2.64,21.02,5.34,33.12,5.34c12.46,0,22.67-0.25,36.32-4.34c9.12-2.73,16.79-6.62,22.8-12.79
		c6.01-6.18,8.33-14.91,6.29-22.6c-1.16-4.35-4.06-7.93-6.53-10.47c-7.93-8.17-18.97-12.33-31.21-15.32
		c-11.88-2.91-24.63-2.95-36.94-1.5C134.15,600.64,125.84,602.4,115.51,607.44l4.53,2.52c5.29-2.27,13.06-5.26,25.48-6.73
		c13.32-1.58,30.84-0.36,43.3,3.71c12.05,3.93,24.36,12.24,26.14,21.72c1.78,9.47-3.71,17.9-13.8,23.38
		c-10.09,5.48-25.37,8.82-42.58,8.82s-34.1-2.87-43.33-8.31c-9.83-5.79-16.92-14.19-13.06-25.88c2.97-8.97,11.3-13.42,17.85-16.7
		L115.51,607.44z"/>
</g>
<g>
	<path class="st98" d="M196.22,718.33c5.3,1.71,16,5.13,28.52-1.4c6.74-3.51,11.44-10.51,11.21-17.33
		c-0.11-3.27-2.81-6.75-6.02-8.33c-7.48-3.68-14.27-2.37-21.79,0.81c-8.13,3.43-11.22,8.17-14.58,13.33
		c-0.82,1.26-1.32,2.68-2.23,3.91c-2.06,2.79-5.98,5.63-11.71,8.25c-10.54,4.82-24.87,8.78-36.38,11.91
		c-5.68,1.55-14.56,3.27-18.94,6.44c-3.12,2.26-4.74,6.6-3.73,10.02c0.93,3.16,5.75,6.29,12,5.04c4.31-0.86,9.26-4.55,13.35-7.76
		c5.91-4.64,12.38-9.87,21.82-14.68C178.3,723.17,190.87,716.61,196.22,718.33z"/>
</g>
<g>
	<g>
		<path class="st24" d="M411.29,451.94c-0.88-0.81-2.23-0.93-3.26-0.32c-1.09,0.64-1.51,1.99-1.17,3.18
			c0.18,0.63,0.56,1.16,1.08,1.55c0.57,0.43,1.22,0.72,1.76,1.19c0.46,0.4,0.87,0.89,0.95,1.52c0.06,0.51-0.14,1.02-0.63,1.23
			c-1.44,0.61-2.65-0.96-3.39-1.95c-0.2-0.27-0.54-0.4-0.86-0.22c-0.27,0.15-0.43,0.59-0.22,0.86c0.81,1.08,1.74,2.31,3.15,2.6
			c1.25,0.26,2.66-0.21,3.09-1.51c0.46-1.38-0.35-2.74-1.41-3.58c-0.95-0.75-2.45-1.19-2.38-2.63c0.06-1.16,1.52-1.84,2.41-1.02
			C410.99,453.37,411.88,452.49,411.29,451.94L411.29,451.94z"/>
	</g>
</g>
<g>
	<g>
		<path class="st24" d="M415.72,452.95c-0.49,2.85-0.84,5.73-1.03,8.62c-0.05,0.8,1.2,0.8,1.25,0c0.19-2.78,0.51-5.54,0.98-8.29
			C417.06,452.5,415.85,452.16,415.72,452.95L415.72,452.95z"/>
	</g>
</g>
<g>
	<g>
		<path class="st24" d="M413.21,453.86c2.02-0.07,4.04,0.02,6.04,0.3c0.33,0.05,0.67-0.08,0.77-0.44c0.08-0.29-0.1-0.72-0.44-0.77
			c-2.11-0.29-4.24-0.41-6.37-0.34C412.4,452.63,412.4,453.88,413.21,453.86L413.21,453.86z"/>
	</g>
</g>
<g>
	<g>
		<path class="st24" d="M420.6,453.44c0,2.54,0.01,5.08,0.01,7.62c0,0.51,0.52,0.72,0.94,0.54c1.01-0.44,2.1-0.69,3.2-0.73
			c0.8-0.03,0.81-1.28,0-1.25c-1.34,0.05-2.61,0.36-3.83,0.9c0.31,0.18,0.63,0.36,0.94,0.54c0-2.54-0.01-5.08-0.01-7.62
			C421.85,452.63,420.6,452.63,420.6,453.44L420.6,453.44z"/>
	</g>
</g>
<g>
	<g>
		<path class="st24" d="M433.47,454.29c0,2.35,0,4.71,0,7.06c0,0.8,1.25,0.81,1.25,0c0-2.35,0-4.71,0-7.06
			C434.72,453.49,433.47,453.49,433.47,454.29L433.47,454.29z"/>
	</g>
</g>
<g>
	<g>
		<path class="st24" d="M437.93,461.56c-0.1-2.48-0.2-4.99,0.28-7.45c-0.4,0-0.8,0-1.21,0c1.07,2.7,2.3,5.33,3.69,7.87
			c0.32,0.59,1.11,0.26,1.16-0.32c0.24-2.35,0.47-4.71,0.71-7.06c0.03-0.34-0.31-0.62-0.62-0.62c-0.37,0-0.59,0.29-0.62,0.62
			c-0.24,2.35-0.47,4.71-0.71,7.06c0.39-0.11,0.78-0.21,1.16-0.32c-1.34-2.45-2.53-4.98-3.56-7.57c-0.1-0.26-0.31-0.46-0.6-0.46
			c-0.26,0-0.55,0.19-0.6,0.46c-0.5,2.57-0.42,5.18-0.32,7.78C436.71,462.37,437.97,462.37,437.93,461.56L437.93,461.56z"/>
	</g>
</g>
<g>
	<g>
		<path class="st24" d="M446.64,462.53c0.03-2.39,0.06-4.78,0.08-7.17c0.01-0.8-1.24-0.81-1.25,0c-0.03,2.39-0.06,4.78-0.08,7.17
			C445.38,463.33,446.63,463.33,446.64,462.53L446.64,462.53z"/>
	</g>
</g>
<g>
	<g>
		<path class="st24" d="M443.8,455.52c1.79,0.19,3.56,0.57,5.28,1.1c0.77,0.24,1.1-0.97,0.33-1.21c-1.83-0.57-3.71-0.95-5.61-1.15
			c-0.34-0.04-0.62,0.31-0.62,0.62C443.17,455.26,443.46,455.48,443.8,455.52L443.8,455.52z"/>
	</g>
</g>
<g>
	<path class="st99" d="M439.76,338.87c0.33-1.17,0-2.02,0.76-3.28c0.68-1.13,2.09-1.6,3.28-1.01c1.01,0.5,1.69,1.87,0.76,3.28
		c-1.01,1.51-2.52,1.26-3.28,2.27c-0.97,1.29-1.76,2.77-2.52,3.78c-0.25,0.25-0.8,0.12-1.01,0s-0.5-0.5-0.5-0.76
		C437.99,341.9,439.43,340.04,439.76,338.87z"/>
</g>
<g>
	<path class="st37" d="M402.14,330.84c3.6-1.29,7.05-1.41,10.53-0.66c0.49,0.11,0.98,0.23,1.47,0.34c1.15,0.26,3.03,0.69,4.2,0.79
		c-1.62-0.75-3.65-2.29-5.29-2.99c-1.27-0.55-2.68-0.72-4.06-0.66c-1.38,0.06-2.77,0.26-4.01,0.88
		C403.98,329.05,402.97,329.55,402.14,330.84z"/>
</g>
<g>
	<path class="st100" d="M401.43,323.42c-0.48,0.34-0.55,1.1-0.38,1.62c0.16,0.52,0.55,0.73,1.08,0.61c0.59-0.13,1.5-0.3,1.85-0.38
		c3.26-0.75,5.83-0.98,9.15-0.5c2.81,0.41,5.51,1.53,8.32,1.84c0.31,0.03,0.55-0.12,0.26-0.25c-1.25-0.58-3.62-1.61-5.14-2.09
		C411.03,322.5,401.91,323.08,401.43,323.42z"/>
</g>
<g>
	<path class="st38" d="M400.96,356.51c-0.76,0-1.86-0.57-2.52-1.01c-0.76-0.5-1.51-0.5-1.76-1.51c-0.12-0.49,0.16-0.66,0.25-0.76
		c0.22-0.22,0.79-0.37,1.88-0.02c1.65,0.53,2.76,2.09,4.31,2.87c-0.7,0.59-1.12,1.43-1.64,2.18c-0.52,0.75-1.87,1.98-2.78,2.03
		L400.96,356.51z"/>
</g>
<g>
	<path class="st101" d="M411.95,405.68c3.9,6.2,6.78,13.87,7.34,21.17c-1.81-6.91-4.65-14.18-7.5-20.73L411.95,405.68z"/>
</g>
<text transform="matrix(1 0 0 1 -84.4215 12.5967)" style="font-family:'MyriadPro-Regular'; font-size:3.0233px;">v</text>
</svg>
