<svg xmlns="http://www.w3.org/2000/svg" width="20" height="16" viewBox="0 0 20 16">
    <g fill="none">
        <path fill="#95BD36" stroke="#9CB63F" stroke-width=".3" d="M1.005 3.136C.935 2.773.876 2.409.827 2.04 3.26.298 6.145.731 9.085 1.121 15.8 3.602 21.391 9.303 20.782 12.033c-.586 2.622-7.262 4.174-11.64.828-3.465-2.65-3.373-6.754-7.526-9.372-.205-.13-.409-.245-.611-.353z" transform="rotate(5 10.5 -3.452)"/>
        <path fill="#457A00" d="M2.404 3.069c-.05-.298-.095-.598-.133-.9.434-.332.892-.6 1.368-.799 6.442 2.165 12.395 6.858 17.632 12.447-2.007 1.844-7.114 2.447-10.68-.451-3.424-2.783-3.333-7.093-7.435-9.843-.254-.17-.504-.32-.752-.454z" transform="rotate(5 10.5 -3.452)"/>
        <path fill="#5C8000" d="M1.37 3.294c-.085-.425-.156-.853-.214-1.283.023-.017.046-.038.07-.054 1.01.54 1.977 1.202 2.892 1.976.22.152.443.296.667.438.298.315.614.6.944.854.494.462.996.918 1.506 1.355.063.055.126.11.19.163.46.389.929.756 1.405 1.1.236.196.632.483.722.565.467.436.956.834 1.463 1.189.146.099.298.189.449.282 2.243 1.985 5.63 4.321 8.264 3.31l.428.325c-2.074 1.733-7.194 2.275-10.778-.484-3.473-2.674-3.38-6.817-7.541-9.46-.157-.099-.312-.19-.466-.276z" transform="rotate(5 10.5 -3.452)"/>
    </g>
</svg>
