<?xml version="1.0" encoding="utf-8"?>
<!-- Generator: Adobe Illustrator 19.2.1, SVG Export Plug-In . SVG Version: 6.00 Build 0)  -->
<!DOCTYPE svg PUBLIC "-//W3C//DTD SVG 1.1//EN" "http://www.w3.org/Graphics/SVG/1.1/DTD/svg11.dtd">
<svg version="1.1" id="Layer_1" xmlns="http://www.w3.org/2000/svg" xmlns:xlink="http://www.w3.org/1999/xlink" x="0px" y="0px"
	 viewBox="0 0 27.4 27.4" style="enable-background:new 0 0 27.4 27.4;" xml:space="preserve">
<style type="text/css">
	.st0{fill:#72A643;}
</style>
<g id="_x30_AKKHx_7_">
	<g>
		<path class="st0" d="M27.4,13.7c0.1,7.3-6.1,13.8-14,13.6C6.1,27.2,0,21.2,0,13.7C0,6,6.3-0.1,14,0C21.8,0.2,27.6,6.8,27.4,13.7z
			 M13.7,7.4c-2.4,0-4.7,0-7.1,0c-1,0-1.3,0.3-1.3,1.3c0,3.5,0,7,0,10.5c0,0.9,0.3,1.2,1.2,1.2c4.8,0,9.6,0,14.4,0c0.9,0,1-0.2,1-1
			c0-3.5,0-7.1,0-10.6c0-1.3,0-1.3-1.4-1.3C18.2,7.4,16,7.4,13.7,7.4z"/>
		<path class="st0" d="M15.5,13.9c1.8,1.6,3.5,3.2,5.2,4.7c0.1,0.1,0.2,0.4,0.2,0.4c-0.1,0.1-0.3,0.2-0.5,0.3c-0.1,0-0.2,0-0.4,0
			c-4.3,0-8.6,0-12.8,0c-0.3,0-0.5-0.1-0.8-0.2c0.2-0.2,0.3-0.5,0.5-0.7c1.6-1.5,3.3-3,4.9-4.4c0.4,0.4,0.8,0.7,1.2,1
			c0.4,0.4,0.8,0.4,1.2,0C14.7,14.6,15.1,14.3,15.5,13.9z"/>
		<path class="st0" d="M20,8.5c-2.2,1.9-4.2,3.7-6.3,5.5c-2.1-1.8-4.2-3.6-6.4-5.5C11.6,8.5,15.7,8.5,20,8.5z"/>
		<path class="st0" d="M16.4,13.2c1.5-1.3,3-2.6,4.5-4c0,2.7,0,5.3,0,8C19.4,15.9,17.9,14.6,16.4,13.2z"/>
		<path class="st0" d="M6.5,17.3c0-2.7,0-5.3,0-8c1.6,1.3,3,2.6,4.6,3.9C9.5,14.5,8.1,15.9,6.5,17.3z"/>
	</g>
</g>
</svg>
