<svg xmlns="http://www.w3.org/2000/svg" width="369" height="206" viewBox="0 0 369 206">
    <g fill="none" fill-rule="evenodd">
        <path fill="#FAFBFB" fill-rule="nonzero" stroke="#E5E5E5" d="M333.9 168.4H35.5V8.7C35.5 4.4 39 1 43.2 1h282.9c4.3 0 7.7 3.5 7.7 7.7v159.7h.1zM367.8 199.8H1.3c-.1 0-.1-.1 0-.1l34.1-31.2h298.3l34.1 31.3c0-.1 0 0 0 0z"/>
        <path fill="#E5E5E5" fill-rule="nonzero" stroke="#E5E5E5" d="M366.7 204.7H2.4c-.7 0-1.2-.5-1.2-1.2V201c0-.7.5-1.2 1.2-1.2h364.2c.7 0 1.2.5 1.2 1.2v2.5c.1.7-.5 1.2-1.1 1.2z"/>
        <path fill="#FAFBFB" fill-rule="nonzero" stroke="#E5E5E5" d="M319.6 160.5H49.8c-2.1 0-3.8-1.7-3.8-3.8V19.3c0-2.1 1.7-3.8 3.8-3.8h269.8c2.1 0 3.8 1.7 3.8 3.8v137.4c0 2.1-1.7 3.8-3.8 3.8z"/>
        <path fill="#FFF" fill-rule="nonzero" stroke="#E5E5E5" d="M97.6 160.5H47.8c-1 0-1.7-.8-1.7-1.7V17.3c0-1 .8-1.7 1.7-1.7h49.8v144.9z"/>
        <g fill="#145C2F" fill-rule="nonzero">
            <path d="M57.9 23.7c-.4 0-.6.2-.8.5-.1-.3-.3-.4-.6-.4-.3-.1-.6 0-.7 0 0 .1.1.3.3.6.1.2.1.4.1.5v2.2h1.1v-2.2c.1-.2.2-.4.4-.5.1-.1.3-.1.5-.1l.1.2c-.2 0-.4 0-.5.1-.1.1-.1.2-.1.3v.3h.4c.3-.1.5-.2.6-.4.2-.2.3-.6.3-.9-.4-.1-.7-.2-1.1-.2zM65.2 24.1c.2.3.4.7.4 1.2 0 .2 0 .5-.1.7l-.3.6c-.1.2-.3.3-.5.4-.2.1-.4.1-.7.1-.3 0-.5 0-.7-.1-.2-.1-.3-.2-.5-.3-.1-.1-.2-.3-.3-.5-.1-.2-.1-.4-.1-.7 0-.2 0-.5.1-.7l.3-.6c.1-.2.3-.3.5-.4.2-.1.4-.1.7-.1.6 0 .9.1 1.2.4zm-1.4.4c-.1 0-.1.1-.1.2s0 .2-.1.3v.8c0 .1 0 .2.1.3 0 .1.1.2.1.2.1.1.1.1.2.1s.1 0 .2-.1.1-.1.1-.2 0-.2.1-.3v-.3-.4c0-.1 0-.2-.1-.3 0-.1-.1-.2-.1-.2-.1-.1-.1-.1-.2-.1-.1-.1-.2 0-.2 0zM61.8 24.1c.2.3.4.7.4 1.2 0 .2 0 .5-.1.7l-.3.6c-.1.2-.3.3-.5.4-.2.1-.4.1-.7.1-.3 0-.5 0-.7-.1-.2-.1-.3-.2-.5-.3-.1-.1-.2-.3-.3-.5-.1-.2-.1-.4-.1-.7 0-.2 0-.5.1-.7l.3-.6c.1-.2.3-.3.5-.4.2-.1.4-.1.7-.1.5 0 .9.1 1.2.4zm-1.4.4c-.1 0-.1.1-.1.2s0 .2-.1.3v.8c0 .1 0 .2.1.3 0 .1.1.2.1.2.1.1.1.1.2.1s.1 0 .2-.1c.1 0 .1-.1.1-.2s0-.2.1-.3v-.3-.4c0-.1 0-.2-.1-.3 0-.1-.1-.2-.1-.2-.1-.1-.1-.1-.2-.1-.1-.1-.2 0-.2 0zM70.8 23.7h1v1.7c0 .3 0 .5.1.7 0 .2.1.3.1.4.1.1.1.2.2.3l-.8.3s-.1-.1-.1-.2c0 0-.1-.1-.1-.2s-.1-.2-.1-.3c-.1.2-.3.4-.5.4-.2.1-.4.1-.6.1-.2 0-.3 0-.4-.1-.1-.1-.2-.1-.3-.2-.1-.1-.1-.2-.2-.4v-2.7h1v2.1c0 .2 0 .3.1.4.1.1.1.1.2.1s.2-.1.3-.2c.1-.2.2-.4.2-.7l-.1-1.5zM72.8 28.5v-3.2c0-.3 0-.5-.1-.7 0-.2-.1-.3-.1-.4-.1-.1-.1-.2-.2-.3l.8-.3c.1.1.1.1.1.2s.1.1.1.2.1.2.1.3l.3-.6c.1-.2.3-.2.6-.2.2 0 .4 0 .5.1.2.1.3.2.4.3.1.1.2.3.2.5.1.2.1.4.1.7 0 .2 0 .5-.1.7l-.3.6c-.1.2-.3.3-.5.4-.2.1-.4.1-.6.1h-.3v1.3l-1 .3zm1.4-4l-.2.2c-.1.1-.1.2-.1.3V26.2h.2c.1 0 .2 0 .3-.1l.2-.2c0-.1.1-.2.1-.3v-.4-.4-.3c0-.1-.1-.2-.1-.2 0-.1-.1-.1-.2-.1-.1.2-.2.3-.2.3zM65.9 23.7h.5l.2-.9.9-.1v1.1h.8l-.1.8h-.7V26c0 .2.1.3.2.3s.2-.1.3-.1c.1-.1.2-.1.2-.2l.3.8c-.2.2-.6.4-1 .4-.6 0-1-.4-1-1.1v-1.5H66v-.9h-.1z"/>
        </g>
        <path fill="#E5E5E5" fill-rule="nonzero" d="M72 34.8H56.1c-.3 0-.5-.2-.5-.5v-1.7c0-.3.2-.5.5-.5H72c.3 0 .5.2.5.5v1.7c-.1.3-.3.5-.5.5z"/>
        <path fill="#FAFBFB" fill-rule="nonzero" d="M46.7 39.8h50.2v14.6H46.7z"/>
        <path fill="#E5E5E5" fill-rule="nonzero" d="M82.8 49.2H56.3c-.4 0-.7-.3-.7-.7v-3c0-.4.3-.7.7-.7h26.5c.4 0 .7.3.7.7v3c0 .4-.3.7-.7.7zM82.7 62H56.4c-.4 0-.8-.3-.8-.8v-2.8c0-.4.3-.8.8-.8h26.3c.4 0 .8.3.8.8v2.8c0 .5-.4.8-.8.8zM82.6 74.9H56.5c-.5 0-.9-.4-.9-.9v-2.6c0-.5.4-.9.9-.9h26.1c.5 0 .9.4.9.9V74c0 .5-.4.9-.9.9zM82.7 86.9H56.4c-.4 0-.8-.4-.8-.8v-2.7c0-.4.4-.8.8-.8h26.3c.4 0 .8.4.8.8v2.7c0 .4-.4.8-.8.8zM66.1 37.3H55.9c-.2 0-.3-.1-.3-.3v-.7c0-.2.1-.3.3-.3h10.2c.2 0 .3.1.3.3v.7c0 .2-.1.3-.3.3zM160.4 27.5h-33.1c-.4 0-.8-.3-.8-.8v-2.9c0-.4.3-.8.8-.8h33.1c.4 0 .8.3.8.8v2.9c0 .4-.3.8-.8.8zM160.4 80.7h-33.1c-.4 0-.7-.3-.7-.7v-2.9c0-.4.3-.7.7-.7h33.1c.4 0 .7.3.7.7V80c.1.4-.2.7-.7.7z"/>
        <path fill="#F2F2F3" fill-rule="nonzero" d="M293.7 72.4H131.3c-2.6 0-4.7-2.1-4.7-4.7V38.8c0-2.6 2.1-4.7 4.7-4.7h162.4c2.6 0 4.7 2.1 4.7 4.7v28.9c-.1 2.6-2.2 4.7-4.7 4.7z"/>
        <path fill="#FFF" fill-rule="nonzero" d="M292.5 70.6H131.3c-2.6 0-4.7-2.1-4.7-4.7V36.8c0-2.6 2.1-4.7 4.7-4.7h161.2c2.6 0 4.7 2.1 4.7 4.7v29.1c0 2.6-2.1 4.7-4.7 4.7z"/>
        <path fill="#F2F2F3" fill-rule="nonzero" d="M293.7 145H131.3c-2.6 0-4.7-2.1-4.7-4.7V92.4c0-2.6 2.1-4.7 4.7-4.7h162.4c2.6 0 4.7 2.1 4.7 4.7v47.9c-.1 2.6-2.2 4.7-4.7 4.7z"/>
        <path fill="#FFF" fill-rule="nonzero" d="M292.5 142.3H131.3c-2.6 0-4.7-2.1-4.7-4.7V89.4c0-2.6 2.1-4.7 4.7-4.7h161.2c2.6 0 4.7 2.1 4.7 4.7v48.2c0 2.6-2.1 4.7-4.7 4.7z"/>
        <path fill="#FAFBFB" fill-rule="nonzero" d="M168.1 142.3h-36.8c-2.6 0-4.7-2.1-4.7-4.7V89.4c0-2.6 2.1-4.7 4.7-4.7h36.8v57.6z"/>
        <path fill="#E5E5E5" fill-rule="nonzero" d="M201.7 95.7h-23.2c-.4 0-.7-.3-.7-.7v-3c0-.4.3-.7.7-.7h23.2c.4 0 .7.3.7.7v3c.1.4-.3.7-.7.7zM227.1 41.5h-32.2c-.4 0-.7-.3-.7-.7v-3c0-.4.3-.7.7-.7h32.2c.4 0 .7.3.7.7v3c0 .3-.3.7-.7.7zM227.1 46.5h-32.2c-.4 0-.7-.3-.7-.7V45c0-.4.3-.7.7-.7h32.2c.4 0 .7.3.7.7v.8c0 .4-.3.7-.7.7zM227.1 49.7h-32.2c-.4 0-.7-.3-.7-.7v-.8c0-.4.3-.7.7-.7h32.2c.4 0 .7.3.7.7v.8c0 .4-.3.7-.7.7zM227.1 52.7h-32.2c-.4 0-.7-.3-.7-.7v-.8c0-.4.3-.7.7-.7h32.2c.4 0 .7.3.7.7v.8c0 .4-.3.7-.7.7z"/>
        <path fill="#FFF" fill-rule="nonzero" d="M168.1 84.7h-35.7c-3.2 0-5.8 2.6-5.8 5.8v4.6h41.5V84.7z"/>
        <path fill="#E5E5E5" fill-rule="nonzero" d="M158.9 91.9h-23.2c-.4 0-.7-.3-.7-.7v-3c0-.4.3-.7.7-.7h23.2c.4 0 .7.3.7.7v3c0 .4-.3.7-.7.7zM202.1 116.8h-23.9c-.2 0-.3-.2-.3-.3V115c0-.2.2-.3.3-.3h23.9c.2 0 .3.2.3.3v1.5c.1.1-.1.3-.3.3zM202 120.1h-23.6c-.3 0-.5-.2-.5-.5v-1.2c0-.3.2-.5.5-.5H202c.3 0 .5.2.5.5v1.2c0 .3-.3.5-.5.5zM202 123.4h-23.7c-.3 0-.5-.2-.5-.5v-1.3c0-.3.2-.5.5-.5H202c.3 0 .5.2.5.5v1.3c0 .3-.3.5-.5.5z"/>
        <path fill="#145C2F" fill-rule="nonzero" d="M201.6 136.5h-22.8c-.5 0-.9-.4-.9-.9v-2.4c0-.5.4-.9.9-.9h22.8c.5 0 .9.4.9.9v2.4c0 .5-.4.9-.9.9z"/>
        <path stroke="#E5E5E5" stroke-width=".5" d="M194 129.3h-7.6c-.3 0-.6-.3-.6-.6v-2.1c0-.3.3-.6.6-.6h7.6c.3 0 .6.3.6.6v2.1c-.1.4-.3.6-.6.6zM215.2 91.3V134M287 134h-71.8"/>
        <path stroke="#EDEDED" stroke-width=".5" d="M126.6 104.7h41.5M126.6 112.9h41.5M126.6 122.3h41.5M126.6 95.2h41.5M126.6 131.8h41.5"/>
        <path stroke="#145C2F" stroke-width=".5" d="M215.2 134.6s15.8-12.7 24.7-16c8.9-3.3 24.3-2.8 24.3-2.8"/>
        <path fill="#E5E5E5" fill-rule="nonzero" d="M285.9 62.6H136.1c-.6 0-1.1-.5-1.1-1.1v-3.3c0-.6.5-1.1 1.1-1.1h149.7c.6 0 1.1.5 1.1 1.1v3.3c.1.6-.4 1.1-1 1.1z"/>
        <path fill="#145C2F" fill-rule="nonzero" d="M206.4 62.6h-70.2c-.6 0-1.1-.5-1.1-1.1v-3.3c0-.6.5-1.1 1.1-1.1h70.2c.6 0 1.1.5 1.1 1.1v3.3c-.1.6-.5 1.1-1.1 1.1z"/>
    </g>
</svg>
