<svg xmlns="http://www.w3.org/2000/svg" width="53" height="53" viewBox="0 0 53 53">
    <g fill="none" fill-rule="evenodd">
        <circle cx="26.5" cy="26.5" r="26.5" fill="#105B2F"/>
        <path d="M19 15h16v24H19z"/>
        <path fill="#FFF" fill-rule="nonzero" d="M21.458 19.595a1.53 1.53 0 0 1-.05-2.128 1.445 1.445 0 0 1 2.077-.052c6.046 5.99 9.078 8.994 9.094 9.012.58.62.558 1.605-.048 2.199l-9.046 8.957a1.445 1.445 0 0 1-2.078-.048 1.53 1.53 0 0 1 .047-2.128l7.499-7.554a.5.5 0 0 0 0-.704l-7.495-7.554z"/>
    </g>
</svg>
