<svg xmlns="http://www.w3.org/2000/svg" width="15" height="16" viewBox="0 0 15 16">
    <g fill="#0E5B2C" fill-rule="evenodd">
        <path d="M12.52 6.241c-.466-3.14-2.346-4.254-3.668-4.641v-.371C8.813.544 8.222 0 7.5 0c-.723 0-1.313.544-1.352 1.229v.37c-1.322.388-3.202 1.493-3.669 4.642C1.92 10.026.777 11.61.264 12.153a.938.938 0 0 0-.264.66v.264c0 .51.389.923.87.923h13.26c.481 0 .87-.412.87-.923v-.264a.938.938 0 0 0-.264-.66c-.513-.544-1.656-2.127-2.215-5.912zM6.996 16A2.003 2.003 0 0 0 9 14H5c-.007 1.104.89 2 1.996 2z"/>
    </g>
</svg>
