<svg xmlns="http://www.w3.org/2000/svg" width="17" height="18" viewBox="0 0 17 18">
    <g fill="none" fill-rule="evenodd" stroke="#979797">
        <path d="M13.52 7.241c-.466-3.14-2.346-4.254-3.668-4.641v-.371C9.813 1.544 9.222 1 8.5 1c-.723 0-1.313.544-1.352 1.229v.37c-1.322.388-3.202 1.493-3.669 4.642-.56 3.785-1.702 5.368-2.215 5.912a.938.938 0 0 0-.264.66v.264c0 .51.389.923.87.923h13.26c.481 0 .87-.412.87-.923v-.264a.938.938 0 0 0-.264-.66c-.513-.544-1.656-2.127-2.215-5.912zM7.996 17A2.003 2.003 0 0 0 10 15H6c-.007 1.104.89 2 1.996 2z"/>
    </g>
</svg>
