<svg xmlns="http://www.w3.org/2000/svg" width="38" height="39" viewBox="0 0 38 39">
    <g fill="none" fill-rule="evenodd" stroke="#000" stroke-width="1.5">
        <path d="M31.05 15.266c-1.12-7.18-5.633-9.724-8.804-10.61v-.848C22.152 2.244 20.735 1 19 1s-3.152 1.244-3.246 2.808v.848c-3.17.886-7.685 3.411-8.804 10.61-1.343 8.65-4.085 12.269-5.316 13.513-.41.395-.634.942-.634 1.507v.603C1 32.058 1.933 33 3.09 33h31.82c1.157 0 2.09-.942 2.09-2.11v-.604c0-.565-.224-1.112-.634-1.507-1.231-1.244-3.973-4.863-5.316-13.513zM18.99 38c2.765 0 5.01-2.24 5.01-5H14c-.018 2.76 2.226 5 4.99 5z"/>
    </g>
</svg>
