<?xml version="1.0" encoding="utf-8"?>
<!-- Generator: Adobe Illustrator 19.2.1, SVG Export Plug-In . SVG Version: 6.00 Build 0)  -->
<!DOCTYPE svg PUBLIC "-//W3C//DTD SVG 1.1//EN" "http://www.w3.org/Graphics/SVG/1.1/DTD/svg11.dtd">
<svg version="1.1" id="Layer_1" xmlns="http://www.w3.org/2000/svg" xmlns:xlink="http://www.w3.org/1999/xlink" x="0px" y="0px"
	 viewBox="0 0 27.4 27.4" style="enable-background:new 0 0 27.4 27.4;" xml:space="preserve">
<style type="text/css">
	.st0{fill:#72A643;}
</style>
<path class="st0" d="M13.7,0C6.2,0,0,6.1,0,13.6c0,5.6,3.3,10.5,8.2,12.6c0-0.5,0-1.3,0-1.7c0-1.1,0.4-2.2,0.6-3.3
	c0.4-1.8,0.9-3.6,1.3-5.5c0-0.1,0-0.3,0-0.4c-0.4-1.2-0.5-2.4,0-3.6c0.2-0.5,0.5-1,1-1.4c0.4-0.3,0.9-0.5,1.5-0.5
	c1,0.1,1.6,0.7,1.7,1.7c0.1,0.7-0.1,1.4-0.3,2.1c-0.3,0.9-0.5,1.9-0.8,2.8c-0.3,0.9-0.2,1.7,0.5,2.3c0.7,0.6,1.5,0.7,2.4,0.5
	c0.7-0.2,1.2-0.7,1.7-1.2c0.5-0.6,0.9-1.4,1.2-2.2c0.5-1.5,0.7-3,0.5-4.6c-0.2-1.9-1.3-3.3-3.1-3.9C14,6.5,11.7,6.7,9.7,8.2
	c-2.1,1.5-2.9,3.7-2.5,6.3C7.4,15.1,7.6,15.6,8,16c0.2,0.3,0.3,0.6,0.2,0.9c-0.1,0.3-0.2,0.6-0.2,1c-0.1,0.4-0.4,0.5-0.7,0.4
	c-0.8-0.4-1.5-1-1.9-1.8c-0.7-1.3-0.9-2.7-0.8-4.1c0.3-3.1,2.6-6.5,6.9-7.5c2.3-0.5,4.6-0.5,6.8,0.5c2.4,1.1,4,3,4.5,5.6
	c0.4,2,0,4-0.7,5.8c-0.5,1.2-1.2,2.3-2.1,3.1c-1.1,1-2.4,1.5-3.8,1.6c-1.6,0.1-2.9-0.3-3.9-1.6c-0.6,2.2-1,4.7-2.4,6.7
	c1.2,0.4,2.5,0.6,3.9,0.6c7.6,0,13.7-6.1,13.7-13.7C27.4,5.9,21.1,0,13.7,0z"/>
</svg>
