<?xml version="1.0" standalone="no"?>
<!DOCTYPE svg PUBLIC "-//W3C//DTD SVG 20010904//EN"
 "http://www.w3.org/TR/2001/REC-SVG-20010904/DTD/svg10.dtd">
<svg version="1.0" xmlns="http://www.w3.org/2000/svg"
 width="86.000000pt" height="83.000000pt" viewBox="0 0 86.000000 83.000000"
 preserveAspectRatio="xMidYMid meet">

<g transform="translate(0.000000,83.000000) scale(0.100000,-0.100000)"
fill="#000000" stroke="none">
<path d="M383 740 c-25 -10 -75 -75 -106 -138 -15 -30 -27 -42 -38 -39 -14 4
-17 -8 -22 -77 -3 -44 -4 -83 -1 -85 3 -4 26 11 128 82 8 5 6 12 -6 21 -16 12
-14 18 25 81 68 111 79 110 149 -6 l40 -68 31 16 c18 8 34 17 36 19 4 4 -69
128 -91 154 -37 46 -93 61 -145 40z"/>
<path d="M603 430 c6 -87 10 -101 29 -82 9 9 22 -7 55 -68 36 -66 42 -83 33
-100 -10 -18 -21 -20 -105 -20 l-95 0 0 -40 0 -40 94 0 c112 0 149 11 176 55
31 51 26 89 -26 177 -35 60 -44 82 -35 92 9 10 -4 23 -60 61 l-72 47 6 -82z"/>
<path d="M390 420 c-25 -25 -29 -130 -5 -154 41 -41 107 -18 113 40 4 43 -19
68 -62 68 -37 0 -42 12 -13 30 12 8 21 5 37 -9 27 -25 46 -8 24 23 -19 28 -67
29 -94 2z m80 -105 c0 -26 -29 -46 -51 -35 -24 13 -25 46 -2 59 21 11 53 -3
53 -24z"/>
<path d="M133 318 c-51 -90 -58 -117 -43 -162 19 -58 51 -76 135 -76 91 0 135
-9 135 -26 0 -10 23 -2 75 23 41 21 75 40 75 44 0 7 -137 69 -152 69 -5 0 -6
-9 -3 -20 6 -19 2 -20 -84 -20 -81 0 -91 2 -101 20 -9 17 -4 35 32 101 l43 80
-25 19 c-14 11 -30 20 -36 20 -5 0 -29 -33 -51 -72z"/>
</g>
</svg>
