<?xml version="1.0" standalone="no"?>
<!DOCTYPE svg PUBLIC "-//W3C//DTD SVG 20010904//EN"
 "http://www.w3.org/TR/2001/REC-SVG-20010904/DTD/svg10.dtd">
<svg version="1.0" xmlns="http://www.w3.org/2000/svg"
 width="85.000000pt" height="83.000000pt" viewBox="0 0 85.000000 83.000000"
 preserveAspectRatio="xMidYMid meet">

<g transform="translate(0.000000,83.000000) scale(0.100000,-0.100000)"
fill="#000000" stroke="none">
<path d="M341 744 c-17 -14 -50 -57 -72 -96 -25 -43 -46 -68 -54 -65 -13 6
-25 -52 -25 -125 l0 -39 70 48 c60 42 68 50 55 62 -13 13 -12 19 7 50 85 144
94 145 172 13 l38 -63 31 21 c18 11 31 24 30 28 -6 27 -80 136 -110 162 -45
40 -98 41 -142 4z"/>
<path d="M574 484 c3 -26 6 -64 6 -86 0 -35 2 -38 20 -28 19 10 30 -5 107
-143 3 -5 -3 -17 -13 -28 -14 -16 -31 -19 -106 -19 l-88 0 0 -40 0 -40 83 0
c136 0 191 28 203 102 6 35 -17 92 -72 179 -17 27 -20 39 -11 48 6 6 9 12 6
14 -29 23 -127 87 -133 87 -5 0 -6 -21 -2 -46z"/>
<path d="M362 448 c-7 -7 -12 -18 -12 -25 0 -15 26 -18 35 -3 3 6 15 10 26 10
25 0 25 -30 -1 -37 -27 -7 -25 -31 3 -35 32 -4 31 -52 -1 -56 -13 -2 -25 3
-28 12 -3 9 -12 16 -20 16 -17 0 -18 -32 -2 -48 16 -16 80 -16 96 0 14 14 16
74 2 83 -5 3 -7 19 -3 35 3 18 0 36 -7 45 -15 18 -71 20 -88 3z"/>
<path d="M127 373 c-67 -105 -81 -162 -55 -218 19 -42 56 -55 157 -55 72 0 92
-3 99 -16 8 -14 18 -11 80 20 40 20 72 39 72 42 0 6 -125 64 -140 64 -5 0 -10
-9 -10 -20 0 -18 -7 -20 -83 -20 -122 0 -130 15 -67 130 22 40 40 74 40 76 0
4 -57 34 -64 34 -3 0 -16 -17 -29 -37z"/>
</g>
</svg>
