<?xml version="1.0" encoding="utf-8"?>
<!-- Generator: Adobe Illustrator 23.0.6, SVG Export Plug-In . SVG Version: 6.00 Build 0)  -->
<svg version="1.1" id="Layer_1" xmlns="http://www.w3.org/2000/svg" xmlns:xlink="http://www.w3.org/1999/xlink" x="0px" y="0px"
	 viewBox="121 77.5 26.2 26.2" style="enable-background:new 0 0 274.1 196.4;" xml:space="preserve">
<style type="text/css">
	.st0{fill:#105B2F;}
	.st1{fill:#FFFFFF;}
</style>
<path class="st0" d="M145.3,103.6h-22.5c-0.5,0-0.9-0.2-1.2-0.5c-0.3-0.3-0.5-0.8-0.5-1.2V79.4c0-0.4,0.2-0.8,0.4-1.2
	c0.3-0.4,0.8-0.6,1.3-0.6h22.5c0.2,0,0.5,0,0.7,0.1c0.6,0.3,1.1,0.9,1.1,1.6v22.5c0,0.5-0.2,0.9-0.5,1.2
	C146.2,103.4,145.8,103.6,145.3,103.6z"/>
<g>
	<g>
		<path class="st1" d="M136.6,85.6c-1.1,0.1-1.9,0.6-2.4,1.5c-0.4-0.8-0.9-1.1-1.8-1.3c-0.9-0.2-1.9,0.1-2.1,0.1
			c0.1,0.3,0.5,0.8,0.8,1.7c0.2,0.5,0.2,1.3,0.2,1.6c0,1.7,0,6.5,0,6.6h3.2c0-0.2,0-6.4,0-6.8c0.2-0.6,0.5-1.3,1.1-1.7
			c0.4-0.3,1-0.3,1.5-0.3l0.3,0.7c-0.6,0-1.1,0-1.5,0.5c-0.3,0.3-0.4,0.6-0.5,1c0,0.2,0,0.8,0,1c0.3,0,0.7,0.1,1.2-0.1
			c1-0.2,1.5-0.6,1.9-1.2c0.6-0.7,0.9-1.8,0.9-2.6C139,85.9,137.9,85.4,136.6,85.6z"/>
	</g>
</g>
</svg>
