<?xml version="1.0" encoding="utf-8"?>
<!-- Generator: Adobe Illustrator 23.0.6, SVG Export Plug-In . SVG Version: 6.00 Build 0)  -->
<svg version="1.1" id="Layer_1" xmlns="http://www.w3.org/2000/svg" xmlns:xlink="http://www.w3.org/1999/xlink" x="0px" y="0px"
	 viewBox="0 0 274.07 196.42" style="enable-background:new 0 0 274.07 196.42;" xml:space="preserve">
<style type="text/css">
	.st0{fill:#105B2F;}
	.st1{fill:#FFFFFF;}
</style>
<g>
	<path class="st0" d="M-318.35,561.5c-1.25,0.13-2.04,0.67-2.65,1.62c-0.46-0.88-0.94-1.21-1.96-1.46c-0.94-0.23-2.06,0.1-2.31,0.15
		c0.15,0.27,0.5,0.85,0.85,1.89c0.2,0.59,0.27,1.37,0.27,1.7c0,1.89,0.02,7.09,0.03,7.18h3.52c-0.01-0.25-0.01-7-0.01-7.45
		c0.21-0.69,0.51-1.37,1.21-1.8c0.48-0.3,1.14-0.38,1.66-0.34l0.29,0.81c-0.6-0.02-1.23,0.03-1.68,0.49
		c-0.27,0.27-0.47,0.67-0.5,1.05c-0.02,0.23-0.03,0.87-0.02,1.11c0.3,0.04,0.81,0.06,1.36-0.06c1.14-0.24,1.65-0.69,2.12-1.29
		c0.61-0.8,0.99-1.98,0.98-2.88C-315.76,561.83-316.94,561.35-318.35,561.5z"/>
</g>
<g>
	<path class="st0" d="M-281.4,576.04h-17.11c-0.25,0-0.47-0.09-0.64-0.24c-0.2-0.18-0.32-0.44-0.32-0.72v-17.11
		c0-0.27,0.11-0.51,0.28-0.68s0.42-0.28,0.68-0.28h17.11c0.24,0,0.45,0.09,0.62,0.23c0.21,0.18,0.34,0.44,0.34,0.74v17.11
		c0,0.27-0.11,0.51-0.28,0.68C-280.9,575.93-281.14,576.04-281.4,576.04z"/>
	<g>
		<path class="st1" d="M-287.82,562.46c-1.04,0.11-1.7,0.56-2.21,1.35c-0.39-0.73-0.79-1.01-1.63-1.21
			c-0.78-0.19-1.72,0.08-1.92,0.12c0.13,0.22,0.41,0.71,0.71,1.57c0.17,0.49,0.22,1.14,0.22,1.42c0,1.57,0.02,5.92,0.02,5.98h2.94
			c0-0.21-0.01-5.84-0.01-6.21c0.17-0.58,0.42-1.15,1.01-1.5c0.4-0.25,0.95-0.32,1.38-0.28l0.24,0.67c-0.5-0.01-1.02,0.03-1.4,0.41
			c-0.23,0.23-0.39,0.56-0.41,0.87c-0.02,0.19-0.02,0.73-0.02,0.93c0.25,0.04,0.67,0.05,1.13-0.05c0.95-0.2,1.38-0.57,1.76-1.07
			c0.51-0.66,0.82-1.65,0.82-2.4C-285.66,562.74-286.65,562.34-287.82,562.46z"/>
	</g>
</g>
<g>
	<g>
		<path class="st0" d="M69.49,78.34c-2.92,0.31-4.78,1.56-6.21,3.79c-1.08-2.06-2.21-2.83-4.59-3.41c-2.2-0.54-4.83,0.23-5.41,0.35
			c0.36,0.63,1.16,2,1.99,4.43c0.47,1.38,0.62,3.21,0.62,3.98c0.01,4.42,0.05,16.63,0.07,16.82h8.26
			c-0.01-0.59-0.03-16.42-0.02-17.45c0.49-1.62,1.19-3.22,2.83-4.23c1.14-0.7,2.67-0.89,3.88-0.79l0.69,1.89
			c-1.42-0.04-2.87,0.08-3.95,1.15c-0.64,0.64-1.09,1.58-1.16,2.45c-0.04,0.54-0.06,2.04-0.06,2.61c0.71,0.1,1.89,0.14,3.19-0.13
			c2.67-0.57,3.87-1.61,4.96-3.02c1.44-1.86,2.31-4.64,2.3-6.75C75.56,79.11,72.79,78,69.49,78.34z"/>
	</g>
	<path class="st0" d="M126.51,81.51c1.86,2.32,2.79,5.52,2.79,9.61c0,1.94-0.25,3.74-0.74,5.39s-1.25,3.08-2.25,4.29
		c-1.01,1.21-2.27,2.16-3.78,2.86c-1.52,0.7-3.28,1.05-5.29,1.05c-2.05,0-3.81-0.3-5.29-0.89c-1.48-0.6-2.69-1.46-3.63-2.58
		s-1.64-2.5-2.1-4.11c-0.46-1.62-0.69-3.43-0.69-5.44c0-1.94,0.25-3.75,0.74-5.42s1.24-3.11,2.25-4.32c1-1.21,2.27-2.16,3.78-2.86
		c1.52-0.7,3.3-1.05,5.34-1.05C121.7,78.03,124.65,79.19,126.51,81.51z M115.65,84.65c-0.41,0.36-0.72,0.85-0.95,1.48
		c-0.22,0.63-0.38,1.37-0.46,2.22c-0.09,0.85-0.13,1.77-0.13,2.76c0,1.02,0.05,1.99,0.15,2.91c0.1,0.92,0.28,1.72,0.54,2.4
		s0.62,1.22,1.1,1.61c0.48,0.39,1.07,0.59,1.79,0.59c0.61,0,1.12-0.19,1.53-0.56c0.41-0.37,0.72-0.88,0.95-1.51
		c0.22-0.63,0.37-1.37,0.46-2.22c0.08-0.85,0.13-1.75,0.13-2.71c0-1.06-0.05-2.04-0.15-2.94s-0.28-1.69-0.54-2.38
		c-0.26-0.68-0.62-1.22-1.1-1.61c-0.48-0.39-1.07-0.59-1.79-0.59C116.57,84.12,116.06,84.3,115.65,84.65z"/>
	<path class="st0" d="M99.75,81.51c1.86,2.32,2.79,5.52,2.79,9.61c0,1.94-0.25,3.74-0.74,5.39s-1.25,3.08-2.25,4.29
		c-1.01,1.21-2.27,2.16-3.78,2.86c-1.52,0.7-3.28,1.05-5.29,1.05c-2.05,0-3.81-0.3-5.29-0.89c-1.48-0.6-2.69-1.46-3.63-2.58
		s-1.64-2.5-2.1-4.11c-0.46-1.62-0.69-3.43-0.69-5.44c0-1.94,0.25-3.75,0.74-5.42s1.24-3.11,2.25-4.32c1-1.21,2.27-2.16,3.78-2.86
		c1.52-0.7,3.3-1.05,5.34-1.05C94.94,78.03,97.89,79.19,99.75,81.51z M88.89,84.65c-0.41,0.36-0.72,0.85-0.95,1.48
		c-0.22,0.63-0.38,1.37-0.46,2.22c-0.09,0.85-0.13,1.77-0.13,2.76c0,1.02,0.05,1.99,0.15,2.91c0.1,0.92,0.28,1.72,0.54,2.4
		s0.62,1.22,1.1,1.61c0.48,0.39,1.07,0.59,1.79,0.59c0.61,0,1.12-0.19,1.53-0.56c0.41-0.37,0.72-0.88,0.95-1.51
		c0.22-0.63,0.37-1.37,0.46-2.22c0.08-0.85,0.13-1.75,0.13-2.71c0-1.06-0.05-2.04-0.15-2.94s-0.28-1.69-0.54-2.38
		c-0.26-0.68-0.62-1.22-1.1-1.61c-0.48-0.39-1.07-0.59-1.79-0.59C89.81,84.12,89.3,84.3,88.89,84.65z"/>
	<path class="st0" d="M170.18,78.55h8.08v13.34c0,2.05,0.14,3.75,0.41,5.11s0.6,2.45,0.97,3.27c0.41,0.99,0.89,1.76,1.43,2.3
		l-6.49,2.05c-0.31-0.31-0.61-0.7-0.92-1.18c-0.27-0.37-0.55-0.86-0.82-1.46s-0.49-1.29-0.66-2.07c-0.89,1.6-2.1,2.77-3.65,3.5
		c-1.55,0.73-3.23,1.1-5.03,1.1c-1.33,0-2.46-0.21-3.4-0.64c-0.94-0.43-1.71-1.02-2.3-1.79c-0.6-0.77-1.02-1.7-1.28-2.79
		c-0.26-1.09-0.38-2.32-0.38-3.68V78.55h8.13v16c0,1.19,0.14,2.16,0.43,2.89c0.29,0.73,0.83,1.1,1.61,1.1
		c0.95,0,1.84-0.64,2.66-1.92s1.23-3.04,1.23-5.29V78.55H170.18z"/>
	<path class="st0" d="M186.13,115.5V90.92c0-2.04-0.15-3.74-0.43-5.09c-0.29-1.35-0.62-2.44-1-3.3c-0.41-0.95-0.87-1.72-1.38-2.3
		l6.49-2.05c0.41,0.41,0.78,0.9,1.12,1.48c0.27,0.48,0.54,1.08,0.82,1.81c0.27,0.73,0.48,1.58,0.61,2.53
		c0.65-1.94,1.54-3.4,2.68-4.37s2.63-1.46,4.47-1.46c1.6,0,3.01,0.31,4.22,0.92s2.21,1.48,3.02,2.58c0.8,1.11,1.4,2.45,1.79,4.01
		c0.39,1.57,0.59,3.32,0.59,5.27c0,1.91-0.31,3.69-0.92,5.34s-1.47,3.08-2.58,4.29s-2.41,2.16-3.91,2.86s-3.12,1.05-4.86,1.05
		c-0.95,0-1.84-0.1-2.66-0.31v9.92L186.13,115.5z M196.48,84.76c-0.46,0.43-0.86,0.99-1.2,1.69c-0.34,0.7-0.61,1.52-0.79,2.45
		c-0.19,0.94-0.28,1.92-0.28,2.94v6.39c0.24,0.07,0.56,0.15,0.97,0.23c0.41,0.09,0.78,0.13,1.12,0.13c0.82,0,1.5-0.18,2.04-0.54
		s0.98-0.85,1.3-1.48c0.32-0.63,0.55-1.38,0.69-2.25s0.2-1.81,0.2-2.84c0-0.95-0.02-1.87-0.05-2.76s-0.15-1.67-0.33-2.35
		c-0.19-0.68-0.45-1.23-0.79-1.64c-0.34-0.41-0.82-0.61-1.43-0.61C197.42,84.12,196.94,84.33,196.48,84.76z"/>
	<path class="st0" d="M131.94,78.76h4.17l1.2-7.27l6.66-0.99v8.25h6.07l-0.97,5.93h-5.1v10.54c0,1.93,0.39,2.5,1.59,2.58
		c0.75,0.05,1.7-0.41,2.51-0.9c0.66-0.4,1.27-0.89,1.65-1.33l2.03,6.5c-1.7,1.3-4.66,2.88-7.92,2.88c-5.03,0-7.85-2.76-7.85-8.64
		V84.68h-4.04L131.94,78.76L131.94,78.76z"/>
</g>
</svg>
