<svg xmlns="http://www.w3.org/2000/svg" width="29" height="30" viewBox="0 0 29 30">
    <g fill="none" fill-rule="evenodd">
        <path fill="#9EA69F" d="M16.81 3.599L16.096 0.202 13.097 0.202 12.383 3.599 8.384 5.372 5.671 3.304 3.386 5.52 5.385 8.622 3.672 12.611 0.387 13.202 0.245 16.452 3.672 17.19 5.385 21.179 3.529 24.281 5.528 26.497 8.527 24.577 12.097 25.906 12.954 29.599 16.238 29.747 16.81 26.202 20.665 24.429 23.521 26.349 25.806 24.281 23.95 21.179 25.378 17.338 28.948 16.599 28.805 13.349 25.378 12.463 23.95 8.77 25.806 5.668 23.664 3.304 20.808 5.224z"/>
        <path fill="#FFF" d="M20.094 14.9c0 3.142-2.462 5.688-5.498 5.688S9.1 18.042 9.1 14.9c0-3.14 2.46-5.687 5.497-5.687 3.036 0 5.498 2.547 5.498 5.688"/>
        <path fill="#AEC1B0" d="M20.094 14.9c0 3.142-2.462 5.688-5.498 5.688S9.1 18.042 9.1 14.9c0-3.14 2.46-5.687 5.497-5.687 3.036 0 5.498 2.547 5.498 5.688z"/>
    </g>
</svg>
