<?xml version="1.0" encoding="utf-8"?>
<!-- Generator: Adobe Illustrator 19.2.1, SVG Export Plug-In . SVG Version: 6.00 Build 0)  -->
<!DOCTYPE svg PUBLIC "-//W3C//DTD SVG 1.1//EN" "http://www.w3.org/Graphics/SVG/1.1/DTD/svg11.dtd">
<svg version="1.1" id="Layer_1" xmlns="http://www.w3.org/2000/svg" xmlns:xlink="http://www.w3.org/1999/xlink" x="0px" y="0px"
	 viewBox="0 0 27.4 27.4" style="enable-background:new 0 0 27.4 27.4;" xml:space="preserve">
<style type="text/css">
	.st0{fill:#72A643;}
</style>
<g id="UxMFuZ_7_">
	<g>
		<path class="st0" d="M0,13.7C0,6.2,6.1,0,13.7,0c7.5,0,13.7,6.1,13.7,13.7c0,7.6-6.1,13.7-13.7,13.7C6.1,27.4,0,21.3,0,13.7z
			 M11.1,16.9c-0.6,0.4-1.2,0.7-1.8,0.9c-0.6,0.1-1.3,0.2-2,0.3c0,0,0,0.1,0,0.1c0,0,0.1,0.1,0.1,0.1c1.1,0.6,2.3,1,3.6,1
			c1.7,0,3.3-0.3,4.7-1.3c2.1-1.5,3.2-3.7,3.4-6.3c0-0.4,0.2-0.7,0.4-1c0.3-0.2,0.5-0.5,0.7-0.8c0-0.1,0.1-0.1,0.1-0.2
			c-0.4,0.1-0.8,0.2-1.2,0.3c0,0,0-0.1,0-0.1c0.3-0.4,0.6-0.9,0.9-1.3c-0.5,0.1-1,0.3-1.4,0.5c-0.2,0.1-0.3,0-0.5-0.1
			c-0.5-0.3-1-0.6-1.6-0.7c-1.5-0.1-2.9,1-3,2.5c0,0.3,0,0.6,0,0.9c-2.3-0.2-4.1-1.2-5.6-2.9c-0.3,0.7-0.4,1.3-0.3,2
			c0.1,0.7,0.5,1.2,0.9,1.7c0,0,0,0-0.1,0.1c-0.3-0.1-0.6-0.2-1-0.3c0.1,1.4,0.8,2.2,2,2.7c-0.2,0-0.4,0-0.6,0
			c-0.4,0-0.4,0.1-0.2,0.4c0.3,0.6,0.8,1,1.4,1.2C10.6,16.7,10.9,16.8,11.1,16.9z"/>
	</g>
</g>
</svg>
