<?xml version="1.0" encoding="utf-8"?>
<!-- Generator: Adobe Illustrator 19.2.1, SVG Export Plug-In . SVG Version: 6.00 Build 0)  -->
<!DOCTYPE svg PUBLIC "-//W3C//DTD SVG 1.1//EN" "http://www.w3.org/Graphics/SVG/1.1/DTD/svg11.dtd">
<svg version="1.1" id="Layer_1" xmlns="http://www.w3.org/2000/svg" xmlns:xlink="http://www.w3.org/1999/xlink" x="0px" y="0px"
	 viewBox="0 0 27.4 27.4" style="enable-background:new 0 0 27.4 27.4;" xml:space="preserve">
<style type="text/css">
	.st0{fill:#72A643;}
</style>
<g>
	<path class="st0" d="M0,13.7C-0.1,6.1,6.3-0.1,13.8,0c7.3,0.1,13.5,6.1,13.5,13.7c0,7.5-6.3,13.8-13.9,13.7
		C6.2,27.3-0.1,21.2,0,13.7z M13.8,12.5c-1.8,0-3.6,0-5.3,0c-0.2,0-0.4,0-0.7,0.1c-1,0.3-1.6,1.1-1.6,2.2c0,1.6,0,3.1,0,4.7
		c0,0.2,0,0.5,0,0.7c0.1,1.1,1.1,1.9,2.1,1.9c0.5,0,1,0,1.5,0c0.7,0,1.4,0,2.2,0c2.2,0,4.4,0,6.6,0c0.3,0,0.6,0,0.9,0
		c0.9-0.1,1.6-0.7,1.8-1.5c0.1-0.4,0.1-0.9,0.1-1.3c0-1.5,0-2.9,0-4.4c0-0.2,0-0.5-0.1-0.7c-0.2-1-1.1-1.7-2.2-1.7
		C17.3,12.5,15.5,12.5,13.8,12.5z M10.7,11.4c0-0.3,0.1-0.5,0-0.8c-0.1-1,0-1.9,0.3-2.9c0.2-0.6,0.4-1.3,0.6-1.9
		c0.1-0.4,0.2-0.7,0.3-1.1c-0.4,0-0.7,0-1.1,0c0,0-0.1,0.1-0.1,0.1c-0.1,0.3-0.2,0.7-0.3,1c-0.1,0.4-0.2,0.8-0.3,1.2c0,0,0,0,0,0
		C9.9,6.3,9.7,5.5,9.5,4.7c-0.4,0-0.7,0-1.1,0c0,0,0,0.1,0,0.1C8.7,5.8,9,6.7,9.3,7.6c0.2,0.7,0.4,1.3,0.4,2c0,0.6,0,1.1,0,1.7
		c0,0,0,0.1,0,0.1C10,11.4,10.3,11.4,10.7,11.4z M11.7,9C11.7,9,11.8,9,11.7,9c0,0.4,0,0.8,0,1.3c0,0.4,0.1,0.8,0.5,1
		c0.3,0.2,0.6,0.3,0.9,0.3c0.7,0,1.3-0.4,1.4-1.1c0.1-0.3,0-0.7,0-1c0-0.6,0-1.1,0-1.7c0-0.8-0.6-1.3-1.3-1.4
		c-0.7,0-1.4,0.5-1.4,1.2C11.8,8.1,11.7,8.5,11.7,9z M15.3,6.5c0,0.1,0,0.3,0,0.4c0,1.1,0,2.2,0,3.2c0,0.2,0,0.5,0,0.7
		c0,0.4,0.2,0.7,0.6,0.7c0.2,0,0.4-0.1,0.6-0.2c0.1-0.1,0.2-0.1,0.4-0.2c0.2,0.3,0.5,0.4,0.8,0.3c0,0,0.1,0,0.1,0
		c0.1,0,0.2-0.1,0.2-0.2c0-1.5,0-3.1,0-4.6c0-0.1,0-0.1,0-0.2c-0.3,0-0.7,0-1,0c0,0,0,0.1,0,0.1c0,1,0,2,0,2.9c0,0.2,0,0.3,0,0.5
		c0,0.4-0.2,0.5-0.6,0.5c0-1.3,0-2.7,0-4C15.9,6.5,15.6,6.5,15.3,6.5z"/>
	<path class="st0" d="M14.9,14.2c0,0.7,0,1.3,0,2c0.1,0,0.1-0.1,0.1-0.1c0.2-0.1,0.3-0.2,0.5-0.2c0.5-0.2,1,0.1,1,0.7
		c0,1,0,2.1,0,3.1c0,0.1,0,0.2,0,0.3c-0.1,0.5-0.4,0.6-0.9,0.5c0,0-0.1,0-0.1,0c-0.3-0.2-0.5-0.1-0.8-0.1c-0.1,0-0.3,0.1-0.4,0.1
		c0-2.1,0-4.1,0-6.2C14.5,14.2,14.7,14.2,14.9,14.2z M15.8,18.2L15.8,18.2c0-0.4,0-0.8,0-1.2c0-0.1,0-0.2-0.1-0.3
		c-0.1-0.2-0.3-0.2-0.4-0.2c-0.2,0.1-0.3,0.2-0.3,0.5c0,0.8,0,1.7,0,2.5c0,0.2,0.2,0.4,0.5,0.4c0.2,0,0.4-0.1,0.4-0.4
		c0,0,0-0.1,0-0.1C15.8,19,15.8,18.6,15.8,18.2z"/>
	<path class="st0" d="M18.2,18.2c0,0.4,0,0.8,0,1.2c0,0.1,0.1,0.3,0.2,0.3c0.2,0.2,0.5,0.1,0.6-0.2c0.1-0.2,0.1-0.4,0.1-0.6
		c0-0.1,0-0.1,0.1-0.1c0.2,0,0.3,0,0.5,0c0.1,0.4,0.1,0.8-0.1,1.2c-0.2,0.4-0.6,0.5-1,0.5c-0.4,0-0.8-0.1-1-0.5
		c-0.1-0.2-0.2-0.4-0.2-0.6c0-0.9,0-1.8,0-2.7c0-0.5,0.5-1,1-1c0.2,0,0.4,0,0.6,0c0.5,0.1,0.8,0.5,0.8,1c0,0.4,0,0.9,0,1.3
		c0,0.1-0.1,0.1-0.1,0.1C19.2,18.2,18.7,18.2,18.2,18.2C18.2,18.2,18.2,18.2,18.2,18.2z M19,17.6c0-0.3,0-0.5-0.1-0.7
		c0-0.2-0.2-0.3-0.3-0.3c-0.2,0-0.4,0.2-0.4,0.3c0,0.2,0,0.5,0,0.7C18.5,17.6,18.7,17.6,19,17.6z"/>
	<path class="st0" d="M13.2,20.4c-0.2,0-0.3,0-0.5,0c-0.1,0-0.2,0-0.2-0.1c0-0.1-0.1-0.1-0.1-0.2c-0.1,0.1-0.2,0.2-0.3,0.2
		c-0.2,0.1-0.4,0.2-0.6,0.2c-0.2,0-0.4-0.1-0.5-0.3c-0.1-0.2-0.1-0.4-0.1-0.7c0-1.2,0-2.4,0-3.5c0,0,0-0.1,0-0.1c0.3,0,0.5,0,0.8,0
		c0,1.2,0,2.5,0,3.7c0.2,0,0.3,0,0.4,0c0.2,0,0.4-0.2,0.4-0.4c0-0.5,0-0.9,0-1.4c0-0.6,0-1.3,0-1.9c0.2,0,0.5,0,0.7,0
		C13.2,17.4,13.2,18.9,13.2,20.4z"/>
	<path class="st0" d="M8.8,15.1c-0.3,0-0.7-0.1-1-0.1c0-0.2,0-0.5,0-0.7c0.9,0,1.9,0,2.8,0c0,0.2,0,0.5,0,0.7
		c-0.3,0-0.6,0.1-0.9,0.1c0,1.8,0,3.5,0,5.3c-0.3,0-0.6,0-0.9,0C8.8,18.6,8.8,16.8,8.8,15.1z"/>
	<path class="st0" d="M13.5,9c0,0.4,0,0.7,0,1.1c0,0.2-0.1,0.4-0.2,0.4c-0.1,0-0.3-0.1-0.4-0.2c0,0,0-0.1,0-0.2c0-0.7,0-1.5,0-2.2
		c0-0.2,0.1-0.3,0.3-0.4c0.2-0.1,0.3,0,0.4,0.1c0,0.1,0,0.2,0,0.2C13.5,8.3,13.5,8.6,13.5,9z"/>
</g>
</svg>
