<svg xmlns="http://www.w3.org/2000/svg" width="28" height="30" viewBox="0 0 28 30">
    <g fill="none" fill-rule="nonzero">
        <path fill="#9EB8C0" d="M18.705 10.895l-5.86 6.335-2.092-1.935 5.86-6.335z"/>
        <path fill="#7D93A9" d="M18.93 11.089l-5.908 6.386-1.203-1.114 5.908-6.386z"/>
        <path fill="#9EB8C0" d="M8.06 12.38c1.94-.86 4.26.01 6.22 1.88 1.96 1.87 3.05 3.87 2.43 6.08C16.09 22.55 5.33 32.12 1.29 28c-4.04-4.12 4.07-14.42 6.77-15.62z"/>
        <path fill="#7D93A9" d="M12.12 22.32c3.41-3.74 1.78-6.56 1.9-8.31.04.03.35.33.39.37 1.9 1.84 2.92 3.79 2.3 5.97-.63 2.22-11.38 11.78-15.42 7.66 3.2-1.22 8.03-2.62 10.83-5.69z"/>
        <path fill="#D4A52A" d="M20 11.93l6.72-7.26c.29-.32.43-.72.41-1.12-.02-.4-.18-.79-.5-1.08L24.31.32c-.27-.25-.63-.34-.96-.27-.22.04-.44.15-.6.33l-7.38 7.97c-.19.21-.29.48-.27.74.01.27.12.53.33.72l2.38 2.2c.32.29.72.43 1.12.41.38 0 .78-.17 1.07-.49z"/>
        <path fill="#AC7A30" d="M19.64 12.32l7.43-8.03c.19-.21.29-.48.27-.74a1.03 1.03 0 0 0-.33-.72l-1-.93-8.83 9.55 1 .93c.2.18.45.28.7.28.28-.01.56-.12.76-.34z"/>
        <path fill="#974F15" d="M11.46 25.73c-.04-.18-.12-.36-.25-.5-.08-.1-.18-.2-.16-.32.01-.08.07-.13.13-.19.49-.48.88-1.17.72-1.84-.11-.46-.46-.9-.36-1.36.11-.51.71-.78.86-1.27.06-.21.03-.44 0-.66-.06-.34-.14-.68-.33-.97-.19-.29-.5-.52-.84-.53-.41-.01-.86.25-1.18.01-.17-.12-.23-.34-.35-.51-.32-.42-.95-.42-1.47-.33-.1.02-.2.04-.28-.01-.07-.03-.11-.1-.16-.15-.41-.47-1.16-.44-1.73-.21-.56.23-1.06.6-1.42 1.08-.08.1-.15.21-.27.25-.31.12-.56-.27-.84-.45a.874.874 0 0 0-.45-.13C.7 21.2-1.01 25.63 1.32 28c.5.51 1.11.81 1.79.94h.01c2.36.45 5.61-1.2 8.34-3.21z"/>
        <path fill="#6F281A" d="M11.46 25.73c-.04-.18-.12-.36-.25-.5-.08-.1-.18-.2-.16-.32.01-.08.07-.13.13-.19.49-.48.88-1.17.72-1.84-.11-.46-.46-.9-.36-1.36.11-.51.71-.78.86-1.27.06-.21.03-.44 0-.66-.06-.34-.14-.68-.33-.97-.19-.29-.5-.52-.84-.53-.19-.01-.39.05-.59.08.6.24.75.82.62 1.37-.2.8-1.26 1.33-1.11 2.02.14.66.39 1.2.17 1.65-.29.61-.78.78-.98 1.41-.13.42.62 1.27-.52 1.47-1.56.26-2.16 1.74-3.41 1.33-1.5-.5-2.02 1.05-4.13.59.5.51 1.11.81 1.79.94h.01c2.4.44 5.65-1.21 8.38-3.22z"/>
        <path fill="#7E2F22" d="M7.4 19.66c-.12.05-.38.03-.57-.05-.13-.06-.29-.15-.41-.07-.12.07-.12.26-.06.39s.14.27.13.41c-.02.16-.15.27-.28.36-.13.08-.28.16-.35.3-.13.24.04.57.3.65.26.08.56-.06.71-.29.08-.12.14-.27.25-.36.09-.08.21-.12.31-.17.23-.11.45-.28.53-.52.1-.29-.02-.49-.17-.59-.13-.1-.27-.1-.39-.06zM7.6 25.12c-.24.19-.81.19-1.07.35-.24.15-.46.35-.74.42-.12.03-.25.03-.35-.04-.12-.08-.18-.21-.21-.36-.01-.04 0-.11.01-.15.02-.04.05-.08.08-.1.3-.21.69-.26.94-.53.13-.14.2-.33.34-.47.16-.16.4-.24.63-.23.23.02.48.09.62.27.19.25.05.61-.25.84zM3.34 23.3c-.01.11.06.25.05.37a.4.4 0 0 1-.19.31c-.14.07-.33.01-.46.11-.19.14-.06.48-.22.66-.07.08-.18.11-.29.11-.2.01-.41-.08-.53-.24a.496.496 0 0 1-.02-.57c.06-.09.16-.16.23-.25.18-.22.15-.54.15-.83 0-.06 0-.13.03-.18.02-.04.06-.08.1-.11.18-.14.36-.27.55-.39.06-.04.13-.08.2-.05.09.03.12.15.12.24s0 .21.07.27c.07.06.16.05.25.04.09-.01.18-.03.25.02s.09.16-.01.23c-.08.07-.27.15-.28.26z"/>
    </g>
</svg>
