<svg xmlns="http://www.w3.org/2000/svg" width="30" height="22" viewBox="0 0 30 22">
    <g fill="none" fill-rule="nonzero">
        <path fill="#2862AF" d="M29.74 6.54v11.45c0 2.71-2.42 3.77-4.42 3.77H6.49c-2.71 0-5.39-.93-5.39-3.63V6.44c0-3.57 28.64-3.51 28.64.1z"/>
        <path fill="#6D92C9" d="M16.08 13.66c2.94.11 10.11-.58 11.01 2.72.77 2.82-2.09 3.35-3.88 3.35H8.48c-2.43 0-5.56-.56-4.71-3.5.78-2.79 8.84-2.7 12.31-2.57z"/>
        <path fill="#EDE1EC" d="M25.67 6.79v8.39c0 1.98-1.65 2.76-3.01 2.76H9.03c-1.85 0-3.67-.68-3.67-2.66V6.72c0-2.62 20.31-2.57 20.31.07z"/>
        <path fill="#D5C7D8" d="M11.59 10.29c0 2.09-.01 2.46-.01 2.87 0 1.98.04 3.22.51 3.74.56.62 1.47 1.02 1.47 1.02H9.03c-1.85 0-3.67-.68-3.67-2.66V6.7l6.29-.06c0 .01-.06 2.14-.06 3.65z"/>
        <path fill="#8C8F90" d="M29.96 6.41c0 .68-.05 1.3-2.41 1.79-2.91.59-7.25.97-12.09.97-4.91 0-9.31-.39-12.22-1C.96 7.69.96 7.08.96 6.41V3.39c2.9.99 9.57 1.57 14.62 1.57 4.92 0 10.96-.57 14.38-1.57v3.02z"/>
        <path fill="#BDBEBF" d="M29.96 3.38c0 .68-.64 1.43-3 1.91-2.91.59-6.66.84-11.5.84-4.91 0-8.63-.23-11.54-.84C1.64 4.81.96 4.04.96 3.38c0-.64 1.07-1.44 2.89-1.87C6.75.82 10.43.55 15.48.55c4.92 0 8.61.36 11.52.98 2.23.48 2.96 1.19 2.96 1.85z"/>
    </g>
</svg>
