<svg xmlns="http://www.w3.org/2000/svg" width="27" height="30" viewBox="0 0 27 30">
    <g fill="none" fill-rule="nonzero">
        <path fill="#DB6699" d="M.53 22.73c1.99-2.24 3.64-4.37 5.71-6.62 1.44-1.56 2.78-4.36 4.26-5.88.49-.5 4.68-5.57 7.39-9.06.34-.43.73-.54 1.11-.48.38.07.69.42.71.81.02.39-.15.72-.34 1.07-1.12 2.01-2.28 3.79-3.41 5.61-.07.13.09.3.22.19.7-.6 4.69-5.1 5.92-6.35.28-.28.59-.61.97-.73.38-.11.9.08 1.11.46.25.44.17.87-.31 1.54a247.02 247.02 0 0 1-5.26 6.93c-.09.11.03.4.26.19 1.46-1.35 4.06-3.92 5.96-5.76.35-.34.77-.54 1.18-.28.56.35.52 1.19.19 1.6-1.14 1.44-5.01 5.65-5.87 6.62-.12.15.12.28.24.18 1.32-1.01 3.26-2.78 4.78-4.16.22-.2.51-.4.83-.4.41 0 .67.37.62.78-.05.37-.28.68-.51.97-2.97 3.84-6.34 7.35-9.76 10.8-1.19 1.2-2.38 2.39-3.37 3.76-1.05 1.46-1.97 3.03-2.9 4.57-.05.08.01.19-.07.22-.47.17-.96.27-1.46.33a7.313 7.313 0 0 1-1.8-.03c-.1-.02-.21-.02-.31-.04-1.71-.33-3.48-1.09-4.66-2.37C.78 25.93.39 24.55.27 23.49c-.02-.27.07-.55.26-.76z"/>
        <path fill="#C94F72" d="M10.05 29.41c-.1.03-.2.05-.3.08-.64.14-1.28.21-1.94.19-.37-.01-.74-.05-1.1-.09-.22-1-3.28-5.89 3.94-8.99 7.97-3.42 16.16-10.99 16.01-12.17 1.05 1.15-2.37 3.73-3.95 5.57-.95 1.11-2.17 2.38-3.14 3.47-1.88 2.11-2.53 3.02-5.62 6.31-.44.47-.85.96-1.21 1.49-.86 1.27-1.6 2.58-2.36 3.87-.08.12-.19.22-.33.27z"/>
        <path fill="#A7224D" d="M26.21 5.98c-.96 1.21-4.72 5.32-5.87 6.62"/>
        <path fill="#C94F72" d="M11.99 8.41c.24-.89.85-3.29.78-4.23-.04-.67-1.13-1.48-1.82-.5-.55.78-1.26 2.68-1.91 3.85-.56 1.03-1.11 2.03-1.54 3.12-.35.88-.55 1.82-.8 2.73-.67 2.45-1.52 3.77-3.59 6.32 3.56-2.22 5.64-3.57 7.85-7.09.05-.08.32-.7.32-.8.03-.44.33-2.02.71-3.4z"/>
        <path fill="#B13555" d="M12.03 8.24c.76-2.74.93-3.97.61-4.45-.2-.31-.46-.47-.64-.52.42.66.36 1.47-.01 3.01-.31 1.3-1.64 3.65-2.12 5.19-.28.91-.61 2.65-1.75 3.81-1.41 1.43-3.86 2.99-4.04 3.2-.33.45-.55.7-.98 1.23 3.56-2.23 5.78-3.3 7.94-6.87.2-.34.3-.62.33-1.04.04-.38.16-1.73.66-3.56zM10.06 29.4c-.14.05-.29.07-.43.11-.42.09-.85.14-1.28.16-.1-1.62-.54-5.2 3.55-7.67 2.9-1.75 7.7-5.71 8.75-6.66 2.4-2.18 6.26-5.76 6.13-6.74.29.56-.24 1.38-.94 2.19-.9 1.04-2.07 2.32-2.9 3.29-.95 1.11-5.33 5.68-6.6 7.1-1.12 1.26-2.58 2.6-3.53 3.99-.88 1.3-1.65 2.64-2.43 3.97-.08.12-.19.22-.32.26z"/>
        <path fill="#C94F72" d="M18.77.68c.01.03.05.12.06.16.12.46.01.95-.2 1.37-.21.42-.52.78-.84 1.13-.36.4-.73.79-1.14 1.13-.43.37-.91.69-1.25 1.15-.34.46-.51 1.09-.24 1.59.18.34.54.57.7.91.22-.65.58-1.24.93-1.83.12-.2.24-.4.37-.61.38-.64.77-1.27 1.19-1.89.16-.24.33-.47.48-.72.35-.6.54-1.28.55-1.97 0-.1-.04-.25-.08-.31-.04.01-.21-.12-.53-.11z"/>
        <path fill="#B23953" d="M15.64 7.14c.03-.94 1.16-1.87 2.3-3.34.34-.43 1.79-1.82 1.19-3.06.31.12.55.43.57.77.02.39-.15.72-.34 1.07-1.12 2.01-2.28 3.79-3.41 5.61-.03.05-.02.11.01.16.01-.01-.35-.27-.32-1.21z"/>
        <path fill="#C94F72" d="M23.51 1.29c.05.65-.3 1.32-.68 1.84-.55.76-1.24 1.43-2.03 1.94-.52.34-1.09.62-1.57 1.02-.58.49-1.02 1.15-1.19 1.89-.17.74-.06 1.55.34 2.19 1.29-2.45 3.19-4.52 4.98-6.64.26-.3.51-.61.66-.98.15-.37.09-.77-.12-1.1 0 .01-.19-.13-.39-.16zM25.81 4.29c.04.23.03.55-.02.78-.06.25-.22.45-.39.64-.65.72-1.43 1.3-2.2 1.88l-.93.69-.57.42c-.53.37-1.09.72-1.51 1.21-.42.49-.66 1.2-.44 1.8.1.26.27.48.45.7.68-.83 1.35-1.66 2.03-2.49.3-.36.6-.73.95-1.05.28-.26.6-.48.88-.74.61-.56 1.05-1.27 1.64-1.85.14-.14.29-.27.37-.44.07-.13.1-.27.12-.41.05-.29.03-.59.03-.88 0 .01-.13-.18-.41-.26z"/>
        <path fill="#B23953" d="M18.45 8.74c.26-.94 2.06-2.8 3.37-3.96 2.07-1.83 2.21-2.73 1.95-3.4.17.08.32.21.41.38.25.44.17.87-.31 1.54a247.02 247.02 0 0 1-5.26 6.93c-.04.05-.04.14 0 .2 0 0-.54-.31-.16-1.69z"/>
        <path fill="#A73350" d="M26.21 5.98c-.96 1.21-4.72 5.32-5.87 6.62"/>
        <path fill="#B23953" d="M20.17 11.56c.26-1.41 3.41-3.15 5.3-5.31.65-.74.8-1.39.55-1.87.56.35.52 1.19.19 1.6-1.14 1.44-5.01 5.65-5.87 6.62-.03.04-.03.06-.03.1-.06-.08-.27-.47-.14-1.14z"/>
    </g>
</svg>
