<svg xmlns="http://www.w3.org/2000/svg" width="30" height="24" viewBox="0 0 30 24">
    <g fill="none" fill-rule="nonzero">
        <path fill="#F3E95D" d="M15.49 12.44a89.269 89.269 0 0 0-9.08 5.84c-.67.49-1.33.99-2.07 1.36-.6.3-1.26.53-1.73 1.01-.34.35-.55.81-.75 1.26-.06.14-.13.3-.11.45.04.34.43.5.76.57 1.67.39 3.41.27 5.13.22 5.35-.17 10.71.24 16.07.21 1.55-.01 3.11-.06 4.61-.42.26-.06.53-.14.69-.35.31-.39.07-.96-.25-1.35-.38-.47-.86-.85-1.34-1.22a59.98 59.98 0 0 0-9.4-5.93c-1.03-.52-2.09-1.03-2.93-1.82.02.11.08.21.16.28"/>
        <path fill="#D7CA26" d="M19.65 15.86c-1.48.91-10.25 6.45-10.83 6.84-.7.48-6.05.68-6.21-.56-.07-.58.54-1.33 1.04-1.63.71-.44 7.99-5.42 11.6-7.33.08-.04 4.4 2.68 4.4 2.68z"/>
        <path fill="#9C6F82" d="M12.94 4.44c1.16-2.14 3.5-2.8 5.04-.94.93 1.12.03 2.84-1.18 3.66-.99.66-1.84 1.39-1.86 2.68-.01.82.34 1.17-.24 1.85-.38.45-.96.81-1.45 1.13-3.09 2.05-6.28 3.96-9.43 5.9-1.16.71-2.77 1.45-3.11 2.92-.2.85.23 1.64 1.06 1.94.29.1 1.53.1 2.24.1.96 0 1.92.01 2.88.02 2.49.02 4.98.05 7.47.08 4.03.05 8.1.25 12.13.13 1.2-.04 3-.35 3.16-1.8.16-1.52-1.4-2.39-2.48-3.16-1.76-1.26-3.67-2.32-5.49-3.49-1.98-1.28-3.93-2.6-5.91-3.87-.66-.43-2.08 1.21-1.42 1.63 3.28 2.1 6.54 4.24 9.83 6.32.78.49 1.55 1 2.27 1.57.64.51.59.94-.6.95-4.25.03-9-.1-13.24-.15-2.21-.02-4.43-.05-6.64-.06-.78-.01-1.57-.02-2.35-.01-1.11.01-.07-.7.51-1.06 3-1.85 6-3.7 8.97-5.6.92-.59 2.77-1.71 3.47-2.58.99-1.21-.53-2.54.67-3.44.83-.62 2.3-1.58 2.83-2.92.53-1.33.32-2.95-.55-4.07-1.88-2.42-6.24-2.56-8.19 1.33-.83 1.65.85 2.33 1.61.94z"/>
        <path fill="#7A3D58" d="M16.79 12.23c.5-1.12-.63-2.27.45-3.09.82-.63 2.3-1.58 2.83-2.92.53-1.33.32-2.95-.55-4.07-1.87-2.42-6.24-2.56-8.19 1.33-.43.86-.19 1.46.26 1.64.78-1.84 1.66-2.77 2.8-3.35 1.2-.61 2.72-.32 3.76.53 1.19.97 1.41 2.68.75 3.84-.7 1.23-2.09 1.91-2.81 2.83-.38.49-.39 1.23-.23 1.85.1.38.08.75-.04 1.06-.13.35-.39.56-.39.56s.58.42.79.55c.43.29.57-.76.57-.76zM14.41 13.18c-.32.21-.66.42-1.01.65-3.19 2.14-6.49 4.15-9.86 6.01-.56.31-1.22.83-1.01 1.44.14.42.58.54 1.05.53-1.03-.01-.02-.71.55-1.06 3-1.85 6-3.7 8.97-5.6.49-.31 1.24-.78 1.94-1.27.05-.04.13-.09.18-.13l-.81-.57z"/>
        <path fill="#7A3D58" d="M27.17 18.94c-1.76-1.26-3.67-2.32-5.49-3.49-1.64-1.06-3.26-2.14-4.89-3.21-.16.29-.39.56-.58.75 3.7 2.48 6.56 4.33 10.25 6.82.3.2 1.52 1.02 1.72 1.44.27.57-.07 1.12-.54 1.35-.46.24-1.54.25-2.06.25-7.4-.01-14.54-.16-21.94-.18-.7 0-1.29.05-1.77-.08s-.79-.49-.9-.65c-.1-.15-.15-.41-.14-.67-.04.11-.1.25-.12.36-.02.08-.08.42-.03.69.07.38.25.66.41.82.16.16.45.35.68.43.38.13 1.53.1 2.24.1.96 0 1.92.01 2.88.02 2.49.02 4.98.05 7.47.08 4.03.05 8.1.25 12.13.13 1.2-.03 3-.35 3.16-1.8.16-1.52-1.41-2.39-2.48-3.16z"/>
    </g>
</svg>
