<svg xmlns="http://www.w3.org/2000/svg" width="18" height="30" viewBox="0 0 18 30">
    <g fill="none" fill-rule="nonzero">
        <path fill="#4F6532" d="M7.93 9.3c.06.38.11.79.18 1.03.04.12.37.3.84.28.47-.02.79-.25.8-.43.02-.31.05-.61.1-.89-.31-.02-.63-.04-.96-.04-.33 0-.65.02-.96.05z" opacity=".47"/>
        <path fill="#F2991B" d="M17.11 15c.95 3.51-.79 8.22-2.51 10.82-1.29 1.95-3.47 3.97-5.47 3.98-1.89 0-4.36-1.66-6.28-4.98-1.81-3.14-2.77-7.09-1.79-10.41.92-3.15 3.74-5.12 7.85-5.15 4.09-.04 7.1 1.66 8.2 5.74z"/>
        <path fill="#DF5D32" d="M4.89 23.8c-.89-2.51-1.19-5.9-.52-8.36.74-2.75 2.08-4.04 4.48-4.89.72-.25.42-1.3.05-1.3-4.11.04-6.93 2.01-7.85 5.15-.97 3.32-.02 7.27 1.79 10.41 1.92 3.32 4.39 4.98 6.28 4.98-1.33-1-2.99-2.48-4.23-5.99z"/>
        <path fill="#BC3D38" d="M8.97 12.31c-3.17.04-4.53-2.19-3.04-2.64.89-.27 1.88-.41 2.97-.42 1-.01 1.92.12 2.78.29 1.14.22.67 2.73-2.71 2.77z" opacity=".41"/>
        <path fill="#84AF4E" d="M8.95 10.61c.47-.02.79-.25.8-.43.07-1.09.28-2.05.91-2.77 1.11-1.28 3.29-.53 4.87-1.51 1.69-1.04 2.31-3.31 1.92-4.17-.38-.84-3.68-1.27-5.19-.55C10.44 2.04 9.5 3.79 9 5.32c-.28-.73-.87-1.64-1.57-2.07-1.34-.84-2.64-.99-3.8-.82-.7.11-2.75.75-2.91 1.92-.19 1.33 2.48 3.22 4.81 3.1 1.34-.07 1.96.19 2.28 1.26.12.4.19 1.25.3 1.63.04.11.37.29.84.27z"/>
        <g fill="#5D8440">
            <path d="M9.36 6.77c.55-1.63 1.91-3.35 3.47-4.35 1.59-1.02 3.46-1.36 3.37-1.38-1.33-.3-2.65-.4-3.93.13-1.53.63-2.56 2.07-3.26 4.14-.01.01.23.57.35 1.46zM8.57 7.71C8.02 6.7 6.85 6.01 4.6 5.73 2.32 5.45 1.17 4.97.71 4.4.57 5.83 2.14 7.44 5.27 7.43c1.34 0 2.29.36 2.53 1.32.1.4.19 1.21.31 1.58.06.19.45.29.81.28.07 0 .13-.01.19-.01 0 0 .12-1.69-.54-2.89z"/>
        </g>
    </g>
</svg>
