<svg xmlns="http://www.w3.org/2000/svg" width="29" height="30" viewBox="0 0 29 30">
    <g fill="none" fill-rule="nonzero">
        <path fill="#FFD798" d="M14.3 2.9h.6c.35 0 .68.12.95.34l8.53 6.95c.35.29.56.72.56 1.17v16.81c0 .83-.68 1.51-1.51 1.51H6.02c-.83 0-1.51-.68-1.51-1.51v-16.7c0-.44.19-.86.53-1.15l8.28-7.06c.28-.23.63-.36.98-.36z"/>
        <path fill="#F1B670" d="M14.67 6.06l10.27 8.47V10.8L14.78 2.05 4.52 10.49v3.61z"/>
        <path fill="#988276" d="M2.63 13.55c2.11-1.84 10.46-9.11 10.98-9.56.26-.23.75-.63 1.09-.89.31.16 5.95 4.94 7.24 6.07 1.89 1.66 3.27 2.9 5.18 4.52.46.39 1.1.46 1.55 0 .39-.39.45-1.21 0-1.59-2.91-2.47-10.89-9.43-11.8-10.21-.79-.67-1.36-1.21-2.06-1.2-.77.01-1.23.4-2.08 1.14-1.11.97-3.1 2.7-4.21 3.66-2.48 2.16-4.96 4.31-7.43 6.47-1.08.93.47 2.52 1.54 1.59z"/>
        <path fill="#534949" d="M2.71 13.61c4.16-3.62 7.78-6.89 12.12-10.27h-.37c2.32 1.81 4.55 3.74 6.8 5.63 2.15 1.82 3.38 2.76 5.46 4.67.51.47 1.26.39 1.46.33-2.03-1.82-4.34-3.79-6.54-5.65-2.25-1.9-4.49-3.83-6.81-5.64-.09-.07-.28-.07-.37 0-4.39 3.43-8.81 7.39-13.02 11.05.15.06.68.27 1.27-.12z"/>
        <path fill="#F1B670" d="M13.72 12.65c-2.33.45-4.44 2.39-4.44 5.51v7.73c0 .81.47 1.17 1.22 1.17h8.46c.65 0 1.15-.41 1.15-1.18v-7.92c0-3.71-3.26-5.92-6.39-5.31z"/>
        <path fill="#70A34E" d="M14.56 12.23a4.715 4.715 0 0 0-4.72 4.72v8.39h9.44v-8.39c0-1.3-.53-2.48-1.38-3.34a4.683 4.683 0 0 0-3.34-1.38z"/>
        <path fill="#8DC63F" d="M16.63 13.48c-2.41-.12-4.67 1.37-4.67 4.52v7.49l7.65-.07.11-7.44c0-1.76.08-2.7-.84-3.6-.36-.26-.92-.84-2.25-.9z"/>
        <path fill="#F1F1F1" d="M14.33 11.79h1V25.6h-1z"/>
        <path fill="#F1F1F1" d="M9.557 19.405v-1h10.29v1z"/>
        <path fill="#F7F8F9" d="M13.72 11.59c-2.33.45-4.44 2.39-4.44 5.51v7.73c0 .81.47 1.17 1.22 1.17h8.46c.65 0 1.15-.41 1.15-1.18V16.9c0-3.71-3.26-5.92-6.39-5.31zm-3.51 5.31c0-2.42 1.92-4.38 4.31-4.47h.41c2.37.12 4.26 2.07 4.26 4.47v7.77c0 .23-.18.41-.41.41h-8.16c-.23 0-.41-.18-.41-.41V16.9z"/>
    </g>
</svg>
