<svg xmlns="http://www.w3.org/2000/svg" width="30" height="26" viewBox="0 0 30 26">
    <g fill="none" fill-rule="nonzero">
        <path fill="#313C81" d="M19.92 25.52c2.13.41 4.25.15 6.03-.35 1.33-.37 2.82-1.18 3.28-2.3-2.38-.27-4.78-.14-7.16-.42-2.38-.28-4.81-1.05-6.45-2.79-.75-.8-1.31-1.77-2.03-2.6-.56-.63-1.21-1.17-1.86-1.71-3.04-2.55-6.19-5.6-8.91-8.49-.6.33-.99.63-1.4 1.01-.28.26-.51.56-.59.72-.13.25-.1 1.39.7 2.66 1.05 1.67 2.28 2.95 5.55 5.06.89.57 2.37 1.12 3.54 2.16 1.15 1.02 1.72 2.41 2.85 3.56 2.16 2.17 3.36 2.9 6.45 3.49z"/>
        <path fill="#242858" d="M2.82 6.87c-.6.33-.99.63-1.4 1.01-.28.26-.51.56-.59.72-.13.25-.1 1.39.7 2.66.72 1.15 1.52 2.11 3.01 3.27.67.54 1-4.78-1.72-7.66z"/>
        <path fill="#4C6498" d="M9.7 13.93c-.67-.49-3.99-2.75-4.51-3.33-.72.92-1.44 2.34-1.73 3.03.76.71 1.75 1.47 3.12 2.38.75-.51 2.72-1.76 3.12-2.08z"/>
        <path fill="#3F5497" d="M23.16 17.97c-.37-.81-.83-1.81-.97-2.69-.12-.79-.58-3.53-.56-5.91 0-.36-.02-.65 0-1.17.02-.56.02-1.8 0-1.86-.03-.12-.63-.33-1.97-.11-.46.07-1.2.38-1.58.66-.38.27-.68.69-.7 1.16 0 .08 0 .15.04.22.05.09.76 2.55 1 3.25.24.7.46 2.46 1.02 3.45 1.05 1.86 3.72 3 3.72 3z"/>
        <path fill="#313072" d="M23.16 17.97c-.25-.55-.49-1.03-.66-1.56-.08-.25-1.76-1.48-2.17-3.99-.14-.85-.67-2.86-.72-3.39-.12-1.15-.43-2.69-.69-2.58-.31.13-.62.28-.83.43-.38.27-.68.69-.7 1.16 0 .08 0 .15.04.22.05.09.76 2.55 1 3.25.24.7.46 2.46 1.02 3.45 1.04 1.87 3.71 3.01 3.71 3.01z"/>
        <path fill="#9175B3" d="M29.61 21.06c-.4-.69-1.18-1.06-1.92-1.38l-3.51-1.53c-.68-.3-1.36-.6-1.92-1.09-1.08-.94-2.4-2.91-2.77-4.29l-.99-3.73c-.12-.45-.25-.93-.59-1.25-.3-.29-.71-.41-1.11-.53-2.34-.7-3.86-1.1-5.42-2.99-.98-1.19-1.29-2.48-1.72-3.5-.99.49-3.01 1.62-4.04 2.4-1.23.92-2.22 1.7-3.04 3.29-.16.3-.1.62-.04.81.09.33.54 1.34.89 1.87 1.26 1.9 2.06 2.62 3.86 3.97.67.5 2.11 1.14 2.79 1.63.63.45 1.3.83 1.9 1.31 2.04 1.65 3.08 4.4 5.35 5.7 1.22.7 2.84 1.31 4.23 1.49 2.58.34 5.23.2 7.29-.21.74-.13 1.17-1.27.76-1.97z"/>
        <path fill="#7363A1" d="M20.52 14.94c-.47-.74-.85-1.51-1.02-2.16-.16-.62-.33-1.24-.49-1.85-.08-.28-1.58.76-3.77 1.68-2.92 1.23-5.36 1.99-5.15 2.14.63.45 1.3.83 1.9 1.31.97.78 1.71 1.82 2.47 2.82.17.23 2.22-.69 3.63-1.72 1.7-1.23 2.54-2.05 2.43-2.22z"/>
        <path fill="#EEECF3" d="M22.02 8.61a.156.156 0 0 0-.06-.08c-.05-.03-.13-.02-.2-.01-1.15.2-2.44.44-3.57.81-.21.07-.27.12-.23.3.04.13.1.55.27.55.17.01.45-.06.61-.1a36.5 36.5 0 0 1 3.14-.68s.12-.61.04-.79zM21.97 11.2c-1.07.23-2.27.6-3.29.95-.04.02-.09.04-.1.07-.01.03-.02.09.04.25.06.15.16.42.23.57.96-.27 2.12-.67 3.11-.93.04-.01.08-.02.11-.04.04-.03.05-.07.07-.11.03-.15-.17-.76-.17-.76zM22.13 14.05c-.48.22-.81.31-1.37.44-.5.11-.82.17-1.3.22-.05.01.19.54.26.61.08.08.18.13.31.12.82-.08 1.35-.21 1.73-.33.17-.05.53-.19.59-.24.15-.14.03-.73-.17-.85l-.05.03z"/>
        <path fill="#7363A1" d="M10.58 3.01c-.39-.79-.62-1.57-.9-2.23-.99.49-3.01 1.62-4.04 2.4-1.23.92-2.22 1.7-3.04 3.29-.16.3-.1.62-.04.81.09.33.54 1.34.89 1.87.36.54.68.98.99 1.37.2.25-.51-2.08 2.73-5.34 1.9-1.91 3.52-1.96 3.41-2.17z"/>
        <path fill="#313C81" d="M11.37 4.21c-.02-.21-.25-.51-.37-.74-.6-1.11-.77-1.61-1.06-2.61-.05-.17-.23-.29-.5-.16-1.06.52-2.19 1.17-3.04 1.73-.15.1-.29.2-.43.3-.4.3-.69.59-.66.73.06.25.73 1.01 2.64 1.43 2.17.46 3.45-.32 3.42-.68z"/>
        <path fill="#242858" d="M8.62 3.38c1.26-.93 1.9-.86 1.86-.96-.23-.51-.36-.94-.54-1.57-.05-.17-.23-.29-.5-.16-1.06.52-2.19 1.17-3.04 1.73-.15.1-.29.2-.43.3-.4.3-.69.59-.66.73.05.22.55.81 1.91 1.24.13.04.34-.52 1.4-1.31z"/>
    </g>
</svg>
