<svg xmlns="http://www.w3.org/2000/svg" width="21" height="30" viewBox="0 0 21 30">
    <g fill="none" fill-rule="nonzero">
        <path fill="#B8BFC3" d="M17.52 7.27s1.29.5 2.11 1.54c.61.76.95 2.26.93 5.36-.01.94.08 11.45-.75 12.67-1.06 1.56-3.77 2.97-9.52 2.83-5.31-.13-7.55-.97-8.77-2.97C.6 25.19.62 15.31.63 14.14c.02-2.24.24-3.95 1.03-5.15.81-1.23 2.18-1.98 2.18-1.98l13.68.26z"/>
        <path fill="#B8BFC3" d="M3.86 4.35l-.02 2.96s.11 1.03.29 1.14c.18.11-.39.98 6.34 1.03 6.73.05 6.74-.89 6.95-1 .21-.11.15-1.07.15-1.07l.03-2.97s-.96 1.02-6.97.98c-5.55-.04-6.77-1.07-6.77-1.07z"/>
        <path fill="#E0E2E5" d="M6.06 4.49c0 .28-.06 3.06-.1 3.44-.28.34-.73.93-.92 1.18-.38.5-.67 1.07-.87 1.66-.29.86-.63 2.25-.7 3.16-.21 2.61-.14 5.1-.15 7.72-.01 2.53.39 5.14 1.09 6.62.11.24.38.65.59.8.56.2 2.83.51 3.87.54-1.18-1.55-1.73-3.31-2.02-5.23-.29-1.93-.28-3.88-.32-5.83-.04-1.67-.11-3.35.17-4.99.28-1.64 1.15-3.5 2.24-4.77.18-.21.39-.45.44-.52.06-.08.08-.19.08-.34.01-.46.04-2.82.05-3.03-1.14.07-3.45-.41-3.45-.41z"/>
        <path fill="#B99874" d="M3.34 1.78l-.02 2.09s.02.7.04.91c.03.24-.15 1.14 7.25 1.19 7.4.05 7.54-.77 7.64-.96.06-.11.1-.42.13-.67.02-.2.03-.36.03-.36l.03-2.06-15.1-.14z"/>
        <path fill="#D9BB93" d="M7.69 1.78s-.03 3.93-.03 4.11c.81.04 1.78.07 2.94.08h.63l.02-4.19H7.69z"/>
        <ellipse cx="10.899" cy="1.824" fill="#E5CEA8" rx="1.16" ry="7.55" transform="rotate(-89.605 10.899 1.824)"/>
        <path fill="#2B8E48" d="M9.23 21.26H6.38c-.23 0-.42-.12-.53-.28a.635.635 0 0 1-.01-.7l1.24-1.97c.04-.06.05-.14.02-.21a.313.313 0 0 0-.09-.11l-.37-.24a.194.194 0 0 0-.18-.03c-.06.01-.11.05-.15.1L4.9 20.05c-.59.94.08 2.17 1.2 2.17h3.13c.06 0 .11-.02.15-.06.05-.04.08-.11.08-.18v-.48a.24.24 0 0 0-.11-.2.284.284 0 0 0-.12-.04z"/>
        <path fill="#2B8E48" d="M4.6 17.64c.06-.11.16-.19.29-.22l2.12-.46c.1-.02.2-.01.29.04.09.05.17.13.21.24l.73 1.99c.08.22-.03.47-.26.55a.426.426 0 0 1-.55-.26l-.6-1.64-1.75.38c-.23.05-.46-.1-.51-.33-.03-.1-.02-.2.03-.29z"/>
        <path fill="#2E7344" d="M9.23 21.26H6.38c-.24 0-.44-.12-.55-.3a.659.659 0 0 1 0-.69l1.18-1.88.41 1.13c.08.22.33.34.55.26.22-.08.34-.33.26-.55l-.73-1.99a.39.39 0 0 0-.25-.25L5.47 19.8c-.59.94-.17 1.99.94 1.99l3.04-.02v-.27a.22.22 0 0 0-.22-.24z"/>
        <path fill="#2B8E48" d="M13.41 18l1.49 2.43c.27.43-.05.99-.56.98l-2.33-.03c-.06 0-.12.02-.16.06-.04.04-.07.1-.08.16l-.01.44c0 .07.02.12.06.17.04.04.1.07.17.07l2.64.03c1.11.01 1.8-1.21 1.22-2.15l-1.64-2.66a.231.231 0 0 0-.32-.07l-.41.25c-.05.03-.09.09-.1.14a.3.3 0 0 0 .03.18z"/>
        <path fill="#2B8E48" d="M12.75 23.84a.458.458 0 0 1-.34-.13l-1.5-1.56a.503.503 0 0 1-.12-.28c0-.1.03-.2.09-.29l1.32-1.66c.15-.19.42-.22.61-.07s.22.42.07.61l-1.08 1.37 1.24 1.29c.16.17.16.44-.01.61a.57.57 0 0 1-.28.11z"/>
        <path fill="#2E7344" d="M13.41 18l1.49 2.43c.27.43-.05.99-.56.98l-2.22-.02.74-.94c.15-.19.12-.46-.07-.61a.431.431 0 0 0-.61.07l-1.32 1.66c-.08.1-.11.22-.09.34l3.33.04c1.11.01 1.78-.89 1.2-1.84l-1.6-2.58-.23.14c-.09.07-.12.22-.06.33z"/>
        <path fill="#2B8E48" d="M8.48 15.81l1.54-2.4c.13-.21.35-.3.56-.3.23.01.45.13.56.37l.99 2.11c.02.04.05.08.09.1.06.04.14.04.21.01l.4-.18c.08-.04.13-.11.14-.19 0-.04 0-.08-.02-.12l-1.12-2.39c-.47-1.01-1.87-1.1-2.47-.16l-1.69 2.63c-.03.05-.04.11-.03.16.01.06.05.12.1.16l.41.26c.05.03.11.04.17.03.07 0 .13-.03.16-.09z"/>
        <path fill="#2B8E48" d="M14.03 13.87c.06.11.07.24.03.36l-.76 2.03c-.04.1-.11.18-.2.23-.09.05-.19.07-.3.04l-2.07-.46a.432.432 0 0 1-.33-.51c.05-.23.28-.38.51-.33l1.7.38.63-1.68c.08-.22.33-.34.55-.25.11.03.19.1.24.19z"/>
        <path fill="#2E7344" d="M8.48 15.81l1.54-2.4a.644.644 0 0 1 1.13.07l.94 2.01-1.17-.26a.424.424 0 0 0-.51.33c-.05.23.09.46.33.51l2.07.46c.12.03.25 0 .34-.07l-1.41-3.01c-.47-1.01-1.58-1.22-2.18-.28l-1.63 2.57.23.15c.11.06.25.03.32-.08z"/>
    </g>
</svg>
