<svg xmlns="http://www.w3.org/2000/svg" width="21" height="30" viewBox="0 0 21 30">
    <g fill="none" fill-rule="nonzero">
        <path fill="#71D0F6" d="M14.75 6.8c-.32-1.83-.25-3.23-.02-4.33.24-1.14-.99-2.09-2-1.5C8.52 3.42 1.66 11.14.94 18.34c-.65 6.48 4.51 11.53 10.02 11.45 5.97-.09 10.34-5.34 9.56-11.07-.86-6.36-5.04-7.8-5.77-11.92z"/>
        <path fill="#00A4E3" d="M14.7 6.54c-.25-1.41-.2-2.95.04-4.05.12-.55-.11-1.12-.59-1.44.14.57-.34 1.47-.91 3.08-1.12 3.12-1.06 5.69.44 8.64.99 1.94 2.53 3.87 2.1 8.41-.27 2.86-2.06 5.77-5.16 6.98-1.44.56-3.56.56-4.57.29 1.85 1.1 3.91 1.53 6.12 1.23 5.34-.73 8.98-5.48 8.36-10.84-.72-6.25-5.1-8.18-5.83-12.3z"/>
    </g>
</svg>
