<svg xmlns="http://www.w3.org/2000/svg" width="25" height="30" viewBox="0 0 25 30">
    <g fill="none" fill-rule="nonzero">
        <path fill="#8CB3DA" d="M4.71 27.69c-.03.34-.11 1.04-.07 1.47.01.02.01.05.02.07.1.24.39.34.61.42.53.19 1.04.21 1.75.01.78-.22 1.32-.51 1.56-.85.09-.13.11-.38.11-.48-.02-.54-.1-1.3-.18-2.27-.1-1.33.04-4.43-.53-5.64-.88-1.85-1.2-2.05-2.3-3.78-.88.76-1.54 1.4-2.48 2.09 2.19 2.33 1.8 5.78 1.51 8.96z"/>
        <path fill="#6394C1" d="M4.74 26.99c-.01.94-.13 1.69-.11 2.13.01.04.01.07.03.11.1.24.39.34.61.42.32.11.63.16.98.14.12-1.43.33-7.76-1.39-13.01-.57.46-.97 1.48-1.55 1.91 1.41 3.32 1.48 4.81 1.43 8.3z"/>
        <path fill="#8CB3DA" d="M2.64 13.53c0 .37-.01.75.12 1.1.13.36.39.64.64.94 1.41 1.7 2.25 3.84 2.48 6.03h3.3C8.2 15.29 5.62 9.26 5.57 2.88c0-.1 0-.18-.04-.25-.03-.06-.08-.11-.27-.15-1.33-.25-2.8.15-3.84 1.05-.1.09-.2.18-.23.31-.04.14.01.28.05.42a30.29 30.29 0 0 1 1.4 9.27z"/>
        <path fill="#6394C1" d="M2.64 13.53c0 .37-.01.75.12 1.1.13.36.39.64.64.94 1.41 1.7 2.25 3.84 2.48 6.03h1.34c-.02-1.61-.14-3.42-.4-5.42-.18-1.35-1.96-1.69-2.16-3-.82-5.33-1.71-8.91-2.2-10.32-.37.18-.73.4-1.04.67-.1.09-.2.18-.23.31-.04.14.01.28.05.42.96 3.05 1.42 6.09 1.4 9.27z"/>
        <path fill="#D591B4" d="M8.36 11.55c-.25-1.26-.45-2.55-.33-3.83.12-1.28.59-2.56 1.51-3.46.69-.67 1.6-1.09 2.54-1.32 1.83-.45 3.88-.18 5.41.93 1.53 1.11 2.18 3.35 1.79 5.34-.19-.23-1.05-.55-1.34-.59-1.02-.15-1.29-.39-2.32-.22-2.54.44-4.46 2.62-6.94 3.32l-.32-.17z"/>
        <path fill="#9374A5" d="M8.36 11.55c-.25-1.26-.45-2.55-.33-3.83.12-1.28.59-2.56 1.51-3.46.69-.67 1.6-1.09 2.54-1.32 1.83-.45 3.88-.18 5.41.93-.15-.04-.4.2-.64.13-.44-.14-2.19-.33-2.45-.33-.19 0-3.74 1.53-4.17 2.47-1.28 2.81-.12 5.68-1.03 6.17-.51.27-.84-.76-.84-.76z"/>
        <path fill="#D591B4" d="M11.45 6.43c-.14-.33-.33-.63-.52-.94-.47-.76-.75-1.51-1.33-2.19-.15-.17-.29-.33-.28-.56.01-.21.07-.28.24-.41.12-.09.11-.3.23-.36.34-.17.69-.23 1.11-.2.2.02.3.11.33.27.08.4.15.72.26 1.11.25.95.59 1.88.88 2.83l-.92.45z"/>
        <path fill="#9374A5" d="M11.14 5.73c-.34-.53-1.4-2.01-1.75-2.5-.2-.28-.32-.38-.28-.52.04-.15.15-.36.33-.51.11-.09.23-.16.35-.22.08.19.42.88.64 1.26.16.29 1.02 1.78 1.21 2.12-.15.11-.28.15-.5.37z"/>
        <path fill="#D591B4" d="M13.39 5.86c-.07-1.43.21-2.78-.25-4.14-.02-.07-.05-.14-.03-.21.01-.07.06-.13.11-.18.26-.26.06-.48.42-.52.22-.03.44-.01.65.05.42.13.67.31.62.63-.02.15-.2.89-.3 1.31-.26 1.08-.37 1.94-.53 3.04l-.69.02z"/>
        <path fill="#9374A5" d="M13.37 5c-.13-.62-.51-2.64-.63-3.24-.06-.29-.08-.43.06-.58.17-.18.49-.31.86-.36.03.46.18 2.95.26 4.09-.21.01-.41.06-.55.09z"/>
        <path fill="#D591B4" d="M15.65 6.25c.02-1.39.7-2.38 1.18-3.69.03-.08.41-.7.71-.62.11.03.15-.1.26-.06.31.13.53.38.6.62.02.07.03.18.01.25-.02.09-.08.17-.14.24-.87 1.04-1.59 2.19-2.28 3.36l-.34-.1z"/>
        <path fill="#9374A5" d="M16.15 3.88c.11-.47.25-1.24.35-1.68.03-.15.19-.38.44-.42.28-.05.64.01.86.1-.41.59-.92 1.48-1.22 2.19-.13-.05-.24-.14-.43-.19z"/>
        <path fill="#D591B4" d="M9.47 9.59c-.2-.78-.1-2.25.14-3.01.59-1.81 1.91-2.55 2.84-2.86 1.08-.36 2.73-.35 3.89.1 1.05.41 1.5 1.28 1.82 1.53.5.39 1.11 3.96 1.07 5.77-1.26-.35-2.52-.7-3.81-.94-1.11-.21-2.22-.33-3.34-.49-.87-.12-2.61-.1-2.61-.1z"/>
        <path fill="#C61C2D" d="M4.17 9.76c1.5-.56 2.41-.16 3.6-.44.84-.19 1.63-.07 3.02-1.43 1.61-1.58 4.94-1.97 7.15-.82 1.09.57 2.69 2.19 3.41 3.18 3.38 4.65 3.42 10.51 2.6 16.2-.08.59-.21 1.19-.52 1.7-.81 1.28-2.54 1.55-4.05 1.64-1.84.11-6.4-1.57-7.96-2.55-3.75-2.35-5.36-4.5-7.16-6.52-.85-.96-1.91-1.75-2.61-2.83-.92-1.42-1.11-3.28-.49-4.85.61-1.58 1.51-2.71 3.01-3.28z"/>
        <path fill="#A52529" d="M4.59 9.43c-2.18.36-3.44 1.54-3.92 3.45-.37 1.47-.21 3.29.37 4.69.63 1.51 2.15 3.61 2.72 4.2 1.88 1.92 3.74 3.32 5.95 4.83 3.28 2.23 10.17 4.21 12.47 2.39-1.69-.26-5.03-1.51-8.77-4.32-2.49-1.87-5.15-4.29-6.57-6.96-.41-.77-.85-2.9-.66-4.52.13-1.16 1.05-3.45 1.83-4.08-1.56.24-1.88.07-3.42.32z"/>
        <path fill="#A52529" d="M6.97 10.65c.51-1.01 2.4-.53 3.24-.93.45-.22.84-.56 1.26-.84 1.14-.75 2.55-.83 3.91-.68 1 .11 2.39.71 3.13 1.24 1.17.85 1.83 1.48 2.81 2.55.97 1.07 2.07 3.11 2.51 4.44-.04-.88-.47-2.1-.71-2.74-.56-1.52-1.27-3.01-2.28-4.27-1.02-1.26-2.22-2.4-3.78-2.83-.85-.23-1.67-.38-2.56-.36-1.32.03-2.95.46-3.95 1.34-.37.32-.67.73-1.1.96-.42.22-1.05.43-1.51.55-.46.12-.79.2-.93.65.15.09-.43.19-.26.19-.01.01-.27 1.72.22.73z"/>
        <path fill="#A52529" d="M14.57 8.1c-1 .02-1.38.37-1.27.96.11.59.47 1.2.82 1.7.57.81 1.14 1.92 1.24 2.6.09.63-.39.86-.89.62-.55-.26-1.05-.65-1.75-1.34-.97-.97-1.57-1.6-2.64-1.84-1.09-.25-1.98-.31-2.66.11-.47.29-.98.75-1.26 2.17-.16.8-.92-1.22-.84-1.62.08-.4.32-.74.62-1.01.94-.87 2.29-1.09 3.43-1.66.96-.48 1.84-1.26 2.91-1.27 1.31-.04 2.29.58 2.29.58z"/>
    </g>
</svg>
