<svg xmlns="http://www.w3.org/2000/svg" width="33" height="28" viewBox="0 0 33 28">
    <g fill="#696" fill-rule="evenodd" stroke="#696" stroke-width="3">
        <path d="M14 23.818a10.7 10.7 0 0 0-1.714-1.24c-.19-.11-1.06-.606-2.357-.99a12.114 12.114 0 0 0-3.643-.496H2V2.005c2.647.032 4.636.019 6 0 .822-.011 1.582-.027 2.571.248 1.552.43 2.703 1.309 3.429 1.983v19.582zM19 23.818a10.7 10.7 0 0 1 1.714-1.24c.19-.11 1.06-.606 2.357-.99.856-.255 2.102-.52 3.643-.496H31V2.005c-2.647.032-4.637.019-6 0-.822-.011-1.582-.027-2.571.248-1.552.43-2.703 1.309-3.429 1.983v19.582z"/>
    </g>
</svg>
