<svg xmlns="http://www.w3.org/2000/svg" width="33" height="27" viewBox="0 0 33 27">
    <g fill="none" fill-rule="evenodd">
        <path stroke="#ABBAAB" stroke-width="3" d="M15 23.818a11.604 11.604 0 0 0-1.857-1.24c-.206-.11-1.148-.606-2.554-.99a14.142 14.142 0 0 0-3.946-.496H2V2.005c2.868.032 5.023.019 6.5 0 .89-.011 1.714-.027 2.786.248 1.68.43 2.927 1.309 3.714 1.983v19.582zM18 23.818c.449-.366 1.07-.818 1.857-1.24.206-.11 1.148-.606 2.554-.99.927-.255 2.277-.52 3.946-.496H31V2.005c-2.868.032-5.023.019-6.5 0-.89-.011-1.714-.027-2.786.248-1.68.43-2.927 1.309-3.714 1.983v19.582z"/>
        <path d="M18 19.623c.38-.279.905-.623 1.571-.944a11.31 11.31 0 0 1 2.161-.755 13.213 13.213 0 0 1 3.34-.378H29V3.004c-2.426.024-4.25.014-5.5 0-.753-.009-1.45-.02-2.357.189A8.155 8.155 0 0 0 18 4.703v14.92z"/>
    </g>
</svg>
