<svg xmlns="http://www.w3.org/2000/svg" width="94" height="100" viewBox="0 0 94 100">
    <path fill="#72BF44" fill-rule="evenodd" d="M44.455 0c27.614 0 49 22.386 49 50s-22.386 50-50 50C24.908 100 8.72 89.902.089 74.904c-.189-.77-.077-1.536.336-2.295.619-1.14 1.504-1.97 2.081-2.303.544-.314 1.387-.751 3.034-.751 1.099 0 1.937.25 2.514.75 7.041 12.25 20.258 20.5 35.401 20.5 22.536 0 40.805-18.27 40.805-40.805S66.99 9.196 44.456 9.195c-1.333-.472-2.222-1.114-2.665-1.926-.665-1.219-.871-2.388-.871-2.966 0-.546-.075-1.173.87-2.738C42.422.522 43.31 0 44.456 0z"/>
</svg>
