<svg xmlns="http://www.w3.org/2000/svg" width="200" height="199" viewBox="0 0 200 199">
    <g fill="none" fill-rule="evenodd" transform="translate(1 .852)">
        <path stroke="#979797" d="M185.068 50.476l-25.999 15.01c-11.073-20.966-33.024-35.299-58.34-35.485V0c36.42.185 68.068 20.545 84.339 50.476zM183.897 149.278l-25.998-15.01c12.62-20.073 14.058-46.25 1.561-68.268l25.981-15c18.05 31.633 16.242 69.222-1.544 98.278zM97.728 197.545v-30.02c23.694.893 47.082-10.95 59.902-32.782l25.981 15c-18.37 31.449-51.827 48.677-85.883 47.802zM12.728 147.01L38.727 132c11.073 20.967 33.024 35.3 58.34 35.486v30c-36.42-.184-68.068-20.545-84.339-50.476zM14.442 48.505l25.999 15.01c-12.621 20.073-14.058 46.25-1.562 68.268l-25.98 15C-5.153 115.15-3.344 77.562 14.441 48.505zM100.612.238v30.02C76.918 29.366 53.529 41.21 40.71 63.04l-25.982-15C33.098 16.592 66.555-.636 100.612.238z"/>
        <circle cx="99" cy="99.148" r="99" fill="#D8D8D8" fill-opacity=".5"/>
    </g>
</svg>
