<svg xmlns="http://www.w3.org/2000/svg" width="215" height="223" viewBox="0 0 215 223">
    <g fill="#92B584" fill-rule="evenodd" stroke="#979797">
        <path d="M172.34 50.476l-25.999 15.01C135.268 44.52 113.316 30.188 88 30.002V0c36.42.185 68.069 20.545 84.34 50.476zM170.897 149.13L144.9 134.12c12.62-20.073 14.058-46.25 1.561-68.268l25.981-15c18.05 31.633 16.242 69.221-1.544 98.278zM84.728 197.397v-30.02c23.694.893 47.082-10.951 59.902-32.782l25.981 15c-18.37 31.448-51.827 48.676-85.883 47.802zM0 147.01L25.998 132c11.074 20.967 33.025 35.3 58.341 35.486v30C47.92 197.302 16.271 176.941 0 147.01z"/>
    </g>
</svg>
