<svg xmlns="http://www.w3.org/2000/svg" width="258" height="223" viewBox="0 0 258 223">
    <g fill="#92B584" fill-rule="evenodd" stroke="#979797">
        <path d="M215.068 50.476l-25.999 15.01c-11.073-20.966-33.024-35.299-58.34-35.485V0c36.42.185 68.068 20.545 84.339 50.476zM213.897 149.278l-25.998-15.01c12.62-20.073 14.058-46.25 1.561-68.268l25.981-15c18.05 31.633 16.242 69.222-1.544 98.278zM127.728 197.545v-30.02c23.694.893 47.082-10.95 59.902-32.782l25.981 15c-18.37 31.449-51.827 48.677-85.883 47.802zM42.728 147.01L68.727 132c11.073 20.967 33.024 35.3 58.34 35.486v30c-36.42-.184-68.068-20.545-84.339-50.476zM44.442 48.505l25.999 15.01c-12.621 20.073-14.058 46.25-1.562 68.268l-25.98 15c-18.051-31.633-16.242-69.221 1.543-98.278z"/>
    </g>
</svg>
