<svg xmlns="http://www.w3.org/2000/svg" width="200" height="199" viewBox="0 0 200 199">
    <g fill="none" fill-rule="evenodd" stroke="#979797">
        <path d="M186.068 51.328l-25.999 15.01c-11.073-20.966-33.024-35.3-58.34-35.486v-30c36.42.184 68.068 20.545 84.339 50.476zM184.897 150.13L158.9 135.12c12.62-20.073 14.058-46.25 1.561-68.268l25.981-15c18.05 31.633 16.242 69.221-1.544 98.278zM98.728 198.397v-30.02c23.694.893 47.082-10.951 59.902-32.782l25.981 15c-18.37 31.448-51.827 48.676-85.883 47.802zM13.728 147.862l25.999-15.01c11.073 20.966 33.024 35.299 58.34 35.485v30.001c-36.42-.185-68.068-20.545-84.339-50.476zM15.442 49.357l25.999 15.01c-12.621 20.073-14.058 46.25-1.562 68.268l-25.98 15c-18.051-31.633-16.242-69.222 1.543-98.278zM101.612 1.09v30.02c-23.694-.893-47.083 10.95-59.902 32.782l-25.982-15C34.098 17.443 67.555.215 101.612 1.09z"/>
    </g>
</svg>
