<svg xmlns="http://www.w3.org/2000/svg" width="100" height="100" viewBox="0 0 100 100">
    <path fill="#57CAF0" fill-rule="evenodd" d="M51 0c27.614 0 49 22.386 49 50s-22.386 50-50 50S0 77.614 0 50c0-9.107 2.435-17.645 6.689-25a4.41 4.41 0 0 1 2.506-.58c1.345.081 2.208.327 2.905.773.696.446 1.283.752 1.926 1.752.428.667.702 1.441.821 2.323A40.615 40.615 0 0 0 9.195 50c0 22.536 18.27 40.805 40.805 40.805 22.536 0 40.805-18.27 40.805-40.805S73.536 9.196 51 9.195c-1.33-.394-2.19-1.022-2.58-1.883-.585-1.292-.677-2.014-.677-2.665 0-.66-.175-1.26.677-2.953C48.988.564 49.848 0 51 0z"/>
</svg>
