<svg xmlns="http://www.w3.org/2000/svg" xmlns:xlink="http://www.w3.org/1999/xlink" width="38" height="54" viewBox="0 0 38 54">
    <defs>
        <path id="prefix__a" d="M0.01 0.153L37.847 0.153 37.847 54 0.01 54z"/>
        <path id="prefix__c" d="M0 0.154L32.526 0.154 32.526 46.536 0 46.536z"/>
    </defs>
    <g fill="none" fill-rule="evenodd">
        <mask id="prefix__b" fill="#fff">
            <use xlink:href="#prefix__a"/>
        </mask>
        <path fill="#8B5932" d="M37.597 32.328c-.546-4.624-1.853-10.773-3.068-14.54-1.931-5.993-4.1-8.968-6.42-11.813-1.739-2.134-4.611-4.7-6.084-5.284-1.566-.62-3.097-.534-3.097-.534s-1.52-.062-3.096.534c-1.318.499-4.345 3.15-6.085 5.284-2.32 2.845-4.488 5.82-6.42 11.813C2.114 21.555.806 27.704.26 32.328c-.162.983-.25 1.99-.25 3.017C.01 45.648 8.48 54 18.928 54c10.45 0 18.92-8.352 18.92-18.655 0-1.027-.089-2.034-.25-3.017" mask="url(#prefix__b)"/>
        <mask id="prefix__d" fill="#fff">
            <use xlink:href="#prefix__c"/>
        </mask>
        <path fill="#98663F" d="M28.053 12.593c1.94-.23 3.368 1.86 4.023 1.614 1.737-.654-2.07-5.905-2.781-6.742-1.788-2.103-5.776-6.186-7.25-6.772-1.568-.622-3.1-.535-3.1-.535s-1.522-.063-3.1.535c-1.319.5-4.348 3.161-6.089 5.302C7.434 8.85 5.264 11.837 3.33 17.85 2.115 21.63.806 27.8.26 32.44c-.162.986-.298 2.446-.25 3.028.175 2.142.225 3.88 1.165 6.48 1.355 3.745.989.223 2.372.763 1.545.604 7.064 4.036 10.71 3.814 5.347-.326 10.475-6.01 11.042-17.325.244-4.87-1.784-16.07 2.754-16.608" mask="url(#prefix__d)"/>
        <path fill="#9E7556" d="M9.987 38s-2.571-.053-3.567-1.959c-.995-1.905 0-7.32.697-9.926.697-2.608 2.355-8.323 2.87-9.226.516-.902 1.312-1.003 1.71-.802.399.2.597.4.697 1.103.1.702-.1 4.412 0 5.114s.498 5.415.697 6.016c.2.602.797 4.212.896 5.014.1.802-.398 3.008-.896 3.81-.497.803-3.104.856-3.104.856M12.018 10.297c-.28-1.416 2.686-5.299 4.526-4.055.9.608.3 3.06-.369 3.64-.67.579-3.854 1.95-4.157.415"/>
    </g>
</svg>
