<svg xmlns="http://www.w3.org/2000/svg" xmlns:xlink="http://www.w3.org/1999/xlink" width="32" height="53" viewBox="0 0 32 53">
    <defs>
        <path id="a" d="M0 .325H31.43V53H0z"/>
        <path id="c" d="M0 .323h27.53v44.668H0z"/>
    </defs>
    <g fill="none" fill-rule="evenodd">
        <g>
            <mask id="b" fill="#fff">
                <use xlink:href="#a"/>
            </mask>
            <path fill="#935F3B" d="M31.372 31.443c-.015-3.912-2.059-11.376-3.814-15.436C24.89 9.834 21.372 3.62 20.401 2.563 19.25 1.313 17.696.325 15.714.325c-1.564 0-2.957 1.04-4.313 2.275-1.06.968-4.861 7.234-7.53 13.407C2.115 20.067.072 27.531.057 31.443c-.02 5.693-.414 8.042 1.2 12.128.39.982.49 1.404 1.622 3.134 4.431 6.774 12.835 6.288 12.835 6.288s8.405.486 12.836-6.288c1.132-1.73 1.233-2.152 1.622-3.134 1.615-4.086 1.221-6.435 1.2-12.128" mask="url(#b)"/>
        </g>
        <path fill="#9D633B" d="M11.127 12s-2.566 1.89-5.572 9.903c-3.006 8.011-.906 13.737.103 15.654 1.01 1.918 4.509 1.37 4.509 1.37s2.383-.275 3.843-2.389c1.471-2.13 1.986-4.071 1.99-5.463.003-1.726-.161-3.562-.343-5.575-.113-1.256-2.882-11.018-3.157-11.838-.275-.82-.14-1.549-1.373-1.662"/>
        <g>
            <mask id="d" fill="#fff">
                <use xlink:href="#c"/>
            </mask>
            <path fill="#9D663F" d="M22.544 14.588c2.648-2.087 6.29 3.689 4.517-.352-2.695-6.14-5.484-10.634-6.464-11.685-1.16-1.245-2.732-2.228-4.732-2.228-1.579 0-2.985 1.034-4.354 2.264-1.07.963-4.908 7.198-7.602 13.34C2.136 19.967.073 27.393.059 31.286c-.023 5.664-.42 8.001 1.211 12.066.393.978-.729-3.562 1.365-3.667 1.024-.051 4.847 5.305 9.997 5.306 5.58 0 7.929-3.385 8.942-11.35.713-5.608-2.231-16.53.97-19.053" mask="url(#d)"/>
        </g>
        <path fill="#A47962" d="M9.789 12.685c-2.633 4.436-6.083 12.477-5.77 20.135.314 7.658 4.815 4.82 5.339 3.904.465-.814 1.297-3.063-.63-4.827-1.345-1.23-1.244-3.186-1.2-6.08.021-1.32 2.161-7.959 2.491-8.85.528-1.43 1.674-3.402 1.743-3.481.25-.29.424-.784-.119-1.178-.542-.394-.944-.325-1.177-.25-.3.097-.56.43-.677.627M12.015 6.297c-.224-1.416 2.148-5.299 3.62-4.055.72.608.241 3.06-.295 3.64-.537.579-3.083 1.95-3.325.415"/>
    </g>
</svg>
