<svg xmlns="http://www.w3.org/2000/svg" xmlns:xlink="http://www.w3.org/1999/xlink" width="106" height="104" viewBox="0 0 106 104">
    <defs>
        <path id="prefix__a" d="M.65 52.034c0 28.443 23.505 51.5 52.5 51.5s52.5-23.057 52.5-51.5c0-28.442-23.505-51.499-52.5-51.499S.65 23.592.65 52.034z"/>
        <path id="prefix__c" d="M5.198 31.037c1.182.082 2.249 1.692 2.736 2.719.287.605.616 1.421.429 2.124a1.055 1.055 0 01-.305.516c-.354.785-1.284 1.002-2.043 1.002a4.7 4.7 0 01-.295-.011c-.799-.062-1.405-.396-1.682-1.272a7.17 7.17 0 01-.299-1.527A50.518 50.518 0 00.65 52.034 50.498 50.498 0 006.9 76.425c6.615 1.156 13.312 1.657 20.009 1.657 4.311 0 8.621-.207 12.911-.581 12.433-1.084 23.788-6.767 35.926-9.449a41.863 41.863 0 019.085-.986c3.418 0 6.832.398 10.306 1.105 2.436.495 4.853 1.098 7.263 1.745a50.536 50.536 0 003.25-17.882 50.531 50.531 0 00-2.849-16.778c-.305-.107-.595-.294-.668-.633a1.434 1.434 0 01.109-.882C94.721 14.329 75.578.535 53.15.535c-21.372 0-39.76 12.526-47.952 30.502zm36.431-15.459c-.604-.091-1.605-.318-1.777-1.125-.331-1.534 1.338-2.99 2.359-3.609.424-.257.967-.547 1.484-.547.134 0 .266.02.391.062a.902.902 0 01.455.346c.787.453.924 1.753.873 2.649-.054.907-.347 1.591-1.118 1.905a5.203 5.203 0 01-1.935.372c-.246 0-.491-.018-.732-.053zm-18 14.883c-.333-.047-.883-.172-.982-.618-.182-.848.742-1.648 1.305-1.991.231-.143.53-.302.816-.302.073 0 .147.012.216.036.11.038.191.105.251.191.433.248.511.965.481 1.459-.029.502-.19.879-.615 1.052a2.852 2.852 0 01-1.065.203 2.6 2.6 0 01-.407-.03zm47.759 3.299c-.567-.044-.999-.281-1.195-.903a5.273 5.273 0 01-.199-2.15c.054-.485.197-1.292.706-1.434a.991.991 0 01.25-.032c.868 0 1.661 1.185 2.016 1.937.204.429.438 1.012.305 1.51a.724.724 0 01-.218.367c-.251.561-.912.713-1.45.713-.075 0-.146-.002-.215-.008zM52.634 44.546c-.428-.061-1.141-.224-1.263-.798-.236-1.092.954-2.128 1.678-2.568.303-.183.689-.391 1.058-.391.095 0 .188.014.279.044a.657.657 0 01.323.246c.56.324.658 1.248.619 1.885-.037.647-.246 1.134-.795 1.357a3.669 3.669 0 01-1.375.265c-.176 0-.352-.014-.524-.04zm38.611.823c-.224-.036-.593-.119-.658-.416-.12-.57.496-1.107.874-1.336.157-.097.359-.204.549-.204.05 0 .098.008.145.025l.167.126c.295.17.347.649.326.981-.021.337-.129.589-.414.705a1.925 1.925 0 01-.989.119z"/>
        <path id="prefix__e" d="M38.024 39.408c-10.719 2.131-20.75 6.641-31.732 7.502-1.802.14-3.608.252-5.417.329a51.38 51.38 0 00-.225 4.795c0 19.314 10.84 36.144 26.874 44.959 3.714-1.659 7.5-3.143 11.388-4.368 4.28-1.348 8.82-2.494 13.315-2.581.14-.003.279-.004.418-.004 4.064 0 8.067 1.148 11.884 2.458 4.534 1.557 8.928 3.502 13.477 4.91 16.459-8.693 27.644-25.752 27.644-45.374 0-2.502-.181-4.96-.532-7.367l-.125-.003c-2.803-.077-5.614-.169-8.422-.169-.887 0-1.773.008-2.659.031-3.002.295-5.986.878-8.999.878-.208 0-.416-.003-.622-.008-3.94-.11-7.909-.931-11.746-1.802-5.807-1.322-11.537-3.021-17.396-4.091-3.066-.562-6.083-.876-9.103-.876-2.657 0-5.319.245-8.022.781zm8.304 15.479c-.389-.028-.684-.173-.818-.557a2.949 2.949 0 01-.138-1.322c.039-.3.138-.797.483-.883a.742.742 0 01.173-.02c.595 0 1.137.731 1.379 1.193.139.263.3.623.21.929a.443.443 0 01-.15.226c-.172.343-.625.439-.993.439-.053 0-.1-.001-.146-.005zm50.557 11.031c-.532-.07-1.415-.25-1.567-.891-.292-1.219 1.183-2.373 2.083-2.868.377-.203.857-.432 1.312-.432.118 0 .232.015.343.049a.797.797 0 01.403.274c.696.36.819 1.391.773 2.103-.051.721-.306 1.265-.99 1.514a5.047 5.047 0 01-2.357.251zm-38.178 6.688c-.707-.047-1.242-.312-1.486-1.006a5.323 5.323 0 01-.248-2.399c.069-.542.245-1.441.878-1.597.105-.028.209-.04.312-.04 1.076 0 2.058 1.326 2.501 2.163.251.478.541 1.129.376 1.685a.822.822 0 01-.268.412c-.312.621-1.13.793-1.797.793-.093 0-.182-.003-.268-.011zm22.282 5.131c-.294-.039-.781-.141-.865-.495-.16-.671.653-1.309 1.15-1.581.207-.111.471-.237.723-.237.065 0 .128.008.19.026a.44.44 0 01.221.151c.383.199.451.768.426 1.16-.026.398-.171.697-.545.834a2.769 2.769 0 01-.943.165c-.121 0-.239-.009-.357-.023zm-45.358 3.791c-.506-.035-.885-.222-1.06-.717a3.777 3.777 0 01-.174-1.707c.049-.387.174-1.028.622-1.138a.86.86 0 01.222-.028c.767 0 1.466.942 1.78 1.538.179.342.386.806.27 1.202a.597.597 0 01-.192.291c-.223.443-.807.566-1.281.566a2.74 2.74 0 01-.187-.007z"/>
        <path id="prefix__g" d="M97.526 62.624c-.642.446-1.695 1.487-1.487 2.586.108.579.739.741 1.118.805a2.918 2.918 0 001.682-.227c.489-.224.671-.715.707-1.366.032-.642-.055-1.571-.551-1.896a.584.584 0 00-.288-.248.685.685 0 00-.245-.044c-.326 0-.668.206-.936.39z"/>
        <path id="prefix__i" d="M26.651 53.781l-.01.114c-.875 10.344 6.632 19.446 16.814 20.406l.24.021a18.52 18.52 0 002.913.004c4.655-.141 10.893-.906 14.753-1.789 6.138-1.402 9.291-3.302 12.327-5.365 2.278-1.547 5.085-4.185 5.794-5.601a8.143 8.143 0 00.802-3.039s.194-1.51-.262-3.131c-.381-1.357-2.759-4.603-4.733-6.522-2.632-2.558-5.407-4.979-11.208-7.425-3.647-1.539-9.659-3.378-14.219-4.323a18.535 18.535 0 00-2.883-.504l-.208-.017a18.44 18.44 0 00-1.516-.063c-9.56 0-17.714 7.406-18.604 17.234z"/>
        <path id="prefix__k" d="M40.199 37.204c-3.849 1.024-.309.965-.967 2.296-.709 1.428-4.334 6.282-4.705 9.899l-.016.183a5.51 5.51 0 00-.013.255c-.141 5.355 5.075 10.96 16.298 12.51 4.829.668 16.163-.376 16.304 4.191.06 1.952-2.147 3.193-1.958 3.867.499 1.788 6.063-1.548 6.958-2.183 2.251-1.597 6.667-5.215 7.379-6.632.566-1.127.734-2.268.783-2.773l.012-.128.008-.14s.195-1.511-.263-3.134c-.384-1.358-2.771-4.608-4.752-6.53-2.641-2.561-5.427-4.983-11.249-7.434-3.66-1.54-9.694-3.382-14.268-4.33-.804-.205-1.935-.422-2.631-.491l-.144-.012a2.609 2.609 0 00-.22-.01c-.54-.003-1.053-.012-1.563-.012-1.517 0-2.993.076-4.993.608z"/>
        <path id="prefix__m" d="M45.627 42.945c-1.986.825-2.263 3.382-2.263 3.382s-.174 2.601.582 3.167c.756.566 2.91 1.254 3.718 1.224.809-.029 4.456-.31 5.073-.455.616-.146 5.346-.132 6.053-.171.354-.019 1.451.103 2.547.224 1.097.121 2.194.242 2.548.223.709-.039.925-.22 1.16-.599.235-.38.204-1.181-.649-1.774-.856-.592-6.404-2.741-8.941-3.663-2.012-.73-5.766-1.802-8.223-1.802-.641 0-1.195.073-1.605.244z"/>
        <path id="prefix__o" d="M70.785 50.765c-1.555.168-.467 3.458.052 4.177.518.718 2.909 1.529 3.593.685 1.368-1.685-2.049-4.868-3.544-4.868a.819.819 0 00-.101.006z"/>
    </defs>
    <g fill="none" fill-rule="evenodd" transform="translate(-.537 -.264)">
        <mask id="prefix__b" fill="#fff">
            <use xlink:href="#prefix__a"/>
        </mask>
        <path fill="#7A4E30" d="M-26.808 124.774L130.255 124.774 130.255 -24.956 -26.808 -24.956z" mask="url(#prefix__b)"/>
        <mask id="prefix__d" fill="#fff">
            <use xlink:href="#prefix__c"/>
        </mask>
        <path fill="#382419" d="M-25.163 89.451L130.307 89.451 130.307 -25 -25.163 -25z" mask="url(#prefix__d)"/>
        <mask id="prefix__f" fill="#fff">
            <use xlink:href="#prefix__e"/>
        </mask>
        <path fill="#543122" d="M-27 127.121L129.969 127.121 129.969 23.25 -27 23.25z" mask="url(#prefix__f)"/>
        <mask id="prefix__h" fill="#fff">
            <use xlink:href="#prefix__g"/>
        </mask>
        <path fill="#46291D" d="M86.698 76.088L108.864 76.088 108.864 52.199 86.698 52.199z" mask="url(#prefix__h)"/>
        <mask id="prefix__j" fill="#fff">
            <use xlink:href="#prefix__i"/>
        </mask>
        <path fill="#895932" d="M87.353 35.141L83.184 82.796 19.58 77.232 23.749 29.576z" mask="url(#prefix__j)"/>
        <mask id="prefix__l" fill="#fff">
            <use xlink:href="#prefix__k"/>
        </mask>
        <path fill="#96663F" d="M87.353 35.131L83.647 77.495 27.479 72.581 31.186 30.217z" mask="url(#prefix__l)"/>
        <mask id="prefix__n" fill="#fff">
            <use xlink:href="#prefix__m"/>
        </mask>
        <path fill="#9C7556" d="M71.045 39.727L69.477 57.659 37.599 54.869 39.167 36.938z" mask="url(#prefix__n)"/>
        <mask id="prefix__p" fill="#fff">
            <use xlink:href="#prefix__o"/>
        </mask>
        <path fill="#9C7556" d="M80.484 46.576L79.176 61.519 64.234 60.211 65.541 45.269z" mask="url(#prefix__p)"/>
    </g>
</svg>
