<svg xmlns="http://www.w3.org/2000/svg" xmlns:xlink="http://www.w3.org/1999/xlink" width="54" height="39" viewBox="0 0 54 39">
    <defs>
        <path id="a" d="M.01.153h37.837V54H.01z"/>
        <path id="c" d="M0 .154h32.526v46.382H0z"/>
    </defs>
    <g fill="none" fill-rule="evenodd">
        <g transform="rotate(95 26.207 27.165)">
            <mask id="b" fill="#fff">
                <use xlink:href="#a"/>
            </mask>
            <path fill="#8B5932" d="M37.597 32.328c-.546-4.624-1.853-10.773-3.068-14.54-1.931-5.993-4.1-8.968-6.42-11.813-1.739-2.134-4.611-4.7-6.084-5.284-1.566-.62-3.097-.534-3.097-.534s-1.52-.062-3.096.534c-1.318.499-4.345 3.15-6.085 5.284-2.32 2.845-4.488 5.82-6.42 11.813C2.114 21.555.806 27.704.26 32.328c-.162.983-.25 1.99-.25 3.017C.01 45.648 8.48 54 18.928 54c10.45 0 18.92-8.352 18.92-18.655 0-1.027-.089-2.034-.25-3.017" mask="url(#b)"/>
        </g>
        <g transform="rotate(95 26.207 27.165)">
            <mask id="d" fill="#fff">
                <use xlink:href="#c"/>
            </mask>
            <path fill="#98663F" d="M28.053 12.593c1.94-.23 3.368 1.86 4.023 1.614 1.737-.654-2.07-5.905-2.781-6.742-1.788-2.103-5.776-6.186-7.25-6.772-1.568-.622-3.1-.535-3.1-.535s-1.522-.063-3.1.535c-1.319.5-4.348 3.161-6.089 5.302C7.434 8.85 5.264 11.837 3.33 17.85 2.115 21.63.806 27.8.26 32.44c-.162.986-.298 2.446-.25 3.028.175 2.142.225 3.88 1.165 6.48 1.355 3.745.989.223 2.372.763 1.545.604 7.064 4.036 10.71 3.814 5.347-.326 10.475-6.01 11.042-17.325.244-4.87-1.784-16.07 2.754-16.608" mask="url(#d)"/>
        </g>
        <path fill="#9E7556" d="M16.827 10.063s.278-2.557 2.262-3.383c1.985-.826 7.292.638 9.829 1.56 2.537.921 8.086 3.07 8.94 3.663.854.592.885 1.394.65 1.773-.235.38-.451.56-1.16.598-.707.039-4.386-.484-5.094-.445-.708.038-5.438.023-6.054.17-.617.145-4.265.426-5.073.455-.808.03-2.962-.658-3.718-1.224-.756-.566-.582-3.167-.582-3.167M44.248 14.5c1.435-.154 5.044 3.138 3.645 4.863-.684.843-3.075.033-3.594-.685-.518-.718-1.606-4.01-.05-4.177"/>
    </g>
</svg>
