<svg xmlns="http://www.w3.org/2000/svg" width="111" height="112" viewBox="0 0 111 112">
    <defs>
        <linearGradient id="prefix__a" x1="-6.432%" x2="104.639%" y1="63.4%" y2="24.937%">
            <stop offset="31.96%" stop-color="#FFF" stop-opacity=".6"/>
            <stop offset="53.569%" stop-color="#D4D7FF" stop-opacity=".489"/>
            <stop offset="71.423%" stop-color="#D4D7FF"/>
        </linearGradient>
        <linearGradient id="prefix__b" x1="-.341%" x2="101.478%" y1="51.994%" y2="48.751%">
            <stop offset="31.96%" stop-color="#FFF" stop-opacity=".6"/>
            <stop offset="53.569%" stop-color="#D4D7FF" stop-opacity=".489"/>
            <stop offset="71.423%" stop-color="#D4D7FF"/>
        </linearGradient>
        <linearGradient id="prefix__c" x1="44.896%" x2="60.387%" y1="23.259%" y2="77.168%">
            <stop offset="31.96%" stop-color="#FFF" stop-opacity=".6"/>
            <stop offset="53.569%" stop-color="#D4D7FF" stop-opacity=".489"/>
            <stop offset="71.423%" stop-color="#D4D7FF"/>
        </linearGradient>
        <linearGradient id="prefix__d" x1="2.512%" x2="96.628%" y1="45.845%" y2="52.703%">
            <stop offset="31.96%" stop-color="#FFF" stop-opacity=".6"/>
            <stop offset="53.569%" stop-color="#D4D7FF" stop-opacity=".489"/>
            <stop offset="71.423%" stop-color="#D4D7FF"/>
        </linearGradient>
        <linearGradient id="prefix__e" x1="32.889%" x2="60.09%" y1="27.666%" y2="56.706%">
            <stop offset="31.96%" stop-color="#FFF" stop-opacity=".6"/>
            <stop offset="53.569%" stop-color="#D4D7FF" stop-opacity=".489"/>
            <stop offset="71.423%" stop-color="#D4D7FF"/>
        </linearGradient>
        <linearGradient id="prefix__f" x1="56.83%" x2="39.464%" y1="37.54%" y2="61.271%">
            <stop offset="31.96%" stop-color="#FFF" stop-opacity=".6"/>
            <stop offset="53.569%" stop-color="#D4D7FF" stop-opacity=".489"/>
            <stop offset="71.423%" stop-color="#D4D7FF"/>
        </linearGradient>
        <linearGradient id="prefix__g" x1="44.02%" x2="58.16%" y1="29.288%" y2="76.987%">
            <stop offset="31.96%" stop-color="#FFF" stop-opacity=".6"/>
            <stop offset="53.569%" stop-color="#D4D7FF" stop-opacity=".489"/>
            <stop offset="71.423%" stop-color="#D4D7FF"/>
        </linearGradient>
        <linearGradient id="prefix__h" x1="44.427%" x2="57.596%" y1="32.428%" y2="72.873%">
            <stop offset="31.96%" stop-color="#FFF" stop-opacity=".6"/>
            <stop offset="53.569%" stop-color="#D4D7FF" stop-opacity=".489"/>
            <stop offset="71.423%" stop-color="#D4D7FF"/>
        </linearGradient>
        <linearGradient id="prefix__i" x1="27.026%" x2="61.232%" y1="7.581%" y2="62.825%">
            <stop offset="31.96%" stop-color="#FFF" stop-opacity=".6"/>
            <stop offset="53.569%" stop-color="#D4D7FF" stop-opacity=".489"/>
            <stop offset="71.423%" stop-color="#D4D7FF"/>
        </linearGradient>
        <linearGradient id="prefix__j" x1="34.422%" x2="56.312%" y1="26.411%" y2="58.278%">
            <stop offset="31.96%" stop-color="#FFF" stop-opacity=".6"/>
            <stop offset="53.569%" stop-color="#D4D7FF" stop-opacity=".489"/>
            <stop offset="71.423%" stop-color="#D4D7FF"/>
        </linearGradient>
    </defs>
    <g fill="none" fill-rule="evenodd" transform="translate(9 9)">
        <ellipse cx="46.5" cy="47" fill="#A8DBF4" stroke="#A8DBF4" stroke-width="9" rx="51" ry="51.5"/>
        <path fill="#95BD36" fill-rule="nonzero" d="M86.645 83.253c.708-6.367-.43-12.968-2.026-19.12-1.615-5.995-3.712-11.848-6.27-17.502-2.52-5.708-5.57-11.317-10.364-15.438-2.391-2.089-5.065-3.828-7.942-5.165-2.828-1.263-5.731-2.347-8.695-3.244-4.023-1.255-7.966-2.767-12.031-3.888-2.355-.665-4.77-1.096-7.21-1.287-2.01-.147-4.03-.126-6.033-.375l1.483.19c-1.184-.153-2.346-.45-3.46-.88l1.38.576c-.205-.085-.407-.177-.606-.275-1.31-.718-2.842-.92-4.295-.567-1.399.396-2.594 1.315-3.34 2.566-1.306 2.48-.84 6.324 1.98 7.653 2.587 1.198 5.377 1.895 8.223 2.056 2.065.163 4.14.133 6.197.388l-1.483-.19c4.27.6 8.41 2.21 12.474 3.586 3.3 1.116 6.667 2.049 9.892 3.376l-1.38-.577c2.5 1.019 4.859 2.356 7.017 3.978l-1.14-.89c1.118.871 2.167 1.828 3.136 2.863.503.539.97 1.105 1.441 1.672.246.295.44.785-.302-.41.108.174.251.341.37.505.248.348.49.7.725 1.058 1.432 2.266 2.688 4.641 3.755 7.102.495 1.087.967 2.182 1.433 3.28.253.597-.511-1.239-.264-.634l.142.347c.128.314.255.628.38.943.259.65.512 1.301.759 1.955 1.022 2.706 1.944 5.452 2.737 8.235.937 3.238 1.647 6.538 2.125 9.877l-.197-1.436c.474 3.232.554 6.51.236 9.763.009 1.459.587 2.855 1.61 3.891 1.038 1.054 2.453 1.65 3.932 1.657 1.48.006 2.901-.577 3.953-1.621.997-1.109 1.583-2.528 1.658-4.018z"/>
        <g fill-rule="nonzero" stroke="#051F44" stroke-width=".03" transform="rotate(-77 41.472 11.543)">
            <ellipse cx="12.679" cy="12.572" fill="#1D2643" rx="9.58" ry="8.027" transform="rotate(-34.499 12.68 12.572)"/>
            <path fill="#4F5A85" d="M3.256 15.567c1.516-1.182 3.143-2.312 4.872-3.385 3.462-2.104 7.833-4.06 12.948-4.18.28-.007.56-.006.837.002-3.721-2.673-10.208-3.223-15.017-1.273-4.809 1.949-6.381 5.766-3.64 8.836h0z" opacity=".52"/>
            <path fill="#111828" d="M8.288 12.143c-.314-.193-.41-.127-1.582-.415-1.14-.28-1.714-.426-1.84-.687-.11-.224.118-.448.58-.888.82-.781 1.311-.818 1.386-1.288.057-.36-.22-.42-.163-.92-.008-.345.207-.673.58-.888.188-.074.4-.11.613-.104.3.023.595.08.872.167.35.07.687.171 1 .304.2.107.273.187.42.191.159.005.222-.083.484-.24.15-.091.312-.172.484-.24.241-.093.503-.156.774-.184.372-.04.567-.06.742.031.165.086.231.266.356.624.053.289.162.572.324.839.076.095.162.186.258.272.222.23.495.433.808.599.377.185.406.077.71.247.299.179.523.414.646.68.072.11.105.23.097.352-.03.193-.217.298-.515.456-.356.208-.733.395-1.13.56-.658.16-1.01-.01-1.225.209-.142.144-.01.238-.096.648-.029.293-.174.573-.419.808-.123.1-.164.089-.806.4-.219.106-.282.218-.484.24-.205.008-.408-.031-.581-.111-.392-.125-.77-.271-1.13-.44-.747-.438-.518-.826-1.163-1.222z"/>
            <ellipse cx="10.548" cy="10.055" fill="#2E3183" opacity=".36" rx="2.283" ry="1.492" transform="rotate(-16.445 10.548 10.055)"/>
            <circle cx="10.653" cy="10.062" r="1" fill="#D9AFE0" opacity=".25" transform="rotate(-34.499 10.653 10.062)"/>
        </g>
        <g fill-rule="nonzero" opacity=".809">
            <path fill="url(#prefix__a)" d="M16.814 46.37c2.065 1.023 4.421-6.419 16.138-15.506 7.668-5.948 11.502-8.922 13.982-9.748 2.255-.637 4.303-1.957 5.909-3.812 1.825-2.232 2.774-5.213 2.156-5.759-.57-.502-1.983 1.482-4.73 2.322-2.334.574-4.772.373-7.004-.578-6.31-1.977-14.852 1.84-18.729 4.8-10.134 7.74-10.818 26.749-7.722 28.282z" transform="rotate(-177 33.182 35.931)"/>
            <path fill="url(#prefix__b)" d="M5.972 44.493c-3.099-6.007 1.491-14.258 6.854-18.216 2.757-2.035 5.733-2.647 11.685-3.87 10.219-2.1 16.654-.335 19.539-1.12.226-.084.478-.068.69.044.84.623-.852 4.023-1.572 5.71-3.412 8.003.362 11.99-3.006 16.739-1.591 2.243-3.864 3.13-8.41 4.901-5.075 2.484-10.854 3.181-16.384 1.977-3.855-.69-7.253-2.92-9.396-6.165z" transform="rotate(-177 33.182 35.931)"/>
            <path fill="url(#prefix__c)" d="M5.884 43.548c-3.37-6.887 1.89-16.485 7.946-21.137 3.115-2.392 6.45-3.144 13.123-4.649 11.456-2.583 18.622-.644 21.859-1.594.25-.102.53-.087.77.04.93.705-1.015 4.657-1.846 6.616-3.939 9.292.217 13.837-3.622 19.372-1.814 2.614-4.369 3.672-9.477 5.789-5.705 2.944-12.137 3.832-18.346 2.535-2.566-.7-8.075-2.204-10.407-6.972z" transform="rotate(-177 33.182 35.931)"/>
            <path fill="#5C8000" d="M30.241 37.527c-.052.035-.102.075-.15.121.112.362.262.696.445.989.768 1.064 1.753 1.726 2.802 1.882 1.674.449 3.402-.027 4.854-1.337 1.152-1.048 2.174-2.787 1.832-3.344-.09-.147-.255-.17-.483-.146-.223.263-.464.49-.719.68-1.902 1.742-4.151 2.474-6.374 2.075-.768-.106-1.515-.418-2.207-.92z" transform="rotate(-177 33.182 35.931)"/>
            <path fill="url(#prefix__d)" d="M10.37 45.316c-1.904-4.167 3.071-9.523 8.044-12.531 10.255-6.206 19.39-1.759 32.988-8.72 3.843-1.966 6.06-3.83 7.509-3.28 2.554.969.115 8.448-4.026 14.098-5.513 7.31-13.349 12.412-22.148 14.423-5.47 1.758-11.32 1.84-16.834.236-2.274-.694-4.234-2.191-5.533-4.226z" transform="rotate(-177 33.182 35.931)"/>
            <path fill="url(#prefix__e)" d="M15.287 45.467c2.512.258 2.615-7.418 12.088-19.737 6.2-8.062 9.3-12.094 11.657-13.685 2.18-1.341 3.922-3.247 5.025-5.498 1.214-2.676 1.26-5.752.43-6.052-.763-.275-1.62 2.033-4.255 3.727-2.289 1.31-4.932 1.936-7.593 1.798-7.31.273-15.116 6.653-18.265 10.686-8.233 10.543-2.853 28.373.913 28.76z" transform="rotate(-177 33.182 35.931)"/>
            <path fill="url(#prefix__f)" d="M5.368 39.761c.002-5.17 6.786-8.188 12.586-8.819 11.963-1.302 18.45 7.687 33.783 7.251 4.332-.123 7.136-.936 8.23.332 1.93 2.234-3.424 8.652-9.57 12.376-8.092 4.743-17.383 6.105-26.263 3.85-5.73-.883-11.11-3.659-15.478-7.985-1.787-1.818-2.952-4.3-3.288-7.005z" transform="rotate(-177 33.182 35.931)"/>
            <path fill="#95BD36" d="M30.711 34.293c2.04-.621 4.018-1.441 5.91-2.449 2.97-1.555 5.69-3.582 8.064-6.01-.03-.046-.813.666-2.156 1.505-3.19 1.752-6.65 2.904-10.224 3.402-4.246.94-4.115.755-5.751 1.271-2.73.86-6.93 2.582-6.868 3.346.07.882 5.811.534 11.025-1.065z" transform="rotate(-177 33.182 35.931)"/>
            <path fill="url(#prefix__g)" d="M23.463 54.269c4.354-1.383 8.587-3.22 12.644-5.489 4.303-2.375 8.005-5.956 10.76-10.405 1.288-1.898 2.446-3.907 3.463-6.007.02-.157.032-.315.038-.474.002-.19-.023-.377-.075-.557-.11-.05-.223-.096-.332-.148-.175-.083-.477-.213-.79-.376-10.969 8.199-19.426 5.92-27.612 13.041-3.845 3.345-7.434 8.597-5.776 11.959.207-.015.415-.031.622-.05 2.389-.248 4.751-.749 7.058-1.494z" transform="rotate(-177 33.182 35.931)"/>
            <path fill="url(#prefix__h)" d="M20.276 48.861c5.569-1.706 10.994-3.944 16.214-6.69 5.474-2.825 10.243-7.09 13.895-12.425 1.667-2.242 3.177-4.622 4.517-7.12.028-.183.046-.37.055-.556.007-.222-.022-.443-.086-.653-.14-.056-.282-.108-.42-.167-.222-.094-.605-.24-1.002-.426-14.124 9.84-24.87 7.33-35.427 15.85-4.959 4.002-9.623 10.236-7.565 14.15.265-.022.53-.044.794-.07 3.052-.34 6.072-.973 9.025-1.893z" transform="rotate(-177 33.182 35.931)"/>
            <path fill="url(#prefix__i)" d="M7.114 41.073c1.234.694 1.9-3.754 7.618-8.879 2.046-2.175 4.378-4.01 6.92-5.447 1.184-.301 2.23-1.052 2.95-2.115.82-1.296 1.09-3.077.699-3.43-.36-.326-.973.832-2.425 1.249-1.338.249-2.714.041-3.938-.595-3.472-.97-7.163-.13-9.982 2.272-4.957 4.358-3.693 15.904-1.842 16.945z" transform="rotate(-177 33.182 35.931)"/>
            <path fill="url(#prefix__j)" d="M5.79 41.248c1.735 1.095 3.962-4.722 14.235-10.73 3.778-2.61 7.89-4.718 12.228-6.27 1.936-.24 3.743-1.079 5.159-2.397 1.624-1.607 2.52-3.936 2.007-4.461-.472-.483-1.737.97-4.108 1.32-2.083.162-4.166-.306-5.97-1.342-5.37-1.746-11.243-1.156-16.144 1.62-8.882 5.098-10.01 20.618-7.407 22.26z" transform="rotate(-177 33.182 35.931)"/>
            <path fill="#5C8000" d="M14.757 46.267c9.535.204 12.247.733 14.48 3.08 1.358 1.429.634 1.528 2.694 4.179 3.46 4.453 6.063 4.897 7.234 8.556.639 1.994.565 4.047.281 4.132-.338.102-.86-2.625-2.268-4.995-2.146-3.132-5.157-5.29-8.514-6.104-5.782-1.945-7.044.553-12.777-.737-6.136-1.381-11.6-5.797-11.211-7.476.087-.376.519-.84 10.08-.635z" transform="rotate(-177 33.182 35.931)"/>
            <path fill="#457A00" d="M.606 43.119c-1.327-2.385.257-5.872 2.111-7.956 3.826-4.297 8.391-2.158 13.61-7.097 1.475-1.396 2.241-2.637 2.948-2.39 1.244.433 1.031 5.046-.149 8.662-1.278 4.207-4.202 7.758-8.143 9.891-2.21 1.365-4.906 1.764-7.434 1.102-1.22-.373-2.264-1.157-2.943-2.212z" transform="rotate(-177 33.182 35.931)"/>
            <path fill="#95BD36" d="M8.375 24.644c.855-3.126 1.387-6.336 1.588-9.577.352-4.98-.174-9.985-1.555-14.77-.088.01.24 1.527.274 3.883.05 3.547-.601 6.826-3.912 16.036-2.285 6.358-2.43 6.064-3.097 8.612C.562 33.08-.593 39.873.525 40.277c1.29.466 5.665-7.54 7.85-15.633zM5.302 46.254c-.025.13-.021.264.01.392.942.387 1.763.78 2.15.947 3.72 1.623 7.555 2.887 11.463 3.778 4.19.595 8.342 1.504 12.427 2.72 3.257 1.023 6.2 3.048 8.5 5.85.15.206.293.42.434.637-1.292-3.03-3.835-3.676-7.144-7.79-2.104-2.615-1.365-2.713-2.752-4.122-2.281-2.316-5.05-2.837-14.79-3.039-9.768-.201-10.209.256-10.298.627z" transform="rotate(-177 33.182 35.931)"/>
            <path fill="#5C8000" d="M.3 43.865c-.074.144-.136.292-.185.444.615.44 1.308.786 2.049 1.022 2.739.662 5.661.263 8.056-1.102 4.27-2.133 7.438-5.684 8.824-9.891 1.278-3.616 1.51-8.23.16-8.664-.357-.114-.732.103-1.189.5-.174.788-.432 1.558-.769 2.301-.953 5.381-6.85 10.95-11.23 13.546C4.293 43.023 2.337 43.654.3 43.865z" transform="rotate(-177 33.182 35.931)"/>
        </g>
    </g>
</svg>
