<svg xmlns="http://www.w3.org/2000/svg" width="111" height="112" viewBox="0 0 111 112">
    <g fill="none" fill-rule="evenodd" transform="translate(9 9)">
        <ellipse cx="46.5" cy="47" fill="#A8DBF4" stroke="#A8DBF4" stroke-width="9" rx="51" ry="51.5"/>
        <g fill-rule="nonzero">
            <path fill="#93BB36" d="M10.487 0c-.225 3.568-.763 7.449-2.058 9.503 9.746 12.153 20.46 23.498 32.036 33.923 5.594 5.033 11.173 9.651 16.677 13.89l1.933-4.846c-3.151-2.12-6.182-4.414-9.076-6.873-9.836-8.351-13.973-15.092-22.343-25.754-1.551-1.974-6.894-8.104-17.17-19.843z" transform="translate(8 2)"/>
            <path fill="#93BB36" d="M63.386 40.131c.473 1.395 1.16 2.707 2.036 3.891-2.275 4.191-5.083 8.07-8.356 11.537-1.518 1.601-3.132 3.108-4.834 4.511l-1.389-2.037c.97-.645 1.88-1.376 2.719-2.183 2.83-2.724 3.606-5.15 5.56-8.877.361-.69 1.694-2.801 4.264-6.842zM61.498 53.952c.298.772.723 1.49 1.257 2.123-1.445 2.327-3.194 4.45-5.2 6.315-.952.883-1.955 1.708-3.006 2.471l-.859-1.11c.597-.35 1.162-.75 1.69-1.197 1.76-1.492 2.245-2.819 3.462-4.858.225-.378 1.055-1.533 2.656-3.744z" transform="translate(8 2)"/>
            <g>
                <path fill="#93BB36" stroke="#9AB43F" stroke-width=".3" d="M18.4.66c.47.062.94.136 1.412.221 1.573 3.074.313 5.808-.906 8.614-4.772 5.827-13.29 9.354-16.55 7.748-3.131-1.542-3.41-8.802 1.862-11.97 4.175-2.508 9.282-.92 13.588-4.128.213-.159.408-.321.593-.485z" transform="translate(8 2) translate(18 58)"/>
                <path fill="#457A00" d="M18.707.704c.368.052.736.111 1.104.177.275.526.48 1.086.607 1.666-4.2 5.785-11.286 10.198-19.258 13.571C-.53 13.442.04 8.05 4.388 5.438c4.175-2.51 9.282-.92 13.589-4.129.253-.189.497-.391.73-.605z" transform="translate(8 2) translate(18 58)"/>
                <path fill="#5C8000" d="M18.172.633c.548.068 1.095.15 1.643.249.015.03.035.06.05.089-.967.847-2.03 1.579-3.166 2.18-.243.165-.477.336-.71.509-.446.176-.878.389-1.29.636-.696.327-1.385.665-2.054 1.017l-.249.131c-.595.32-1.168.656-1.712 1.008-.3.166-.754.458-.877.518-.637.299-1.25.645-1.836 1.035-.16.11-.309.23-.46.347C4.493 9.88.76 12.423 1.357 15.425l-.509.31c-1.632-2.7-1.03-8.019 3.277-10.607C8.3 2.619 13.407 4.208 17.714.999c.162-.12.313-.243.458-.366z" transform="translate(8 2) translate(18 58)"/>
            </g>
            <path fill="#9C7E46" d="M22.16 78.304c.663-1.204 1.446-2.388 2.07-2.584.064-8.09-.16-16.796-.806-26.051-.295-4.224-.652-8.287-1.071-12.188l-1.24.94c.196 1.438.474 3.66.701 6.383.605 7.247.3 11.47.2 18.933-.018 1.382.035 5.899.145 14.567z" transform="translate(8 2)"/>
            <path fill="#9C7E46" d="M39.216 76.376c-.046-1.375.02-2.793.458-3.28-4.083-6.985-8.729-14.35-14.018-21.973-2.414-3.48-4.799-6.788-7.154-9.925l-.585 1.442c.904 1.135 2.28 2.903 3.867 5.126 4.226 5.918 6.126 9.703 9.856 16.166.692 1.197 3.047 5.051 7.576 12.444zM37.04 63.675c.319-1.678.803-3.4 1.533-3.953-.888-2.89-2.069-5.68-3.524-8.33-1.232-2.246-3.19-5.35-12.165-17.086-2.184-2.856-5.32-6.924-3.64-9.569.597-.938 1.778-1.665 1.786-2.902.009-1.33-1.346-2.33-2.418-2.943l-1.196 1.703c-.773 1.58-1.24 3.292-1.377 5.046-.573 8.363 7.704 12.737 14.144 22.17 3.258 4.813 5.583 10.194 6.856 15.864z" transform="translate(8 2)"/>
            <path fill="#93BB36" d="M23.348 69.601c.617.285 1.155.714 1.57 1.252 3.234-1.106 6.371-2.473 9.381-4.088 1.473-.79 2.866-1.61 4.182-2.447l-.716-.83c-.69.5-1.408.965-2.148 1.39-2.496 1.43-4.147 1.757-6.932 2.673-.516.17-2.169.812-5.337 2.05z" transform="translate(8 2)"/>
            <path fill="#93BB36" d="M38.264 68.184c-.246.639-.355 1.321-.32 2.004-2.699.649-5.461.997-8.237 1.038-1.374.023-2.714-.025-4.014-.128l.004-1.16c.706.113 1.42.177 2.134.192 2.38.047 3.615-.505 5.897-1.095.423-.11 1.831-.366 4.536-.85zM46.834 52.55c.425-.053.832-.2 1.192-.433 2.62.705 5.387 1.558 8.26 2.595 1.31.474 2.559.953 3.744 1.437l-.517.313c-.43-.192-1.098-.48-1.937-.797-1.986-.708-4.013-1.297-6.07-1.763-.449-.118-1.896-.54-4.672-1.353z" transform="translate(8 2)"/>
            <g transform="translate(8 2) translate(17 55)">
                <ellipse cx="6.983" cy="6.674" fill="#1D2643" rx="5.791" ry="5.396" transform="rotate(-9.65 6.983 6.674)"/>
                <path fill="#4F5A83" d="M9.74 11.363c-.118-1.184-.31-2.36-.573-3.52C8.619 5.548 7.6 3.14 5.395 1.83c-.12-.072-.245-.138-.37-.199 2.766-1.063 5.89.123 7.251 2.755 1.177 2.63.054 5.717-2.536 6.976z" opacity=".52"/>
                <path fill="#111828" d="M9.182 7.244c.224-.038.241.026.899.146.64.116.964.172 1.128.047.142-.108.127-.3.093-.681-.062-.677-.275-.823-.118-1.125.12-.232.271-.198.448-.514.141-.197.176-.453.092-.68-.059-.094-.142-.169-.241-.217-.15-.062-.309-.102-.47-.118-.192-.046-.389-.069-.586-.068-.136.015-.201.045-.271.01-.076-.036-.069-.105-.126-.265-.033-.093-.075-.183-.126-.266-.075-.119-.171-.222-.283-.306-.156-.117-.238-.178-.356-.167-.111.01-.215.103-.417.287-.144.163-.308.306-.49.426-.074.038-.15.071-.23.099-.196.083-.403.137-.615.159-.25.017-.219-.056-.429-.029-.21.032-.407.118-.574.248-.076.047-.14.112-.187.188-.065.124-.02.234.053.404.08.215.178.423.294.621.24.261.471.247.482.434.007.122-.092.146-.218.414-.105.18-.152.386-.135.593.016.091.04.095.21.443.058.119.042.202.126.266.095.057.204.085.314.079.233.023.467.03.7.018.523-.077.575-.369 1.033-.446z"/>
                <ellipse cx="9.155" cy="5.47" fill="#2E3181" opacity=".36" rx="1.162" ry="1.259" transform="rotate(-85.384 9.155 5.47)"/>
                <circle cx="9.102" cy="5.448" r="1" fill="#D7ADDE" opacity=".25" transform="rotate(-31.598 9.102 5.448)"/>
            </g>
            <g stroke="#051F44" stroke-width=".03" transform="translate(8 2) translate(29 56)">
                <ellipse cx="7.041" cy="6.201" fill="#1D2643" rx="5.687" ry="6.124" transform="rotate(-89.152 7.041 6.2)"/>
                <path fill="#4F5A83" d="M.995 5.293c1.312-.304 2.64-.537 3.977-.697 2.656-.293 5.612-.193 7.84 1.383.122.086.24.178.352.273C13.078 3.148 10.597.645 7.494.53 4.43.224 1.627 2.277.995 5.293z" opacity=".52"/>
                <path fill="#111828" d="M5.606 4.374c-.044-.22-.12-.213-.494-.777-.365-.55-.547-.828-.474-1.023.062-.168.273-.222.693-.322.746-.179.981-.034 1.246-.283.202-.19.109-.319.38-.59.171-.207.426-.325.693-.323.119.02.23.07.322.147.121.114.223.247.303.392.12.158.218.332.292.516.035.13.028.201.09.253.069.057.14.027.333.024.11-.003.222.005.331.024.152.027.298.079.433.154.183.103.28.157.312.27.03.106-.03.233-.15.483-.119.186-.21.388-.27.6-.014.08-.02.163-.02.245-.016.21.005.42.061.623.075.236.142.182.192.385.044.205.027.419-.05.615-.022.088-.067.17-.13.238-.108.102-.242.1-.452.091-.259.001-.517-.017-.774-.055-.369-.13-.44-.348-.643-.293-.134.036-.122.136-.362.345-.159.163-.36.277-.582.33-.185.006-.37-.008-.553-.04-.148-.011-.232.033-.332-.023-.093-.063-.164-.155-.201-.261-.112-.205-.207-.418-.283-.639-.114-.508.178-.657.089-1.106z"/>
                <ellipse cx="7.511" cy="3.782" fill="#2E3181" opacity=".36" rx="1.217" ry="1.339" transform="rotate(-78.327 7.511 3.782)"/>
                <circle cx="7.555" cy="3.823" r="1" fill="#D7ADDE" opacity=".25" transform="rotate(-86.653 7.555 3.823)"/>
            </g>
            <g stroke="#051F44" stroke-width=".03" transform="translate(8 2) translate(45 49)">
                <ellipse cx="7.75" cy="7.244" fill="#1D2643" rx="6.089" ry="5.72" transform="rotate(-12.814 7.75 7.244)"/>
                <path fill="#4F5A83" d="M2.493 10.246c.806-1.037 1.67-2.027 2.587-2.966C6.924 5.432 9.263 3.7 12.035 3.546c.152-.009.303-.01.454-.007C10.37 1.22 6.862.828 4.284 2.623 1.724 4.26.93 7.638 2.493 10.246h0z" opacity=".52"/>
                <path fill="#111828" d="M5.418 6.722c-.181-.14-.235-.09-.902-.293-.65-.198-.977-.3-1.053-.494-.065-.166.061-.337.316-.67.454-.593.732-.626.767-.978.028-.27-.13-.312-.105-.686-.008-.261.11-.51.316-.67.106-.058.226-.087.346-.085.17.014.338.053.496.116.2.047.391.12.572.216.115.078.157.137.24.139.09.002.125-.065.271-.185.084-.07.175-.132.27-.185.137-.072.285-.122.437-.146.21-.033.32-.05.421.016.095.062.135.196.21.462.035.217.1.427.196.624.044.071.095.138.15.2.13.172.288.32.466.44.216.135.231.053.406.178.17.128.3.301.376.5.042.082.062.172.06.263-.015.145-.119.225-.286.346-.2.16-.41.304-.632.432-.37.126-.572.002-.692.169-.078.11-.002.178-.045.485-.012.221-.091.433-.226.609-.068.076-.091.068-.45.308-.123.081-.157.166-.272.185-.115.008-.23-.02-.33-.078-.224-.088-.44-.194-.647-.316-.43-.32-.305-.612-.676-.902z"/>
                <ellipse cx="6.484" cy="5.104" fill="#2E3181" opacity=".36" rx="1.342" ry="1.215" transform="rotate(-10.003 6.484 5.104)"/>
                <circle cx="6.545" cy="5.108" r="1" fill="#D7ADDE" opacity=".25" transform="rotate(-30.234 6.545 5.108)"/>
            </g>
            <g transform="translate(8 2) translate(31 64)">
                <ellipse cx="7.238" cy="7.52" fill="#1D2643" rx="5.777" ry="5.408" transform="rotate(-12.446 7.238 7.52)"/>
                <path fill="#4F5A83" d="M10.663 11.79c-.293-1.157-.656-2.295-1.09-3.408-.88-2.195-2.246-4.442-4.624-5.441-.13-.055-.263-.103-.397-.147 2.609-1.418 5.865-.667 7.59 1.75 1.56 2.416.902 5.635-1.479 7.246z" opacity=".52"/>
                <path fill="#111828" d="M9.5 7.788c.216-.068.243-.006.912.024.652.029.98.04 1.125-.106.124-.126.08-.314-.01-.686-.162-.662-.393-.777-.283-1.098.084-.245.24-.232.367-.569.111-.216.108-.473-.01-.686-.071-.084-.165-.147-.27-.182-.158-.041-.32-.059-.483-.053-.197-.02-.395-.016-.59.012-.132.033-.193.071-.267.047-.08-.027-.084-.096-.165-.247-.045-.087-.1-.17-.164-.246-.092-.107-.202-.196-.325-.264-.172-.095-.262-.144-.377-.117-.109.025-.197.13-.37.34-.119.18-.26.344-.423.487-.067.048-.138.091-.212.129-.183.11-.38.19-.587.24-.244.051-.224-.025-.428.03-.202.06-.385.17-.532.322-.068.057-.122.13-.158.211-.045.132.015.235.113.394.111.202.24.394.383.575.276.225.503.18.542.363.025.12-.07.157-.155.44-.077.192-.093.403-.045.605.029.088.053.088.273.41.075.11.072.195.165.247.101.043.213.056.322.035.233-.008.466-.034.696-.076.506-.147.514-.443.957-.581z"/>
                <ellipse cx="9.211" cy="6.036" fill="#2E3181" opacity=".36" rx="1.161" ry="1.26" transform="rotate(-88.781 9.21 6.036)"/>
                <circle cx="9.155" cy="6.021" r="1" fill="#D7ADDE" opacity=".25" transform="rotate(-40.64 9.155 6.021)"/>
            </g>
            <g stroke="#051F44" transform="translate(8 2) translate(19 65)">
                <ellipse cx="7.499" cy="7.9" fill="#1D2643" stroke-width=".03" rx="6.089" ry="5.72" transform="rotate(-12.814 7.499 7.9)"/>
                <path fill="#4F5A83" stroke-width=".03" d="M2.242 10.901c.806-1.037 1.67-2.027 2.588-2.966 1.843-1.848 4.182-3.578 6.954-3.734.152-.008.304-.01.454-.006-2.118-2.32-5.627-2.712-8.205-.917C1.473 4.916.68 8.294 2.242 10.901h0z" opacity=".52"/>
                <path fill="#111828" stroke-width=".03" d="M5.167 7.378c-.18-.141-.235-.09-.902-.294-.65-.197-.977-.3-1.053-.493-.065-.167.061-.337.316-.67.454-.594.732-.626.767-.979.028-.27-.13-.311-.105-.686-.008-.26.11-.51.316-.67.107-.057.226-.087.346-.084.17.013.338.052.497.115.198.048.39.12.571.216.115.079.157.138.24.14.09.001.125-.065.271-.186.084-.07.175-.132.271-.184.136-.073.284-.122.436-.146.21-.034.32-.051.421.015.095.063.135.197.21.463.035.216.1.426.196.624.044.07.095.138.15.2.13.171.288.32.466.44.216.134.231.053.406.177.17.128.3.302.376.501.042.081.062.171.06.262-.015.145-.119.226-.286.347-.199.16-.41.304-.632.431-.37.126-.572.003-.691.17-.079.109-.003.177-.046.485-.012.22-.09.433-.225.608-.069.077-.092.069-.452.308-.122.082-.156.166-.27.185-.116.008-.231-.019-.331-.077-.224-.088-.44-.194-.647-.316-.43-.32-.305-.613-.676-.902z"/>
                <ellipse cx="6.233" cy="5.759" fill="#2E3181" stroke-width=".03" opacity=".36" rx="1.342" ry="1.215" transform="rotate(-10.003 6.233 5.76)"/>
                <circle cx="6.293" cy="5.763" r="1" fill="#D7ADDE" stroke-width=".5" opacity=".25" transform="rotate(-30.235 6.293 5.763)"/>
            </g>
            <g transform="translate(8 2) translate(11 62)">
                <ellipse cx="7.385" cy="7.433" fill="#1D2643" rx="5.647" ry="5.386" transform="rotate(-17.365 7.385 7.433)"/>
                <path fill="#4F5A83" d="M10.304 2.736C9.296 3.455 8.33 4.23 7.408 5.055 5.605 6.705 3.92 8.797 3.78 11.267c-.007.136-.008.27-.004.404-2.268-1.763-2.685-5.028-.934-7.305 1.739-2.32 4.915-3.013 7.463-1.63z" opacity=".52"/>
                <path fill="#111828" d="M6.863 5.358c-.139-.16-.09-.209-.291-.803-.197-.578-.299-.869-.489-.935-.163-.057-.33.056-.655.284-.58.407-.61.655-.956.688-.264.026-.305-.115-.672-.09-.25-.008-.49.096-.656.284-.055.093-.083.2-.081.309.014.152.054.301.116.441.048.179.12.35.214.508.077.102.135.14.137.214.002.08-.063.111-.18.242-.068.074-.128.155-.18.242-.07.12-.118.252-.141.39-.032.187-.048.285.017.374.062.084.194.12.454.186.211.029.417.086.613.17.07.04.135.084.197.134.166.113.312.252.433.413.133.192.053.206.176.36.13.155.3.27.492.333.08.038.169.056.258.053.142-.014.22-.107.338-.256.155-.177.295-.366.42-.565.122-.331 0-.51.162-.617.107-.07.175-.003.476-.043.214-.01.42-.081.596-.203.074-.061.066-.082.3-.404.079-.109.162-.14.18-.242.007-.104-.02-.207-.078-.294-.088-.2-.193-.392-.313-.575-.315-.381-.601-.27-.887-.598z"/>
                <ellipse cx="5.282" cy="6.315" fill="#2E3181" opacity=".36" rx="1.214" ry="1.173" transform="rotate(-44.016 5.282 6.315)"/>
                <circle cx="5.287" cy="6.369" r="1" fill="#D7ADDE" opacity=".25" transform="rotate(-48.435 5.287 6.369)"/>
            </g>
            <g stroke="#051F44" stroke-width=".03" transform="translate(8 2) translate(55 46)">
                <ellipse cx="7.823" cy="7.654" fill="#1D2643" rx="6.089" ry="5.72" transform="rotate(-12.814 7.823 7.654)"/>
                <path fill="#4F5A83" d="M2.566 10.655c.806-1.037 1.67-2.027 2.587-2.966 1.844-1.848 4.183-3.578 6.955-3.734.152-.009.303-.01.454-.006-2.118-2.32-5.627-2.712-8.205-.917-2.56 1.638-3.354 5.016-1.791 7.623h0z" opacity=".52"/>
                <path fill="#111828" d="M5.49 7.131c-.18-.14-.234-.09-.901-.293-.65-.197-.977-.3-1.053-.494-.065-.166.061-.336.316-.67.454-.593.732-.626.767-.978.028-.27-.13-.311-.105-.686-.008-.261.11-.51.316-.67.106-.058.226-.087.346-.085.17.014.338.053.496.116.2.048.391.12.572.216.115.079.157.137.24.139.09.002.125-.065.271-.185.084-.07.175-.132.27-.185.137-.072.285-.121.437-.146.21-.033.32-.05.421.016.095.063.135.197.21.462.035.217.1.427.196.625.044.07.095.137.15.2.13.171.288.32.466.44.216.134.231.052.406.177.17.128.3.302.376.501.042.081.062.171.06.262-.015.145-.119.225-.286.347-.2.16-.41.304-.632.43-.37.127-.572.003-.691.17-.079.11-.003.178-.046.485-.012.221-.091.433-.226.61-.068.076-.091.068-.45.307-.123.081-.157.166-.272.185-.115.008-.23-.019-.33-.077-.224-.089-.44-.194-.647-.317-.43-.32-.305-.612-.676-.902z"/>
                <ellipse cx="6.557" cy="5.513" fill="#2E3181" opacity=".36" rx="1.342" ry="1.215" transform="rotate(-10.003 6.557 5.513)"/>
                <circle cx="6.618" cy="5.518" r="1" fill="#D7ADDE" opacity=".25" transform="rotate(-30.234 6.618 5.518)"/>
            </g>
            <path fill="#9C7E46" d="M57.969 61.794c.253-.792.715-1.501 1.337-2.052-.197-1.564-.58-3.1-1.14-4.572-.474-1.243-1.277-2.97-5.236-9.558-.963-1.603-2.35-3.887-1.071-5.237.453-.479 1.227-.823 1.368-1.483.153-.709-.53-1.292-1.09-1.658l-.89.865c-.615.789-1.078 1.684-1.367 2.641-1.264 4.44 3.102 7.075 5.83 12.342 1.381 2.704 2.152 5.678 2.259 8.712z" transform="translate(8 2)"/>
            <g transform="translate(8 2) translate(48 41)">
                <ellipse cx="6.541" cy="6.301" fill="#1D2643" rx="5.573" ry="5.457" transform="rotate(-1.08 6.54 6.3)"/>
                <path fill="#4F5A83" d="M6.175 11.745c-.408-1.134-.75-2.291-1.022-3.466-.515-2.329-.671-4.96.674-7.077.074-.116.153-.228.236-.336-2.887.187-5.124 2.6-5.094 5.492.03 2.894 2.316 5.259 5.206 5.387z" opacity=".52"/>
                <path fill="#111828" d="M4.881 7.737c-.21.059-.197.125-.715.508-.505.373-.761.559-.958.512-.169-.04-.24-.222-.373-.586-.239-.646-.117-.867-.383-1.08-.204-.162-.32-.068-.61-.284-.102-.077-.39-.292-.374-.586.01-.109.05-.212.116-.299.102-.119.223-.22.357-.303.145-.122.306-.225.477-.305.125-.043.194-.043.24-.104.05-.065.014-.125-.006-.296-.012-.098-.014-.198-.005-.296.014-.139.052-.273.113-.398.085-.172.13-.262.236-.3.101-.037.23.004.486.089.193.089.397.152.607.186.081.005.162.003.242-.005.205-.004.409-.042.602-.11.224-.087.166-.142.36-.204.196-.058.404-.061.603-.011.088.011.171.044.244.094.11.087.119.206.128.393.023.23.028.46.013.691-.095.339-.302.422-.23.597.047.115.142.096.368.29.169.122.298.292.371.487.022.164.025.33.01.494 0 .132.051.202.005.296-.056.09-.14.161-.238.202-.19.118-.39.221-.598.308-.486.147-.657-.1-1.088.02z"/>
                <ellipse cx="4.14" cy="6.1" fill="#2E3181" opacity=".36" rx="1.213" ry="1.173" transform="rotate(-44.272 4.14 6.1)"/>
                <circle cx="4.176" cy="6.058" r="1" fill="#D7ADDE" opacity=".25" transform="rotate(-1.08 4.176 6.058)"/>
            </g>
            <g transform="translate(8 2) translate(27 49)">
                <ellipse cx="6.427" cy="5.566" fill="#1D2643" rx="5.807" ry="5.38" transform="rotate(-1.08 6.427 5.566)"/>
                <path fill="#4F5A83" d="M7.015 10.916c.382-1.131.693-2.285.933-3.454.447-2.314.509-4.912-.973-6.946-.081-.112-.168-.22-.258-.323 1.916-.055 3.717.917 4.722 2.55 1.005 1.633 1.062 3.678.15 5.364-.913 1.686-2.657 2.757-4.574 2.809z" opacity=".52"/>
                <path fill="#111828" d="M8.21 6.918c.22.05.21.115.764.473.54.348.814.521 1.017.468.174-.046.24-.229.366-.592.224-.646.09-.86.358-1.078.206-.168.331-.08.624-.304.103-.08.394-.302.367-.592-.015-.107-.061-.208-.132-.29-.112-.113-.242-.21-.383-.284-.157-.115-.328-.21-.51-.283-.13-.038-.203-.035-.253-.093-.054-.062-.02-.123-.005-.292.009-.097.007-.195-.006-.292-.02-.136-.065-.268-.133-.387-.095-.167-.145-.254-.257-.288-.107-.032-.24.014-.502.107-.2.096-.41.165-.626.207-.084.008-.168.01-.252.005-.213.003-.426-.026-.631-.086-.236-.078-.178-.133-.382-.188-.207-.049-.424-.044-.63.012-.09.015-.175.05-.25.103-.11.09-.115.207-.118.391-.015.228-.011.456.013.682.112.33.33.404.263.58-.045.115-.145.1-.372.299-.17.124-.298.296-.369.494-.016.162-.013.326.01.487.003.13-.046.202.005.292.063.088.153.155.255.19.205.11.417.203.635.28.512.126.68-.122 1.134-.021z"/>
                <ellipse cx="8.919" cy="5.277" fill="#2E3181" opacity=".36" rx="1.17" ry="1.25" transform="rotate(-76.044 8.92 5.277)"/>
                <circle cx="8.88" cy="5.237" r="1" fill="#D7ADDE" opacity=".25" transform="rotate(-1.08 8.88 5.237)"/>
            </g>
            <g transform="translate(8 2) translate(54 54)">
                <ellipse cx="6.917" cy="6.888" fill="#1D2643" rx="5.386" ry="5.647" transform="rotate(-74.796 6.917 6.888)"/>
                <path fill="#4F5A83" d="M3.824 2.305c1.034.68 2.029 1.417 2.98 2.208 1.865 1.58 3.628 3.607 3.862 6.07.012.136.018.27.019.404 2.2-1.847 2.494-5.125.658-7.335C9.518 1.4 6.318.827 3.824 2.305z" opacity=".52"/>
                <path fill="#111828" d="M7.36 4.795c.134-.166.083-.212.262-.813.174-.586.265-.88.453-.953.161-.064.331.043.665.26.595.384.635.63.981.65.266.016.301-.126.669-.115.25-.018.494.078.666.26.059.09.09.196.093.305-.01.152-.043.303-.1.445-.04.18-.106.354-.194.516-.074.105-.13.144-.13.219.002.08.068.109.19.235.07.072.134.15.188.235.075.117.128.247.156.383.04.187.06.284-.003.376-.058.086-.188.126-.447.202-.21.037-.413.103-.605.194-.068.042-.132.089-.192.14-.162.12-.303.265-.417.43-.126.197-.045.208-.162.367-.125.159-.291.28-.48.351-.08.04-.166.061-.255.062-.143-.008-.224-.098-.348-.243-.161-.17-.309-.354-.44-.549-.135-.326-.02-.51-.187-.61-.11-.066-.174.004-.476-.025-.214-.003-.423-.066-.603-.18-.077-.059-.07-.08-.315-.393-.083-.106-.167-.134-.189-.235-.011-.103.012-.208.066-.297.08-.203.178-.399.291-.586.3-.393.591-.292.864-.631z"/>
                <ellipse cx="8.977" cy="5.691" fill="#2E3181" opacity=".36" rx="1.173" ry="1.214" transform="rotate(-48.144 8.977 5.691)"/>
                <circle cx="8.974" cy="5.746" r="1" fill="#D7ADDE" opacity=".25" transform="rotate(-43.725 8.974 5.746)"/>
            </g>
            <path fill="#9C7E46" d="M32.573 69.432c-.147-.256-.218-.549-.205-.844-1.696-1.393-3.57-2.836-5.628-4.29-.94-.664-1.856-1.289-2.747-1.873l-.006.402c.336.207.85.532 1.462.953 1.397.993 2.741 2.059 4.027 3.193.289.24 1.25 1 3.097 2.459z" transform="translate(8 2)"/>
            <g>
                <path fill="#93BB36" d="M5.394 13.423c.789-.726 1.39-1.633 1.755-2.641.6-1.505.685-3.166.242-4.724-.38-1.319-1.083-2.521-2.045-3.5C4.688 1.642 3.883.84 2.966.184c-.183-.05-.371-.072-.56-.062-.18.078-.353.175-.513.29.389.71.592 1.509.59 2.32-.073.892-.304 1.764-.681 2.576-.06.15-.11.258-.16.355.18.05.28.113.256.191-.283.917-.642 1.81-1.072 2.668-.092.76-.191 1.4-.285 1.946.086 1.286.335 2.557.743 3.78.262.052.459.05.438.121-.017.063-.142.113-.338.151.076.2.156.4.245.596.121-.01.242-.022.359-.038 1.268-.222 2.448-.796 3.406-1.655z" transform="translate(8 2) translate(25 37)"/>
                <path fill="#5C8000" d="M2.208 15.03c.145-.016.29-.044.43-.083.007-.017.017-.032.03-.045.007-.009.016-.015.026-.018.07-.03.136-.067.2-.11.027-.019.057-.036.087-.052l.014-.006c.04-.174.073-.362.118-.541.307-1.226 1.106-1.279 1.515-2.503.165-.762.242-1.54.229-2.318.073-.895.171-1.793.215-2.686.032-.19.042-.381.03-.573-.046-.374-.228-.717-.513-.965.054-.15.07-.311.046-.469-.028-.197-.152-.368-.332-.454.054-.15.07-.312.045-.47-.027-.197-.152-.368-.331-.455-.037-.323-.134-.636-.287-.924-.1-.158-.21-.31-.331-.454-.225-.3-.443-.607-.664-.91L2.403.54 2.18.232c-.105.06-.206.125-.302.198-.024.047-.05.093-.075.14l.017.046c.112.32.125.468.263.794.148.279.278.567.389.863.086.387.08.789-.02 1.172-.016.079-.034.149-.054.216.372.272.551.736.458 1.188-.003.718-.538 1.324-1.25 1.415-.162.605-.307 1.21-.42 1.823-.22 1.194-.076 2.328-.276 3.514-.113.588-.122 1.192-.027 1.783.188.477.322.973.4 1.479.392.138.75.164.87.212.015-.023.034-.044.056-.046z" transform="translate(8 2) translate(25 37)"/>
                <path fill="#546D12" d="M2.169 15.159c.028-.011.057-.02.086-.03.04-.015.08-.035.117-.06-.354-.36-.623-.797-.785-1.276-.084-.318.06-.39.067-1.961-.006-.564.022-1.128.083-1.69.072-.57.046-1.15.158-1.72.225-1.144.89-2.212 1.135-3.35.195-1.114.083-2.26-.322-3.315-.14-.4-.315-.787-.526-1.155C2.118.518 2.06.428 2.009.334c-.045.03-.087.06-.13.092l-.122.226-.015.052c.192.881.494 3.484.112 4.157l-.104.184c-.225.905-.525 1.79-.895 2.646C.587 8.33.299 8.976.07 9.625c0 .138.02.224.064.231-.035.082-.066.163-.098.245.086.723-.02 1.515.008 2.229.018.334.078.665.176.985.307.548.526 1.14.648 1.755.352.146.734.204 1.113.167.029-.01.057-.021.086-.03.017-.008.033-.013.05-.019l.012-.01c.013-.008.026-.014.04-.02z" transform="translate(8 2) translate(25 37)"/>
                <path fill="#457A00" d="M2.937 14.775c.02-.016.042-.03.063-.044.06-.056.117-.117.169-.18.12-.25.261-.488.42-.715.186-.266.306-.382.411-.528.825-1.242 1.336-2.666 1.49-4.15.108-1.2-.016-2.41-.365-3.564C4.66 3.574 3.675 1.71 2.27.186c-.047.024-.094.049-.14.075C3.328 2.015 4.09 4.03 4.353 6.137c.333 2.071.122 4.194-.61 6.16-.394 1.002-.955 1.93-1.66 2.744.135-.032.273-.057.412-.075l.123-.014.064-.026c.09-.041.176-.092.256-.151z" transform="translate(8 2) translate(25 37)"/>
            </g>
            <g>
                <path fill="#93BB36" stroke="#9AB43F" stroke-width=".3" d="M2.02 10.527C1.5 10.219.98 9.9.465 9.57c-1.24-3.59.659-5.355 2.524-7.206 6.402-2.64 16.63-1.216 20.029 1.97 3.265 3.058 2.313 9.69-4.19 9.688-5.148-.002-10.635-4.163-16.054-3.61-.268.027-.516.067-.754.114z" transform="translate(8 2) translate(0 35)"/>
                <path fill="#457A00" d="M1.68 10.322c-.406-.243-.81-.494-1.215-.75C.253 8.988.121 8.378.071 7.758c5.749-2.91 14.515-3.046 24.1-1.777 1.44 3.297-.144 7.805-5.506 7.803-5.15-.001-10.636-4.162-16.055-3.61-.313.032-.623.081-.93.148z" transform="translate(8 2) translate(0 35)"/>
                <path fill="#5C8000" d="M2.271 10.673c-.606-.355-1.21-.723-1.81-1.104-.012-.034-.029-.072-.04-.106.97-.368 2.359-.158 3.952-.247.303-.017.597-.045.889-.074.519.081 1.043.123 1.569.126.842.08 1.678.15 2.494.194l.304.017c.727.033 1.432.041 2.107.018.368.013.932-.003 1.081.01.748.074 1.501.095 2.252.061.2-.013.389-.04.581-.063 3.67.256 8.328-.01 8.177-3.011l.628-.004c1.37 3.288-.235 7.714-5.548 7.712-5.149-.002-10.635-4.163-16.054-3.61-.204.021-.396.05-.582.081z" transform="translate(8 2) translate(0 35)"/>
            </g>
            <g>
                <path fill="#93BB36" d="M7.527 22.015c.862-.88 1.424-2.008 1.608-3.225.4-2.363.205-4.788-.564-7.058-.71-2.21-1.741-4.306-3.06-6.217C4.582 3.858 3.49 2.297 2.256.853 2.05.705 1.821.589 1.58.51c-.197.037-.385.108-.557.21.571 1.193.949 2.47 1.118 3.781.086 1.213-.03 2.431-.344 3.606-.044.2-.085.341-.125.468.222.154.352.295.338.403-.16 1.21-.424 2.404-.792 3.568.027 1.113.025 2.04.012 2.825.352 2.061.875 4.09 1.563 6.064.322.196.554.28.543.38-.01.087-.148.106-.375.078.127.337.258.675.4 1.012.14.038.282.074.419.102 1.335.269 2.72-.098 3.747-.992z" transform="translate(8 2) translate(39 21)"/>
                <path fill="#5C8000" d="M4.032 23.032c.163.04.329.063.496.066.004-.02.013-.04.028-.054.005-.01.016-.017.027-.017.076-.014.15-.04.217-.077.03-.017.062-.03.095-.04l.015-.003c.017-.245.022-.516.043-.769.144-1.722 1.083-1.446 1.348-3.12.056-1.141.007-2.284-.146-3.415-.074-1.324-.12-2.643-.228-3.977.003-.287-.02-.573-.068-.856-.135-.614-.402-1.191-.783-1.692.037-.23.027-.465-.03-.691-.073-.32-.238-.612-.477-.837.038-.23.027-.466-.03-.692-.072-.32-.238-.612-.476-.838-.109-.527-.279-1.04-.507-1.528-.088-.186-.107-.2-.476-.838-.32-.554-.635-1.116-.952-1.675l-.476-.837L1.33.576c-.114.043-.222.098-.323.166C.987.802.965.86.943.919l.029.079c.19.534.232.764.456 1.321.367.915.462.976.616 1.482.169.573.233 1.173.188 1.77-.005.111-.014.21-.024.303.48.559.749 1.268.758 2.005.058 1.331-.567 1.788-1.23 1.59-.083.845-.147 1.698-.17 2.578-.046 1.712.329 3.497.306 5.207-.022.906.075 1.811.29 2.692.302.789.55 1.598.74 2.42.49.385.92.583 1.072.71.013-.029.032-.052.058-.044z" transform="translate(8 2) translate(39 21)"/>
                <path fill="#546D12" d="M4.009 23.21c.032-.004.065-.003.097-.005.045-.006.088-.02.128-.039-.487-.707-.878-1.476-1.163-2.286-.156-.52.002-.564-.273-2.944-.098-.85-.188-1.698-.206-2.525-.018-.834-.154-1.727-.123-2.54.061-1.635.658-2.96.744-4.576 0-1.77-.333-3.524-.98-5.171-.24-.677-.518-1.34-.832-1.985-.094-.157-.177-.32-.256-.484-.047.024-.093.051-.137.08C.974.834.94.93.903 1.026l-.008.072c.387 1.422 1.214 5.504.882 6.354l-.09.233c-.096 1.219-.292 2.428-.586 3.614-.202.85-.428 1.702-.583 2.584.025.21.064.35.119.38-.028.108-.05.218-.073.327.233 1.135.249 2.289.412 3.384.086.535.215 1.06.386 1.574.456.946.82 1.934 1.086 2.95.388.35.85.606 1.353.749.032-.003.063-.007.096-.009.018-.003.037-.003.056-.005.004-.003.007-.009.012-.011.014-.006.029-.01.044-.01z" transform="translate(8 2) translate(39 21)"/>
                <path fill="#457A00" d="M4.852 22.97c.022-.015.045-.025.067-.038.063-.06.12-.127.168-.199.094-.31.218-.61.37-.896.173-.32.295-.443.394-.617.804-1.763 1.156-3.698 1.021-5.631-.108-1.896-.47-3.769-1.076-5.568C4.834 6.657 3.362 3.462 1.43.546c-.052.015-.103.033-.152.052 1.7 3.107 2.944 6.44 3.697 9.901.745 2.966.876 6.052.386 9.07-.235 1.236-.739 2.406-1.477 3.424.16.012.32.036.476.07l.144.034c.024-.005.048-.006.071-.012.099-.02.193-.06.277-.115z" transform="translate(8 2) translate(39 21)"/>
            </g>
            <g>
                <path fill="#93BB36" stroke="#9AB43F" stroke-width=".3" d="M.441 1.608C.401 1.34.371 1.07.353.8c2.706-.937 5.691-.254 8.738.405 6.815 2.646 12.163 7.457 11.28 9.337-.85 1.806-7.987 2.059-12.274-.906C4.702 7.287 5.167 4.355 1.05 1.94c-.203-.12-.406-.228-.609-.332z" transform="translate(8 2) translate(2 23)"/>
                <path fill="#457A00" d="M.417 1.432C.39 1.222.367 1.012.353.8.846.63 1.356.506 1.873.433 8.398 2.857 14.39 6.527 19.515 11.239c-2.287.998-7.756.742-11.292-1.703-3.395-2.348-2.93-5.28-7.047-7.695-.254-.15-.507-.285-.759-.409z" transform="translate(8 2) translate(2 23)"/>
                <path fill="#5C8000" d="M.463 1.738c-.051-.313-.088-.626-.11-.94L.43.768c.999.51 1.952 1.104 2.849 1.778.217.136.437.267.659.397.286.264.59.508.911.729.476.392.96.78 1.455 1.157.061.047.122.095.184.14.447.336.904.657 1.372.964.23.168.618.424.704.493.454.373.93.719 1.425 1.034.144.09.295.173.445.258 2.17 1.7 5.503 3.797 8.349 3.417l.419.286c-2.324.966-7.727.692-11.23-1.731C4.578 7.342 5.043 4.409.926 1.995c-.155-.09-.309-.175-.463-.257z" transform="translate(8 2) translate(2 23)"/>
            </g>
            <g>
                <path fill="#93BB36" d="M18.49.734c-1.323-.216-2.68-.07-3.927.424-2.482.92-4.743 2.35-6.638 4.198-1.791 1.701-3.346 3.636-4.622 5.751C2.145 12.704 1.14 14.405.298 16.19c-.046.238-.05.483-.013.723.135.14.296.254.474.334.914-1.11 1.98-2.087 3.165-2.903 1.15-.714 2.393-1.265 3.694-1.638.217-.07.375-.113.518-.148.045-.26.12-.44.233-.484 1.258-.515 2.552-.936 3.872-1.26C13.317 10.2 14.226 9.71 15 9.303c1.835-1.363 3.569-2.857 5.188-4.47.038-.362.008-.592.111-.637.09-.039.176.062.256.259.27-.28.537-.565.8-.857-.03-.134-.062-.266-.1-.39-.429-1.25-1.476-2.187-2.765-2.475z" transform="translate(8 2) translate(4 49)"/>
                <path fill="#5C8000" d="M21.158 2.993c-.038-.15-.096-.296-.173-.431-.021.007-.044.01-.066.006-.012.001-.023-.004-.03-.013-.051-.055-.112-.1-.179-.133-.03-.015-.058-.033-.084-.054l-.01-.011c-.249.116-.516.256-.773.373-1.755.8-1.935-.1-3.7.577-1.14.558-2.234 1.203-3.273 1.93-1.26.762-2.53 1.498-3.784 2.294-.28.148-.55.318-.804.508-.525.418-.96.937-1.282 1.525-.241.092-.465.224-.662.392-.271.214-.477.5-.592.826-.242.091-.466.224-.662.391-.272.214-.477.5-.592.826-.46.361-.88.77-1.254 1.217-.14.17-.145.192-.592.826-.389.551-.79 1.101-1.184 1.652l-.592.826-.4.557c.098.07.205.128.317.171l.204-.043.063-.064c.432-.436.638-.592 1.076-1.067.72-.78.733-.888 1.155-1.28.489-.445 1.043-.812 1.642-1.09.112-.055.212-.1.31-.142.343-.711.903-1.296 1.599-1.671 1.275-.754 2.021-.495 2.145.142.867-.383 1.732-.785 2.605-1.233 1.698-.872 3.265-2.12 4.95-3.009.891-.46 1.729-1.017 2.497-1.661.633-.667 1.305-1.294 2.014-1.878.142-.597.13-1.047.181-1.235-.033.004-.066.002-.07-.024z" transform="translate(8 2) translate(4 49)"/>
                <path fill="#546D12" d="M21.344 2.917c-.02-.023-.035-.05-.052-.075-.028-.033-.062-.06-.1-.081-.47.78-1.035 1.5-1.68 2.144-.435.402-.553.299-2.752 1.782-.784.53-1.572 1.052-2.373 1.505-.807.457-1.616 1.04-2.427 1.447-1.63.819-3.212 1.044-4.835 1.833-1.71.923-3.261 2.115-4.593 3.53-.542.538-1.055 1.126-1.545 1.72-.108.158-.227.311-.352.462.048.025.096.047.146.067.11-.025.222-.048.332-.07l.075-.032c1.207-1.064 4.807-3.894 5.798-4.079l.27-.05c1.239-.571 2.515-1.055 3.82-1.45.928-.29 1.87-.561 2.808-.905.193-.132.31-.237.315-.297.118-.035.237-.076.355-.115 1-.79 2.121-1.414 3.115-2.126.478-.35.931-.732 1.356-1.145.718-.878 1.51-1.692 2.367-2.435.156-.478.186-.989.086-1.481-.018-.024-.037-.048-.054-.073-.012-.013-.021-.028-.032-.042-.005-.002-.012-.001-.017-.004-.012-.008-.022-.018-.031-.03z" transform="translate(8 2) translate(4 49)"/>
                <path fill="#457A00" d="M20.705 2.37c-.025-.01-.046-.023-.07-.034-.09-.018-.182-.028-.274-.028-.346.088-.699.148-1.054.179-.397.031-.575-.002-.793.012-2.13.298-4.173 1.037-6 2.17C10.726 5.75 9.07 7.03 7.577 8.489c-2.783 2.49-5.201 5.36-7.185 8.525.04.034.08.065.124.095 2.278-3.067 4.94-5.828 7.922-8.217 2.583-2.193 5.524-3.926 8.694-5.123 1.3-.466 2.677-.682 4.058-.635-.065-.135-.118-.275-.16-.419-.01-.042-.022-.087-.036-.133-.015-.016-.028-.035-.045-.05-.07-.07-.153-.125-.245-.161z" transform="translate(8 2) translate(4 49)"/>
            </g>
            <g>
                <path fill="#93BB36" stroke="#9AB43F" stroke-width=".3" d="M6.793.425c.282-.124.569-.239.86-.346C9.72 1.954 10.1 4.606 10.53 7.301 10.197 13.726 6.91 19.7 4.496 19.624 2.176 19.55-.818 13.85.83 9.366c1.305-3.552 4.725-4.174 5.828-8.333.054-.206.098-.408.135-.608z" transform="translate(8 2) translate(28 8)"/>
                <path fill="#457A00" d="M6.979.346C7.2.252 7.425.163 7.653.08c.368.331.698.703.985 1.107-.036 6.18-2.19 12.332-5.238 17.982C1.427 17.654-.372 13.132.987 9.434 2.292 5.882 5.712 5.26 6.816 1.1c.068-.257.121-.509.163-.755z" transform="translate(8 2) translate(28 8)"/>
                <path fill="#5C8000" d="M6.658.488c.327-.149.66-.285.997-.41.02.018.043.035.062.053-.187 1-.483 1.978-.88 2.915-.069.222-.13.446-.19.67-.18.315-.333.645-.458.987-.253.519-.498 1.044-.727 1.573-.029.066-.058.131-.085.197-.2.476-.383.957-.543 1.44-.1.244-.234.645-.278.74-.237.486-.438.99-.6 1.506-.045.147-.08.298-.117.448-1.055 2.338-2.105 5.755-.602 7.932l-.157.437C1.128 17.421-.624 12.948.722 9.283 2.027 5.731 5.447 5.11 6.55.95c.042-.156.076-.31.108-.462z" transform="translate(8 2) translate(28 8)"/>
            </g>
            <g stroke="#051F44" transform="translate(8 2) translate(56 40)">
                <ellipse cx="8.168" cy="7.235" fill="#1D2643" stroke-width=".5" rx="5.982" ry="5.823" transform="rotate(-14.543 8.168 7.235)"/>
                <path fill="#4F5A83" stroke-width=".03" d="M6.348 12.811c-.125-1.28-.174-2.565-.146-3.851.08-2.547.614-5.322 2.572-7.202.108-.103.22-.2.334-.293-3.086-.455-6.013 1.51-6.76 4.54-.69 2.971 1.069 5.962 4 6.806z" opacity=".52"/>
                <path fill="#111828" stroke-width=".03" d="M6.063 8.33c-.234.01-.238.083-.878.357-.624.267-.94.398-1.131.303-.165-.083-.19-.29-.234-.7-.077-.73.108-.93-.112-1.215-.17-.219-.315-.149-.559-.443-.186-.182-.273-.443-.233-.7.039-.11.108-.208.199-.283.138-.099.29-.176.45-.23.184-.091.378-.16.578-.202.14-.015.213.002.277-.05.068-.056.047-.128.072-.31.014-.106.038-.21.073-.31.05-.14.126-.271.223-.386.133-.159.203-.242.325-.256.114-.014.238.06.48.21.178.139.374.253.583.34.083.024.167.042.253.053.215.044.436.054.655.03.255-.038.21-.108.427-.126.218-.013.436.033.631.133.087.033.166.087.228.157.09.117.07.242.03.44-.037.244-.093.486-.17.722-.188.33-.425.366-.397.566.018.13.123.134.306.39.144.168.233.376.258.596-.022.175-.062.349-.121.516-.034.138 0 .223-.073.31-.082.08-.187.133-.3.152-.23.077-.466.136-.704.177-.544.036-.657-.261-1.136-.24z"/>
                <ellipse cx="5.727" cy="6.447" fill="#2E3181" stroke-width=".5" opacity=".36" rx="1.313" ry="1.242" transform="rotate(-34.101 5.727 6.447)"/>
                <circle cx="5.773" cy="6.414" r="1" fill="#D7ADDE" stroke-width=".03" opacity=".25" transform="rotate(-73.951 5.773 6.414)"/>
            </g>
            <g>
                <path fill="#93BB36" d="M10.824 4.264c-.47.4-1.055.643-1.67.693-1.197.117-2.404-.064-3.513-.528-1.082-.432-2.095-1.021-3.006-1.748C1.838 2.158 1.095 1.558.415.89.347.781.297.663.265.54.292.442.334.35.391.268c.577.327 1.203.56 1.854.691.604.085 1.218.07 1.816-.047.102-.015.174-.03.239-.046.07.116.136.187.19.183.611-.037 1.218-.129 1.814-.272.556.052 1.02.083 1.413.104 1.02.248 2.017.58 2.982.993.086.168.12.287.17.285.045-.001.06-.07.053-.185.164.075.328.153.493.235.014.072.027.144.036.214.088.678-.144 1.358-.627 1.841z" transform="translate(8 2) translate(21 29)"/>
                <path fill="#5C8000" d="M11.455 2.55c.014.083.02.167.015.25-.01.002-.02.006-.028.012-.005.003-.008.008-.009.014-.01.037-.025.073-.046.106-.01.014-.017.03-.024.045l-.002.008c-.123 0-.258-.007-.386-.005-.867.012-.761.492-1.609.566-.573-.011-1.143-.076-1.704-.192-.66-.083-1.319-.151-1.983-.252-.143-.009-.286-.03-.425-.064-.303-.089-.583-.243-.82-.45-.117.01-.234-.004-.345-.04-.158-.047-.298-.14-.403-.268-.116.011-.234-.002-.345-.039-.158-.047-.298-.14-.403-.267-.26-.073-.511-.176-.747-.307-.09-.05-.097-.06-.403-.268-.266-.18-.537-.356-.805-.534L.58.597.308.417C.333.36.365.309.402.26L.493.235l.039.017c.26.114.374.143.645.274.445.215.472.265.72.36.282.105.58.157.88.156.056.001.105 0 .153-.002.262.26.608.42.977.45.664.075.914-.222.839-.561C5.17.917 5.6.915 6.042.933c.858.037 1.739.287 2.595.335.455.02.905.1 1.338.238.384.18.78.331 1.186.455.175.26.26.481.317.561-.014.006-.027.015-.023.028z" transform="translate(8 2) translate(21 29)"/>
                <path fill="#546D12" d="M11.545 2.545c-.003.015-.004.032-.006.048-.005.022-.013.043-.024.063-.337-.269-.709-.49-1.104-.662-.255-.096-.282-.019-1.464-.239-.422-.078-.844-.153-1.257-.19-.417-.039-.86-.138-1.267-.15-.82-.027-1.504.226-2.316.213-.886-.062-1.753-.29-2.555-.671C1.222.813.9.651.587.472.513.419.434.372.355.327.368.304.383.282.399.26.45.247.5.233.547.218L.584.217c1.011.376 2.073.6 3.15.662l.12-.037C4.467.837 5.079.781 5.684.675 6.115.603 6.55.52 6.996.473c.104.02.173.044.186.072.055-.01.11-.017.166-.025.56.156 1.137.204 1.68.324.264.062.523.145.774.248.458.261.94.478 1.439.646.161.207.274.447.328.703l-.008.048-.005.028-.005.006c-.004.007-.006.014-.007.022z" transform="translate(8 2) translate(21 29)"/>
                <path fill="#457A00" d="M11.395 2.958c-.008.01-.014.022-.021.033-.032.029-.068.055-.106.076-.158.037-.313.088-.461.155-.167.075-.232.132-.323.175-.91.342-1.89.45-2.854.316-.945-.12-1.87-.367-2.75-.733C3.23 2.382 1.682 1.534.29.466L.32.39c1.497.959 3.123 1.698 4.828 2.195 1.459.476 3 .649 4.527.509.627-.075 1.23-.287 1.765-.62 0 .08.007.16.019.24l.012.073-.009.036c-.014.048-.036.094-.067.134z" transform="translate(8 2) translate(21 29)"/>
            </g>
        </g>
    </g>
</svg>
