<svg xmlns="http://www.w3.org/2000/svg" width="112" height="112" viewBox="0 0 112 112">
    <g fill="none" fill-rule="evenodd" transform="translate(-19 -8)">
        <ellipse cx="46.5" cy="47" fill="#A8DBF4" stroke="#A8DBF4" stroke-width="9" rx="51" ry="51.5" transform="translate(28.825 17)"/>
        <g fill-rule="nonzero">
            <path fill="#93BB36" d="M58.373 26c1.054 3.272 2.615 6.363 4.627 9.162-5.55 9.672-12.345 18.59-20.217 26.532-3.649 3.667-7.522 7.11-11.598 10.306L28 67.189c2.315-1.461 4.493-3.125 6.508-4.97 6.796-6.227 8.734-11.848 13.504-20.453.884-1.594 4.12-6.458 10.36-15.766z" transform="rotate(32 23.73 82.753)"/>
            <g stroke="#051F44" transform="rotate(32 23.73 82.753) translate(16 46)">
                <ellipse cx="17.168" cy="16.241" fill="#1D2643" stroke-width=".03" rx="14.31" ry="13.41" transform="rotate(-11.734 17.168 16.241)"/>
                <path fill="#4F5A83" stroke-width=".03" d="M4.68 23.043c1.94-2.394 4.014-4.677 6.213-6.837 4.414-4.25 9.987-8.202 16.509-8.444.358-.014.713-.01 1.066.005-4.875-5.53-13.103-6.604-19.24-2.51-6.09 3.726-8.105 11.606-4.547 17.786h0z" opacity=".52"/>
                <path fill="#111828" stroke-width=".03" d="M11.71 14.914c-.418-.339-.547-.222-2.107-.727-1.52-.492-2.282-.747-2.451-1.204-.146-.393.158-.786.772-1.557 1.092-1.37 1.748-1.434 1.846-2.258.076-.633-.292-.736-.216-1.613-.007-.612.28-1.19.772-1.556.252-.13.534-.193.817-.183.4.04.79.139 1.161.293.465.12.913.299 1.333.532.266.189.363.328.56.336.21.008.295-.146.644-.421.2-.161.416-.302.644-.421.324-.164.672-.274 1.032-.324.496-.069.755-.105.988.056.22.15.308.467.474 1.093.072.509.217 1.004.432 1.471.101.168.216.328.344.477.298.407.661.762 1.076 1.05.501.325.54.135.946.434.394.308.693.72.86 1.191.095.192.14.404.13.617-.04.34-.289.523-.687.8-.475.366-.978.694-1.504.982-.877.28-1.346-.02-1.633.366-.189.253-.013.418-.128 1.136-.04.517-.234 1.01-.557 1.417-.164.176-.219.156-1.075.701-.29.186-.375.383-.644.422-.272.014-.542-.055-.774-.196-.521-.217-1.025-.474-1.505-.77-.996-.768-.69-1.449-1.55-2.144z"/>
                <ellipse cx="14.288" cy="11.168" fill="#2E3181" stroke-width=".03" opacity=".36" rx="3.155" ry="2.847" transform="rotate(-8.923 14.288 11.168)"/>
                <ellipse cx="14.43" cy="11.182" fill="#D7ADDE" stroke-width=".5" opacity=".25" rx="1.245" ry="1" transform="rotate(-29.154 14.43 11.182)"/>
            </g>
            <g stroke="#051F44" transform="rotate(32 23.73 82.753) translate(39 40)">
                <ellipse cx="17.529" cy="16.693" fill="#1D2643" stroke-width=".03" rx="14.344" ry="13.379" transform="rotate(-11.734 17.53 16.693)"/>
                <path fill="#4F5A83" stroke-width=".03" d="M5.01 23.477c1.944-2.388 4.024-4.665 6.228-6.819 4.426-4.24 10.014-8.182 16.553-8.423.358-.014.714-.01 1.068.005-4.887-5.517-13.137-6.588-19.29-2.505-6.106 3.717-8.126 11.578-4.56 17.742h0z" opacity=".52"/>
                <path fill="#111828" stroke-width=".03" d="M12.058 15.37c-.42-.339-.549-.223-2.113-.726-1.523-.49-2.288-.745-2.458-1.2-.146-.393.159-.786.775-1.554 1.095-1.367 1.752-1.43 1.85-2.253.077-.63-.293-.733-.216-1.608-.007-.611.28-1.188.774-1.553.253-.13.535-.193.82-.183.4.04.792.14 1.163.293.466.12.916.298 1.337.53.267.19.363.328.56.336.213.008.297-.146.646-.42.201-.161.418-.302.647-.42.324-.164.673-.273 1.034-.323.497-.069.757-.105.991.055.22.15.308.466.475 1.09.072.508.217 1.003.433 1.469.101.167.217.326.345.475.299.406.663.76 1.078 1.048.504.324.543.134.949.433.396.306.695.718.863 1.188.095.19.14.402.13.615-.04.338-.29.521-.689.798-.476.365-.98.692-1.508.98-.879.278-1.349-.02-1.637.365-.19.252-.013.416-.128 1.133-.04.516-.235 1.008-.56 1.413-.163.176-.218.156-1.076.7-.292.185-.376.381-.646.42-.273.014-.544-.054-.776-.195-.523-.217-1.028-.473-1.51-.768-.998-.767-.692-1.446-1.553-2.139z"/>
                <ellipse cx="14.642" cy="11.632" fill="#2E3181" stroke-width=".03" opacity=".36" rx="3.163" ry="2.84" transform="rotate(-8.923 14.642 11.632)"/>
                <ellipse cx="14.785" cy="11.646" fill="#D7ADDE" stroke-width=".5" opacity=".25" rx="1.247" ry="1" transform="rotate(-29.154 14.785 11.646)"/>
            </g>
            <g>
                <path fill="#93BB36" d="M17.034 49.82c2.083-1.988 3.467-4.564 3.958-7.36 1.647-6.601-.183-13.317-1.023-16.283-1.585-5.124-3.935-9.995-6.976-14.457C10.859 7.864 8.343 4.22 5.479.84 4.996.489 4.46.213 3.893.019c-.468.077-.92.233-1.332.462 1.303 2.773 2.141 5.73 2.485 8.759.148 2.797-.182 5.599-.978 8.29-.113.46-.217.783-.318 1.073.52.366.823.697.783.943-.43 2.782-1.112 5.522-2.037 8.187.015 2.566-.033 4.7-.098 6.508.743 4.764 1.892 9.46 3.437 14.04.753.463 1.3.665 1.27.896-.026.2-.356.24-.893.164.285.783.582 1.566.9 2.35.335.093.669.183.991.254 3.155.676 6.455-.109 8.931-2.124z" transform="rotate(32 23.73 82.753) translate(35)"/>
                <path fill="#5C8000" d="M8.701 52.012c.383.1.776.158 1.172.173.01-.047.034-.09.07-.124.013-.022.038-.036.065-.036.18-.03.355-.087.518-.169.072-.036.148-.066.226-.088l.037-.006c.05-.564.075-1.187.136-1.769.418-3.96 2.633-3.285 3.337-7.132.183-2.624.118-5.26-.194-7.872-.116-3.054-.166-6.093-.364-9.172.02-.66-.02-1.32-.123-1.973-.292-1.422-.9-2.763-1.781-3.932.099-.529.084-1.071-.042-1.595-.156-.74-.536-1.42-1.091-1.95.099-.528.084-1.07-.042-1.594-.156-.74-.536-1.42-1.091-1.95-.233-1.22-.614-2.41-1.133-3.544-.201-.432-.245-.466-1.092-1.95-.736-1.29-1.455-2.6-2.183-3.9l-1.091-1.95L3.298.162c-.272.093-.532.216-.774.367-.051.137-.106.272-.16.406.026.068.045.124.065.182.427 1.239.517 1.772 1.021 3.065.83 2.122 1.054 2.267 1.397 3.44.374 1.329.498 2.713.366 4.085-.017.257-.042.483-.072.699 1.116 1.307 1.72 2.954 1.708 4.651.08 3.07-1.422 4.094-2.989 3.61-.233 1.943-.422 3.905-.518 5.93-.185 3.943.625 8.071.493 12.01-.091 2.086.1 4.176.567 6.216.683 1.83 1.234 3.703 1.65 5.607 1.145.908 2.155 1.382 2.508 1.68.034-.065.08-.118.141-.098z" transform="rotate(32 23.73 82.753) translate(35)"/>
                <path fill="#546D12" d="M8.638 52.422c.076-.008.154-.006.231-.008.106-.012.208-.04.305-.084-1.123-1.651-2.016-3.44-2.655-5.317-.348-1.205.027-1.299-.517-6.795-.194-1.96-.37-3.92-.375-5.826-.005-1.921-.288-3.985-.18-5.857.22-3.763 1.695-6.788 1.97-10.508.078-4.078-.632-8.134-2.093-11.957-.54-1.569-1.17-3.107-1.884-4.608-.215-.366-.406-.743-.584-1.128-.114.055-.224.116-.33.181-.084.223-.17.443-.262.66-.003.04-.011.1-.022.168.853 3.292 2.634 12.733 1.807 14.677l-.224.531c-.281 2.804-.8 5.58-1.551 8.302-.516 1.95-1.09 3.902-1.498 5.928.05.485.137.807.264.88-.07.247-.126.5-.187.75.502 2.625.488 5.284.826 7.815.18 1.234.464 2.452.846 3.641 1.038 2.2 1.856 4.49 2.443 6.842.904.823 1.99 1.434 3.174 1.786.076-.006.152-.014.229-.016.043-.006.088-.006.132-.01.01-.007.019-.02.03-.025.034-.012.07-.02.105-.022z" transform="rotate(32 23.73 82.753) translate(35)"/>
                <path fill="#457A00" d="M10.648 51.905c.053-.033.107-.056.161-.084.152-.136.288-.288.406-.452.237-.71.545-1.396.918-2.048.425-.731.72-1.007.962-1.405C15.08 43.891 16 39.447 15.769 34.99c-.171-4.373-.946-8.704-2.305-12.876C11.335 14.324 7.987 6.9 3.536.097 3.41.13 3.29.167 3.172.21c3.891 7.23 6.695 14.966 8.326 22.97.871 4.392 2.44 13.006.508 20.913-.611 2.837-1.86 5.508-3.656 7.823.38.035.757.096 1.127.183.108.026.223.055.34.082.056-.009.113-.01.169-.023.234-.044.459-.13.662-.253z" transform="rotate(32 23.73 82.753) translate(35)"/>
            </g>
            <path fill="#9C7E46" d="M45.954 66.526c-.483-1.867-.45-3.83.097-5.686-2.331-2.817-4.993-5.345-7.93-7.532-2.477-1.845-6.208-4.228-22.207-12.198-3.894-1.94-9.47-4.685-8.617-8.92.302-1.503 1.403-3.141.865-4.609-.578-1.578-2.651-1.87-4.213-1.888l-.687 2.802c-.235 2.31-.04 4.64.576 6.874 3.012 10.27 14.912 9.992 26.84 16.908 6.086 3.575 11.3 8.44 15.276 14.249z" transform="rotate(32 23.73 82.753)"/>
            <g transform="rotate(32 23.73 82.753) translate(24 29)">
                <ellipse cx="13.504" cy="12.753" fill="#1D2643" rx="13.44" ry="12.716"/>
                <path fill="#4F5A83" d="M12.376 25.421c-.933-2.66-1.704-5.37-2.308-8.118-1.135-5.45-1.392-11.586 1.948-16.46.183-.268.379-.525.583-.774C5.63.38.124 5.9.065 12.643c-.06 6.743 5.346 12.354 12.31 12.778z" opacity=".52"/>
                <path fill="#111828" d="M9.438 16.028c-.508.126-.481.281-1.748 1.15-1.234.848-1.86 1.27-2.332 1.152-.406-.1-.567-.53-.874-1.381-.546-1.516-.243-2.027-.874-2.533-.485-.388-.77-.173-1.458-.69-.241-.182-.925-.696-.874-1.382.029-.251.13-.49.292-.69.253-.272.548-.505.874-.69.356-.278.748-.51 1.166-.691.301-.095.47-.092.582-.23.122-.15.04-.293 0-.691-.025-.23-.025-.461 0-.69.04-.322.138-.634.292-.922.212-.397.323-.605.583-.69.245-.081.555.022 1.166.23.462.216.952.37 1.457.46.194.015.389.015.583 0 .495-.002.987-.08 1.457-.23.542-.194.405-.323.874-.46.477-.126.98-.126 1.457 0 .21.031.41.11.583.23.26.208.277.485.292.92.046.537.046 1.076 0 1.612-.245.785-.748.97-.583 1.382.108.27.34.229.874.69.402.293.706.693.874 1.151.044.383.044.769 0 1.152-.004.309.114.474 0 .69-.14.209-.343.37-.583.46-.466.267-.953.498-1.457.691-1.179.32-1.579-.26-2.623 0z"/>
                <ellipse cx="7.725" cy="12.181" fill="#2E3181" opacity=".36" rx="2.88" ry="2.779" transform="rotate(-43.192 7.725 12.18)"/>
                <ellipse cx="7.814" cy="12.084" fill="#D7ADDE" opacity=".25" rx="1" ry="1.115"/>
            </g>
            <g>
                <path fill="#93BB36" stroke="#9AB43F" stroke-width=".3" d="M34.36.85c.689.197 1.372.419 2.05.664.91 6.491-2.34 11.86-5.564 17.38C20.73 30.016 6.012 35.89 1.813 32.128c-4.034-3.614-.936-18.42 8.652-24.058 7.593-4.466 14.62-.457 22.754-6.326.402-.29.778-.59 1.141-.894z" transform="rotate(32 23.73 82.753) translate(56 20)"/>
                <path fill="#457A00" d="M34.809.985c.536.162 1.069.338 1.6.528.166 1.152.205 2.32.117 3.48C27.306 16.12 14.343 24.014.532 29.659-.748 23.958 2.74 13.08 10.646 8.43c7.593-4.466 14.62-.457 22.754-6.326.502-.362.97-.736 1.409-1.12z" transform="rotate(32 23.73 82.753) translate(56 20)"/>
                <path fill="#5C8000" d="M34.026.759c.803.222 1.6.474 2.388.756.008.063.024.127.032.19-1.817 1.528-3.793 2.852-5.892 3.95-.451.299-.89.612-1.33.927-.788.3-1.551.668-2.28 1.097-1.221.56-2.437 1.141-3.629 1.756-.149.075-.298.15-.444.228-1.064.56-2.101 1.156-3.103 1.79-.539.291-1.374.816-1.592.92-1.144.525-2.249 1.134-3.305 1.824-.297.2-.583.42-.873.636-5.346 2.646-12.284 7.25-12.827 13.444l-.928.555C-.937 23.09 2.561 12.367 10.395 7.76c7.593-4.466 14.62-.457 22.753-6.326.306-.22.596-.446.878-.675z" transform="rotate(32 23.73 82.753) translate(56 20)"/>
            </g>
            <path fill="#8166D1" d="M40.305 32c-.476.021-2.242.097-2.305 1.276.226 1.205.972 2.282 2.077 3 1.791 1.308 2.824.475 4.382 1.724 1.529 1.226 1.724 2.985 2.077 3 .565.023 1.174-4.45-1.85-7.276-1.113-1.113-2.711-1.741-4.381-1.724zM40.701 60.738c-.16-.522-.751-2.46-1.888-2.711-.953-.211-1.85.861-2.232 1.8-.713 1.75.38 3.005-.345 4.51-.712 1.477-2.322 1.416-2.232 1.799.144.613 4.565 1.972 6.353-.887.714-1.38.84-3.024.344-4.51z" opacity=".3" transform="rotate(32 23.73 82.753)"/>
            <g transform="rotate(32 23.73 82.753) translate(31 55)">
                <ellipse cx="16.606" cy="16.457" fill="#1D2643" rx="12.623" ry="13.206" transform="rotate(-73.715 16.606 16.457)"/>
                <path fill="#4F5A83" d="M9.578 5.58c2.387 1.638 4.68 3.41 6.87 5.305 4.29 3.788 8.322 8.615 8.76 14.4.023.317.031.632.027.946 5.224-4.233 6.057-11.902 1.863-17.163C22.929 3.71 15.472 2.224 9.578 5.58z" opacity=".52"/>
                <path fill="#8166D1" d="M15.992 5.98c-.406.225-1.914 1.058-1.309 2.244.879 1.09 2.125 1.82 3.503 2.053 2.304.515 2.745-.747 4.811-.19 2.03.547 3.185 2.191 3.503 2.054.51-.22-1.46-4.876-5.696-6.351-1.559-.623-3.307-.554-4.812.19z" opacity=".3"/>
                <path fill="#111828" d="M15.398 11.57c.318-.381.2-.492.646-1.893.434-1.364.66-2.05 1.101-2.214.38-.142.774.116 1.545.638 1.373.928 1.456 1.507 2.264 1.57.62.048.71-.283 1.569-.242.584-.03 1.15.204 1.545.638.134.216.204.465.204.72-.028.357-.113.708-.252 1.04-.104.42-.265.823-.478 1.2-.177.242-.31.332-.311.506-.002.189.151.258.43.56.163.171.308.358.432.559.17.279.287.585.348.906.082.438.126.668-.024.88-.14.2-.447.287-1.054.454-.492.078-.97.222-1.424.429-.16.094-.312.201-.455.32-.383.272-.72.606-.994.988-.302.455-.114.484-.395.853-.299.367-.692.644-1.137.801-.187.091-.392.137-.599.135-.333-.026-.52-.241-.802-.586-.37-.407-.707-.844-1.007-1.305-.3-.77-.022-1.196-.408-1.439-.253-.16-.408.001-1.113-.079-.5-.017-.985-.173-1.401-.451-.178-.14-.16-.189-.72-.932-.19-.253-.385-.321-.43-.56-.022-.243.037-.486.167-.693.197-.472.433-.927.706-1.36.72-.908 1.394-.658 2.047-1.442z"/>
                <ellipse cx="19.138" cy="13.744" fill="#2E3181" opacity=".36" rx="2.747" ry="2.841" transform="rotate(-47.064 19.138 13.744)"/>
                <ellipse cx="19.129" cy="13.871" fill="#D7ADDE" opacity=".25" rx="1" ry="1.143" transform="rotate(-42.645 19.129 13.87)"/>
            </g>
            <path fill="#8166D1" d="M68.758 53.588c-.15-.507-.708-2.388-1.962-2.573-1.053-.156-2.11.954-2.586 1.902-.887 1.769.266 2.948-.622 4.475-.873 1.5-2.665 1.53-2.585 1.902.128.598 4.987 1.694 7.133-1.23.867-1.33 1.095-2.967.622-4.476z" opacity=".3" transform="rotate(32 23.73 82.753)"/>
            <g stroke="#051F44" stroke-width=".03" transform="rotate(32 23.73 82.753) translate(43 25)">
                <ellipse cx="17.491" cy="17.541" fill="#1D2643" rx="14.092" ry="13.642" transform="rotate(-13.463 17.491 17.54)"/>
                <path fill="#4F5A83" d="M12.956 30.52c-.237-3.003-.295-6.017-.174-9.026.304-5.961 1.683-12.436 6.382-16.752.257-.237.525-.46.8-.672C12.71 2.87 5.728 7.342 3.832 14.403c-1.754 6.929 2.255 14.01 9.124 16.117h0z" opacity=".52"/>
                <path fill="#111828" d="M12.483 20.014c-.55.014-.565.182-2.085.795-1.48.598-2.23.892-2.677.66-.386-.2-.436-.686-.52-1.649-.149-1.712.295-2.175-.21-2.851-.39-.519-.737-.361-1.297-1.062-.43-.435-.623-1.048-.52-1.648.098-.258.264-.484.482-.654.33-.226.691-.4 1.073-.518.436-.207.896-.358 1.37-.45.331-.028.501.014.653-.105.164-.128.118-.296.185-.722.036-.246.098-.488.185-.722.126-.327.31-.63.542-.894.322-.366.49-.557.777-.586.27-.027.559.152 1.124.513.412.334.87.61 1.357.821.194.06.392.106.593.136.506.114 1.026.147 1.542.1.604-.077.499-.243 1.012-.277.515-.02 1.027.097 1.481.34.205.082.387.21.53.377.21.278.153.572.05 1.03-.096.573-.24 1.136-.43 1.685-.459.764-1.019.839-.962 1.308.037.308.284.319.704.926.33.4.533.891.58 1.407-.057.412-.16.815-.307 1.204-.087.322-.011.522-.185.722-.198.185-.447.305-.716.345-.544.17-1.101.297-1.665.382-1.284.06-1.536-.64-2.666-.613z"/>
                <ellipse cx="11.77" cy="15.593" fill="#2E3181" opacity=".36" rx="3.088" ry="2.914" transform="rotate(-33.02 11.77 15.593)"/>
                <ellipse cx="11.887" cy="15.513" fill="#D7ADDE" opacity=".25" rx="1.204" ry="1.009" transform="rotate(-72.871 11.887 15.513)"/>
            </g>
            <path fill="#8166D1" d="M68.265 33.574c-.42-.236-1.972-1.112-2.784-.088-.581 1.208-.638 2.56-.158 3.802.685 2.131 2.1 1.937 2.625 3.89.514 1.918-.45 3.6-.159 3.802.467.323 3.86-3.363 3.1-7.515-.203-1.563-1.157-2.977-2.624-3.89z" opacity=".3" transform="rotate(32 23.73 82.753)"/>
        </g>
    </g>
</svg>
