<svg xmlns="http://www.w3.org/2000/svg" xmlns:xlink="http://www.w3.org/1999/xlink" width="108" height="104" viewBox="0 0 108 104">
    <defs>
        <path id="prefix__a" d="M79.518.2C73.308.453 67.102.822 60.9 1.254c-6.21.434-12.414.923-18.618 1.42-6.01.481-11.786 1.752-17.693 3.011-4.188.892-8.333 1.522-12.543 1.522-1.303 0-2.61-.06-3.928-.192-2.657-.265-5.296-.67-7.93-1.128v9.667c.213-.117.446-.22.689-.313 3.358-2.24 7-4.15 10.913-4.15.592 0 1.189.045 1.793.137 1.041.162 2.21.466 2.918 1.425.747 1.015.564 2.399.138 3.533-1.404 3.732-5.007 5.226-8.352 5.467-.375.028-.753.04-1.13.04-1.347 0-2.692-.167-4.02-.442-1-.207-2.103-.541-2.948-1.225V63.63c5.432-2.115 10.788-4.676 16.448-4.676 1.017 0 2.042.083 3.082.266 4.888.86 9.458 3.426 13.97 5.59 4.453 2.134 9.12 3.67 13.839 4.829 6.547 1.608 13.24 2.275 19.934 2.275 3.232 0 6.464-.155 9.68-.436 9.323-.812 17.837-5.074 26.938-7.085 2.295-.507 4.555-.74 6.813-.74 2.563 0 5.123.3 7.727.83 4.973 1.01 9.839 2.616 14.768 3.862 3.257.825 6.627 1.602 9.971 1.703.175.005.353.007.529.007 2.557 0 5.092-.549 7.64-.829.753-.021 1.505-.03 2.256-.03 2.387 0 4.772.088 7.151.16 1.002.03 2.002.053 3 .067V37.916c-.017 0-.035-.001-.052-.003-.428-.031-.751-.21-.899-.677-.16-.505-.21-1.08-.149-1.614.043-.362.15-.967.53-1.074.062-.016.125-.025.188-.025.131 0 .26.036.383.097V25.36c-.15-.09-.296-.183-.442-.28-1.178-.787-2.486-1.98-2.883-3.541-.642-2.526 1.542-4.305 3.325-5.314V2.27c-3.988.633-7.994 1.16-12.015 1.372-.9.048-1.794.07-2.682.07-4.717 0-9.29-.619-14.02-1.303-7.62-1.102-15.276-1.816-22.945-2.21M64.377 12.02c-1.296-.39-2.598-.84-3.808-1.503-.788-.432-1.644-.943-2.14-1.794-.165-.281.043-.648.23-.828 1.871-1.829 4.151-2.61 6.518-3.058 1.341-.682 2.798-1.179 4.206-1.422.47-.083.95-.145 1.423-.145.921 0 1.808.24 2.499 1.05 1.105 1.298 1.987 3.016 2.401 4.76.26 1.09.357 2.39-.49 3.182-.696.65-1.669.815-2.537.895-.443.04-.888.06-1.334.06-2.345 0-4.735-.527-6.968-1.197m18.714-.547c-1.42-.585-1.823-2.211-1.169-3.715.732-1.682 2.253-2.14 3.834-2.14 1.028 0 2.081.194 2.96.372 2.139 0 5.183.3 4.853 2.823-.167 1.27-1.377 1.912-2.338 2.256-1.23.44-2.528.632-3.813.712-.597.036-1.242.084-1.89.084-.845 0-1.692-.083-2.437-.392M30.289 6.378c.142 0 .284.009.425.03.352.05.41.461.264.772l-.026.05c.17.12.268.321.267.626-.001.61-.548 1.248-.894 1.642-.474.543-1.151.876-1.804 1.037-.482.121-1.03.2-1.583.2-.966 0-1.949-.244-2.633-.947-.29-.298-.037-.882.277-1.017.92-.39 1.83-.794 2.715-1.281.09-.05.17-.07.237-.07l.034.002c.83-.607 1.772-1.044 2.721-1.044m8.785 9.303c-1.907-2.071-1.473-4.935.592-6.633l.059-.041c.957-1.393 2.559-2.438 4.131-2.438.66 0 1.314.184 1.915.605 2.515 1.765 1.321 6.23-.33 8.215-.91 1.096-2.133 1.678-3.358 1.678-1.072 0-2.144-.447-3.01-1.386m99.12-9.09c.585 0 1.16.072 1.714.252 1.645.539 2.384 2.16 2.338 4.036-.107 4.144-2.65 7.975-6.322 8.807-.5.113-.998.166-1.492.166-3.028 0-5.858-2.033-7.522-4.935-.889-1.55-1.474-3.467-.839-5.267.494-1.398 1.598-2.32 2.874-2.65.647-.168 1.294-.231 1.94-.231 1.258 0 2.517.236 3.775.39 1.117-.272 2.341-.568 3.533-.568m19.415.148c.466-.045.927-.09 1.385-.09.775 0 1.54.128 2.29.6.863.543 1.206 1.59.699 2.589-.9 1.773-3.29 3.428-5.183 3.428-.096 0-.191-.006-.284-.015-1.771-.164-5.045-1.394-5.003-3.937.02-1.244.749-2.412 1.881-2.576.204-.03.407-.04.608-.04.451 0 .899.06 1.346.118.046-.016.092-.026.14-.026.014 0 .026 0 .038.002.228.026.455.036.683.036.469 0 .936-.044 1.4-.09M3.811 12.749c-.331-.024-.582-.162-.696-.524-.124-.392-.164-.836-.117-1.249.033-.283.117-.752.412-.833.048-.012.097-.02.146-.02.504 0 .963.69 1.17 1.127.119.248.255.587.177.878-.026.095-.07.162-.125.213-.145.324-.53.415-.842.415-.043 0-.086-.003-.125-.006m106.085.77c-.33-.026-.58-.164-.694-.526-.124-.392-.164-.838-.115-1.251.032-.281.115-.75.409-.831.05-.014.098-.02.147-.02.504 0 .964.69 1.17 1.125.119.25.255.589.178.88-.025.093-.07.161-.126.214-.146.323-.53.412-.844.412-.044 0-.084 0-.125-.004M78.5 25.048c-.453-.068-1.203-.238-1.332-.843-.249-1.151 1.003-2.242 1.769-2.706.318-.194.724-.41 1.112-.41.1 0 .199.014.293.046.15.051.261.144.342.26.59.34.692 1.313.654 1.986-.04.68-.26 1.192-.838 1.428-.457.185-.957.28-1.451.28-.185 0-.369-.015-.55-.04m-37.434-.388c-.33-.024-.582-.163-.695-.523-.123-.393-.163-.838-.115-1.25.032-.284.114-.752.41-.833.048-.014.098-.02.147-.02.503 0 .962.69 1.168 1.126.119.25.256.587.179.878-.026.094-.071.163-.127.213-.146.324-.53.414-.843.414-.044 0-.084-.001-.124-.005m-23.607.67c1.703-.748 3.552-1.469 5.383-1.646.23-.023.466-.036.7-.036 1.628 0 3.303.597 3.67 2.662.388 2.179-.416 4.54-1.321 6.427-1 2.086-2.273 3.917-4.102 5.125-2.798 1.849-6.24 2.858-9.48 2.858H12.2c-1.47-.01-3.068-.2-4.39-.993-.912-.547-2.012-1.45-2.145-2.714-.294-2.808 2.378-5.2 4.149-6.633.784-.635 1.633-1.29 2.525-1.883.043-.086.105-.169.194-.236.126-.097.254-.194.383-.288-.109-.558-.133-1.148-.068-1.704.06-.512.209-1.363.743-1.509.089-.024.178-.036.266-.036.717 0 1.383.769 1.82 1.482.583-.32 1.177-.611 1.78-.876m102.949 4.925c-.6-.046-1.054-.296-1.261-.952-.224-.71-.297-1.518-.209-2.265.06-.513.208-1.363.743-1.51.089-.023.176-.035.265-.035.915 0 1.749 1.25 2.122 2.041.215.453.464 1.066.32 1.592-.044.171-.125.294-.227.388-.265.587-.962.75-1.53.75-.077 0-.151-.004-.223-.01m-55.404 5.953c-.25-.036-.662-.13-.736-.464-.136-.635.556-1.236.978-1.492.174-.107.398-.227.612-.227.055 0 .11.009.162.027.083.028.144.079.189.143.324.186.382.724.36 1.095-.022.375-.143.658-.461.788-.252.102-.527.153-.799.153-.103 0-.206-.007-.305-.023m35.811 2.474c-.425-.034-.749-.212-.896-.678-.16-.506-.212-1.08-.15-1.612.042-.364.149-.969.53-1.075.063-.017.127-.024.188-.024.65 0 1.245.889 1.511 1.452.153.322.329.76.23 1.133-.034.122-.092.21-.165.275-.187.42-.684.534-1.087.534-.056 0-.11 0-.16-.005M51.573 41.4c-.6-.047-1.054-.297-1.262-.954-.224-.709-.296-1.515-.21-2.265.06-.511.208-1.36.743-1.51.09-.024.178-.035.266-.035.915 0 1.748 1.252 2.123 2.042.215.453.462 1.065.321 1.592-.046.17-.128.294-.228.387-.265.588-.963.75-1.532.75-.075 0-.15-.002-.222-.007m73.187-1.506c-.303-.046-.806-.159-.893-.566-.166-.773.676-1.506 1.189-1.816.213-.13.486-.276.746-.276.068 0 .133.01.196.03.101.036.174.097.229.175.396.229.466.881.438 1.333-.026.457-.172.8-.562.958-.304.126-.64.188-.971.188-.125 0-.25-.009-.372-.026m-38.009 6.874c-.322-.046-.856-.167-.948-.599-.176-.819.716-1.595 1.26-1.925.226-.137.516-.293.791-.293.072 0 .142.01.21.033.107.037.185.103.243.184.419.243.493.936.464 1.414-.028.485-.185.85-.596 1.018-.324.13-.68.198-1.032.198-.131 0-.263-.01-.392-.03m28.951.617c-.168-.027-.444-.089-.493-.312-.09-.427.371-.83.655-1.002.118-.073.27-.153.412-.153.037 0 .073.006.108.019l.126.094c.22.128.26.488.245.736-.016.253-.098.442-.31.53-.17.067-.356.102-.537.102-.07 0-.139-.005-.206-.014m-83.72 2.44c-.427-.034-.75-.211-.898-.678-.16-.504-.21-1.08-.149-1.613.043-.363.148-.969.53-1.074.062-.017.126-.024.188-.024.651 0 1.242.888 1.51 1.453.153.32.33.758.228 1.132-.032.122-.09.21-.161.277-.19.417-.686.534-1.09.534-.055 0-.108-.003-.158-.007m98.32 4.649c-.216-.033-.575-.114-.636-.403-.12-.55.479-1.071.844-1.293.152-.093.346-.196.532-.196.046 0 .095.006.14.022.07.025.123.069.163.123.28.164.332.629.312.95-.02.325-.124.57-.4.682-.217.089-.458.133-.693.133-.089 0-.177-.007-.261-.018"/>
        <path id="prefix__c" d="M.037 4.312v48.39c1.777-.727 3.573-1.4 5.446-1.87 1.957-.49 3.955-.699 5.959-.699 1.526 0 3.057.121 4.573.333 6.75.936 13.02 4.031 19.391 6.305 5.418 1.935 11.087 3.144 16.823 3.144.823 0 1.649-.024 2.475-.076 6.482-.402 12.258-2.863 17.889-5.984 6.381-3.54 12.91-6.843 19.869-9.035 3.21-1.011 6.613-1.87 9.984-1.936.104-.002.208-.003.313-.003 3.047 0 6.048.861 8.91 1.844 5.269 1.808 10.282 4.317 15.872 4.94.56.061 1.111.091 1.655.091 4.953 0 9.276-2.408 13.985-3.889 1.414-.444 2.81-.641 4.185-.641 4.358 0 8.509 1.973 12.306 4.317 6.855 4.232 12.848 10.208 20.263 13.344V8.322c-3.098-.667-6.212-1.036-9.395-1.036-.437 0-.872.006-1.31.02-4.594.148-9.151.79-13.725 1.223-3.032.287-6.05.391-9.079.391-1.469 0-2.939-.025-4.415-.063-2.102-.057-4.21-.126-6.315-.126-.665 0-1.33.006-1.994.023-2.251.221-4.489.658-6.748.658-.156 0-.312-.002-.466-.006-2.955-.082-5.93-.697-8.808-1.35-4.354-.992-8.65-2.266-13.043-3.069-2.3-.42-4.562-.656-6.826-.656-1.993 0-3.988.183-6.015.586-8.038 1.597-15.559 4.979-23.793 5.624-2.84.222-5.695.346-8.55.346-5.911 0-11.823-.53-17.606-1.806-4.168-.92-8.29-2.138-12.222-3.833C25.639 3.53 21.603 1.492 17.285.81 16.37.665 15.463.6 14.566.6c-5 0-9.73 2.03-14.528 3.712m163.628 11.329c-.293-.02-.514-.13-.617-.416-.108-.31-.142-.665-.1-.993.029-.224.1-.596.362-.66.044-.01.087-.017.129-.017.445 0 .851.548 1.034.895.104.198.226.468.158.698-.023.076-.064.128-.112.168-.129.258-.467.33-.743.33-.038 0-.076-.002-.111-.005m-65.643.882c-.291-.021-.512-.13-.613-.417-.11-.31-.145-.665-.103-.992.029-.225.103-.598.362-.662.043-.01.087-.016.13-.016.445 0 .852.55 1.033.895.105.198.225.467.158.697-.022.076-.064.13-.112.17-.13.257-.47.329-.746.329-.038 0-.075-.001-.109-.004m-55.702.61c-.293-.02-.514-.13-.615-.418-.109-.31-.143-.664-.103-.992.03-.224.102-.596.362-.66.044-.011.088-.017.13-.017.446 0 .851.548 1.034.895.106.198.225.467.157.697-.023.076-.062.13-.112.17-.129.256-.468.328-.743.328-.038 0-.076 0-.11-.004m93.61 7.662c-.398-.053-1.06-.187-1.174-.668-.219-.914.887-1.779 1.562-2.15.283-.153.642-.324.984-.324.088 0 .174.01.257.037.135.04.23.113.303.205.52.27.612 1.043.578 1.576-.037.541-.229.95-.741 1.136-.402.145-.843.22-1.278.22-.165 0-.33-.01-.49-.032M14.586 26.286c-.399-.054-1.06-.189-1.176-.67-.218-.914.89-1.778 1.564-2.149.28-.153.639-.325.982-.325.089 0 .175.011.258.038.133.04.23.114.303.205.52.27.612 1.044.578 1.577-.036.54-.232.947-.741 1.134-.402.147-.845.22-1.279.22-.164 0-.328-.01-.49-.03m158.36 2.643c-.53-.037-.93-.235-1.114-.755-.197-.564-.26-1.206-.184-1.8.052-.405.183-1.08.655-1.198.08-.02.157-.029.235-.029.808 0 1.545.994 1.876 1.623.19.358.406.846.283 1.263-.041.135-.113.234-.203.308-.232.466-.847.595-1.348.595-.068 0-.136-.002-.2-.007m-65.64.88c-.53-.035-.931-.234-1.115-.755-.199-.562-.261-1.206-.186-1.798.053-.407.184-1.08.658-1.198.079-.02.157-.03.234-.03.807 0 1.544.994 1.876 1.622.188.359.405.847.281 1.264-.039.136-.112.233-.2.308-.234.466-.848.595-1.348.595-.07 0-.137-.002-.2-.008M51.6 30.42c-.53-.037-.93-.235-1.114-.755-.197-.563-.26-1.206-.185-1.799.052-.406.184-1.081.656-1.198.079-.02.156-.03.234-.03.808 0 1.544.995 1.876 1.622.188.36.407.845.282 1.263-.04.137-.112.235-.2.309-.234.465-.848.594-1.349.594-.068 0-.137-.002-.2-.006m72.41 3.236c-.22-.03-.585-.105-.648-.37-.12-.504.49-.982.863-1.186.155-.084.353-.178.541-.178.049 0 .097.006.144.02.072.022.125.063.165.112.288.15.338.577.319.87-.02.299-.128.523-.409.626-.223.082-.466.124-.706.124-.09 0-.18-.007-.268-.018m31.63 1.961c-.377-.025-.662-.166-.794-.538-.14-.399-.185-.856-.13-1.279.037-.29.13-.77.466-.853.056-.014.112-.02.168-.02.573 0 1.099.707 1.334 1.154.133.254.29.601.202.9-.029.095-.081.165-.144.218-.167.332-.603.424-.96.424-.049 0-.097-.002-.143-.006m-152.973-.47c-.221-.03-.587-.106-.65-.37-.121-.504.49-.982.863-1.184.154-.086.353-.18.542-.18.048 0 .095.005.142.02.072.023.127.063.167.114.286.15.337.576.319.868-.02.3-.128.524-.41.626-.222.081-.465.123-.704.123-.092 0-.182-.006-.27-.018M90.003 36.5c-.38-.026-.664-.167-.795-.538-.14-.4-.186-.859-.132-1.28.038-.29.132-.77.468-.853.056-.015.112-.02.166-.02.575 0 1.099.706 1.335 1.153.134.256.29.603.202.9-.029.096-.081.167-.144.219-.167.332-.605.424-.96.424-.05 0-.097-.002-.14-.005m-55.706.61c-.376-.026-.662-.166-.792-.537-.14-.401-.186-.858-.132-1.281.037-.288.131-.77.467-.853.057-.015.112-.02.167-.02.575 0 1.1.707 1.336 1.153.133.257.29.603.2.9-.029.096-.08.168-.145.219-.164.333-.602.425-.958.425-.05 0-.097-.002-.143-.005m21.15.961c-.268-.035-.71-.125-.788-.448-.147-.614.595-1.195 1.048-1.442.189-.103.432-.22.661-.22.059 0 .117.008.173.026.088.026.154.076.202.139.35.18.412.7.388 1.056-.022.364-.155.637-.497.763-.269.097-.566.148-.858.148-.11 0-.22-.008-.328-.022m87.774 3.968c-.283-.039-.755-.135-.837-.476-.155-.65.633-1.267 1.112-1.53.2-.109.458-.232.701-.232.062 0 .124.008.182.026.096.03.165.081.216.148.371.192.436.742.41 1.122-.025.383-.163.676-.527.806-.285.106-.6.16-.911.16-.117 0-.233-.009-.346-.024M21.876 43.53c-.283-.037-.755-.133-.837-.474-.155-.65.63-1.268 1.112-1.53.2-.11.457-.232.7-.232.063 0 .125.008.184.026.095.03.164.082.215.147.37.192.435.743.412 1.122-.026.384-.164.675-.528.808-.287.104-.6.157-.91.157-.117 0-.233-.008-.348-.023m25.57.489c-.147-.02-.392-.07-.434-.249-.081-.337.328-.656.578-.794.104-.057.238-.122.363-.122.032 0 .066.005.096.015l.11.075c.196.1.229.387.216.584-.013.201-.086.352-.274.42-.149.056-.312.082-.473.082-.061 0-.122-.003-.181-.011m12.893 5.626c-.19-.025-.506-.087-.563-.319-.104-.437.425-.85.747-1.025.134-.075.307-.157.47-.157.043 0 .084.006.124.018.062.02.108.056.143.098.25.13.294.5.277.753-.017.26-.11.454-.354.543-.193.068-.404.105-.612.105-.078 0-.157-.006-.232-.016"/>
        <path id="prefix__e" d="M102.446.136c-3.37.068-6.775.944-9.984 1.976-6.96 2.236-13.488 5.607-19.87 9.22-5.63 3.185-11.406 5.696-17.888 6.106-.826.053-1.652.077-2.475.077-5.736 0-11.405-1.233-16.823-3.208-6.37-2.32-12.64-5.478-19.391-6.434-1.516-.216-3.047-.34-4.573-.34-2.004 0-4.002.214-5.96.715-1.872.48-3.668 1.165-5.445 1.907V32.94h5.694c.532-.776 1.437-1 2.376-1 .684 0 1.384.118 1.97.228 1.051 0 2.428.1 2.99.772h45.914l-.092-.056c-.782-.48-1.652-1.208-1.917-2.16-.46-1.653 1.247-2.782 2.463-3.37 1.598-.77 3.313-1.213 5.008-1.68.034-.01.067-.015.094-.015.023 0 .043.003.062.008.746-.226 1.542-.312 2.342-.312.413 0 .829.022 1.24.062.34-.036.681-.057 1.02-.057.312 0 .623.017.93.058.982.128 2.075.607 2.006 1.822-.043.733-.38 1.433-.76 2.039-.597.96-1.3 1.862-2.18 2.556-.538.426-1.123.796-1.737 1.105h12.222c.066-.056.133-.108.2-.157.814-.582 1.767-.938 2.719-1.185.605-.158 1.311-.353 1.975-.353.189 0 .376.016.553.052.936.195 1.178.856 1.063 1.643h17.25c-.981-.635-1.907-1.373-2.616-2.288-.89-1.154-1.171-2.907.217-3.814.69-.45 1.544-.626 2.337-.736 1.057-.15 2.125-.194 3.19-.194.47 0 .938.008 1.404.023.056-.126.16-.234.293-.257.37-.066.74-.136 1.11-.206.956-.177 2.118-.438 3.233-.438.922 0 1.812.18 2.524.729 1.78 1.38 1.497 4.45.53 6.249-.175.329-.38.64-.603.932h29.62c.7-.842 1.611-1.555 2.422-2.168 1.362-1.025 2.926-2.051 4.6-2.404.264-.056.53-.087.788-.087 1.054 0 1.973.504 2.204 1.766.162.88.189 1.913.013 2.893h15.469c-.087-.07-.166-.148-.234-.235-.43-.543-.29-1.212.165-1.7.617-.662 1.49-1.116 2.417-1.327.033-.166.157-.33.33-.348.293-.031.589-.045.885-.045.688 0 1.379.079 2.047.224.754.164 1.731.469 2.045 1.289.274.717-.043 1.572-.62 2.017-.056.044-.114.085-.172.125h2.895V20.548c-7.415-3.2-13.408-9.298-20.263-13.617-3.797-2.391-7.948-4.405-12.306-4.405-1.375 0-2.771.201-4.185.655-4.709 1.51-9.032 3.968-13.985 3.968-.544 0-1.095-.03-1.655-.094-5.59-.635-10.603-3.195-15.871-5.04-2.863-1.003-5.864-1.882-8.91-1.882-.106 0-.21.001-.314.003zM6.108 16.912c-1.268-1.264-.98-3.01.394-4.047l.038-.026c.638-.85 1.703-1.488 2.749-1.488.44 0 .875.113 1.274.37 1.673 1.077.879 3.8-.218 5.012-.606.67-1.42 1.026-2.235 1.026-.713 0-1.427-.273-2.002-.847zm145.644-4.152c-.057-.23.151-.454.348-.507l.041-.01c.201-.187.517-.247.844-.247.401 0 .822.09 1.076.145.599.131 1.363.312 1.967.653l.219.095c.08.037.125.09.145.15.08.064.154.131.224.205.126.137.096.366-.03.496-.532.555-1.346.836-2.158.836-1.183 0-2.363-.596-2.676-1.816zm-16.908 5.285c-.579-.09-.632-.532-.686-1.042-.08-.77-.145-1.55-.151-2.324-.008-.691.324-1.279 1.065-1.372.096-.014.189-.02.282-.02.65 0 1.25.277 1.831.588 1.078.354 2.26.787 1.371 2.045-.446.631-1.092 1.13-1.738 1.52-.506.302-1.121.624-1.728.624-.082 0-.164-.006-.246-.02zm29.724 5.796c-2.86-.22-6.039-1.307-7.71-3.89-.09-.14 0-.318.077-.433 1.115-1.632 2.697-2.637 4.55-2.637.301 0 .609.026.922.08 1.163.201 2.262.618 3.338 1.104 1.033.12 2.067.214 3.088.414 1.446.284 2.994.713 4.027 1.877.133.15.088.351-.028.497-1.743 2.187-4.603 3.024-7.281 3.024-.331 0-.66-.012-.983-.036zm-24.934.677c-.845-.249-1.831-.685-2.31-1.504-.439-.751-.325-1.613.217-2.27.685-.833 1.64-1.44 2.58-1.916.499-.255 1.035-.511 1.588-.681.646-.412 1.356-.731 2.052-.955.425-.14.974-.272 1.503-.272.654 0 1.274.204 1.58.855.388.82.103 1.744-.289 2.507-.53 1.03-1.265 1.937-2.078 2.738-.645.635-1.405 1.319-2.27 1.596-.325.104-.668.148-1.015.148-.53 0-1.067-.103-1.558-.246zM18.747 22.46c-.86-.237-1.729-.513-2.533-.917-.524-.265-1.094-.576-1.423-1.095-.11-.172.028-.394.151-.504 1.247-1.117 2.764-1.595 4.338-1.868.893-.416 1.86-.717 2.797-.867.312-.051.633-.09.948-.09.612 0 1.202.148 1.66.642.736.793 1.324 1.84 1.601 2.903.173.666.235 1.46-.329 1.945-.461.395-1.109.496-1.687.547-.294.023-.588.035-.885.035-1.559 0-3.152-.321-4.638-.73zm50.514-1.085c-.992-.074-2.332-.282-3.09-1.027-.17-.166-.056-.443.102-.568.394-.313.86-.47 1.342-.561.826-.395 2.111-.771 3.115-.771 1.067 0 1.815.426 1.345 1.71-.36.982-1.466 1.233-2.404 1.233-.142 0-.28-.006-.41-.016zm47.929 2.09c-.537-.119-1.092-.273-1.59-.526-.139-.071-.364-.161-.442-.309l-.021-.045c-.16-.105-.314-.223-.457-.36-.176-.17-.04-.499.159-.62.047-.067.109-.124.176-.158.862-.424 1.974-.62 2.984-.62.252 0 .498.012.733.036.516.053 1.105.159 1.469.58.31.358.348.98.117 1.393-.354.63-1.022.813-1.714.813-.497 0-1.003-.094-1.414-.185zm-34.24 1.788c-.798-.348-1.955-.9-2.294-1.81-.344-.912.249-1.783 1.048-2.19.436-.221.918-.3 1.405-.3.583 0 1.178.114 1.722.23.58.124 1.152.29 1.718.477l.143-.039c.969.009 1.975.178 2.896.484.768.255 1.956.744 2.058 1.727.2 1.92-2.335 2.22-3.634 2.246-.12.002-.24.002-.36.002-1.572 0-3.253-.195-4.701-.827zm12.927-2.935c-.065-.19.115-.398.26-.48.739-.397 1.567-.515 2.417-.515.59 0 1.187.056 1.773.117l.116-.028c.365-.006.812-.052 1.257-.052.895 0 1.785.181 2.017 1.214.258 1.147-1.539 1.745-2.324 1.863-.38.057-.81.093-1.26.093-1.708 0-3.697-.506-4.256-2.212zm-53.822-.715c.391 0 .774.043 1.143.154 1.094.329 1.588 1.318 1.556 2.464-.071 2.527-1.764 4.864-4.206 5.371-.333.07-.665.102-.993.102-2.015 0-3.896-1.24-5.004-3.012-.59-.943-.98-2.114-.557-3.214.326-.852 1.062-1.414 1.91-1.615.43-.103.86-.142 1.291-.142.838 0 1.674.145 2.51.237.745-.165 1.56-.345 2.35-.345zm12.918.092c.31-.029.617-.056.92-.056.517 0 1.025.078 1.525.365.573.329.802.97.464 1.58-.599 1.084-2.188 2.091-3.448 2.091-.065 0-.127-.003-.189-.008-1.177-.1-3.355-.852-3.328-2.403.015-.759.499-1.472 1.252-1.572.135-.019.27-.026.403-.026.3 0 .6.037.897.076l.118-.016c.152.017.302.022.452.022.313 0 .625-.027.934-.053zm21.24 3.047c-.649-.153-2.438-.7-1.843-1.763.25-.445.719-.592 1.216-.592.23 0 .463.03.685.08l.115-.005c.17-.032.342-.049.515-.049.1 0 .203.007.303.017.125.013.19.078.214.166.516.158.934.48 1.05 1.059.173.887-.88 1.143-1.668 1.143-.23 0-.439-.023-.586-.056z"/>
        <path id="prefix__g" d="M1.986.606C1.128.938.492 1.65.86 2.398c.364.744 1.606 1.196 2.464 1.481 1.554.518 3.36.677 5.047.677.13 0 .259 0 .387-.002 1.394-.02 4.116-.266 3.902-1.838-.11-.804-1.386-1.205-2.21-1.414-.99-.25-2.07-.389-3.11-.395l-.153.031C6.58.785 5.967.65 5.343.548 4.759.452 4.121.358 3.495.358c-.523 0-1.041.065-1.51.247"/>
        <path id="prefix__i" d="M.273.57C.17.63.049.767.042.909v.027c0 .021.004.04.01.06.475 1.508 2.161 1.955 3.61 1.955.381 0 .747-.031 1.068-.081.666-.105 2.19-.634 1.97-1.647C6.505.308 5.75.148 4.99.148c-.377 0-.756.04-1.066.046l-.098.025C3.33.165 2.822.116 2.323.116 1.603.116.9.22.273.57"/>
        <path id="prefix__k" d="M.606.86C.558.89.514.943.48 1.004c-.142.113-.237.414-.113.572.101.126.21.234.323.33l.015.043c.056.136.215.218.313.284.353.234.746.375 1.126.484.29.083.65.17 1.001.17.49 0 .963-.168 1.213-.749.164-.38.137-.953-.083-1.283C4.02.468 3.602.37 3.236.322 3.07.3 2.896.288 2.718.288c-.715 0-1.502.18-2.112.572z"/>
        <path id="prefix__m" d="M.625.584c-.421.094-.538.635-.585.96-.068.476-.01.992.165 1.443.163.417.52.576.993.606.057.003.118.005.18.005.446 0 .994-.104 1.202-.477.079-.06.144-.138.179-.247.111-.336-.084-.725-.252-1.013C2.21 1.358 1.555.56.834.56c-.07 0-.139.008-.21.024"/>
        <path id="prefix__o" d="M1.067.236C.618.456-.117.973.028 1.52c.077.287.516.368.782.399.107.012.216.02.325.02.29 0 .584-.046.851-.133.339-.112.47-.355.492-.679.024-.317-.038-.78-.384-.941-.048-.056-.113-.1-.201-.124C1.838.047 1.78.04 1.722.04c-.227 0-.468.104-.655.196"/>
        <path id="prefix__q" d="M.421.206C.261.294 0 .501.051.72.079.838.235.869.33.88c.037.005.076.008.115.008C.548.888.652.87.748.836.869.79.915.694.923.564.932.436.91.25.786.185.769.165.746.147.716.137.696.131.674.128.653.128.573.128.487.169.421.206"/>
        <path id="prefix__s" d="M.72.09C.28.176.159.683.11.99c-.07.445-.012.929.172 1.351.17.392.543.541 1.036.567.06.005.121.006.186.006.465 0 1.035-.096 1.252-.447.083-.056.15-.129.187-.231.115-.314-.087-.68-.262-.95C2.373.814 1.688.066.938.066.868.067.794.074.721.09z"/>
        <path id="prefix__u" d="M.752.1C.336.177.22.63.174.902c-.068.396-.011.826.162 1.203.163.348.515.48.985.505.054.003.113.005.174.005.44 0 .982-.087 1.19-.399.078-.049.143-.115.177-.205.11-.28-.083-.606-.25-.847C2.32.744 1.672.081.96.081.89.08.823.086.752.1z"/>
        <path id="prefix__w" d="M.328.486C.199.55.162.924.148 1.149c-.02.328-.003.683.051.994.05.288.16.397.304.418.017.003.035.004.054.004.137 0 .305-.072.37-.33.023-.04.044-.094.055-.17.034-.23-.026-.5-.078-.698C.814 1.02.613.47.392.47.37.47.349.475.327.486z"/>
        <path id="prefix__y" d="M1.412.324C.93.66.142 1.44.297 2.264c.081.434.554.555.838.603.115.019.232.029.35.029.31 0 .625-.068.912-.2.366-.168.502-.536.53-1.024.024-.481-.042-1.178-.413-1.421-.053-.083-.12-.149-.216-.186-.06-.023-.121-.033-.184-.033-.244 0-.5.155-.702.292z"/>
        <path id="prefix__A" d="M1.195.272C.75.492.018 1.007.162 1.55c.076.285.515.365.777.397.105.013.213.02.322.02.289 0 .582-.044.847-.133.338-.109.466-.353.489-.673.024-.318-.036-.777-.38-.938C2.167.168 2.104.125 2.015.1 1.96.085 1.904.078 1.846.078c-.225 0-.465.103-.65.194"/>
        <path id="prefix__C" d="M.868.087C.54.19.002.43.108.682c.056.132.377.17.571.185.078.006.157.009.237.009.211 0 .425-.021.622-.062.247-.051.343-.164.36-.314.017-.147-.028-.36-.281-.435C1.58.04 1.535.019 1.47.007c-.04-.007-.083-.01-.126-.01-.166 0-.34.048-.477.09z"/>
        <path id="prefix__E" d="M1.369.598C.866.875.044 1.525.207 2.213c.085.361.577.462.874.503.119.015.24.023.362.023.323 0 .652-.055.951-.167.38-.139.524-.446.55-.852.026-.4-.042-.982-.429-1.185C2.462.465 2.39.41 2.291.38 2.23.36 2.165.352 2.1.352c-.254 0-.522.13-.73.246"/>
        <path id="prefix__G" d="M1.068.37C.62.699-.111 1.47.035 2.285c.075.429.513.549.776.596.106.019.214.028.322.028.29 0 .582-.065.848-.196.336-.168.465-.53.488-1.013.024-.474-.036-1.164-.381-1.405C2.04.214 1.976.149 1.889.111 1.833.09 1.777.08 1.718.08c-.226 0-.465.153-.65.291z"/>
        <path id="prefix__I" d="M.968.172C.639.354.102.78.208 1.228c.056.237.378.303.572.328.077.011.157.016.238.016.211 0 .426-.036.62-.108.248-.092.343-.292.36-.557.017-.263-.028-.642-.28-.775-.036-.046-.082-.08-.147-.1-.041-.014-.083-.02-.126-.02-.166 0-.342.085-.477.16"/>
        <path id="prefix__K" d="M.646.123c-.439.083-.56.57-.61.863-.072.43-.012.893.172 1.3.17.376.542.518 1.034.545.06.003.121.004.183.004.467 0 1.039-.093 1.256-.43.084-.053.151-.124.188-.221.116-.302-.087-.654-.264-.913C2.3.818 1.615.102.863.102.791.102.72.108.646.122z"/>
        <path id="prefix__M" d="M.465.113C.168.188.085.62.052.883c-.048.38-.008.792.117 1.155.115.333.366.46.7.485.038.002.079.004.122.004.315 0 .701-.083.847-.384.056-.047.102-.109.127-.196.079-.268-.06-.581-.177-.812C1.58.732 1.118.095.612.095.564.095.515.1.465.113z"/>
        <path id="prefix__O" d="M.288.372c-.129.064-.165.437-.18.661-.02.329-.003.684.051.996.05.287.16.398.304.417.017.003.035.004.054.004.137 0 .306-.072.37-.328.024-.043.044-.096.054-.171.035-.232-.024-.501-.077-.7C.774.905.573.356.352.356.331.356.309.361.288.372"/>
        <path id="prefix__Q" d="M1.195.539C.746.786.01 1.369.154 1.984c.078.324.517.413.783.45.107.015.216.02.325.02.289 0 .584-.049.851-.147.339-.126.469-.4.493-.764.023-.359-.038-.878-.385-1.06-.048-.062-.111-.111-.2-.138-.056-.018-.113-.026-.172-.026-.228 0-.467.117-.654.22z"/>
        <path id="prefix__S" d="M.485.61c-.16.157-.422.525-.37.914.027.205.184.262.279.285.037.009.076.014.114.014.104 0 .209-.033.303-.095.122-.08.168-.252.175-.483C.997 1.02.975.69.85.575.833.535.81.503.779.486.759.477.739.471.718.471.636.471.552.544.485.61z"/>
        <path id="prefix__U" d="M.575.174c-.124.069-.327.23-.286.4.02.089.142.113.215.123.03.005.059.007.09.007.08 0 .16-.015.235-.042.094-.035.129-.11.136-.21C.97.353.954.209.858.159L.803.12C.788.117.771.114.756.114c-.063 0-.13.032-.181.06z"/>
        <path id="prefix__W" d="M.729.18C.396.266.303.745.266 1.036c-.054.422-.01.88.13 1.283.129.371.413.512.787.538.045.004.092.005.141.005.353 0 .786-.092.951-.425.062-.052.114-.122.141-.218.089-.298-.066-.647-.199-.902C1.983.869 1.465.159.895.159.84.159.785.167.729.18"/>
    </defs>
    <g fill="none" fill-rule="evenodd">
        <path fill="#7A4E30" d="M155.953 57.364c-1.111-3.888-2.633-7.657-4.674-11.217-2.927-5.107-6.463-10.061-7.295-15.946-.179-1.256.074-2.353.58-3.343-2.173-1.923-4.171-4.04-6.365-5.955-.482-.42-.845-.847-1.111-1.281-1.429-.24-2.783-.706-3.619-1.618-2.244-.211-4.586-.844-5.338-2.713-.323-.802-.287-1.602-.03-2.375-.676-.058-1.364-.15-2.02-.302-2.664-.02-6.605-.28-7.625-2.815-.262-.65-.282-1.297-.148-1.931-.347.01-.703.039-1.044.039-2.28 0-6.989.14-8.592-2.252-2.923.57-5.797.879-8.495.879-1.624 0-4.473.066-6.562-.754-5.56 4.53-13.5 8.164-21.34 10.013-2.884 2.224-6.335 4.213-10.047 5.859-1.308 2.08-2.632 4.151-4.002 6.196-.519.772-1.156 1.486-1.872 2.156-.004.103-.017.202-.02.306-.034.96-.557 1.91-1.334 2.822.302 6.117.328 12.38-1.96 18.168-.83 2.1-1.907 3.985-2.244 6.244-.288 1.921.332 4.22-.638 6.115-.543 1.061-1.212 2.053-1.975 2.988 2.463 3.84 5.177 7.534 7.792 11.308 3.046 4.398 7.734 9.919 8.823 15.193.16.78.111 1.506-.074 2.191.047.033.104.057.149.091 2.457.4 4.336 1.476 4.875 3.646.208.08.426.142.63.233 5.792 2.555 11.64 5.008 17.935 6.169 5.878 1.086 12.228.452 19.263.548 2.168.03 6.503-.132 8.316 1.9 2.802-1.683 5.9-3.172 9.128-4.389.795-3.137 3.07-5.796 6.151-8.111 4.409-3.314 9.601-6.151 15.128-8.305.622-1.536 1.181-3.093 1.62-4.675.548-1.983 2.135-3.661 3.97-5.1-.072-4.076-.082-8.153-.082-12.226-.001-3.04 1.679-5.598 4.146-7.756" transform="translate(-48 -5)"/>
        <g transform="translate(-48 -5) translate(16 6)">
            <mask id="prefix__b" fill="#fff">
                <use xlink:href="#prefix__a"/>
            </mask>
            <path fill="#382419" d="M135.98 72.129c-.07-4.12-.09-8.241-.09-12.358-.001-3.073 1.66-5.66 4.102-7.843-1.1-3.932-2.605-7.743-4.623-11.344-2.896-5.165-6.392-10.174-7.215-16.125-.177-1.27.073-2.379.574-3.381-2.149-1.945-4.126-4.086-6.294-6.022-.477-.425-.835-.857-1.099-1.295-1.412-.243-2.752-.715-3.578-1.636-2.22-.215-4.535-.855-5.279-2.743-.32-.813-.283-1.62-.029-2.404-.669-.058-1.35-.15-1.999-.304-2.634-.021-6.53-.283-7.54-2.847-.259-.658-.279-1.312-.147-1.95-.342.009-.695.036-1.032.036-2.259 0-6.93.144-8.507-2.291-2.885.578-5.726.903-8.391.903-1.605 0-4.422.068-6.49-.763-5.496 4.582-13.349 8.257-21.1 10.126-2.854 2.25-6.267 4.26-9.938 5.925-1.292 2.104-2.601 4.2-3.956 6.267-.513.78-1.143 1.502-1.851 2.18-.005.104-.017.205-.02.309-.035.97-.551 1.932-1.32 2.855.3 6.185.324 12.519-1.938 18.372-.82 2.122-1.886 4.03-2.22 6.315-.283 1.942.329 4.267-.63 6.183-.538 1.073-1.199 2.076-1.954 3.022 2.437 3.882 5.12 7.62 7.705 11.436.581.857 1.222 1.757 1.886 2.688h89.868c.761-1.228 1.876-2.326 3.106-3.311" mask="url(#prefix__b)"/>
        </g>
        <g transform="translate(-48 -5) translate(0 44)">
            <mask id="prefix__d" fill="#fff">
                <use xlink:href="#prefix__c"/>
            </mask>
            <path fill="#543122" d="M155.738 13.34c-1.111-4.032-2.632-7.94-4.672-11.632-.721-1.307-1.48-2.604-2.226-3.907h-94c-.243 3.152-.81 6.262-1.947 9.25-.829 2.177-1.905 4.133-2.242 6.475-.288 1.992.332 4.376-.638 6.341-.543 1.1-1.21 2.13-1.974 3.098 2.461 3.982 5.173 7.813 7.787 11.727 3.044 4.56 7.729 10.285 8.817 15.754.16.808.111 1.562-.073 2.272.046.034.104.059.148.095 2.456.415 4.334 1.53 4.871 3.78.208.084.426.148.63.241 5.788 2.65 11.633 5.193 17.924 6.397 5.874 1.127 12.22.47 19.25.57 2.14.029 6.389-.138 8.242 1.885h.196c2.768-1.716 5.826-3.229 9.007-4.472.792-3.25 3.058-6.007 6.134-8.406 4.405-3.436 9.595-6.378 15.118-8.612.621-1.593 1.18-3.207 1.618-4.848.548-2.056 2.134-3.796 3.969-5.288-.073-4.227-.083-8.454-.083-12.678-.001-3.152 1.678-5.805 4.144-8.042" mask="url(#prefix__d)"/>
        </g>
        <g transform="translate(-48 -5) translate(0 84)">
            <mask id="prefix__f" fill="#fff">
                <use xlink:href="#prefix__e"/>
            </mask>
            <path fill="#46291D" d="M59.56-2.723C61.81.66 63.953 4.309 64.643 7.854c.16.824.11 1.592-.074 2.317.048.035.104.061.149.098 2.455.423 4.333 1.56 4.871 3.857.208.086.426.15.63.246 5.79 2.704 11.633 5.299 17.923 6.528 5.875 1.15 12.22.478 19.25.58 2.168.032 6.5-.14 8.312 2.01 2.799-1.78 5.894-3.356 9.122-4.643.794-3.32 3.067-6.134 6.146-8.584 4.406-3.506 9.594-6.509 15.119-8.788.527-1.38.996-2.78 1.394-4.198H59.56z" mask="url(#prefix__f)"/>
        </g>
        <g transform="translate(-48 -5) translate(79 108)">
            <mask id="prefix__h" fill="#fff">
                <use xlink:href="#prefix__g"/>
            </mask>
            <path fill="#392219" d="M8.899.315c2.188.327 4.44.467 6.758.524v-2.817H-1.168C2.099-1.013 5.436-.201 8.899.315" mask="url(#prefix__h)"/>
        </g>
        <g transform="translate(-48 -5) translate(97 106)">
            <mask id="prefix__j" fill="#fff">
                <use xlink:href="#prefix__i"/>
            </mask>
            <path fill="#392219" d="M9.078.251V-2.41H-2.316V.254C1.253.463 5.032.226 9.078.25" mask="url(#prefix__j)"/>
        </g>
        <g transform="translate(-48 -5) translate(116 106)">
            <mask id="prefix__l" fill="#fff">
                <use xlink:href="#prefix__k"/>
            </mask>
            <path fill="#392219" d="M-1.658-2.341v3.444c1.083.217 2.122.673 2.746 1.628C2.743 1.358 4.548.122 6.432-.939v-1.402h-8.09z" mask="url(#prefix__l)"/>
        </g>
        <g transform="translate(-48 -5) translate(50 71)">
            <mask id="prefix__n" fill="#fff">
                <use xlink:href="#prefix__m"/>
            </mask>
            <path fill="#46291D" d="M4.084 5.842h1.187v-7.525H-1.49C.292.86 2.2 3.339 4.084 5.842" mask="url(#prefix__n)"/>
        </g>
        <g transform="translate(-48 -5) translate(54 79)">
            <mask id="prefix__p" fill="#fff">
                <use xlink:href="#prefix__o"/>
            </mask>
            <path fill="#46291D" d="M1.185-1.09C2.388.527 3.847 2.313 5.238 4.182v-6.635H.163c.341.453.684.905 1.022 1.361" mask="url(#prefix__p)"/>
        </g>
        <g transform="translate(-48 -5) translate(59 91)">
            <mask id="prefix__r" fill="#fff">
                <use xlink:href="#prefix__q"/>
            </mask>
            <path fill="#46291D" d="M2.303.642v-1.917h-.775c.323.637.59 1.28.775 1.917" mask="url(#prefix__r)"/>
        </g>
        <g transform="translate(-48 -5) translate(106 71)">
            <mask id="prefix__t" fill="#fff">
                <use xlink:href="#prefix__s"/>
            </mask>
            <path fill="#46291D" d="M-2.502 5.018L5.559 5.018 5.559 -2.036 -2.502 -2.036z" mask="url(#prefix__t)"/>
        </g>
        <g transform="translate(-48 -5) translate(90 77)">
            <mask id="prefix__v" fill="#fff">
                <use xlink:href="#prefix__u"/>
            </mask>
            <path fill="#46291D" d="M-3.297 5.244L6.338 5.244 6.338 -2.549 -3.297 -2.549z" mask="url(#prefix__v)"/>
        </g>
        <g transform="translate(-48 -5) translate(97 59)">
            <mask id="prefix__x" fill="#fff">
                <use xlink:href="#prefix__w"/>
            </mask>
            <path fill="#46291D" d="M-1.238 5.37L2.369 5.37 2.369 -2.334 -1.238 -2.334z" mask="url(#prefix__x)"/>
        </g>
        <g transform="translate(-48 -5) translate(135 66)">
            <mask id="prefix__z" fill="#fff">
                <use xlink:href="#prefix__y"/>
            </mask>
            <path fill="#46291D" d="M-1.707 5.42L4.913 5.42 4.913 -2.493 -1.707 -2.493z" mask="url(#prefix__z)"/>
        </g>
        <g transform="translate(-48 -5) translate(141 82)">
            <mask id="prefix__B" fill="#fff">
                <use xlink:href="#prefix__A"/>
            </mask>
            <path fill="#46291D" d="M3.596 3.77C4.178 2.433 4.701 1.078 5.11-.3c.021-.071.052-.139.076-.209v-1.75h-7.623v6.563H2.13c.483-.19.978-.355 1.466-.534" mask="url(#prefix__B)"/>
        </g>
        <g transform="translate(-48 -5) translate(122 77)">
            <mask id="prefix__D" fill="#fff">
                <use xlink:href="#prefix__C"/>
            </mask>
            <path fill="#46291D" d="M-2.355 2.278L4.349 2.278 4.349 -1.405 -2.355 -1.405z" mask="url(#prefix__D)"/>
        </g>
        <g transform="translate(-48 -5) translate(67 16)">
            <mask id="prefix__F" fill="#fff">
                <use xlink:href="#prefix__E"/>
            </mask>
            <path fill="#543122" d="M3.235.125C1.712 1.355-.015 2.495-1.88 3.51v1.332h6.896V-.355c-.593.175-1.187.334-1.781.48" mask="url(#prefix__F)"/>
        </g>
        <g transform="translate(-48 -5) translate(75 35)">
            <mask id="prefix__H" fill="#fff">
                <use xlink:href="#prefix__G"/>
            </mask>
            <path fill="#543122" d="M-2.567 6.416L5.057 6.416 5.057 -3.428 -2.567 -3.428z" mask="url(#prefix__H)"/>
        </g>
        <g transform="translate(-48 -5) translate(56 26)">
            <mask id="prefix__J" fill="#fff">
                <use xlink:href="#prefix__I"/>
            </mask>
            <path fill="#543122" d="M1.48 1.727C1.024 2.44.463 3.1-.168 3.719c-.003.095-.015.187-.017.283-.001.021-.008.041-.01.064H4.45v-6.547h-.358C3.234-1.071 2.369.336 1.48 1.727" mask="url(#prefix__J)"/>
        </g>
        <g transform="translate(-48 -5) translate(105 21)">
            <mask id="prefix__L" fill="#fff">
                <use xlink:href="#prefix__K"/>
            </mask>
            <path fill="#543122" d="M-2.576 4.855L5.485 4.855 5.485 -1.918 -2.576 -1.918z" mask="url(#prefix__L)"/>
        </g>
        <g transform="translate(-48 -5) translate(86 27)">
            <mask id="prefix__N" fill="#fff">
                <use xlink:href="#prefix__M"/>
            </mask>
            <path fill="#543122" d="M-2.416 5.051L4.437 5.051 4.437 -2.431 -2.416 -2.431z" mask="url(#prefix__N)"/>
        </g>
        <g transform="translate(-48 -5) translate(97 7)">
            <mask id="prefix__P" fill="#fff">
                <use xlink:href="#prefix__O"/>
            </mask>
            <path fill="#543122" d="M1.982-1.46c-.804 0-2.219.07-3.254-.787l-.006.01v7.493H2.33v-6.737c-.115.005-.232.02-.347.02" mask="url(#prefix__P)"/>
        </g>
        <g transform="translate(-48 -5) translate(110 29)">
            <mask id="prefix__R" fill="#fff">
                <use xlink:href="#prefix__Q"/>
            </mask>
            <path fill="#543122" d="M-2.619 5.26L5.364 5.26 5.364 -2.486 -2.619 -2.486z" mask="url(#prefix__R)"/>
        </g>
        <g transform="translate(-48 -5) translate(115 40)">
            <mask id="prefix__T" fill="#fff">
                <use xlink:href="#prefix__S"/>
            </mask>
            <path fill="#543122" d="M-1.269 4.316L2.366 4.316 2.366 -2.022 -1.269 -2.022z" mask="url(#prefix__T)"/>
        </g>
        <g transform="translate(-48 -5) translate(102 36)">
            <mask id="prefix__V" fill="#fff">
                <use xlink:href="#prefix__U"/>
            </mask>
            <path fill="#543122" d="M-1.095 2.106L2.343 2.106 2.343 -1.288 -1.095 -1.288z" mask="url(#prefix__V)"/>
        </g>
        <g transform="translate(-48 -5) translate(143 25)">
            <mask id="prefix__X" fill="#fff">
                <use xlink:href="#prefix__W"/>
            </mask>
            <path fill="#543122" d="M.352 4.138C.175 2.83.426 1.688.93.658-.219-.409-1.323-1.527-2.427-2.645h-.084v8.312H.623c-.106-.504-.202-1.01-.27-1.529" mask="url(#prefix__X)"/>
        </g>
        <path fill="#BB997F" d="M123.43 31.214c-1.22-1.891-.995-2.394-1.677-2.34-2.058.16-5.825 5.177-12.45 10.397-.587.462-3.55 2.457-9.453 6.428-10.06 6.769-11.788 7.875-11.584 8.487.596 1.789 16.399-4.495 18.3-2.149 1.632 2.016-8.97 7.962-14.376 17.576-1.577 2.804-2.245 5.092-2.557 6.712.352 1.321.972 2.539 1.807 3.655.738.988 1.513 1.988 2.776 2.7 1.152.648 2.412 1.22 3.358 1.987.362.125.716.263 1.039.425.29.07.572.147.836.234 1.464.483 2.65 1.243 3.41 2.173.033.003.062.01.073.032.006.007.019.006.022.011l.006.015c.02.009.048.009.061.022.278.268.493.567.663.887.036.007.059.022.06.049.005.034.01.067.013.101.025.053.052.103.076.156.014.034-.005.074-.043.115l.01.084c.05.112.096.227.13.348.147.504.199 1.044.216 1.593.002.045-.04.096-.097.149.019.244.033.49.033.74 0 .486-.038.984-.163 1.503-.054.225-.118.455-.16.68v.018c.012.104.003.214-.024.329l.062.144c.005.01-.003.022-.004.033.168.465.13 1.01-.244 1.596-.393.616-1.147 1.162-1.92 1.7-.95.662-1.735 1.329-2.48 2.053-.003.004-.008.006-.012.01-.027.083-.016.143.05.17.422.169 2.852-.97 3.83-1.463.5-.25.838-.42 1.268-.692 1.145-.721 1.864-1.478 2.427-2.07l.434-.459c.741-.84 1.076-1.463 1.305-1.8 1.97-2.89 3.091-4.522 3.237-6.503.2-2.706-1.497-4.071-1.86-4.35-2.128-1.625-4.092-.769-6.959-2.194-3.705-1.842-2.984-5.376-2.79-6.523.478-2.835 2.4-5.406 3.236-6.504 1.402-1.842 2.152-2.316 8.334-8.658 2.208-2.265 3.311-3.398 4.166-4.328 1.884-2.052 3.88-4.37 5.461-6.291.622-1.52 1.955-3.147 2.95-4.732 1.183-1.885 1.06-3.361 1.228-4.986.124-1.203.061-2.333.116-3.512.008-.181.031-.368.049-.552l-1.025-1.612c-.314-.383-.731-.922-1.165-1.594z" transform="translate(-48 -5)"/>
        <path fill="#8C5932" d="M96.85 52.98c4.002-.456 9.33-1.565 12.596-2.6 5.196-1.648 7.786-3.508 10.263-5.499 1.858-1.493 4.1-3.962 4.615-5.23.548-1.347.486-2.667.486-2.667s.065-1.311-.439-2.672c-.42-1.138-2.69-3.755-4.522-5.261-2.442-2.009-5-3.887-10.166-5.571-3.248-1.059-8.556-2.205-12.55-2.69-.848-.143-1.718-.222-2.606-.225-8.909-.031-16.195 7.246-16.274 16.254-.08 9.008 7.078 16.336 15.986 16.367.889.003 1.76-.07 2.61-.206" transform="translate(-48 -5)"/>
        <path fill="#99663F" d="M112.647 46.874c.694 1.45 5.014-2.201 5.696-2.874 1.712-1.688 4.998-5.415 5.406-6.726.433-1.395.25-2.71.25-2.71s-.053-1.316-.687-2.634c-.53-1.102-3.069-3.525-5.062-4.874-2.658-1.8-5.421-3.46-10.812-4.703-3.389-.781-8.874-1.474-12.967-1.617-.872-.07-2.158-.084-2.662-.002-1.86.302-3.377.468-5.581 1.462-3.177 1.432-.125.867-.5 2.098-.419 1.374-3.029 6.374-2.578 9.5.661 4.586 5.99 8.605 15.917 8.296 4.272-.134 13.916-2.671 14.707 1.202.337 1.655-1.388 3.034-1.127 3.582z" transform="translate(-48 -5)"/>
        <path fill="#9F7556" d="M90.067 31.095s-.448-2.373.977-3.679c1.425-1.304 6.21-1.498 8.554-1.39 2.345.105 7.51.459 8.375.748.864.289 1.102 1 1.008 1.407-.094.406-.226.63-.802.866-.576.235-3.762.812-4.338 1.047-.576.235-4.498 1.565-4.97 1.872-.471.306-3.419 1.594-4.08 1.85-.661.255-2.628.25-3.404-.044-.776-.293-1.32-2.677-1.32-2.677M114.47 29.079c1.211-.42 5.208.908 4.43 2.337-.38.7-2.674.707-3.311.357-.638-.35-2.433-2.24-1.12-2.694" transform="translate(-48 -5)"/>
    </g>
</svg>
