<svg xmlns="http://www.w3.org/2000/svg" width="47" height="80" viewBox="0 0 47 80">
    <g fill="none" fill-rule="evenodd">
        <path fill="#BB997F" d="M42.712 15.527c-1.186-1.99-1.033-2.476-1.61-2.476-1.743.001-4.568 4.74-9.814 9.458-.465.417-2.837 2.188-7.565 5.712-8.055 6.005-9.444 6.98-9.222 7.61.646 1.838 13.637-3.237 15.44-.739 1.548 2.146-7.034 7.286-10.9 16.504-1.128 2.688-1.521 4.93-1.662 6.529a13.884 13.884 0 001.824 3.803c.706 1.047 1.444 2.109 2.577 2.92 1.032.739 2.151 1.41 3.017 2.252.318.153.63.319.919.506.253.093.5.192.73.3 1.287.597 2.357 1.45 3.076 2.44.03.007.055.016.066.04.006.007.016.006.02.012l.006.015c.017.01.041.013.054.027.257.29.464.606.634.94.031.01.051.027.055.054l.019.103c.025.054.052.107.076.162.015.035.002.073-.028.111l.015.085c.052.117.1.236.139.359.164.517.25 1.061.307 1.614.005.044-.027.092-.072.14.035.247.067.495.086.746.038.487.043.983-.023 1.493-.028.221-.065.447-.083.669v.018c.02.106.02.215.006.328l.064.15c.005.01-.001.022-.001.032.179.48.19 1.023-.085 1.58-.287.587-.888 1.077-1.506 1.556a13.45 13.45 0 00-1.956 1.866l-.01.009c-.016.08-.002.142.057.174.372.202 2.357-.752 3.153-1.17.407-.212.682-.357 1.027-.595.921-.634 1.476-1.337 1.91-1.887l.335-.426c.567-.786.804-1.383.974-1.703 1.456-2.745 2.286-4.293 2.257-6.268-.04-2.697-1.592-4.196-1.923-4.503-1.94-1.794-3.549-1.087-6.104-2.737-3.303-2.134-2.961-5.62-2.885-6.755.189-2.804 1.63-5.232 2.257-6.268 1.053-1.737 1.657-2.154 6.438-8.032 1.708-2.1 2.561-3.15 3.218-4.016a124.09 124.09 0 004.171-5.883c.413-1.474 1.424-3.002 2.15-4.514.863-1.798.644-3.287.661-4.902.013-1.196-.128-2.334-.172-3.512-.007-.18-.002-.365-.002-.548l-.998-1.696c-.298-.407-.695-.98-1.117-1.687z" transform="translate(-4 -3)"/>
        <path fill="#8C5932" d="M22.728 36.229c4.002-.456 9.33-1.565 12.596-2.6 5.196-1.648 7.786-3.508 10.263-5.499 1.858-1.493 4.1-3.962 4.615-5.23.548-1.347.485-2.667.485-2.667s.066-1.311-.438-2.672c-.421-1.138-2.69-3.755-4.522-5.261-2.443-2.009-5-3.887-10.166-5.571-3.248-1.059-8.556-2.205-12.55-2.69a16.06 16.06 0 00-2.607-.225C11.496 3.783 4.21 11.06 4.131 20.068c-.08 9.008 7.078 16.336 15.986 16.367.889.004 1.76-.07 2.61-.206" transform="translate(-4 -3)"/>
        <path fill="#99663F" d="M39.403 31.372c.694 1.45 5.014-2.201 5.695-2.874 1.712-1.688 4.999-5.415 5.407-6.726.433-1.395.249-2.71.249-2.71s-.053-1.316-.686-2.634c-.53-1.102-3.07-3.525-5.063-4.874-2.658-1.8-5.42-3.46-10.811-4.703-3.39-.781-8.874-1.474-12.967-1.617-.873-.07-2.159-.084-2.663-.002-1.86.302-3.376.468-5.58 1.462-3.177 1.432-.126.868-.5 2.098-.42 1.374-3.03 6.374-2.578 9.5.661 4.586 5.99 8.605 15.917 8.296 4.272-.134 13.916-2.671 14.706 1.202.338 1.655-1.388 3.034-1.126 3.582z" transform="translate(-4 -3)"/>
        <path fill="#9F7556" d="M16.067 14.095s-.448-2.373.977-3.679c1.425-1.304 6.21-1.498 8.554-1.39 2.345.105 7.51.459 8.375.748.864.289 1.102 1 1.008 1.407-.094.406-.226.63-.802.866-.576.235-3.762.812-4.338 1.047-.576.235-4.498 1.565-4.97 1.872-.471.306-3.419 1.594-4.08 1.85-.661.255-2.628.25-3.404-.044-.776-.293-1.32-2.677-1.32-2.677M40.47 11.079c1.211-.42 5.208.908 4.43 2.337-.38.7-2.674.707-3.311.357-.638-.35-2.433-2.24-1.12-2.694" transform="translate(-4 -3)"/>
    </g>
</svg>
