<svg xmlns="http://www.w3.org/2000/svg" xmlns:xlink="http://www.w3.org/1999/xlink" width="106" height="104" viewBox="0 0 106 104">
    <defs>
        <path id="prefix__a" d="M.65 52.035c0 28.443 23.504 51.5 52.5 51.5 28.995 0 52.5-23.057 52.5-51.5S82.145.535 53.15.535C24.154.535.65 23.592.65 52.035z"/>
        <path id="prefix__c" d="M5.198 31.038c1.181.082 2.25 1.692 2.736 2.719.287.605.616 1.421.429 2.124a1.064 1.064 0 01-.305.516c-.354.784-1.284 1.001-2.043 1.001-.099 0-.201-.004-.295-.011-.799-.062-1.405-.396-1.682-1.271a7.117 7.117 0 01-.299-1.528A50.528 50.528 0 00.65 52.035 50.501 50.501 0 006.9 76.426c6.615 1.156 13.312 1.657 20.008 1.657 4.311 0 8.622-.208 12.912-.582 12.433-1.083 23.788-6.767 35.926-9.449a41.863 41.863 0 019.085-.986c3.418 0 6.832.399 10.306 1.106 2.436.495 4.853 1.097 7.263 1.744a50.535 50.535 0 003.25-17.881 50.542 50.542 0 00-2.849-16.779c-.305-.107-.595-.293-.668-.632a1.432 1.432 0 01.109-.882C94.721 14.329 75.578.535 53.15.535c-21.372 0-39.76 12.526-47.952 30.503zm36.431-15.459c-.604-.091-1.605-.318-1.777-1.125-.331-1.536 1.34-2.99 2.359-3.609.424-.259.967-.548 1.484-.548.133 0 .266.019.391.063a.893.893 0 01.456.346c.786.453.924 1.751.872 2.649-.054.906-.347 1.59-1.118 1.904a5.184 5.184 0 01-1.935.373c-.246 0-.491-.018-.732-.053zm-18 14.883c-.333-.048-.883-.173-.982-.619-.182-.847.742-1.648 1.305-1.99.231-.143.53-.303.816-.303.073 0 .147.012.216.036.11.038.191.106.251.191.433.248.511.966.482 1.46-.03.5-.191.879-.616 1.051a2.853 2.853 0 01-1.065.204 2.6 2.6 0 01-.407-.03zm47.759 3.298c-.567-.044-.999-.281-1.195-.902a5.273 5.273 0 01-.198-2.15c.053-.486.196-1.293.705-1.434a.987.987 0 01.25-.033c.869 0 1.661 1.186 2.017 1.937.203.43.438 1.013.304 1.511a.733.733 0 01-.218.367c-.251.56-.911.713-1.45.713-.075 0-.146-.002-.215-.009zM52.634 44.546c-.428-.061-1.141-.223-1.264-.798-.234-1.092.955-2.128 1.68-2.568.302-.183.687-.391 1.056-.391.096 0 .189.015.279.045a.653.653 0 01.324.245c.559.324.657 1.249.619 1.886-.037.647-.246 1.134-.795 1.357a3.684 3.684 0 01-1.375.265c-.176 0-.352-.015-.524-.041zm38.611.823c-.224-.035-.592-.118-.657-.415-.122-.57.495-1.107.873-1.337.157-.097.36-.203.549-.203a.42.42 0 01.145.024l.168.126c.294.17.346.65.326.981-.022.338-.131.589-.414.706a1.933 1.933 0 01-.715.137c-.093 0-.185-.006-.275-.019z"/>
        <path id="prefix__e" d="M38.024 39.409c-10.72 2.13-20.75 6.64-31.732 7.501-1.802.141-3.608.252-5.417.33a51.363 51.363 0 00-.225 4.795c0 19.313 10.839 36.144 26.874 44.959 3.713-1.659 7.501-3.144 11.388-4.368 4.28-1.348 8.82-2.494 13.315-2.582.14-.002.278-.004.418-.004 4.064 0 8.067 1.149 11.884 2.459 4.535 1.556 8.927 3.502 13.477 4.91 16.459-8.694 27.644-25.752 27.644-45.374 0-2.502-.181-4.961-.532-7.367l-.125-.003c-2.803-.077-5.614-.169-8.422-.169-.887 0-1.773.007-2.659.03-3.002.295-5.986.878-8.999.878-.207 0-.416-.003-.622-.007-3.94-.11-7.909-.931-11.746-1.802-5.807-1.323-11.537-3.022-17.395-4.092-3.068-.561-6.083-.875-9.104-.875-2.657 0-5.319.244-8.022.781zm8.304 15.478c-.389-.028-.684-.173-.818-.556a2.94 2.94 0 01-.137-1.323c.039-.299.137-.797.482-.882a.744.744 0 01.173-.021c.595 0 1.137.732 1.379 1.194.139.262.3.622.21.928a.443.443 0 01-.15.226c-.172.343-.625.439-.993.439-.053 0-.1-.001-.146-.005zm50.556 11.031c-.531-.07-1.414-.25-1.566-.891-.292-1.219 1.184-2.372 2.083-2.867.377-.203.857-.433 1.312-.433a1.1 1.1 0 01.343.05.798.798 0 01.404.274c.695.36.817 1.39.771 2.102-.05.721-.306 1.265-.99 1.514a5.074 5.074 0 01-2.357.251zm-38.177 6.688c-.707-.046-1.242-.311-1.486-1.006a5.321 5.321 0 01-.248-2.399c.069-.541.246-1.441.878-1.597.105-.028.209-.04.312-.04 1.076 0 2.058 1.326 2.501 2.162.251.48.541 1.131.376 1.687a.816.816 0 01-.268.41c-.312.622-1.131.793-1.797.793-.093 0-.182-.002-.268-.01zm22.282 5.13c-.294-.038-.782-.139-.865-.493-.161-.672.653-1.309 1.15-1.58.207-.113.471-.239.723-.239.064 0 .128.007.19.027a.446.446 0 01.221.15c.383.199.451.769.426 1.161-.026.397-.171.697-.545.833-.298.11-.623.166-.943.166-.121 0-.239-.01-.357-.025zm-45.358 3.793c-.506-.035-.885-.222-1.06-.717a3.81 3.81 0 01-.175-1.708c.05-.387.175-1.028.623-1.137a.86.86 0 01.222-.028c.767 0 1.466.942 1.78 1.538.179.342.387.805.27 1.201a.6.6 0 01-.192.292c-.223.443-.807.565-1.281.565-.065 0-.129-.003-.187-.006z"/>
        <path id="prefix__g" d="M97.526 62.624c-.643.447-1.695 1.488-1.487 2.587.108.579.739.741 1.119.805a2.946 2.946 0 001.681-.227c.489-.225.672-.716.707-1.366.033-.643-.055-1.572-.55-1.897a.59.59 0 00-.288-.247.647.647 0 00-.245-.044c-.326 0-.669.206-.937.389z"/>
        <path id="prefix__i" d="M66.845 22.303c-1.742.001-4.567 4.739-9.813 9.458-.465.418-2.838 2.188-7.565 5.712-8.056 6.005-9.444 6.98-9.222 7.609.308.878 3.428.181 6.801-.517 3.697-.763 7.697-1.527 8.639-.221 1.548 2.147-7.034 7.286-10.9 16.504-1.128 2.689-1.521 4.93-1.663 6.529a13.912 13.912 0 001.825 3.803c.706 1.047 1.444 2.109 2.576 2.92 1.033.739 2.152 1.41 3.018 2.252.318.153.631.319.919.505.254.094.499.193.731.3 1.286.599 2.356 1.451 3.075 2.442.03.005.055.015.066.039.006.007.016.006.019.012l.007.015c.018.01.041.012.054.027.257.29.463.606.633.94.032.01.053.026.056.054l.019.103c.025.054.052.107.076.162.016.035.001.073-.027.111l.014.085c.052.117.1.236.139.359.164.517.25 1.061.307 1.614.004.044-.027.092-.071.141.035.247.066.494.085.745a7.19 7.19 0 01-.023 1.493c-.028.221-.065.448-.083.669l.001.018c.019.106.02.215.006.328l.063.15c.005.01-.001.022-.001.032a1.94 1.94 0 01-.085 1.581c-.287.586-.889 1.076-1.506 1.555a13.46 13.46 0 00-1.956 1.867.07.07 0 00-.01.008c-.016.081-.002.142.057.174.373.202 2.356-.752 3.154-1.17a8.92 8.92 0 001.026-.595c.92-.634 1.476-1.337 1.91-1.887l.335-.426c.567-.786.805-1.383.974-1.703 1.457-2.745 2.286-4.293 2.257-6.268-.04-2.696-1.591-4.196-1.923-4.503-1.94-1.793-3.549-1.088-6.104-2.738-3.303-2.133-2.961-5.619-2.884-6.754.188-2.804 1.629-5.233 2.256-6.268 1.053-1.737 1.657-2.154 6.438-8.032 1.708-2.1 2.561-3.149 3.219-4.016a124.387 124.387 0 004.17-5.883c.413-1.474 1.424-3.002 2.15-4.514.863-1.798.644-3.287.661-4.902.013-1.196-.128-2.334-.172-3.512-.008-.18-.002-.365-.002-.549l-.998-1.695c-.298-.407-.695-.98-1.117-1.687-1.185-1.988-1.034-2.476-1.609-2.476h-.002z"/>
        <path id="prefix__k" d="M46.09 13.066c-8.882 0-16.136 7.264-16.216 16.254-.08 9.008 7.079 16.335 15.987 16.367.888.003 1.759-.069 2.61-.206 4.002-.457 9.33-1.565 12.597-2.6 5.196-1.647 7.786-3.508 10.263-5.498 1.858-1.494 4.099-3.962 4.615-5.23.547-1.349.485-2.668.485-2.668s.066-1.311-.438-2.672c-.421-1.138-2.691-3.756-4.522-5.261-2.443-2.009-5-3.888-10.166-5.571-3.248-1.059-8.556-2.205-12.55-2.691a16.107 16.107 0 00-2.607-.224h-.058z"/>
        <path id="prefix__m" d="M44.308 14.484c-1.86.302-3.375.469-5.58 1.462-3.177 1.431-.126.867-.501 2.098-.417 1.375-3.028 6.373-2.578 9.501.662 4.585 5.99 8.605 15.918 8.294 4.271-.133 13.916-2.67 14.706 1.203.338 1.655-1.388 3.034-1.126 3.581.693 1.451 5.014-2.2 5.695-2.872 1.712-1.69 4.999-5.416 5.407-6.727.433-1.395.249-2.71.249-2.71s-.053-1.316-.687-2.634c-.529-1.102-3.068-3.524-5.062-4.875-2.657-1.799-5.421-3.459-10.812-4.701-3.388-.782-8.873-1.474-12.965-1.618a20.36 20.36 0 00-1.544-.059c-.464 0-.88.018-1.12.057z"/>
        <path id="prefix__o" d="M42.787 19.669c-1.424 1.305-.977 3.678-.977 3.678s.545 2.384 1.321 2.677c.776.293 2.743.299 3.404.043.661-.255 3.608-1.544 4.081-1.85.471-.306 4.393-1.636 4.969-1.871.576-.236 3.762-.812 4.338-1.047.576-.235.709-.459.802-.866.094-.408-.145-1.119-1.008-1.408-.865-.289-6.03-.641-8.374-.748a26.246 26.246 0 00-1.187-.025c-2.505 0-6.154.305-7.369 1.417z"/>
        <path id="prefix__q" d="M66.214 20.33c-1.315.456.481 2.346 1.118 2.695.637.349 2.933.342 3.312-.356.679-1.247-2.276-2.417-3.845-2.417-.231 0-.431.025-.585.078z"/>
    </defs>
    <g fill="none" fill-rule="evenodd" transform="translate(.256 -.252)">
        <mask id="prefix__b" fill="#fff">
            <use xlink:href="#prefix__a"/>
        </mask>
        <path fill="#7A4E30" d="M-26.808 124.774L130.256 124.774 130.256 -24.956 -26.808 -24.956z" mask="url(#prefix__b)"/>
        <mask id="prefix__d" fill="#fff">
            <use xlink:href="#prefix__c"/>
        </mask>
        <path fill="#382419" d="M-25.163 89.451L130.308 89.451 130.308 -25 -25.163 -25z" mask="url(#prefix__d)"/>
        <mask id="prefix__f" fill="#fff">
            <use xlink:href="#prefix__e"/>
        </mask>
        <path fill="#543122" d="M-27 127.121L129.969 127.121 129.969 23.25 -27 23.25z" mask="url(#prefix__f)"/>
        <mask id="prefix__h" fill="#fff">
            <use xlink:href="#prefix__g"/>
        </mask>
        <path fill="#46291D" d="M86.698 76.088L108.864 76.088 108.864 52.199 86.698 52.199z" mask="url(#prefix__h)"/>
        <mask id="prefix__j" fill="#fff">
            <use xlink:href="#prefix__i"/>
        </mask>
        <path fill="#B9977F" d="M23.563 35.144L70.508 15.217 97.469 78.732 50.523 98.659z" mask="url(#prefix__j)"/>
        <mask id="prefix__l" fill="#fff">
            <use xlink:href="#prefix__k"/>
        </mask>
        <path fill="#8A5932" d="M30.299 3.504L84.862 16.101 75.191 57.999 20.625 45.402z" mask="url(#prefix__l)"/>
        <mask id="prefix__n" fill="#fff">
            <use xlink:href="#prefix__m"/>
        </mask>
        <path fill="#97663F" d="M33.236 7.118L83.74 14.216 79.007 47.885 28.504 40.787z" mask="url(#prefix__n)"/>
        <mask id="prefix__p" fill="#fff">
            <use xlink:href="#prefix__o"/>
        </mask>
        <path fill="#9D7556" d="M36.744 31.252L65.744 31.252 65.744 13.252 36.744 13.252z" mask="url(#prefix__p)"/>
        <mask id="prefix__r" fill="#fff">
            <use xlink:href="#prefix__q"/>
        </mask>
        <path fill="#9D7556" d="M60.744 28.252L75.744 28.252 75.744 15.252 60.744 15.252z" mask="url(#prefix__r)"/>
    </g>
</svg>
