<svg xmlns="http://www.w3.org/2000/svg" xmlns:xlink="http://www.w3.org/1999/xlink" width="106" height="104" viewBox="0 0 106 104">
    <defs>
        <path id="prefix__a" d="M.65 52.035c0 28.443 23.505 51.5 52.5 51.5s52.5-23.057 52.5-51.5S82.145.535 53.15.535.65 23.592.65 52.035z"/>
        <path id="prefix__c" d="M5.198 31.038c1.183.083 2.25 1.693 2.736 2.719.287.605.617 1.421.429 2.124a1.064 1.064 0 01-.305.516c-.353.784-1.284 1.001-2.043 1.001-.099 0-.201-.004-.296-.011-.798-.062-1.404-.396-1.681-1.271a7.088 7.088 0 01-.3-1.526A50.558 50.558 0 00.65 52.035 50.501 50.501 0 006.9 76.426c6.615 1.156 13.311 1.657 20.009 1.657 4.31 0 8.621-.208 12.911-.582 12.434-1.083 23.788-6.767 35.926-9.449a41.87 41.87 0 019.085-.986c3.417 0 6.832.399 10.305 1.106 2.436.495 4.854 1.098 7.263 1.743a50.503 50.503 0 003.251-17.88 50.567 50.567 0 00-2.849-16.779c-.306-.107-.595-.293-.667-.632a1.428 1.428 0 01.108-.881C94.72 14.33 75.578.535 53.15.535c-21.371 0-39.76 12.526-47.952 30.503zm36.43-15.459c-.603-.091-1.604-.318-1.776-1.125-.331-1.536 1.339-2.99 2.36-3.609.423-.259.965-.548 1.483-.548.134 0 .265.019.39.063.202.068.35.191.458.346.784.453.922 1.751.872 2.649-.055.906-.348 1.59-1.119 1.904a5.18 5.18 0 01-1.935.373c-.246 0-.491-.018-.733-.053zm-18 14.883c-.333-.048-.883-.173-.981-.619-.181-.847.741-1.648 1.304-1.99.233-.143.531-.303.817-.303.074 0 .146.012.216.036.11.038.191.106.251.191.434.248.511.966.481 1.46-.028.5-.19.879-.615 1.051a2.857 2.857 0 01-1.065.204 2.63 2.63 0 01-.408-.03zm47.761 3.298c-.568-.044-.999-.281-1.196-.902a5.273 5.273 0 01-.198-2.15c.054-.486.196-1.293.705-1.434a.993.993 0 01.25-.033c.869 0 1.661 1.186 2.016 1.937.205.43.439 1.013.305 1.511a.739.739 0 01-.217.367c-.251.56-.913.713-1.451.713-.075 0-.146-.002-.214-.009zM52.635 44.546c-.429-.061-1.143-.223-1.264-.798-.236-1.092.955-2.128 1.678-2.568.303-.183.689-.391 1.057-.391.095 0 .189.015.279.045a.649.649 0 01.324.245c.559.324.658 1.249.619 1.886-.038.647-.246 1.134-.795 1.357a3.688 3.688 0 01-1.375.265c-.176 0-.352-.015-.523-.041zm38.609.823c-.223-.035-.591-.118-.656-.415-.121-.57.495-1.107.872-1.337.158-.097.36-.203.55-.203.05 0 .099.007.145.024l.168.126c.294.17.345.65.326.981-.021.338-.131.589-.414.706a1.935 1.935 0 01-.991.118z"/>
        <path id="prefix__e" d="M38.024 39.409c-10.72 2.13-20.75 6.64-31.731 7.501-1.802.141-3.609.252-5.418.33a51.363 51.363 0 00-.225 4.795c0 19.313 10.839 36.144 26.874 44.959 3.714-1.659 7.5-3.144 11.388-4.368 4.28-1.348 8.82-2.494 13.315-2.582.14-.002.279-.004.418-.004 4.065 0 8.067 1.149 11.884 2.459 4.534 1.556 8.927 3.502 13.477 4.91 16.459-8.694 27.644-25.752 27.644-45.374 0-2.502-.182-4.961-.533-7.367l-.123-.003c-2.804-.077-5.614-.169-8.423-.169-.887 0-1.772.007-2.659.03-3.002.295-5.987.878-8.999.878-.207 0-.417-.003-.622-.007-3.94-.11-7.908-.931-11.747-1.802-5.807-1.323-11.537-3.022-17.394-4.092-3.067-.561-6.084-.875-9.104-.875a40.96 40.96 0 00-8.022.781zm8.304 15.478c-.389-.028-.684-.173-.819-.556a2.969 2.969 0 01-.137-1.323c.04-.299.137-.797.483-.882a.737.737 0 01.173-.021c.594 0 1.136.732 1.379 1.194.14.262.3.622.21.928a.461.461 0 01-.149.226c-.172.343-.627.439-.995.439-.051 0-.099-.001-.145-.005zm50.557 11.031c-.532-.07-1.416-.25-1.567-.891-.292-1.219 1.183-2.372 2.083-2.867.377-.203.856-.433 1.313-.433.117 0 .231.014.342.05a.806.806 0 01.405.274c.693.36.816 1.39.77 2.102-.05.721-.306 1.265-.989 1.514a5.036 5.036 0 01-2.357.251zm-38.177 6.688c-.709-.046-1.242-.311-1.488-1.006a5.335 5.335 0 01-.247-2.399c.07-.541.245-1.441.877-1.597.105-.028.211-.04.312-.04 1.077 0 2.059 1.326 2.501 2.162.251.48.541 1.131.377 1.687a.822.822 0 01-.268.41c-.312.622-1.131.793-1.798.793-.093 0-.182-.002-.266-.01zm22.281 5.13c-.294-.038-.781-.139-.865-.493-.16-.672.653-1.309 1.15-1.58.207-.113.471-.239.723-.239a.61.61 0 01.19.027.446.446 0 01.221.15c.384.199.451.769.426 1.161-.026.397-.171.697-.545.833-.298.11-.622.166-.943.166-.121 0-.239-.01-.357-.025zm-45.357 3.793c-.506-.035-.886-.222-1.061-.717a3.796 3.796 0 01-.175-1.708c.049-.387.175-1.028.623-1.137a.855.855 0 01.222-.028c.768 0 1.465.942 1.78 1.538.179.342.387.805.269 1.201a.59.59 0 01-.19.292c-.225.443-.809.565-1.282.565-.066 0-.129-.003-.186-.006z"/>
        <path id="prefix__g" d="M97.526 62.624c-.643.447-1.694 1.488-1.486 2.587.107.579.738.741 1.118.805a2.95 2.95 0 001.682-.227c.487-.225.67-.716.705-1.366.033-.643-.054-1.572-.549-1.897a.598.598 0 00-.289-.247.646.646 0 00-.244-.044c-.325 0-.668.206-.937.389z"/>
        <path id="prefix__i" d="M56.846 33.535c-2.355 1.799-2.245 4.772-1.927 10.649.204 3.748.693 6.073-1.283 7.098-.668.345-.823.113-3.567.489 0 0-5.814.755-9.533 2.849-.181.102-.657.371-.6.467.065.108.784-.053 1.188-.164 1.16-.317 1.81-.785 2.389-1.098 1.775-.957 4.315-1.235 5.946-.816.624.161 1.123.29 1.177.607.124.71-2.113 1.472-7.175 4.063-2.113 1.082-3.01 1.608-4.777 2.194-3.083 1.024-4.372.755-4.756.654a.622.622 0 00-.045-.012c.035.017.069.031.104.045.335.127.12.063-.065-.001-.16-.056-.297-.11-.039-.044-.9-.432-1.928-2.002-4.452-.687-1.095.571-2.835.737-3.814 1.071-1.404.48-3.132 1.086-3.587 2.031-.082.168.95-.158 1.68-.566.64-.355.842-.491 1.05-.605.49-.269 1.376-.61 3.099-.872.053-.011.138-.026.235-.043.699-.117 2.48-.369 3.456.009.64.248.646.495 1.179.608.438.092.915-.038 1.338-.169.438-.135.819-.271 1.041-.159.265.136.1.528-.012.771-.756 1.646-1.42 3.09-3.619 4.344-1.277.727-1.388.43-2.387 1.097-1.749 1.165-2.173 2.581-2.421 3.408-.214.711-.055.763-.01.771.25.05.967-.423 1.199-.934.163-.361-.049-.451.012-.77.034-.19.209-.719 2.396-1.868 1.357-.711 1.607-.676 2.388-1.098 1.986-1.069 1.764-2.051 3.611-3.572.326-.27 1.42-.86 3.586-2.031 2.936-1.583 4.404-2.376 5.976-3.127 3.433-1.641 3.291-1.296 4.779-2.196 1.001-.607 1.684-1.138 2.388-1.097.771.045 1.198.756 1.168 1.378-.023.464-.314 1.182-2.41 2.638-1.438.999-1.818 1.02-5.976 3.129-2.567 1.302-4.592 2.394-5.965 2.358-.132-.004-.628-.027-1.19.162-.733.249-1.326.778-1.199.935.163.2 1.579-.136 2.378-.327.636-.151.977-.266 1.189-.163.257.125.182.5-.012.771-.405.57-1.399.757-2.386 1.097-1.806.621-1.273.954-4.789 2.965-.432.248-.833.466-1.183.686-.564.354 3.497-1.329 4.76-1.947.494-.241 1.125-.526 2.389-1.098 2.001-.903 2.012-.872 2.389-1.097 1.298-.773 1.11-1.102 2.398-1.867 1.121-.665 1.26-.415 2.39-1.097a14.008 14.008 0 002.397-1.868c.564-.549.786-.874 1.2-.934.606-.089 1.067.471 1.179.607.98 1.194.155 3.204-1.254 4.787-.78.879-1.73 1.533-3.597 2.802-2.441 1.659-3.263 1.965-4.788 2.966-4.015 2.634-6.753 6.578-6.017 6.21.11-.056 1.478-2.078 2.285-2.427 2.733-1.182 1.644-1.188 3.169-2.289 3.17-2.293 4.984-3.169 5.243-3.032.076.04-2.3 2.143-3.522 3.685-.831 1.049-1.033 1.285-1.21 1.705-.229.54-1.339 1.454-2.445 2.255a40.566 40.566 0 001.771-1.304c.673-.525 2.12-1.685 2.12-1.685s.412-.204.942-.364c.024-.007.027-.008.033-.007.317.012-2.495 3.998-2.162 3.814.628-.348 3.083-5.08 3.355-6.074.319-1.169 1.93-2.583 3.593-3.009.463-.12.814-.21 1.19-.163 2.194.266 3.159 4.918-.106 7.705-1.103.941-2.996 1.932-3.61 3.573-.041.11-.263.722-.01.77.29.056.998-.672 1.73-1.4.729-.724 1.48-1.447 1.869-1.402.753.09-1.123 2.945-.085 6.165.1.306.468 1.468.931 2.908.991 3.095 2.406 7.481 2.5 7.51l.003-.001c.006-.004.002-.043-.014-.119-.283-1.366-.413-2.055.031-2.311.183-.105.411-1.675.495-3.396.081-1.726.016-3.604-.39-4.311-1.497-2.605.011-6.054 1.275-6.327.52-.113 1.13.329 2.356 1.214.875.632 1.304 1.137 2.356 1.215.106.007.958.071 1.19-.163.47-.477-2.022-1.814-2.347-1.986-2.096-1.11-3.026-.982-3.535-1.821-.33-.547-.119-.903.033-2.312.196-1.861-.691-2.649.041-3.083.329-.195.892-.288 1.189-.163.783.331-.929 1.923-.043 3.083.337.439.959.703 1.181.607.422-.186-.868-1.619.028-2.312.522-.401 1.637-.446 2.38-.327.325.052 1.007.205 2.388 1.871.334.403.706.893 1.127 1.492.265.38.569.833 1.166 1.379.799.728 1.375 1.234 2.356 1.215.511-.012.417-.814.012-.773-.482.051-.675-.972-1.159-2.147 0 0-.081-.2-.242-.531a17.954 17.954 0 00-.913-1.618 58.142 58.142 0 01-.29-.454c-.776-1.201-1.333-1.998-2.078-2.468a3.32 3.32 0 00-1.147-.442c-.62-.119-1.157-.089-1.657-.059-.658.041-1.255.08-1.9-.22-.667-.311-1.229-7.164-1.083-7.543.79-2.053 1.777-2.932 2.422-3.41.229-.17 1.733-1.266 2.387-1.097.848.221-1.169 2.206-.053 3.854.466.686 1.009.628 2.346 1.985.432.438.878.893 1.167 1.378 1.226 2.058 2.236 7.524 3.463 7.216.361-.091-.755-5.216-1.107-6.001-.172-.39-.5-1.123.022-1.542.395-.316 2.38.309 4.326.934 1.733.556 3.435 1.113 3.955 1.005.029-.007.042-.018.041-.034l-.002-.007c-.127-.437-8.998-3.857-9.477-4.046-2.302-.917-2.43-3.801-1.126-4.461.415-.21.938-.177 1.189-.164.832.051.891.422 2.358 1.215.433.234 1.177.608 1.177.608s.836.066 1.191-.163c.302-.197.315-.652.008-.771-.171-.067-.369.002-.591.07-.183.057-.382.114-.597.094-.711-.069-.378-.867-1.168-1.378-.323-.21-.456-.125-2.366-.445-1.507-.251-1.289-.282-2.368-.444-1.615-.242-2.038-.164-2.368-.443-.552-.469-.095-1.311.022-1.542 1.218-2.424-.6-6.455.157-11.558 1.02-6.862 5.875-10.133 3.715-11.278-.407-.216-.985-.315-1.66-.315-2.028 0-4.93.897-6.672 2.228zM37.139 79.413c.05.015 1.245-.723 2.446-1.592-1.502 1.044-2.488 1.579-2.446 1.592z"/>
        <path id="prefix__k" d="M34.774 34.877c-.497 7.439 5.296 13.862 12.939 14.346.763.049 1.514.034 2.25-.035 3.457-.172 8.082-.814 10.934-1.503 4.538-1.093 6.849-2.497 9.071-4.015 1.665-1.139 3.777-3.169 4.208-4.085a6.04 6.04 0 00.545-2.179s.136-1.087-.249-2.231c-.363-1.076-2.13-3.241-3.631-4.581-2-1.785-4.105-3.469-8.459-5.126-2.737-1.041-7.237-2.262-10.641-2.867a14.24 14.24 0 00-2.227-.32c-.308-.02-.612-.029-.916-.029-7.249 0-13.347 5.483-13.824 12.625z"/>
        <path id="prefix__m" d="M60.965 25.382c-.192.476 1.133 1.642.898 3.075-.55 3.352-7.891 1.294-11.13 1.237-7.527-.133-11.515 3.408-11.959 7.373-.303 2.704 1.738 6.981 2.072 8.16.299 1.057-2.019.612.405 1.804 1.683.828 2.834.95 4.247 1.186.385.063 1.358.034 2.019-.038 3.1-.18 7.249-.852 9.806-1.572.816-.23 3.096-.945 5.1-2.079 1.117-.632 1.676-.948 2.221-1.514.136-.142.529-.501 1.314-1.217.372-.341.696-.628 1.117-.596.238.017.425.13.546.224.358.153.592.35.739.504.301.311.37.563.705.789 0 0 .239.163.547.225.701.142 2.573-1.636 3.023-3.676 1.001-4.537-5.178-9.698-7.319-11.483-1.644-1.374-3.441-2.532-4.105-2.532-.126 0-.21.041-.246.13z"/>
        <path id="prefix__o" d="M42.704 38.763c-.756.333-.96 2.274-.96 2.274s-.104 1.921 1.562 2.756c1.666.834 6.628.352 9.03-.042 2.402-.395 7.677-1.356 8.524-1.696.846-.342.985-.931.828-1.238-.158-.306-.329-.464-.958-.572-.63-.108-4.001-.139-4.63-.247-.631-.108-4.874-.632-5.406-.81-.535-.178-3.766-.797-4.486-.909a2.985 2.985 0 00-.438-.027c-.902 0-2.432.231-3.066.511z"/>
        <path id="prefix__q" d="M64.51 38.936c-.839.65-2.948 3.849-.893 4.278 1.897.396 7.398-2.388 5.858-4.39-.317-.411-1.096-.572-1.955-.572-1.187 0-2.524.306-3.01.684z"/>
    </defs>
    <g fill="none" fill-rule="evenodd" transform="translate(.256 -.252)">
        <mask id="prefix__b" fill="#fff">
            <use xlink:href="#prefix__a"/>
        </mask>
        <path fill="#7A4E30" d="M-26.808 124.774L130.256 124.774 130.256 -24.956 -26.808 -24.956z" mask="url(#prefix__b)"/>
        <mask id="prefix__d" fill="#fff">
            <use xlink:href="#prefix__c"/>
        </mask>
        <path fill="#382419" d="M-25.163 89.451L130.308 89.451 130.308 -25 -25.163 -25z" mask="url(#prefix__d)"/>
        <mask id="prefix__f" fill="#fff">
            <use xlink:href="#prefix__e"/>
        </mask>
        <path fill="#543122" d="M-27 127.121L129.969 127.121 129.969 23.25 -27 23.25z" mask="url(#prefix__f)"/>
        <mask id="prefix__h" fill="#fff">
            <use xlink:href="#prefix__g"/>
        </mask>
        <path fill="#46291D" d="M86.698 76.088L108.864 76.088 108.864 52.199 86.698 52.199z" mask="url(#prefix__h)"/>
        <mask id="prefix__j" fill="#fff">
            <use xlink:href="#prefix__i"/>
        </mask>
        <path fill="#D0A688" d="M12.05 35.175L73.109 24.409 85.438 94.329 24.38 105.096z" mask="url(#prefix__j)"/>
        <mask id="prefix__l" fill="#fff">
            <use xlink:href="#prefix__k"/>
        </mask>
        <path fill="#8B5932" d="M29.744 54.252L79.744 54.252 79.744 17.252 29.744 17.252z" mask="url(#prefix__l)"/>
        <mask id="prefix__n" fill="#fff">
            <use xlink:href="#prefix__m"/>
        </mask>
        <path fill="#98663F" d="M33.744 53.252L77.744 53.252 77.744 20.252 33.744 20.252z" mask="url(#prefix__n)"/>
        <mask id="prefix__p" fill="#fff">
            <use xlink:href="#prefix__o"/>
        </mask>
        <path fill="#9E7556" d="M36.744 49.252L66.744 49.252 66.744 33.252 36.744 33.252z" mask="url(#prefix__p)"/>
        <mask id="prefix__r" fill="#fff">
            <use xlink:href="#prefix__q"/>
        </mask>
        <path fill="#9E7556" d="M57.744 48.252L74.744 48.252 74.744 33.252 57.744 33.252z" mask="url(#prefix__r)"/>
    </g>
</svg>
