<svg xmlns="http://www.w3.org/2000/svg" xmlns:xlink="http://www.w3.org/1999/xlink" width="54" height="73" viewBox="0 0 54 73">
    <defs>
        <path id="a" d="M0 0h52v61H0z"/>
    </defs>
    <g fill="none" fill-rule="evenodd">
        <g transform="rotate(-10 95.08 30.785)">
            <mask id="b" fill="#fff">
                <use xlink:href="#a"/>
            </mask>
            <path fill="#D2A88A" d="M35.653 11.316c-.45 3.727-.372 6.101-2.496 6.768-.717.224-.83-.031-3.598-.137 0 0-5.856-.267-9.883 1.15-.195.068-.712.25-.671.355.045.118.78.085 1.198.045 1.198-.11 1.919-.458 2.543-.666 1.914-.635 4.464-.467 5.998.228.585.268 1.055.48 1.053.803-.002.72-2.336 1.082-7.771 2.755-2.27.698-3.245 1.061-5.087 1.331-3.213.473-4.436-.015-4.796-.182-.626-.29.64.392.052.043-.85-.505-1.54-2.402-4.36-1.511-1.176.371-2.92.233-3.94.392-1.468.228-3.274.525-3.887 1.377-.11.151.963.009 1.754-.265.691-.239.913-.339 1.138-.414.53-.18 1.46-.362 3.203-.322h.24c.709.006 2.505.067 3.402.609.587.354.55.6 1.055.802.846.341 2.008-.203 2.4.091.238.18.006.537-.146.758-1.03 1.489-1.935 2.796-4.318 3.649-1.384.494-1.443.182-2.542.665-1.925.844-2.588 2.166-2.976 2.937-.333.663-.186.741-.144.757.238.093 1.027-.25 1.343-.711.224-.327.031-.454.146-.757.066-.181.33-.672 2.685-1.423 1.459-.465 1.7-.387 2.543-.666 2.14-.708 2.091-1.714 4.175-2.891.368-.21 1.547-.601 3.885-1.378 3.166-1.05 4.748-1.576 6.428-2.043 3.664-1.019 3.465-.703 5.088-1.331 1.09-.424 1.855-.83 2.541-.666.752.178 1.048.952.911 1.56-.102.452-.515 1.11-2.831 2.18-1.59.734-1.968.688-6.428 2.043-2.755.836-4.938 1.56-6.285 1.286-.129-.026-.613-.136-1.2-.046-.764.117-1.44.535-1.343.712.125.225 1.58.14 2.4.09.652-.038 1.007-.092 1.198.047.231.167.093.524-.145.757-.5.49-1.51.502-2.542.665-1.886.298-1.418.719-5.23 2.09-.469.167-.901.314-1.284.469-.616.251 3.674-.702 5.026-1.09.528-.152 1.2-.323 2.543-.667 2.127-.542 2.132-.51 2.543-.665 1.414-.536 1.285-.894 2.687-1.423 1.218-.46 1.312-.19 2.543-.665.618-.24 1.656-.72 2.685-1.423.65-.444.926-.724 1.343-.712.613.018.97.65 1.057.803.758 1.346-.405 3.182-2.066 4.496-.92.73-1.97 1.209-4.03 2.135-2.691 1.21-3.554 1.368-5.23 2.089-4.411 1.897-7.792 5.305-7.003 5.07.117-.035 1.816-1.788 2.67-1.992 2.897-.69 1.826-.885 3.518-1.705 3.522-1.706 5.46-2.255 5.691-2.074.067.052-2.637 1.71-4.108 3.017-1 .89-1.24 1.086-1.488 1.468-.665 1.03-5.396 2.986-5.484 2.94-.054-.027 1.919-.67 4.656-2.12.753-.4 2.38-1.291 2.38-1.291s.442-.13.991-.194c.024-.003.028-.003.033-.002.31.066-3.152 3.504-2.791 3.38.68-.233 3.919-4.467 4.359-5.398.517-1.096 2.35-2.208 4.06-2.34.478-.037.839-.065 1.2.046 2.115.644 2.257 5.392-1.442 7.57-1.249.735-3.285 1.383-4.175 2.891-.059.102-.385.666-.144.757.551.209 3.28-2.36 4.03-2.134.727.22-1.617 2.706-1.152 6.056.044.32.205 1.527.41 3.026.482 3.53 1.196 8.681 1.17 7.71-.043-1.395-.051-2.096.43-2.271.199-.072.696-1.578 1.077-3.259.38-1.685.643-3.546.366-4.312-1.023-2.826 1.06-5.96 2.354-6.01.531-.02 1.056.52 2.11 1.605.75.775 1.085 1.346 2.109 1.605.102.026.93.236 1.2.046.546-.388-1.676-2.137-1.966-2.362-1.872-1.458-2.811-1.493-3.166-2.408-.23-.596.04-.91.433-2.272.517-1.798-.22-2.728.577-3.028.357-.135.928-.13 1.199.046.714.462-1.25 1.732-.578 3.028.256.491.822.86 1.057.803.448-.11-.572-1.745.43-2.272.584-.304 1.69-.155 2.4.091.311.108.957.377 2.026 2.258.26.454.542 1.002.851 1.665.196.42.418.92.91 1.56.66.856 1.14 1.455 2.11 1.605.505.077.55-.728.145-.757-.483-.035-.496-1.076-.768-2.317 0 0-.046-.21-.147-.565-.124-.42-.323-1.04-.618-1.752-.072-.172-.142-.337-.207-.497-.554-1.318-.965-2.2-1.617-2.791a3.281 3.281 0 0 0-1.053-.634c-1.363-.523-2.426-.175-3.455-.894-.603-.422.035-7.269.243-7.616 1.135-1.885 2.26-2.58 2.977-2.937.256-.128 1.927-.946 2.542-.666.797.365-1.534 1.97-.721 3.786.34.757.885.793 1.966 2.362.349.507.71 1.031.91 1.56.85 2.239.895 7.798 2.157 7.707.371-.027.163-5.267-.048-6.102-.102-.414-.298-1.192.289-1.515.841-.46 6.692 3.383 7.818 3.348.765-.023-8.125-5.38-8.584-5.664-2.108-1.303-1.733-4.164-.335-4.588.445-.135.956-.012 1.2.045.81.194.804.57 2.111 1.606.385.305 1.054.803 1.054.803s.811.21 1.2.046c.332-.141.423-.587.143-.758-.287-.175-.74.082-1.198-.045-.688-.19-.222-.92-.912-1.56-.282-.263-.427-.202-2.253-.848-1.44-.51-1.22-.502-2.254-.849-1.549-.518-1.98-.515-2.255-.848-.463-.558.134-1.306.289-1.514 1.62-2.175.53-6.461 2.161-11.356 2.196-6.58 7.545-8.958 5.617-10.461-1.455-1.135-5.943-.905-8.538.437-2.631 1.362-3.039 4.31-3.746 10.152" mask="url(#b)"/>
        </g>
        <path fill="#8D5932" d="M29.997.348C33.4.954 37.9 2.175 40.639 3.216c4.353 1.657 6.458 3.341 8.459 5.126 1.5 1.34 3.267 3.505 3.63 4.58.385 1.145.248 2.231.248 2.231s-.026 1.086-.543 2.18c-.432.915-2.544 2.946-4.21 4.085-2.22 1.518-4.532 2.921-9.07 4.016-2.852.688-7.476 1.33-10.933 1.502-.737.07-1.488.084-2.25.036-7.644-.484-13.437-6.908-12.94-14.348.497-7.44 7.096-13.08 14.74-12.595.762.048 1.506.158 2.227.32"/>
        <path fill="#9A663F" d="M40.12 6.205c.234-1.433-1.09-2.6-.899-3.075.226-.56 2.397.77 4.352 2.401 2.14 1.787 8.32 6.947 7.318 11.484-.45 2.04-2.322 3.818-3.023 3.676-.307-.062-.547-.224-.547-.224-.335-.227-.404-.48-.705-.79a2.237 2.237 0 0 0-.738-.504 1.035 1.035 0 0 0-.547-.224c-.42-.032-.745.256-1.117.595-.785.717-1.178 1.076-1.314 1.217-.546.567-1.105.883-2.221 1.515-2.003 1.134-4.284 1.85-5.1 2.08-2.558.72-6.706 1.392-9.806 1.57-.66.073-1.635.103-2.018.039-1.413-.236-2.564-.358-4.247-1.186-2.426-1.192-.106-.747-.406-1.803-.334-1.18-2.374-5.457-2.071-8.161.443-3.965 4.431-7.506 11.958-7.373 3.24.057 10.58 2.115 11.13-1.237"/>
        <path fill="#A07556" d="M20.001 18.785s-.104 1.92 1.561 2.756c1.666.834 6.629.352 9.03-.042 2.402-.395 7.676-1.356 8.524-1.696.847-.342.985-.931.827-1.238-.157-.306-.328-.464-.957-.572-.63-.108-4.001-.14-4.63-.247-.63-.108-4.874-.633-5.406-.81-.534-.177-3.766-.797-4.487-.91-.72-.113-2.747.152-3.503.485-.756.332-.959 2.274-.959 2.274M41.873 20.962c1.898.396 7.399-2.388 5.858-4.39-.753-.978-4.126-.54-4.964.111-.84.651-2.95 3.85-.894 4.279"/>
    </g>
</svg>
