<svg xmlns="http://www.w3.org/2000/svg" xmlns:xlink="http://www.w3.org/1999/xlink" width="106" height="107" viewBox="0 0 106 107">
    <defs>
        <path id="prefix__a" d="M.65 52.035c0 28.443 23.505 51.5 52.5 51.5s52.5-23.057 52.5-51.5c0-28.442-23.505-51.5-52.5-51.5S.65 23.593.65 52.035z"/>
        <path id="prefix__c" d="M5.198 31.037c1.183.083 2.249 1.693 2.736 2.719.287.605.616 1.421.429 2.124a1.055 1.055 0 01-.305.516c-.354.785-1.284 1.002-2.043 1.002-.099 0-.201-.004-.295-.011-.799-.062-1.405-.395-1.682-1.272a7.16 7.16 0 01-.299-1.526A50.514 50.514 0 00.65 52.035a50.495 50.495 0 006.25 24.39c6.614 1.157 13.312 1.658 20.009 1.658 4.311 0 8.621-.208 12.911-.582 12.434-1.083 23.788-6.766 35.926-9.448a41.803 41.803 0 019.085-.987c3.418 0 6.832.398 10.306 1.105 2.436.496 4.853 1.099 7.263 1.745a50.553 50.553 0 003.25-17.881c0-5.874-1.002-11.52-2.849-16.778-.305-.107-.595-.295-.668-.634a1.438 1.438 0 01.109-.881C94.721 14.329 75.578.535 53.15.535c-21.372 0-39.759 12.526-47.952 30.502zm36.431-15.459c-.604-.091-1.605-.318-1.777-1.125-.331-1.534 1.338-2.99 2.359-3.608.424-.258.967-.548 1.484-.548.134 0 .266.02.391.062a.899.899 0 01.455.347c.787.453.924 1.752.873 2.648-.054.907-.347 1.591-1.118 1.906a5.222 5.222 0 01-1.935.371c-.246 0-.491-.018-.732-.053zm-18 14.884c-.333-.048-.884-.172-.982-.619-.182-.848.742-1.648 1.305-1.991.231-.142.53-.302.816-.302.073 0 .147.012.216.037a.49.49 0 01.251.19c.433.248.511.965.482 1.461-.03.5-.191.878-.616 1.05a2.83 2.83 0 01-1.065.204 2.6 2.6 0 01-.407-.03zm47.759 3.299c-.567-.044-.999-.282-1.196-.904a5.288 5.288 0 01-.198-2.15c.054-.485.197-1.292.706-1.434a.991.991 0 01.25-.032c.868 0 1.661 1.186 2.017 1.937.203.43.437 1.012.304 1.511a.733.733 0 01-.218.367c-.251.561-.912.712-1.45.712-.075 0-.146-.001-.215-.007zM52.634 44.546c-.428-.061-1.141-.223-1.263-.798-.236-1.092.954-2.127 1.679-2.568.302-.183.688-.39 1.057-.39.095 0 .188.013.279.044.142.05.245.138.323.245.56.325.658 1.248.619 1.885-.037.648-.246 1.134-.795 1.358a3.687 3.687 0 01-1.375.264c-.175 0-.352-.014-.524-.04zm38.611.823c-.224-.035-.593-.118-.658-.416-.12-.569.496-1.106.874-1.336.157-.097.359-.204.549-.204.051 0 .098.008.145.025l.167.126c.295.17.347.65.326.981-.021.337-.129.589-.414.706a1.925 1.925 0 01-.989.118z"/>
        <path id="prefix__e" d="M38.024 39.408c-10.719 2.131-20.75 6.642-31.733 7.502-1.8.141-3.607.252-5.416.329a51.4 51.4 0 00-.225 4.796c0 19.313 10.838 36.144 26.873 44.958 3.714-1.659 7.501-3.143 11.389-4.368 4.28-1.347 8.82-2.493 13.315-2.581.14-.002.279-.004.418-.004 4.064 0 8.066 1.148 11.885 2.459 4.534 1.556 8.927 3.501 13.477 4.909 16.456-8.694 27.643-25.753 27.643-45.373 0-2.502-.181-4.961-.533-7.368l-.124-.003c-2.803-.077-5.614-.169-8.422-.169-.887 0-1.773.008-2.659.031-3.002.295-5.986.878-8.999.878-.208 0-.416-.003-.622-.008-3.94-.109-7.909-.93-11.746-1.802-5.807-1.322-11.537-3.021-17.396-4.091-3.067-.562-6.082-.876-9.103-.876-2.657 0-5.319.245-8.022.781zm8.304 15.479c-.389-.028-.684-.173-.818-.557a2.949 2.949 0 01-.138-1.322c.039-.299.138-.797.483-.882a.691.691 0 01.172-.021c.596 0 1.138.731 1.38 1.193.139.264.3.623.21.929a.45.45 0 01-.15.226c-.172.344-.625.439-.993.439-.053 0-.1-.001-.146-.005zm50.556 11.032c-.531-.071-1.414-.25-1.565-.892-.293-1.219 1.182-2.373 2.082-2.867.377-.204.857-.433 1.312-.433.118 0 .233.015.343.049a.793.793 0 01.403.275c.695.361.818 1.39.773 2.102-.051.721-.306 1.265-.99 1.514a5.075 5.075 0 01-2.358.252zm-38.177 6.687c-.707-.047-1.242-.312-1.486-1.006a5.321 5.321 0 01-.248-2.399c.069-.542.245-1.441.878-1.597.104-.027.209-.04.312-.04 1.076 0 2.058 1.326 2.501 2.163.25.478.541 1.129.376 1.685a.817.817 0 01-.269.412c-.311.621-1.129.793-1.796.793-.093 0-.182-.003-.268-.011zm22.281 5.131c-.293-.039-.781-.141-.864-.494-.16-.673.653-1.31 1.15-1.581.207-.112.471-.237.723-.237.064 0 .128.007.191.026a.439.439 0 01.22.15c.383.2.451.769.426 1.16-.026.398-.171.698-.545.834a2.77 2.77 0 01-.943.166 3.06 3.06 0 01-.358-.024zm-45.357 3.791c-.506-.034-.885-.222-1.06-.717a3.771 3.771 0 01-.174-1.706c.049-.388.174-1.03.622-1.139a.859.859 0 01.222-.027c.767 0 1.466.942 1.78 1.538.179.341.386.805.27 1.201a.592.592 0 01-.192.291c-.223.444-.807.566-1.281.566a2.22 2.22 0 01-.187-.007z"/>
        <path id="prefix__g" d="M97.526 62.625c-.642.446-1.694 1.487-1.487 2.586.108.578.739.74 1.118.804a2.92 2.92 0 001.682-.227c.489-.224.671-.715.707-1.366.032-.642-.055-1.57-.551-1.896a.59.59 0 00-.288-.248.685.685 0 00-.245-.044c-.326 0-.668.207-.936.391z"/>
        <path id="prefix__i" d="M70.493 60.742c-.927 1.046-1.071 3.31-1.322 7.797-.159 2.862-.131 4.686-.882 5.197-.253.173-.292-.023-1.27-.104 0 0-2.068-.206-3.49.883-.069.052-.252.191-.237.272.015.091.275.065.423.036.424-.086.677-.353.898-.513.676-.487 1.576-.358 2.118.176.207.205.372.369.372.616-.001.554-.825.831-2.745 2.116-.801.537-1.146.815-1.795 1.023-1.135.363-1.567-.012-1.695-.14l-.013-.013c.01.016.021.032.032.046.106.137.04.066-.02-.006-.053-.065-.102-.128-.012-.04-.289-.444-.549-1.774-1.509-1.115-.415.285-1.03.179-1.391.301-.519.176-1.157.403-1.372 1.058-.04.116.339.007.619-.204.244-.183.322-.26.402-.318.187-.138.516-.278 1.131-.247h.086c.249.004.884.051 1.2.467.207.273.194.461.374.617.153.135.335.09.495.045.152-.043.283-.085.351.025.085.138.003.412-.051.582-.364 1.143-.684 2.147-1.525 2.802-.488.38-.51.14-.898.511-.679.648-.914 1.663-1.052 2.255-.117.51-.065.57-.049.582.083.072.362-.191.473-.546.079-.252.012-.349.052-.581.024-.139.117-.517.948-1.094.516-.357.601-.297.899-.511.755-.544.738-1.316 1.473-2.22.131-.161.548-.462 1.372-1.058 1.119-.807 1.679-1.211 2.271-1.569 1.295-.783 1.225-.541 1.797-1.023.385-.325.655-.637.897-.512.266.137.37.732.323 1.198-.036.348-.182.853-1 1.674-.562.565-.696.53-2.271 1.57-.973.643-1.744 1.199-2.219.987-.045-.02-.216-.103-.424-.035-.27.09-.509.411-.474.547.043.173.557.107.846.07.231-.03.357-.072.424.036.082.128.033.402-.051.581-.177.377-.534.385-.897.511-.666.229-.502.552-1.847 1.604-.167.13-.319.242-.455.361-.218.193 1.298-.539 1.776-.838.186-.116.424-.248.898-.511.752-.417.753-.392.897-.511.5-.412.455-.686.95-1.093.429-.353.463-.146.898-.511.218-.184.585-.554.949-1.093.229-.341.327-.556.474-.546.216.013.342.498.374.616.267 1.034-.144 2.444-.73 3.454-.325.56-.697.928-1.424 1.639-.95.928-1.255 1.051-1.847 1.604-1.559 1.457-2.751 4.075-2.473 3.895.04-.027.642-1.374.943-1.53 1.022-.531.644-.68 1.242-1.31 1.243-1.31 1.929-1.732 2.01-1.593.023.04-.932 1.314-1.45 2.317-.354.683-.438.834-.527 1.128-.111.379-.553.92-.986 1.378.208-.209.442-.457.695-.748.265-.307.839-.992.839-.992s.156-.099.351-.149c.009-.003.009-.003.011-.002.11.052-1.113 2.691-.986 2.597.24-.179 1.385-3.432 1.541-4.147.182-.842.829-1.695 1.434-1.797.168-.029.295-.049.422.035.747.495.798 4.142-.508 5.814-.441.565-1.16 1.062-1.474 2.222-.021.077-.136.511-.052.581.097.08.385-.37.683-.82.298-.454.607-.906.74-.82.257.168-.571 2.078-.407 4.651l.145 2.325c.155 2.473.379 5.983.41 6.013h.001a.516.516 0 00.002-.092c-.014-1.071-.017-1.61.152-1.744.071-.055.246-1.212.381-2.503.134-1.294.227-2.723.129-3.312-.361-2.17.375-4.577.832-4.616.188-.015.373.4.744 1.233.265.595.384 1.034.745 1.233.037.02.329.181.424.035.194-.298-.592-1.641-.694-1.814-.661-1.12-.993-1.147-1.119-1.85-.081-.457.015-.698.153-1.744.183-1.382-.076-2.095.205-2.327.126-.103.327-.099.423.036.252.355-.44 1.331-.205 2.326.091.377.292.661.375.616.158-.084-.203-1.34.151-1.744.206-.234.597-.119.848.07.11.082.337.289.715 1.734.092.348.192.769.301 1.279.068.322.148.705.321 1.198.233.657.403 1.118.745 1.233.179.059.195-.56.052-.583-.17-.026-.175-.825-.272-1.779 0 0-.015-.161-.051-.434a26.213 26.213 0 00-.218-1.345 40.896 40.896 0 01-.074-.382c-.196-1.012-.34-1.689-.571-2.144a1.487 1.487 0 00-.372-.486c-.482-.402-.856-.135-1.22-.687-.213-.324.012-5.582.086-5.849.4-1.447.798-1.981 1.051-2.256.091-.098.68-.726.898-.511.282.28-.542 1.512-.255 2.907.12.581.313.609.694 1.814.124.389.251.793.322 1.198.3 1.72.316 5.989.762 5.92.13-.021.058-4.046-.017-4.687-.036-.317-.105-.915.102-1.163.155-.186.801.543 1.436 1.271.572.657 1.137 1.314 1.326 1.3.01-.001.015-.007.016-.019v-.007c-.021-.35-2.894-4.117-3.048-4.325-.745-.999-.613-3.197-.119-3.522.157-.104.338-.01.424.034.286.149.284.438.746 1.233.136.235.371.616.371.616s.288.162.424.036c.118-.108.151-.45.051-.582-.054-.071-.124-.048-.203-.027-.069.02-.145.039-.22-.007-.243-.147-.078-.707-.322-1.199-.1-.201-.151-.155-.795-.651-.51-.391-.432-.385-.797-.651-.547-.399-.7-.397-.796-.652-.164-.428.047-1.003.102-1.163.572-1.671.187-4.962.763-8.721.776-5.055 2.666-6.881 1.983-8.035-.222-.377-.646-.558-1.129-.558-.633-.001-1.367.309-1.887.894zm-9.666 32.072c.016.018.478-.381.95-.88-.588.591-.965.864-.95.88z"/>
        <path id="prefix__k" d="M46.602 24.746c-2.083 1.431-3.028 3.789-3.312 4.573.06.314.19.808.491 1.278.535.839 1.532 1.473 2.085 1.033.226-.179.243-.43.398-.779.528-1.2 1.865-1.769 2.698-1.769 1.506-.002 2.44 1.852 3.111 3.182 1.023 2.031 2.653 2.247 3.342 4.51.671 2.205-.482 3.051 1.117 6.588.686 1.517.678 1.679 1.024 2.152 1.341 1.828 2.858 1.328 4.483 2.095 4.202 1.986 5.828 10.912 5.087 14.028-.062.261-.23.851-.173 1.619.136 1.876 1.403 2.1 1.515 3.43.149 1.775-2.032 2.354-2.424 5.072-.258 1.773.422 3.251-.079 3.676-.189.16-.404.052-.621-.056-.211-.105-.426-.21-.621-.071-.701.495-.787 3.81.412 4.953 1.481 1.415 4.422-.982 5.535-1.889 1.216-.992 4.115-3.356 5.21-7.653 1.429-5.614-1.18-10.772-3.139-14.646-.672-1.327-2.176-3.398-5.16-7.486-6.154-8.433-6.811-8.562-7.873-11.447-1.36-3.691-.961-5.315-2.858-8.479-.873-1.455-2.287-3.744-4.843-4.589-.367-.12-1.134-.374-2.119-.374-.949 0-2.099.235-3.286 1.049z"/>
        <path id="prefix__m" d="M43.044 20.899c-1.119.18-4.238.784-7.281 2.995-2.847 2.069-3.95 4.326-5.898 8.311-1.295 2.649-1.941 4.016-1.823 6.087.071 1.216.358 2.097.309 4.059-.028 1.102-.133 1.441-.374 3.672-.431 3.997-.248 4.375.019 4.542.589.368 1.589-.307 2.648-.983 1.089-.695 2.242-1.389 3.081-.95 1.599.837.743 5.107 1.384 5.314.532.173.846-2.875 3.477-5.798.498-.553 1.043-1.045 2.132-2.028 2.215-2.003 2.43-1.895 3.682-3.094 2.071-1.982 3.341-4.062 3.869-4.927.016-.024.007-.011 1.45-2.416l1.159-1.933 2.607-4.349-.085-.471c-.135-.743-.357-1.59-1.093-2.138a2.616 2.616 0 00-.681-.353 3.198 3.198 0 00-.792-.185l-2.125.442c.211-.114 1.067-.551 2.125-.442l2.053-.427c.093-.81.157-2.661-1.281-3.962-1.171-1.061-2.903-1.366-4.597-1.366-1.488 0-2.945.235-3.965.4z"/>
        <path id="prefix__o" d="M37.027 21.964a16.913 16.913 0 00-5.617 5.212c-1.93 2.876-2.245 5.351-2.801 9.721-.37 2.906-.541 4.399.179 6.296.424 1.113.945 1.841 1.484 3.692.303 1.039.309 1.392.757 3.557.803 3.879 1.079 4.173 1.368 4.239.647.153 1.353-.848 2.115-1.849.755-.992 1.566-1.985 2.431-1.854.044.006.085.027.128.039-.899-1.928-1.574-3.871-1.687-6.133-.213-4.2.671-8.369 2.229-12.275 1.691-4.243 4.899-7.716 9.653-9.281l.024-.015c-.158-.789-.651-2.538-2.322-3.28a4.172 4.172 0 00-1.703-.335c-2.256 0-4.777 1.435-6.238 2.266z"/>
        <path id="prefix__q" d="M40.29 23.18c.35 1.501 4.663 9.453 6.704 11.394l.136.123c.064-.326.117-.609.16-.841-3.108-2.549-5.318-6.645-6.703-11.159-.099.156-.198.314-.297.483z"/>
        <path id="prefix__s" d="M36.29 22.541c1.549 2.399 3.282 4.75 5.124 7.023a107.71 107.71 0 006.337 7.133c.193-.16.375-.315.539-.462-4.767-4.197-8.769-9.298-11.129-14.538-.294.26-.582.542-.871.844z"/>
        <path id="prefix__u" d="M43.187 36.114c-4.149 1.531-8.28 3.037-12.559 4.385-.776.245-1.556.483-2.338.716.101.17.199.329.299.482.014-.005.032-.013.044-.016 1.758-.49 3.598-.869 5.286-1.505 1.457-.549 2.685-1.297 4.174-1.824 1.551-.55 3.168-1.009 4.727-1.551 1.165-.404 2.333-.831 3.477-1.263.322-.121.659-.251.993-.388-.012-.153-.021-.307-.037-.453-1.373.445-2.726.922-4.066 1.417z"/>
        <path id="prefix__w" d="M39.233 39.102c-1.97.684-3.959 1.314-5.935 1.982-1.29.436-2.632.921-4.008.962.023.202.047.413.072.651l.103-.025c1.015-.232 2.025-.476 3.031-.735 1.994-.514 3.964-1.101 5.929-1.707a80.99 80.99 0 005.698-1.99c.552-.216 1.137-.431 1.72-.662.162-.323.307-.61.447-.881-2.364.77-4.709 1.591-7.057 2.405z"/>
        <path id="prefix__y" d="M47.314 58.983c-.409 6.063 4.369 11.296 10.676 11.691.629.04 1.249.027 1.857-.029 2.851-.14 6.667-.664 9.02-1.224 3.743-.892 5.65-2.035 7.483-3.273 1.373-.928 3.116-2.582 3.472-3.327a4.863 4.863 0 00.448-1.777s.114-.885-.204-1.818c-.3-.875-1.758-2.64-2.996-3.732-1.65-1.454-3.387-2.826-6.979-4.177-2.257-.848-5.97-1.842-8.778-2.336a11.882 11.882 0 00-1.837-.26 11.26 11.26 0 00-.755-.024c-5.982 0-11.013 4.468-11.407 10.286z"/>
        <path id="prefix__A" d="M67.975 56.777c-.136.288.8.999.634 1.871-.388 2.04-5.569.787-7.856.753-5.314-.081-8.128 2.075-8.441 4.487-.215 1.646 1.225 4.25 1.462 4.968.211.643-1.425.372.286 1.098 1.188.503 2 .578 2.998.721.271.039.959.022 1.424-.023 2.19-.108 5.117-.518 6.923-.956.575-.14 2.186-.575 3.6-1.265.787-.386 1.182-.578 1.567-.923.097-.085.374-.304.928-.741.262-.207.491-.381.788-.362.167.011.3.079.386.137.251.092.418.213.522.307.212.188.261.341.497.48 0 0 .169.098.387.137.494.085 1.815-.996 2.133-2.238.707-2.762-3.656-5.903-5.165-6.99-1.162-.836-2.43-1.541-2.899-1.541-.088 0-.148.026-.174.08z"/>
        <path id="prefix__C" d="M53.009 63.123c-.566.277-.718 1.895-.718 1.895s-.078 1.6 1.171 2.297c1.249.694 4.971.293 6.772-.035 1.802-.33 5.757-1.13 6.393-1.414.635-.285.739-.775.62-1.031-.118-.255-.246-.388-.717-.478-.473-.09-3.002-.115-3.472-.205-.474-.09-3.656-.527-4.057-.674-.398-.149-2.824-.665-3.364-.759a1.999 1.999 0 00-.327-.022c-.676 0-1.824.193-2.301.426z"/>
    </defs>
    <g fill="none" fill-rule="evenodd" transform="translate(-.29 .303)">
        <mask id="prefix__b" fill="#fff">
            <use xlink:href="#prefix__a"/>
        </mask>
        <path fill="#7A4E30" d="M-26.808 124.774L130.255 124.774 130.255 -24.956 -26.808 -24.956z" mask="url(#prefix__b)"/>
        <mask id="prefix__d" fill="#fff">
            <use xlink:href="#prefix__c"/>
        </mask>
        <path fill="#382419" d="M-25.163 89.451L130.307 89.451 130.307 -25 -25.163 -25z" mask="url(#prefix__d)"/>
        <mask id="prefix__f" fill="#fff">
            <use xlink:href="#prefix__e"/>
        </mask>
        <path fill="#543122" d="M-27 127.121L129.969 127.121 129.969 23.25 53.09 23.25 -27 23.25z" mask="url(#prefix__f)"/>
        <mask id="prefix__h" fill="#fff">
            <use xlink:href="#prefix__g"/>
        </mask>
        <path fill="#46291D" d="M86.698 76.088L108.864 76.088 108.864 52.199 86.698 52.199z" mask="url(#prefix__h)"/>
        <mask id="prefix__j" fill="#fff">
            <use xlink:href="#prefix__i"/>
        </mask>
        <path fill="#D0A688" d="M51.58 111.697L79.945 111.697 79.945 54.848 51.58 54.848z" mask="url(#prefix__j)"/>
        <mask id="prefix__l" fill="#fff">
            <use xlink:href="#prefix__k"/>
        </mask>
        <path fill="#C4C480" d="M38.29 85.697L81.29 85.697 81.29 18.697 38.29 18.697z" mask="url(#prefix__l)"/>
        <mask id="prefix__n" fill="#fff">
            <use xlink:href="#prefix__m"/>
        </mask>
        <path fill="#809A27" d="M32.083 9.479L62.077 19.807 47.082 63.357 17.088 53.029z" mask="url(#prefix__n)"/>
        <mask id="prefix__p" fill="#fff">
            <use xlink:href="#prefix__o"/>
        </mask>
        <path fill="#67800C" d="M23.29 59.697L52.29 59.697 52.29 14.697 23.29 14.697z" mask="url(#prefix__p)"/>
        <mask id="prefix__r" fill="#fff">
            <use xlink:href="#prefix__q"/>
        </mask>
        <path fill="#BDD86A" d="M35.29 39.697L52.29 39.697 52.29 17.697 35.29 17.697z" mask="url(#prefix__r)"/>
        <mask id="prefix__t" fill="#fff">
            <use xlink:href="#prefix__s"/>
        </mask>
        <path fill="#BDD86A" d="M31.29 41.697L53.29 41.697 53.29 16.697 31.29 16.697z" mask="url(#prefix__t)"/>
        <mask id="prefix__v" fill="#fff">
            <use xlink:href="#prefix__u"/>
        </mask>
        <path fill="#BDD86A" d="M23.29 46.697L52.29 46.697 52.29 29.697 23.29 29.697z" mask="url(#prefix__v)"/>
        <mask id="prefix__x" fill="#fff">
            <use xlink:href="#prefix__w"/>
        </mask>
        <path fill="#BDD86A" d="M24.29 47.697L51.29 47.697 51.29 31.697 24.29 31.697z" mask="url(#prefix__x)"/>
        <mask id="prefix__z" fill="#fff">
            <use xlink:href="#prefix__y"/>
        </mask>
        <path fill="#8B5932" d="M42.29 75.697L85.29 75.697 85.29 43.697 42.29 43.697z" mask="url(#prefix__z)"/>
        <mask id="prefix__B" fill="#fff">
            <use xlink:href="#prefix__A"/>
        </mask>
        <path fill="#98663F" d="M47.29 75.697L81.29 75.697 81.29 51.697 47.29 51.697z" mask="url(#prefix__B)"/>
        <mask id="prefix__D" fill="#fff">
            <use xlink:href="#prefix__C"/>
        </mask>
        <path fill="#9E7556" d="M47.29 72.697L72.29 72.697 72.29 57.697 47.29 57.697z" mask="url(#prefix__D)"/>
    </g>
</svg>
