<svg xmlns="http://www.w3.org/2000/svg" xmlns:xlink="http://www.w3.org/1999/xlink" width="111" height="112" viewBox="0 0 111 112">
    <defs>
        <path id="prefix__a" d="M0.083 0.409L62.92 0.409 62.92 46.561 0.083 46.561z"/>
        <path id="prefix__c" d="M0 0.078L29.838 0.078 29.838 7.336 0 7.336z"/>
        <path id="prefix__e" d="M3.392 6.294c-.241 2.802-.383 4.451-.804 6.765-.278 1.53-.567 3.044-.72 3.684-.006.03-.237.999-.244 1.03v3.473c.01 1.56.041 1.483 0 1.737-.148.926-.4.9-.461 1.737-.015.196-.002.205 0 1.737v.434c-.003.535-.17 1.44-.923 3.04-.065.226-.169.718 0 1.302.084.294.317.882.923 1.303.693.481 1.453.45 1.846.434.828-.034 2.259-.367 2.769-1.303.584-1.07-.704-1.703-1.472-4.936-.461-1.942-.476-3.8-.5-4.375-.078-1.955.333-2.69.81-5.249.307-1.636.469-3.114.56-4.442-.014-.02-.025-.042-.024-.068.003-.082.002-.164.005-.246-.003-.066-.003-.131-.004-.197-.029-.175-.006-.364 0-.538l.006-.132v-.026l.002-.004c.008-.198.017-.395.03-.59.001-.02.008-.034.014-.05v-.042c-.003-.012-.01-.023-.01-.037-.002-2.756-.081-5.515-.583-8.23-.007-.041.01-.076.038-.108-.11-.713-.226-1.368-.338-1.913C4.134.37 3.95.264 3.77.15l.054.035c-.026-.017-.053-.031-.08-.044-.054 2.033-.198 4.368-.352 6.153"/>
    </defs>
    <g fill="none" fill-rule="evenodd" transform="translate(2 9)">
        <ellipse cx="46.5" cy="47" fill="#A8DBF4" stroke="#A8DBF4" stroke-width="9" rx="51" ry="51.5" transform="translate(7)"/>
        <g fill="#805430" fill-rule="nonzero">
            <path d="M0 1.757l.008.012c.486-.004.954.187 1.3.531.347.344.544.813.547 1.302.032 1.34.965 2.563 1.617 3.682.153.263.31.523.468.784.423.582.848 1.163 1.267 1.748.152.207.252.447.292.7.292.435.588.867.892 1.296 1.414 1.997 2.757 4.068 4.209 6.049 1.559.9 2.777 2.297 3.463 3.97.177.165.356.327.535.49 2.387.563 4.606 2.401 5.139 4.71.395.38.791.758 1.19 1.135 1.027-.237 2.022-.333 2.546-.12 1.667.682 3.25 1.483 4.775 2.286.106.055.21.113.316.172.045-.031.307-.109.325-.056.034.096.06.193.084.29 1.003.677 2.13 1.148 3.314 1.384 1.403.201.043.905-.576 1.158-.43.175-.87.325-1.316.451.046.086.083.176.11.269h48.889c-.234-.557-.174-1.196.159-1.7.333-.503.895-.805 1.495-.803.32-.95 1.306-1.497 2.273-1.26.12.034.236.07.35.108.77-.58 1.664-.97 2.61-1.14.777-.936 1.742-1.694 2.832-2.225.438-.242.862-.507 1.272-.793.174-.384.353-.755.535-1.107 1.077-2.085 2.92-3.407 4.35-5.139.267-.49.605-.938 1.001-1.33.254-.255.579-.427.931-.495.748-1.14 1.612-2.197 2.578-3.156 1.15-1.14 2.132-2.44 2.917-3.86.86-1.598 2.334-3.274 2.832-5.002.15-.48.485-.88.93-1.11.018-.647.03-1.295.034-1.942-.012-.481.17-.946.507-1.289-1.877-.158-4.58-.36-7.846-.51-5.757-.264-8.699-.389-11.79 0-5.424.683-5.035 1.779-8.842 1.824-5.115.06-5.723-1.919-10.807-1.824-3.9.073-4.072 1.248-8.842 1.824-5.08.612-5.468-.65-11.299-.608-7.11.05-7.29 1.932-14.246 1.823-3.283-.051-4.338-.487-6.506-.734-.417-.047-.8-.08-1.163-.105-1.215-.081-2.098-.065-2.352-.062-3.183.036-5.356-1.347-8.646-.314-.506.165-.998.369-1.474.608C10.903 4.709 7.016 5.03 0 1.757z" transform="translate(0 61)"/>
            <path d="M100.787 2.025c-6.95-.41-6.114-.258-7.502-.404C85.956.854 83.23-1.235 81.083 1.01c-.64.67-1.237 1.732-2.402 1.908-1.198.18-2.024-.724-2.968-1.296-2.053-1.244-3.898-.448-6.345 0-4.698.86-5.093-.759-11.714-.612-3.63.08-4.018.579-8.8 1.15-5.911.706-6.522-.067-20.559.284-3.437.086-6.872.18-10.306.282-3.327.095-6.524.347-9.794.597-2.069.158-4.121.267-6.195.29.026.277.083.55.17.814.527.003 1.05.097 1.547.278.415.202.313.476.077.701-.268.231-.576.407-.91.518.235.4.482.79.698 1.167l.13.22c.178-.03.355-.062.535-.09.986-.17 1.981-.278 2.98-.327 1.004-.036 2.186.051 2.42.52.214.433-.231.902-.732 1.276-.68.496-1.453.842-2.271 1.017-.37.087-.766.162-1.17.23.056.127.095.26.116.398.292.442.588.88.893 1.317 1.405 2.01 2.74 4.097 4.182 6.092 1.55.908 2.76 2.314 3.441 4 .176.166.354.33.532.493 2.372.567 4.577 2.419 5.106 4.745.392.382.786.763 1.182 1.142 1.021-.238 2.01-.335 2.53-.12 1.656.686 3.23 1.493 4.745 2.302.104.056.209.114.313.173.045-.03.306-.109.324-.056.033.097.06.194.083.292.997.682 2.116 1.156 3.293 1.394 1.394.203.042.912-.572 1.167-.428.176-.865.327-1.308.454.045.086.082.177.11.271H79.02c-.232-.562-.173-1.204.158-1.712.33-.507.889-.811 1.486-.81.317-.956 1.297-1.507 2.258-1.268.119.034.235.07.349.109.764-.585 1.652-.978 2.593-1.15.77-.942 1.73-1.706 2.813-2.24.435-.244.857-.51 1.264-.8.172-.386.351-.76.531-1.113 1.07-2.101 2.903-3.433 4.323-5.177.266-.494.6-.945.995-1.34.252-.257.574-.43.925-.498.743-1.148 1.601-2.213 2.561-3.18 1.142-1.148 2.118-2.457 2.898-3.887.454-.853 1.078-1.73 1.638-2.623-.07-.007-.143-.01-.213-.018-.658-.075-1.603-.204-1.831-.503-.202-.263.281-.512.787-.654.692-.178 1.396-.3 2.107-.367.13-.283.239-.575.327-.874.147-.473.469-.868.897-1.101-.264-.031-.527-.063-.777-.105-.665-.114-1.626-.293-1.91-.588-.286-.298.208-.58.873-.713.616-.1 1.243-.125 1.865-.075.002-.164.008-.328.009-.492 0-.158.019-.315.054-.469-1.26-.084-3.056-.2-5.213-.327zM11.371 4.078c-.323.115-.659.184-1 .206-.78.098-1.57.047-2.333-.148-.16-.06-.021-.175.154-.202.509-.077 1.012-.157 1.501-.254.05-.01.1-.015.151-.013.568-.155 1.155-.223 1.741-.202.195.01.228.092.147.153l-.015.01c.094.024.149.064.148.125 0 .12-.303.247-.494.325zm8.367 1.169c-1.135.423-2.376.443-3.525.058-1.055-.411-.816-.979.328-1.316l.032-.008c1.052-.473 2.222-.6 3.348-.364 1.392.35.73 1.236-.183 1.63zm16.482-.62c-.459.12-.93.18-1.404.177-1.535.03-3.071-.044-4.596-.225-.717-.077-1.438-.167-2.108-.298-.41-.057-.81-.177-1.184-.356-.092-.056.023-.129.126-.165 1.173-.357 2.386-.561 3.609-.606.77-.14 1.547-.234 2.328-.283.728-.093 1.467-.032 2.171.18.52.186.979.512 1.33.945.144.216.197.474-.272.63zm10.16-.685c-.093.253-.763.38-1.295.448-.7.084-1.405.13-2.11.141-.8.043-1.6.022-2.396-.06-.785-.117-1.009-.44-.646-.738.668-.55 2.525-.44 3.76-.35 1.184 0 2.869.06 2.686.56zM69.824 6.1c-1.974.16-3.918-.276-4.99-.946-.491-.307-.815-.687-.464-1.045.466-.335 1.02-.519 1.59-.525 1.055-.062 2.111-.051 3.164.031.964-.115 1.937-.136 2.905-.062.911.106 1.32.428 1.295.8-.059.822-1.467 1.583-3.5 1.747zm11.398-1.276c-.98-.033-2.792-.277-2.769-.781.012-.247.415-.479 1.042-.511.364-.02.722-.002 1.08.015.034-.004.067-.006.1-.004 1.09.044 2.162-.14 3.187.09.478.108.667.316.387.514-.94.477-1.979.71-3.027.677zM95.48 5.997c-.568.357-1.178.637-1.816.832-1.85.53-3.77.765-5.692.696-.97-.022-1.937-.141-2.885-.355-.652-.157-1.376-.393-1.596-.703-.38-.537 1.038-.904 2.05-1.095 1.33-.251 2.757-.395 4.167-.547.043-.005.087-.006.13-.002.99-.102 1.986-.13 2.98-.081.545-.023 1.09-.027 1.622 0 .818.042 1.728.197 1.67.593-.035.238-.317.465-.63.662zm.579-2.965c-.344.367-1.51.42-2.341.396-.869.009-1.734-.104-2.572-.334-.14-.054-.045-.144.086-.185.364-.102.739-.163 1.116-.182 1.418-.265 4.47-.505 3.71.305zm3.444 1.49c-.54-.05-2.03-.227-1.534-.573.503-.2 1.05-.258 1.582-.167h.096c.226-.018.453-.021.68-.012.103.005.159.026.178.054.43.052.777.156.873.345.188.373-1.335.403-1.875.353z" opacity=".3" style="mix-blend-mode:multiply" transform="translate(0 61)"/>
            <path d="M92.536 16.577c-2.844.103-5.67.108-8.524.079-1.745-.018-3.499-.042-5.247-.025-1.52.057-3.03.173-4.557.157-1.866-.02-3.745-.168-5.562-.325-2.75-.238-5.463-.544-8.238-.737-2.7-.204-5.411-.21-8.111-.017-5.076.384-9.826 1.196-15.027 1.351-5.509.194-11.025.077-16.52-.35-2.632-.221-5.236-.514-7.72-.921-1.647-.27-3.313-.567-5.03-.789.8 1.135 1.604 2.27 2.443 3.376 1.561.872 2.781 2.224 3.468 3.844.177.16.357.316.536.474 2.39.544 4.612 2.324 5.145 4.56.396.368.793.734 1.192 1.098 1.028-.229 2.025-.323 2.549-.116 1.669.66 3.254 1.436 4.782 2.213.105.053.21.11.315.166.045-.03.308-.104.326-.054.034.093.06.187.085.28 1.004.657 2.131 1.112 3.317 1.34 1.405.196.043.877-.576 1.123-.431.168-.871.314-1.318.436.046.083.083.17.11.26h48.952c-.234-.54-.174-1.158.16-1.645.332-.488.895-.78 1.497-.778.319-.92 1.307-1.45 2.276-1.22.119.033.236.068.35.105.77-.562 1.666-.94 2.613-1.105.777-.905 1.744-1.64 2.836-2.153.438-.234.863-.49 1.273-.768.174-.371.354-.73.536-1.07 1.078-2.02 2.924-3.3 4.356-4.976.267-.475.605-.909 1.002-1.288.254-.247.58-.413.932-.479.542-.817 1.159-1.584 1.843-2.292-2.158.063-4.308.168-6.464.246z" opacity=".3" style="mix-blend-mode:multiply" transform="translate(0 61)"/>
            <path d="M85.002 25.703c-3.305.387-6.31 1.044-9.893.895-3.536-.147-6.706-.738-10.038-1.164-1.932-.275-3.882-.42-5.835-.434-2.112.038-4.22.19-6.315.456-4.402.517-8.531 1.295-12.568 2.13-3.715.817-7.504 1.29-11.315 1.41-1.352.031-2.7.02-4.038-.027 1.127.49 2.22 1.017 3.281 1.546.106.053.211.108.317.164.045-.03.308-.103.326-.053.034.091.06.183.084.275 1.006.644 2.135 1.09 3.323 1.315 1.407.191.043.86-.577 1.1-.432.166-.872.309-1.32.429.046.08.083.166.11.255h49.024c-.235-.53-.175-1.136.16-1.614.333-.479.897-.766 1.5-.764.319-.902 1.308-1.422 2.278-1.197.12.032.237.067.352.103.771-.55 1.667-.922 2.616-1.084.779-.888 1.747-1.609 2.84-2.112.439-.23.864-.482 1.276-.754.133-.28.271-.55.41-.813-1.989-.26-4.004-.28-5.998-.062z" opacity=".3" style="mix-blend-mode:multiply" transform="translate(0 61)"/>
            <g opacity=".3">
                <path d="M.7 1.37C.338 1.35.303 1.253.27 1.142.214.976.182.805.173.632.17.481.378.352.844.332c.447-.01.893.031 1.329.124.677.078 1.42.172.86.448-.347.153-.714.264-1.092.333-.405.097-.822.141-1.24.133zM2.26 2.46c.283.135.592.223.91.259.394-.193.855-.238 1.285-.125.119.03.235.063.35.097.766-.523 1.657-.875 2.6-1.029.146-.172.304-.336.473-.49-.522-.065-1.052-.062-1.572.01-.434.048-.864.118-1.29.21-.347.038-.684.094-.999.15-.556.084-1.1.225-1.62.42-.342.144-.413.332-.137.497z" style="mix-blend-mode:multiply" transform="translate(0 61) translate(79 28)"/>
            </g>
            <g opacity=".3">
                <path d="M1.338 1.625l.316.181c.045-.032.308-.114.326-.058.033.098.059.198.082.297.71-.01 1.408-.192 2.04-.53.214-.156.07-.32-.292-.404-.804-.098-1.614-.122-2.422-.071-.025-.001-.05 0-.075.004C1.041 1.03.77 1.016.491 1.03c-.067.004-.135.012-.201.023.352.19.701.38 1.048.571zM11.844 1.984c-.404-.022-.819-.018-1.233 0-.755-.038-1.511-.017-2.263.063-.033-.003-.066-.002-.099.002-1.071.12-2.155.233-3.164.43-.5.071-.986.231-1.435.473.55.272 1.134.46 1.735.556.697.105.712.34.475.584.348.041.706.068 1.07.08 1.46.055 2.918-.13 4.324-.547.485-.153.948-.373 1.379-.654.24-.155.453-.334.48-.521.044-.31-.648-.433-1.269-.466zM13.073.64c-.261.288-1.147.33-1.778.31-.66.007-1.316-.081-1.953-.262-.108-.043-.035-.114.064-.146.277-.08.562-.128.849-.143 1.076-.208 3.394-.397 2.818.24zM15.69 1.811c-.411-.039-1.542-.179-1.165-.45.381-.158.796-.204 1.2-.132h.073c.172-.014.345-.017.517-.01.079.004.12.02.136.043.326.04.59.123.663.271.143.293-1.014.317-1.424.278zM20.81 4.754c-.427.131-.876.16-1.315.084-.235-.014-.468-.035-.694-.062-.5-.059-1.218-.16-1.392-.395-.153-.207.215-.403.6-.514.563-.15 1.138-.251 1.718-.303.53-.073 1.064-.099 1.597-.077 1.517.127.154 1.038-.514 1.267zM23.146 2.152c-1.07.023-2.14-.047-3.198-.21-.51-.043-1.004-.2-1.451-.463-.217-.233.158-.456.663-.56.655-.096 1.32-.102 1.976-.018.367.032.728.074 1.085.122.03-.007.06-.01.091-.01.612.002 1.224.044 1.83.124.486.065 1.237.19 1.302.442.126.49-1.477.567-2.298.573zM28.117 1.191c-.04-.049.073-.102.165-.122.876-.141 1.765-.176 2.648-.102.024-.004.049-.007.073-.007.696-.006 1.85-.099 2.07.297.164.293-.973.446-1.469.476-1.153.07-3.04.01-3.487-.542zM40.625 3.669c-.699.526-2.036.88-3.473.904-1.01-.006-2.015-.131-2.998-.374-.998-.173-1.974-.467-2.908-.877-.562-.294-.74-.743.137-.975.486-.11.98-.173 1.477-.188.668-.038 1.344-.05 2.017-.05.296 0 .592.002.887.006.054-.041.118-.064.185-.066.235-.016.468-.034.701-.052 1.107-.084 2.648-.236 3.64.074 1.124.353.945 1.138.335 1.598zM43.565 1.324c-.383.277-1.355.216-1.976.16-.337-.026-.673-.07-1.006-.134-.096-.012-.19-.039-.279-.08l-.013-.01c-.098-.026-.194-.057-.289-.093-.111-.043-.025-.127.101-.158.035-.02.073-.033.111-.04.776-.135 1.563-.185 2.349-.15.315-.004.629.046.929.148.196.092.22.251.073.357z" style="mix-blend-mode:multiply" transform="translate(0 61) translate(27 29)"/>
            </g>
            <g opacity=".3">
                <path d="M12.698 4.113c.048-.012.091-.04.124-.08.078-.109-.057-.236-.175-.33-.38-.295-.841-.441-1.308-.415-.185-.004-.351.123-.407.313-.046.167-.002.347.114.469.2.154.446.224.691.197.327.036.657-.017.96-.154zM1.398 5.995c.102-.005.202-.037.29-.092.034-.009.065-.029.089-.057.055-.078-.042-.168-.125-.235-.27-.21-.598-.314-.931-.296-.123-.002-.234.077-.28.2.329.136.649.296.957.48zM6.51.715c.027-.007.051-.022.07-.044.042-.06-.033-.13-.098-.182C6.273.326 6.018.245 5.761.26c-.102-.003-.194.068-.225.173-.025.092 0 .191.063.258.111.086.247.124.382.109.18.02.362-.01.53-.085z" style="mix-blend-mode:multiply" transform="translate(0 61) translate(15 17)"/>
            </g>
            <g opacity=".3">
                <path d="M5.917.256C5.88.236 5.837.224 5.795.22c-.168-.013-.337.005-.5.05-.273.065-.72.216-.631.376.046.085.314.108.474.117.238.014.477.003.714-.033.206-.032.284-.104.298-.198.014-.094-.023-.23-.233-.276zM8.634 3.422c-.027-.014-.057-.022-.086-.026-.12-.008-.24.004-.357.036-.194.046-.511.154-.449.268.033.06.224.077.338.084.17.01.34.001.507-.024.147-.023.203-.074.213-.141.01-.067-.016-.163-.166-.197zM.758 2.035c-.021-.01-.044-.017-.067-.02-.093-.006-.186.003-.276.028-.15.036-.397.12-.348.208.026.046.173.06.262.064.131.008.263.002.393-.018.113-.018.157-.057.165-.11.008-.051-.013-.126-.129-.152z" style="mix-blend-mode:multiply" transform="translate(0 61) translate(24 23)"/>
            </g>
            <g opacity=".3">
                <path d="M12.426 3.954c.049-.013.092-.04.126-.08.076-.109-.059-.236-.176-.33-.38-.295-.84-.441-1.308-.415-.185-.005-.351.122-.408.312-.045.168 0 .348.115.47.2.154.447.224.692.197.326.035.656-.018.96-.154zM1.417 5.744c.034-.01.065-.03.089-.057.054-.078-.042-.168-.125-.235-.27-.21-.599-.315-.931-.296-.132-.003-.25.088-.29.223-.033.119-.001.247.081.334.143.11.318.16.493.14.232.025.467-.012.683-.11zM6.239.556c.027-.007.05-.022.069-.044.043-.06-.032-.13-.097-.182C6.002.167 5.747.086 5.49.1c-.103-.002-.194.069-.225.173-.025.093 0 .192.063.26.11.084.246.123.381.108.18.02.363-.01.53-.085z" style="mix-blend-mode:multiply" transform="translate(0 61) translate(51 17)"/>
            </g>
            <g opacity=".3">
                <path d="M9.109.542C9.049.513 8.986.495 8.921.49c-.26-.018-.52.007-.774.075-.42.097-1.11.322-.974.56.072.126.484.161.733.175.367.02.736.004 1.101-.049.32-.049.44-.155.463-.296.022-.14-.036-.341-.361-.412zM13.307 5.26c-.043-.02-.088-.034-.134-.038-.185-.013-.37.005-.55.054-.3.068-.791.229-.694.399.05.089.345.114.521.124.262.014.525.003.784-.035.228-.035.314-.11.33-.211.015-.1-.026-.243-.257-.293zM1.138 3.194c-.033-.016-.067-.026-.103-.03-.144-.01-.288.004-.427.042-.232.053-.613.177-.538.309.04.07.267.089.405.096.203.012.406.002.607-.027.176-.027.243-.085.255-.163.012-.077-.02-.188-.199-.227z" style="mix-blend-mode:multiply" transform="translate(0 61) translate(72 19)"/>
            </g>
            <g opacity=".3">
                <g>
                    <path d="M12.84 3.776c.05-.011.094-.036.129-.072.078-.098-.06-.212-.18-.297-.387-.265-.858-.397-1.335-.373-.19-.005-.359.11-.416.28-.047.151-.002.314.117.423.205.14.455.202.706.178.333.032.67-.016.98-.139zM1.602 5.387c.035-.008.066-.026.09-.051.057-.07-.042-.151-.127-.212-.276-.189-.611-.283-.95-.266-.135-.003-.255.079-.296.2-.034.108-.002.224.083.301.146.099.324.144.502.127.238.022.477-.012.698-.099zM6.524.718c.027-.006.052-.02.07-.04.044-.054-.032-.117-.098-.164-.214-.146-.474-.219-.737-.206-.104-.002-.197.061-.229.156-.025.083 0 .172.064.233.113.076.251.11.39.097.184.018.37-.008.54-.076z" style="mix-blend-mode:multiply" transform="translate(0 61) translate(11 4) translate(0 2.25)"/>
                </g>
                <g>
                    <path d="M9.655.185C9.595.16 9.53.143 9.464.137c-.264-.016-.53.006-.786.068-.428.086-1.128.29-.99.504.073.113.492.145.745.157.374.019.748.004 1.118-.044.324-.044.447-.14.47-.267.022-.125-.036-.306-.366-.37zM13.918 4.431c-.043-.018-.089-.03-.136-.034-.188-.012-.376.004-.56.048-.303.062-.802.206-.703.359.051.08.35.103.53.112.265.013.532.002.796-.032.23-.031.317-.099.333-.19.016-.088-.025-.218-.26-.263zM1.56 2.571c-.034-.014-.07-.023-.106-.026-.146-.01-.292.003-.433.037-.236.048-.623.16-.546.278.04.063.271.08.41.087.207.01.413.002.618-.024.178-.025.246-.077.258-.147.013-.07-.02-.17-.202-.205z" style="mix-blend-mode:multiply" transform="translate(0 61) translate(11 4) translate(18.484 2.25)"/>
                </g>
                <g>
                    <path d="M12.944 3.499c.049-.012.093-.037.128-.072.078-.098-.06-.213-.18-.297-.387-.266-.858-.398-1.335-.374-.19-.004-.358.11-.416.281-.046.15-.001.314.117.423.205.139.455.202.705.177.334.032.671-.016.98-.138zM1.705 5.11c.035-.009.067-.026.091-.052.056-.07-.043-.151-.128-.211-.275-.19-.611-.283-.95-.266-.135-.003-.256.078-.297.2-.033.107 0 .223.084.3.145.1.324.144.502.127.237.023.477-.011.698-.098zM6.627.44c.027-.006.052-.02.07-.04C6.742.348 6.666.285 6.6.238 6.385.09 6.125.017 5.862.031c-.104-.002-.197.06-.229.155-.026.083 0 .173.065.233.112.077.25.112.388.098.184.018.37-.009.54-.076z" style="mix-blend-mode:multiply" transform="translate(0 61) translate(11 4) translate(38.39 .45)"/>
                </g>
                <g>
                    <path d="M1.712 5.387c.035-.008.067-.026.09-.051.056-.07-.042-.151-.127-.212-.275-.189-.61-.283-.95-.266-.135-.003-.255.079-.296.2-.033.108-.001.223.083.301.146.099.325.144.503.127.237.022.477-.012.697-.099zM6.635.718c.027-.006.051-.02.07-.04.044-.054-.033-.117-.1-.164C6.393.368 6.134.295 5.87.308 5.765.306 5.672.37 5.64.464c-.025.083 0 .172.065.233.113.076.252.11.39.097.184.018.37-.008.54-.076z" style="mix-blend-mode:multiply" transform="translate(0 61) translate(11 4) translate(83.89 2.25)"/>
                </g>
                <g>
                    <path d="M6.213.477C6.173.459 6.13.448 6.085.444 5.908.434 5.73.45 5.558.49c-.287.058-.758.195-.665.339.05.075.33.097.5.105.251.012.502.002.751-.03.218-.03.3-.093.315-.179.015-.084-.024-.206-.246-.248zM9.075 3.327c-.029-.013-.06-.02-.09-.023-.127-.008-.254.003-.376.032-.205.041-.54.139-.473.241.035.054.235.07.356.075.178.009.357.002.534-.021.155-.021.213-.067.224-.127.01-.06-.017-.147-.175-.177zM.78 2.078c-.022-.01-.046-.015-.07-.017-.098-.006-.197.002-.292.025-.158.032-.417.107-.366.186.027.042.182.054.276.059.138.006.277 0 .414-.017.12-.016.165-.052.174-.099.008-.046-.014-.113-.136-.137z" style="mix-blend-mode:multiply" transform="translate(0 61) translate(11 4) translate(47.396 4.95)"/>
                </g>
                <g>
                    <path d="M12.667 3.806c.049-.012.093-.037.127-.073.08-.098-.059-.212-.179-.296-.387-.266-.858-.398-1.335-.374-.19-.004-.359.11-.416.281-.046.15-.001.313.117.423.205.138.456.202.706.177.333.032.67-.016.98-.138zM1.428 5.416c.035-.008.066-.026.09-.051.057-.07-.042-.151-.127-.211-.276-.19-.611-.283-.95-.267-.135-.002-.255.08-.297.2-.033.108 0 .224.084.302.145.098.324.143.502.126.238.022.477-.011.698-.099zM6.35.747c.028-.006.052-.02.07-.04.044-.054-.032-.117-.098-.163-.214-.147-.474-.22-.737-.206-.104-.002-.197.06-.229.155-.026.083 0 .173.065.233.112.076.25.111.388.098.185.017.37-.009.542-.077z" style="mix-blend-mode:multiply" transform="translate(0 61) translate(11 4) translate(73.938)"/>
                </g>
            </g>
        </g>
        <g>
            <g transform="translate(22 35) translate(.87)">
                <mask id="prefix__b" fill="#fff">
                    <use xlink:href="#prefix__a"/>
                </mask>
                <path fill="#9CC436" stroke="#091E15" stroke-opacity=".128" stroke-width=".25" d="M59.74 15.971c-.552-.535-1.296-1.157-1.296-1.157-1.51-1.224-2.63-1.684-7.118-5.507-1.495-1.274-2.212-1.94-3.506-2.5-.634-.275-4.4-1.905-7.713 0-3.723 2.142-6.196 8.361-8.414 9.164-.349.127-.565.073-.701 0-.807-.43-.596-2.477-.701-4.165-.221-3.551-1.888-6.304-2.805-7.498-1.718-2.24-3.838-2.965-4.908-3.333-4.063-1.392-7.572.133-9.116.834-2.955 1.34-4.7 3.272-7.011 5.832 0 0-4.575 4.313-6.307 9.426-.034.102-.055.2-.055.2-.022.17.023.337.05.37.213.26 2.959-2.954 6.312-3.332 1.844-.208 3.443.335 4.908.833.784.267.963.467 1.777.74 1.871.629 3.438.602 4.23.596 6.768-.051 8.587 1.019 10.12-.503 1.359-1.348 1.117-3.386 1.403-3.332.561.107.293 5.797 0 9.164-.212 2.416-.335 3.837-.702 5.832-.405 2.202-.655 2.649-.701 4.165-.042 1.387.135 2.035.111 3.012-.008.346-.042.628-.111 1.154-.68 5.155-1.957 8.768-.652 10.033 1.044 1.01 3.847.62 5.164-.869 2.18-2.465.486-8.168-.305-10.83 0 0-.618-2.116-.701-4.166v-1.666-9.164c-.105-.838-.257-1.347 0-1.667.295-.365.963-.277 1.402 0 .329.207.473.483.702.834 0 0 .169.276 1.402 1.666 1.107 1.248 5.034.143 6.968-.19 3.536-.608 6.31.35 10.329 1.737 2.431.84 4.243 1.864 5.641 2.792.407-.353.953-.577 1.643-.577 1.903 0 2.728 1.683 2.48 3.148.198.007.385-.039.564-.153 2.044-1.296-.243-8.848-2.382-10.923" mask="url(#prefix__b)"/>
            </g>
            <path fill="#5C8300" d="M29.692 12.376c-.003-.33-.074-.65-.122-.975-.033-.014-.06-.032-.08-.06-.025-.02-.037-.047-.038-.08l.012.04c-.045-.156-.12-.307-.194-.451-.032-.063-.065-.125-.09-.19l-.01-.032c-.316-.054-.66-.088-.988-.152-2.235-.434-2.275-2.268-4.5-2.939-1.292-.39-2.925-.034-4.251-.01-1.642.031-3.289.006-4.93.105-.185.011-.573-.067-1.051.06-.873.232-1.457.887-1.813 1.4-.127-.04-.468-.133-.86 0-.61.208-.831.787-.861.87-.127-.042-.469-.134-.86 0-.611.207-.832.786-.861.867-.444.124-1.09.363-1.722.869-.198.158-.209.194-.861.868-.566.586-1.147 1.158-1.721 1.737l-.86.868-1.722 1.737c-.628.725-.805 1.215-.805 1.215-.079.216-.059.257-.042.27.123.095.847-.617.847-.617 1.542-1.114 1.656-1.182 1.82-1.273.596-.329.87-.392 1.481-.785 1.003-.647 1.04-.83 1.616-1.091.854-.387 1.62-.286 2.158-.217.143.02.27.046.393.075.381-.759 1.119-1.324 2.218-1.324 1.962 0 2.777 1.788 2.452 3.281.064.02.126.042.19.061.282.086.663.201 1.084.307.955.748 4.962 1.149 5.045.74 2.6 1.306 6.747 1.405 8.66-1.15 1.094-1.46 1.184-3.428 1.344-3.905-.04-.029-.078-.069-.078-.12M62.935 23.848c-.027-.032-.045-.07-.061-.11-.037-.016-.073-.034-.101-.065-.052-.052-.095-.113-.153-.159l.044.035c-.058-.038-.107-.084-.143-.144l-.04-.096c-.026-.02-.054-.04-.076-.066-.016-.02-.032-.04-.05-.058l-.064-.061-.06-.065c-.053-.054-.09-.118-.11-.192l-.004-.027c-.207-.059-.304-.255-.289-.448-.09-.091-.185-.19-.271-.274-.344-.333-.549-.464-.86-.868-.262-.339-.442-.668-.574-.956-.062.01-.126.009-.182-.007-.109-.03-.196-.105-.257-.2l-.024-.034c-.133-.169-.293-.316-.46-.45-.09-.066-.18-.132-.276-.192-.135-.083-.2-.223-.202-.369-.038 0-.078.002-.112-.007-.095-.026-.17-.09-.229-.168l.001.001c-.038-.05-.085-.09-.132-.131-.147-.103-.308-.183-.453-.29-.065-.038-.116-.09-.154-.155l-.033-.079c-.093-.013-.184-.047-.251-.114-.241-.238-.438-.517-.685-.75-.032-.03-.066-.06-.1-.089l-.009-.007-.027-.02c-.073-.053-.148-.102-.225-.15-.15-.093-.304-.18-.451-.275-.196-.126-.258-.36-.163-.569-.733-.637-1.529-1.373-2.339-1.599-.274-.076-.522-.175-.756-.284L52 14.254c-5.264-.906-6.744-1.752-9.379-1.688-.742.018-1.902.117-3.336.556-.206.117-.473.249-.8.348-.289.087-.6.146-.933.174-.242.247-.532.45-.845.626-.18.153-.364.3-.536.46-.114.107-.23.228-.362.318-.023.03-.043.06-.066.089l-.007.01c-.024.027-.042.06-.067.088-.043.047-.097.076-.154.097-.024.033-.05.067-.073.102-.019.027-.043.046-.065.069-.014.023-.03.045-.043.069l-.004-.003-.032.046c-.008.011-.014.025-.023.036l-.007.007c-.005.007-.006.015-.011.022-.02.025-.048.04-.073.06-.02.017-.038.037-.06.05l-.033.027c-.002.002-.005.001-.007.003l-.024.023-.042.047c-.037.062-.088.111-.13.17l-.011.032c-.039.128-.127.219-.236.27-.029.046-.058.092-.09.135-.013.026-.029.05-.04.075l-.007-.005c-.023.03-.036.065-.061.093-.009.007-.01.01-.012.01-.104.17-.3.337-.68.43h-.872c-.722.203-.876.345-.87.44.012.223.911.214 1.433.933.043.06.075.113.094.146 0 0 .17.276 1.402 1.666 1.107 1.248 5.035.143 6.968-.19 3.615-.622 6.486.376 10.33 1.737 6.014 2.13 10.47 6.193 11.042 5.497.029-.035.033-.063 0-.869-.05-1.258-.076-1.887-.094-1.966-.056-.232-.147-.443-.249-.646z" transform="translate(22 35)"/>
            <path fill="#457A00" d="M33.584 18.21c-.12-.09.836-2.11 3.041-3.683.109-.077.186-.13.21-.145.8-.527 2.962-1.649 7.503-1.232 2.157.198 7.205.734 12.622 4.819 3.593 2.71 5.542 5.62 5.61 5.536.078-.099-2.64-4.086-7.013-7.498-2.342-1.829-4.474-3.493-7.713-4.234-1.068-.244-4.77-1.045-8.414.689-4.047 1.925-5.681 5.874-5.846 5.749" transform="translate(22 35)"/>
            <g transform="translate(22 35) translate(0 11.86)">
                <mask id="prefix__d" fill="#fff">
                    <use xlink:href="#prefix__c"/>
                </mask>
                <path fill="#546D12" d="M29.783.73l-.03-.107c-.006-.01-.014-.016-.019-.025-.013-.028-.022-.056-.031-.085-.018-.062-.031-.125-.047-.187-.025-.087-.06-.168-.1-.248-.408.368-1.119 1.479-2.39 2.033-.588.255-.708-.05-3.58.274-1.024.115-2.052.216-3.08.18-1.038-.036-2.102.15-3.134.022-2.075-.256-3.979-1.51-6.04-1.811C9.236.47 7.184 1.215 5.25 2.215c-.74.383-1.457.887-2.148 1.425-.25.263-.519.49-.814.674-.655.624-1.213 1.396-1.89 1.979-.023.02-.045.022-.068.036-.19.39-.271.64-.271.64-.08.285-.06.339-.043.356.126.124.87-.814.87-.814C2.472 5.042 2.59 4.953 2.758 4.833c.613-.434 6.722-2.193 8.103-1.38.661.39 1.639.966 2.701 1.38.29.113.683.265 1.115.405.982.986 5.102 1.513 5.188.974 3.546 1.5 7.2.763 8.904-1.514 1.002-1.339 1.096-2.896 1.064-3.783-.017-.062-.035-.123-.05-.185" mask="url(#prefix__d)"/>
            </g>
            <g transform="translate(22 35) translate(27 13)">
                <mask id="prefix__f" fill="#fff">
                    <use xlink:href="#prefix__e"/>
                </mask>
                <path d="M3.392 6.294c-.241 2.802-.383 4.451-.804 6.765-.278 1.53-.567 3.044-.72 3.684-.006.03-.237.999-.244 1.03v3.473c.01 1.56.041 1.483 0 1.737-.148.926-.4.9-.461 1.737-.015.196-.002.205 0 1.737v.434c-.003.535-.17 1.44-.923 3.04-.065.226-.169.718 0 1.302.084.294.317.882.923 1.303.693.481 1.453.45 1.846.434.828-.034 2.259-.367 2.769-1.303.584-1.07-.704-1.703-1.472-4.936-.461-1.942-.476-3.8-.5-4.375-.078-1.955.333-2.69.81-5.249.307-1.636.469-3.114.56-4.442-.014-.02-.025-.042-.024-.068.003-.082.002-.164.005-.246-.003-.066-.003-.131-.004-.197-.029-.175-.006-.364 0-.538l.006-.132v-.026l.002-.004c.008-.198.017-.395.03-.59.001-.02.008-.034.014-.05v-.042c-.003-.012-.01-.023-.01-.037-.002-2.756-.081-5.515-.583-8.23-.007-.041.01-.076.038-.108-.11-.713-.226-1.368-.338-1.913C4.134.37 3.95.264 3.77.15l.054.035c-.026-.017-.053-.031-.08-.044-.054 2.033-.198 4.368-.352 6.153" mask="url(#prefix__f)"/>
            </g>
            <path fill="#457A00" d="M29.873 11.325c-.015-.047-.027-.095-.044-.142-.07-.195-.151-.383-.263-.559-.029-.044-.051-.09-.077-.136-.1-.123-.204-.238-.326-.349-.395-.197-.829-.444-1.305-.808-.484-.37-.692-.622-.957-.833-1.862-1.474-4.788-2.46-7.657-2.497-1.02-.014-3.153.078-6.7 1.665-6.86 3.068-10.826 8.07-10.528 8.325.29.249 4.01-4.556 11.485-6.66 2.27-.64 6.748-1.775 11.486 0 2.28.855 3.915 2.122 5.013 3.214-.048-.31-.09-.622-.109-.938-.005-.09-.01-.186-.018-.282" transform="translate(22 35)"/>
        </g>
    </g>
</svg>
