<svg xmlns="http://www.w3.org/2000/svg" xmlns:xlink="http://www.w3.org/1999/xlink" width="53" height="87" viewBox="0 0 53 87">
    <defs>
        <path id="a" d="M.29.15h18.365V47H.29z"/>
    </defs>
    <g fill="none" fill-rule="evenodd">
        <g transform="translate(29 40)">
            <mask id="b" fill="#fff">
                <use xlink:href="#a"/>
            </mask>
            <path fill="#D2A88A" d="M12.881 8.842c-.159 2.862-.131 4.686-.881 5.198-.254.172-.293-.024-1.27-.106 0 0-2.069-.205-3.491.883-.07.053-.252.193-.237.273.016.091.275.065.423.035.423-.085.678-.352.898-.511.676-.488 1.576-.359 2.118.175.207.205.373.369.372.616 0 .554-.825.831-2.744 2.116-.802.537-1.146.815-1.797 1.023-1.135.363-1.566-.012-1.694-.14-.22-.223.227.3.019.033-.3-.388-.544-1.845-1.54-1.161-.416.285-1.032.179-1.392.3-.518.177-1.156.404-1.373 1.059-.038.116.34.007.62-.204.244-.183.322-.26.402-.318.187-.138.516-.278 1.131-.247h.085c.25.005.885.052 1.201.467.208.273.194.46.373.617.299.262.71-.156.847.07.084.138.003.412-.05.582-.365 1.143-.684 2.147-1.526 2.802-.489.38-.51.14-.898.511-.68.648-.914 1.663-1.051 2.256-.117.509-.066.569-.05.581.083.072.362-.191.474-.546.079-.251.01-.349.051-.581.024-.14.117-.516.948-1.094.516-.357.6-.297.898-.511.756-.544.74-1.316 1.475-2.22.13-.16.546-.462 1.372-1.058 1.118-.807 1.677-1.21 2.27-1.57 1.295-.782 1.224-.54 1.797-1.022.385-.326.655-.637.898-.511.265.137.37.73.322 1.198-.037.347-.182.852-1 1.674-.562.564-.695.528-2.27 1.57-.974.641-1.745 1.198-2.22.987-.046-.02-.217-.104-.424-.036-.27.09-.509.412-.474.547.044.173.558.107.847.07.23-.03.356-.071.423.035.082.129.033.403-.05.582-.177.377-.534.386-.899.511-.666.229-.5.552-1.847 1.604-.165.13-.318.242-.453.361-.218.193 1.297-.539 1.775-.838.186-.116.424-.247.898-.511.751-.417.753-.392.898-.511.5-.412.454-.686.949-1.093.43-.353.463-.146.898-.511.218-.184.585-.553.948-1.093.23-.34.327-.556.475-.546.216.013.342.499.373.616.268 1.034-.143 2.444-.73 3.454-.325.56-.696.928-1.423 1.639-.95.929-1.255 1.05-1.847 1.604-1.558 1.458-2.752 4.075-2.473 3.895.041-.027.641-1.374.943-1.53 1.023-.53.645-.68 1.242-1.31 1.244-1.31 1.929-1.732 2.01-1.593.024.04-.931 1.314-1.45 2.317-.354.683-.439.834-.526 1.128-.235.791-1.906 2.293-1.937 2.258-.02-.021.678-.515 1.644-1.628.266-.307.84-.992.84-.992s.157-.1.35-.149c.01-.002.01-.003.012-.002.11.051-1.113 2.692-.985 2.597.24-.18 1.384-3.431 1.54-4.147.182-.842.829-1.695 1.433-1.797.17-.028.296-.05.424.036.747.494.797 4.141-.51 5.814-.44.564-1.16 1.062-1.474 2.22-.02.078-.136.512-.05.582.194.16 1.158-1.813 1.423-1.64.257.169-.571 2.078-.407 4.652.015.245.072 1.172.145 2.324.17 2.71.422 6.667.413 5.921-.015-1.071-.018-1.61.152-1.744.07-.055.245-1.212.38-2.503.134-1.294.227-2.723.13-3.312-.362-2.17.374-4.577.83-4.616.188-.016.374.4.746 1.233.265.595.383 1.034.745 1.233.036.02.328.181.423.035.193-.298-.591-1.641-.694-1.814-.66-1.12-.993-1.147-1.118-1.85-.081-.457.014-.698.153-1.744.183-1.381-.078-2.096.204-2.326.126-.104.327-.1.423.035.252.355-.441 1.33-.204 2.326.09.377.29.66.373.617.159-.085-.202-1.34.152-1.745.206-.234.597-.12.848.07.11.083.338.29.716 1.734.091.348.19.77.3 1.278.07.323.147.707.321 1.198.234.658.403 1.118.745 1.234.179.059.195-.56.052-.582-.17-.027-.175-.826-.272-1.78 0 0-.016-.161-.051-.433a25.75 25.75 0 0 0-.219-1.346l-.073-.382c-.195-1.012-.34-1.689-.57-2.144a1.5 1.5 0 0 0-.373-.486c-.481-.402-.857-.135-1.22-.687-.213-.324.012-5.582.086-5.85.4-1.447.798-1.98 1.051-2.255.09-.098.68-.726.898-.511.281.28-.542 1.512-.255 2.907.12.582.313.61.695 1.814.123.39.25.792.321 1.198.3 1.72.316 5.99.762 5.92.131-.02.057-4.045-.017-4.687-.036-.318-.105-.915.102-1.163.297-.353 2.363 2.598 2.761 2.571.27-.018-2.87-4.133-3.032-4.35-.744-1-.612-3.198-.118-3.524.158-.103.338-.01.424.035.286.149.284.438.746 1.233.136.235.372.617.372.617s.286.162.423.035c.118-.108.15-.45.051-.582-.101-.135-.261.063-.423-.034-.243-.147-.078-.707-.322-1.198-.1-.202-.15-.155-.796-.652-.509-.391-.43-.385-.796-.651-.547-.399-.699-.397-.796-.652-.164-.428.047-1.004.102-1.163.572-1.67.187-4.962.763-8.721.776-5.054 2.665-6.88 1.984-8.035-.514-.871-2.099-.695-3.016.336-.929 1.046-1.073 3.31-1.323 7.797" mask="url(#b)"/>
        </g>
        <path fill="#C6C680" d="M16 9.623c.06.312.19.807.491 1.278.535.838 1.533 1.472 2.086 1.032.224-.18.242-.43.396-.778.53-1.2 1.865-1.77 2.699-1.77 1.506-.002 2.44 1.852 3.11 3.182 1.023 2.03 2.654 2.247 3.343 4.51.672 2.205-.482 3.05 1.117 6.588.686 1.517.679 1.68 1.025 2.152 1.34 1.828 2.858 1.329 4.482 2.095 4.202 1.985 5.828 10.912 5.087 14.028-.062.261-.23.85-.173 1.619.136 1.876 1.404 2.1 1.515 3.43.149 1.776-2.032 2.354-2.425 5.072-.256 1.773.422 3.25-.079 3.676-.37.315-.842-.41-1.241-.127-.7.495-.787 3.81.411 4.953 1.482 1.415 4.423-.982 5.535-1.89 1.217-.991 4.116-3.355 5.21-7.652 1.43-5.614-1.179-10.771-3.138-14.646-.671-1.327-2.177-3.397-5.16-7.487-6.154-8.432-6.81-8.56-7.873-11.446-1.36-3.691-.961-5.315-2.859-8.479-.872-1.454-2.286-3.744-4.842-4.588-.72-.238-2.984-.986-5.404.675C17.229 6.48 16.284 8.838 16 9.623"/>
        <path fill="#809C27" d="M21.419 7c.263-.142 1.517-.78 2.917-.258.174.065.42.159.682.354.734.547.956 1.395 1.092 2.137l.085.472c-.868 1.45-1.738 2.899-2.607 4.348l-1.16 1.933-1.448 2.415c-.529.866-1.8 2.946-3.87 4.929-1.251 1.198-1.467 1.09-3.683 3.092-1.088.984-1.632 1.475-2.131 2.03-2.63 2.922-2.944 5.97-3.477 5.797-.64-.207.215-4.477-1.383-5.314-1.655-.866-4.534 2.679-5.73 1.932-.267-.166-.45-.544-.019-4.541.24-2.23.347-2.57.374-3.672.049-1.962-.24-2.843-.309-4.059-.118-2.07.528-3.438 1.823-6.087 1.949-3.986 3.051-6.242 5.898-8.311 3.043-2.211 6.162-2.815 7.281-2.995 2.181-.352 6.363-1.026 8.562.965 1.439 1.302 1.375 3.152 1.281 3.963"/>
        <path fill="#67810C" d="M8.093 25.187c-.212-4.2.673-8.37 2.23-12.275 1.692-4.243 4.899-7.716 9.653-9.28L20 3.615c-.158-.789-.65-2.539-2.323-3.28-2.557-1.134-6.095.881-7.94 1.931A16.927 16.927 0 0 0 4.12 7.478C2.19 10.355 1.875 12.83 1.32 17.2c-.37 2.907-.54 4.399.18 6.296.424 1.113.943 1.842 1.483 3.692.303 1.039.308 1.392.757 3.557.803 3.879 1.08 4.172 1.367 4.24 1.29.302 2.81-3.966 4.547-3.704.045.007.085.027.128.04-.9-1.93-1.574-3.872-1.688-6.134"/>
        <path fill="#BFDA6A" d="M13.296 3c-.098.156-.196.314-.296.483.35 1.501 4.662 9.453 6.705 11.393.044.043.09.082.135.124.064-.325.117-.61.16-.84-3.107-2.55-5.319-6.646-6.704-11.16"/>
        <path fill="#BFDA6A" d="M14.124 9.867A107.755 107.755 0 0 0 20.461 17a18.6 18.6 0 0 0 .539-.462C16.233 12.342 12.232 7.24 9.87 2c-.293.26-.581.542-.87.844 1.549 2.399 3.282 4.75 5.124 7.023"/>
        <path fill="#BFDA6A" d="M1.343 21.984c1.758-.49 3.599-.869 5.287-1.505 1.457-.55 2.684-1.297 4.173-1.824 1.552-.55 3.168-1.01 4.727-1.55 1.166-.405 2.333-.831 3.477-1.263.322-.122.659-.252.993-.39-.012-.152-.02-.306-.037-.452a106.71 106.71 0 0 0-4.066 1.417c-4.149 1.531-8.28 3.037-12.56 4.385-.775.245-1.555.482-2.337.715.1.171.2.33.3.483.014-.006.031-.013.043-.016M11.943 19.405c-1.97.683-3.958 1.315-5.934 1.982-1.291.436-2.633.92-4.009.962l.073.651.103-.025c1.014-.232 2.024-.476 3.03-.736 1.994-.514 3.964-1.1 5.929-1.706a81.354 81.354 0 0 0 5.7-1.99c.551-.216 1.135-.431 1.719-.662.161-.323.307-.61.446-.881-2.363.77-4.709 1.591-7.057 2.405"/>
        <path fill="#8D5932" d="M34.022 29.284c2.809.494 6.522 1.488 8.78 2.336 3.592 1.35 5.328 2.723 6.979 4.177 1.237 1.092 2.695 2.856 2.995 3.733.318.932.204 1.817.204 1.817s-.021.885-.448 1.777c-.356.745-2.098 2.4-3.473 3.327-1.832 1.237-3.739 2.381-7.482 3.273-2.353.56-6.169 1.084-9.02 1.223-.608.057-1.228.07-1.857.03-6.306-.394-11.086-5.629-10.675-11.69.41-6.063 5.854-10.658 12.16-10.263.63.039 1.243.129 1.837.26"/>
        <path fill="#9A663F" d="M40.685 37.08c.16-.342 1.692.468 3.072 1.46 1.51 1.088 5.873 4.229 5.166 6.99-.317 1.243-1.639 2.325-2.134 2.239-.217-.038-.386-.137-.386-.137-.236-.138-.285-.292-.497-.48a1.604 1.604 0 0 0-.522-.308.795.795 0 0 0-.386-.136c-.297-.02-.525.156-.788.363-.554.436-.831.654-.928.74-.385.345-.78.538-1.568.922-1.413.69-3.023 1.126-3.6 1.266-1.805.438-4.733.848-6.921.956-.466.045-1.154.062-1.425.024-.997-.144-1.81-.218-2.998-.722-1.712-.726-.075-.455-.286-1.098-.236-.718-1.676-3.322-1.462-4.967.313-2.414 3.128-4.57 8.441-4.488 2.286.035 7.468 1.287 7.856-.753.166-.872-.769-1.582-.634-1.872z"/>
        <path fill="#A07556" d="M25.001 45.321s-.078 1.6 1.17 2.296c1.25.696 4.972.294 6.773-.035 1.802-.328 5.757-1.13 6.393-1.413.635-.284.739-.776.62-1.031-.118-.256-.245-.387-.717-.477-.473-.09-3.002-.116-3.473-.206-.473-.09-3.655-.527-4.055-.674-.4-.149-2.824-.665-3.365-.759-.54-.094-2.06.127-2.627.404-.567.277-.719 1.895-.719 1.895"/>
    </g>
</svg>
