<svg xmlns="http://www.w3.org/2000/svg" width="111" height="112" viewBox="0 0 111 112">
    <g fill="none" fill-rule="evenodd" transform="translate(4 9)">
        <ellipse cx="46.5" cy="47" fill="#A8DBF4" stroke="#A8DBF4" stroke-width="9" rx="51" ry="51.5" transform="translate(5)"/>
        <g fill="#805430" fill-rule="nonzero">
            <path d="M0 1.757l.007.012c.464-.004.91.187 1.24.531.331.344.518.813.522 1.302.03 1.34.92 2.563 1.54 3.682.147.263.297.523.447.784.403.582.808 1.163 1.208 1.748.144.207.24.447.278.7.279.435.56.867.85 1.296 1.349 1.997 2.628 4.068 4.012 6.049 1.487.9 2.648 2.297 3.302 3.97.168.165.34.327.51.49 2.276.563 4.39 2.401 4.898 4.71.377.38.755.758 1.135 1.135.98-.237 1.928-.333 2.427-.12 1.589.682 3.098 1.483 4.552 2.286.1.055.2.113.3.172.044-.031.294-.109.311-.056.032.096.058.193.08.29.956.677 2.03 1.148 3.16 1.384 1.337.201.04.905-.55 1.158-.41.175-.829.325-1.255.451.044.086.08.176.105.269h46.605c-.223-.557-.166-1.196.151-1.7.318-.503.853-.805 1.426-.803.304-.95 1.245-1.497 2.167-1.26.114.034.225.07.334.108.733-.58 1.585-.97 2.487-1.14.74-.936 1.66-1.694 2.7-2.225.417-.242.822-.507 1.213-.793.165-.384.336-.755.51-1.107 1.026-2.085 2.784-3.407 4.146-5.139.255-.49.577-.938.955-1.33.242-.255.551-.427.887-.495.713-1.14 1.537-2.197 2.457-3.156 1.096-1.14 2.032-2.44 2.78-3.86.822-1.598 2.226-3.274 2.7-5.002.144-.48.463-.88.887-1.11.017-.647.03-1.295.032-1.942-.011-.481.164-.946.484-1.289-1.79-.158-4.366-.36-7.48-.51-5.487-.264-8.292-.389-11.238 0-5.171.683-4.8 1.779-8.43 1.824-4.875.06-5.455-1.919-10.301-1.824-3.719.073-3.882 1.248-8.43 1.824-4.842.612-5.211-.65-10.77-.608-6.778.05-6.949 1.932-13.58 1.823-3.13-.051-4.135-.487-6.202-.734-.398-.047-.763-.08-1.109-.105-1.158-.081-2-.065-2.242-.062-3.034.036-5.106-1.347-8.242-.314-.482.165-.952.369-1.405.608C10.394 4.709 6.688 5.03 0 1.757z" transform="translate(0 60)"/>
            <path d="M96.038 2.025c-6.617-.41-5.82-.258-7.141-.404C81.92.854 79.324-1.235 77.28 1.01c-.61.67-1.177 1.732-2.286 1.908-1.141.18-1.928-.724-2.825-1.296-1.955-1.244-3.712-.448-6.04 0-4.473.86-4.849-.759-11.152-.612-3.455.08-3.825.579-8.377 1.15-5.627.706-6.208-.067-19.57.284-3.272.086-6.542.18-9.81.282-3.167.095-6.211.347-9.324.597-1.97.158-3.923.267-5.897.29.025.277.08.55.162.814.502.003 1 .097 1.473.278.394.202.298.476.073.701-.255.231-.549.407-.866.518.224.4.458.79.664 1.167.04.074.083.147.124.22.169-.03.338-.062.51-.09.938-.17 1.885-.278 2.835-.327.956-.036 2.082.051 2.304.52.204.433-.22.902-.697 1.276-.647.496-1.383.842-2.161 1.017-.353.087-.73.162-1.114.23.053.127.09.26.11.398.278.442.56.88.85 1.317 1.338 2.01 2.608 4.097 3.981 6.092 1.475.908 2.627 2.314 3.276 4 .167.166.337.33.506.493 2.258.567 4.357 2.419 4.86 4.745.374.382.75.763 1.126 1.142.972-.238 1.913-.335 2.408-.12 1.577.686 3.074 1.493 4.517 2.302.1.056.2.114.299.173.042-.03.29-.109.307-.056.032.097.057.194.08.292.948.682 2.014 1.156 3.134 1.394 1.328.203.04.912-.544 1.167-.407.176-.823.327-1.246.454.044.086.079.177.105.271h46.24c-.22-.562-.163-1.204.151-1.712.315-.507.847-.811 1.415-.81.302-.956 1.235-1.507 2.15-1.268.113.034.223.07.331.109.728-.585 1.574-.978 2.469-1.15.734-.942 1.647-1.706 2.678-2.24.414-.244.815-.51 1.203-.8.164-.386.334-.76.506-1.113 1.019-2.101 2.763-3.433 4.115-5.177.252-.494.571-.945.946-1.34.24-.257.548-.43.881-.498.708-1.148 1.525-2.213 2.438-3.18 1.088-1.148 2.017-2.457 2.76-3.887.43-.853 1.025-1.73 1.558-2.623-.067-.007-.136-.01-.202-.018-.627-.075-1.526-.204-1.744-.503-.192-.263.268-.512.75-.654.658-.178 1.329-.3 2.005-.367.124-.283.228-.575.311-.874.14-.473.447-.868.855-1.101-.251-.031-.503-.063-.74-.105-.633-.114-1.548-.293-1.818-.588-.272-.298.198-.58.83-.713.587-.1 1.184-.125 1.776-.075.002-.164.008-.328.008-.492.001-.158.018-.315.052-.469-1.2-.084-2.909-.2-4.962-.327zM10.92 4.078c-.307.115-.627.184-.95.206-.744.098-1.497.047-2.222-.148-.153-.06-.02-.175.146-.202.484-.077.964-.157 1.43-.254.047-.01.095-.015.143-.013.54-.155 1.099-.223 1.658-.202.185.01.217.092.139.153l-.014.01c.09.024.141.064.14.125 0 .12-.288.247-.47.325zm7.966 1.169c-1.081.423-2.263.443-3.356.058-1.005-.411-.777-.979.312-1.316l.03-.008c1.002-.473 2.116-.6 3.187-.364 1.325.35.696 1.236-.173 1.63zm15.688-.62c-.436.12-.885.18-1.336.177-1.461.03-2.923-.044-4.375-.225-.682-.077-1.369-.167-2.006-.298-.39-.057-.77-.177-1.128-.356-.087-.056.023-.129.12-.165 1.117-.357 2.271-.561 3.436-.606.733-.14 1.473-.234 2.216-.283.693-.093 1.397-.032 2.067.18.494.186.931.512 1.266.945.137.216.187.474-.26.63zm9.672-.685c-.088.253-.726.38-1.232.448-.667.084-1.338.13-2.009.141-.76.043-1.523.022-2.28-.06-.748-.117-.96-.44-.616-.738.636-.55 2.404-.44 3.58-.35 1.127 0 2.73.06 2.557.56zM66.564 6.1c-1.88.16-3.73-.276-4.75-.946-.468-.307-.776-.687-.442-1.045.444-.335.972-.519 1.515-.525 1.003-.062 2.009-.051 3.01.031.919-.115 1.845-.136 2.767-.062.867.106 1.256.428 1.232.8-.056.822-1.396 1.583-3.332 1.747zm10.85-1.276c-.933-.033-2.658-.277-2.635-.781.01-.247.394-.479.99-.511.348-.02.688-.002 1.03.015.031-.004.063-.006.094-.004 1.038.044 2.058-.14 3.035.09.454.108.635.316.367.514-.893.477-1.883.71-2.88.677zm13.571 1.174c-.54.357-1.12.637-1.728.832-1.762.53-3.59.765-5.418.696-.924-.022-1.844-.141-2.746-.355-.621-.157-1.31-.393-1.52-.703-.362-.537.988-.904 1.952-1.095 1.265-.251 2.624-.395 3.966-.547.041-.005.083-.006.124-.002.942-.102 1.89-.13 2.836-.081.52-.023 1.039-.027 1.545 0 .779.042 1.645.197 1.59.593-.034.238-.302.465-.6.662zm.552-2.965c-.328.367-1.438.42-2.229.396-.826.009-1.65-.104-2.448-.334-.134-.054-.043-.144.082-.185.347-.102.703-.163 1.063-.182 1.349-.265 4.254-.505 3.532.305zm3.279 1.49c-.515-.05-1.932-.227-1.46-.573.478-.2.998-.258 1.505-.167h.091c.216-.018.432-.021.647-.012.099.005.152.026.17.054.41.052.74.156.831.345.18.373-1.27.403-1.784.353z" opacity=".3" style="mix-blend-mode:multiply" transform="translate(0 60)"/>
            <path d="M88.82 16.577c-2.719.103-5.42.108-8.149.079-1.669-.018-3.345-.042-5.017-.025-1.452.057-2.896.173-4.356.157-1.784-.02-3.581-.168-5.318-.325-2.629-.238-5.223-.544-7.876-.737-2.58-.204-5.173-.21-7.754-.017-4.853.384-9.394 1.196-14.367 1.351-5.266.194-10.54.077-15.793-.35-2.517-.221-5.006-.514-7.38-.921-1.576-.27-3.168-.567-4.81-.789.765 1.135 1.534 2.27 2.336 3.376 1.492.872 2.659 2.224 3.315 3.844.17.16.341.316.513.474 2.285.544 4.409 2.324 4.919 4.56.378.368.757.734 1.139 1.098.983-.229 1.936-.323 2.437-.116 1.596.66 3.111 1.436 4.571 2.213.101.053.202.11.302.166.043-.03.294-.104.312-.054.032.093.058.187.08.28.96.657 2.039 1.112 3.173 1.34 1.343.196.04.877-.552 1.123-.412.168-.832.314-1.26.436.044.083.08.17.105.26h46.8c-.223-.54-.166-1.158.153-1.645.319-.488.856-.78 1.432-.778.305-.92 1.25-1.45 2.176-1.22.113.033.225.068.335.105.736-.562 1.592-.94 2.498-1.105.743-.905 1.667-1.64 2.711-2.153.419-.234.825-.49 1.217-.768.166-.371.339-.73.512-1.07 1.031-2.02 2.796-3.3 4.165-4.976.256-.475.578-.909.958-1.288.243-.247.554-.413.891-.479.518-.817 1.108-1.584 1.762-2.292-2.064.063-4.119.168-6.18.246z" opacity=".3" style="mix-blend-mode:multiply" transform="translate(0 60)"/>
            <path d="M81.275 25.703c-3.155.387-6.023 1.044-9.444.895-3.375-.147-6.4-.738-9.581-1.164-1.844-.275-3.706-.42-5.57-.434-2.016.038-4.029.19-6.028.456-4.202.517-8.144 1.295-11.997 2.13-3.546.817-7.163 1.29-10.8 1.41-1.29.031-2.577.02-3.855-.027 1.076.49 2.118 1.017 3.132 1.546.101.053.201.108.302.164.043-.03.294-.103.312-.053.032.091.057.183.08.275.96.644 2.038 1.09 3.172 1.315 1.343.191.04.86-.551 1.1-.412.166-.833.309-1.26.429.044.08.079.166.105.255h46.795c-.223-.53-.166-1.136.153-1.614.318-.479.856-.766 1.431-.764.306-.902 1.25-1.422 2.176-1.197.114.032.226.067.335.103.737-.55 1.592-.922 2.498-1.084.743-.888 1.667-1.609 2.71-2.112.42-.23.826-.482 1.218-.754.128-.28.26-.55.392-.813-1.898-.26-3.822-.28-5.725-.062z" opacity=".3" style="mix-blend-mode:multiply" transform="translate(0 60)"/>
            <g opacity=".3">
                <path d="M.7 1.37C.338 1.35.303 1.253.27 1.142.214.976.182.805.173.632.17.481.378.352.844.332c.447-.01.893.031 1.329.124.677.078 1.42.172.86.448-.347.153-.714.264-1.092.333-.405.097-.822.141-1.24.133zM2.26 2.46c.283.135.592.223.91.259.394-.193.855-.238 1.285-.125.119.03.235.063.35.097.766-.523 1.657-.875 2.6-1.029.146-.172.304-.336.473-.49-.522-.065-1.052-.062-1.572.01-.434.048-.864.118-1.29.21-.347.038-.684.094-.999.15-.556.084-1.1.225-1.62.42-.342.144-.413.332-.137.497z" style="mix-blend-mode:multiply" transform="translate(0 60) translate(75 28)"/>
            </g>
            <g opacity=".3">
                <path d="M1.277 1.625l.302.181c.043-.032.293-.114.311-.058.031.098.056.198.079.297.677-.01 1.343-.192 1.947-.53.204-.156.066-.32-.28-.404-.767-.098-1.54-.122-2.31-.071-.025-.001-.049 0-.072.004-.26-.014-.52-.028-.785-.013-.064.004-.129.012-.192.023.336.19.67.38 1 .571zM11.306 1.984c-.386-.022-.782-.018-1.177 0-.72-.038-1.443-.017-2.16.063-.032-.003-.063-.002-.095.002-1.022.12-2.057.233-3.02.43-.478.071-.941.231-1.37.473.525.272 1.083.46 1.656.556.666.105.68.34.454.584.332.041.673.068 1.022.08 1.393.055 2.785-.13 4.126-.547.463-.153.906-.373 1.317-.654.228-.155.432-.334.457-.521.043-.31-.618-.433-1.21-.466zM12.479.64c-.25.288-1.095.33-1.698.31C10.152.957 9.525.87 8.917.688 8.815.645 8.884.574 8.98.542c.264-.08.536-.128.81-.143 1.027-.208 3.24-.397 2.69.24zM14.977 1.811c-.393-.039-1.472-.179-1.113-.45.365-.158.76-.204 1.147-.132h.07c.163-.014.328-.017.492-.01.076.004.116.02.13.043.312.04.564.123.633.271.136.293-.968.317-1.36.278zM19.864 4.754c-.408.131-.836.16-1.255.084-.225-.014-.447-.035-.663-.062-.477-.059-1.162-.16-1.328-.395-.146-.207.204-.403.572-.514.538-.15 1.087-.251 1.64-.303.505-.073 1.016-.099 1.525-.077 1.448.127.147 1.038-.491 1.267zM22.094 2.152c-1.021.023-2.042-.047-3.053-.21-.486-.043-.958-.2-1.385-.463-.207-.233.15-.456.633-.56.625-.096 1.26-.102 1.886-.018.35.032.695.074 1.036.122.029-.007.058-.01.087-.01.584.002 1.168.044 1.747.124.464.065 1.18.19 1.242.442.12.49-1.409.567-2.193.573zM26.84 1.191c-.039-.049.069-.102.157-.122.836-.141 1.684-.176 2.527-.102.023-.004.047-.007.07-.007.665-.006 1.765-.099 1.976.297.156.293-.929.446-1.402.476-1.1.07-2.902.01-3.329-.542zM38.778 3.669c-.667.526-1.943.88-3.315.904-.963-.006-1.923-.131-2.861-.374-.953-.173-1.885-.467-2.776-.877-.537-.294-.707-.743.13-.975.464-.11.936-.173 1.41-.188.638-.038 1.283-.05 1.925-.05.283 0 .566.002.848.006.05-.041.112-.064.176-.066.224-.016.446-.034.67-.052 1.056-.084 2.526-.236 3.473.074 1.074.353.903 1.138.32 1.598zM41.585 1.324c-.366.277-1.293.216-1.886.16-.322-.026-.643-.07-.96-.134-.092-.012-.182-.039-.267-.08l-.013-.01c-.093-.026-.185-.057-.275-.093-.106-.043-.025-.127.097-.158.033-.02.069-.033.106-.04.74-.135 1.491-.185 2.241-.15.301-.004.6.046.887.148.187.092.21.251.07.357z" style="mix-blend-mode:multiply" transform="translate(0 60) translate(26 29)"/>
            </g>
            <g opacity=".3">
                <path d="M11.72 4.113c.045-.012.085-.04.116-.08.072-.109-.053-.236-.162-.33-.35-.295-.776-.441-1.208-.415-.17-.004-.323.123-.375.313-.042.167-.001.347.106.469.184.154.411.224.638.197.301.036.606-.017.886-.154zM1.29 5.995c.095-.005.187-.037.268-.092.032-.009.06-.029.082-.057.05-.078-.038-.168-.115-.235-.25-.21-.553-.314-.86-.296-.113-.002-.216.077-.258.2.304.136.599.296.884.48zM6.01.715c.024-.007.046-.022.064-.044.038-.06-.03-.13-.09-.182C5.79.326 5.555.245 5.317.26 5.223.257 5.14.328 5.11.433c-.023.092 0 .191.059.258.102.086.227.124.352.109.166.02.334-.01.488-.085z" style="mix-blend-mode:multiply" transform="translate(0 60) translate(14 17)"/>
            </g>
            <g opacity=".3">
                <path d="M5.917.256C5.88.236 5.837.224 5.795.22c-.168-.013-.337.005-.5.05-.273.065-.72.216-.631.376.046.085.314.108.474.117.238.014.477.003.714-.033.206-.032.284-.104.298-.198.014-.094-.023-.23-.233-.276zM8.634 3.422c-.027-.014-.057-.022-.086-.026-.12-.008-.24.004-.357.036-.194.046-.511.154-.449.268.033.06.224.077.338.084.17.01.34.001.507-.024.147-.023.203-.074.213-.141.01-.067-.016-.163-.166-.197zM.758 2.035c-.021-.01-.044-.017-.067-.02-.093-.006-.186.003-.276.028-.15.036-.397.12-.348.208.026.046.173.06.262.064.131.008.263.002.393-.018.113-.018.157-.057.165-.11.008-.051-.013-.126-.129-.152z" style="mix-blend-mode:multiply" transform="translate(0 60) translate(23 23)"/>
            </g>
            <g opacity=".3">
                <path d="M11.47 3.954c.045-.013.085-.04.116-.08.07-.109-.054-.236-.162-.33-.35-.295-.776-.441-1.208-.415-.17-.005-.324.122-.376.312-.042.168 0 .348.106.47.185.154.412.224.639.197.301.035.606-.018.886-.154zM1.308 5.744c.032-.01.06-.03.082-.057.05-.078-.038-.168-.116-.235-.249-.21-.552-.315-.859-.296-.121-.003-.23.088-.268.223-.03.119 0 .247.076.334.132.11.293.16.454.14.215.025.432-.012.631-.11zM5.759.556c.025-.007.047-.022.064-.044.04-.06-.03-.13-.09-.182C5.54.167 5.305.086 5.067.1 4.973.099 4.89.17 4.86.274c-.023.093 0 .192.058.26.103.084.228.123.352.108.167.02.335-.01.489-.085z" style="mix-blend-mode:multiply" transform="translate(0 60) translate(49 17)"/>
            </g>
            <g opacity=".3">
                <path d="M8.458.542C8.403.513 8.344.495 8.284.49 8.042.47 7.8.496 7.565.564c-.39.097-1.031.322-.905.56.067.126.45.161.68.175.342.02.685.004 1.024-.049.296-.049.409-.155.43-.296.02-.14-.034-.341-.336-.412zM12.356 5.26c-.04-.02-.081-.034-.124-.038-.172-.013-.344.005-.511.054-.278.068-.734.229-.644.399.047.089.32.114.484.124.243.014.487.003.728-.035.211-.035.291-.11.305-.211.015-.1-.023-.243-.238-.293zM1.057 3.194c-.03-.016-.063-.026-.096-.03-.133-.01-.267.004-.396.042-.216.053-.57.177-.5.309.037.07.248.089.376.096.188.012.377.002.564-.027.163-.027.225-.085.236-.163.012-.077-.018-.188-.184-.227z" style="mix-blend-mode:multiply" transform="translate(0 60) translate(69 19)"/>
            </g>
            <g opacity=".3">
                <g>
                    <path d="M12.276 3.776c.047-.011.09-.036.123-.072.075-.098-.057-.212-.172-.297-.37-.265-.82-.397-1.277-.373-.18-.005-.342.11-.397.28-.045.151-.002.314.112.423.195.14.435.202.674.178.32.032.641-.016.937-.139zM1.531 5.387c.034-.008.064-.026.087-.051.054-.07-.04-.151-.122-.212-.264-.189-.584-.283-.909-.266-.128-.003-.243.079-.282.2-.032.108-.001.224.08.301.139.099.31.144.48.127.226.022.455-.012.666-.099zM6.237.718c.026-.006.05-.02.068-.04.041-.054-.031-.117-.095-.164-.204-.146-.452-.219-.704-.206-.1-.002-.189.061-.219.156-.024.083 0 .172.061.233.108.076.24.11.372.097.176.018.354-.008.517-.076z" style="mix-blend-mode:multiply" transform="translate(0 60) translate(10 4) translate(0 2.25)"/>
                </g>
                <g>
                    <path d="M9.23.185C9.173.16 9.111.143 9.048.137c-.252-.016-.506.006-.751.068-.41.086-1.08.29-.947.504.07.113.47.145.713.157.357.019.714.004 1.069-.044.309-.044.427-.14.449-.267C9.6.43 9.546.25 9.23.185zM13.307 4.431c-.042-.018-.086-.03-.13-.034-.18-.012-.36.004-.535.048-.291.062-.768.206-.673.359.049.08.334.103.506.112.254.013.509.002.761-.032.22-.031.304-.099.32-.19.014-.088-.025-.218-.25-.263zM1.49 2.571c-.031-.014-.065-.023-.1-.026-.14-.01-.279.003-.414.037-.226.048-.595.16-.522.278.038.063.26.08.392.087.198.01.395.002.59-.024.171-.025.236-.077.248-.147.012-.07-.02-.17-.193-.205z" style="mix-blend-mode:multiply" transform="translate(0 60) translate(10 4) translate(17.672 2.25)"/>
                </g>
                <g>
                    <path d="M12.375 3.499c.047-.012.09-.037.122-.072.075-.098-.057-.213-.172-.297-.37-.266-.82-.398-1.276-.374-.181-.004-.343.11-.398.281-.044.15 0 .314.112.423.196.139.435.202.674.177.32.032.642-.016.938-.138zM1.63 5.11c.033-.009.064-.026.087-.052.053-.07-.04-.151-.122-.211-.264-.19-.584-.283-.91-.266-.128-.003-.243.078-.282.2-.032.107-.001.223.08.3.139.1.31.144.48.127.227.023.456-.011.667-.098zM6.336.44c.026-.006.05-.02.067-.04.042-.053-.031-.116-.095-.163-.204-.147-.452-.22-.704-.206-.1-.002-.188.06-.219.155-.024.083 0 .173.062.233.108.077.24.112.372.098.176.018.353-.009.517-.076z" style="mix-blend-mode:multiply" transform="translate(0 60) translate(10 4) translate(36.703 .45)"/>
                </g>
                <g>
                    <path d="M1.637 5.387c.033-.008.063-.026.086-.051.054-.07-.04-.151-.122-.212-.263-.189-.583-.283-.908-.266-.128-.003-.244.079-.283.2-.032.108 0 .223.08.301.14.099.31.144.48.127.227.022.456-.012.667-.099zM6.343.718c.026-.006.05-.02.068-.04.041-.054-.032-.117-.096-.164-.204-.146-.452-.219-.704-.206-.1-.002-.188.061-.219.156-.024.083 0 .172.062.233.108.076.24.11.373.097.176.018.353-.008.516-.076z" style="mix-blend-mode:multiply" transform="translate(0 60) translate(10 4) translate(80.203 2.25)"/>
                </g>
                <g>
                    <path d="M5.94.477C5.902.459 5.86.448 5.818.444c-.17-.01-.34.005-.504.046-.274.058-.725.195-.636.339.047.075.316.097.478.105.24.012.48.002.718-.03.208-.03.287-.093.301-.179C6.19.641 6.152.52 5.94.477zM8.676 3.327c-.027-.013-.057-.02-.087-.023-.12-.008-.241.003-.359.032-.195.041-.515.139-.452.241.034.054.225.07.34.075.171.009.342.002.511-.021.148-.021.204-.067.214-.127.01-.06-.016-.147-.167-.177zM.746 2.078c-.022-.01-.044-.015-.068-.017-.093-.006-.187.002-.278.025-.151.032-.4.107-.35.186.025.042.174.054.263.059.132.006.265 0 .396-.017.115-.016.158-.052.167-.099.007-.046-.013-.113-.13-.137z" style="mix-blend-mode:multiply" transform="translate(0 60) translate(10 4) translate(45.313 4.95)"/>
                </g>
                <g>
                    <path d="M12.11 3.806c.047-.012.09-.037.122-.073.075-.098-.057-.212-.171-.296-.37-.266-.821-.398-1.277-.374-.18-.004-.343.11-.398.281-.044.15 0 .313.113.423.195.138.435.202.674.177.319.032.641-.016.937-.138zM1.365 5.416c.033-.008.064-.026.087-.051.054-.07-.04-.151-.122-.211-.264-.19-.584-.283-.91-.267-.128-.002-.243.08-.282.2-.032.108 0 .224.08.302.139.098.31.143.48.126.227.022.456-.011.667-.099zM6.072.747c.025-.006.049-.02.066-.04C6.18.654 6.107.59 6.044.545 5.84.397 5.59.324 5.339.338c-.1-.002-.188.06-.218.155-.025.083-.001.173.062.233.107.076.24.111.37.098.177.017.355-.009.519-.077z" style="mix-blend-mode:multiply" transform="translate(0 60) translate(10 4) translate(70.688)"/>
                </g>
            </g>
        </g>
        <g fill-rule="nonzero">
            <path fill="#95BD36" d="M45.796 2c-.457.282-.973.595-1.566.948-3.08 1.838-5.681 4.37-7.592 7.393-1.93 3.91-4.348 9.873-4.841 9.936-1.524.196-10.626-4.413-15.693-4.739L15 17.101c12.359 2.323 15.276 6.099 15.875 8.174.292 1.01.066 2.798-.397 6.331-.712 5.435-1.162 8.864-2.497 12.784-1.944 5.708-3.225 4.998-6.385 12.239l-.456 1.051c2.702-.086 5.407.021 8.094.32.117-.321-.313-2.893-.234-3.24 2.48-11.035 3.204-7.574 5.43-15.589 1.405-5.05.834-7.66.532-10.625-.248-2.428-.402-3.595-.029-6.3.143-1.038.583-3.421 2.446-7.574 1.145-2.552 1.718-3.828 2.624-5.12C43.191 5.008 45.05 3.322 47 2.398c-.424-.123-.83-.257-1.204-.398z" transform="translate(21 22)"/>
            <path fill="#95BD36" d="M33 31.234c-.905.424-1.715 1.024-2.383 1.766-4.418-1.036-8.742-2.44-12.925-4.196-2.012-.847-3.908-1.743-5.692-2.668L13.116 25c.938.57 1.91 1.084 2.909 1.54 3.4 1.552 5.719 1.792 9.59 2.658.718.16 3.003.8 7.385 2.036z" transform="translate(21 22)"/>
            <g>
                <path fill="#95BD36" d="M21.286 3.478c-.927-1.004-2.11-1.76-3.432-2.193C15.578.486 13.122.278 10.736.682c-2.422.333-3.973 1.094-6.026 2.1C3.128 3.455 1.64 4.316.284 5.346c-.134.194-.23.41-.284.637.059.213.149.418.268.608 1.2-.394 2.467-.57 3.735-.516 1.277.13 2.525.453 3.697.958.208.08.355.145.488.208.135-.203.267-.313.377-.28 1.271.376 2.51.848 3.703 1.412 1.128.158 2.07.316 2.87.46 2.019-.011 4.032-.208 6.013-.589.168-.297.23-.522.333-.494.09.025.123.17.116.399.33-.074.66-.152.99-.24.025-.14.048-.279.064-.414.093-1.458-.396-2.894-1.368-4.017z" transform="translate(21 22) translate(0 10)"/>
                <path fill="#5C8000" d="M22.655 7.24c.025-.166.032-.333.02-.499-.023-.008-.043-.02-.059-.038-.01-.007-.017-.018-.019-.03-.023-.083-.056-.162-.1-.236-.019-.034-.035-.068-.05-.104l-.004-.017c-.25-.058-.526-.109-.785-.173-1.764-.436-1.574-1.355-3.301-1.908-1.004-.321-2.375-.304-3.456-.422-1.339-.146-2.675-.32-4.02-.433-.285-.05-.574-.075-.863-.073-.587.027-1.156.207-1.644.52-.225-.074-.463-.103-.7-.084-.305.013-.594.138-.806.349-.224-.075-.463-.104-.7-.085-.305.013-.593.138-.805.349-.512.02-1.019.11-1.505.264-.275.103-.544.22-.806.349-.532.236-1.074.465-1.61.697l-.806.349-.544.235c.054.126.121.246.199.36l.186.095.077-.016c.525-.106.755-.11 1.3-.246.894-.224.947-.312 1.446-.386.595-.074 1.2-.04 1.78.104.115.024.216.05.312.076.559-.411 1.274-.572 1.965-.443 1.347.163 1.871.882 1.734 1.531.867.226 1.74.435 2.636.607 1.744.334 3.522.248 5.262.558.891.172 1.803.224 2.71.154.816-.07 1.572-.412 2.388-.355.344-.44.504-.848.617-.982-.03-.019-.055-.042-.05-.068z" transform="translate(21 22) translate(0 10)"/>
                <path fill="#546D12" d="M22.838 7.293c-.007-.033-.01-.067-.015-.1-.01-.049-.028-.095-.051-.139-.686.387-1.433.661-2.212.812-.514.073-.573-.096-2.966-.213-.854-.042-1.708-.092-2.547-.212-.845-.121-1.74-.131-2.57-.3-1.667-.336-3.07-1.172-4.72-1.53-1.713-.299-3.471-.251-5.163.14-.657.131-1.304.305-1.937.521-.152.07-.308.13-.468.181.03.054.062.105.096.156.102.05.203.102.303.155l.075.02c1.408-.158 5.477-.324 6.373.16l.245.132c1.273.31 2.52.715 3.73 1.208.883.35 1.77.725 2.682 1.032.21.01.348-.008.374-.058.113.046.226.087.34.13 1.13-.05 2.302.127 3.4.143.524.002 1.046-.042 1.562-.133.936-.313 1.907-.521 2.893-.62.327-.359.545-.796.632-1.265l-.018-.1-.01-.058c-.005-.005-.01-.01-.013-.015-.007-.015-.012-.03-.015-.047z" transform="translate(21 22) translate(0 10)"/>
                <path fill="#457A00" d="M22.513 6.387c-.017-.025-.03-.05-.045-.076-.067-.074-.14-.143-.218-.205-.33-.152-.646-.33-.946-.53-.343-.232-.479-.378-.665-.509-1.758-1.081-3.748-1.763-5.82-1.993-1.852-.207-3.724-.149-5.557.172C4.359 3.963.919 5.553.052 6.143c.02.056.042.111.067.165 3.082-1.25 6.367-1.973 9.708-2.14 1.891-.095 5.607-.222 9.181 1.126 1.33.48 2.557 1.188 3.621 2.091-.003-.16.006-.319.026-.477l.02-.143c-.006-.024-.01-.05-.018-.074-.032-.108-.08-.21-.144-.304z" transform="translate(21 22) translate(0 10)"/>
            </g>
            <g>
                <path fill="#95BD36" stroke="#9CB63F" stroke-width=".3" d="M1.314.083C1.097.156.88.233.664.316c-.713 1.58-.118 2.74.458 3.938 2.232 2.28 6.182 3.144 7.68 2.095C10.24 5.34 10.335 1.927 7.885.933c-1.94-.787-4.29.424-6.294-.678-.1-.054-.19-.112-.277-.172z" transform="translate(21 22) translate(11 24)"/>
                <path fill="#457A00" d="M1.172.132C1.002.19.833.252.663.316.541.58.45.86.391 1.15c1.967 2.314 5.26 3.722 8.958 4.564.437-.833.518-1.839.22-2.745-.298-.905-.943-1.618-1.762-1.944-1.94-.787-4.29.424-6.294-.678-.118-.064-.231-.136-.34-.215z" transform="translate(21 22) translate(11 24)"/>
                <path fill="#5C8000" d="M1.419.05C1.166.132.914.22.662.317L.639.363c.46.312.955.556 1.472.727.113.054.222.113.33.172.204.04.405.1.6.178.322.089.642.183.953.286.038.013.077.025.115.039.277.094.543.198.795.313.14.05.351.144.408.16.292.08.577.185.853.315.074.037.144.079.214.12 1.4.435 3.137 1.28 2.875 2.735l.237.098c.423-.833.493-1.83.192-2.727-.302-.896-.944-1.6-1.756-1.922-1.94-.788-4.29.423-6.295-.678-.075-.042-.145-.085-.213-.13z" transform="translate(21 22) translate(11 24)"/>
            </g>
            <g>
                <path fill="#95BD36" d="M.77 5.475c.639-1.182 1.581-2.181 2.734-2.901C5.476 1.283 7.763.523 10.132.37c2.385-.23 4.046.152 6.244.658 1.669.289 3.293.783 4.835 1.47.174.157.318.344.424.55-.004.22-.04.439-.107.65-1.238-.108-2.486.011-3.68.351-1.184.417-2.293 1.013-3.286 1.768-.178.124-.303.221-.413.312-.179-.165-.33-.242-.427-.184-1.119.652-2.183 1.39-3.181 2.207-1.036.41-1.894.778-2.62 1.1-1.924.448-3.888.716-5.865.8-.232-.25-.346-.453-.438-.403-.079.044-.075.193-.013.412-.332.004-.666.003-1-.007C.546 9.925.49 9.796.442 9.67.001 8.28.118 6.78.77 5.475z" transform="translate(21 22) translate(37 1)"/>
                <path fill="#5C8000" d="M.38 9.422C.316 9.27.27 9.11.241 8.945c.02-.013.035-.03.046-.05.008-.01.012-.022.01-.034.002-.085.015-.169.038-.25.01-.037.018-.074.022-.112v-.017c.225-.114.475-.225.706-.346 1.572-.824 1.169-1.669 2.678-2.597.877-.539 2.186-.834 3.187-1.195 1.238-.446 2.467-.918 3.721-1.333.258-.114.527-.203.803-.267.565-.108 1.15-.064 1.691.128.196-.123.416-.205.646-.24.293-.058.598-.003.851.153.196-.124.416-.206.646-.241.293-.057.598-.002.85.153.493-.097.997-.126 1.497-.087.287.037.57.088.852.153.563.108 1.135.205 1.702.308.284.05.568.102.851.153l.575.104c-.022.134-.056.265-.102.393-.052.044-.103.09-.154.135l-.078.001c-.524.018-.745.066-1.296.058-.905-.013-.977-.086-1.47-.043-.585.063-1.151.235-1.67.506-.102.049-.192.097-.277.144-.632-.27-1.352-.263-1.978.02-1.242.464-1.567 1.278-1.278 1.874-.77.416-1.55.817-2.362 1.187-1.579.72-3.292 1.042-4.872 1.738-.806.37-1.662.627-2.54.766-.795.117-1.598-.04-2.36.2C.742 9.961.49 9.602.35 9.5c.023-.025.042-.054.03-.077z" transform="translate(21 22) translate(37 1)"/>
                <path fill="#546D12" d="M.219 9.516c-.002-.034-.007-.067-.01-.1-.002-.05.003-.098.015-.146.746.218 1.524.313 2.302.28.507-.045.522-.222 2.771-.88.803-.236 1.603-.478 2.372-.785.776-.31 1.624-.524 2.373-.875 1.505-.705 2.637-1.832 4.122-2.555 1.557-.678 3.241-1.033 4.946-1.04.658-.023 1.316-.002 1.97.063.162.032.325.055.49.068-.015.058-.034.115-.054.172-.084.072-.168.145-.25.22l-.067.037c-1.378.167-5.291.933-6.026 1.605l-.201.183c-1.137.59-2.225 1.265-3.257 2.017-.755.54-1.509 1.104-2.302 1.608-.198.058-.333.073-.37.03-.096.07-.194.135-.292.202-1.088.21-2.16.648-3.2.914-.499.12-1.007.197-1.52.227-.967-.09-1.941-.07-2.904.058-.397-.272-.711-.644-.908-1.077L.212 9.64c0-.02-.003-.039-.004-.058l.008-.017c.003-.016.004-.033.003-.049z" transform="translate(21 22) translate(37 1)"/>
                <path fill="#457A00" d="M.308 8.566c.01-.028.016-.056.025-.083.045-.087.098-.17.158-.249.277-.222.535-.465.771-.728.27-.302.364-.474.51-.643 1.41-1.445 3.139-2.557 5.055-3.252 1.711-.621 3.507-.991 5.33-1.098 4.84-.424 8.5.33 9.468.702-.006.059-.014.117-.024.175-3.236-.506-6.538-.458-9.758.143-1.823.338-5.39 1.062-8.465 3.179C2.23 7.477 1.234 8.442.44 9.558.404 9.403.357 9.25.3 9.102l-.054-.133c0-.026-.002-.05 0-.077.004-.11.025-.22.062-.326z" transform="translate(21 22) translate(37 1)"/>
            </g>
            <path fill="#95BD36" d="M22.227 6.817c1.019-.45 2.453.016 3.446.333 1.182.315 2.265.94 3.143 1.813.916 1.1 1.726 2.29 2.42 3.55.428.646.814 1.322 1.154 2.02.284.734.634 1.437 1.046 2.102.612.867 2.03.029 1.41-.849-.45-.76-.844-1.555-1.176-2.378-.426-.8-.89-1.576-1.392-2.327-.843-1.334-1.628-2.77-2.825-3.809-1.13-.913-2.443-1.559-3.843-1.893-1.374-.383-2.863-.609-4.207-.014-.387.236-.518.749-.293 1.15.234.391.726.524 1.118.302zM50.378 18.017c.123.469-.351 1.09-.594 1.453-.418.601-.885 1.164-1.397 1.684-1.184 1.246-2.585 2.253-4.13 2.97-1.84.871-3.79 1.52-5.693 2.233-.994.373-1.99.739-3.008 1.032-1.024.261-2.033.58-3.021.957-.946.394-.533 1.99.426 1.59 1.068-.4 2.155-.742 3.257-1.025 1.147-.34 2.267-.771 3.386-1.195 2.137-.722 4.229-1.58 6.262-2.568 1.597-.873 3.026-2.038 4.214-3.44.91-1.044 2.248-2.598 1.847-4.13-.13-.424-.563-.666-.98-.548-.418.118-.67.555-.569.987z" transform="translate(21 22)"/>
            <g>
                <path fill="#95BD36" stroke="#9CB63F" stroke-width=".3" d="M21.552 2.052c.066-.292.12-.585.162-.88-2.687-1.31-5.804-.865-8.982-.453C5.52 2.929-.385 7.673.352 9.832c.708 2.074 7.992 3.086 12.646.265 3.685-2.235 3.47-5.51 7.9-7.742.22-.11.438-.21.654-.303z" transform="translate(21 22) translate(40 15)"/>
                <path fill="#457A00" d="M21.592 1.86c.048-.228.089-.457.122-.688-.485-.237-.996-.425-1.523-.56C13.176 2.48 6.765 6.255 1.165 10.686c2.252 1.333 7.875 1.615 11.713-.712 3.685-2.234 3.47-5.509 7.9-7.742.274-.137.546-.26.814-.371z" transform="translate(21 22) translate(40 15)"/>
                <path fill="#5C8000" d="M21.518 2.193c.08-.34.146-.68.197-1.023-.026-.013-.051-.028-.077-.04-1.062.342-1.847.99-3.076 1.662-.234.127-.472.249-.71.37-.314.258-.647.495-.998.707-.522.383-1.053.76-1.593 1.124-.066.045-.133.091-.2.135-.488.323-.985.63-1.491.919-.25.162-.67.403-.765.47-.494.362-1.012.693-1.55.991-.156.084-.319.16-.48.239-2.372 1.647-5.972 3.61-8.852 2.9l-.454.272c2.292 1.301 7.85 1.556 11.651-.75 3.685-2.234 3.47-5.509 7.901-7.741.167-.084.332-.162.497-.235z" transform="translate(21 22) translate(40 15)"/>
            </g>
            <g>
                <path fill="#95BD36" stroke="#9CB63F" stroke-width=".3" d="M.635 1.738C.586 1.55.545 1.36.511 1.17 2.21.263 4.223.488 6.275.691c4.686 1.29 8.588 4.255 8.163 5.675-.408 1.363-5.068 2.171-8.123.43-2.42-1.378-2.355-3.512-5.253-4.874-.143-.067-.286-.127-.427-.184z" transform="translate(21 22) translate(14)"/>
                <path fill="#457A00" d="M.605 1.615C.57 1.467.538 1.319.511 1.17c.307-.165.63-.298.967-.396 4.551 1.072 8.757 3.396 12.456 6.164-1.417.913-5.025 1.212-7.545-.223C3.97 5.336 4.035 3.202 1.136 1.84c-.179-.084-.356-.159-.53-.225z" transform="translate(21 22) translate(14)"/>
                <path fill="#5C8000" d="M.66 1.83C.6 1.61.551 1.39.51 1.167c.017-.009.033-.02.05-.028.703.279 1.377.62 2.014 1.018.153.079.309.153.464.226.208.162.428.31.658.44.344.239.694.473 1.05.699.043.028.087.057.131.084.32.2.647.389.98.567.163.1.439.249.501.29.326.226.667.43 1.02.613.101.051.208.098.312.146 1.563 1.023 3.921 2.226 5.757 1.705l.298.168c-1.445.893-5.011 1.172-7.507-.25C3.818 5.468 3.883 3.334.985 1.972.876 1.92.768 1.874.66 1.829z" transform="translate(21 22) translate(14)"/>
            </g>
            <path fill="#95BD36" d="M7.003 30.747c.126 1.453 1.11 2.646 2.162 3.634 1.106 1.022 2.328 1.922 3.644 2.684 3.568 2.096 7.976 1.818 11.999 1.908 1.227.049 2.456.031 3.682-.053 1.235-.165 2.482-.231 3.728-.198 1.045.076 1.04-1.482 0-1.557-1.33-.026-2.66.047-3.978.218-1.272.071-2.548.08-3.82.024-2.378-.06-4.828.038-7.175-.392-1.962-.397-3.799-1.233-5.358-2.44-1.186-.865-3.121-2.266-3.256-3.828-.086-.992-1.714-1-1.628 0z" transform="translate(21 22)"/>
            <g>
                <path fill="#95BD36" stroke="#9CB63F" stroke-width=".3" d="M.507 1.632c-.04-.204-.07-.409-.096-.615C2.124.124 4.096.458 6.107.77c4.553 1.598 8.258 4.954 7.774 6.455-.465 1.442-5.089 2.092-8.016.087C3.547 5.724 3.71 3.441.92 1.849c-.138-.08-.275-.15-.412-.217z" transform="translate(21 22) translate(2 29)"/>
                <path fill="#457A00" d="M.483 1.498c-.028-.16-.052-.32-.072-.48.31-.163.635-.29.97-.38 4.43 1.358 8.464 4.041 11.978 7.177-1.438.913-5.003 1.066-7.417-.587C3.624 5.64 3.786 3.356.996 1.764c-.172-.098-.343-.186-.513-.266z" transform="translate(21 22) translate(2 29)"/>
                <path fill="#5C8000" d="M.528 1.73C.479 1.494.44 1.256.41 1.017c.017-.01.033-.02.05-.028.679.33 1.327.727 1.935 1.183.148.092.297.178.447.264.197.183.407.35.627.501.328.272.661.54 1 .797l.127.096c.306.23.619.447.937.653.157.115.422.286.481.334.31.256.636.491.975.703.098.06.2.114.302.17 1.49 1.168 3.756 2.567 5.587 2.093l.286.193C11.7 8.865 8.178 9 5.787 7.362 3.47 5.774 3.631 3.49.841 1.898c-.105-.06-.21-.115-.313-.167z" transform="translate(21 22) translate(2 29)"/>
            </g>
            <path fill="#95BD36" d="M31 39c.903-1.193 1.812-2.567 2.042-3.56 5.62-1.285 11.333-2.069 17.08-2.343 2.743-.126 5.37-.125 7.878-.022l-.821 2.048c-1.363-.157-2.733-.226-4.104-.206-4.69.064-7.529 1.116-12.475 2.3-.916.218-3.891.759-9.6 1.783z" transform="translate(21 22)"/>
            <g>
                <path fill="#95BD36" stroke="#9CB63F" stroke-width=".3" d="M14.896 5.551c.282-.212.561-.43.837-.654.249-2.21-1.207-3.16-2.655-4.162C8.658-.493 2.435.912.767 2.997-.835 4.999.746 8.903 4.837 8.549c3.24-.28 6.076-3.06 9.568-3.025.173.002.335.012.491.027z" transform="translate(21 22) translate(46 31)"/>
                <path fill="#457A00" d="M15.08 5.41c.219-.167.437-.338.653-.513.047-.367.04-.739-.02-1.103-4.049-1.425-9.585-1.03-15.428.247-.418 2.045 1.246 4.65 4.62 4.357 3.24-.28 6.076-3.06 9.568-3.025.203.002.405.014.607.038z" transform="translate(21 22) translate(46 31)"/>
                <path fill="#5C8000" d="M14.76 5.652c.329-.244.654-.497.975-.757.003-.021.008-.045.01-.066-.665-.166-1.508.034-2.524.068-.193.006-.382.006-.57.004-.319.077-.642.13-.968.16-.518.094-1.034.18-1.541.251l-.189.027c-.453.06-.895.102-1.323.125-.23.028-.587.049-.679.064-.465.086-.936.14-1.408.16-.127.003-.25-.003-.375-.006-2.271.351-5.242.446-5.59-1.353L.18 4.36c-.375 2.037 1.29 4.59 4.633 4.3 3.24-.28 6.076-3.06 9.568-3.025.131.002.256.008.378.017z" transform="translate(21 22) translate(46 31)"/>
            </g>
        </g>
    </g>
</svg>
