<svg xmlns="http://www.w3.org/2000/svg" width="111" height="112" viewBox="0 0 111 112">
    <defs>
        <linearGradient id="prefix__a" x1="102.963%" x2="-1.829%" y1="52.558%" y2="43.668%">
            <stop offset="31.96%" stop-color="#FFF" stop-opacity=".6"/>
            <stop offset="53.569%" stop-color="#D2D5FF" stop-opacity=".489"/>
            <stop offset="71.423%" stop-color="#D2D5FF"/>
        </linearGradient>
        <linearGradient id="prefix__b" x1="5246.125%" x2="5353.723%" y1="-762.258%" y2="-762.258%">
            <stop offset="31.96%" stop-color="#FFF" stop-opacity=".6"/>
            <stop offset="53.569%" stop-color="#D2D5FF" stop-opacity=".489"/>
            <stop offset="71.423%" stop-color="#D2D5FF"/>
        </linearGradient>
        <linearGradient id="prefix__c" x1="57.569%" x2="34.09%" y1="24.229%" y2="78.562%">
            <stop offset="31.96%" stop-color="#FFF" stop-opacity=".6"/>
            <stop offset="53.569%" stop-color="#D2D5FF" stop-opacity=".489"/>
            <stop offset="71.423%" stop-color="#D2D5FF"/>
        </linearGradient>
        <linearGradient id="prefix__d" x1="4739.067%" x2="4848.198%" y1="-657.575%" y2="-657.575%">
            <stop offset="31.96%" stop-color="#FFF" stop-opacity=".6"/>
            <stop offset="53.569%" stop-color="#D2D5FF" stop-opacity=".489"/>
            <stop offset="71.423%" stop-color="#D2D5FF"/>
        </linearGradient>
        <linearGradient id="prefix__e" x1="66.448%" x2="43.217%" y1="25.557%" y2="57.441%">
            <stop offset="31.96%" stop-color="#FFF" stop-opacity=".6"/>
            <stop offset="53.569%" stop-color="#D2D5FF" stop-opacity=".489"/>
            <stop offset="71.423%" stop-color="#D2D5FF"/>
        </linearGradient>
        <linearGradient id="prefix__f" x1="58.19%" x2="37.515%" y1="29.719%" y2="75.831%">
            <stop offset="31.96%" stop-color="#FFF" stop-opacity=".6"/>
            <stop offset="53.569%" stop-color="#D2D5FF" stop-opacity=".489"/>
            <stop offset="71.423%" stop-color="#D2D5FF"/>
        </linearGradient>
        <linearGradient id="prefix__g" x1="59.149%" x2="37.45%" y1="29.639%" y2="76.243%">
            <stop offset="31.96%" stop-color="#FFF" stop-opacity=".6"/>
            <stop offset="53.569%" stop-color="#D2D5FF" stop-opacity=".489"/>
            <stop offset="71.423%" stop-color="#D2D5FF"/>
        </linearGradient>
        <linearGradient id="prefix__h" x1="58.509%" x2="38.339%" y1="32.27%" y2="72.816%">
            <stop offset="31.96%" stop-color="#FFF" stop-opacity=".6"/>
            <stop offset="53.569%" stop-color="#D2D5FF" stop-opacity=".489"/>
            <stop offset="71.423%" stop-color="#D2D5FF"/>
        </linearGradient>
        <linearGradient id="prefix__i" x1="74.421%" x2="36.328%" y1="14.45%" y2="60.908%">
            <stop offset="31.96%" stop-color="#FFF" stop-opacity=".6"/>
            <stop offset="53.569%" stop-color="#D2D5FF" stop-opacity=".489"/>
            <stop offset="71.423%" stop-color="#D2D5FF"/>
        </linearGradient>
        <linearGradient id="prefix__j" x1="6454.61%" x2="6475.81%" y1="-707.299%" y2="-665.942%">
            <stop offset="31.96%" stop-color="#FFF" stop-opacity=".6"/>
            <stop offset="53.569%" stop-color="#D2D5FF" stop-opacity=".489"/>
            <stop offset="71.423%" stop-color="#D2D5FF"/>
        </linearGradient>
    </defs>
    <g fill="none" fill-rule="evenodd" transform="translate(9 9)">
        <ellipse cx="46.5" cy="47" fill="#A8DBF4" stroke="#A8DBF4" stroke-width="9" rx="51" ry="51.5"/>
        <path fill="#95BD36" fill-rule="nonzero" d="M47.772 46.26c1.324.18-1.443-.536.056-.028.336.113.688.236 1.022.339-1.594-.488-.223-.065.325.187.483.223.96.458 1.434.698.601.304 1.231.65.284.125.488.27.969.55 1.447.833 1.03.608 2.041 1.234 3.033 1.874 3.324 2.017 6.148 4.37 8.162 6.8 2.703 3.456 5.127 6.911 7.256 10.346 2.191 3.274 3.604 6.927 6.214 10.499 1.324 1.648 3.676 3.148 6.17 3.934 2.494.786 4.75.738 5.918-.126 1.169-.863 1.072-2.411-.254-4.06-.67-.916-.038.095-.514-.747-.273-.484-.525-.964-.769-1.444-.489-.961-.934-1.917-1.484-2.887-1.222-2.153-2.717-4.341-4.183-6.512-2.39-3.96-5.395-7.963-8.96-11.935-3.511-3.535-7.889-6.893-12.824-9.836-4.947-3.367-10.866-5.895-16.504-7.05-2.38-.375-4.183.136-4.729 1.34-.545 1.203.25 2.916 2.086 4.494 1.835 1.578 4.433 2.781 6.814 3.156z"/>
        <g fill-rule="nonzero">
            <path fill="url(#prefix__a)" d="M50.114 30.816c-1.947 1.356-5.773-5.024-19.59-11.04-9.044-3.937-13.566-5.906-16.287-6.169-2.452-.134-4.817-.939-6.825-2.324C5.107 9.594 3.57 7.04 4.108 6.413c.495-.577 2.328.966 5.326 1.189 2.524.06 5.009-.615 7.14-1.939 6.163-3.087 15.712-1.287 20.276.66 11.93 5.093 16.181 22.46 13.264 24.493z" transform="translate(13 12)"/>
            <path fill="url(#prefix__b)" d="M51.428 40.536c3.838-5.72.056-14.522-4.994-19.082-2.597-2.344-5.575-3.279-11.53-5.147-10.227-3.209-17.01-2.118-19.875-3.216-.222-.11-.482-.12-.712-.03-.93.538.426 4.144.976 5.92 2.604 8.426-1.7 12.04 1.22 17.183 1.38 2.43 3.608 3.565 8.063 5.836 3.923 2 9.575 4.88 16.55 3.742 2.43-.396 7.646-1.246 10.302-5.206z" transform="translate(13 12)"/>
            <path fill="url(#prefix__c)" d="M49.475 37.694c3.875-5.745-.239-14.767-5.585-19.5-2.749-2.432-5.865-3.438-12.098-5.45C21.089 9.288 14.056 10.27 11.053 9.1c-.23-.116-.498-.132-.74-.044-.956.529.528 4.222 1.135 6.039 2.882 8.617-1.522 12.21 1.62 17.496 1.485 2.497 3.826 3.694 8.507 6.087 4.121 2.107 10.058 5.142 17.291 4.116 2.52-.357 7.926-1.123 10.61-5.1z" transform="translate(13 12)"/>
            <path fill="url(#prefix__d)" d="M42.897 43.515c2.95-3.283-.51-9.39-4.583-13.372-8.398-8.216-18.488-6.517-29.955-16.264-3.24-2.754-4.92-5.002-6.48-4.874-2.75.227-2.322 7.608.247 13.768 3.475 8.01 9.798 14.613 17.87 18.667 3.226 1.691 9.701 5.088 16.388 4.49 1.136-.1 4.722-.421 6.513-2.415z" transform="translate(13 12)"/>
            <path fill="url(#prefix__e)" d="M48.373 35.903c-2.14 1.019-4.68-6.096-16.991-14.63-8.058-5.585-12.087-8.378-14.68-9.13-2.358-.572-4.507-1.807-6.2-3.561-1.928-2.115-2.95-4.965-2.312-5.5.587-.494 2.083 1.39 4.954 2.15 2.443.51 4.982.274 7.292-.679 6.555-2.01 15.498 1.51 19.571 4.29 10.648 7.264 11.575 25.532 8.366 27.06z" transform="translate(13 12)"/>
            <path fill="url(#prefix__f)" d="M42.897 43.515c2.95-3.283-.51-9.39-4.583-13.372-8.398-8.216-18.488-6.517-29.955-16.264-3.24-2.754-4.92-5.002-6.48-4.874-2.75.227-2.322 7.608.247 13.768 3.475 8.01 9.798 14.613 17.87 18.667 3.226 1.691 9.701 5.088 16.388 4.49 1.136-.1 4.722-.421 6.513-2.415z" transform="translate(13 12)"/>
            <path fill="url(#prefix__g)" d="M30.343 45.696c-4.485-1.778-8.796-3.964-12.878-6.53-4.332-2.694-7.905-6.438-10.385-10.882-1.178-1.91-2.207-3.905-3.077-5.971-.006-.148-.003-.297.008-.445.016-.176.061-.348.135-.508.122-.034.245-.065.366-.1.195-.057.529-.144.878-.26 10.828 8.857 20.037 7.699 28.017 15.24 3.749 3.542 7.035 8.826 4.938 11.76-.22-.038-.438-.076-.656-.117-2.512-.501-4.97-1.233-7.346-2.187z" transform="translate(13 12)"/>
            <path fill="url(#prefix__h)" d="M33.996 40.324c-5.218-2.023-10.248-4.487-15.033-7.364-5.022-2.97-9.23-7.098-12.258-12.027-1.4-2.084-2.636-4.27-3.697-6.54-.01-.161-.01-.322-.002-.482.014-.19.063-.376.144-.549.14-.034.282-.064.421-.1.224-.058.607-.144 1.008-.262 12.72 9.841 23.33 8.79 32.73 17.142 4.415 3.923 8.338 9.724 5.986 12.858-.254-.046-.508-.092-.761-.141-2.916-.6-5.773-1.448-8.538-2.535z" transform="translate(13 12)"/>
            <path fill="url(#prefix__i)" d="M50.442 35.957c-1.38.523-1.617-3.782-7.134-9.29-3.61-3.604-5.416-5.407-6.754-5.948-1.223-.417-2.252-1.246-2.902-2.338-.733-1.323-.83-3.048-.38-3.341.414-.27.942.9 2.435 1.457 1.39.385 2.87.339 4.232-.131 4.039-.947 8.496 1.469 10.33 3.265 4.79 4.695 2.242 15.54.173 16.326z" transform="translate(13 12)"/>
            <path fill="url(#prefix__j)" d="M46.213 35.91c-1.794.894-3.335-5.033-12.638-11.979-6.088-4.545-9.133-6.818-11.167-7.402-1.847-.434-3.507-1.443-4.737-2.88-1.401-1.742-2.023-4.116-1.47-4.577.507-.424 1.577 1.13 3.833 1.718 1.998.373 4.063.13 5.917-.699 5.417-1.804 12.364.993 15.446 3.254 8.054 5.91 7.506 21.226 4.816 22.566z" transform="translate(13 12)"/>
            <path fill="#5C8000" d="M40.61 40.501c-9.898-.855-12.758-.693-15.294 1.086-1.542 1.082-.802 1.245-3.187 3.303-4.006 3.458-6.746 3.559-8.306 6.58-.85 1.646-.97 3.421-.683 3.525.34.124 1.14-2.165 2.823-4.053 2.873-3.224 7.134-3.947 9.4-4.331 6.174-1.049 7.245 1.237 13.307.747 6.488-.525 12.567-3.734 12.323-5.22-.055-.333-.458-.78-10.384-1.637z" transform="translate(13 12)"/>
            <path fill="#457A00" d="M53.201 40.857c1.698-2.298.418-6.036-1.317-8.365-3.58-4.806-8.706-3.104-13.698-8.716-1.411-1.585-2.083-2.937-2.866-2.76-1.38.31-1.696 5.054-.862 8.88.32 1.464 1.73 7.46 7.531 10.99 1.48.9 4.45 2.707 7.809 1.92 1.347-.25 2.554-.942 3.403-1.949z" transform="translate(13 12)"/>
            <path fill="#93BB36" d="M46.67 22.05c-.56-2.916-.77-5.876-.626-8.831C46.458 5.918 49.114-.04 49.309 0c.092.02-.422 1.36-.715 3.49-.443 3.207-.116 6.24 2.37 14.912 1.715 5.986 1.902 5.734 2.325 8.108.707 3.961 1.18 10.228-.045 10.482-1.413.293-5.156-7.395-6.574-14.941zM49.996 43.956c.013.106-.004.213-.048.312-.968.217-1.818.451-2.218.547-3.837.935-7.753 1.573-11.708 1.906-4.203.34-8.416.121-12.564.968-3.322.5-6.427 1.831-8.969 3.845-.168.15-.33.306-.489.466 1.564-2.293 4.143-2.562 7.807-5.525 2.33-1.883 1.606-2.033 3.113-3.023 2.477-1.628 5.27-1.776 14.935-.993 9.694.785 10.087 1.192 10.14 1.497z" transform="translate(13 12)"/>
            <path fill="#5C8000" d="M52.87 41.49c.055.155.099.313.13.473-.66.39-1.386.675-2.147.844-3.372.786-6.352-1.021-7.836-1.921-5.822-3.53-7.237-9.526-7.557-10.99-.837-3.827-.52-8.57.864-8.88.367-.083.712.176 1.117.628.08.823.243 1.636.489 2.43.307 5.6 5.48 11.879 9.505 14.966 1.584 1.195 3.444 2.034 5.435 2.45z" transform="translate(13 12)"/>
        </g>
    </g>
</svg>
