<svg xmlns="http://www.w3.org/2000/svg" width="111" height="112" viewBox="0 0 111 112">
    <defs>
        <linearGradient id="prefix__a" x1="-7.25%" x2="105.45%" y1="66.254%" y2="22.848%">
            <stop offset="31.96%" stop-color="#FFF" stop-opacity=".6"/>
            <stop offset="53.569%" stop-color="#D4D7FF" stop-opacity=".489"/>
            <stop offset="71.423%" stop-color="#D4D7FF"/>
        </linearGradient>
        <linearGradient id="prefix__b" x1="-.714%" x2="103.42%" y1="55.434%" y2="46.836%">
            <stop offset="31.96%" stop-color="#FFF" stop-opacity=".6"/>
            <stop offset="53.569%" stop-color="#D4D7FF" stop-opacity=".489"/>
            <stop offset="71.423%" stop-color="#D4D7FF"/>
        </linearGradient>
        <linearGradient id="prefix__c" x1="43.673%" x2="63.121%" y1="24.464%" y2="77.047%">
            <stop offset="31.96%" stop-color="#FFF" stop-opacity=".6"/>
            <stop offset="53.569%" stop-color="#D4D7FF" stop-opacity=".489"/>
            <stop offset="71.423%" stop-color="#D4D7FF"/>
        </linearGradient>
        <linearGradient id="prefix__d" x1="1.373%" x2="98.158%" y1="47.509%" y2="51.623%">
            <stop offset="31.96%" stop-color="#FFF" stop-opacity=".6"/>
            <stop offset="53.569%" stop-color="#D4D7FF" stop-opacity=".489"/>
            <stop offset="71.423%" stop-color="#D4D7FF"/>
        </linearGradient>
        <linearGradient id="prefix__e" x1="36.188%" x2="58.777%" y1="29.898%" y2="56.229%">
            <stop offset="31.96%" stop-color="#FFF" stop-opacity=".6"/>
            <stop offset="53.569%" stop-color="#D4D7FF" stop-opacity=".489"/>
            <stop offset="71.423%" stop-color="#D4D7FF"/>
        </linearGradient>
        <linearGradient id="prefix__f" x1="55.838%" x2="40.957%" y1="39.888%" y2="58.741%">
            <stop offset="31.96%" stop-color="#FFF" stop-opacity=".6"/>
            <stop offset="53.569%" stop-color="#D4D7FF" stop-opacity=".489"/>
            <stop offset="71.423%" stop-color="#D4D7FF"/>
        </linearGradient>
        <linearGradient id="prefix__g" x1="42.475%" x2="60.333%" y1="31.044%" y2="74.578%">
            <stop offset="31.96%" stop-color="#FFF" stop-opacity=".6"/>
            <stop offset="53.569%" stop-color="#D4D7FF" stop-opacity=".489"/>
            <stop offset="71.423%" stop-color="#D4D7FF"/>
        </linearGradient>
        <linearGradient id="prefix__h" x1="42.991%" x2="59.607%" y1="33.069%" y2="71.923%">
            <stop offset="31.96%" stop-color="#FFF" stop-opacity=".6"/>
            <stop offset="53.569%" stop-color="#D4D7FF" stop-opacity=".489"/>
            <stop offset="71.423%" stop-color="#D4D7FF"/>
        </linearGradient>
        <linearGradient id="prefix__i" x1="25.962%" x2="62.484%" y1="11.321%" y2="61.904%">
            <stop offset="31.96%" stop-color="#FFF" stop-opacity=".6"/>
            <stop offset="53.569%" stop-color="#D4D7FF" stop-opacity=".489"/>
            <stop offset="71.423%" stop-color="#D4D7FF"/>
        </linearGradient>
        <linearGradient id="prefix__j" x1="32.384%" x2="57.459%" y1="21.843%" y2="58.802%">
            <stop offset="31.96%" stop-color="#FFF" stop-opacity=".6"/>
            <stop offset="53.569%" stop-color="#D4D7FF" stop-opacity=".489"/>
            <stop offset="71.423%" stop-color="#D4D7FF"/>
        </linearGradient>
        <linearGradient id="prefix__k" x1="58.225%" x2="32.615%" y1="105.7%" y2="-3.855%">
            <stop offset="31.96%" stop-color="#FFF" stop-opacity=".6"/>
            <stop offset="53.569%" stop-color="#D4D7FF" stop-opacity=".489"/>
            <stop offset="71.423%" stop-color="#D4D7FF"/>
        </linearGradient>
        <linearGradient id="prefix__l" x1="49.861%" x2="50.273%" y1="99.958%" y2=".187%">
            <stop offset="31.96%" stop-color="#FFF" stop-opacity=".6"/>
            <stop offset="53.569%" stop-color="#D4D7FF" stop-opacity=".489"/>
            <stop offset="71.423%" stop-color="#D4D7FF"/>
        </linearGradient>
        <linearGradient id="prefix__m" x1="26.983%" x2="72.73%" y1="54.035%" y2="41.922%">
            <stop offset="31.96%" stop-color="#FFF" stop-opacity=".6"/>
            <stop offset="53.569%" stop-color="#D4D7FF" stop-opacity=".489"/>
            <stop offset="71.423%" stop-color="#D4D7FF"/>
        </linearGradient>
        <linearGradient id="prefix__n" x1="44.575%" x2="53.357%" y1="96.492%" y2="4.705%">
            <stop offset="31.96%" stop-color="#FFF" stop-opacity=".6"/>
            <stop offset="53.569%" stop-color="#D4D7FF" stop-opacity=".489"/>
            <stop offset="71.423%" stop-color="#D4D7FF"/>
        </linearGradient>
        <linearGradient id="prefix__o" x1="25.878%" x2="57.487%" y1="66.354%" y2="40.981%">
            <stop offset="31.96%" stop-color="#FFF" stop-opacity=".6"/>
            <stop offset="53.569%" stop-color="#D4D7FF" stop-opacity=".489"/>
            <stop offset="71.423%" stop-color="#D4D7FF"/>
        </linearGradient>
        <linearGradient id="prefix__p" x1="40.024%" x2="59.383%" y1="42.287%" y2="61.864%">
            <stop offset="31.96%" stop-color="#FFF" stop-opacity=".6"/>
            <stop offset="53.569%" stop-color="#D4D7FF" stop-opacity=".489"/>
            <stop offset="71.423%" stop-color="#D4D7FF"/>
        </linearGradient>
        <linearGradient id="prefix__q" x1="35.105%" x2="69.489%" y1="54.668%" y2="43.663%">
            <stop offset="31.96%" stop-color="#FFF" stop-opacity=".6"/>
            <stop offset="53.569%" stop-color="#D4D7FF" stop-opacity=".489"/>
            <stop offset="71.423%" stop-color="#D4D7FF"/>
        </linearGradient>
        <linearGradient id="prefix__r" x1="36.744%" x2="67.333%" y1="54.354%" y2="44.095%">
            <stop offset="31.96%" stop-color="#FFF" stop-opacity=".6"/>
            <stop offset="53.569%" stop-color="#D4D7FF" stop-opacity=".489"/>
            <stop offset="71.423%" stop-color="#D4D7FF"/>
        </linearGradient>
        <linearGradient id="prefix__s" x1="14.636%" x2="61.011%" y1="71.028%" y2="40.184%">
            <stop offset="31.96%" stop-color="#FFF" stop-opacity=".6"/>
            <stop offset="53.569%" stop-color="#D4D7FF" stop-opacity=".489"/>
            <stop offset="71.423%" stop-color="#D4D7FF"/>
        </linearGradient>
        <linearGradient id="prefix__t" x1="26.657%" x2="59.31%" y1="63.781%" y2="44.605%">
            <stop offset="31.96%" stop-color="#FFF" stop-opacity=".6"/>
            <stop offset="53.569%" stop-color="#D4D7FF" stop-opacity=".489"/>
            <stop offset="71.423%" stop-color="#D4D7FF"/>
        </linearGradient>
        <linearGradient id="prefix__u" x1="100.548%" x2="-.323%" y1="49.669%" y2="50.904%">
            <stop offset="31.96%" stop-color="#FFF" stop-opacity=".6"/>
            <stop offset="53.569%" stop-color="#D4D7FF" stop-opacity=".489"/>
            <stop offset="71.423%" stop-color="#D4D7FF"/>
        </linearGradient>
        <linearGradient id="prefix__v" x1="97.077%" x2="8.581%" y1="56.949%" y2="42.688%">
            <stop offset="31.96%" stop-color="#FFF" stop-opacity=".6"/>
            <stop offset="53.569%" stop-color="#D4D7FF" stop-opacity=".489"/>
            <stop offset="71.423%" stop-color="#D4D7FF"/>
        </linearGradient>
        <linearGradient id="prefix__w" x1="48.225%" x2="53.097%" y1="65.765%" y2="33.572%">
            <stop offset="31.96%" stop-color="#FFF" stop-opacity=".6"/>
            <stop offset="53.569%" stop-color="#D4D7FF" stop-opacity=".489"/>
            <stop offset="71.423%" stop-color="#D4D7FF"/>
        </linearGradient>
        <linearGradient id="prefix__x" x1="91.099%" x2="11.773%" y1="57.797%" y2="45.295%">
            <stop offset="31.96%" stop-color="#FFF" stop-opacity=".6"/>
            <stop offset="53.569%" stop-color="#D4D7FF" stop-opacity=".489"/>
            <stop offset="71.423%" stop-color="#D4D7FF"/>
        </linearGradient>
        <linearGradient id="prefix__y" x1="67.016%" x2="42.924%" y1="72.019%" y2="43.372%">
            <stop offset="31.96%" stop-color="#FFF" stop-opacity=".6"/>
            <stop offset="53.569%" stop-color="#D4D7FF" stop-opacity=".489"/>
            <stop offset="71.423%" stop-color="#D4D7FF"/>
        </linearGradient>
        <linearGradient id="prefix__z" x1="37.138%" x2="69.396%" y1="58.758%" y2="39.89%">
            <stop offset="31.96%" stop-color="#FFF" stop-opacity=".6"/>
            <stop offset="53.569%" stop-color="#D4D7FF" stop-opacity=".489"/>
            <stop offset="71.423%" stop-color="#D4D7FF"/>
        </linearGradient>
        <linearGradient id="prefix__A" x1="48.064%" x2="52.406%" y1="56.343%" y2="42.395%">
            <stop offset="31.96%" stop-color="#FFF" stop-opacity=".6"/>
            <stop offset="53.569%" stop-color="#D4D7FF" stop-opacity=".489"/>
            <stop offset="71.423%" stop-color="#D4D7FF"/>
        </linearGradient>
        <linearGradient id="prefix__B" x1="48.193%" x2="52.262%" y1="55.522%" y2="43.421%">
            <stop offset="31.96%" stop-color="#FFF" stop-opacity=".6"/>
            <stop offset="53.569%" stop-color="#D4D7FF" stop-opacity=".489"/>
            <stop offset="71.423%" stop-color="#D4D7FF"/>
        </linearGradient>
        <linearGradient id="prefix__C" x1="59.867%" x2="45.778%" y1="68.657%" y2="39.752%">
            <stop offset="31.96%" stop-color="#FFF" stop-opacity=".6"/>
            <stop offset="53.569%" stop-color="#D4D7FF" stop-opacity=".489"/>
            <stop offset="71.423%" stop-color="#D4D7FF"/>
        </linearGradient>
        <linearGradient id="prefix__D" x1="54.298%" x2="48.507%" y1="61.246%" y2="41.759%">
            <stop offset="31.96%" stop-color="#FFF" stop-opacity=".6"/>
            <stop offset="53.569%" stop-color="#D4D7FF" stop-opacity=".489"/>
            <stop offset="71.423%" stop-color="#D4D7FF"/>
        </linearGradient>
        <linearGradient id="prefix__E" x1="102.783%" x2="-1.798%" y1="52.585%" y2="43.405%">
            <stop offset="31.96%" stop-color="#FFF" stop-opacity=".6"/>
            <stop offset="53.569%" stop-color="#D4D7FF" stop-opacity=".489"/>
            <stop offset="71.423%" stop-color="#D4D7FF"/>
        </linearGradient>
        <linearGradient id="prefix__F" x1="98.479%" x2="5.158%" y1="44.718%" y2="55.011%">
            <stop offset="31.96%" stop-color="#FFF" stop-opacity=".6"/>
            <stop offset="53.569%" stop-color="#D4D7FF" stop-opacity=".489"/>
            <stop offset="71.423%" stop-color="#D4D7FF"/>
        </linearGradient>
        <linearGradient id="prefix__G" x1="50.784%" x2="48.678%" y1="29.998%" y2="69.716%">
            <stop offset="31.96%" stop-color="#FFF" stop-opacity=".6"/>
            <stop offset="53.569%" stop-color="#D4D7FF" stop-opacity=".489"/>
            <stop offset="71.423%" stop-color="#D4D7FF"/>
        </linearGradient>
        <linearGradient id="prefix__H" x1="93.419%" x2="8.819%" y1="42.113%" y2="54.442%">
            <stop offset="31.96%" stop-color="#FFF" stop-opacity=".6"/>
            <stop offset="53.569%" stop-color="#D4D7FF" stop-opacity=".489"/>
            <stop offset="71.423%" stop-color="#D4D7FF"/>
        </linearGradient>
        <linearGradient id="prefix__I" x1="71.052%" x2="40.14%" y1="18.313%" y2="59.391%">
            <stop offset="31.96%" stop-color="#FFF" stop-opacity=".6"/>
            <stop offset="53.569%" stop-color="#D4D7FF" stop-opacity=".489"/>
            <stop offset="71.423%" stop-color="#D4D7FF"/>
        </linearGradient>
        <linearGradient id="prefix__J" x1="39.422%" x2="66.134%" y1="39.943%" y2="60.58%">
            <stop offset="31.96%" stop-color="#FFF" stop-opacity=".6"/>
            <stop offset="53.569%" stop-color="#D4D7FF" stop-opacity=".489"/>
            <stop offset="71.423%" stop-color="#D4D7FF"/>
        </linearGradient>
        <linearGradient id="prefix__K" x1="50.878%" x2="48.987%" y1="40.026%" y2="62.854%">
            <stop offset="31.96%" stop-color="#FFF" stop-opacity=".6"/>
            <stop offset="53.569%" stop-color="#D4D7FF" stop-opacity=".489"/>
            <stop offset="71.423%" stop-color="#D4D7FF"/>
        </linearGradient>
        <linearGradient id="prefix__L" x1="50.814%" x2="49.046%" y1="41.239%" y2="61.299%">
            <stop offset="31.96%" stop-color="#FFF" stop-opacity=".6"/>
            <stop offset="53.569%" stop-color="#D4D7FF" stop-opacity=".489"/>
            <stop offset="71.423%" stop-color="#D4D7FF"/>
        </linearGradient>
        <linearGradient id="prefix__M" x1="64.958%" x2="44.092%" y1="23.263%" y2="62.23%">
            <stop offset="31.96%" stop-color="#FFF" stop-opacity=".6"/>
            <stop offset="53.569%" stop-color="#D4D7FF" stop-opacity=".489"/>
            <stop offset="71.423%" stop-color="#D4D7FF"/>
        </linearGradient>
        <linearGradient id="prefix__N" x1="58.272%" x2="47.051%" y1="33.061%" y2="59.597%">
            <stop offset="31.96%" stop-color="#FFF" stop-opacity=".6"/>
            <stop offset="53.569%" stop-color="#D4D7FF" stop-opacity=".489"/>
            <stop offset="71.423%" stop-color="#D4D7FF"/>
        </linearGradient>
        <linearGradient id="prefix__O" x1="20.424%" x2="81.135%" y1="81.284%" y2="10.131%">
            <stop offset="31.96%" stop-color="#FFF" stop-opacity=".6"/>
            <stop offset="53.569%" stop-color="#D4D7FF" stop-opacity=".489"/>
            <stop offset="71.423%" stop-color="#D4D7FF"/>
        </linearGradient>
        <linearGradient id="prefix__P" x1="21.758%" x2="78.934%" y1="86.408%" y2="25.026%">
            <stop offset="31.96%" stop-color="#FFF" stop-opacity=".6"/>
            <stop offset="53.569%" stop-color="#D4D7FF" stop-opacity=".489"/>
            <stop offset="71.423%" stop-color="#D4D7FF"/>
        </linearGradient>
        <linearGradient id="prefix__Q" x1="32.276%" x2="70.735%" y1="34.578%" y2="73.232%">
            <stop offset="31.96%" stop-color="#FFF" stop-opacity=".6"/>
            <stop offset="53.569%" stop-color="#D4D7FF" stop-opacity=".489"/>
            <stop offset="71.423%" stop-color="#D4D7FF"/>
        </linearGradient>
        <linearGradient id="prefix__R" x1="30.805%" x2="68.396%" y1="81.973%" y2="22.92%">
            <stop offset="31.96%" stop-color="#FFF" stop-opacity=".6"/>
            <stop offset="53.569%" stop-color="#D4D7FF" stop-opacity=".489"/>
            <stop offset="71.423%" stop-color="#D4D7FF"/>
        </linearGradient>
        <linearGradient id="prefix__S" x1="38.878%" x2="58.93%" y1="35.789%" y2="54.471%">
            <stop offset="31.96%" stop-color="#FFF" stop-opacity=".6"/>
            <stop offset="53.569%" stop-color="#D4D7FF" stop-opacity=".489"/>
            <stop offset="71.423%" stop-color="#D4D7FF"/>
        </linearGradient>
        <linearGradient id="prefix__T" x1="39.812%" x2="61.669%" y1="37.286%" y2="68.972%">
            <stop offset="31.96%" stop-color="#FFF" stop-opacity=".6"/>
            <stop offset="53.569%" stop-color="#D4D7FF" stop-opacity=".489"/>
            <stop offset="71.423%" stop-color="#D4D7FF"/>
        </linearGradient>
        <linearGradient id="prefix__U" x1="41.589%" x2="62.508%" y1="34.703%" y2="68.977%">
            <stop offset="31.96%" stop-color="#FFF" stop-opacity=".6"/>
            <stop offset="53.569%" stop-color="#D4D7FF" stop-opacity=".489"/>
            <stop offset="71.423%" stop-color="#D4D7FF"/>
        </linearGradient>
        <linearGradient id="prefix__V" x1="41.939%" x2="62.134%" y1="35.513%" y2="68.021%">
            <stop offset="31.96%" stop-color="#FFF" stop-opacity=".6"/>
            <stop offset="53.569%" stop-color="#D4D7FF" stop-opacity=".489"/>
            <stop offset="71.423%" stop-color="#D4D7FF"/>
        </linearGradient>
        <linearGradient id="prefix__W" x1="38.846%" x2="62.411%" y1="38.773%" y2="53.571%">
            <stop offset="31.96%" stop-color="#FFF" stop-opacity=".6"/>
            <stop offset="53.569%" stop-color="#D4D7FF" stop-opacity=".489"/>
            <stop offset="71.423%" stop-color="#D4D7FF"/>
        </linearGradient>
        <linearGradient id="prefix__X" x1="38.063%" x2="60.705%" y1="35.194%" y2="54.679%">
            <stop offset="31.96%" stop-color="#FFF" stop-opacity=".6"/>
            <stop offset="53.569%" stop-color="#D4D7FF" stop-opacity=".489"/>
            <stop offset="71.423%" stop-color="#D4D7FF"/>
        </linearGradient>
    </defs>
    <g fill="none" fill-rule="evenodd" transform="translate(3 9)">
        <ellipse cx="46.5" cy="47" fill="#A8DBF4" stroke="#A8DBF4" stroke-width="9" rx="51" ry="51.5" transform="translate(6)"/>
        <g fill="#805430" fill-rule="nonzero">
            <path d="M0 1.757l.007.012c.464-.004.91.187 1.24.531.331.344.518.813.522 1.302.03 1.34.92 2.563 1.54 3.682.147.263.297.523.447.784.403.582.808 1.163 1.208 1.748.144.207.24.447.278.7.279.435.56.867.85 1.296 1.349 1.997 2.628 4.068 4.012 6.049 1.487.9 2.648 2.297 3.302 3.97.168.165.34.327.51.49 2.276.563 4.39 2.401 4.898 4.71.377.38.755.758 1.135 1.135.98-.237 1.928-.333 2.427-.12 1.589.682 3.098 1.483 4.552 2.286.1.055.2.113.3.172.044-.031.294-.109.311-.056.032.096.058.193.08.29.956.677 2.03 1.148 3.16 1.384 1.337.201.04.905-.55 1.158-.41.175-.829.325-1.255.451.044.086.08.176.105.269h46.605c-.223-.557-.166-1.196.151-1.7.318-.503.853-.805 1.426-.803.304-.95 1.245-1.497 2.167-1.26.114.034.225.07.334.108.733-.58 1.585-.97 2.487-1.14.74-.936 1.66-1.694 2.7-2.225.417-.242.822-.507 1.213-.793.165-.384.336-.755.51-1.107 1.026-2.085 2.784-3.407 4.146-5.139.255-.49.577-.938.955-1.33.242-.255.551-.427.887-.495.713-1.14 1.537-2.197 2.457-3.156 1.096-1.14 2.032-2.44 2.78-3.86.822-1.598 2.226-3.274 2.7-5.002.144-.48.463-.88.887-1.11.017-.647.03-1.295.032-1.942-.011-.481.164-.946.484-1.289-1.79-.158-4.366-.36-7.48-.51-5.487-.264-8.292-.389-11.238 0-5.171.683-4.8 1.779-8.43 1.824-4.875.06-5.455-1.919-10.301-1.824-3.719.073-3.882 1.248-8.43 1.824-4.842.612-5.211-.65-10.77-.608-6.778.05-6.949 1.932-13.58 1.823-3.13-.051-4.135-.487-6.202-.734-.398-.047-.763-.08-1.109-.105-1.158-.081-2-.065-2.242-.062-3.034.036-5.106-1.347-8.242-.314-.482.165-.952.369-1.405.608C10.394 4.709 6.688 5.03 0 1.757z" transform="translate(0 62)"/>
            <path d="M96.038 2.025c-6.617-.41-5.82-.258-7.141-.404C81.92.854 79.324-1.235 77.28 1.01c-.61.67-1.177 1.732-2.286 1.908-1.141.18-1.928-.724-2.825-1.296-1.955-1.244-3.712-.448-6.04 0-4.473.86-4.849-.759-11.152-.612-3.455.08-3.825.579-8.377 1.15-5.627.706-6.208-.067-19.57.284-3.272.086-6.542.18-9.81.282-3.167.095-6.211.347-9.324.597-1.97.158-3.923.267-5.897.29.025.277.08.55.162.814.502.003 1 .097 1.473.278.394.202.298.476.073.701-.255.231-.549.407-.866.518.224.4.458.79.664 1.167.04.074.083.147.124.22.169-.03.338-.062.51-.09.938-.17 1.885-.278 2.835-.327.956-.036 2.082.051 2.304.52.204.433-.22.902-.697 1.276-.647.496-1.383.842-2.161 1.017-.353.087-.73.162-1.114.23.053.127.09.26.11.398.278.442.56.88.85 1.317 1.338 2.01 2.608 4.097 3.981 6.092 1.475.908 2.627 2.314 3.276 4 .167.166.337.33.506.493 2.258.567 4.357 2.419 4.86 4.745.374.382.75.763 1.126 1.142.972-.238 1.913-.335 2.408-.12 1.577.686 3.074 1.493 4.517 2.302.1.056.2.114.299.173.042-.03.29-.109.307-.056.032.097.057.194.08.292.948.682 2.014 1.156 3.134 1.394 1.328.203.04.912-.544 1.167-.407.176-.823.327-1.246.454.044.086.079.177.105.271h46.24c-.22-.562-.163-1.204.151-1.712.315-.507.847-.811 1.415-.81.302-.956 1.235-1.507 2.15-1.268.113.034.223.07.331.109.728-.585 1.574-.978 2.469-1.15.734-.942 1.647-1.706 2.678-2.24.414-.244.815-.51 1.203-.8.164-.386.334-.76.506-1.113 1.019-2.101 2.763-3.433 4.115-5.177.252-.494.571-.945.946-1.34.24-.257.548-.43.881-.498.708-1.148 1.525-2.213 2.438-3.18 1.088-1.148 2.017-2.457 2.76-3.887.43-.853 1.025-1.73 1.558-2.623-.067-.007-.136-.01-.202-.018-.627-.075-1.526-.204-1.744-.503-.192-.263.268-.512.75-.654.658-.178 1.329-.3 2.005-.367.124-.283.228-.575.311-.874.14-.473.447-.868.855-1.101-.251-.031-.503-.063-.74-.105-.633-.114-1.548-.293-1.818-.588-.272-.298.198-.58.83-.713.587-.1 1.184-.125 1.776-.075.002-.164.008-.328.008-.492.001-.158.018-.315.052-.469-1.2-.084-2.909-.2-4.962-.327zM10.92 4.078c-.307.115-.627.184-.95.206-.744.098-1.497.047-2.222-.148-.153-.06-.02-.175.146-.202.484-.077.964-.157 1.43-.254.047-.01.095-.015.143-.013.54-.155 1.099-.223 1.658-.202.185.01.217.092.139.153l-.014.01c.09.024.141.064.14.125 0 .12-.288.247-.47.325zm7.966 1.169c-1.081.423-2.263.443-3.356.058-1.005-.411-.777-.979.312-1.316l.03-.008c1.002-.473 2.116-.6 3.187-.364 1.325.35.696 1.236-.173 1.63zm15.688-.62c-.436.12-.885.18-1.336.177-1.461.03-2.923-.044-4.375-.225-.682-.077-1.369-.167-2.006-.298-.39-.057-.77-.177-1.128-.356-.087-.056.023-.129.12-.165 1.117-.357 2.271-.561 3.436-.606.733-.14 1.473-.234 2.216-.283.693-.093 1.397-.032 2.067.18.494.186.931.512 1.266.945.137.216.187.474-.26.63zm9.672-.685c-.088.253-.726.38-1.232.448-.667.084-1.338.13-2.009.141-.76.043-1.523.022-2.28-.06-.748-.117-.96-.44-.616-.738.636-.55 2.404-.44 3.58-.35 1.127 0 2.73.06 2.557.56zM66.564 6.1c-1.88.16-3.73-.276-4.75-.946-.468-.307-.776-.687-.442-1.045.444-.335.972-.519 1.515-.525 1.003-.062 2.009-.051 3.01.031.919-.115 1.845-.136 2.767-.062.867.106 1.256.428 1.232.8-.056.822-1.396 1.583-3.332 1.747zm10.85-1.276c-.933-.033-2.658-.277-2.635-.781.01-.247.394-.479.99-.511.348-.02.688-.002 1.03.015.031-.004.063-.006.094-.004 1.038.044 2.058-.14 3.035.09.454.108.635.316.367.514-.893.477-1.883.71-2.88.677zm13.571 1.174c-.54.357-1.12.637-1.728.832-1.762.53-3.59.765-5.418.696-.924-.022-1.844-.141-2.746-.355-.621-.157-1.31-.393-1.52-.703-.362-.537.988-.904 1.952-1.095 1.265-.251 2.624-.395 3.966-.547.041-.005.083-.006.124-.002.942-.102 1.89-.13 2.836-.081.52-.023 1.039-.027 1.545 0 .779.042 1.645.197 1.59.593-.034.238-.302.465-.6.662zm.552-2.965c-.328.367-1.438.42-2.229.396-.826.009-1.65-.104-2.448-.334-.134-.054-.043-.144.082-.185.347-.102.703-.163 1.063-.182 1.349-.265 4.254-.505 3.532.305zm3.279 1.49c-.515-.05-1.932-.227-1.46-.573.478-.2.998-.258 1.505-.167h.091c.216-.018.432-.021.647-.012.099.005.152.026.17.054.41.052.74.156.831.345.18.373-1.27.403-1.784.353z" opacity=".3" style="mix-blend-mode:multiply" transform="translate(0 62)"/>
            <path d="M88.82 16.577c-2.719.103-5.42.108-8.149.079-1.669-.018-3.345-.042-5.017-.025-1.452.057-2.896.173-4.356.157-1.784-.02-3.581-.168-5.318-.325-2.629-.238-5.223-.544-7.876-.737-2.58-.204-5.173-.21-7.754-.017-4.853.384-9.394 1.196-14.367 1.351-5.266.194-10.54.077-15.793-.35-2.517-.221-5.006-.514-7.38-.921-1.576-.27-3.168-.567-4.81-.789.765 1.135 1.534 2.27 2.336 3.376 1.492.872 2.659 2.224 3.315 3.844.17.16.341.316.513.474 2.285.544 4.409 2.324 4.919 4.56.378.368.757.734 1.139 1.098.983-.229 1.936-.323 2.437-.116 1.596.66 3.111 1.436 4.571 2.213.101.053.202.11.302.166.043-.03.294-.104.312-.054.032.093.058.187.08.28.96.657 2.039 1.112 3.173 1.34 1.343.196.04.877-.552 1.123-.412.168-.832.314-1.26.436.044.083.08.17.105.26h46.8c-.223-.54-.166-1.158.153-1.645.319-.488.856-.78 1.432-.778.305-.92 1.25-1.45 2.176-1.22.113.033.225.068.335.105.736-.562 1.592-.94 2.498-1.105.743-.905 1.667-1.64 2.711-2.153.419-.234.825-.49 1.217-.768.166-.371.339-.73.512-1.07 1.031-2.02 2.796-3.3 4.165-4.976.256-.475.578-.909.958-1.288.243-.247.554-.413.891-.479.518-.817 1.108-1.584 1.762-2.292-2.064.063-4.119.168-6.18.246z" opacity=".3" style="mix-blend-mode:multiply" transform="translate(0 62)"/>
            <path d="M81.275 25.703c-3.155.387-6.023 1.044-9.444.895-3.375-.147-6.4-.738-9.581-1.164-1.844-.275-3.706-.42-5.57-.434-2.016.038-4.029.19-6.028.456-4.202.517-8.144 1.295-11.997 2.13-3.546.817-7.163 1.29-10.8 1.41-1.29.031-2.577.02-3.855-.027 1.076.49 2.118 1.017 3.132 1.546.101.053.201.108.302.164.043-.03.294-.103.312-.053.032.091.057.183.08.275.96.644 2.038 1.09 3.172 1.315 1.343.191.04.86-.551 1.1-.412.166-.833.309-1.26.429.044.08.079.166.105.255h46.795c-.223-.53-.166-1.136.153-1.614.318-.479.856-.766 1.431-.764.306-.902 1.25-1.422 2.176-1.197.114.032.226.067.335.103.737-.55 1.592-.922 2.498-1.084.743-.888 1.667-1.609 2.71-2.112.42-.23.826-.482 1.218-.754.128-.28.26-.55.392-.813-1.898-.26-3.822-.28-5.725-.062z" opacity=".3" style="mix-blend-mode:multiply" transform="translate(0 62)"/>
            <g opacity=".3">
                <path d="M.7 1.37C.338 1.35.303 1.253.27 1.142.214.976.182.805.173.632.17.481.378.352.844.332c.447-.01.893.031 1.329.124.677.078 1.42.172.86.448-.347.153-.714.264-1.092.333-.405.097-.822.141-1.24.133zM2.26 2.46c.283.135.592.223.91.259.394-.193.855-.238 1.285-.125.119.03.235.063.35.097.766-.523 1.657-.875 2.6-1.029.146-.172.304-.336.473-.49-.522-.065-1.052-.062-1.572.01-.434.048-.864.118-1.29.21-.347.038-.684.094-.999.15-.556.084-1.1.225-1.62.42-.342.144-.413.332-.137.497z" style="mix-blend-mode:multiply" transform="translate(0 62) translate(75 28)"/>
            </g>
            <g opacity=".3">
                <path d="M1.277 1.625l.302.181c.043-.032.293-.114.311-.058.031.098.056.198.079.297.677-.01 1.343-.192 1.947-.53.204-.156.066-.32-.28-.404-.767-.098-1.54-.122-2.31-.071-.025-.001-.049 0-.072.004-.26-.014-.52-.028-.785-.013-.064.004-.129.012-.192.023.336.19.67.38 1 .571zM11.306 1.984c-.386-.022-.782-.018-1.177 0-.72-.038-1.443-.017-2.16.063-.032-.003-.063-.002-.095.002-1.022.12-2.057.233-3.02.43-.478.071-.941.231-1.37.473.525.272 1.083.46 1.656.556.666.105.68.34.454.584.332.041.673.068 1.022.08 1.393.055 2.785-.13 4.126-.547.463-.153.906-.373 1.317-.654.228-.155.432-.334.457-.521.043-.31-.618-.433-1.21-.466zM12.479.64c-.25.288-1.095.33-1.698.31C10.152.957 9.525.87 8.917.688 8.815.645 8.884.574 8.98.542c.264-.08.536-.128.81-.143 1.027-.208 3.24-.397 2.69.24zM14.977 1.811c-.393-.039-1.472-.179-1.113-.45.365-.158.76-.204 1.147-.132h.07c.163-.014.328-.017.492-.01.076.004.116.02.13.043.312.04.564.123.633.271.136.293-.968.317-1.36.278zM19.864 4.754c-.408.131-.836.16-1.255.084-.225-.014-.447-.035-.663-.062-.477-.059-1.162-.16-1.328-.395-.146-.207.204-.403.572-.514.538-.15 1.087-.251 1.64-.303.505-.073 1.016-.099 1.525-.077 1.448.127.147 1.038-.491 1.267zM22.094 2.152c-1.021.023-2.042-.047-3.053-.21-.486-.043-.958-.2-1.385-.463-.207-.233.15-.456.633-.56.625-.096 1.26-.102 1.886-.018.35.032.695.074 1.036.122.029-.007.058-.01.087-.01.584.002 1.168.044 1.747.124.464.065 1.18.19 1.242.442.12.49-1.409.567-2.193.573zM26.84 1.191c-.039-.049.069-.102.157-.122.836-.141 1.684-.176 2.527-.102.023-.004.047-.007.07-.007.665-.006 1.765-.099 1.976.297.156.293-.929.446-1.402.476-1.1.07-2.902.01-3.329-.542zM38.778 3.669c-.667.526-1.943.88-3.315.904-.963-.006-1.923-.131-2.861-.374-.953-.173-1.885-.467-2.776-.877-.537-.294-.707-.743.13-.975.464-.11.936-.173 1.41-.188.638-.038 1.283-.05 1.925-.05.283 0 .566.002.848.006.05-.041.112-.064.176-.066.224-.016.446-.034.67-.052 1.056-.084 2.526-.236 3.473.074 1.074.353.903 1.138.32 1.598zM41.585 1.324c-.366.277-1.293.216-1.886.16-.322-.026-.643-.07-.96-.134-.092-.012-.182-.039-.267-.08l-.013-.01c-.093-.026-.185-.057-.275-.093-.106-.043-.025-.127.097-.158.033-.02.069-.033.106-.04.74-.135 1.491-.185 2.241-.15.301-.004.6.046.887.148.187.092.21.251.07.357z" style="mix-blend-mode:multiply" transform="translate(0 62) translate(26 29)"/>
            </g>
            <g opacity=".3">
                <path d="M11.72 4.113c.045-.012.085-.04.116-.08.072-.109-.053-.236-.162-.33-.35-.295-.776-.441-1.208-.415-.17-.004-.323.123-.375.313-.042.167-.001.347.106.469.184.154.411.224.638.197.301.036.606-.017.886-.154zM1.29 5.995c.095-.005.187-.037.268-.092.032-.009.06-.029.082-.057.05-.078-.038-.168-.115-.235-.25-.21-.553-.314-.86-.296-.113-.002-.216.077-.258.2.304.136.599.296.884.48zM6.01.715c.024-.007.046-.022.064-.044.038-.06-.03-.13-.09-.182C5.79.326 5.555.245 5.317.26 5.223.257 5.14.328 5.11.433c-.023.092 0 .191.059.258.102.086.227.124.352.109.166.02.334-.01.488-.085z" style="mix-blend-mode:multiply" transform="translate(0 62) translate(14 17)"/>
            </g>
            <g opacity=".3">
                <path d="M5.917.256C5.88.236 5.837.224 5.795.22c-.168-.013-.337.005-.5.05-.273.065-.72.216-.631.376.046.085.314.108.474.117.238.014.477.003.714-.033.206-.032.284-.104.298-.198.014-.094-.023-.23-.233-.276zM8.634 3.422c-.027-.014-.057-.022-.086-.026-.12-.008-.24.004-.357.036-.194.046-.511.154-.449.268.033.06.224.077.338.084.17.01.34.001.507-.024.147-.023.203-.074.213-.141.01-.067-.016-.163-.166-.197zM.758 2.035c-.021-.01-.044-.017-.067-.02-.093-.006-.186.003-.276.028-.15.036-.397.12-.348.208.026.046.173.06.262.064.131.008.263.002.393-.018.113-.018.157-.057.165-.11.008-.051-.013-.126-.129-.152z" style="mix-blend-mode:multiply" transform="translate(0 62) translate(23 23)"/>
            </g>
            <g opacity=".3">
                <path d="M11.47 3.954c.045-.013.085-.04.116-.08.07-.109-.054-.236-.162-.33-.35-.295-.776-.441-1.208-.415-.17-.005-.324.122-.376.312-.042.168 0 .348.106.47.185.154.412.224.639.197.301.035.606-.018.886-.154zM1.308 5.744c.032-.01.06-.03.082-.057.05-.078-.038-.168-.116-.235-.249-.21-.552-.315-.859-.296-.121-.003-.23.088-.268.223-.03.119 0 .247.076.334.132.11.293.16.454.14.215.025.432-.012.631-.11zM5.759.556c.025-.007.047-.022.064-.044.04-.06-.03-.13-.09-.182C5.54.167 5.305.086 5.067.1 4.973.099 4.89.17 4.86.274c-.023.093 0 .192.058.26.103.084.228.123.352.108.167.02.335-.01.489-.085z" style="mix-blend-mode:multiply" transform="translate(0 62) translate(49 17)"/>
            </g>
            <g opacity=".3">
                <path d="M8.458.542C8.403.513 8.344.495 8.284.49 8.042.47 7.8.496 7.565.564c-.39.097-1.031.322-.905.56.067.126.45.161.68.175.342.02.685.004 1.024-.049.296-.049.409-.155.43-.296.02-.14-.034-.341-.336-.412zM12.356 5.26c-.04-.02-.081-.034-.124-.038-.172-.013-.344.005-.511.054-.278.068-.734.229-.644.399.047.089.32.114.484.124.243.014.487.003.728-.035.211-.035.291-.11.305-.211.015-.1-.023-.243-.238-.293zM1.057 3.194c-.03-.016-.063-.026-.096-.03-.133-.01-.267.004-.396.042-.216.053-.57.177-.5.309.037.07.248.089.376.096.188.012.377.002.564-.027.163-.027.225-.085.236-.163.012-.077-.018-.188-.184-.227z" style="mix-blend-mode:multiply" transform="translate(0 62) translate(69 19)"/>
            </g>
            <g opacity=".3">
                <g>
                    <path d="M12.276 3.776c.047-.011.09-.036.123-.072.075-.098-.057-.212-.172-.297-.37-.265-.82-.397-1.277-.373-.18-.005-.342.11-.397.28-.045.151-.002.314.112.423.195.14.435.202.674.178.32.032.641-.016.937-.139zM1.531 5.387c.034-.008.064-.026.087-.051.054-.07-.04-.151-.122-.212-.264-.189-.584-.283-.909-.266-.128-.003-.243.079-.282.2-.032.108-.001.224.08.301.139.099.31.144.48.127.226.022.455-.012.666-.099zM6.237.718c.026-.006.05-.02.068-.04.041-.054-.031-.117-.095-.164-.204-.146-.452-.219-.704-.206-.1-.002-.189.061-.219.156-.024.083 0 .172.061.233.108.076.24.11.372.097.176.018.354-.008.517-.076z" style="mix-blend-mode:multiply" transform="translate(0 62) translate(10 4) translate(0 2.25)"/>
                </g>
                <g>
                    <path d="M9.23.185C9.173.16 9.111.143 9.048.137c-.252-.016-.506.006-.751.068-.41.086-1.08.29-.947.504.07.113.47.145.713.157.357.019.714.004 1.069-.044.309-.044.427-.14.449-.267C9.6.43 9.546.25 9.23.185zM13.307 4.431c-.042-.018-.086-.03-.13-.034-.18-.012-.36.004-.535.048-.291.062-.768.206-.673.359.049.08.334.103.506.112.254.013.509.002.761-.032.22-.031.304-.099.32-.19.014-.088-.025-.218-.25-.263zM1.49 2.571c-.031-.014-.065-.023-.1-.026-.14-.01-.279.003-.414.037-.226.048-.595.16-.522.278.038.063.26.08.392.087.198.01.395.002.59-.024.171-.025.236-.077.248-.147.012-.07-.02-.17-.193-.205z" style="mix-blend-mode:multiply" transform="translate(0 62) translate(10 4) translate(17.672 2.25)"/>
                </g>
                <g>
                    <path d="M12.375 3.499c.047-.012.09-.037.122-.072.075-.098-.057-.213-.172-.297-.37-.266-.82-.398-1.276-.374-.181-.004-.343.11-.398.281-.044.15 0 .314.112.423.196.139.435.202.674.177.32.032.642-.016.938-.138zM1.63 5.11c.033-.009.064-.026.087-.052.053-.07-.04-.151-.122-.211-.264-.19-.584-.283-.91-.266-.128-.003-.243.078-.282.2-.032.107-.001.223.08.3.139.1.31.144.48.127.227.023.456-.011.667-.098zM6.336.44c.026-.006.05-.02.067-.04.042-.053-.031-.116-.095-.163-.204-.147-.452-.22-.704-.206-.1-.002-.188.06-.219.155-.024.083 0 .173.062.233.108.077.24.112.372.098.176.018.353-.009.517-.076z" style="mix-blend-mode:multiply" transform="translate(0 62) translate(10 4) translate(36.703 .45)"/>
                </g>
                <g>
                    <path d="M1.637 5.387c.033-.008.063-.026.086-.051.054-.07-.04-.151-.122-.212-.263-.189-.583-.283-.908-.266-.128-.003-.244.079-.283.2-.032.108 0 .223.08.301.14.099.31.144.48.127.227.022.456-.012.667-.099zM6.343.718c.026-.006.05-.02.068-.04.041-.054-.032-.117-.096-.164-.204-.146-.452-.219-.704-.206-.1-.002-.188.061-.219.156-.024.083 0 .172.062.233.108.076.24.11.373.097.176.018.353-.008.516-.076z" style="mix-blend-mode:multiply" transform="translate(0 62) translate(10 4) translate(80.203 2.25)"/>
                </g>
                <g>
                    <path d="M5.94.477C5.902.459 5.86.448 5.818.444c-.17-.01-.34.005-.504.046-.274.058-.725.195-.636.339.047.075.316.097.478.105.24.012.48.002.718-.03.208-.03.287-.093.301-.179C6.19.641 6.152.52 5.94.477zM8.676 3.327c-.027-.013-.057-.02-.087-.023-.12-.008-.241.003-.359.032-.195.041-.515.139-.452.241.034.054.225.07.34.075.171.009.342.002.511-.021.148-.021.204-.067.214-.127.01-.06-.016-.147-.167-.177zM.746 2.078c-.022-.01-.044-.015-.068-.017-.093-.006-.187.002-.278.025-.151.032-.4.107-.35.186.025.042.174.054.263.059.132.006.265 0 .396-.017.115-.016.158-.052.167-.099.007-.046-.013-.113-.13-.137z" style="mix-blend-mode:multiply" transform="translate(0 62) translate(10 4) translate(45.313 4.95)"/>
                </g>
                <g>
                    <path d="M12.11 3.806c.047-.012.09-.037.122-.073.075-.098-.057-.212-.171-.296-.37-.266-.821-.398-1.277-.374-.18-.004-.343.11-.398.281-.044.15 0 .313.113.423.195.138.435.202.674.177.319.032.641-.016.937-.138zM1.365 5.416c.033-.008.064-.026.087-.051.054-.07-.04-.151-.122-.211-.264-.19-.584-.283-.91-.267-.128-.002-.243.08-.282.2-.032.108 0 .224.08.302.139.098.31.143.48.126.227.022.456-.011.667-.099zM6.072.747c.025-.006.049-.02.066-.04C6.18.654 6.107.59 6.044.545 5.84.397 5.59.324 5.339.338c-.1-.002-.188.06-.218.155-.025.083-.001.173.062.233.107.076.24.111.37.098.177.017.355-.009.519-.077z" style="mix-blend-mode:multiply" transform="translate(0 62) translate(10 4) translate(70.688)"/>
                </g>
            </g>
        </g>
        <g fill-rule="nonzero">
            <path fill="#95BD36" d="M53.607 9c-.528.327-1.124.69-1.81 1.1-3.561 2.133-6.569 5.073-8.778 8.581-2.232 4.539-5.027 11.46-5.598 11.534-1.761.227-12.285-5.122-18.144-5.5L18 26.527c14.29 2.696 17.663 7.079 18.355 9.488.338 1.172.077 3.247-.458 7.349-.824 6.308-1.344 10.288-2.888 14.838-2.247 6.625-3.729 5.801-7.383 14.206-.178.409-.353.816-.527 1.22 3.125-.1 6.252.024 9.36.371.134-.373-.363-3.358-.272-3.761 2.869-12.808 3.705-8.791 6.28-18.094 1.623-5.862.963-8.89.614-12.333-.287-2.818-.465-4.173-.033-7.313.165-1.204.674-3.97 2.828-8.79 1.324-2.962 1.986-4.443 3.034-5.943 3.686-5.274 5.835-7.231 8.09-8.304-.49-.143-.96-.298-1.393-.462z" transform="translate(13 8)"/>
            <path fill="#95BD36" d="M39 42.013c-1.077.477-2.042 1.153-2.837 1.987-5.26-1.166-10.407-2.745-15.387-4.72-2.395-.954-4.653-1.962-6.776-3.002L15.329 35c1.117.641 2.273 1.22 3.462 1.732 4.05 1.747 6.809 2.017 11.418 2.99.854.182 3.575.9 8.791 2.291z" transform="translate(13 8)"/>
            <g>
                <path fill="#95BD36" d="M24.988 3.888c-1.089-1.166-2.477-2.043-4.029-2.547-2.672-.927-5.554-1.17-8.356-.7-2.843.387-4.664 1.27-7.074 2.439-1.857.78-3.603 1.78-5.196 2.977-.156.225-.27.475-.333.738.07.249.175.486.314.706 1.41-.457 2.897-.66 4.385-.598 1.5.15 2.964.526 4.34 1.112.244.092.417.168.573.241.159-.235.313-.363.443-.324 1.492.436 2.945.984 4.346 1.639 1.325.184 2.431.367 3.369.535 2.37-.014 4.734-.243 7.06-.684.196-.346.27-.607.39-.574.106.028.145.197.136.462.388-.085.776-.176 1.163-.278.03-.162.057-.324.075-.48.11-1.693-.465-3.361-1.606-4.664z" transform="translate(13 8) translate(0 19)"/>
                <path fill="#5C8000" d="M26.595 8.255c.03-.192.038-.386.022-.579-.026-.01-.049-.024-.067-.044-.013-.008-.021-.021-.023-.036-.027-.095-.066-.187-.117-.273-.022-.04-.042-.08-.058-.121-.003-.006-.003-.013-.006-.02-.294-.067-.617-.126-.921-.2-2.07-.507-1.848-1.574-3.876-2.216-1.178-.373-2.787-.353-4.057-.49-1.571-.17-3.14-.372-4.72-.502-.333-.059-.672-.087-1.012-.085-.689.03-1.356.24-1.93.604-.264-.086-.544-.12-.822-.098-.358.015-.696.16-.945.405-.264-.087-.544-.12-.822-.098-.358.015-.696.16-.945.405-.602.024-1.196.127-1.767.306-.323.12-.638.255-.946.405-.625.275-1.26.54-1.891.81l-.946.405-.638.273c.064.146.142.286.233.418l.22.11.09-.018c.615-.123.886-.128 1.525-.287 1.05-.26 1.112-.361 1.698-.447.699-.087 1.408-.046 2.09.12.134.028.253.058.366.089.656-.477 1.496-.665 2.306-.514 1.582.189 2.197 1.023 2.036 1.777 1.017.263 2.042.505 3.094.705 2.048.388 4.135.288 6.178.648 1.046.2 2.116.26 3.18.179.958-.083 1.846-.48 2.804-.413.404-.51.592-.984.725-1.14-.035-.022-.065-.05-.058-.078z" transform="translate(13 8) translate(0 19)"/>
                <path fill="#546D12" d="M26.81 8.317c-.008-.039-.012-.078-.017-.117-.013-.056-.033-.11-.061-.16-.805.449-1.682.767-2.597.942-.602.085-.672-.111-3.482-.247-1.002-.049-2.004-.107-2.989-.246-.993-.141-2.043-.153-3.016-.348-1.958-.391-3.605-1.36-5.543-1.778-2.01-.346-4.074-.29-6.06.163-.771.153-1.531.355-2.274.605-.178.081-.362.152-.55.211.035.062.074.121.113.18.12.059.239.12.356.181l.088.024c1.653-.184 6.43-.377 7.482.185l.287.153c1.495.36 2.959.83 4.378 1.402 1.037.406 2.079.842 3.149 1.199.248.01.41-.01.44-.068.132.054.265.101.398.15 1.328-.056 2.703.15 3.991.168.615.002 1.23-.05 1.834-.155 1.1-.363 2.24-.605 3.397-.72.383-.417.64-.924.742-1.468-.008-.04-.016-.078-.021-.117-.006-.022-.008-.045-.013-.067l-.014-.018c-.008-.017-.014-.035-.018-.054z" transform="translate(13 8) translate(0 19)"/>
                <path fill="#457A00" d="M26.429 7.265c-.02-.03-.035-.059-.053-.088-.079-.086-.164-.166-.257-.239-.387-.176-.758-.382-1.11-.615-.402-.27-.562-.439-.78-.59-2.064-1.256-4.4-2.048-6.834-2.315-2.172-.24-4.37-.172-6.522.2C5.117 4.451 1.078 6.297.06 6.981c.023.066.05.13.078.192 3.619-1.45 7.475-2.291 11.397-2.483 2.22-.112 6.582-.259 10.778 1.306 1.56.556 3.002 1.38 4.25 2.428-.003-.185.007-.37.031-.554l.023-.166c-.007-.029-.012-.057-.021-.086-.038-.125-.094-.244-.168-.353z" transform="translate(13 8) translate(0 19)"/>
            </g>
            <g>
                <path fill="#95BD36" stroke="#9CB63F" stroke-width=".3" d="M1.577.551c-.26.077-.52.158-.781.246-.855 1.666-.14 2.89.55 4.154 2.678 2.406 7.418 3.317 9.216 2.21 1.727-1.063 1.84-4.665-1.1-5.713-2.328-.83-5.149.447-7.553-.716-.12-.057-.228-.118-.332-.18z" transform="translate(13 8) translate(13 34)"/>
                <path fill="#457A00" d="M1.407.603C1.203.664 1 .729.797.797c-.148.278-.258.574-.328.879 2.36 2.442 6.312 3.927 10.75 4.815.524-.879.621-1.94.264-2.895-.357-.956-1.132-1.707-2.114-2.05C7.04.714 4.219 1.991 1.815.83c-.14-.068-.277-.144-.408-.227z" transform="translate(13 8) translate(13 34)"/>
                <path fill="#5C8000" d="M1.703.516C1.4.602 1.097.696.794.798L.767.846c.552.33 1.146.587 1.767.767.135.057.266.12.395.182.245.042.486.105.72.188.387.093.77.193 1.143.301l.14.04c.33.1.65.21.953.331.167.053.421.152.49.17.35.084.691.195 1.023.332.089.038.172.083.257.126 1.68.46 3.764 1.35 3.45 2.886l.284.103c.507-.879.592-1.931.23-2.877-.361-.945-1.132-1.687-2.106-2.028-2.328-.83-5.15.447-7.554-.715-.09-.044-.175-.09-.256-.136z" transform="translate(13 8) translate(13 34)"/>
            </g>
            <g>
                <path fill="#95BD36" d="M.91 6.317C1.665 4.921 2.778 3.74 4.141 2.89 6.472 1.363 9.174.465 11.974.284c2.819-.271 4.782.18 7.38.777 1.972.342 3.891.926 5.713 1.738.206.186.376.406.502.65-.005.26-.048.519-.127.767-1.463-.127-2.938.015-4.349.417-1.399.491-2.71 1.197-3.883 2.09-.211.145-.358.26-.489.367-.21-.194-.39-.285-.504-.218-1.322.772-2.58 1.644-3.76 2.61-1.224.484-2.238.918-3.095 1.299-2.275.53-4.596.846-6.933.945-.274-.295-.408-.535-.516-.475-.094.052-.09.227-.016.486-.393.005-.787.004-1.183-.007-.068-.153-.134-.306-.19-.456C0 9.634.139 7.86.91 6.317z" transform="translate(13 8) translate(44 7)"/>
                <path fill="#5C8000" d="M.45 10.982c-.077-.181-.132-.37-.165-.563.022-.016.041-.036.054-.06.01-.01.014-.025.013-.04.002-.1.017-.2.044-.296.012-.043.021-.087.026-.132v-.02c.266-.134.561-.266.834-.41 1.859-.972 1.381-1.97 3.166-3.067 1.036-.638 2.583-.987 3.765-1.413 1.464-.527 2.917-1.086 4.398-1.576.306-.134.623-.24.95-.316.667-.127 1.358-.075 1.998.152.231-.145.491-.242.763-.285.347-.067.707-.002 1.006.182.231-.146.491-.243.763-.285.347-.067.707-.002 1.006.182.582-.115 1.177-.15 1.769-.104.338.044.674.105 1.006.182.666.127 1.34.242 2.011.363.336.06.671.12 1.006.182l.68.122c-.026.158-.066.314-.121.465-.061.052-.122.105-.182.159-.035 0-.063 0-.092.002-.62.02-.88.077-1.532.068-1.07-.015-1.154-.101-1.737-.05-.69.074-1.36.277-1.973.597-.122.058-.228.114-.328.17-.747-.319-1.598-.31-2.337.024-1.469.548-1.852 1.51-1.511 2.215-.91.492-1.832.965-2.791 1.402-1.866.852-3.89 1.232-5.758 2.055-.953.436-1.964.74-3.003.905-.939.138-1.887-.048-2.789.236-.513-.409-.81-.833-.976-.955.028-.03.05-.063.037-.09z" transform="translate(13 8) translate(44 7)"/>
                <path fill="#546D12" d="M.259 11.093c-.002-.04-.008-.08-.013-.12-.001-.057.005-.114.019-.17.882.257 1.801.369 2.72.331.599-.054.618-.263 3.275-1.042.949-.277 1.895-.564 2.804-.927.916-.366 1.92-.618 2.804-1.033 1.778-.834 3.117-2.166 4.87-3.02 1.841-.802 3.832-1.22 5.847-1.23.777-.026 1.555-.001 2.328.075.191.039.384.066.579.081-.018.069-.04.136-.063.203-.1.085-.2.172-.297.26l-.078.043c-1.63.198-6.254 1.104-7.123 1.898l-.237.216c-1.343.698-2.63 1.495-3.849 2.384-.893.637-1.783 1.304-2.72 1.9-.235.068-.394.086-.438.035-.113.083-.23.16-.345.24-1.286.248-2.552.765-3.782 1.079-.589.143-1.19.233-1.795.268-1.143-.106-2.295-.082-3.433.07-.47-.322-.84-.762-1.073-1.274l-.009-.12c0-.023-.003-.046-.004-.07l.01-.02c.003-.018.004-.038.003-.057z" transform="translate(13 8) translate(44 7)"/>
                <path fill="#457A00" d="M.364 9.97c.012-.033.02-.065.03-.098.053-.103.115-.2.186-.294.327-.262.632-.55.912-.86.319-.357.43-.56.602-.76C3.76 6.25 5.804 4.936 8.069 4.114c2.022-.733 4.144-1.17 6.298-1.298 5.72-.5 10.046.39 11.19.83-.007.07-.016.14-.028.207-3.825-.598-7.728-.54-11.532.17-2.155.399-6.37 1.254-10.004 3.756-1.358.905-2.535 2.045-3.473 3.363-.042-.183-.098-.363-.166-.538l-.063-.158c0-.03-.003-.06-.001-.09.005-.131.03-.261.074-.386z" transform="translate(13 8) translate(44 7)"/>
            </g>
            <path fill="#95BD36" d="M26.342 14.683c1.023-.785 2.444-.764 3.655-.702 1.413-.002 2.805.361 4.054 1.058 1.436.895 2.57 2.27 3.756 3.483.691.668 1.335 1.388 1.927 2.154.484.745 1.036 1.438 1.649 2.068.896.83 2.217-.552 1.315-1.386-.66-.704-1.262-1.465-1.802-2.275-.723-.875-1.492-1.706-2.305-2.489-1.296-1.327-2.563-2.77-4.225-3.596-1.446-.651-3.002-.987-4.575-.986-1.456-.054-3.166.041-4.388.978-.958.735-.031 2.436.94 1.693zM62.436 27.926c-.534 1.049-1.17 2.042-1.896 2.966-1.371 1.882-3.168 3.407-5.242 4.449-2.464 1.192-5.2 1.831-7.808 2.625-1.487.486-3 .886-4.531 1.2-1.46.19-2.902.503-4.312.932-1.14.412-.648 2.257.504 1.841 1.182-.381 2.396-.654 3.627-.815 1.274-.22 2.533-.516 3.772-.886 2.405-.697 4.842-1.377 7.203-2.215 2.062-.673 3.984-1.72 5.67-3.092 1.43-1.289 2.675-2.771 3.7-4.405 1.11-1.692 2.184-3.748 1.796-5.837-.224-1.206-2.052-.695-1.829.507.07.957-.159 1.911-.654 2.73z" transform="translate(13 8)"/>
            <g>
                <path fill="#95BD36" stroke="#9CB63F" stroke-width=".3" d="M23.815 1.881c.047-.363.08-.726.1-1.09-3.201-1.352-6.726-.52-10.325.278C5.547 4.441-.754 10.79.298 13.361c1.01 2.47 9.447 3.032 14.501-.85 4.003-3.074 3.441-7.058 8.297-10.199.24-.155.48-.296.72-.43z" transform="translate(13 8) translate(48 23)"/>
                <path fill="#457A00" d="M23.842 1.644c.033-.284.057-.568.074-.853-.579-.246-1.181-.428-1.798-.544C14.268 3.182 7.294 8.392 1.312 14.33c2.706 1.421 9.17 1.244 13.338-1.957 4.003-3.074 3.44-7.058 8.297-10.2.3-.193.599-.369.895-.53z" transform="translate(13 8) translate(48 23)"/>
                <path fill="#5C8000" d="M23.79 2.057c.059-.423.101-.845.126-1.269-.03-.013-.061-.03-.092-.042-1.182.517-2.018 1.381-3.36 2.317-.256.178-.516.349-.777.518-.334.346-.694.666-1.075.958-.56.516-1.131 1.027-1.714 1.522-.072.062-.144.124-.217.184-.527.44-1.066.86-1.618 1.261-.27.222-.728.556-.83.647-.53.488-1.091.94-1.68 1.355-.17.117-.348.225-.524.336-2.557 2.235-6.489 4.97-9.854 4.368l-.494.374c2.75 1.379 9.136 1.174 13.265-1.997 4.003-3.074 3.441-7.058 8.297-10.2.183-.117.365-.227.547-.332z" transform="translate(13 8) translate(48 23)"/>
            </g>
            <g>
                <path fill="#95BD36" stroke="#9CB63F" stroke-width=".3" d="M.73 2.717c-.105-.2-.202-.403-.292-.61C2.111.67 4.443.428 6.812.15c5.634.298 10.83 2.672 10.73 4.375-.095 1.634-5.136 3.69-9.048 2.484-3.099-.954-3.598-3.372-7.233-4.19-.18-.04-.356-.073-.53-.102z" transform="translate(13 8) translate(15 8)"/>
                <path fill="#457A00" d="M.663 2.586c-.08-.157-.154-.317-.225-.478.302-.26.632-.49.985-.683 5.422.085 10.79 1.664 15.705 3.867C15.773 6.67 11.782 7.893 8.556 6.9c-3.1-.955-3.598-3.372-7.233-4.19-.224-.051-.444-.091-.66-.123z" transform="translate(13 8) translate(15 8)"/>
                <path fill="#5C8000" d="M.783 2.813c-.126-.231-.24-.467-.346-.707l.048-.043c.868.14 1.72.358 2.545.65.194.05.39.095.585.14.278.13.565.242.86.332.452.184.91.362 1.37.528l.172.062c.415.146.834.278 1.256.397.213.072.563.171.645.203.428.173.866.32 1.314.438.128.033.26.059.392.087 2.037.766 5.02 1.54 6.95.501l.382.116c-1.39 1.36-5.34 2.552-8.536 1.567-3.099-.954-3.598-3.372-7.232-4.19-.137-.03-.271-.057-.405-.08z" transform="translate(13 8) translate(15 8)"/>
            </g>
            <path fill="#95BD36" d="M29.903 27.715c-.046-.13.024-.084-.001.109.005-.046.005-.093.002-.14.01.06-.055.261-.005.094.016-.053.027-.107.043-.16.02-.043.036-.089.047-.136-.058.143-.072.178-.042.107.012-.028.023-.055.036-.082.043-.097.091-.193.141-.287.046-.085.093-.17.143-.253l.071-.115c.103-.168-.132.145.006-.011.072-.082.141-.166.22-.242.019-.018.113-.134.143-.131-.102.083-.125.101-.068.056l.078-.059c.428-.296.872-.566 1.328-.81.135-.079.27-.156.408-.23.055-.03.11-.06.166-.088.113-.056.092-.054-.008 0 .297-.162.625-.254.914-.438.296-.184.477-.521.475-.886-.002-.364-.186-.7-.484-.88-.297-.18-.663-.177-.958.007-.059.037-.118.072-.178.105-.041.022-.083.042-.124.062l.07-.031c-.194.083-.39.166-.58.257-.276.131-.54.288-.804.442-.56.298-1.091.65-1.59 1.052-.408.373-.74.83-.974 1.345-.342.556-.459 1.236-.322 1.885.15.534.67.848 1.178.711.507-.155.804-.711.67-1.253z" transform="translate(13 8)"/>
            <g>
                <path fill="#95BD36" stroke="#9CB63F" stroke-width=".3" d="M6.633.9C6.595.732 6.552.567 6.505.401c-1.262-.46-2.307.08-3.382.609C.957 2.908-.19 6.066.54 7.176c.7 1.067 3.58.926 4.68-1.06.872-1.574.095-3.345 1.24-4.989.056-.081.115-.156.174-.228z" transform="translate(13 8) translate(32 21)"/>
                <path fill="#457A00" d="M6.607.79C6.575.662 6.54.533 6.505.404 6.287.32 6.06.267 5.828.24c-2.167 1.691-3.707 4.367-4.81 7.325 1.573.55 3.326-.09 4.132-1.506.87-1.574.094-3.345 1.239-4.988.067-.098.14-.191.218-.281z" transform="translate(13 8) translate(32 21)"/>
                <path fill="#5C8000" d="M6.65.98C6.608.785 6.56.592 6.504.4L6.468.386c-.305.37-.564.774-.77 1.203-.06.092-.12.181-.182.27-.057.166-.129.327-.214.482-.11.26-.223.516-.343.767l-.044.093c-.11.223-.226.439-.35.644-.056.113-.159.285-.179.33-.1.24-.22.47-.356.69-.039.061-.082.119-.124.177-.517 1.127-1.415 2.545-2.619 2.43l-.108.193c1.567.526 3.3-.116 4.1-1.522.872-1.573.095-3.344 1.24-4.988.043-.062.087-.12.131-.176z" transform="translate(13 8) translate(32 21)"/>
            </g>
            <g>
                <path fill="url(#prefix__a)" d="M4.557 13.616c.662.261 1.285-1.94 4.81-4.78 2.309-1.86 3.462-2.79 4.226-3.072.696-.224 1.316-.643 1.79-1.209.537-.68.788-1.561.586-1.709-.186-.136-.598.465-1.444.756-.722.207-1.488.191-2.201-.046-2.006-.465-4.62.791-5.787 1.718-3.051 2.422-2.972 7.951-1.98 8.342z" transform="translate(13 8) translate(47 25)"/>
                <path fill="url(#prefix__b)" d="M1.285 13.727c-1.047-1.84.216-4.515 1.787-5.852.808-.687 1.706-.93 3.502-1.416 3.085-.834 5.08-.387 5.947-.683.067-.03.145-.03.211.002.267.182-.192 1.281-.384 1.825-.907 2.577.311 3.769-.637 5.32-.448.734-1.127 1.052-2.486 1.686-1.195.56-2.918 1.364-4.968.9-.715-.162-2.248-.51-2.972-1.782z" transform="translate(13 8) translate(47 25)"/>
                <path fill="url(#prefix__c)" d="M1.54 13.037c-1.074-1.83.307-4.54 1.99-5.91.866-.705 1.82-.964 3.727-1.483 3.275-.89 5.375-.475 6.297-.786.07-.032.152-.033.223-.002.28.178-.226 1.29-.437 1.84-1.004 2.606.264 3.783-.766 5.36-.486.744-1.21 1.074-2.655 1.735-1.274.582-3.108 1.42-5.268.988-.752-.151-2.366-.474-3.11-1.742z" transform="translate(13 8) translate(47 25)"/>
                <path fill="#5C8000" d="M9.488 10.807c-.015.008-.029.017-.042.027.036.07.083.135.14.191.234.201.526.318.832.333.49.063.987-.06 1.394-.346.323-.23.6-.594.495-.7-.027-.029-.075-.03-.141-.022-.062.056-.13.106-.201.148-.534.38-1.178.563-1.827.518-.224-.009-.444-.06-.65-.149z" transform="translate(13 8) translate(47 25)"/>
                <path fill="url(#prefix__d)" d="M3.231 13.859c-.633-1.206.765-2.877 2.2-3.852 2.958-2.012 5.751-.843 9.694-3.133 1.114-.647 1.746-1.237 2.186-1.098.777.246.168 2.506-.977 4.251-1.528 2.26-3.783 3.905-6.374 4.647-1.04.318-3.127.959-5.013.348-.689-.169-1.297-.58-1.716-1.163z" transform="translate(13 8) translate(47 25)"/>
                <path fill="url(#prefix__e)" d="M4.556 13.958c.709.038.616-2.251 3.079-6.07C9.246 5.39 10.052 4.14 10.689 3.63c.59-.433 1.049-1.028 1.323-1.716.298-.816.262-1.734.025-1.81-.219-.07-.423.63-1.135 1.176-.622.426-1.354.654-2.103.654-2.046.195-4.136 2.218-4.956 3.469-2.143 3.27-.35 8.499.713 8.556z" transform="translate(13 8) translate(47 25)"/>
                <path fill="url(#prefix__f)" d="M1.699 11.51c-.072-1.365 1.89-2.273 3.594-2.535 3.515-.54 5.558 1.729 10.08 1.362 1.279-.103 2.096-.364 2.437-.047.601.559-.89 2.342-2.653 3.426-2.324 1.385-5.05 1.897-7.704 1.447-1.074-.162-3.231-.487-4.684-1.856-.554-.451-.933-1.088-1.07-1.797z" transform="translate(13 8) translate(47 25)"/>
                <path fill="#95BD36" d="M9.718 9.911c.552-.198 1.085-.448 1.591-.748.795-.462 1.514-1.048 2.132-1.737-.009-.011-.214.192-.571.437-.853.52-1.788.882-2.764 1.07-1.155.317-1.121.266-1.564.429-.739.273-1.869.799-1.841 1.003.032.236 1.606.055 3.017-.454z" transform="translate(13 8) translate(47 25)"/>
                <path fill="url(#prefix__g)" d="M7.45 15.33c1.34-.463 2.638-1.052 3.873-1.759 1.31-.74 2.416-1.809 3.21-3.105.376-.555.708-1.138.995-1.745.004-.044.005-.09.004-.134-.002-.053-.012-.105-.031-.155l-.106-.035c-.056-.02-.153-.052-.253-.092-3.31 2.49-5.99 1.997-8.444 4.137-1.153 1.005-2.197 2.54-1.628 3.455l.194-.025c.743-.111 1.475-.293 2.185-.542z" transform="translate(13 8) translate(47 25)"/>
                <path fill="url(#prefix__h)" d="M6.221 13.854c1.605-.55 3.16-1.24 4.648-2.063 1.561-.848 2.896-2.073 3.888-3.567.455-.63.863-1.295 1.22-1.988.005-.05.008-.1.008-.15-.001-.06-.013-.12-.035-.175-.041-.013-.084-.024-.125-.038-.066-.022-.18-.055-.3-.098-3.99 2.875-7.17 2.374-10.138 4.837-1.393 1.157-2.669 2.91-2.01 3.929.076-.01.154-.02.23-.032.889-.14 1.763-.36 2.614-.655z" transform="translate(13 8) translate(47 25)"/>
                <path fill="url(#prefix__i)" d="M1.91 12.13c.383.177.515-1.094 2.158-2.64C5.142 8.478 5.68 7.972 6.066 7.832c.352-.105.655-.335.855-.648.227-.38.282-.89.159-.983-.113-.086-.28.252-.71.394-.399.093-.816.057-1.193-.103-1.06-.217-2.156.083-2.968.81-1.424 1.316-.87 4.565-.298 4.829z" transform="translate(13 8) translate(47 25)"/>
                <path fill="url(#prefix__j)" d="M2.755 12.095c.517.3 1.066-1.475 3.928-3.435 1.874-1.283 2.81-1.924 3.421-2.07.554-.101 1.06-.381 1.448-.798.442-.506.663-1.217.507-1.365-.144-.137-.485.318-1.162.46-.597.082-1.205-.025-1.74-.306-1.576-.634-3.676.105-4.623.742-2.477 1.665-2.554 6.323-1.779 6.772z" transform="translate(13 8) translate(47 25)"/>
                <path fill="#5C8000" d="M4.575 14.084c2.923-.107 3.761-.012 4.479.576.436.358.216.397.884 1.07 1.123 1.128 1.927 1.203 2.338 2.16.224.52.23 1.07.145 1.097-.103.033-.302-.686-.766-1.294-.702-.8-1.655-1.324-2.695-1.484-1.799-.421-2.15.267-3.924.02-1.9-.265-3.636-1.35-3.54-1.805.02-.101.147-.232 3.079-.34z" transform="translate(13 8) translate(47 25)"/>
                <path fill="#457A00" d="M.545 13.755c-.453-.753-.023-1.914.516-2.624 1.112-1.463 2.565-.846 4.098-2.542.434-.48.65-.897.873-.829.393.12.407 1.624.104 2.82-.324 1.391-1.169 2.597-2.354 3.358-.662.482-1.491.658-2.286.486-.385-.1-.723-.337-.951-.669z" transform="translate(13 8) translate(47 25)"/>
                <path fill="#95BD36" d="M2.72 7.985c.199-.901.303-1.821.312-2.745.025-1.42-.201-2.833-.67-4.17-.025.004.092.43.137 1.098.068 1.007-.069 1.949-.88 4.617-.56 1.842-.606 1.76-.758 2.495-.255 1.225-.484 3.173-.157 3.27.377.112 1.512-2.232 2.016-4.565zM1.521 14.442c-.005.035-.002.072.01.106.287.088.539.181.658.22 1.139.377 2.307.655 3.491.831 1.266.092 2.524.269 3.766.53.992.222 1.903.72 2.634 1.44.047.053.093.109.139.165-.431-.797-1.203-.93-2.255-1.988-.668-.672-.448-.71-.884-1.069-.718-.588-1.556-.683-4.48-.576-2.931.108-3.057.239-3.079.34z" transform="translate(13 8) translate(47 25)"/>
                <path fill="#5C8000" d="M.886 14.022c-.019.048-.034.097-.045.148.183.133.388.234.604.3.795.171 1.624-.005 2.286-.487 1.185-.761 2.03-1.967 2.354-3.357.303-1.197.29-2.701-.104-2.82-.104-.032-.208.044-.331.18-.037.26-.097.514-.18.761-.18 1.766-1.772 3.67-2.98 4.584-.476.354-1.024.59-1.604.691z" transform="translate(13 8) translate(47 25)"/>
            </g>
            <g>
                <path fill="url(#prefix__k)" d="M10.021 10.896c.248-.474-1.354-1.105-3.208-3.954C5.6 5.078 4.993 4.146 4.841 3.555c-.113-.537-.378-1.032-.766-1.428-.467-.453-1.109-.707-1.236-.567-.116.129.302.482.454 1.136.098.555.026 1.126-.209 1.64-.506 1.464.23 3.51.834 4.453 1.576 2.462 5.731 2.82 6.103 2.107z" transform="translate(13 8) translate(22)"/>
                <path fill="url(#prefix__l)" d="M9.846 13.35c-1.462.643-3.37-.502-4.25-1.776-.451-.656-.563-1.345-.786-2.724-.383-2.367.11-3.823-.044-4.493-.017-.053-.01-.11.018-.158.158-.186.946.24 1.34.424 1.861.872 2.851.052 3.941.877.515.39.7.922 1.07 1.984.531 1.192.631 2.525.282 3.78-.207.876-.776 1.63-1.571 2.086z" transform="translate(13 8) translate(22)"/>
                <path fill="url(#prefix__m)" d="M9.35 13.106c-1.46.665-3.384-.57-4.28-1.932-.46-.7-.58-1.431-.818-2.895-.41-2.513.067-4.05-.094-4.763-.018-.056-.012-.116.017-.167.155-.195.95.266 1.346.465 1.876.946 2.86.088 3.96.976.52.42.712.984 1.094 2.114.546 1.268.66 2.674.326 4.01-.173.55-.542 1.732-1.552 2.192z" transform="translate(13 8) translate(22)"/>
                <path fill="#5C8000" d="M8.302 7.001c.005.012.01.023.017.034.056-.022.108-.052.154-.09.17-.16.28-.37.315-.597.086-.362.033-.741-.15-1.067-.146-.259-.398-.494-.486-.423-.023.018-.028.054-.027.104.037.05.069.105.095.161.243.427.33.923.245 1.404-.024.166-.08.327-.163.474z" transform="translate(13 8) translate(22)"/>
                <path fill="url(#prefix__n)" d="M10.099 11.906c-.955.382-2.099-.789-2.717-1.934-1.276-2.362-.18-4.36-1.587-7.478-.398-.881-.79-1.397-.651-1.716.245-.562 1.893.063 3.112 1.05 1.576 1.312 2.632 3.12 2.984 5.112.158.8.473 2.409-.134 3.771-.18.502-.537.925-1.007 1.195z" transform="translate(13 8) translate(22)"/>
                <path fill="url(#prefix__o)" d="M10.277 10.923c.085-.526-1.64-.63-4.311-2.757-1.748-1.392-2.622-2.089-2.955-2.602-.279-.474-.69-.862-1.184-1.118-.589-.284-1.28-.327-1.356-.155-.07.158.44.363.793.936.271.497.384 1.06.325 1.62-.015 1.544 1.338 3.257 2.212 3.964 2.285 1.847 6.35.902 6.476.112z" transform="translate(13 8) translate(22)"/>
                <path fill="url(#prefix__p)" d="M8.216 12.873c-1.03-.049-1.557-1.583-1.62-2.876C6.47 7.33 8.333 5.975 8.414 2.57c.023-.963-.108-1.592.157-1.823.466-.407 1.686.841 2.361 2.24.856 1.84 1.026 3.915.479 5.864-.206.79-.62 2.377-1.762 3.36-.382.379-.89.614-1.432.663z" transform="translate(13 8) translate(22)"/>
                <path fill="#95BD36" d="M7.648 6.762c-.105-.427-.251-.844-.436-1.245-.284-.628-.668-1.21-1.135-1.723-.01.005.126.174.283.46.322.675.52 1.401.584 2.144.147.887.111.858.2 1.201.146.573.451 1.457.607 1.451.18-.006.168-1.196-.103-2.288z" transform="translate(13 8) translate(22)"/>
                <path fill="url(#prefix__q)" d="M11.535 8.865c-.242-1.037-.582-2.05-1.014-3.026-.453-1.035-1.168-1.941-2.077-2.633-.387-.322-.799-.614-1.232-.874-.033-.006-.066-.01-.1-.013-.04-.003-.08.001-.118.012l-.035.076c-.02.04-.051.11-.09.182 1.608 2.66 1.028 4.625 2.44 6.62.663.937 1.733 1.833 2.463 1.477 0-.05-.001-.098-.003-.147-.025-.564-.103-1.124-.234-1.674z" transform="translate(13 8) translate(22)"/>
                <path fill="url(#prefix__r)" d="M10.33 9.671c-.285-1.24-.68-2.454-1.18-3.627-.514-1.23-1.328-2.32-2.371-3.173-.437-.388-.903-.743-1.396-1.061-.037-.008-.074-.014-.112-.018-.045-.003-.09 0-.133.013l-.039.09c-.021.048-.055.131-.097.217 1.843 3.198 1.216 5.536 2.83 7.938.759 1.128 1.973 2.213 2.79 1.799l-.006-.176c-.035-.674-.131-1.344-.286-2.002z" transform="translate(13 8) translate(22)"/>
                <path fill="url(#prefix__s)" d="M8.698 12.762c.162-.272-.78-.467-1.812-1.81-.442-.485-.808-1.03-1.086-1.618-.051-.271-.2-.515-.419-.688-.268-.199-.645-.277-.725-.193-.074.078.167.228.24.56.038.305-.022.614-.172.884-.245.775-.107 1.617.374 2.278.876 1.163 3.357.994 3.6.587z" transform="translate(13 8) translate(22)"/>
                <path fill="url(#prefix__t)" d="M8.738 12.128c.265-.364-1.023-.907-2.268-3.193-.815-1.496-1.222-2.244-1.283-2.712-.033-.421-.203-.82-.485-1.141-.345-.369-.861-.587-.985-.482-.114.097.2.386.254.903.014.452-.114.898-.367 1.277-.6 1.129-.211 2.753.192 3.51 1.055 1.975 4.544 2.384 4.942 1.838z" transform="translate(13 8) translate(22)"/>
                <path fill="#5C8000" d="M10.374 10.919c.15-2.192.287-2.811.785-3.303.303-.299.314-.131.872-.58.935-.754 1.055-1.349 1.804-1.584.409-.128.822-.091.835-.025.017.079-.538.173-1.031.474-.655.464-1.124 1.137-1.326 1.902-.457 1.312.031 1.626-.294 2.933-.348 1.399-1.3 2.614-1.633 2.509-.074-.024-.163-.128-.012-2.326z" transform="translate(13 8) translate(22)"/>
                <path fill="#457A00" d="M9.81 13.905c-.601.281-1.439-.128-1.929-.584-1.01-.941-.433-1.98-1.585-3.253-.325-.36-.621-.553-.553-.714.121-.285 1.251-.182 2.125.134 1.018.347 1.856 1.07 2.334 2.012.31.53.376 1.164.184 1.745-.105.28-.31.514-.577.66z" transform="translate(13 8) translate(22)"/>
                <path fill="#95BD36" d="M5.651 11.844c-.66-.216-1.343-.363-2.035-.439-1.063-.126-2.141-.063-3.182.186.002.019.33-.037.835-.02.761.025 1.457.199 3.395 1.005 1.338.557 1.273.586 1.812.755.9.283 2.343.6 2.441.364.114-.274-1.555-1.298-3.266-1.85zM10.401 13.227c.026.006.054.007.08 0 .09-.207.18-.388.218-.474.372-.823.673-1.674.899-2.546.168-.939.4-1.865.693-2.773.245-.724.691-1.368 1.289-1.86.044-.03.089-.061.135-.09-.633.261-.793.828-1.67 1.534-.557.448-.568.281-.871.58-.498.492-.636 1.11-.786 3.303-.15 2.198-.061 2.302.013 2.326z" transform="translate(13 8) translate(22)"/>
                <path fill="#5C8000" d="M10.036 13.67c.035.017.07.032.107.045.115-.128.207-.272.273-.43.192-.58.125-1.213-.185-1.744-.478-.942-1.315-1.665-2.333-2.011-.874-.317-2.004-.42-2.125-.135-.032.075.018.158.11.261.192.047.378.111.557.192 1.31.268 2.614 1.6 3.205 2.572.227.381.361.81.391 1.25z" transform="translate(13 8) translate(22)"/>
            </g>
            <g>
                <path fill="url(#prefix__u)" d="M8.565 4.56c-.287-.248-1.035.675-3.391 1.355-.89.318-1.816.539-2.759.656-.399-.025-.798.057-1.15.235-.407.22-.708.59-.634.698.069.1.397-.107.886-.086.409.038.797.19 1.115.437.934.597 2.514.495 3.292.277 2.032-.57 3.072-3.2 2.641-3.572z" transform="translate(13 8) translate(13 34)"/>
                <path fill="url(#prefix__v)" d="M10.259 5.124c.175 1.066-.993 2.094-2.057 2.43-.679.15-1.385.153-2.066.01-1.738-.186-2.67-.773-3.17-.797-.041.002-.08-.013-.109-.04-.1-.137.35-.57.553-.79.967-1.048.578-1.841 1.366-2.397.485-.26 1.042-.374 1.598-.329.94-.126 1.898.054 2.715.51.577.296 1 .803 1.17 1.403z" transform="translate(13 8) translate(13 34)"/>
                <path fill="url(#prefix__w)" d="M9.993 5.401c.191 1.068-1.044 2.09-2.171 2.42-.723.147-1.47.146-2.194 0-1.846-.195-2.838-.787-3.37-.814-.043.002-.084-.013-.114-.041-.108-.137.367-.568.583-.788 1.021-1.043.604-1.838 1.438-2.39.52-.258 1.11-.37 1.695-.32.996-.122 2.007.062 2.884.524.604.288 1.055.798 1.249 1.41z" transform="translate(13 8) translate(13 34)"/>
                <path fill="#5C8000" d="M5.497 4.96l.027-.005c-.005-.04-.016-.08-.034-.117-.08-.139-.207-.25-.36-.314-.238-.122-.516-.157-.78-.099-.21.048-.423.168-.39.238.009.019.033.029.068.037.043-.015.087-.026.132-.032.347-.08.712-.044 1.035.099.112.046.215.111.302.193z" transform="translate(13 8) translate(13 34)"/>
                <path fill="url(#prefix__x)" d="M9.29 4.695c.088.689-.953 1.216-1.876 1.407-1.905.394-3.103-.685-5.565-.344-.695.096-1.133.256-1.331.107-.349-.262.404-1.216 1.33-1.825 1.222-.782 2.695-1.134 4.163-.998.939.013 1.852.284 2.63.78.319.21.549.518.65.873z" transform="translate(13 8) translate(13 34)"/>
                <path fill="url(#prefix__y)" d="M8.633 4.399c-.355-.152-.755.948-2.759 2.29-.735.566-1.538 1.048-2.392 1.439-.387.093-.737.288-1.012.562-.311.33-.472.77-.366.851.098.075.34-.218.81-.342.4-.085.819-.055 1.202.086 1.083.293 2.546-.27 3.209-.707 1.734-1.142 1.84-3.952 1.308-4.18z" transform="translate(13 8) translate(13 34)"/>
                <path fill="url(#prefix__z)" d="M9.614 6.094c-.23.66-1.41.72-2.331.522C5.38 6.209 4.78 4.752 2.399 4.074c-.673-.192-1.141-.223-1.254-.437-.198-.377.912-.94 2.025-1.12 1.457-.217 2.95.054 4.218.766.844.387 1.55 1 2.03 1.76.195.317.264.69.196 1.05z" transform="translate(13 8) translate(13 34)"/>
                <path fill="#95BD36" d="M5.205 5.34c-.32-.01-.642.008-.959.054-.496.07-.978.21-1.428.42.002.007.146-.05.377-.1.537-.084 1.085-.08 1.62.016.652.067.625.085.883.091.431.01 1.111-.026 1.137-.128.03-.117-.81-.328-1.63-.353z" transform="translate(13 8) translate(13 34)"/>
                <path fill="url(#prefix__A)" d="M7.423 3.205c-.776-.034-1.554 0-2.323.102-.814.104-1.587.4-2.247.864-.3.192-.583.405-.849.638-.01.02-.02.041-.028.062-.01.026-.014.053-.014.08l.047.036c.025.02.068.053.111.091 2.177-.554 3.45.184 5.122-.366.785-.258 1.619-.787 1.507-1.327l-.104-.025c-.401-.087-.81-.14-1.222-.155z" transform="translate(13 8) translate(13 34)"/>
                <path fill="url(#prefix__B)" d="M7.762 4.134c-.928-.042-1.857-.009-2.778.1-.963.108-1.884.435-2.683.955-.356.212-.694.45-1.011.71-.013.023-.024.046-.034.07-.011.029-.017.059-.016.089l.056.042c.03.022.082.06.134.103 2.6-.609 4.127.227 6.124-.379.938-.285 1.932-.873 1.795-1.479-.041-.01-.083-.02-.124-.028-.482-.101-.971-.162-1.463-.183z" transform="translate(13 8) translate(13 34)"/>
                <path fill="url(#prefix__C)" d="M9.627 5.76c-.16-.155-.477.421-1.618.843-.424.198-.878.335-1.345.408-.2-.017-.4.035-.563.145-.19.137-.318.368-.273.435.04.062.192-.066.44-.052.221.03.427.126.589.273.498.302 1.117.367 1.674.176.985-.355 1.337-1.995 1.096-2.228z" transform="translate(13 8) translate(13 34)"/>
                <path fill="url(#prefix__D)" d="M9.189 5.618c-.206-.239-.833.497-2.678.885-.699.2-1.422.313-2.152.334-.303-.056-.617-.019-.896.105-.324.157-.576.451-.525.55.046.092.31-.058.683.002.321.074.61.238.83.472.718.503 1.63.692 2.506.52 1.59-.322 2.54-2.51 2.232-2.868z" transform="translate(13 8) translate(13 34)"/>
                <path fill="#5C8000" d="M8.648 4.335c-1.515-.5-1.924-.702-2.176-1.115-.153-.252-.033-.229-.243-.672-.353-.746-.75-.932-.772-1.462-.013-.288.091-.55.14-.546.06.003.02.38.139.756.202.51.586.937 1.086 1.209.837.538 1.15.278 2.01.73.918.482 1.593 1.322 1.455 1.519-.03.044-.12.082-1.64-.419z" transform="translate(13 8) translate(13 34)"/>
                <path fill="#457A00" d="M10.642 5.25c.085.44-.362.909-.776 1.143-.854.483-1.476-.083-2.59.43-.316.146-.507.302-.608.228-.178-.13.109-.845.498-1.353C7.603 5.1 8.27 4.69 9.024 4.553c.432-.103.89-.03 1.263.201.177.12.303.296.355.496z" transform="translate(13 8) translate(13 34)"/>
                <path fill="#95BD36" d="M8.403 7.568c-.277.39-.51.805-.695 1.24-.29.666-.45 1.377-.473 2.098.014.002.037-.221.145-.546.307-.749.766-1.434 1.351-2.017.646-.766.654-.718.875-1.037.37-.531.867-1.41.72-1.517-.172-.123-1.21.771-1.923 1.78zM10.277 4.741c.01-.016.016-.033.016-.052-.13-.096-.24-.187-.293-.228-.508-.393-1.05-.744-1.621-1.05-.629-.282-1.237-.602-1.82-.96-.464-.291-.832-.699-1.064-1.177l-.04-.104c.065.458.434.666.764 1.365.21.443.09.42.243.672.252.413.661.616 2.176 1.115 1.519.501 1.609.463 1.64.42z" transform="translate(13 8) translate(13 34)"/>
                <path fill="#5C8000" d="M10.52 5.06c.019-.02.036-.04.052-.062-.068-.098-.152-.184-.25-.256-.373-.23-.83-.303-1.263-.2-.754.137-1.422.548-1.859 1.144-.388.509-.675 1.223-.498 1.353.047.035.115.018.205-.023.07-.116.15-.225.241-.326.57-.797 1.43-1.368 2.418-1.606.312-.078.638-.086.954-.025z" transform="translate(13 8) translate(13 34)"/>
            </g>
            <g>
                <path fill="url(#prefix__E)" d="M12.242 10.66c-.475.351-1.423-1.277-4.82-2.795C5.2 6.87 4.089 6.375 3.422 6.31c-.601-.03-1.182-.232-1.677-.584-.567-.429-.948-1.08-.817-1.242.12-.149.572.244 1.307.296.619.01 1.227-.166 1.747-.509 1.505-.8 3.849-.355 4.97.136 2.933 1.285 4.003 5.727 3.291 6.253z" transform="translate(13 8) translate(17 18)"/>
                <path fill="url(#prefix__F)" d="M14.877 10.048c.458-1.695-1.099-3.566-2.627-4.3-.785-.377-1.552-.379-3.085-.383-2.633-.007-4.133.778-4.886.727-.06-.01-.122.007-.168.047-.176.202.416.983.68 1.377 1.253 1.869.525 3.083 1.6 4.122.508.491 1.115.6 2.33.817 1.38.372 2.845.25 4.15-.344.536-.283 1.689-.889 2.006-2.063z" transform="translate(13 8) translate(17 18)"/>
                <path fill="url(#prefix__G)" d="M14.53 9.552c.483-1.695-1.175-3.569-2.8-4.305-.835-.378-1.649-.381-3.277-.388-2.796-.012-4.387.77-5.187.719-.063-.01-.128.006-.178.046-.187.203.445.985.726 1.38 1.335 1.87.565 3.083 1.71 4.124.54.492 1.186.601 2.475.82 1.466.374 3.011.256 4.406-.337.57-.281 1.792-.886 2.126-2.06z" transform="translate(13 8) translate(17 18)"/>
                <path fill="#5C8000" d="M7.731 9.469c.013.003.027.007.04.012-.015.064-.04.126-.073.183-.146.21-.355.367-.596.444-.379.156-.8.163-1.183.021-.305-.113-.602-.346-.54-.454.017-.028.055-.04.109-.047.06.031.125.057.19.075.504.19 1.056.198 1.565.024.177-.055.342-.143.488-.258z" transform="translate(13 8) translate(17 18)"/>
                <path fill="url(#prefix__H)" d="M13.35 10.57c.259-1.1-1.2-2.138-2.545-2.611-2.774-.976-4.763.557-8.38-.431-1.021-.28-1.646-.616-1.97-.41-.569.362.38 2.04 1.652 3.192 1.683 1.482 3.82 2.314 6.04 2.354.895.032 2.693.098 4.072-.795.516-.282.916-.742 1.131-1.298z" transform="translate(13 8) translate(17 18)"/>
                <path fill="url(#prefix__I)" d="M12.314 10.934c-.558.182-.954-1.67-3.702-4.198C6.812 5.08 5.914 4.254 5.3 3.98c-.56-.22-1.048-.598-1.408-1.09-.405-.59-.565-1.331-.39-1.443.16-.103.466.414 1.146.698.584.208 1.214.234 1.812.074 1.673-.283 3.756.889 4.667 1.714 2.38 2.158 2.022 6.726 1.186 7z" transform="translate(13 8) translate(17 18)"/>
                <path fill="url(#prefix__J)" d="M14.092 8.363c-.223-1.108-1.974-1.415-3.388-1.26-2.917.322-4.082 2.574-7.767 3.25-1.04.19-1.746.157-1.953.483-.366.576 1.19 1.683 2.82 2.174 2.138.61 4.418.437 6.444-.492.825-.36 2.48-1.08 3.358-2.488.35-.48.522-1.07.486-1.667z" transform="translate(13 8) translate(17 18)"/>
                <path fill="#95BD36" d="M7.364 8.8c-.482-.04-.958-.126-1.423-.257-.73-.2-1.423-.515-2.058-.934.005-.011.21.107.546.228.787.233 1.607.322 2.425.264.986.006.949-.028 1.336.008.645.06 1.655.24 1.675.41.023.195-1.27.387-2.501.282z" transform="translate(13 8) translate(17 18)"/>
                <path fill="url(#prefix__K)" d="M10.286 12.652c-1.166-.084-2.322-.278-3.452-.579-1.199-.312-2.3-.93-3.2-1.797-.413-.364-.798-.76-1.151-1.184-.012-.035-.023-.07-.031-.106-.01-.043-.012-.087-.007-.13l.078-.052c.04-.028.11-.074.183-.128 3.151 1.284 5.189.316 7.587 1.503 1.126.558 2.275 1.563 2.008 2.416l-.16.022c-.616.07-1.237.082-1.855.035z" transform="translate(13 8) translate(17 18)"/>
                <path fill="url(#prefix__L)" d="M10.963 11.207c-1.393-.096-2.776-.315-4.132-.655-1.42-.345-2.736-1.04-3.835-2.023-.492-.406-.954-.851-1.38-1.33-.015-.039-.028-.078-.038-.119-.011-.048-.014-.097-.008-.146l.092-.058c.048-.031.133-.082.219-.142 3.775 1.446 6.21.365 9.083 1.7 1.35.628 2.727 1.757 2.41 2.714l-.19.024c-.738.077-1.481.09-2.22.035z" transform="translate(13 8) translate(17 18)"/>
                <path fill="url(#prefix__M)" d="M14.05 8.905c-.269.223-.635-.765-2.263-1.651-.598-.396-1.25-.699-1.935-.9-.302-.008-.591-.127-.815-.335-.26-.256-.407-.651-.328-.753.072-.093.275.142.647.164.337-.011.663-.13.931-.338.8-.4 1.738-.395 2.534.013 1.407.749 1.631 3.467 1.229 3.8z" transform="translate(13 8) translate(17 18)"/>
                <path fill="url(#prefix__N)" d="M13.369 9.058c-.352.35-1.153-.952-3.84-1.908-1.758-.626-2.637-.939-3.154-.924-.463.037-.925-.079-1.32-.33-.456-.31-.778-.831-.684-.983.087-.14.452.15 1.022.12.493-.063.956-.279 1.326-.618 1.127-.845 2.954-.703 3.841-.396 2.318.802 3.335 4.513 2.809 5.039z" transform="translate(13 8) translate(17 18)"/>
                <path fill="#5C8000" d="M12.324 11.039c-2.355.54-3.004.795-3.456 1.42-.275.38-.091.364-.487 1.045-.665 1.144-1.291 1.376-1.423 2.229-.071.465.036.905.11.91.088.004.1-.614.346-1.2.396-.79 1.049-1.414 1.846-1.765 1.35-.722 1.77-.247 3.136-.824 1.462-.618 2.625-1.859 2.456-2.202-.038-.077-.166-.155-2.528.387z" transform="translate(13 8) translate(17 18)"/>
                <path fill="#457A00" d="M15.473 9.913c.207-.7-.375-1.537-.95-1.99-1.188-.933-2.22-.127-3.792-1.157-.444-.29-.702-.578-.866-.476-.29.18.007 1.387.495 2.28.543 1.043 1.465 1.827 2.567 2.183.627.243 1.325.207 1.925-.1.286-.164.507-.426.621-.74z" transform="translate(13 8) translate(17 18)"/>
                <path fill="#95BD36" d="M12.553 5.761c-.343-.679-.614-1.393-.81-2.13-.313-1.13-.421-2.31-.322-3.48.021-.002.015.363.116.908.152.82.455 1.544 1.65 3.506.824 1.354.844 1.28 1.116 1.834.455.926 1.037 2.436.796 2.583-.278.17-1.664-1.462-2.546-3.22zM14.834 10.671c.012.028.017.057.015.087-.211.133-.393.26-.48.317-.832.546-1.707 1.019-2.616 1.413-.992.344-1.96.755-2.897 1.23-.746.39-1.371.984-1.807 1.717-.027.052-.052.107-.077.162.18-.731.77-1.003 1.392-2.074.395-.681.212-.665.487-1.045.451-.624 1.1-.88 3.456-1.42 2.362-.541 2.49-.463 2.527-.387z" transform="translate(13 8) translate(17 18)"/>
                <path fill="#5C8000" d="M15.256 10.2c.024.034.046.07.066.108-.12.146-.261.27-.42.37-.6.307-1.298.344-1.925.1-1.102-.356-2.024-1.14-2.567-2.183-.488-.893-.785-2.1-.496-2.28.077-.047.175-.008.302.075.082.199.183.39.3.57.505 1.374 2.166 2.558 3.318 3.03.452.181.938.253 1.422.21z" transform="translate(13 8) translate(17 18)"/>
            </g>
            <g>
                <path fill="url(#prefix__O)" d="M5.271 14.432c.706.042.644-2.15 3.15-5.788 1.639-2.38 2.459-3.57 3.1-4.055.594-.411 1.059-.977 1.34-1.634.309-.78.285-1.658.05-1.733-.217-.068-.43.601-1.147 1.118-.624.403-1.356.616-2.104.611-2.042.172-4.151 2.093-4.985 3.285-2.18 3.115-.462 8.134.596 8.196z" transform="translate(13 8) translate(37 3)"/>
                <path fill="url(#prefix__P)" d="M6.587 16.872c-1.885-.855-2.354-3.66-1.82-5.59.274-.99.87-1.685 2.065-3.073 2.05-2.383 3.929-3.15 4.471-3.868.038-.062.101-.105.174-.117.32-.008.56 1.112.709 1.645.704 2.53 2.367 2.78 2.462 4.53.046.826-.33 1.455-1.084 2.714-.662 1.109-1.617 2.705-3.551 3.49-.674.274-2.12.861-3.426.27z" transform="translate(13 8) translate(37 3)"/>
                <path fill="url(#prefix__Q)" d="M6.41 16.188c-1.903-.833-2.295-3.732-1.689-5.75.312-1.037.945-1.775 2.21-3.25 2.175-2.534 4.122-3.386 4.7-4.147.022-.028.09-.122.182-.126.327-.017.539 1.138.674 1.688.641 2.605 2.336 2.818 2.38 4.63.02.857-.385 1.521-1.195 2.85-.714 1.17-1.741 2.855-3.746 3.727-.699.303-2.198.955-3.516.378z" transform="translate(13 8) translate(37 3)"/>
                <path fill="url(#prefix__R)" d="M9.368 16.455c-1.273-.395-1.414-2.495-1.054-4.14.742-3.397 3.534-4.498 4.789-8.756.354-1.203.403-2.038.813-2.243.722-.36 1.827 1.604 2.199 3.582.449 2.592-.041 5.256-1.386 7.53-.525.928-1.58 2.79-3.343 3.656-.606.353-1.321.485-2.018.371z" transform="translate(13 8) translate(37 3)"/>
                <path fill="url(#prefix__S)" d="M6.684 14.82c.703-.082.232-2.226 2.016-6.237 1.168-2.625 1.752-3.938 2.292-4.525.508-.508.86-1.145 1.015-1.84.157-.82-.03-1.679-.277-1.711-.226-.03-.31.665-.92 1.298-.539.505-1.22.842-1.955.967-1.978.524-3.694 2.779-4.292 4.095-1.561 3.44 1.068 8.076 2.121 7.953z" transform="translate(13 8) translate(37 3)"/>
                <path fill="url(#prefix__T)" d="M9.343 16.334C8.07 15.94 7.93 13.84 8.29 12.194c.742-3.396 3.534-4.498 4.789-8.756.354-1.203.403-2.038.813-2.242.722-.361 1.827 1.604 2.199 3.581.45 2.592-.04 5.256-1.385 7.53-.526.928-1.58 2.79-3.344 3.656-.606.354-1.321.485-2.018.371z" transform="translate(13 8) translate(37 3)"/>
                <path fill="url(#prefix__U)" d="M12.519 14.674c.835-1.115 1.563-2.304 2.176-3.55.654-1.316.957-2.773.88-4.235-.005-.645-.06-1.289-.167-1.925-.022-.037-.045-.073-.071-.108-.031-.04-.07-.075-.113-.103-.035.01-.07.021-.106.03-.057.016-.154.046-.258.07-1.306 3.808-3.77 4.924-4.574 7.977-.377 1.435-.37 3.224.608 3.622l.144-.128c.545-.504 1.04-1.056 1.48-1.65z" transform="translate(13 8) translate(37 3)"/>
                <path fill="url(#prefix__V)" d="M10.688 14.205c1.003-1.33 1.885-2.743 2.638-4.223.8-1.54 1.202-3.248 1.174-4.976.019-.749-.02-1.499-.119-2.242-.023-.042-.05-.083-.077-.123-.035-.046-.077-.086-.126-.117-.041.013-.082.028-.124.04-.066.02-.178.058-.3.09-1.646 4.493-4.522 5.883-5.563 9.477-.49 1.688-.548 3.777.56 4.207.058-.051.115-.102.171-.155.646-.608 1.237-1.27 1.766-1.978z" transform="translate(13 8) translate(37 3)"/>
                <path fill="url(#prefix__W)" d="M6.204 15.27c.41-.076-.193-1.147.28-3.28.31-1.395.465-2.094.702-2.42.228-.28.347-.63.335-.987-.028-.426-.27-.855-.422-.86-.14-.004-.087.355-.359.707-.273.297-.633.502-1.031.589-.986.423-1.713 1.273-1.968 2.298-.425 1.83 1.848 4.067 2.463 3.953z" transform="translate(13 8) translate(37 3)"/>
                <path fill="url(#prefix__X)" d="M6.873 14.769c.59-.055.043-1.754 1.281-4.895.81-2.056 1.215-3.084 1.633-3.54.395-.39.652-.894.734-1.438.077-.644-.141-1.326-.352-1.355-.194-.026-.217.521-.69 1.013-.442.398-.998.655-1.593.735-1.64.386-2.94 2.142-3.357 3.173-1.088 2.694 1.46 6.39 2.344 6.307z" transform="translate(13 8) translate(37 3)"/>
                <path fill="#5C8000" d="M9.473 15.308c2.327-1.723 3.064-2.118 3.98-2.059.557.036.399.19 1.321.343 1.55.255 2.248-.137 3.119.383.475.283.788.71.733.78-.065.082-.63-.37-1.35-.586-1.021-.233-2.093-.11-3.032.347-1.704.678-1.605 1.414-3.192 2.215-1.698.858-3.724.98-3.901.57-.04-.091-.01-.265 2.322-1.993z" transform="translate(13 8) translate(37 3)"/>
                <path fill="#457A00" d="M6 17.31c-.792-.337-1.092-1.489-1.05-2.347.088-1.771 1.62-2.102 1.92-4.29.085-.62.028-1.068.248-1.14.389-.126 1.243 1.045 1.666 2.154.515 1.271.501 2.69-.04 3.952-.27.748-.848 1.351-1.593 1.662-.37.137-.779.14-1.151.009z" transform="translate(13 8) translate(37 3)"/>
                <path fill="#95BD36" d="M4.541 11.566c-.343-.818-.774-1.598-1.285-2.327C2.481 8.112 1.504 7.131.372 6.345c-.018.018.317.286.728.784.62.752 1.036 1.567 1.87 4.113.575 1.758.492 1.72.779 2.382.479 1.103 1.384 2.758 1.705 2.651.37-.124-.017-2.597-.913-4.709zM7.182 17.3c.015.031.038.058.066.078.285-.091.543-.16.661-.196 1.141-.343 2.25-.78 3.317-1.306 1.084-.637 2.21-1.204 3.37-1.695.934-.382 1.958-.502 2.957-.347.07.015.138.032.207.051-.8-.384-1.504-.055-2.955-.295-.923-.152-.765-.306-1.322-.342-.915-.06-1.652.336-3.979 2.06-2.333 1.727-2.362 1.9-2.322 1.992z" transform="translate(13 8) translate(37 3)"/>
                <path fill="#5C8000" d="M6.428 17.327c.011.048.027.096.045.142.225.001.449-.034.662-.104.745-.31 1.323-.914 1.593-1.663.541-1.261.555-2.68.04-3.952-.423-1.108-1.278-2.28-1.666-2.153-.103.034-.144.152-.169.328.115.224.209.457.28.698.842 1.485.611 3.87.137 5.264-.19.543-.506 1.036-.922 1.44z" transform="translate(13 8) translate(37 3)"/>
            </g>
        </g>
    </g>
</svg>
