<svg xmlns="http://www.w3.org/2000/svg" xmlns:xlink="http://www.w3.org/1999/xlink" width="111" height="112" viewBox="0 0 111 112">
    <defs>
        <linearGradient id="prefix__a" x1="-6.432%" x2="104.639%" y1="61.987%" y2="27.58%">
            <stop offset="31.96%" stop-color="#FFF" stop-opacity=".6"/>
            <stop offset="53.569%" stop-color="#D4D7FF" stop-opacity=".489"/>
            <stop offset="71.423%" stop-color="#D4D7FF"/>
        </linearGradient>
        <linearGradient id="prefix__b" x1="44.896%" x2="60.387%" y1="25.894%" y2="74.49%">
            <stop offset="31.96%" stop-color="#FFF" stop-opacity=".6"/>
            <stop offset="53.569%" stop-color="#D4D7FF" stop-opacity=".489"/>
            <stop offset="71.423%" stop-color="#D4D7FF"/>
        </linearGradient>
        <linearGradient id="prefix__c" x1="2.512%" x2="96.628%" y1="46.359%" y2="52.369%">
            <stop offset="31.96%" stop-color="#FFF" stop-opacity=".6"/>
            <stop offset="53.569%" stop-color="#D4D7FF" stop-opacity=".489"/>
            <stop offset="71.423%" stop-color="#D4D7FF"/>
        </linearGradient>
        <linearGradient id="prefix__d" x1="30.86%" x2="61.285%" y1="27.666%" y2="56.706%">
            <stop offset="31.96%" stop-color="#FFF" stop-opacity=".6"/>
            <stop offset="53.569%" stop-color="#D4D7FF" stop-opacity=".489"/>
            <stop offset="71.423%" stop-color="#D4D7FF"/>
        </linearGradient>
        <linearGradient id="prefix__e" x1="56.83%" x2="39.464%" y1="39.107%" y2="59.854%">
            <stop offset="31.96%" stop-color="#FFF" stop-opacity=".6"/>
            <stop offset="53.569%" stop-color="#D4D7FF" stop-opacity=".489"/>
            <stop offset="71.423%" stop-color="#D4D7FF"/>
        </linearGradient>
        <linearGradient id="prefix__f" x1="34.422%" x2="56.312%" y1="29.452%" y2="57.211%">
            <stop offset="31.96%" stop-color="#FFF" stop-opacity=".6"/>
            <stop offset="53.569%" stop-color="#D4D7FF" stop-opacity=".489"/>
            <stop offset="71.423%" stop-color="#D4D7FF"/>
        </linearGradient>
        <linearGradient id="prefix__i" x1="44.427%" x2="57.596%" y1="34.269%" y2="70.476%">
            <stop offset="31.96%" stop-color="#FFF" stop-opacity=".6"/>
            <stop offset="53.569%" stop-color="#D4D7FF" stop-opacity=".489"/>
            <stop offset="71.423%" stop-color="#D4D7FF"/>
        </linearGradient>
        <path id="prefix__g" d="M.432.212C.354.302.32.42.34.536l1.84 5.687c.028.173.169.31.349.335.018.003.037.004.055.005h.01c.2-.003.375-.144.405-.34L4.84.563c.022-.117-.01-.235-.09-.325-.078-.09-.193-.14-.314-.14H.72C.613.097.51.137.432.211"/>
    </defs>
    <g fill="none" fill-rule="evenodd" transform="translate(9 9)">
        <ellipse cx="46.5" cy="47" fill="#A8DBF4" stroke="#A8DBF4" stroke-width="9" rx="51" ry="51.5"/>
        <path fill="url(#prefix__a)" fill-rule="nonzero" d="M26.358 69.87c2.994 1.403 6.411-8.803 23.4-21.266 11.119-8.157 16.678-12.235 20.275-13.368 3.27-.873 6.238-2.685 8.567-5.227 2.647-3.062 4.023-7.15 3.126-7.899-.825-.688-2.875 2.032-6.857 3.185-3.386.787-6.92.51-10.156-.793-9.152-2.711-21.535 2.522-27.157 6.582C22.86 41.698 21.869 67.77 26.358 69.871z"/>
        <path fill="url(#prefix__b)" fill-rule="nonzero" d="M10.523 67.641c-4.867-9.445 2.73-22.607 11.479-28.987 4.498-3.28 9.317-4.312 18.954-6.375 16.548-3.544 26.9-.885 31.575-2.187.362-.14.765-.12 1.114.054 1.343.968-1.468 6.388-2.668 9.075-5.69 12.743.313 18.976-5.232 26.566-2.62 3.586-6.31 5.037-13.69 7.94-8.24 4.037-17.53 5.256-26.499 3.476-3.706-.96-11.663-3.023-15.033-9.562z"/>
        <path fill="url(#prefix__c)" fill-rule="nonzero" d="M16.607 69.659c-2.78-5.696 4.484-13.015 11.744-17.126 14.973-8.482 28.31-2.404 48.163-11.916 5.61-2.688 8.846-5.235 10.962-4.484 3.73 1.324.17 11.546-5.877 19.267-8.05 9.99-19.49 16.963-32.337 19.711-7.984 2.403-16.527 2.516-24.577.324-3.32-.95-6.182-2.996-8.078-5.776z"/>
        <path fill="url(#prefix__d)" fill-rule="nonzero" d="M23.632 70.991c3.66.356 3.81-10.22 17.614-27.192 9.034-11.108 13.55-16.663 16.986-18.855 3.178-1.848 5.716-4.474 7.322-7.576 1.769-3.686 1.837-7.925.628-8.337-1.112-.38-2.363 2.8-6.2 5.134-3.336 1.805-7.188 2.668-11.065 2.478-10.65.376-22.026 9.166-26.615 14.723-11.997 14.526-4.157 39.091 1.33 39.625z"/>
        <path fill="url(#prefix__e)" fill-rule="nonzero" d="M27.308 50.176c17.4-1.771 26.837 10.455 49.138 9.86 6.302-.167 10.38-1.272 11.972.452 2.806 3.039-4.981 11.767-13.92 16.832-11.77 6.45-25.285 8.303-38.2 5.237-8.337-1.202-16.162-4.977-22.514-10.861-2.6-2.473-4.295-5.848-4.784-9.526.004-7.032 9.871-11.136 18.308-11.994z"/>
        <path fill="url(#prefix__f)" fill-rule="nonzero" d="M10.787 63.818c2.529 1.49 5.773-6.421 20.743-14.593 5.505-3.548 11.496-6.415 17.818-8.527 2.82-.325 5.454-1.467 7.517-3.26 2.366-2.184 3.672-5.353 2.924-6.066-.688-.657-2.53 1.32-5.985 1.796-3.035.22-6.07-.417-8.7-1.826-7.825-2.374-16.383-1.573-23.523 2.204-12.943 6.933-14.586 28.04-10.794 30.272z"/>
        <path fill="#457A00" fill-rule="nonzero" d="M2.713 66.59c-1.925-3.218.371-7.926 3.06-10.738 5.547-5.802 12.167-2.914 19.735-9.582 2.139-1.884 3.25-3.56 4.274-3.228 1.805.586 1.496 6.814-.215 11.695-1.854 5.68-6.093 10.474-11.808 13.353-3.204 1.842-7.114 2.382-10.779 1.488-1.77-.504-3.283-1.563-4.267-2.987z"/>
        <path fill="#95BD36" fill-rule="nonzero" d="M14.458 42.478c1.283-4.298 2.081-8.712 2.383-13.169.528-6.847-.262-13.728-2.332-20.309-.132.015.36 2.1.41 5.34.074 4.877-.901 9.386-5.867 22.05-3.428 8.742-3.647 8.337-4.646 11.84-1.667 5.847-3.4 15.187-1.722 15.743 1.934.642 8.497-10.368 11.774-21.495z"/>
        <path fill="#5C8000" fill-rule="nonzero" d="M2.268 67.598c-.106.195-.196.395-.268.6.892.595 1.896 1.06 2.971 1.38 3.971.894 8.209.354 11.68-1.488 6.193-2.88 10.787-7.674 12.796-13.353 1.854-4.882 2.189-11.11.233-11.696-.518-.155-1.062.139-1.724.676-.253 1.062-.627 2.102-1.116 3.105-1.381 7.264-9.932 14.783-16.284 18.287-2.496 1.353-5.332 2.205-8.288 2.49z"/>
        <g>
            <g fill="#404041">
                <path d="M7.492 5.99H7.4c-.255-.048-.42-.282-.37-.523v-.001c.633-3.028 3.225-5.2 6.305-5.256.261 0 .473.2.473.446s-.212.446-.473.446c-2.677.056-4.845 1.88-5.4 4.54-.044.209-.237.36-.463.36l.021-.012z" transform="rotate(-36 81.101 -50.674) translate(1)"/>
                <path d="M6.678 5.99c-.225-.002-.418-.152-.463-.36C5.664 2.97 3.492 1.15.82 1.09.557 1.084.35.88.356.634.362.387.58.192.84.198c3.08.064 5.672 2.228 6.304 5.256.05.24-.118.473-.373.52h-.093v.016z" transform="rotate(-36 81.101 -50.674) translate(1)"/>
            </g>
            <g transform="rotate(-36 81.101 -50.674) translate(6 22)">
                <mask id="prefix__h" fill="#fff">
                    <use xlink:href="#prefix__g"/>
                </mask>
                <path d="M.432.212C.354.302.32.42.34.536l1.84 5.687c.028.173.169.31.349.335.018.003.037.004.055.005h.01c.2-.003.375-.144.405-.34L4.84.563c.022-.117-.01-.235-.09-.325-.078-.09-.193-.14-.314-.14H.72C.613.097.51.137.432.211" mask="url(#prefix__h)"/>
            </g>
            <g>
                <path fill="#404041" d="M8.373.34c4.619 0 8.364 4.813 8.364 10.75 0 5.938-3.745 10.751-8.364 10.751-4.62 0-8.364-4.813-8.364-10.75C.008 5.153 3.752.34 8.373.34" transform="rotate(-36 81.101 -50.674) translate(0 4)"/>
                <path fill="#FAAF40" d="M.417 14.459c.266 1.048.672 2.057 1.207 3 3.446 1.598 10.03 1.598 13.476 0 .538-.935.949-1.937 1.22-2.98-3.145 1.803-12.75 1.803-15.895 0l-.008-.02zM.085 9.55C.03 10.06 0 10.576 0 11.09c0 .351 0 .698.043 1.045 4.126 1.73 12.524 1.73 16.651 0 .025-.347.038-.694.038-1.045 0-.515-.028-1.03-.085-1.54-4.046.656-12.507.656-16.575 0h.013zm16.09-2.344c-5.193.383-10.408.383-15.601 0 .281-.94.678-1.84 1.181-2.682 4.398-.51 8.84-.51 13.24 0 .503.842.9 1.742 1.18 2.682z" transform="rotate(-36 81.101 -50.674) translate(0 4)"/>
            </g>
        </g>
        <path fill="url(#prefix__i)" fill-rule="nonzero" d="M31.904 74.317c8.044-2.331 15.88-5.39 23.42-9.144 7.907-3.86 14.796-9.688 20.07-16.98 2.408-3.064 4.59-6.316 6.525-9.73.04-.251.067-.505.08-.76.01-.303-.032-.605-.125-.892-.201-.077-.407-.149-.606-.229-.321-.128-.875-.329-1.448-.582-20.4 13.447-35.923 10.017-51.172 21.66-7.163 5.47-13.9 13.991-10.928 19.34.383-.03.766-.06 1.148-.097 4.409-.463 8.77-1.328 13.036-2.586z"/>
        <path fill="#5C8000" fill-rule="nonzero" d="M23.718 71.068c13.894.275 17.845.989 21.099 4.158 1.98 1.929.925 2.062 3.926 5.64 5.041 6.012 8.835 6.612 10.542 11.551.93 2.692.823 5.464.41 5.58-.494.136-1.256-3.544-3.306-6.745-3.127-4.228-7.514-7.141-12.406-8.24-8.425-2.625-10.264.747-18.619-.995-8.94-1.865-16.902-7.826-16.335-10.092.127-.507.756-1.134 14.69-.857z"/>
        <path fill="#95BD36" fill-rule="nonzero" d="M9.024 70.946c-.037.182-.031.37.016.55 1.37.54 2.567 1.09 3.132 1.325 5.42 2.272 11.008 4.041 16.703 5.29 6.106.833 12.155 2.105 18.107 3.808 4.746 1.431 9.034 4.266 12.386 8.19.22.287.428.587.632.891-1.883-4.241-5.588-5.147-10.41-10.906-3.065-3.66-1.988-3.798-4.01-5.77-3.324-3.243-7.36-3.973-21.552-4.255-14.232-.282-14.874.358-15.004.877z"/>
    </g>
</svg>
